<?xml version="1.0" encoding="utf-8"?>
<!-- Generator: Adobe Illustrator 26.0.0, SVG Export Plug-In . SVG Version: 6.00 Build 0)  -->
<svg version="1.1" id="Capa_1" xmlns="http://www.w3.org/2000/svg" xmlns:xlink="http://www.w3.org/1999/xlink" x="0px" y="0px"
	 viewBox="0 0 614 360" style="enable-background:new 0 0 614 429;" xml:space="preserve">
<style type="text/css">
	.st0{fill:#292D32;fill-opacity:0.4;}
</style>
<path class="st0" d="M0,335.2V41.5C0,30.7,8.7,22,19.5,22h1.2c5.4,0,10.7-2.2,14.5-6L45,6.2c3.7-3.7,8.6-5.7,13.8-5.7h113.4
	c5.2,0,10.1,2.1,13.8,5.7l9.8,9.8c3.8,3.8,9.1,6,14.5,6h344.2c5,0,9.9,2,13.5,5.4L608,66c3.8,3.7,6,8.8,6,14.1v317.2
	c0,5.5-2.3,10.7-6.3,14.4L595.4,423c-3.6,3.3-8.3,5.1-13.2,5.1H440.8c-5.2,0-10.1-2.1-13.8-5.7l-10.8-10.8c-3.8-3.8-9.1-6-14.5-6
	H252.3c-5.4,0-10.7,2.2-14.5,6L227,422.3c-3.7,3.7-8.6,5.7-13.8,5.7H92.8c-4.7,0-49.1,0-63.6,0c-2.4,0-4.8-0.9-6.6-2.5L13,417
	l-9.5-8c-2.2-1.9-3.5-4.7-3.5-7.6C0,386.1,0,339.7,0,335.2z"/>
</svg>
