<svg width="23" height="15" viewBox="0 0 23 15" fill="none" xmlns="http://www.w3.org/2000/svg">
<g opacity="0.5">
<path fill-rule="evenodd" clip-rule="evenodd" d="M19.2869 -6.3715C18.073 -5.96883 16.5309 -5.14584 14.8074 -3.98308C14.4977 -3.77413 14.0772 -3.85582 13.8683 -4.16554C13.6593 -4.47526 13.741 -4.89573 14.0507 -5.10468C15.8207 -6.29879 17.4797 -7.19748 18.8609 -7.65566C19.5504 -7.8844 20.2071 -8.01579 20.7933 -7.99848C21.3843 -7.98103 21.955 -7.80878 22.3811 -7.37724C23.0391 -6.71744 23.0973 -5.74071 22.9094 -4.78435C22.7164 -3.80197 22.2317 -2.65053 21.5382 -1.41327C20.1463 1.06979 17.8308 4.04288 14.9604 6.94709C12.0864 9.85485 9.11095 12.1724 6.61705 13.5569C5.37424 14.2469 4.21606 14.7249 3.22823 14.912C2.26624 15.0942 1.28664 15.0296 0.628587 14.3715C0.195738 13.9387 0.0203164 13.3581 0.00170668 12.7537C-0.0167692 12.1536 0.11573 11.4796 0.352275 10.7693C0.82603 9.34669 1.76409 7.6411 3.04684 5.82692C3.26253 5.52186 3.68469 5.44942 3.98975 5.66512C4.29481 5.88081 4.36725 6.30297 4.15155 6.60803C2.90861 8.36592 2.05144 9.94909 1.63593 11.1968C1.42785 11.8216 1.34221 12.3281 1.35404 12.712C1.36572 13.0916 1.46903 13.2986 1.58528 13.4148C1.76299 13.5925 2.16242 13.7368 2.97643 13.5827C3.76461 13.4334 4.77942 13.0296 5.96034 12.374C8.3139 11.0674 11.1888 8.83834 13.9981 5.99601C16.8109 3.15013 19.042 0.272837 20.358 -2.07484C21.0184 -3.25295 21.428 -4.26197 21.5818 -5.04516C21.7406 -5.85346 21.5984 -6.24646 21.4225 -6.4224L21.4188 -6.42611L21.4188 -6.42612C21.3102 -6.53646 21.1169 -6.63537 20.7534 -6.6461C20.3842 -6.657 19.8948 -6.57317 19.2869 -6.3715Z" fill="url(#paint0_linear_8050_48986)"/>
<path fill-rule="evenodd" clip-rule="evenodd" d="M16.1463 -2.68207C14.6671 -3.79146 12.8374 -4.33006 10.9931 -4.19898C9.14876 -4.06791 7.4136 -3.27596 6.10617 -1.96854C4.79874 -0.661109 4.0068 1.07405 3.87572 2.91838C3.74465 4.76271 4.28325 6.59243 5.39264 8.07161C5.61681 8.3705 5.55623 8.79453 5.25734 9.01869C4.95845 9.24286 4.53443 9.18229 4.31026 8.8834C3.00547 7.14367 2.372 4.99166 2.52616 2.82247C2.68032 0.65328 3.61176 -1.38751 5.14948 -2.92523C6.68719 -4.46295 8.72799 -5.39439 10.8972 -5.54855C13.0664 -5.70271 15.2184 -5.06924 16.9581 -3.76444C17.257 -3.54028 17.3176 -3.11625 17.0934 -2.81736C16.8692 -2.51848 16.4452 -2.4579 16.1463 -2.68207ZM19.2358 0.126387C19.5894 0.00585985 19.9738 0.194833 20.0943 0.54847C20.5579 1.90876 20.6903 3.36002 20.4805 4.78175C20.2707 6.20348 19.7248 7.55464 18.888 8.72304C18.0513 9.89143 16.9478 10.8433 15.6694 11.4997C14.3909 12.1561 12.9744 12.498 11.5373 12.4971C10.5813 12.4973 9.63118 12.3474 8.72164 12.053C8.36619 11.9379 8.17133 11.5565 8.28641 11.201C8.40148 10.8456 8.78292 10.6507 9.13837 10.7658C9.91332 11.0167 10.7229 11.1443 11.5374 11.1441H11.538C12.7599 11.1449 13.9644 10.8542 15.0514 10.2961C16.1384 9.73804 17.0766 8.92869 17.7881 7.93527C18.4995 6.94186 18.9637 5.79304 19.1421 4.58424C19.3204 3.37543 19.2079 2.14151 18.8137 0.984938C18.6932 0.631301 18.8821 0.246915 19.2358 0.126387ZM11.5373 12.4971C11.5373 12.4971 11.5372 12.4971 11.5372 12.4971L11.5376 11.8206L11.5378 12.4971C11.5376 12.4971 11.5375 12.4971 11.5373 12.4971Z" fill="url(#paint1_linear_8050_48986)"/>
<path fill-rule="evenodd" clip-rule="evenodd" d="M14.2399 1.74799C15.3752 1.06977 15.2706 0.34375 15.2706 0.34375C14.8464 0.971178 11.751 2.46804 11.751 2.46804L11.4493 3.35838C11.4498 3.35741 11.5317 3.31101 11.6712 3.23199C12.1606 2.95464 13.3592 2.27543 14.2399 1.74799ZM10.4961 3.37623C10.4961 3.37623 8.84088 2.44704 7.70553 1.76882C6.62909 1.12126 6.67042 0.435897 6.67456 0.367208C6.67478 0.363639 6.67489 0.361734 6.67474 0.361587C7.09901 0.989015 10.1914 2.48588 10.1914 2.48588L10.4961 3.37623ZM11.4459 3.67213L13.4686 2.44715C13.4686 2.44715 15.8947 0.992114 16.074 0.427429C16.074 0.427429 16.0351 1.54186 15.1239 2.1663C14.2126 2.79074 11.8283 4.12627 11.8283 4.12627L10.9798 6.3372V6.40891L10.9649 6.37306L10.9589 6.388V6.35513L10.1104 4.14419C10.1104 4.14419 7.72314 2.81166 6.81486 2.18423C5.90657 1.5568 5.86475 0.445356 5.86475 0.445356C6.047 1.01303 8.47308 2.46806 8.47308 2.46806L10.4958 3.69304L10.9679 4.85528L11.4459 3.67213ZM10.9618 1.3686L11.5683 2.48602L10.9618 4.52665L10.3553 2.48602L10.9618 1.3686ZM10.0734 4.44591L7.66522 3.01179C7.66522 3.01179 7.62638 4.46683 10.0734 4.44591ZM11.8527 4.44591C14.2997 4.46683 14.2608 3.01179 14.2608 3.01179L11.8527 4.44591Z" fill="url(#paint2_linear_8050_48986)"/>
</g>
<defs>
<linearGradient id="paint0_linear_8050_48986" x1="2.39914" y1="5.29687" x2="36.5491" y2="5.34232" gradientUnits="userSpaceOnUse">
<stop stop-color="#FE5E35"/>
<stop offset="0.55" stop-color="#F67702"/>
<stop offset="1" stop-color="#FFEF76"/>
</linearGradient>
<linearGradient id="paint1_linear_8050_48986" x1="4.3885" y1="4.87448" x2="31.2212" y2="4.91019" gradientUnits="userSpaceOnUse">
<stop stop-color="#FE5E35"/>
<stop offset="0.55" stop-color="#F67702"/>
<stop offset="1" stop-color="#FFEF76"/>
</linearGradient>
<linearGradient id="paint2_linear_8050_48986" x1="6.92955" y1="3.85017" x2="22.0862" y2="3.88412" gradientUnits="userSpaceOnUse">
<stop stop-color="#FE5E35"/>
<stop offset="0.55" stop-color="#F67702"/>
<stop offset="1" stop-color="#FFEF76"/>
</linearGradient>
</defs>
</svg>
