<svg width="960" height="660" viewBox="0 0 960 660" fill="none" xmlns="http://www.w3.org/2000/svg">
<g filter="url(#filter0_b_1158_29128)">
<mask id="path-1-inside-1_1158_29128" fill="white">
<path fill-rule="evenodd" clip-rule="evenodd" d="M0.116484 94.1539C-0.0944796 94.1539 0.0285824 174.33 0.116484 214.418V234.725H0.117188V594.198L59.1869 649.846H172.843L207.389 620.308H475.312L518.823 659.341H901.986L960.001 607.121V605.539V202.55H960V74.6374L873.769 0H783.582L765.123 15.033H597.934C585.013 20.3077 559.169 30.8044 559.169 30.5934C559.169 30.3824 230.242 30.5055 65.7788 30.5934C43.9793 51.7802 0.327447 94.1539 0.116484 94.1539Z"/>
</mask>
<path fill-rule="evenodd" clip-rule="evenodd" d="M0.116484 94.1539C-0.0944796 94.1539 0.0285824 174.33 0.116484 214.418V234.725H0.117188V594.198L59.1869 649.846H172.843L207.389 620.308H475.312L518.823 659.341H901.986L960.001 607.121V605.539V202.55H960V74.6374L873.769 0H783.582L765.123 15.033H597.934C585.013 20.3077 559.169 30.8044 559.169 30.5934C559.169 30.3824 230.242 30.5055 65.7788 30.5934C43.9793 51.7802 0.327447 94.1539 0.116484 94.1539Z" fill="black" fill-opacity="0.4"/>
<path d="M0.116484 214.418L1.11649 214.418L1.11648 214.415L0.116484 214.418ZM0.116484 234.725H-0.883516V235.725H0.116484V234.725ZM0.117188 234.725H1.11719V233.725H0.117188V234.725ZM0.117188 594.198H-0.882812V594.63L-0.568525 594.926L0.117188 594.198ZM59.1869 649.846L58.5012 650.574L58.7901 650.846H59.1869V649.846ZM172.843 649.846V650.846H173.213L173.493 650.606L172.843 649.846ZM207.389 620.308V619.308H207.02L206.739 619.548L207.389 620.308ZM475.312 620.308L475.98 619.563L475.695 619.308H475.312V620.308ZM518.823 659.341L518.156 660.085L518.441 660.341H518.823V659.341ZM901.986 659.341V660.341H902.37L902.655 660.084L901.986 659.341ZM960.001 607.121L960.67 607.864L961.001 607.566V607.121H960.001ZM960.001 202.55H961.001V201.55H960.001V202.55ZM960 202.55H959V203.55H960V202.55ZM960 74.6374H961V74.1804L960.654 73.8813L960 74.6374ZM873.769 0L874.423 -0.756107L874.141 -1H873.769V0ZM783.582 0V-1H783.226L782.95 -0.775398L783.582 0ZM765.123 15.033V16.033H765.478L765.754 15.8084L765.123 15.033ZM597.934 15.033V14.033H597.738L597.556 14.1071L597.934 15.033ZM65.7788 30.5934L65.7783 29.5934L65.3727 29.5936L65.0819 29.8763L65.7788 30.5934ZM1.11648 214.415C1.07253 194.372 1.01979 164.306 1.00441 139.252C0.996718 126.725 0.998367 115.451 1.01512 107.31C1.0235 103.239 1.03565 99.9524 1.05228 97.6846C1.0606 96.55 1.07002 95.6735 1.08059 95.0819C1.0859 94.785 1.09139 94.566 1.09692 94.424C1.09977 94.3507 1.10219 94.3099 1.10357 94.2929C1.10462 94.28 1.1036 94.299 1.09822 94.3315C1.09674 94.3405 1.08744 94.3996 1.06263 94.474C1.04652 94.5186 0.990032 94.6392 0.945859 94.7116C0.840024 94.8436 0.430649 95.1031 0.116484 95.1539V93.1539C-0.198506 93.2046 -0.608702 93.4648 -0.715356 93.5979C-0.760348 93.6716 -0.81765 93.7941 -0.834574 93.8411C-0.861016 93.9203 -0.871935 93.9868 -0.875024 94.0055C-0.883615 94.0575 -0.887808 94.1056 -0.889896 94.1314C-0.894785 94.1917 -0.898472 94.2666 -0.90157 94.3462C-0.907946 94.51 -0.913727 94.7461 -0.919088 95.0462C-0.929851 95.6487 -0.939332 96.5338 -0.947664 97.6699C-0.964337 99.9432 -0.976496 103.234 -0.984875 107.306C-1.00163 115.45 -1.00328 126.726 -0.99559 139.253C-0.980207 164.309 -0.927465 194.376 -0.883514 214.42L1.11648 214.415ZM1.11648 234.725V214.418H-0.883516V234.725H1.11648ZM0.117188 233.725H0.116484V235.725H0.117188V233.725ZM1.11719 594.198V234.725H-0.882812V594.198H1.11719ZM59.8727 649.118L0.802901 593.47L-0.568525 594.926L58.5012 650.574L59.8727 649.118ZM172.843 648.846H59.1869V650.846H172.843V648.846ZM206.739 619.548L172.194 649.086L173.493 650.606L208.039 621.068L206.739 619.548ZM475.312 619.308H207.389V621.308H475.312V619.308ZM519.491 658.596L475.98 619.563L474.645 621.052L518.156 660.085L519.491 658.596ZM901.986 658.341H518.823V660.341H901.986V658.341ZM959.332 606.378L901.317 658.598L902.655 660.084L960.67 607.864L959.332 606.378ZM959.001 605.539V607.121H961.001V605.539H959.001ZM959.001 202.55V605.539H961.001V202.55H959.001ZM960 203.55H960.001V201.55H960V203.55ZM959 74.6374V202.55H961V74.6374H959ZM873.114 0.756107L959.346 75.3935L960.654 73.8813L874.423 -0.756107L873.114 0.756107ZM783.582 1H873.769V-1H783.582V1ZM765.754 15.8084L784.213 0.775398L782.95 -0.775398L764.491 14.2576L765.754 15.8084ZM597.934 16.033H765.123V14.033H597.934V16.033ZM558.169 30.5934C558.169 30.9873 558.391 31.285 558.635 31.4401C558.825 31.5601 559.003 31.5835 559.064 31.5903C559.202 31.6056 559.313 31.5881 559.337 31.5845C559.414 31.5729 559.482 31.5542 559.514 31.5451C559.593 31.5229 559.69 31.491 559.79 31.4564C559.996 31.3849 560.291 31.2762 560.659 31.1369C561.398 30.8572 562.463 30.4417 563.777 29.9229C566.405 28.8848 570.042 27.4265 574.08 25.7978C582.158 22.5399 591.85 18.5965 598.312 15.9588L597.556 14.1071C591.096 16.7442 581.406 20.6865 573.332 23.9429C569.295 25.5713 565.663 27.0274 563.042 28.0628C561.731 28.5808 560.676 28.992 559.951 29.2665C559.587 29.4044 559.314 29.5047 559.136 29.5664C559.043 29.5984 558.993 29.6141 558.974 29.6195C558.957 29.6243 558.988 29.6144 559.04 29.6066C559.051 29.6049 559.153 29.5879 559.285 29.6025C559.342 29.609 559.518 29.6318 559.706 29.7508C559.949 29.9048 560.169 30.2012 560.169 30.5934H558.169ZM65.7794 31.5934C148.011 31.5495 271.359 31.4967 374.148 31.4813C425.543 31.4736 471.798 31.4753 505.204 31.4921C521.908 31.5004 535.398 31.5126 544.713 31.5292C549.37 31.5376 552.983 31.547 555.431 31.5577C556.655 31.563 557.587 31.5686 558.211 31.5746C558.524 31.5775 558.757 31.5806 558.911 31.5836C558.989 31.5851 559.04 31.5866 559.069 31.5877C559.086 31.5884 559.085 31.5886 559.073 31.5877C559.065 31.5869 559.029 31.5827 559.004 31.5791C558.931 31.5641 558.36 31.1799 558.169 30.5934H560.169C559.979 30.0061 559.405 29.6211 559.327 29.6053C559.298 29.6009 559.254 29.5959 559.236 29.5943C559.204 29.5917 559.173 29.5903 559.15 29.5894C559.099 29.5873 559.031 29.5856 558.95 29.584C558.786 29.5807 558.545 29.5776 558.23 29.5747C557.6 29.5687 556.665 29.563 555.44 29.5577C552.989 29.547 549.374 29.5376 544.716 29.5292C535.4 29.5126 521.909 29.5004 505.205 29.4921C471.798 29.4753 425.543 29.4736 374.148 29.4813C271.358 29.4967 148.01 29.5495 65.7783 29.5934L65.7794 31.5934ZM0.116484 95.1539C0.252875 95.1446 0.452223 95.096 0.516711 95.0706C0.553697 95.0536 0.612689 95.0227 0.63597 95.0091C0.679102 94.9832 0.711993 94.9591 0.725809 94.9488C0.757459 94.9253 0.785409 94.902 0.802436 94.8877C0.840136 94.8559 0.884957 94.8161 0.931969 94.7736C1.02839 94.6865 1.16364 94.5612 1.33304 94.4024C1.67322 94.0836 2.16635 93.6154 2.79507 93.0149C4.05323 91.8131 5.86224 90.0738 8.09383 87.9218C12.5574 83.6173 18.7156 77.6578 25.5479 71.0368C39.2126 57.7946 55.5758 41.9041 66.4758 31.3105L65.0819 29.8763C54.1823 40.4695 37.8198 56.3593 24.156 69.6006C17.324 76.2213 11.1672 82.1794 6.7055 86.4821C4.47445 88.6337 2.66824 90.3703 1.41365 91.5686C0.785999 92.1681 0.298381 92.631 -0.0346992 92.9432C-0.20192 93.1 -0.326422 93.2152 -0.408894 93.2897C-0.451328 93.328 -0.475737 93.3494 -0.486554 93.3585C-0.493786 93.3646 -0.484917 93.3567 -0.467106 93.3435C-0.46021 93.3384 -0.432929 93.3181 -0.394088 93.2948C-0.372954 93.2824 -0.315778 93.2525 -0.280278 93.2362C-0.217276 93.2114 -0.0190833 93.1632 0.116484 93.1539V95.1539Z" fill="#262C33" mask="url(#path-1-inside-1_1158_29128)"/>
</g>
<defs>
<filter id="filter0_b_1158_29128" x="-30" y="-30" width="1020" height="719.341" filterUnits="userSpaceOnUse" color-interpolation-filters="sRGB">
<feFlood flood-opacity="0" result="BackgroundImageFix"/>
<feGaussianBlur in="BackgroundImageFix" stdDeviation="15"/>
<feComposite in2="SourceAlpha" operator="in" result="effect1_backgroundBlur_1158_29128"/>
<feBlend mode="normal" in="SourceGraphic" in2="effect1_backgroundBlur_1158_29128" result="shape"/>
</filter>
</defs>
</svg>
