<svg width="24" height="24" viewBox="0 0 24 24" fill="none" xmlns="http://www.w3.org/2000/svg">
<path d="M12 24C18.6274 24 24 18.6274 24 12C24 5.37258 18.6274 0 12 0C5.37258 0 0 5.37258 0 12C0 18.6274 5.37258 24 12 24Z" fill="url(#paint0_linear_6542_2900)"/>
<path d="M6.0922 10.0305C8.13595 11.2492 11.136 12.9367 11.136 12.9367L10.5922 11.3242C10.5922 11.3242 5.0047 8.62422 4.23595 7.48047C4.23595 7.49922 4.04845 8.81171 6.0922 10.0305Z" fill="white"/>
<path d="M16.518 11.2506L12.8617 13.4631L11.9992 15.6006L11.1555 13.5006L7.49921 11.2881C7.49921 11.2881 3.11172 8.66311 2.79297 7.63186C2.79297 7.63186 2.86797 9.63811 4.51797 10.7631C6.16797 11.8881 10.4617 14.3069 10.4617 14.3069L11.9992 18.3006V18.3569L12.018 18.3194L12.0367 18.3944V18.2631L13.5742 14.2694C13.5742 14.2694 17.8867 11.8506 19.518 10.7256C21.168 9.60061 21.243 7.59436 21.243 7.59436C20.8867 8.62561 16.518 11.2506 16.518 11.2506Z" fill="white"/>
<path d="M17.906 9.99292C19.9498 8.77417 19.7623 7.46167 19.7623 7.46167C18.9936 8.58667 13.406 11.3054 13.406 11.3054L12.8623 12.9179C12.8623 12.8992 15.8623 11.2304 17.906 9.99292Z" fill="white"/>
<path d="M13.0873 11.3241L11.9811 9.31787L10.8936 11.3241L11.9811 15.0179L13.0873 11.3241Z" fill="white"/>
<path d="M10.3862 14.8694L6.03621 12.2819C6.03621 12.2819 5.96122 14.9069 10.3862 14.8694Z" fill="white"/>
<path d="M13.5938 14.8694C18.0188 14.9069 17.9438 12.2819 17.9438 12.2819L13.5938 14.8694Z" fill="white"/>
<defs>
<linearGradient id="paint0_linear_6542_2900" x1="2.50316" y1="13.875" x2="38.1338" y2="13.9224" gradientUnits="userSpaceOnUse">
<stop stop-color="#FE5E35"/>
<stop offset="0.55" stop-color="#F67702"/>
<stop offset="1" stop-color="#FFEF76"/>
</linearGradient>
</defs>
</svg>
