<svg width="1200" height="78" viewBox="0 0 1200 78" fill="none" xmlns="http://www.w3.org/2000/svg">
<g filter="url(#filter0_b_4665_43072)">
<mask id="path-1-inside-1_4665_43072" fill="white">
<path fill-rule="evenodd" clip-rule="evenodd" d="M1200 10C1200 4.47715 1195.52 0 1190 0H10C4.47715 0 0 4.47715 0 10V58C0 63.5228 4.47717 68 10 68H952.908C956.092 68 958.933 70.0013 960.005 73V73C961.077 75.9987 963.918 78 967.103 78H1190C1195.52 78 1200 73.5228 1200 68V68V59V10Z"/>
</mask>
<path fill-rule="evenodd" clip-rule="evenodd" d="M1200 10C1200 4.47715 1195.52 0 1190 0H10C4.47715 0 0 4.47715 0 10V58C0 63.5228 4.47717 68 10 68H952.908C956.092 68 958.933 70.0013 960.005 73V73C961.077 75.9987 963.918 78 967.103 78H1190C1195.52 78 1200 73.5228 1200 68V68V59V10Z" fill="#292D32" fill-opacity="0.4"/>
<path d="M10 1H1190V-1H10V1ZM1 58V10H-1V58H1ZM952.908 67H10V69H952.908V67ZM967.103 79H1190V77H967.103V79ZM1201 68V59H1199V68H1201ZM1199 10V59H1201V10H1199ZM1190 79C1196.08 79 1201 74.0751 1201 68H1199C1199 72.9706 1194.97 77 1190 77V79ZM959.064 73.3367C960.278 76.7331 963.496 79 967.103 79V77C964.341 77 961.877 75.2642 960.947 72.6633L959.064 73.3367ZM952.908 69C955.67 69 958.134 70.7358 959.064 73.3367L960.947 72.6633C959.733 69.2669 956.515 67 952.908 67V69ZM-1 58C-1 64.0751 3.92489 69 10 69V67C5.02945 67 1 62.9706 1 58H-1ZM1190 1C1194.97 1 1199 5.02944 1199 10H1201C1201 3.92487 1196.08 -1 1190 -1V1ZM10 -1C3.92487 -1 -1 3.92487 -1 10H1C1 5.02944 5.02944 1 10 1V-1Z" fill="#262C33" mask="url(#path-1-inside-1_4665_43072)"/>
</g>
<defs>
<filter id="filter0_b_4665_43072" x="-30" y="-30" width="1260" height="138" filterUnits="userSpaceOnUse" color-interpolation-filters="sRGB">
<feFlood flood-opacity="0" result="BackgroundImageFix"/>
<feGaussianBlur in="BackgroundImageFix" stdDeviation="15"/>
<feComposite in2="SourceAlpha" operator="in" result="effect1_backgroundBlur_4665_43072"/>
<feBlend mode="normal" in="SourceGraphic" in2="effect1_backgroundBlur_4665_43072" result="shape"/>
</filter>
</defs>
</svg>
