<svg width="1520" height="102" viewBox="0 0 1520 102" fill="none" xmlns="http://www.w3.org/2000/svg">
<g filter="url(#filter0_b_6394_40213)">
<mask id="path-1-inside-1_6394_40213" fill="white">
<path fill-rule="evenodd" clip-rule="evenodd" d="M1520 10C1520 4.47715 1515.52 0 1510 0H10C4.47715 0 0 4.47715 0 10V76C0 81.5228 4.47715 86 10 86H1129.93C1134.68 86 1138.77 89.3451 1139.72 94V94C1140.66 98.6549 1144.76 102 1149.51 102H1451.49C1456.24 102 1460.34 98.6549 1461.28 94V94C1462.23 89.3451 1466.32 86 1471.07 86H1510C1515.52 86 1520 81.5228 1520 76V10Z"/>
</mask>
<path fill-rule="evenodd" clip-rule="evenodd" d="M1520 10C1520 4.47715 1515.52 0 1510 0H10C4.47715 0 0 4.47715 0 10V76C0 81.5228 4.47715 86 10 86H1129.93C1134.68 86 1138.77 89.3451 1139.72 94V94C1140.66 98.6549 1144.76 102 1149.51 102H1451.49C1456.24 102 1460.34 98.6549 1461.28 94V94C1462.23 89.3451 1466.32 86 1471.07 86H1510C1515.52 86 1520 81.5228 1520 76V10Z" fill="#202327" fill-opacity="0.4"/>
<path d="M10 1H1510V-1H10V1ZM1 76V10H-1V76H1ZM1129.93 85H10V87H1129.93V85ZM1149.51 103H1451.49V101H1149.51V103ZM1510 85H1471.07V87H1510V85ZM1519 10V76H1521V10H1519ZM1510 87C1516.08 87 1521 82.0751 1521 76H1519C1519 80.9706 1514.97 85 1510 85V87ZM1462.26 94.1991C1463.11 90.0102 1466.8 87 1471.07 87V85C1465.84 85 1461.34 88.68 1460.3 93.8009L1462.26 94.1991ZM1451.49 103C1456.72 103 1461.22 99.32 1462.26 94.1991L1460.3 93.8009C1459.45 97.9898 1455.77 101 1451.49 101V103ZM1138.74 94.1991C1139.78 99.32 1144.28 103 1149.51 103V101C1145.23 101 1141.55 97.9898 1140.7 93.8009L1138.74 94.1991ZM1129.93 87C1134.2 87 1137.89 90.0102 1138.74 94.1991L1140.7 93.8009C1139.66 88.68 1135.16 85 1129.93 85V87ZM-1 76C-1 82.0751 3.92486 87 10 87V85C5.02943 85 1 80.9706 1 76H-1ZM1510 1C1514.97 1 1519 5.02943 1519 10H1521C1521 3.92487 1516.08 -1 1510 -1V1ZM10 -1C3.92487 -1 -1 3.92487 -1 10H1C1 5.02944 5.02944 1 10 1V-1Z" fill="#262C33" mask="url(#path-1-inside-1_6394_40213)"/>
</g>
<defs>
<filter id="filter0_b_6394_40213" x="-30" y="-30" width="1580" height="162" filterUnits="userSpaceOnUse" color-interpolation-filters="sRGB">
<feFlood flood-opacity="0" result="BackgroundImageFix"/>
<feGaussianBlur in="BackgroundImageFix" stdDeviation="15"/>
<feComposite in2="SourceAlpha" operator="in" result="effect1_backgroundBlur_6394_40213"/>
<feBlend mode="normal" in="SourceGraphic" in2="effect1_backgroundBlur_6394_40213" result="shape"/>
</filter>
</defs>
</svg>
