<svg width="247" height="44" viewBox="0 0 247 44" fill="none" xmlns="http://www.w3.org/2000/svg">
<g opacity="0.2">
<path d="M6.40479 0V12.2532" stroke="white" stroke-width="1.67089"/>
<path d="M12.2529 6.12646L-0.000234604 6.12646" stroke="white" stroke-width="1.67089"/>
<path d="M38.1519 0V12.2532" stroke="white" stroke-width="1.67089"/>
<path d="M44 6.12646L31.7468 6.12646" stroke="white" stroke-width="1.67089"/>
<path d="M69.8986 0V12.2532" stroke="white" stroke-width="1.67089"/>
<path d="M75.7466 6.12646L63.4934 6.12646" stroke="white" stroke-width="1.67089"/>
<path d="M101.646 0V12.2532" stroke="white" stroke-width="1.67089"/>
<path d="M107.494 6.12646L95.2405 6.12646" stroke="white" stroke-width="1.67089"/>
<path d="M133.392 0V12.2532" stroke="white" stroke-width="1.67089"/>
<path d="M139.24 6.12646L126.987 6.12646" stroke="white" stroke-width="1.67089"/>
<path d="M165.139 0V12.2532" stroke="white" stroke-width="1.67089"/>
<path d="M170.987 6.12646L158.734 6.12646" stroke="white" stroke-width="1.67089"/>
<path d="M196.886 0V12.2532" stroke="white" stroke-width="1.67089"/>
<path d="M202.734 6.12646L190.481 6.12646" stroke="white" stroke-width="1.67089"/>
<path d="M228.633 0V12.2532" stroke="white" stroke-width="1.67089"/>
<path d="M234.481 6.12646L222.228 6.12646" stroke="white" stroke-width="1.67089"/>
<path d="M6.40479 31.7468V44" stroke="white" stroke-width="1.67089"/>
<path d="M12.2529 37.8735L-0.000234604 37.8735" stroke="white" stroke-width="1.67089"/>
<path d="M38.1519 31.7468V44" stroke="white" stroke-width="1.67089"/>
<path d="M44 37.8735L31.7468 37.8735" stroke="white" stroke-width="1.67089"/>
<path d="M69.8986 31.7468V44" stroke="white" stroke-width="1.67089"/>
<path d="M75.7466 37.8735L63.4934 37.8735" stroke="white" stroke-width="1.67089"/>
<path d="M101.646 31.7468V44" stroke="white" stroke-width="1.67089"/>
<path d="M107.494 37.8735L95.2405 37.8735" stroke="white" stroke-width="1.67089"/>
<path d="M133.392 31.7468V44" stroke="white" stroke-width="1.67089"/>
<path d="M139.24 37.8735L126.987 37.8735" stroke="white" stroke-width="1.67089"/>
<path d="M165.139 31.7468V44" stroke="white" stroke-width="1.67089"/>
<path d="M170.987 37.8735L158.734 37.8735" stroke="white" stroke-width="1.67089"/>
<path d="M196.886 31.7468V44" stroke="white" stroke-width="1.67089"/>
<path d="M202.734 37.8735L190.481 37.8735" stroke="white" stroke-width="1.67089"/>
<path d="M228.633 31.7468V44" stroke="white" stroke-width="1.67089"/>
<path d="M234.481 37.8735L222.228 37.8735" stroke="white" stroke-width="1.67089"/>
</g>
</svg>
