<svg width="23" height="13" viewBox="0 0 23 13" fill="none" xmlns="http://www.w3.org/2000/svg">
<path fill-rule="evenodd" clip-rule="evenodd" d="M19.2869 -8.3715C18.073 -7.96883 16.5309 -7.14584 14.8074 -5.98308C14.4977 -5.77413 14.0772 -5.85582 13.8683 -6.16554C13.6593 -6.47526 13.741 -6.89573 14.0507 -7.10468C15.8207 -8.29879 17.4797 -9.19748 18.8609 -9.65566C19.5504 -9.8844 20.2071 -10.0158 20.7933 -9.99848C21.3843 -9.98103 21.955 -9.80878 22.3811 -9.37724C23.0391 -8.71744 23.0973 -7.74071 22.9094 -6.78435C22.7164 -5.80197 22.2317 -4.65053 21.5382 -3.41327C20.1463 -0.930205 17.8308 2.04288 14.9604 4.94709C12.0864 7.85485 9.11095 10.1724 6.61705 11.5569C5.37424 12.2469 4.21606 12.7249 3.22823 12.912C2.26624 13.0942 1.28664 13.0296 0.628587 12.3715C0.195738 11.9387 0.0203164 11.3581 0.00170668 10.7537C-0.0167692 10.1536 0.11573 9.47959 0.352275 8.76929C0.82603 7.34669 1.76409 5.6411 3.04684 3.82692C3.26253 3.52186 3.68469 3.44942 3.98975 3.66512C4.29481 3.88081 4.36725 4.30297 4.15155 4.60803C2.90861 6.36592 2.05144 7.94909 1.63593 9.19677C1.42785 9.82161 1.34221 10.3281 1.35404 10.712C1.36572 11.0916 1.46903 11.2986 1.58528 11.4148C1.76299 11.5925 2.16242 11.7368 2.97643 11.5827C3.76461 11.4334 4.77942 11.0296 5.96034 10.374C8.3139 9.06739 11.1888 6.83834 13.9981 3.99601C16.8109 1.15013 19.042 -1.72716 20.358 -4.07484C21.0184 -5.25295 21.428 -6.26197 21.5818 -7.04516C21.7406 -7.85346 21.5984 -8.24646 21.4225 -8.4224L21.4188 -8.42611L21.4188 -8.42612C21.3102 -8.53646 21.1169 -8.63537 20.7534 -8.6461C20.3842 -8.657 19.8948 -8.57317 19.2869 -8.3715Z" fill="url(#paint0_linear_8088_77884)"/>
<path fill-rule="evenodd" clip-rule="evenodd" d="M16.1463 -4.68207C14.6671 -5.79146 12.8374 -6.33006 10.9931 -6.19898C9.14876 -6.06791 7.4136 -5.27596 6.10617 -3.96854C4.79874 -2.66111 4.0068 -0.925949 3.87572 0.918381C3.74465 2.76271 4.28325 4.59243 5.39264 6.07161C5.61681 6.3705 5.55623 6.79453 5.25734 7.01869C4.95845 7.24286 4.53443 7.18229 4.31026 6.8834C3.00547 5.14367 2.372 2.99166 2.52616 0.82247C2.68032 -1.34672 3.61176 -3.38751 5.14948 -4.92523C6.68719 -6.46295 8.72799 -7.39439 10.8972 -7.54855C13.0664 -7.70271 15.2184 -7.06924 16.9581 -5.76444C17.257 -5.54028 17.3176 -5.11625 17.0934 -4.81736C16.8692 -4.51848 16.4452 -4.4579 16.1463 -4.68207ZM19.2358 -1.87361C19.5894 -1.99414 19.9738 -1.80517 20.0943 -1.45153C20.5579 -0.0912418 20.6903 1.36002 20.4805 2.78175C20.2707 4.20348 19.7248 5.55464 18.888 6.72304C18.0513 7.89143 16.9478 8.84335 15.6694 9.49973C14.3909 10.1561 12.9744 10.498 11.5373 10.4971C10.5813 10.4973 9.63118 10.3474 8.72164 10.053C8.36619 9.9379 8.17133 9.55647 8.28641 9.20102C8.40148 8.84557 8.78292 8.65071 9.13837 8.76578C9.91332 9.01667 10.7229 9.14433 11.5374 9.14409H11.538C12.7599 9.14491 13.9644 8.8542 15.0514 8.29612C16.1384 7.73804 17.0766 6.92869 17.7881 5.93527C18.4995 4.94186 18.9637 3.79304 19.1421 2.58424C19.3204 1.37543 19.2079 0.141508 18.8137 -1.01506C18.6932 -1.3687 18.8821 -1.75309 19.2358 -1.87361ZM11.5373 10.4971C11.5373 10.4971 11.5372 10.4971 11.5372 10.4971L11.5376 9.82058L11.5378 10.4971C11.5376 10.4971 11.5375 10.4971 11.5373 10.4971Z" fill="url(#paint1_linear_8088_77884)"/>
<path fill-rule="evenodd" clip-rule="evenodd" d="M14.2399 -0.252006C15.3752 -0.930226 15.2706 -1.65625 15.2706 -1.65625C14.8464 -1.02882 11.751 0.468043 11.751 0.468043L11.4493 1.35838C11.4498 1.35741 11.5317 1.31101 11.6712 1.23199C12.1606 0.954639 13.3592 0.275426 14.2399 -0.252006ZM10.4961 1.37623C10.4961 1.37623 8.84088 0.447038 7.70553 -0.231182C6.62909 -0.878743 6.67042 -1.5641 6.67456 -1.63279C6.67478 -1.63636 6.67489 -1.63827 6.67474 -1.63841C7.09901 -1.01099 10.1914 0.485879 10.1914 0.485879L10.4961 1.37623ZM11.4459 1.67213L13.4686 0.44715C13.4686 0.44715 15.8947 -1.00789 16.074 -1.57257C16.074 -1.57257 16.0351 -0.458139 15.1239 0.166301C14.2126 0.790742 11.8283 2.12627 11.8283 2.12627L10.9798 4.3372V4.40891L10.9649 4.37306L10.9589 4.388V4.35513L10.1104 2.14419C10.1104 2.14419 7.72314 0.811656 6.81486 0.184228C5.90657 -0.4432 5.86475 -1.55464 5.86475 -1.55464C6.047 -0.986971 8.47308 0.468065 8.47308 0.468065L10.4958 1.69304L10.9679 2.85528L11.4459 1.67213ZM10.9618 -0.631402L11.5683 0.486018L10.9618 2.52665L10.3553 0.486018L10.9618 -0.631402ZM10.0734 2.44591L7.66522 1.01179C7.66522 1.01179 7.62638 2.46683 10.0734 2.44591ZM11.8527 2.44591C14.2997 2.46683 14.2608 1.01179 14.2608 1.01179L11.8527 2.44591Z" fill="url(#paint2_linear_8088_77884)"/>
<defs>
<linearGradient id="paint0_linear_8088_77884" x1="2.39914" y1="3.29687" x2="36.5491" y2="3.34232" gradientUnits="userSpaceOnUse">
<stop stop-color="#FE5E35"/>
<stop offset="0.55" stop-color="#F67702"/>
<stop offset="1" stop-color="#FFEF76"/>
</linearGradient>
<linearGradient id="paint1_linear_8088_77884" x1="4.3885" y1="2.87448" x2="31.2212" y2="2.91019" gradientUnits="userSpaceOnUse">
<stop stop-color="#FE5E35"/>
<stop offset="0.55" stop-color="#F67702"/>
<stop offset="1" stop-color="#FFEF76"/>
</linearGradient>
<linearGradient id="paint2_linear_8088_77884" x1="6.92955" y1="1.85017" x2="22.0862" y2="1.88412" gradientUnits="userSpaceOnUse">
<stop stop-color="#FE5E35"/>
<stop offset="0.55" stop-color="#F67702"/>
<stop offset="1" stop-color="#FFEF76"/>
</linearGradient>
</defs>
</svg>
