<svg width="1820" height="78" viewBox="0 0 1820 78" fill="none" xmlns="http://www.w3.org/2000/svg">
<g filter="url(#filter0_b_5521_72946)">
<mask id="path-1-inside-1_5521_72946" fill="white">
<path fill-rule="evenodd" clip-rule="evenodd" d="M1769.67 8.5C1769.86 3.75365 1773.76 0 1778.51 0H1810C1815.52 0 1820 4.47715 1820 10V17V68C1820 73.5229 1815.52 78 1810 78H1767H1436H10C4.47715 78 0 73.5229 0 68V17V12C0 6.47715 4.47715 2 10 2H1425.49C1429.69 2 1433.13 5.31085 1433.3 9.5C1433.46 13.6891 1436.91 17 1441.1 17H1760.84C1765.59 17 1769.49 13.2464 1769.67 8.5Z"/>
</mask>
<path fill-rule="evenodd" clip-rule="evenodd" d="M1769.67 8.5C1769.86 3.75365 1773.76 0 1778.51 0H1810C1815.52 0 1820 4.47715 1820 10V17V68C1820 73.5229 1815.52 78 1810 78H1767H1436H10C4.47715 78 0 73.5229 0 68V17V12C0 6.47715 4.47715 2 10 2H1425.49C1429.69 2 1433.13 5.31085 1433.3 9.5C1433.46 13.6891 1436.91 17 1441.1 17H1760.84C1765.59 17 1769.49 13.2464 1769.67 8.5Z" fill="#202327" fill-opacity="0.4"/>
<path d="M1810 -1H1778.51V1H1810V-1ZM1821 17V10H1819V17H1821ZM1821 68V17H1819V68H1821ZM1767 79H1810V77H1767V79ZM1436 79H1767V77H1436V79ZM1436 77H10V79H1436V77ZM1 68V17H-1V68H1ZM1 17V12H-1V17H1ZM10 3H1425.49V1H10V3ZM1760.84 16H1441.1V18H1760.84V16ZM1432.3 9.53945C1432.48 14.2651 1436.37 18 1441.1 18V16C1437.44 16 1434.44 13.1132 1434.3 9.46055L1432.3 9.53945ZM1425.49 3C1429.15 3 1432.15 5.88682 1432.3 9.53945L1434.3 9.46055C1434.11 4.73488 1430.22 1 1425.49 1V3ZM1 12C1 7.02944 5.02944 3 10 3V1C3.92487 1 -1 5.92487 -1 12H1ZM1819 68C1819 72.9706 1814.97 77 1810 77V79C1816.08 79 1821 74.0751 1821 68H1819ZM10 77C5.02944 77 1 72.9706 1 68H-1C-1 74.0751 3.92487 79 10 79V77ZM1778.51 -1C1773.22 -1 1768.88 3.17828 1768.67 8.46157L1770.67 8.53843C1770.83 4.32901 1774.29 1 1778.51 1V-1ZM1760.84 18C1766.13 18 1770.47 13.8217 1770.67 8.53843L1768.67 8.46157C1768.51 12.671 1765.05 16 1760.84 16V18ZM1810 1C1814.97 1 1819 5.02944 1819 10H1821C1821 3.92487 1816.08 -1 1810 -1V1Z" fill="#262C33" mask="url(#path-1-inside-1_5521_72946)"/>
</g>
<defs>
<filter id="filter0_b_5521_72946" x="-30" y="-30" width="1880" height="138" filterUnits="userSpaceOnUse" color-interpolation-filters="sRGB">
<feFlood flood-opacity="0" result="BackgroundImageFix"/>
<feGaussianBlur in="BackgroundImageFix" stdDeviation="15"/>
<feComposite in2="SourceAlpha" operator="in" result="effect1_backgroundBlur_5521_72946"/>
<feBlend mode="normal" in="SourceGraphic" in2="effect1_backgroundBlur_5521_72946" result="shape"/>
</filter>
</defs>
</svg>
