<svg width="1520" height="78" viewBox="0 0 1520 78" fill="none" xmlns="http://www.w3.org/2000/svg">
<g filter="url(#filter0_b_6391_40222)">
<mask id="path-1-inside-1_6391_40222" fill="white">
<path fill-rule="evenodd" clip-rule="evenodd" d="M1469.67 8.5C1469.86 3.75365 1473.76 0 1478.51 0H1510C1515.52 0 1520 4.47715 1520 10V17V68C1520 73.5228 1515.52 78 1510 78H1467H1136H1096H10C4.47717 78 0 73.5228 0 68V12C0 6.47715 4.47715 2 10 2H1126.12C1130.3 2 1133.73 5.32053 1133.86 9.5V9.5C1133.99 13.6795 1137.42 17 1141.6 17H1460.84C1465.59 17 1469.49 13.2464 1469.67 8.5V8.5Z"/>
</mask>
<path fill-rule="evenodd" clip-rule="evenodd" d="M1469.67 8.5C1469.86 3.75365 1473.76 0 1478.51 0H1510C1515.52 0 1520 4.47715 1520 10V17V68C1520 73.5228 1515.52 78 1510 78H1467H1136H1096H10C4.47717 78 0 73.5228 0 68V12C0 6.47715 4.47715 2 10 2H1126.12C1130.3 2 1133.73 5.32053 1133.86 9.5V9.5C1133.99 13.6795 1137.42 17 1141.6 17H1460.84C1465.59 17 1469.49 13.2464 1469.67 8.5V8.5Z" fill="#202327" fill-opacity="0.4"/>
<path d="M1510 -1H1478.51V1H1510V-1ZM1521 17V10H1519V17H1521ZM1521 68V17H1519V68H1521ZM1467 79H1510V77H1467V79ZM1136 79H1467V77H1136V79ZM1136 77H1096V79H1136V77ZM1096 77H10V79H1096V77ZM1 68V12H-1V68H1ZM10 3H1126.12V1H10V3ZM1460.84 16H1141.6V18H1460.84V16ZM1132.86 9.53121C1133.01 14.2506 1136.88 18 1141.6 18V16C1137.96 16 1134.97 13.1084 1134.86 9.46879L1132.86 9.53121ZM1126.12 3C1129.76 3 1132.75 5.89161 1132.86 9.53121L1134.86 9.46879C1134.71 4.74945 1130.84 1 1126.12 1V3ZM10 77C5.02945 77 1 72.9706 1 68H-1C-1 74.0751 3.92488 79 10 79V77ZM1 12C1 7.02944 5.02944 3 10 3V1C3.92487 1 -1 5.92487 -1 12H1ZM1519 68C1519 72.9706 1514.97 77 1510 77V79C1516.08 79 1521 74.0751 1521 68H1519ZM1478.51 -1C1473.22 -1 1468.88 3.17828 1468.67 8.46157L1470.67 8.53843C1470.83 4.32901 1474.29 1 1478.51 1V-1ZM1460.84 18C1466.13 18 1470.47 13.8217 1470.67 8.53843L1468.67 8.46157C1468.51 12.671 1465.05 16 1460.84 16V18ZM1510 1C1514.97 1 1519 5.02944 1519 10H1521C1521 3.92487 1516.08 -1 1510 -1V1Z" fill="#262C33" mask="url(#path-1-inside-1_6391_40222)"/>
</g>
<defs>
<filter id="filter0_b_6391_40222" x="-30" y="-30" width="1580" height="138" filterUnits="userSpaceOnUse" color-interpolation-filters="sRGB">
<feFlood flood-opacity="0" result="BackgroundImageFix"/>
<feGaussianBlur in="BackgroundImageFix" stdDeviation="15"/>
<feComposite in2="SourceAlpha" operator="in" result="effect1_backgroundBlur_6391_40222"/>
<feBlend mode="normal" in="SourceGraphic" in2="effect1_backgroundBlur_6391_40222" result="shape"/>
</filter>
</defs>
</svg>
