<?xml version="1.0" encoding="utf-8"?>
<!-- Generator: Adobe Illustrator 26.0.0, SVG Export Plug-In . SVG Version: 6.00 Build 0)  -->
<svg version="1.1" id="Capa_1" xmlns="http://www.w3.org/2000/svg" xmlns:xlink="http://www.w3.org/1999/xlink" x="0px" y="0px"
	 viewBox="0 0 667 1025" style="enable-background:new 0 0 667 1025;" xml:space="preserve">
<style type="text/css">
	.st0{fill:#292D32;fill-opacity:0.4;}
</style>
<path class="st0" d="M0.5,938.9V41.3C0.5,30.6,9.1,22,19.8,22c5.5,0,10.8-2.3,14.7-6.3l8.8-9.2c3.7-3.8,8.8-6,14.1-6h107.3
	c5.3,0,10.4,2.2,14.1,6l8.8,9.2c3.9,4,9.2,6.3,14.8,6.3h414.9H647c10.8,0,19.5,8.7,19.5,19.5v30V1004c0,10.8-8.7,19.5-19.5,19.5
	h-3.4H422.9c-5.3,0-10.4-2.2-14.1-6l-9.7-10.2c-3.9-4-9.2-6.3-14.8-6.3H242.5c-5.6,0-11,2.3-14.8,6.3l-9.7,10.2
	c-3.7,3.8-8.8,6-14.1,6H81.3H20c-10.8,0-19.5-8.7-19.5-19.5V938.9z"/>
</svg>
