<svg width="279" height="331" viewBox="0 0 279 331" fill="none" xmlns="http://www.w3.org/2000/svg">
<g filter="url(#filter0_b_646_6423)">
<mask id="path-1-inside-1_646_6423" fill="white">
<path fill-rule="evenodd" clip-rule="evenodd" d="M19 0C13.4771 0 8.99998 4.47716 8.99998 10V99.2843C8.99998 103.263 7.41963 107.078 4.60658 109.891L1.46447 113.033C-0.488155 114.986 -0.488155 118.151 1.46447 120.104L4.60658 123.246C7.41963 126.059 8.99998 129.875 8.99998 133.853V321C8.99998 326.523 13.4771 331 19 331H269C274.523 331 279 326.523 279 321V10C279 4.47715 274.523 0 269 0H19Z"/>
</mask>
<path fill-rule="evenodd" clip-rule="evenodd" d="M19 0C13.4771 0 8.99998 4.47716 8.99998 10V99.2843C8.99998 103.263 7.41963 107.078 4.60658 109.891L1.46447 113.033C-0.488155 114.986 -0.488155 118.151 1.46447 120.104L4.60658 123.246C7.41963 126.059 8.99998 129.875 8.99998 133.853V321C8.99998 326.523 13.4771 331 19 331H269C274.523 331 279 326.523 279 321V10C279 4.47715 274.523 0 269 0H19Z" fill="#24242B" fill-opacity="0.6"/>
<path d="M1.46447 113.033L2.17157 113.74H2.17157L1.46447 113.033ZM1.46447 120.104L2.17157 119.397H2.17157L1.46447 120.104ZM4.60658 123.246L3.89947 123.953L4.60658 123.246ZM4.60658 109.891L5.31369 110.598L4.60658 109.891ZM9.99998 10C9.99998 5.02945 14.0294 1 19 1V-1C12.9248 -1 7.99998 3.92488 7.99998 10H9.99998ZM9.99998 99.2843V10H7.99998V99.2843H9.99998ZM2.17157 113.74L5.31369 110.598L3.89948 109.184L0.757359 112.326L2.17157 113.74ZM2.17157 119.397C0.609476 117.835 0.609476 115.302 2.17157 113.74L0.757361 112.326C-1.58579 114.669 -1.58579 118.468 0.757361 120.811L2.17157 119.397ZM5.31369 122.539L2.17157 119.397L0.757359 120.811L3.89947 123.953L5.31369 122.539ZM9.99998 321V133.853H7.99998V321H9.99998ZM19 330C14.0294 330 9.99998 325.971 9.99998 321H7.99998C7.99998 327.075 12.9248 332 19 332V330ZM269 330H19V332H269V330ZM278 321C278 325.971 273.971 330 269 330V332C275.075 332 280 327.075 280 321H278ZM278 10V321H280V10H278ZM269 1C273.971 1 278 5.02944 278 10H280C280 3.92487 275.075 -1 269 -1V1ZM19 1H269V-1H19V1ZM3.89947 123.953C6.52498 126.579 7.99998 130.14 7.99998 133.853H9.99998C9.99998 129.609 8.31427 125.54 5.31369 122.539L3.89947 123.953ZM7.99998 99.2843C7.99998 102.997 6.52498 106.558 3.89948 109.184L5.31369 110.598C8.31427 107.597 9.99998 103.528 9.99998 99.2843H7.99998Z" fill="#54547A" fill-opacity="0.4" mask="url(#path-1-inside-1_646_6423)"/>
</g>
<defs>
<filter id="filter0_b_646_6423" x="-80.3" y="-80.3" width="439.6" height="491.6" filterUnits="userSpaceOnUse" color-interpolation-filters="sRGB">
<feFlood flood-opacity="0" result="BackgroundImageFix"/>
<feGaussianBlur in="BackgroundImageFix" stdDeviation="40.15"/>
<feComposite in2="SourceAlpha" operator="in" result="effect1_backgroundBlur_646_6423"/>
<feBlend mode="normal" in="SourceGraphic" in2="effect1_backgroundBlur_646_6423" result="shape"/>
</filter>
</defs>
</svg>
