<svg width="84" height="21" viewBox="0 0 84 21" fill="none" xmlns="http://www.w3.org/2000/svg">
<g clip-path="url(#clip0_818_28777)">
<path d="M23.8171 12.1001C23.8159 12.1739 23.7857 12.2442 23.7332 12.2956C23.6808 12.347 23.6103 12.3754 23.5371 12.3746H18.3804C18.5126 13.6607 19.4693 14.837 20.8226 14.837C21.7482 14.837 22.4326 14.4841 22.946 13.7391C22.9699 13.7 23.0029 13.6674 23.0423 13.6441C23.0816 13.6209 23.126 13.6077 23.1715 13.6058C23.2055 13.6048 23.2393 13.6109 23.2709 13.6235C23.3025 13.6362 23.3311 13.6552 23.3552 13.6794C23.3792 13.7037 23.3981 13.7326 23.4106 13.7644C23.4232 13.7963 23.4292 13.8304 23.4282 13.8646C23.4284 13.9119 23.4149 13.9582 23.3893 13.9979C22.8682 14.9076 21.8338 15.3546 20.8226 15.3546C19.0882 15.3546 17.8438 13.7862 17.8438 12.1158C17.8438 10.4454 19.0804 8.87695 20.8226 8.87695C22.5649 8.87695 23.8093 10.4297 23.8171 12.1001ZM23.2649 11.857C23.156 10.5709 22.176 9.39454 20.8226 9.39454C19.4693 9.39454 18.5126 10.5709 18.3804 11.857H23.2649Z" fill="#F4F6F7"/>
<path d="M30.0842 9.00206C30.1516 9.00404 30.2158 9.03193 30.2635 9.08005C30.3112 9.12816 30.3389 9.19284 30.3408 9.26086C30.3418 9.29511 30.3358 9.32919 30.3233 9.36103C30.3107 9.39287 30.2918 9.42179 30.2678 9.44602C30.2438 9.47025 30.2151 9.48928 30.1835 9.50194C30.1519 9.5146 30.1181 9.52062 30.0842 9.51965H28.6997V15.0014C28.6991 15.0698 28.6719 15.1353 28.6239 15.1837C28.5759 15.2321 28.5109 15.2595 28.443 15.2602C28.3756 15.2582 28.3114 15.2303 28.2637 15.1822C28.216 15.1341 28.1883 15.0694 28.1864 15.0014V9.51965H26.8564C26.8224 9.52062 26.7886 9.5146 26.757 9.50194C26.7254 9.48928 26.6968 9.47025 26.6727 9.44602C26.6487 9.42179 26.6298 9.39287 26.6173 9.36103C26.6047 9.32919 26.5987 9.29511 26.5997 9.26086C26.6003 9.19241 26.6276 9.12694 26.6756 9.07854C26.7236 9.03014 26.7885 9.00268 26.8564 9.00206H28.1864V7.0023C28.1865 6.93603 28.2101 6.87199 28.2528 6.82168C28.2956 6.77136 28.3548 6.73808 28.4197 6.72782C28.456 6.72296 28.4929 6.72606 28.5279 6.7369C28.5629 6.74774 28.5952 6.76608 28.6225 6.79065C28.6498 6.81522 28.6715 6.84545 28.6862 6.87927C28.7009 6.91309 28.7081 6.9497 28.7075 6.98661V9.00206H30.0842Z" fill="#F4F6F7"/>
<path d="M38.5224 11.6528V14.97C38.5204 15.038 38.4927 15.1027 38.445 15.1508C38.3973 15.199 38.3331 15.2268 38.2657 15.2288C38.2317 15.2298 38.1979 15.2238 38.1663 15.2111C38.1348 15.1984 38.1061 15.1794 38.082 15.1552C38.058 15.131 38.0391 15.102 38.0266 15.0702C38.014 15.0384 38.0081 15.0043 38.009 14.97V11.6528C38.009 10.5313 37.379 9.41774 36.1424 9.41774C34.5557 9.41774 33.8712 10.8137 33.9646 12.2488C33.9646 12.288 33.9801 12.4527 33.9801 12.4762V14.9622C33.98 15.0285 33.9564 15.0925 33.9137 15.1428C33.8709 15.1931 33.8117 15.2264 33.7468 15.2367C33.7105 15.2415 33.6736 15.2384 33.6386 15.2276C33.6036 15.2167 33.5714 15.1984 33.544 15.1738C33.5167 15.1493 33.495 15.119 33.4803 15.0852C33.4656 15.0514 33.4584 15.0148 33.459 14.9779V4.06934C33.4596 4.00089 33.4869 3.93542 33.5349 3.88702C33.5829 3.83862 33.6478 3.81116 33.7157 3.81055C33.7831 3.81252 33.8473 3.84042 33.895 3.88853C33.9427 3.93664 33.9704 4.00133 33.9724 4.06934V10.2333C34.4157 9.43342 35.209 8.89231 36.1346 8.89231C37.659 8.89231 38.5224 10.2333 38.5224 11.6528Z" fill="#F4F6F7"/>
<path d="M47.7868 12.1001C47.7856 12.1739 47.7554 12.2442 47.703 12.2956C47.6505 12.347 47.58 12.3754 47.5068 12.3746H42.3501C42.4824 13.6607 43.439 14.837 44.7924 14.837C45.7179 14.837 46.4024 14.4841 46.9157 13.7391C46.9396 13.7 46.9727 13.6674 47.012 13.6441C47.0513 13.6209 47.0957 13.6077 47.1413 13.6058C47.1752 13.6048 47.209 13.6109 47.2406 13.6235C47.2722 13.6362 47.3009 13.6552 47.3249 13.6794C47.3489 13.7037 47.3678 13.7326 47.3804 13.7644C47.3929 13.7963 47.3989 13.8304 47.3979 13.8646C47.3981 13.9119 47.3846 13.9582 47.359 13.9979C46.8379 14.9076 45.8035 15.3546 44.7924 15.3546C43.0579 15.3546 41.8135 13.7862 41.8135 12.1158C41.8135 10.4454 43.0501 8.87695 44.7924 8.87695C46.519 8.87695 47.779 10.4297 47.7868 12.1001ZM47.2268 11.857C47.1179 10.5709 46.1379 9.39454 44.7846 9.39454C43.4313 9.39454 42.4746 10.5709 42.3424 11.857H47.2268Z" fill="#F4F6F7"/>
<path d="M54.1245 9.24506C54.1294 9.31469 54.1069 9.38345 54.0617 9.43635C54.0165 9.48924 53.9524 9.52197 53.8834 9.52738C52.3667 9.75481 51.6823 11.0017 51.6823 12.4525V14.9385C51.6822 15.0048 51.6586 15.0688 51.6158 15.1191C51.573 15.1694 51.5139 15.2027 51.449 15.213C51.4127 15.2179 51.3758 15.2148 51.3408 15.2039C51.3058 15.1931 51.2735 15.1747 51.2462 15.1502C51.2189 15.1256 51.1971 15.0954 51.1824 15.0615C51.1678 15.0277 51.1605 14.9911 51.1612 14.9542V9.28427C51.1613 9.21801 51.1849 9.15397 51.2276 9.10365C51.2704 9.05334 51.3296 9.02006 51.3945 9.0098C51.4308 9.00494 51.4677 9.00803 51.5027 9.01888C51.5377 9.02972 51.57 9.04805 51.5973 9.07262C51.6246 9.09719 51.6463 9.12742 51.661 9.16124C51.6757 9.19506 51.6829 9.23168 51.6823 9.26859V10.4214C52.1101 9.69207 52.9578 9.00195 53.8445 9.00195C53.9767 9.00195 54.1245 9.09606 54.1245 9.24506Z" fill="#F4F6F7"/>
<path d="M62.6022 12.1001C62.601 12.1739 62.5709 12.2442 62.5184 12.2956C62.4659 12.347 62.3954 12.3754 62.3222 12.3746H57.1656C57.2978 13.6607 58.2545 14.837 59.6078 14.837C60.5334 14.837 61.2178 14.4841 61.7311 13.7391C61.755 13.7 61.7881 13.6674 61.8274 13.6441C61.8668 13.6209 61.9111 13.6077 61.9567 13.6058C61.9907 13.6048 62.0245 13.6109 62.056 13.6235C62.0876 13.6362 62.1163 13.6552 62.1403 13.6794C62.1644 13.7037 62.1832 13.7326 62.1958 13.7644C62.2083 13.7963 62.2143 13.8304 62.2134 13.8646C62.2135 13.9119 62.2 13.9582 62.1745 13.9979C61.6534 14.9076 60.6189 15.3546 59.6078 15.3546C57.8734 15.3546 56.6289 13.7862 56.6289 12.1158C56.6289 10.4454 57.8656 8.87695 59.6078 8.87695C61.35 8.87695 62.5945 10.4297 62.6022 12.1001ZM62.05 11.857C61.9411 10.5709 60.9611 9.39454 59.6078 9.39454C58.2545 9.39454 57.2978 10.5709 57.1656 11.857H62.05Z" fill="#F4F6F7"/>
<path d="M70.9404 9.30846V15.0019C70.9384 15.0699 70.9108 15.1346 70.863 15.1827C70.8153 15.2308 70.7512 15.2587 70.6837 15.2607C70.6498 15.2617 70.6159 15.2557 70.5844 15.243C70.5528 15.2303 70.5241 15.2113 70.5001 15.1871C70.4761 15.1628 70.4572 15.1339 70.4446 15.1021C70.4321 15.0703 70.4261 15.0362 70.4271 15.0019V13.9197C69.9993 14.7745 69.2448 15.394 68.2804 15.394C66.7482 15.394 65.9004 14.053 65.9004 12.6336V9.30062C65.901 9.23217 65.9282 9.1667 65.9762 9.1183C66.0242 9.0699 66.0892 9.04244 66.1571 9.04182C66.2245 9.0438 66.2887 9.07169 66.3364 9.11981C66.3841 9.16792 66.4118 9.2326 66.4137 9.30062V12.6336C66.4137 13.755 67.0437 14.8686 68.2804 14.8686C70.0148 14.8686 70.4271 13.2296 70.4271 11.418V9.29277C70.4276 9.25082 70.4382 9.20961 70.4578 9.1726C70.4774 9.1356 70.5055 9.10386 70.5398 9.08006C70.574 9.05626 70.6135 9.04107 70.6548 9.03579C70.696 9.0305 70.738 9.03526 70.7771 9.04967C70.8259 9.07258 70.8673 9.10912 70.8963 9.15498C70.9252 9.20084 70.9405 9.2541 70.9404 9.30846Z" fill="#F4F6F7"/>
<path d="M84.0002 11.629V14.962C83.9982 15.03 83.9706 15.0947 83.9229 15.1428C83.8751 15.1909 83.811 15.2188 83.7435 15.2208C83.7096 15.2217 83.6758 15.2157 83.6442 15.203C83.6126 15.1904 83.5839 15.1714 83.5599 15.1471C83.5359 15.1229 83.517 15.094 83.5044 15.0621C83.4919 15.0303 83.4859 14.9962 83.4869 14.962V11.629C83.4869 10.5076 82.8569 9.40968 81.6202 9.40968C80.0646 9.40968 79.4735 11.0879 79.4735 12.3897V14.962C79.4716 15.03 79.4439 15.0947 79.3962 15.1428C79.3485 15.1909 79.2843 15.2188 79.2169 15.2208C79.1829 15.2217 79.1491 15.2157 79.1175 15.203C79.0859 15.1904 79.0573 15.1714 79.0332 15.1471C79.0092 15.1229 78.9903 15.094 78.9778 15.0621C78.9652 15.0303 78.9592 14.9962 78.9602 14.962V11.629C78.9602 10.5076 78.3302 9.40968 77.0935 9.40968C75.5224 9.40968 74.8769 10.6566 74.9313 12.3191C74.9313 12.3584 74.9469 12.4289 74.9313 12.4525V14.9541C74.9312 15.0204 74.9076 15.0844 74.8648 15.1347C74.8221 15.1851 74.7629 15.2183 74.698 15.2286C74.6617 15.2335 74.6248 15.2304 74.5898 15.2195C74.5548 15.2087 74.5225 15.1903 74.4952 15.1658C74.4679 15.1412 74.4461 15.111 74.4315 15.0772C74.4168 15.0433 74.4095 15.0067 74.4102 14.9698V9.2842C74.4103 9.21794 74.4339 9.15389 74.4767 9.10358C74.5194 9.05327 74.5786 9.01999 74.6435 9.00972C74.6798 9.00486 74.7167 9.00796 74.7517 9.0188C74.7867 9.02965 74.819 9.04798 74.8463 9.07255C74.8736 9.09712 74.8954 9.12735 74.91 9.16117C74.9247 9.19499 74.932 9.23161 74.9313 9.26852V10.2174C75.3746 9.41752 76.168 8.89209 77.0935 8.89209C78.1435 8.89209 78.9602 9.56652 79.2946 10.5468C79.7224 9.57436 80.5546 8.89209 81.6202 8.89209C83.1369 8.89209 84.0002 10.2174 84.0002 11.629Z" fill="#F4F6F7"/>
<path opacity="0.6" d="M6.45556 7.73975L0 10.6963L6.45556 14.5468L12.9189 10.6963L6.45556 7.73975Z" fill="#A2B3BE"/>
<path opacity="0.45" d="M0 10.6957L6.45556 14.5463V-0.11084L0 10.6957Z" fill="#A2B3BE"/>
<path opacity="0.8" d="M6.45508 -0.11084V14.5463L12.9184 10.6957L6.45508 -0.11084Z" fill="#A2B3BE"/>
<path opacity="0.45" d="M0 11.9355L6.45556 21.1109V15.7782L0 11.9355Z" fill="#A2B3BE"/>
<path opacity="0.8" d="M6.45508 15.7782V21.1109L12.9184 11.9355L6.45508 15.7782Z" fill="#A2B3BE"/>
</g>
<defs>
<clipPath id="clip0_818_28777">
<rect width="84" height="21" fill="white"/>
</clipPath>
</defs>
</svg>
