<svg width="279" height="121" viewBox="0 0 279 121" fill="none" xmlns="http://www.w3.org/2000/svg">
<g filter="url(#filter0_b_646_7520)">
<mask id="path-1-inside-1_646_7520" fill="white">
<path fill-rule="evenodd" clip-rule="evenodd" d="M19 0C13.4771 0 8.99998 4.47715 8.99998 10V39.2843C8.99998 43.2625 7.41962 47.0779 4.60658 49.8909L1.46447 53.033C-0.488155 54.9856 -0.488155 58.1515 1.46447 60.1041L4.60658 63.2462C7.41962 66.0592 8.99998 69.8745 8.99998 73.8528V111C8.99998 116.523 13.4771 121 19 121H269C274.523 121 279 116.523 279 111V10C279 4.47715 274.523 0 269 0H19Z"/>
</mask>
<path fill-rule="evenodd" clip-rule="evenodd" d="M19 0C13.4771 0 8.99998 4.47715 8.99998 10V39.2843C8.99998 43.2625 7.41962 47.0779 4.60658 49.8909L1.46447 53.033C-0.488155 54.9856 -0.488155 58.1515 1.46447 60.1041L4.60658 63.2462C7.41962 66.0592 8.99998 69.8745 8.99998 73.8528V111C8.99998 116.523 13.4771 121 19 121H269C274.523 121 279 116.523 279 111V10C279 4.47715 274.523 0 269 0H19Z" fill="#24242B" fill-opacity="0.6"/>
<path d="M1.46447 53.033L0.757359 52.3259L1.46447 53.033ZM1.46447 60.1041L0.757359 60.8112L1.46447 60.1041ZM4.60658 63.2462L5.31368 62.5391L4.60658 63.2462ZM9.99998 10C9.99998 5.02944 14.0294 1 19 1V-1C12.9248 -1 7.99998 3.92487 7.99998 10H9.99998ZM9.99998 39.2843V10H7.99998V39.2843H9.99998ZM2.17157 53.7401L5.31369 50.598L3.89947 49.1838L0.757359 52.3259L2.17157 53.7401ZM2.17157 59.397C0.609476 57.8349 0.609476 55.3022 2.17157 53.7401L0.757359 52.3259C-1.58579 54.669 -1.58579 58.468 0.757359 60.8112L2.17157 59.397ZM5.31368 62.5391L2.17157 59.397L0.757359 60.8112L3.89947 63.9533L5.31368 62.5391ZM9.99998 111V73.8528H7.99998V111H9.99998ZM19 120C14.0294 120 9.99998 115.971 9.99998 111H7.99998C7.99998 117.075 12.9248 122 19 122V120ZM269 120H19V122H269V120ZM278 111C278 115.971 273.971 120 269 120V122C275.075 122 280 117.075 280 111H278ZM278 10V111H280V10H278ZM269 1C273.971 1 278 5.02944 278 10H280C280 3.92487 275.075 -1 269 -1V1ZM19 1H269V-1H19V1ZM3.89947 63.9533C6.52498 66.5788 7.99998 70.1398 7.99998 73.8528H9.99998C9.99998 69.6093 8.31427 65.5397 5.31368 62.5391L3.89947 63.9533ZM7.99998 39.2843C7.99998 42.9973 6.52498 46.5583 3.89947 49.1838L5.31369 50.598C8.31427 47.5974 9.99998 43.5278 9.99998 39.2843H7.99998Z" fill="#54547A" fill-opacity="0.4" mask="url(#path-1-inside-1_646_7520)"/>
</g>
<defs>
<filter id="filter0_b_646_7520" x="-80.3" y="-80.3" width="439.6" height="281.6" filterUnits="userSpaceOnUse" color-interpolation-filters="sRGB">
<feFlood flood-opacity="0" result="BackgroundImageFix"/>
<feGaussianBlur in="BackgroundImageFix" stdDeviation="40.15"/>
<feComposite in2="SourceAlpha" operator="in" result="effect1_backgroundBlur_646_7520"/>
<feBlend mode="normal" in="SourceGraphic" in2="effect1_backgroundBlur_646_7520" result="shape"/>
</filter>
</defs>
</svg>
