<svg width="20" height="20" viewBox="0 0 20 20" fill="none" xmlns="http://www.w3.org/2000/svg">
<path fill-rule="evenodd" clip-rule="evenodd" d="M16.7712 1.41609C15.7156 1.76623 14.3747 2.48188 12.876 3.49297C12.6067 3.67467 12.2411 3.60363 12.0594 3.33431C11.8777 3.06499 11.9487 2.69937 12.218 2.51767C13.7572 1.47931 15.1997 0.697842 16.4008 0.299429C17.0004 0.100522 17.5714 -0.0137268 18.0811 0.00132267C18.5951 0.016496 19.0913 0.166274 19.4618 0.541527C20.034 1.11527 20.0846 1.9646 19.9212 2.79622C19.7534 3.65046 19.3319 4.65171 18.7288 5.72759C17.5185 7.88678 15.505 10.4721 13.009 12.9975C10.5099 15.526 7.92256 17.5412 5.75396 18.7451C4.67325 19.3451 3.66614 19.7608 2.80715 19.9235C1.97064 20.0819 1.11882 20.0257 0.546597 19.4535C0.170207 19.0771 0.0176665 18.5723 0.00148407 18.0467C-0.0145819 17.5249 0.100634 16.9388 0.306326 16.3211C0.718287 15.0841 1.53399 13.601 2.64942 12.0234C2.83699 11.7581 3.20408 11.6951 3.46935 11.8827C3.73461 12.0703 3.79761 12.4374 3.61005 12.7026C2.52922 14.2312 1.78386 15.6079 1.42255 16.6928C1.24161 17.2362 1.16714 17.6766 1.17742 18.0105C1.18758 18.3405 1.27742 18.5205 1.3785 18.6216C1.53304 18.7761 1.88036 18.9016 2.5882 18.7675C3.27357 18.6377 4.15602 18.2866 5.18291 17.7165C7.22948 16.5803 9.7294 14.642 12.1723 12.1704C14.6182 9.69576 16.5582 7.19377 17.7026 5.15232C18.2768 4.12787 18.633 3.25046 18.7668 2.56943C18.9049 1.86655 18.7813 1.52482 18.6283 1.37182L18.625 1.3686L18.6251 1.36859C18.5306 1.27264 18.3625 1.18664 18.0464 1.17731C17.7254 1.16783 17.2998 1.24072 16.7712 1.41609Z" fill="white"/>
<path fill-rule="evenodd" clip-rule="evenodd" d="M14.0392 4.62467C12.7529 3.65998 11.1619 3.19164 9.5581 3.30561C7.95434 3.41959 6.4455 4.10824 5.30861 5.24513C4.17172 6.38203 3.48307 7.89086 3.36909 9.49462C3.25511 11.0984 3.72346 12.6894 4.68815 13.9757C4.88308 14.2356 4.8304 14.6043 4.5705 14.7992C4.31059 14.9942 3.94188 14.9415 3.74695 14.6816C2.61235 13.1688 2.0615 11.2975 2.19556 9.41122C2.32961 7.52497 3.13956 5.75037 4.4767 4.41323C5.81385 3.07608 7.58845 2.26613 9.4747 2.13208C11.361 1.99803 13.2323 2.54887 14.7451 3.68347C15.005 3.8784 15.0577 4.24712 14.8627 4.50702C14.6678 4.76693 14.2991 4.8196 14.0392 4.62467ZM16.7257 7.06681C17.0332 6.962 17.3674 7.12632 17.4722 7.43383C17.8754 8.61669 17.9905 9.87866 17.8081 11.1149C17.6256 12.3512 17.1509 13.5262 16.4233 14.5422C15.6956 15.5581 14.7361 16.3859 13.6244 16.9567C12.5127 17.5274 11.2809 17.8247 10.0312 17.8239L10.0316 17.2357L10.0318 17.8239C10.0316 17.8239 10.0314 17.8239 10.0312 17.8239C9.19993 17.8241 8.37379 17.6938 7.58293 17.4378C7.27384 17.3377 7.1044 17.006 7.20447 16.6969C7.30453 16.3878 7.63622 16.2184 7.9453 16.3185C8.61917 16.5366 9.32312 16.6476 10.0314 16.6474H10.032C11.0945 16.6481 12.1419 16.3953 13.0871 15.91C14.0323 15.4248 14.8481 14.721 15.4668 13.8571C16.0854 12.9933 16.4891 11.9943 16.6442 10.9432C16.7993 9.89206 16.7014 8.81908 16.3586 7.81337C16.2538 7.50586 16.4181 7.17161 16.7257 7.06681Z" fill="white"/>
<path fill-rule="evenodd" clip-rule="evenodd" d="M12.3833 8.47645C13.3705 7.8867 13.2796 7.25537 13.2796 7.25537C12.9107 7.80096 10.2191 9.10258 10.2191 9.10258L9.95669 9.87679C9.95717 9.87595 10.0284 9.8356 10.1497 9.76688C10.5753 9.5257 11.6175 8.93509 12.3833 8.47645ZM9.12786 9.89231C9.12786 9.89231 7.68853 9.08432 6.70126 8.49456C5.76523 7.93146 5.80117 7.3355 5.80477 7.27577V7.27577V7.27577V7.27577V7.27577C5.80496 7.27266 5.80506 7.27101 5.80493 7.27088C6.17386 7.81647 8.86286 9.11809 8.86286 9.11809L9.12786 9.89231ZM9.95377 10.1496L11.7127 9.08441C11.7127 9.08441 13.8223 7.81917 13.9782 7.32814C13.9782 7.32814 13.9444 8.29721 13.152 8.8402C12.3596 9.38319 10.2863 10.5445 10.2863 10.5445L9.54848 12.4671V12.5294L9.53549 12.4982L9.53029 12.5112V12.4827L8.79244 10.5601C8.79244 10.5601 6.71658 9.40138 5.92677 8.85579C5.13696 8.3102 5.10059 7.34372 5.10059 7.34372C5.25907 7.83735 7.3687 9.1026 7.3687 9.1026L9.12759 10.1678L9.53808 11.1784L9.95377 10.1496ZM9.53279 8.14654L10.0602 9.11821L9.53279 10.8927L9.00538 9.11821L9.53279 8.14654ZM8.76026 10.8225L6.66621 9.57541C6.66621 9.57541 6.63244 10.8407 8.76026 10.8225ZM10.3075 10.8225C12.4353 10.8407 12.4015 9.57541 12.4015 9.57541L10.3075 10.8225Z" fill="white"/>
</svg>
