<svg width="279" height="331" viewBox="0 0 279 331" fill="none" xmlns="http://www.w3.org/2000/svg">
<g filter="url(#filter0_b_646_6365)">
<mask id="path-1-inside-1_646_6365" fill="white">
<path fill-rule="evenodd" clip-rule="evenodd" d="M19 0C13.4771 0 8.99995 4.47716 8.99995 10V162.284C8.99995 166.263 7.41961 170.078 4.60656 172.891L1.46447 176.033C-0.488155 177.986 -0.488155 181.151 1.46447 183.104L4.60656 186.246C7.4196 189.059 8.99995 192.875 8.99995 196.853V321C8.99995 326.523 13.4771 331 18.9999 331H269C274.523 331 279 326.523 279 321V10C279 4.47715 274.523 0 269 0H19Z"/>
</mask>
<path fill-rule="evenodd" clip-rule="evenodd" d="M19 0C13.4771 0 8.99995 4.47716 8.99995 10V162.284C8.99995 166.263 7.41961 170.078 4.60656 172.891L1.46447 176.033C-0.488155 177.986 -0.488155 181.151 1.46447 183.104L4.60656 186.246C7.4196 189.059 8.99995 192.875 8.99995 196.853V321C8.99995 326.523 13.4771 331 18.9999 331H269C274.523 331 279 326.523 279 321V10C279 4.47715 274.523 0 269 0H19Z" fill="#24242B" fill-opacity="0.6"/>
<path d="M1.46447 176.033L2.17157 176.74L1.46447 176.033ZM1.46447 183.104L2.17157 182.397L1.46447 183.104ZM4.60656 186.246L5.31367 185.539L4.60656 186.246ZM4.60656 172.891L5.31367 173.598L4.60656 172.891ZM9.99995 10C9.99995 5.02945 14.0294 1 19 1V-1C12.9248 -1 7.99995 3.92488 7.99995 10H9.99995ZM9.99995 162.284V10H7.99995V162.284H9.99995ZM2.17157 176.74L5.31367 173.598L3.89945 172.184L0.757359 175.326L2.17157 176.74ZM2.17157 182.397C0.609476 180.835 0.609476 178.302 2.17157 176.74L0.757359 175.326C-1.58579 177.669 -1.58579 181.468 0.757359 183.811L2.17157 182.397ZM5.31367 185.539L2.17157 182.397L0.757359 183.811L3.89945 186.953L5.31367 185.539ZM9.99995 321V196.853H7.99995V321H9.99995ZM18.9999 330C14.0294 330 9.99995 325.971 9.99995 321H7.99995C7.99995 327.075 12.9248 332 18.9999 332V330ZM269 330H18.9999V332H269V330ZM278 321C278 325.971 273.971 330 269 330V332C275.075 332 280 327.075 280 321H278ZM278 10V321H280V10H278ZM269 1C273.971 1 278 5.02944 278 10H280C280 3.92487 275.075 -1 269 -1V1ZM19 1H269V-1H19V1ZM3.89945 186.953C6.52496 189.579 7.99995 193.14 7.99995 196.853H9.99995C9.99995 192.609 8.31425 188.54 5.31367 185.539L3.89945 186.953ZM7.99995 162.284C7.99995 165.997 6.52496 169.558 3.89945 172.184L5.31367 173.598C8.31425 170.597 9.99995 166.528 9.99995 162.284H7.99995Z" fill="#54547A" fill-opacity="0.4" mask="url(#path-1-inside-1_646_6365)"/>
</g>
<defs>
<filter id="filter0_b_646_6365" x="-80.3" y="-80.3" width="439.6" height="491.6" filterUnits="userSpaceOnUse" color-interpolation-filters="sRGB">
<feFlood flood-opacity="0" result="BackgroundImageFix"/>
<feGaussianBlur in="BackgroundImageFix" stdDeviation="40.15"/>
<feComposite in2="SourceAlpha" operator="in" result="effect1_backgroundBlur_646_6365"/>
<feBlend mode="normal" in="SourceGraphic" in2="effect1_backgroundBlur_646_6365" result="shape"/>
</filter>
</defs>
</svg>
