<svg width="28" height="28" viewBox="0 0 28 28" fill="none" xmlns="http://www.w3.org/2000/svg">
<circle cx="14" cy="14" r="14" fill="#FCFC00"/>
<path d="M12.9302 14.6302C12.8739 14.5449 12.891 14.4696 12.9124 14.3973C12.9765 14.1819 13.0427 13.9672 13.109 13.7518C13.1809 13.5174 13.2521 13.283 13.3262 13.0501C13.3839 12.8681 13.4103 12.8499 13.5869 12.8506C15.3441 12.8514 17.1014 12.8514 18.8579 12.8544C18.9548 12.8544 19.016 12.8347 19.0474 12.7197C19.0993 12.5287 19.1734 12.3445 19.2325 12.1557C19.3209 11.8756 19.4071 11.594 19.4904 11.3124C19.5438 11.1335 19.5894 10.9524 19.6414 10.7727C19.6635 10.6951 19.6955 10.6213 19.7169 10.5436C19.7604 10.3853 19.7133 10.3222 19.5581 10.3222C15.0991 10.3222 10.6409 10.3222 6.1819 10.3237C6.06794 10.3237 5.95397 10.3404 5.83502 10.3496C5.82576 10.2635 5.8806 10.227 5.9269 10.1897C6.39773 9.816 6.86998 9.44305 7.34152 9.07009C7.68912 8.79608 8.036 8.52131 8.38432 8.24883C8.45483 8.19403 8.53247 8.16739 8.62436 8.16739C12.4636 8.17043 16.3029 8.17195 20.1421 8.16663C20.333 8.16663 20.4791 8.22447 20.6258 8.34321C21.0104 8.65527 21.4015 8.95668 21.7904 9.26266C21.8837 9.33573 21.9784 9.40651 22.071 9.48034C22.1736 9.56254 22.1879 9.64931 22.1437 9.77566C22.0753 9.97051 22.0155 10.1692 21.9521 10.3663C21.8687 10.6258 21.7826 10.8839 21.7028 11.1442C21.643 11.3383 21.5917 11.5354 21.5354 11.731C21.4805 11.9198 21.4264 12.1093 21.3673 12.2965C21.3238 12.4343 21.2419 12.5363 21.1151 12.6018C20.7982 12.7639 20.484 12.9321 20.1699 13.0995C19.828 13.2814 19.4876 13.4649 19.1456 13.646C19.0381 13.7031 18.9263 13.7503 18.8187 13.8081C18.7767 13.831 18.7425 13.8706 18.6962 13.9086C18.7282 13.9543 18.7461 13.9954 18.776 14.019C19.1563 14.3196 19.5381 14.6172 19.9192 14.9156C20.0481 15.0168 20.1742 15.1234 20.3088 15.2155C20.415 15.2878 20.4285 15.3784 20.3929 15.4933C20.3003 15.7955 20.2091 16.0984 20.1179 16.4013C20.0296 16.6928 19.9427 16.9851 19.8537 17.2766C19.7767 17.527 19.697 17.7767 19.6186 18.0264C19.5851 18.1329 19.5602 18.244 19.5146 18.3445C19.4883 18.4031 19.437 18.4625 19.3828 18.4922C19.0616 18.6703 18.7361 18.8408 18.4113 19.0113C17.9697 19.2434 17.5238 19.4672 17.0857 19.7077C16.9226 19.7968 16.7602 19.834 16.58 19.8333C13.4516 19.831 10.3232 19.8318 7.1955 19.8318C7.14492 19.8318 7.09364 19.8318 7.04307 19.8318C6.84932 19.8295 6.82154 19.7785 6.88351 19.5882C6.94976 19.385 6.99962 19.1764 7.05945 18.9709C7.10148 18.8271 7.14849 18.6855 7.19194 18.5424C7.25818 18.3224 7.32157 18.1009 7.38853 17.881C7.42913 17.7485 7.47828 17.6184 7.51745 17.4852C7.57016 17.3063 7.61575 17.1252 7.66561 16.9448C7.6998 16.8215 7.73399 16.6982 7.77103 16.5756C7.83371 16.3656 7.89853 16.1555 7.96193 15.9454C8.0068 15.797 8.05096 15.6478 8.09655 15.4994C8.16493 15.2756 8.23402 15.0518 8.3024 14.8281C8.36936 14.6089 8.43774 14.3904 8.50184 14.1704C8.55384 13.9908 8.59943 13.8089 8.64858 13.6278C8.68134 13.509 8.71553 13.3903 8.75115 13.2723C8.85514 12.9237 8.95842 12.5751 9.06456 12.228C9.14861 11.9533 9.2412 11.6808 9.32383 11.406C9.36799 11.2584 9.40147 11.1061 9.4378 10.9554C9.4727 10.8093 9.53396 10.7895 9.65077 10.8831C10.0696 11.2165 10.4899 11.5483 10.9094 11.8817C11.002 11.9555 11.0939 12.0309 11.1858 12.1063C11.2848 12.1869 11.2848 12.2181 11.242 12.3468C11.1822 12.5241 11.1352 12.706 11.0818 12.8857C11.0298 13.0592 10.9749 13.232 10.9236 13.4063C10.8788 13.56 10.8396 13.7161 10.7933 13.869C10.7506 14.0129 10.7014 14.1537 10.6572 14.2968C10.5953 14.4962 10.5362 14.6964 10.4756 14.8958C10.3937 15.1668 10.3096 15.4377 10.2292 15.7095C10.1821 15.8678 10.1423 16.0284 10.096 16.1867C10.0554 16.3252 10.0105 16.4622 9.96846 16.6C9.89936 16.8253 9.83098 17.0506 9.7626 17.2766C9.74052 17.3482 9.71061 17.4182 9.70063 17.492C9.68924 17.5758 9.72343 17.6093 9.80321 17.6191C9.82814 17.6222 9.85378 17.6191 9.87942 17.6191C12.3881 17.6191 14.8968 17.6191 17.4055 17.6199C17.5366 17.6199 17.5928 17.5811 17.6242 17.4677C17.6705 17.3025 17.7154 17.1358 17.7645 16.9714C17.8272 16.7621 17.8927 16.5528 17.9575 16.3442C18.0779 15.9568 18.1997 15.5702 18.3194 15.182C18.3571 15.0595 18.3892 14.9354 18.4262 14.8121C18.4697 14.6652 18.4462 14.6294 18.2959 14.6294C17.7218 14.6294 17.1484 14.6294 16.5743 14.6294C15.4161 14.6294 14.2586 14.6294 13.1004 14.6294C13.0406 14.6294 12.98 14.6294 12.9295 14.6294L12.9302 14.6302Z" fill="#1F2122"/>
</svg>
