<svg width="90" height="73" viewBox="0 0 90 73" fill="none" xmlns="http://www.w3.org/2000/svg">
<path d="M88.0288 16.7942C88.0288 8.50335 72.8761 1.78357 54.1841 1.78357C35.4921 1.78357 20.3394 8.50335 20.3394 16.7942M88.0288 16.7942V36.8085C88.0288 41.9121 82.2946 46.4153 73.5239 49.1272C68.0411 50.8284 61.3737 51.8191 54.1841 51.8191C46.9945 51.8191 40.3271 50.8234 34.8442 49.1272C26.0785 46.4153 20.3394 41.9121 20.3394 36.8085V16.7942M88.0288 16.7942C88.0288 21.8979 82.2946 26.4011 73.5239 29.113C68.0411 30.8142 61.3737 31.8049 54.1841 31.8049C46.9945 31.8049 40.3271 30.8092 34.8442 29.113C26.0785 26.4011 20.3394 21.8979 20.3394 16.7942" stroke="url(#paint0_linear_5855_61927)" stroke-width="2" stroke-linecap="round" stroke-linejoin="round"/>
<path d="M1 36.8084V56.8226C1 61.9263 6.7391 66.4295 15.5049 69.1414C20.9877 70.8426 27.6551 71.8333 34.8447 71.8333C42.0343 71.8333 48.7017 70.8376 54.1846 69.1414C62.9504 66.4295 68.6895 61.9263 68.6895 56.8226V51.8191M1 36.8084C1 30.8192 8.90516 25.6505 20.3398 23.2438M1 36.8084C1 41.912 6.7391 46.4152 15.5049 49.1272C20.9877 50.8284 27.6551 51.8191 34.8447 51.8191C38.205 51.8191 41.4493 51.6039 44.5147 51.1987" stroke="url(#paint1_linear_5855_61927)" stroke-width="2" stroke-linecap="round" stroke-linejoin="round"/>
<defs>
<linearGradient id="paint0_linear_5855_61927" x1="27.3993" y1="30.7104" x2="127.891" y2="30.8913" gradientUnits="userSpaceOnUse">
<stop stop-color="#FE5E35"/>
<stop offset="0.55" stop-color="#F67702"/>
<stop offset="1" stop-color="#FFEF76"/>
</linearGradient>
<linearGradient id="paint1_linear_5855_61927" x1="8.0599" y1="51.3346" x2="108.552" y2="51.5209" gradientUnits="userSpaceOnUse">
<stop stop-color="#FE5E35"/>
<stop offset="0.55" stop-color="#F67702"/>
<stop offset="1" stop-color="#FFEF76"/>
</linearGradient>
</defs>
</svg>
