<svg width="72" height="55" viewBox="0 0 72 55" fill="none" xmlns="http://www.w3.org/2000/svg">
<path d="M45.1143 -6.83665C56.1935 -14.3111 65.4173 -17.7568 68.8099 -14.3111C74.111 -9.01007 63.2969 9.8616 45.2734 28.0972C27.2499 46.3327 8.16614 56.9348 2.86511 51.6337C-0.617667 48.151 2.75909 38.6197 10.7689 27.2914" stroke="url(#paint0_linear_5853_61890)" stroke-width="3" stroke-linecap="round" stroke-linejoin="round"/>
<path d="M27.6731 43.7562C30.3444 44.6211 33.1349 45.0611 35.9427 45.0603C40.159 45.0631 44.3152 44.06 48.0661 42.1342C51.817 40.2085 55.0543 37.4157 57.5093 33.9877C59.9642 30.5598 61.566 26.5957 62.1815 22.4245C62.797 18.2533 62.4086 13.9955 61.0484 10.0046M14.7386 34.4582C10.9105 29.3541 9.05193 23.0403 9.50422 16.6762C9.9565 10.3121 12.6892 4.32462 17.2007 -0.186857C21.7122 -4.69833 27.6996 -7.43107 34.0638 -7.88336C40.4279 -8.33564 46.7416 -6.47712 51.8458 -2.64901" stroke="url(#paint1_linear_5853_61890)" stroke-width="3" stroke-linecap="round" stroke-linejoin="round"/>
<path fill-rule="evenodd" clip-rule="evenodd" d="M44.5139 13.1157C48.1145 10.9648 47.7829 8.66235 47.7829 8.66235C46.4374 10.6522 36.621 15.3993 36.621 15.3993L35.664 18.2229C35.6657 18.2198 35.9251 18.0728 36.367 17.8224L36.3677 17.822C37.9199 16.9424 41.7212 14.7884 44.5139 13.1157ZM32.6418 18.2795C32.6418 18.2795 27.3924 15.3327 23.7918 13.1818C20.3781 11.1281 20.5091 8.95456 20.5223 8.73672C20.523 8.72541 20.5233 8.71937 20.5229 8.7189C21.8683 10.7087 31.6753 15.4558 31.6753 15.4558L32.6418 18.2795ZM35.653 19.2179L42.0677 15.3331C42.0677 15.3331 49.7617 10.7186 50.3302 8.92778C50.3302 8.92778 50.207 12.4621 47.3171 14.4424C44.4271 16.4227 36.8658 20.6582 36.8658 20.6582L34.1748 27.6699V27.8973L34.1274 27.7836L34.1085 27.831V27.7268L31.4175 20.715C31.4175 20.715 23.8468 16.4891 20.9663 14.4993C18.0858 12.5094 17.9531 8.98463 17.9531 8.98463C18.5311 10.7849 26.2251 15.3994 26.2251 15.3994L32.6398 19.2843L34.1369 22.9702L35.653 19.2179ZM34.1174 11.9125L36.0409 15.4562L34.1174 21.9279L32.1939 15.4562L34.1174 11.9125ZM31.3001 21.6718L23.663 17.1237C23.663 17.1237 23.5399 21.7382 31.3001 21.6718ZM36.9431 21.6718C44.7034 21.7382 44.5802 17.1237 44.5802 17.1237L36.9431 21.6718Z" fill="url(#paint2_linear_5853_61890)"/>
<defs>
<linearGradient id="paint0_linear_5853_61890" x1="8.66116" y1="24.0375" x2="110.595" y2="24.1731" gradientUnits="userSpaceOnUse">
<stop stop-color="#FE5E35"/>
<stop offset="0.55" stop-color="#F67702"/>
<stop offset="1" stop-color="#FFEF76"/>
</linearGradient>
<linearGradient id="paint1_linear_5853_61890" x1="14.9682" y1="22.6965" x2="93.694" y2="22.8013" gradientUnits="userSpaceOnUse">
<stop stop-color="#FE5E35"/>
<stop offset="0.55" stop-color="#F67702"/>
<stop offset="1" stop-color="#FFEF76"/>
</linearGradient>
<linearGradient id="paint2_linear_5853_61890" x1="21.33" y1="19.7824" x2="69.3971" y2="19.8901" gradientUnits="userSpaceOnUse">
<stop stop-color="#FE5E35"/>
<stop offset="0.55" stop-color="#F67702"/>
<stop offset="1" stop-color="#FFEF76"/>
</linearGradient>
</defs>
</svg>
