<svg width="40" height="40" viewBox="0 0 40 40" fill="none" xmlns="http://www.w3.org/2000/svg">
<g id="Group">
<path id="Vector" d="M24.8707 6.61865C30.6804 2.69916 35.5173 0.892305 37.2963 2.69916C40.0761 5.47894 34.4054 15.375 24.9541 24.9374C15.5028 34.4999 5.49562 40.0594 2.71584 37.2796C0.889527 35.4533 2.66025 30.4553 6.8605 24.5149" stroke="url(#paint0_linear_7288_45861)" stroke-width="3" stroke-linecap="round" stroke-linejoin="round"/>
<path id="Vector_2" d="M15.7246 33.1492C17.1254 33.6027 18.5887 33.8334 20.061 33.833C22.272 33.8345 24.4515 33.3084 26.4184 32.2986C28.3853 31.2888 30.0829 29.8243 31.3702 28.0267C32.6576 26.2292 33.4975 24.1504 33.8203 21.9631C34.1431 19.7758 33.9393 17.5431 33.2261 15.4503M8.94191 28.2734C6.9345 25.5969 5.95992 22.2861 6.19709 18.9488C6.43427 15.6115 7.86727 12.4718 10.233 10.1061C12.5988 7.74032 15.7385 6.30731 19.0758 6.07014C22.413 5.83297 25.7238 6.80755 28.4004 8.81496" stroke="url(#paint1_linear_7288_45861)" stroke-width="3" stroke-linecap="round" stroke-linejoin="round"/>
<path id="Union" fill-rule="evenodd" clip-rule="evenodd" d="M24.5536 17.0814C26.4417 15.9535 26.2678 14.7461 26.2678 14.7461C25.5623 15.7895 20.4147 18.2788 20.4147 18.2788L19.9128 19.7595C19.9138 19.7579 20.0498 19.6808 20.2816 19.5494L20.2819 19.5493C21.0958 19.0881 23.0891 17.9585 24.5536 17.0814ZM18.3263 19.7895C18.3263 19.7895 15.5736 18.2443 13.6855 17.1164C11.8954 16.0395 11.9641 14.8997 11.971 14.7855V14.7855V14.7855V14.7855V14.7855C11.9714 14.7795 11.9715 14.7764 11.9713 14.7761C12.6769 15.8196 17.8195 18.3089 17.8195 18.3089L18.3263 19.7895ZM19.9065 20.2813L23.2703 18.2441C23.2703 18.2441 27.3049 15.8243 27.603 14.8853C27.603 14.8853 27.5385 16.7386 26.023 17.777C24.5075 18.8155 20.5425 21.0365 20.5425 21.0365L19.1314 24.7133V24.8326L19.1066 24.773L19.0966 24.7978V24.7432L17.6855 21.0663C17.6855 21.0663 13.7155 18.8503 12.205 17.8069C10.6946 16.7634 10.625 14.9151 10.625 14.9151C10.9281 15.8591 14.9627 18.2789 14.9627 18.2789L18.3265 20.316L19.1115 22.2489L19.9065 20.2813ZM19.1006 16.4504L20.1091 18.3085L19.1006 21.7017L18.092 18.3085L19.1006 16.4504ZM17.6235 21.5685L13.6192 19.1838C13.6192 19.1838 13.5546 21.6033 17.6235 21.5685ZM20.583 21.5685C24.6519 21.6033 24.5873 19.1838 24.5873 19.1838L20.583 21.5685Z" fill="url(#paint2_linear_7288_45861)"/>
</g>
<defs>
<linearGradient id="paint0_linear_7288_45861" x1="5.75521" y1="22.8086" x2="59.2077" y2="22.8797" gradientUnits="userSpaceOnUse">
<stop stop-color="#FE5E35"/>
<stop offset="0.55" stop-color="#F67702"/>
<stop offset="1" stop-color="#FFEF76"/>
</linearGradient>
<linearGradient id="paint1_linear_7288_45861" x1="9.06234" y1="22.1058" x2="50.345" y2="22.1607" gradientUnits="userSpaceOnUse">
<stop stop-color="#FE5E35"/>
<stop offset="0.55" stop-color="#F67702"/>
<stop offset="1" stop-color="#FFEF76"/>
</linearGradient>
<linearGradient id="paint2_linear_7288_45861" x1="12.3958" y1="20.5775" x2="37.6015" y2="20.6339" gradientUnits="userSpaceOnUse">
<stop stop-color="#FE5E35"/>
<stop offset="0.55" stop-color="#F67702"/>
<stop offset="1" stop-color="#FFEF76"/>
</linearGradient>
</defs>
</svg>
