<svg width="156" height="100" viewBox="0 0 156 100" fill="none" xmlns="http://www.w3.org/2000/svg">
<path d="M147.033 59.3696L147.035 59.3776L154.992 108.322C154.993 108.323 154.993 108.324 154.993 108.325C155.043 108.646 154.821 108.943 154.513 108.993L154.473 109C154.471 109 154.468 109 154.464 109L154.443 109L154.416 109H86.7105C86.3888 109 86.1267 108.734 86.1267 108.421L86.1268 108.394L86.1269 108.373C86.127 108.37 86.127 108.367 86.1271 108.365L86.1336 108.325L94.092 59.3776L94.0932 59.3696C94.1337 59.1069 94.3703 58.8947 94.6689 58.8947H146.458C146.756 58.8947 146.993 59.1069 147.033 59.3696ZM61.9065 59.3696L61.9078 59.3776L69.8657 108.322C69.8657 108.323 69.8658 108.323 69.8659 108.324C69.9183 108.657 69.7037 108.943 69.3899 108.993L69.347 108.999L69.3461 109C69.3435 109 69.3406 109 69.3374 109L69.3161 109L69.2892 109H1.58375C1.26211 109 1 108.734 1 108.421L1.00003 108.394L1.00021 108.373C1.00025 108.37 1.0003 108.367 1.00035 108.365L1.00684 108.325L8.96523 59.3776L8.96646 59.3696C9.007 59.1069 9.24352 58.8947 9.54211 58.8947H61.3308C61.6294 58.8947 61.866 59.1069 61.9065 59.3696ZM112.151 41.0979L112.108 41.1047L112.107 41.1049C112.105 41.105 112.102 41.105 112.099 41.1051L112.077 41.1052L112.051 41.1053H44.3451C44.0234 41.1053 43.7613 40.8396 43.7613 40.5263L43.7614 40.4996L43.7615 40.4784C43.7616 40.4753 43.7616 40.4726 43.7617 40.4701L43.7682 40.4302L51.7265 -8.51715L51.7266 -8.51714L51.7278 -8.52512C51.7683 -8.7878 52.0049 -9 52.3035 -9H104.092C104.391 -9 104.627 -8.7878 104.668 -8.52512L104.669 -8.51715L112.627 40.4273C112.627 40.4278 112.627 40.4283 112.627 40.4288C112.68 40.7619 112.465 41.0481 112.151 41.0979Z" stroke="url(#paint0_linear_5543_63136)" stroke-width="2"/>
<defs>
<linearGradient id="paint0_linear_5543_63136" x1="16.2705" y1="59.375" x2="247.869" y2="59.7756" gradientUnits="userSpaceOnUse">
<stop stop-color="#FE5E35"/>
<stop offset="0.55" stop-color="#F67702"/>
<stop offset="1" stop-color="#FFEF76"/>
</linearGradient>
</defs>
</svg>
