<svg width="615" height="457" viewBox="0 0 615 457" fill="none" xmlns="http://www.w3.org/2000/svg">
<path d="M0.5 409.664V41.5C0.5 30.7304 9.23045 22 20 22H221.216C226.653 22 231.867 19.8402 235.711 15.9957L245.496 6.21142C249.153 2.55446 254.113 0.5 259.284 0.5H372.716C377.887 0.5 382.847 2.55446 386.504 6.21142L396.289 15.9957C400.133 19.8402 405.347 22 410.784 22H554.945C559.984 22 564.828 23.9509 568.46 27.4438L608.516 65.9587C612.339 69.6351 614.5 74.7106 614.5 80.0149V425.213C614.5 430.673 612.211 435.882 608.19 439.575L595.9 450.862C592.302 454.167 587.595 456 582.71 456H441.284C436.113 456 431.153 453.946 427.496 450.289L416.711 439.504C412.867 435.66 407.653 433.5 402.216 433.5H252.784C247.347 433.5 242.133 435.66 238.289 439.504L227.504 450.289C223.847 453.946 218.887 456 213.716 456H54.8137C50.5063 456 46.3202 454.574 42.9088 451.944L8.0951 425.109C3.30561 421.417 0.5 415.712 0.5 409.664Z" fill="#292D32" fill-opacity="0.4" stroke="#262C33"/>
</svg>
