<svg width="36" height="36" viewBox="0 0 36 36" fill="none" xmlns="http://www.w3.org/2000/svg">
<g id="minus-sign-circle">
<g id="elements">
<circle id="Vector" cx="17.6664" cy="18.1708" r="14.7216" fill="#141414" stroke="#FCFC00" stroke-width="2.09559" stroke-linecap="round" stroke-linejoin="round"/>
</g>
<path id="Vector_2" d="M16.3858 19.1482C16.3273 19.0605 16.3451 18.983 16.3673 18.9087C16.434 18.6871 16.503 18.4663 16.5719 18.2448C16.6468 18.0036 16.7209 17.7625 16.798 17.523C16.8581 17.3359 16.8855 17.3171 17.0694 17.3178C18.8983 17.3186 20.7273 17.3186 22.5555 17.3218C22.6563 17.3218 22.7201 17.3014 22.7527 17.1832C22.8068 16.9867 22.8839 16.7972 22.9454 16.6031C23.0374 16.315 23.1271 16.0253 23.2138 15.7356C23.2694 15.5517 23.3169 15.3653 23.371 15.1806C23.394 15.1007 23.4273 15.0248 23.4496 14.9449C23.4948 14.7821 23.4459 14.7171 23.2842 14.7171C18.6433 14.7171 14.0031 14.7171 9.36212 14.7187C9.2435 14.7187 9.12488 14.7359 9.00107 14.7453C8.99144 14.6568 9.04852 14.6193 9.09671 14.5809C9.58675 14.1965 10.0783 13.8129 10.5691 13.4293C10.9309 13.1474 11.2919 12.8648 11.6544 12.5846C11.7278 12.5282 11.8086 12.5008 11.9043 12.5008C15.9002 12.5039 19.8962 12.5055 23.8922 12.5C24.0909 12.5 24.2428 12.5595 24.3956 12.6816C24.7959 13.0026 25.2029 13.3126 25.6077 13.6273C25.7048 13.7025 25.8034 13.7753 25.8998 13.8512C26.0065 13.9358 26.0214 14.025 25.9754 14.155C25.9042 14.3554 25.842 14.5598 25.776 14.7625C25.6892 15.0295 25.5995 15.2949 25.5165 15.5626C25.4542 15.7623 25.4009 15.965 25.3423 16.1662C25.2852 16.3604 25.2289 16.5553 25.1673 16.7479C25.1221 16.8896 25.0368 16.9945 24.9049 17.0618C24.575 17.2286 24.248 17.4016 23.9211 17.5738C23.5652 17.761 23.2109 17.9496 22.855 18.136C22.7431 18.1947 22.6267 18.2432 22.5147 18.3027C22.471 18.3262 22.4354 18.3669 22.3872 18.4061C22.4206 18.453 22.4391 18.4953 22.4702 18.5196C22.8661 18.8288 23.2635 19.1349 23.6601 19.4418C23.7943 19.5459 23.9255 19.6555 24.0656 19.7503C24.1761 19.8246 24.1902 19.9178 24.1531 20.036C24.0568 20.3468 23.9619 20.6584 23.867 20.97C23.775 21.2698 23.6846 21.5705 23.5919 21.8703C23.5118 22.1279 23.4288 22.3846 23.3473 22.6414C23.3124 22.751 23.2865 22.8653 23.239 22.9687C23.2116 23.029 23.1582 23.09 23.1019 23.1206C22.7675 23.3037 22.4287 23.4791 22.0906 23.6545C21.631 23.8933 21.1669 24.1234 20.711 24.3708C20.5412 24.4624 20.3722 24.5008 20.1846 24.5C16.9285 24.4976 13.6724 24.4984 10.4171 24.4984C10.3644 24.4984 10.3111 24.4984 10.2584 24.4984C10.0568 24.4961 10.0279 24.4436 10.0924 24.2479C10.1613 24.0389 10.2132 23.8244 10.2755 23.613C10.3192 23.465 10.3682 23.3194 10.4134 23.1722C10.4823 22.946 10.5483 22.7182 10.618 22.4919C10.6603 22.3557 10.7114 22.2218 10.7522 22.0848C10.807 21.9008 10.8545 21.7145 10.9064 21.529C10.942 21.4021 10.9776 21.2753 11.0161 21.1493C11.0814 20.9332 11.1488 20.7171 11.2148 20.501C11.2615 20.3484 11.3075 20.1949 11.3549 20.0423C11.4261 19.8121 11.498 19.5819 11.5692 19.3518C11.6389 19.1263 11.71 18.9016 11.7768 18.6754C11.8309 18.4906 11.8783 18.3035 11.9295 18.1172C11.9636 17.995 11.9992 17.8729 12.0362 17.7516C12.1445 17.393 12.252 17.0344 12.3624 16.6774C12.4499 16.3948 12.5463 16.1146 12.6323 15.8319C12.6783 15.6801 12.7131 15.5235 12.7509 15.3685C12.7872 15.2182 12.851 15.1978 12.9726 15.2941C13.4085 15.637 13.8459 15.9783 14.2826 16.3212C14.379 16.3972 14.4746 16.4747 14.5702 16.5522C14.6733 16.6352 14.6733 16.6673 14.6288 16.7996C14.5665 16.982 14.5176 17.1691 14.462 17.3539C14.4079 17.5324 14.3508 17.7101 14.2974 17.8893C14.2507 18.0475 14.2099 18.208 14.1617 18.3653C14.1172 18.5133 14.0661 18.6581 14.0201 18.8053C13.9556 19.0104 13.8941 19.2163 13.8311 19.4214C13.7458 19.7001 13.6583 19.9789 13.5746 20.2583C13.5256 20.4212 13.4841 20.5864 13.4359 20.7492C13.3937 20.8917 13.347 21.0326 13.3032 21.1743C13.2313 21.406 13.1601 21.6378 13.089 21.8703C13.066 21.9439 13.0349 22.0159 13.0245 22.0918C13.0126 22.178 13.0482 22.2124 13.1312 22.2226C13.1572 22.2257 13.1839 22.2226 13.2106 22.2226C15.8217 22.2226 18.4327 22.2226 21.0438 22.2234C21.1803 22.2234 21.2388 22.1834 21.2714 22.0668C21.3196 21.8969 21.3663 21.7255 21.4175 21.5564C21.4827 21.3411 21.5509 21.1258 21.6184 20.9113C21.7437 20.5128 21.8705 20.1151 21.995 19.7158C22.0343 19.5898 22.0677 19.4622 22.1062 19.3353C22.1514 19.1842 22.127 19.1474 21.9705 19.1474C21.373 19.1474 20.7762 19.1474 20.1787 19.1474C18.9732 19.1474 17.7685 19.1474 16.563 19.1474C16.5007 19.1474 16.4377 19.1474 16.3851 19.1474L16.3858 19.1482Z" fill="#FCFC00"/>
</g>
</svg>
