<svg width="58" height="20" viewBox="0 0 58 20" fill="none" xmlns="http://www.w3.org/2000/svg">
<g opacity="0.4" filter="url(#filter0_bf_8777_84385)">
<path d="M45.7569 11.9189C36.4128 2.57479 21.263 2.57479 11.9189 11.9189C2.57483 21.263 2.57483 36.4127 11.9189 45.7568C21.263 55.1009 36.4128 55.1009 45.7569 45.7568C55.1009 36.4127 55.1009 21.263 45.7569 11.9189Z" fill="url(#paint0_linear_8777_84385)" fill-opacity="0.5"/>
<path d="M45.4033 12.2724C36.2545 3.1236 21.4213 3.1236 12.2725 12.2724C3.12365 21.4213 3.12365 36.2544 12.2725 45.4033C21.4213 54.5521 36.2545 54.5521 45.4033 45.4033C54.5521 36.2544 54.5521 21.4213 45.4033 12.2724Z" stroke="url(#paint1_linear_8777_84385)"/>
</g>
<defs>
<filter id="filter0_bf_8777_84385" x="-92.1894" y="-92.1889" width="242.054" height="242.054" filterUnits="userSpaceOnUse" color-interpolation-filters="sRGB">
<feFlood flood-opacity="0" result="BackgroundImageFix"/>
<feGaussianBlur in="BackgroundImageFix" stdDeviation="48.55"/>
<feComposite in2="SourceAlpha" operator="in" result="effect1_backgroundBlur_8777_84385"/>
<feBlend mode="normal" in="SourceGraphic" in2="effect1_backgroundBlur_8777_84385" result="shape"/>
<feGaussianBlur stdDeviation="2.15" result="effect2_foregroundBlur_8777_84385"/>
</filter>
<linearGradient id="paint0_linear_8777_84385" x1="26.6398" y1="42.2585" x2="43.4444" y2="10.1517" gradientUnits="userSpaceOnUse">
<stop stop-color="#131517"/>
<stop offset="1" stop-color="#7B8A98"/>
</linearGradient>
<linearGradient id="paint1_linear_8777_84385" x1="47.0381" y1="9.00125" x2="3.56614" y2="44.0593" gradientUnits="userSpaceOnUse">
<stop stop-color="#262C33"/>
<stop offset="1" stop-color="#718599" stop-opacity="0"/>
</linearGradient>
</defs>
</svg>
