<svg width="24" height="24" viewBox="0 0 24 24" fill="none" xmlns="http://www.w3.org/2000/svg">
<g id="fluent:arrow-next-12-filled">
<path id="Vector" d="M17.44 4.94006C17.7243 4.6751 18.1004 4.53085 18.489 4.53771C18.8776 4.54457 19.2484 4.70199 19.5232 4.97682C19.7981 5.25164 19.9555 5.62241 19.9623 6.01101C19.9692 6.39962 19.825 6.77571 19.56 7.06006L13.06 13.5601C12.7787 13.841 12.3975 13.9987 12 13.9987C11.6025 13.9987 11.2213 13.841 10.94 13.5601L4.44 7.06006C4.17504 6.77571 4.03079 6.39962 4.03765 6.01101C4.04451 5.62241 4.20193 5.25164 4.47676 4.97682C4.75158 4.70199 5.12235 4.54457 5.51096 4.53771C5.89956 4.53085 6.27565 4.6751 6.56 4.94006L12 10.3801L17.44 4.94006ZM4 19.5001C4 19.8979 4.15804 20.2794 4.43934 20.5607C4.72064 20.842 5.10217 21.0001 5.5 21.0001L18.5 21.0001C18.8978 21.0001 19.2794 20.842 19.5607 20.5607C19.842 20.2794 20 19.8979 20 19.5001C20 19.1022 19.842 18.7207 19.5607 18.4394C19.2794 18.1581 18.8978 18.0001 18.5 18.0001L5.5 18.0001C4.672 18.0001 4 18.6721 4 19.5001Z" fill="white"/>
</g>
</svg>
