<svg width="123" height="123" viewBox="0 0 123 123" fill="none" xmlns="http://www.w3.org/2000/svg">
<g clip-path="url(#clip0_2313_607)">
<path d="M48.7806 40.6109L48.7813 40.6113L81.5596 60.2829C81.7691 60.4094 81.9425 60.588 82.0628 60.8012C82.1832 61.0145 82.2464 61.2552 82.2464 61.5C82.2464 61.7448 82.1832 61.9855 82.0628 62.1988C81.9425 62.412 81.7692 62.5905 81.5596 62.7171L48.7813 82.3887L48.7806 82.3891C48.5649 82.5191 48.3186 82.5894 48.0669 82.5929C47.8152 82.5965 47.567 82.5331 47.3478 82.4093C47.1285 82.2855 46.9461 82.1058 46.8191 81.8884C46.6921 81.671 46.6251 81.4238 46.625 81.172L46.625 41.8354L46.625 41.8337C46.6241 41.5814 46.6904 41.3335 46.817 41.1153C46.9435 40.8971 47.1259 40.7165 47.3453 40.5921C47.5647 40.4676 47.8132 40.4038 48.0655 40.4071C48.3177 40.4104 48.5645 40.4807 48.7806 40.6109ZM61.5 0.5C77.6782 0.5 93.1938 6.92677 104.634 18.3665C116.073 29.8062 122.5 45.3218 122.5 61.5C122.5 77.6782 116.073 93.1938 104.634 104.634C93.1938 116.073 77.6782 122.5 61.5 122.5C45.3218 122.5 29.8062 116.073 18.3665 104.634C6.92677 93.1938 0.5 77.6782 0.5 61.5C0.5 45.3218 6.92677 29.8062 18.3665 18.3665C29.8062 6.92677 45.3218 0.5 61.5 0.5ZM11.0312 61.5C11.0312 74.8851 16.3485 87.7221 25.8132 97.1868C35.2779 106.652 48.1149 111.969 61.5 111.969C74.8851 111.969 87.7221 106.652 97.1868 97.1868C106.652 87.7221 111.969 74.8851 111.969 61.5C111.969 48.1149 106.652 35.2779 97.1868 25.8132C87.7221 16.3485 74.8851 11.0312 61.5 11.0312C48.1149 11.0312 35.2779 16.3485 25.8132 25.8132C16.3485 35.2779 11.0312 48.1149 11.0312 61.5Z" fill="url(#paint0_linear_2313_607)" stroke="url(#paint1_linear_2313_607)"/>
</g>
<defs>
<linearGradient id="paint0_linear_2313_607" x1="19.5" y1="-11" x2="123" y2="127.5" gradientUnits="userSpaceOnUse">
<stop stop-color="#131517"/>
<stop offset="1" stop-color="#515D69"/>
</linearGradient>
<linearGradient id="paint1_linear_2313_607" x1="61.5" y1="0" x2="61.5" y2="123" gradientUnits="userSpaceOnUse">
<stop stop-color="#262C33"/>
<stop offset="1" stop-color="#718599" stop-opacity="0"/>
</linearGradient>
<clipPath id="clip0_2313_607">
<rect width="123" height="123" fill="white"/>
</clipPath>
</defs>
</svg>
