<svg width="172" height="50" viewBox="0 0 172 50" fill="none" xmlns="http://www.w3.org/2000/svg">
<path d="M62.3233 24.1586V21.6277H68.3342C70.1676 21.6277 71.2569 20.4737 71.2569 18.7877C71.2569 17.1016 70.164 15.9656 68.3342 15.9656H60.4071V28.3181H57.8115V13.3484H68.3342C71.7926 13.3484 73.8094 15.4263 73.8094 18.7014C73.8094 21.9764 71.7926 24.1586 68.3342 24.1586H62.3233Z" fill="white"/>
<path d="M89.1097 28.3145L86.8664 24.5469H79.7842L81.0209 22.4258H85.6117L82.2755 16.8248L75.4809 28.3145H72.4971L81.1036 13.9847C81.4127 13.4706 81.8046 13.1399 82.3798 13.1399C82.955 13.1399 83.3289 13.4706 83.6345 13.9847L92.2625 28.3145H89.1133H89.1097Z" fill="white"/>
<path d="M93.8662 28.3144V13.3447H96.4798V25.6972H106.549V28.3108H93.8662V28.3144Z" fill="white"/>
<path d="M124.032 28.3145L121.789 24.5469H114.706L115.943 22.4258H120.534L117.198 16.8248L110.403 28.3145H107.416L116.022 13.9847C116.331 13.4706 116.723 13.1399 117.298 13.1399C117.874 13.1399 118.248 13.4706 118.557 13.9847L127.185 28.3145H124.036H124.032Z" fill="white"/>
<path d="M137.456 25.7008C140.152 25.7008 142.129 23.6229 142.129 20.8008C142.129 17.9787 140.152 15.9619 137.456 15.9619H131.38V25.7008H137.456ZM128.788 28.3144V13.3447H137.456C141.676 13.3447 144.743 16.3286 144.743 20.675C144.743 25.0214 141.676 28.3144 137.456 28.3144H128.788Z" fill="white"/>
<path d="M149.643 13.3484H147.029V28.3181H149.643V13.3484Z" fill="white"/>
<path d="M154.812 17.3604V28.3144H152.321V14.7252C152.321 13.7582 152.835 13.1614 153.658 13.1614C154.05 13.1614 154.377 13.3052 154.769 13.697L165.331 24.1765V13.2225H167.823V26.9375C167.823 27.9261 167.287 28.5013 166.525 28.5013C166.094 28.5013 165.702 28.3144 165.331 27.9441L154.809 17.3604H154.812Z" fill="white"/>
<path d="M59.361 37.2443H60.3208C60.5509 37.2443 60.7379 37.1868 60.8745 37.0753C61.0111 36.9639 61.0794 36.8021 61.0794 36.5936V36.5289C61.0794 36.3204 61.0111 36.1622 60.8781 36.0471C60.7451 35.9357 60.5581 35.8782 60.3208 35.8782H59.361V37.2443ZM59.361 35.0909H60.3137C60.5366 35.0909 60.7127 35.0369 60.8529 34.9255C60.9895 34.814 61.0578 34.6595 61.0578 34.4617V34.3898C61.0578 34.1921 60.9895 34.0375 60.8529 33.9261C60.7163 33.8146 60.5366 33.7607 60.3137 33.7607H59.361V35.0909ZM57.8151 38.0316V37.2658H58.4946V33.7391H57.8151V32.9734H60.3999C60.7019 32.9734 60.9715 33.0237 61.198 33.128C61.4281 33.2322 61.6043 33.3796 61.7337 33.5702C61.8631 33.7607 61.9242 33.9872 61.9242 34.2532V34.3179C61.9242 34.548 61.8811 34.7385 61.7948 34.8895C61.7085 35.0405 61.6043 35.1556 61.4856 35.2347C61.367 35.3137 61.2484 35.3749 61.1405 35.4072V35.5294C61.252 35.5582 61.3706 35.6121 61.4964 35.6912C61.6258 35.7703 61.7337 35.8854 61.82 36.0363C61.9099 36.1873 61.953 36.3851 61.953 36.6259V36.6978C61.953 36.971 61.8883 37.2083 61.7553 37.4096C61.6222 37.611 61.4425 37.762 61.2124 37.8698C60.9823 37.9777 60.7199 38.028 60.4215 38.028H57.8115L57.8151 38.0316Z" fill="white"/>
<path d="M64.5774 38.0316V32.9734H65.451V37.2443H67.8201V38.0316H64.5774Z" fill="white"/>
<path d="M72.0765 37.3524C72.454 37.3524 72.7452 37.2445 72.9537 37.0252C73.1622 36.8059 73.2665 36.5075 73.2665 36.1337V34.8754C73.2665 34.5015 73.1622 34.2031 72.9537 33.9838C72.7452 33.7645 72.4504 33.6567 72.0765 33.6567C71.7027 33.6567 71.4151 33.7681 71.2066 33.9838C70.998 34.2031 70.8938 34.5015 70.8938 34.8754V36.1337C70.8938 36.5111 70.998 36.8059 71.2066 37.0252C71.4151 37.2445 71.7063 37.3524 72.0765 37.3524ZM72.0765 38.1325C71.451 38.1325 70.9513 37.9563 70.5774 37.6076C70.2035 37.2589 70.0166 36.7556 70.0166 36.1013V34.9006C70.0166 34.2463 70.2035 33.743 70.5774 33.3943C70.9513 33.0455 71.451 32.8694 72.0765 32.8694C72.7021 32.8694 73.209 33.0455 73.5793 33.3943C73.9496 33.743 74.1365 34.2463 74.1365 34.9006V36.1013C74.1365 36.7556 73.9496 37.2589 73.5793 37.6076C73.209 37.9563 72.7093 38.1325 72.0765 38.1325Z" fill="white"/>
<path d="M78.713 38.1325C78.0982 38.1325 77.6057 37.9563 77.239 37.6076C76.8723 37.2589 76.689 36.7556 76.689 36.1013V34.9006C76.689 34.2463 76.8723 33.743 77.239 33.3943C77.6057 33.0455 78.0946 32.8694 78.713 32.8694C79.3313 32.8694 79.8059 33.0384 80.1402 33.3763C80.4745 33.7142 80.6435 34.1744 80.6435 34.764V34.8071H79.7915V34.7424C79.7915 34.426 79.7052 34.1636 79.529 33.9587C79.3529 33.7538 79.0832 33.6531 78.7166 33.6531C78.3499 33.6531 78.0802 33.7645 77.8753 33.9803C77.6704 34.1995 77.5697 34.5015 77.5697 34.8862V36.1157C77.5697 36.4968 77.674 36.7987 77.8753 37.018C78.0766 37.2373 78.3606 37.3488 78.7166 37.3488C79.0725 37.3488 79.3529 37.2445 79.529 37.0396C79.7052 36.8347 79.7915 36.5723 79.7915 36.2559V36.1337H80.6435V36.2343C80.6435 36.8203 80.4745 37.2841 80.1402 37.622C79.8059 37.9599 79.3313 38.1289 78.713 38.1289" fill="white"/>
<path d="M83.2643 38.0316V32.9734H84.1379V35.0333H84.2602L86.0217 32.9734H87.1398L84.936 35.4647L87.2117 38.028H86.0613L84.2566 35.9249H84.1343V38.028H83.2607L83.2643 38.0316Z" fill="white"/>
<path d="M91.2489 38.1325C90.6305 38.1325 90.1416 37.9563 89.7749 37.6076C89.4082 37.2589 89.2249 36.7556 89.2249 36.1013V34.9006C89.2249 34.2463 89.4082 33.743 89.7749 33.3943C90.1416 33.0455 90.6305 32.8694 91.2489 32.8694C91.8672 32.8694 92.3417 33.0384 92.6761 33.3763C93.0104 33.7142 93.1794 34.1744 93.1794 34.764V34.8071H92.3274V34.7424C92.3274 34.426 92.2411 34.1636 92.0649 33.9587C91.8888 33.7538 91.6191 33.6531 91.2524 33.6531C90.8857 33.6531 90.6161 33.7645 90.4112 33.9803C90.2063 34.1995 90.1056 34.5015 90.1056 34.8862V36.1157C90.1056 36.4968 90.2099 36.7987 90.4112 37.018C90.6161 37.2409 90.8965 37.3488 91.2524 37.3488C91.6083 37.3488 91.8888 37.2445 92.0649 37.0396C92.2411 36.8347 92.3274 36.5723 92.3274 36.2559V36.1337H93.1794V36.2343C93.1794 36.8203 93.014 37.2841 92.6761 37.622C92.3417 37.9599 91.8672 38.1289 91.2489 38.1289" fill="white"/>
<path d="M95.8 38.0316V32.9734H96.6736V35.098H98.6689V32.9734H99.5425V38.0316H98.6689V35.8925H96.6736V38.0316H95.8Z" fill="white"/>
<path d="M103.393 36.0795H104.874L104.194 33.5162H104.072L103.393 36.0795ZM101.991 38.0316L103.378 32.9734H104.888L106.276 38.0316H105.381L105.079 36.874H103.191L102.889 38.0316H101.994H101.991Z" fill="white"/>
<path d="M109.598 32.9734H108.724V38.0316H109.598V32.9734Z" fill="white"/>
<path d="M112.402 38.0316V32.9734H114.063L115.257 37.4456H115.372V32.9734H116.231V38.0316H114.577L113.387 33.5594H113.265V38.0316H112.406H112.402Z" fill="white"/>
<path d="M124.42 38.1323C124.035 38.1323 123.694 38.064 123.399 37.9274C123.104 37.7908 122.871 37.5895 122.702 37.3306C122.533 37.0718 122.45 36.7518 122.45 36.3779V36.191H123.309V36.3779C123.309 36.7087 123.41 36.9568 123.611 37.1221C123.812 37.2875 124.082 37.3666 124.42 37.3666C124.758 37.3666 125.02 37.2983 125.193 37.1581C125.366 37.0179 125.452 36.8381 125.452 36.6152C125.452 36.4642 125.412 36.3456 125.33 36.2485C125.247 36.1551 125.128 36.0796 124.974 36.022C124.815 35.9645 124.629 35.9106 124.406 35.8567L124.19 35.8135C123.859 35.738 123.572 35.6374 123.327 35.5223C123.083 35.4037 122.896 35.2527 122.766 35.0622C122.637 34.8752 122.572 34.6272 122.572 34.3252C122.572 34.0232 122.644 33.7608 122.788 33.5451C122.932 33.3294 123.137 33.1604 123.403 33.0454C123.669 32.9303 123.978 32.8728 124.334 32.8728C124.69 32.8728 125.006 32.9339 125.286 33.0526C125.567 33.1712 125.786 33.3545 125.948 33.5954C126.11 33.8363 126.189 34.1383 126.189 34.4978V34.735H125.33V34.4978C125.33 34.2892 125.29 34.1239 125.207 33.998C125.125 33.8722 125.01 33.7823 124.862 33.7248C124.711 33.6673 124.539 33.6385 124.334 33.6385C124.035 33.6385 123.809 33.6961 123.654 33.8111C123.5 33.9261 123.424 34.0915 123.424 34.3036C123.424 34.4366 123.46 34.5517 123.528 34.6451C123.597 34.7386 123.701 34.8177 123.838 34.8752C123.974 34.9363 124.147 34.9867 124.355 35.0298L124.571 35.0801C124.916 35.1556 125.222 35.2527 125.481 35.3713C125.739 35.49 125.944 35.6446 126.092 35.8387C126.239 36.0328 126.311 36.2809 126.311 36.5901C126.311 36.8992 126.232 37.1617 126.077 37.3917C125.919 37.6218 125.7 37.8052 125.419 37.9346C125.139 38.064 124.805 38.1287 124.42 38.1287" fill="white"/>
<path d="M128.878 38.0316V32.9734H132.099V33.7607H129.752V35.0909H131.898V35.8782H129.752V37.2443H132.135V38.0316H128.878Z" fill="white"/>
<path d="M136.6 38.1325C135.985 38.1325 135.493 37.9563 135.126 37.6076C134.76 37.2589 134.576 36.7556 134.576 36.1013V34.9006C134.576 34.2463 134.76 33.743 135.126 33.3943C135.493 33.0455 135.982 32.8694 136.6 32.8694C137.219 32.8694 137.693 33.0384 138.027 33.3763C138.362 33.7142 138.531 34.1744 138.531 34.764V34.8071H137.679V34.7424C137.679 34.426 137.592 34.1636 137.416 33.9587C137.24 33.7538 136.97 33.6531 136.604 33.6531C136.237 33.6531 135.967 33.7645 135.763 33.9803C135.558 34.1995 135.457 34.5015 135.457 34.8862V36.1157C135.457 36.4968 135.561 36.7987 135.763 37.018C135.964 37.2373 136.248 37.3488 136.604 37.3488C136.96 37.3488 137.24 37.2445 137.416 37.0396C137.592 36.8347 137.679 36.5723 137.679 36.2559V36.1337H138.531V36.2343C138.531 36.8203 138.365 37.2841 138.027 37.622C137.693 37.9599 137.219 38.1289 136.6 38.1289" fill="white"/>
<path d="M143.075 38.1323C142.672 38.1323 142.323 38.0604 142.032 37.913C141.741 37.7656 141.518 37.5535 141.36 37.2731C141.202 36.9927 141.126 36.662 141.126 36.2773V32.9771H141.993V36.2989C141.993 36.6368 142.086 36.8956 142.273 37.079C142.46 37.2623 142.73 37.3522 143.075 37.3522C143.42 37.3522 143.697 37.2623 143.88 37.079C144.067 36.8956 144.157 36.6368 144.157 36.2989V32.9771H145.023V36.2773C145.023 36.662 144.948 36.9963 144.793 37.2731C144.639 37.5535 144.416 37.7656 144.121 37.913C143.826 38.0604 143.477 38.1323 143.075 38.1323Z" fill="white"/>
<path d="M148.679 35.2922H149.88C150.132 35.2922 150.326 35.2239 150.47 35.0944C150.613 34.9614 150.682 34.7853 150.682 34.5624V34.4977C150.682 34.2712 150.613 34.0914 150.473 33.9584C150.333 33.8254 150.135 33.7607 149.88 33.7607H148.679V35.2922ZM147.806 38.0316V32.9734H149.966C150.283 32.9734 150.559 33.0273 150.797 33.1388C151.034 33.2502 151.217 33.4048 151.35 33.6061C151.483 33.8074 151.548 34.0447 151.548 34.3251V34.4042C151.548 34.717 151.473 34.9686 151.325 35.1556C151.174 35.3425 150.994 35.4791 150.782 35.569V35.684C150.969 35.6948 151.117 35.7595 151.225 35.8782C151.332 35.9968 151.386 36.1586 151.386 36.3635V38.0316H150.52V36.4857C150.52 36.3635 150.488 36.2664 150.423 36.1945C150.358 36.119 150.254 36.0831 150.11 36.0831H148.679V38.0352H147.806V38.0316Z" fill="white"/>
<path d="M155.054 32.9734H154.18V38.0316H155.054V32.9734Z" fill="white"/>
<path d="M159.047 38.0316V33.7607H157.537V32.9734H161.424V33.7607H159.914V38.0316H159.047Z" fill="white"/>
<path d="M165.217 38.0317V36.2485L163.477 32.9771H164.451L165.594 35.2096H165.716L166.859 32.9771H167.827L166.087 36.2485V38.0317H165.22H165.217Z" fill="white"/>
<path d="M35.2024 17.8635V25.4311C35.2024 27.5018 34.5122 29.6229 33.2611 31.4024C32.1395 32.9986 30.6152 34.2748 28.7206 35.2023C29.5546 35.551 30.6835 35.9824 31.1293 36.1478C32.6392 35.1808 33.901 33.98 34.904 32.5564C36.3924 30.4425 37.212 27.9116 37.212 25.4311V18.1835C36.6404 18.0828 35.9646 17.9714 35.206 17.8635M27.7499 35.6337C25.3988 34.6846 23.5474 33.2646 22.2388 31.4024C20.9841 29.6229 20.2939 27.5018 20.2939 25.4311V20.815C19.6468 20.9121 18.2878 21.1674 18.2878 21.1674V25.4311C18.2878 27.908 19.1075 30.4389 20.5958 32.5564C22.2711 34.9399 24.6762 36.6943 27.7499 37.7764C28.6595 37.4564 29.5115 37.0753 30.3024 36.6367C30.2557 36.6188 28.7278 36.0472 27.7499 35.6337ZM27.7499 17.2883C24.0507 17.2883 20.4269 17.806 18.2914 18.1799V20.2398C18.2914 20.2398 19.6468 19.9846 20.2975 19.8875C22.4005 19.5748 25.0573 19.2944 27.7535 19.2944C30.0687 19.2944 32.3516 19.5029 34.2821 19.7617V17.7413C32.3695 17.4968 30.0759 17.2919 27.7535 17.2919" fill="white"/>
<path d="M29.0872 3.9654C29.0657 4.28895 29.2706 4.5406 29.5941 4.58733C29.8925 4.6089 30.1693 4.37883 30.1909 4.08044C30.2125 3.75689 30.0075 3.48366 29.684 3.4585H29.6373C29.3389 3.4585 29.1088 3.68858 29.0872 3.9654ZM25.8014 3.4585C25.503 3.48007 25.2729 3.75689 25.2945 4.08044C25.316 4.37883 25.5929 4.6089 25.9164 4.58733C26.2148 4.5406 26.4449 4.28895 26.4233 3.9654C26.4017 3.68858 26.1465 3.4585 25.8481 3.4585H25.8014ZM32.8332 4.537C32.7398 4.83539 32.9267 5.13378 33.2251 5.20208C33.5235 5.29555 33.8219 5.10861 33.9153 4.81023C33.9836 4.51184 33.8003 4.21345 33.5019 4.11998H33.3653C33.1136 4.11998 32.8836 4.28176 32.8368 4.53341L32.8332 4.537ZM21.9835 4.12358C21.6851 4.21705 21.5017 4.51543 21.5916 4.81382C21.6599 5.11221 21.9835 5.29555 22.2818 5.20568C22.5802 5.13737 22.742 4.83899 22.6737 4.5406C22.6054 4.28895 22.3753 4.12717 22.1237 4.12717H21.9871L21.9835 4.12358ZM27.0165 5.61911C27.0165 6.01097 27.34 6.35608 27.7535 6.35608C28.1453 6.35608 28.4904 6.01097 28.4904 5.61911C28.4904 5.20568 28.1453 4.88213 27.7535 4.88213C27.34 4.88213 27.0165 5.20568 27.0165 5.61911ZM30.5108 5.78088C30.4425 6.19431 30.6942 6.561 31.0861 6.6329C31.4995 6.70121 31.8662 6.44956 31.9381 6.0577C32.0064 5.64427 31.7547 5.27758 31.3629 5.20568C31.3161 5.18411 31.2694 5.18411 31.2263 5.18411C30.8811 5.18411 30.5612 5.43576 30.5144 5.78088H30.5108ZM24.1441 5.20568C23.7522 5.27398 23.479 5.64068 23.5473 6.0577C23.6156 6.44956 24.0075 6.70121 24.3993 6.6329C24.7912 6.5646 25.0644 6.19791 24.9961 5.78088C24.9278 5.43576 24.6294 5.18411 24.2843 5.18411C24.2375 5.18411 24.1908 5.18411 24.1477 5.20568H24.1441ZM36.4175 5.73415C36.2809 6.01096 36.3959 6.35609 36.6691 6.47113C36.9675 6.60774 37.2911 6.4927 37.4277 6.21948C37.5427 5.92109 37.4277 5.59754 37.1509 5.46093C37.0825 5.43936 36.9891 5.41419 36.9208 5.41419C36.7123 5.41419 36.5073 5.52923 36.4139 5.73774L36.4175 5.73415ZM18.3273 5.45733C18.0505 5.59394 17.9355 5.91749 18.0757 6.21588C18.1907 6.49269 18.5358 6.60774 18.8126 6.46753C19.0895 6.35249 19.2045 6.00737 19.0895 5.73055C18.996 5.52204 18.7911 5.407 18.5826 5.407C18.4891 5.407 18.4208 5.42857 18.3309 5.45373L18.3273 5.45733ZM33.9117 6.561C33.7751 6.95286 33.9585 7.36629 34.3467 7.5029C34.7134 7.63951 35.152 7.45616 35.2886 7.0679C35.4252 6.70121 35.2203 6.26261 34.8536 6.126C34.7602 6.10443 34.6703 6.07927 34.602 6.07927C34.3036 6.07927 34.0052 6.26262 33.9117 6.561ZM20.6497 6.126C20.2578 6.26261 20.0745 6.70121 20.2147 7.0679C20.3513 7.45976 20.7647 7.6431 21.1566 7.5029C21.5233 7.36629 21.7318 6.95286 21.5916 6.561C21.4766 6.26262 21.1997 6.07927 20.9014 6.07927C20.8079 6.07927 20.7396 6.10084 20.6497 6.126ZM28.4869 7.36629C28.4401 7.84802 28.7852 8.26145 29.267 8.30818C29.7271 8.35492 30.1406 7.98463 30.1873 7.52806C30.234 7.04633 29.8889 6.63291 29.4072 6.58617H29.3389C28.9039 6.58617 28.512 6.93129 28.4869 7.36629ZM26.0746 6.58617C25.6144 6.63291 25.2693 7.04633 25.2945 7.52806C25.3412 7.98823 25.7546 8.35492 26.2364 8.30818C26.6965 8.26145 27.0416 7.84802 27.0165 7.36629C26.9697 6.93129 26.6031 6.58617 26.1645 6.58617H26.071H26.0746ZM31.6361 7.77971C31.521 8.23988 31.7979 8.70004 32.258 8.83665C32.7182 8.95169 33.1784 8.67488 33.2934 8.21471C33.43 7.75455 33.1568 7.29439 32.6966 7.17935C32.6283 7.15778 32.5348 7.13261 32.4665 7.13261C32.0998 7.13261 31.7547 7.38426 31.6397 7.77612L31.6361 7.77971ZM22.7887 7.18294C22.3537 7.29798 22.0769 7.75814 22.192 8.21831C22.307 8.67847 22.7887 8.95529 23.2489 8.84024C23.7091 8.70363 23.9859 8.24347 23.8457 7.78331C23.7522 7.39145 23.4107 7.1398 23.0188 7.1398C22.9505 7.1398 22.8822 7.16137 22.7887 7.18654V7.18294ZM39.7285 7.54963C39.5667 7.80128 39.6134 8.14641 39.8651 8.30818C40.1167 8.49153 40.4619 8.42322 40.6452 8.17157C40.8286 7.91992 40.7603 7.5748 40.5086 7.41302C40.4151 7.34472 40.3001 7.29798 40.1851 7.29798C40.0233 7.29798 39.8399 7.39145 39.7249 7.54963H39.7285ZM14.9732 7.41302C14.7215 7.5748 14.6748 7.91992 14.8365 8.17157C15.0199 8.42322 15.365 8.49512 15.6167 8.30818C15.8683 8.14641 15.9402 7.80128 15.7533 7.54963C15.6382 7.38786 15.4765 7.29798 15.2931 7.29798C15.1781 7.29798 15.0846 7.34472 14.9696 7.41302H14.9732ZM37.1293 7.94149C36.9208 8.28661 37.0358 8.72161 37.3809 8.93012C37.7476 9.13863 38.1862 9.02359 38.3911 8.65331C38.5996 8.30819 38.4594 7.87319 38.1143 7.66468C37.9993 7.59637 37.8842 7.5712 37.7476 7.5712C37.496 7.5712 37.2659 7.68624 37.1257 7.9379L37.1293 7.94149ZM17.3639 7.66468C17.0187 7.87319 16.9037 8.30819 17.1122 8.65331C17.2955 9.02 17.7557 9.13504 18.1008 8.93012C18.446 8.72161 18.5826 8.28661 18.3776 7.94149C18.241 7.68984 17.9858 7.5748 17.7341 7.5748C17.6191 7.5748 17.4825 7.59637 17.3674 7.66827L17.3639 7.66468ZM34.6955 8.72161C34.4869 9.15661 34.6739 9.66351 35.1089 9.87202C35.5223 10.0554 36.0508 9.87202 36.2341 9.45859C36.4426 9.02359 36.2557 8.51669 35.8207 8.30818C35.7057 8.26145 35.5906 8.23988 35.454 8.23988C35.1304 8.23988 34.8321 8.42322 34.6955 8.72161ZM19.6647 8.30818C19.2512 8.51669 19.0427 9.02 19.2512 9.45859C19.4598 9.87202 19.9631 10.0554 20.4016 9.87202C20.8151 9.66351 21.0236 9.1602 20.8151 8.72161C20.6785 8.42322 20.3549 8.23988 20.035 8.23988C19.9199 8.23988 19.7833 8.26145 19.6683 8.30818H19.6647ZM26.7433 9.22851C26.7433 9.80371 27.2034 10.2387 27.7535 10.2387C28.3035 10.2387 28.7421 9.80371 28.7421 9.22851C28.7421 8.6533 28.3071 8.23988 27.7535 8.23988C27.1998 8.23988 26.7433 8.67487 26.7433 9.22851ZM29.6157 9.32198C29.5006 9.85044 29.8673 10.3789 30.421 10.4724C30.971 10.5659 31.4779 10.2207 31.593 9.6671C31.6864 9.11706 31.3161 8.61017 30.7661 8.49513H30.6043C30.1226 8.49513 29.684 8.84024 29.6157 9.32198ZM24.7193 8.49513C24.1908 8.61017 23.8241 9.11706 23.914 9.6671C24.0039 10.2171 24.5359 10.5623 25.0644 10.4724C25.6144 10.3789 25.9847 9.85044 25.8912 9.32198C25.7978 8.84024 25.3843 8.49513 24.9026 8.49513H24.7193ZM32.4198 9.89718C32.2113 10.4041 32.4881 10.9757 33.0166 11.1626C33.5235 11.3711 34.0951 11.0943 34.3036 10.5659C34.4869 10.059 34.2101 9.48735 33.7068 9.30041C33.5918 9.25367 33.4767 9.2321 33.3617 9.2321C32.9483 9.2321 32.5564 9.48375 32.4198 9.89718ZM21.8001 9.30041C21.2716 9.48375 21.02 10.059 21.2033 10.5659C21.3867 11.0943 21.9619 11.3711 22.4904 11.1626C22.9972 10.9793 23.2705 10.4041 23.0871 9.89718C22.9254 9.48375 22.5587 9.2321 22.1452 9.2321C22.0302 9.2321 21.9151 9.25367 21.8001 9.30041ZM40.0484 9.82888C39.7968 10.1524 39.8399 10.609 40.1419 10.8642C40.4655 11.1159 40.922 11.0943 41.1773 10.7708C41.4289 10.4724 41.4074 9.99065 41.0838 9.73541C40.9472 9.62037 40.7854 9.57363 40.6236 9.57363C40.4151 9.57363 40.2102 9.6671 40.0484 9.82528V9.82888ZM14.398 9.73541C14.0996 9.98706 14.0528 10.4724 14.3045 10.7708C14.5813 11.0943 15.0415 11.1159 15.3399 10.8642C15.6634 10.6126 15.7065 10.1524 15.4333 9.82888C15.2967 9.6671 15.0882 9.57723 14.8833 9.57723C14.7215 9.57723 14.5382 9.62396 14.4016 9.739L14.398 9.73541ZM42.6908 9.89718C42.4823 10.1273 42.4823 10.4724 42.6908 10.7025C42.9209 10.911 43.266 10.911 43.4709 10.7025C43.701 10.4724 43.701 10.1273 43.4709 9.89718C43.3774 9.78214 43.2193 9.73541 43.079 9.73541C42.9388 9.73541 42.8022 9.78214 42.6872 9.89718H42.6908ZM12.0073 9.89718C11.7772 10.1273 11.7772 10.4724 12.0073 10.7025C12.2374 10.911 12.5825 10.911 12.7874 10.7025C13.0175 10.4724 13.0175 10.1273 12.7874 9.89718C12.6939 9.78214 12.5357 9.73541 12.3955 9.73541C12.2553 9.73541 12.1187 9.78214 12.0037 9.89718H12.0073ZM37.5211 10.1956C37.2443 10.5874 37.3378 11.1159 37.7297 11.3891C38.1215 11.6659 38.65 11.5509 38.9232 11.1806C39.2 10.7888 39.1065 10.2387 38.7147 9.98706C38.5529 9.87202 38.3911 9.82528 38.2078 9.82528C37.9561 9.82528 37.6793 9.94033 37.5175 10.192L37.5211 10.1956ZM16.7886 9.98706C16.3968 10.2387 16.3069 10.7923 16.5801 11.1806C16.8318 11.5473 17.3854 11.6623 17.7737 11.3891C18.1404 11.1123 18.2554 10.5838 17.9822 10.1956C17.7988 9.94392 17.5472 9.82888 17.2704 9.82888C17.1086 9.82888 16.9253 9.87561 16.7886 9.99065V9.98706ZM27.9584 11.2956C27.9116 11.8708 28.3251 12.3742 28.9003 12.4209C29.4755 12.4892 29.9788 12.0542 30.0255 11.479C30.0723 10.9038 29.6588 10.4221 29.0836 10.3538H28.9902C28.4617 10.3538 28.0015 10.7672 27.9548 11.2956H27.9584ZM26.4197 10.3538C25.8445 10.4221 25.4095 10.9038 25.4778 11.479C25.5245 12.0542 26.0279 12.4892 26.5815 12.4209C27.1567 12.3742 27.5917 11.8708 27.5234 11.2956C27.4766 10.7672 27.0417 10.3538 26.5132 10.3538H26.4197ZM35.0837 10.929C34.8069 11.4107 34.9687 12.0326 35.4504 12.3094C35.9106 12.5863 36.5289 12.4245 36.8057 11.9428C37.0826 11.461 36.9208 10.8391 36.439 10.5623C36.2773 10.4688 36.1155 10.4257 35.9321 10.4257C35.587 10.4257 35.2671 10.609 35.0801 10.9326L35.0837 10.929ZM19.0391 10.5623C18.5574 10.8391 18.3956 11.4574 18.6724 11.9428C18.9493 12.4281 19.5676 12.5863 20.0529 12.3094C20.5347 12.0326 20.6964 11.4143 20.4196 10.929C20.2363 10.6054 19.8912 10.4221 19.546 10.4221C19.3843 10.4221 19.2009 10.4688 19.0391 10.5587V10.5623ZM30.4389 11.5725C30.3023 12.1225 30.6223 12.6761 31.1759 12.8379C31.726 12.9745 32.3012 12.6546 32.4414 12.1009C32.6032 11.5509 32.258 10.9757 31.7044 10.8355C31.6109 10.8139 31.5211 10.7887 31.4527 10.7887C30.9926 10.7887 30.5576 11.0871 30.4425 11.5689L30.4389 11.5725ZM23.7738 10.8355C23.2237 10.9721 22.9002 11.5473 23.0368 12.1009C23.1986 12.651 23.7486 12.9745 24.3022 12.8379C24.8774 12.6761 25.1974 12.1261 25.0392 11.5725C24.9242 11.0907 24.5108 10.7923 24.0506 10.7923C23.9571 10.7923 23.8672 10.8139 23.7738 10.8391V10.8355ZM32.8512 12.2375C32.5996 12.766 32.8296 13.388 33.3329 13.618C33.8614 13.8697 34.4833 13.6396 34.7134 13.1111C34.9651 12.6042 34.735 11.9859 34.2317 11.7306C34.0699 11.6839 33.9333 11.6372 33.7967 11.6372C33.4048 11.6372 33.0166 11.8673 32.8548 12.2339L32.8512 12.2375ZM21.268 11.7306C20.7396 11.9823 20.5311 12.6042 20.7611 13.1111C21.0128 13.6396 21.6132 13.8697 22.1416 13.618C22.6701 13.388 22.8786 12.766 22.6485 12.2375C22.4652 11.8708 22.0985 11.6408 21.7066 11.6408C21.57 11.6408 21.4083 11.6875 21.2716 11.7342L21.268 11.7306ZM40.0448 12.1225C39.6997 12.4461 39.6997 12.9961 40.0448 13.3412C40.39 13.6648 40.9184 13.6648 41.2636 13.3412C41.5871 12.9961 41.5871 12.4461 41.2636 12.1225C41.0802 11.9607 40.8717 11.8709 40.6416 11.8709C40.4331 11.8709 40.2066 11.9643 40.0448 12.1225ZM14.2326 12.1225C13.8875 12.4461 13.8875 12.9961 14.2326 13.3412C14.5561 13.6648 15.1062 13.6648 15.4261 13.3412C15.7713 12.9961 15.7713 12.4461 15.4261 12.1225C15.2644 11.9607 15.0594 11.8709 14.8294 11.8709C14.6208 11.8709 14.3944 11.9643 14.2326 12.1225ZM42.6189 12.216C42.2953 12.4676 42.2522 12.9278 42.5254 13.2262C42.7771 13.5497 43.2372 13.5929 43.5356 13.3196C43.8592 13.068 43.9023 12.6078 43.6291 12.2843C43.4925 12.1225 43.284 12.0326 43.079 12.0326C42.9173 12.0326 42.7339 12.1009 42.6189 12.216ZM11.8419 12.2843C11.5902 12.6078 11.6334 13.0644 11.9354 13.3196C12.2338 13.5965 12.7155 13.5497 12.9707 13.2262C13.2224 12.9278 13.1792 12.4676 12.8773 12.216C12.7407 12.1009 12.5789 12.0326 12.3955 12.0326C12.187 12.0326 11.9821 12.1261 11.8455 12.2843H11.8419ZM37.514 12.4209C37.1473 12.8559 37.2156 13.4778 37.629 13.8445C38.064 14.1896 38.6859 14.1429 39.0526 13.7079C39.3977 13.2945 39.351 12.651 38.916 12.3058C38.7327 12.1441 38.5026 12.0758 38.2725 12.0758C37.9957 12.0758 37.6973 12.1908 37.514 12.4209ZM16.5514 12.3058C16.1379 12.651 16.0696 13.2945 16.4363 13.7079C16.7815 14.1429 17.425 14.1896 17.8384 13.8445C18.2734 13.4778 18.3201 12.8559 17.975 12.4209C17.7665 12.1908 17.4933 12.0758 17.1949 12.0758C16.9648 12.0758 16.7347 12.1441 16.5514 12.3058ZM45.1893 12.7193C44.9377 12.9026 44.8658 13.2477 45.0527 13.4994C45.2361 13.751 45.5812 13.8229 45.8328 13.636C46.0845 13.4742 46.1564 13.1075 45.9694 12.8559C45.8544 12.7193 45.6926 12.6258 45.5093 12.6258C45.3942 12.6258 45.2792 12.6474 45.1857 12.7193H45.1893ZM9.51951 12.8559C9.33617 13.1075 9.3829 13.4778 9.63455 13.636C9.88621 13.8193 10.2565 13.751 10.4147 13.4994C10.598 13.2477 10.5297 12.9026 10.2781 12.7193C10.1846 12.651 10.0696 12.6258 9.95451 12.6258C9.79274 12.6258 9.60939 12.7193 9.51951 12.8559ZM34.9183 13.9128C34.9183 14.4629 35.3785 14.923 35.9285 14.923C36.4786 14.923 36.9639 14.4629 36.9639 13.9128C36.9639 13.3628 36.5038 12.8775 35.9285 12.8775C35.3533 12.8775 34.9183 13.3376 34.9183 13.9128ZM18.5322 13.9128C18.5322 14.4629 18.9924 14.923 19.5424 14.923C20.0925 14.923 20.5526 14.4629 20.5526 13.9128C20.5526 13.3628 20.0925 12.8775 19.5424 12.8775C18.9924 12.8775 18.5322 13.3376 18.5322 13.9128ZM39.333 15.0848C39.333 15.6348 39.7932 16.095 40.3432 16.095C40.8933 16.095 41.3534 15.6348 41.3534 15.0848C41.3534 14.5348 40.9184 14.0494 40.3432 14.0494C39.768 14.0494 39.333 14.5096 39.333 15.0848ZM14.1643 15.0848C14.1643 15.6348 14.6244 16.095 15.1745 16.095C15.7245 16.095 16.2098 15.6348 16.2098 15.0848C16.2098 14.5348 15.7497 14.0494 15.1745 14.0494C14.5993 14.0494 14.1643 14.5096 14.1643 15.0848ZM42.2055 14.4629C41.8136 14.7145 41.7237 15.2681 41.9969 15.6564C42.2738 16.0483 42.8022 16.1381 43.1905 15.8649C43.5788 15.5917 43.6722 15.0596 43.399 14.6714C43.2372 14.4197 42.964 14.3047 42.6872 14.3047C42.5254 14.3047 42.3421 14.3514 42.2055 14.4665V14.4629ZM12.072 14.6714C11.8203 15.0632 11.9102 15.5917 12.3021 15.8649C12.6939 16.1417 13.2224 16.0483 13.4956 15.6564C13.7473 15.2646 13.6574 14.7145 13.2655 14.4629C13.1289 14.3478 12.942 14.3011 12.7838 14.3011C12.507 14.3011 12.2553 14.4161 12.072 14.6678V14.6714ZM37.1473 15.3149C37.1473 15.7499 37.4924 16.095 37.9274 16.095C38.3624 16.095 38.7075 15.7499 38.7075 15.3149C38.7075 14.8799 38.3624 14.5348 37.9274 14.5348C37.4924 14.5348 37.1473 14.8799 37.1473 15.3149ZM16.7815 15.3149C16.7815 15.7499 17.1266 16.095 17.54 16.095C17.975 16.095 18.3201 15.7499 18.3201 15.3149C18.3201 14.8799 17.975 14.5348 17.54 14.5348C17.1266 14.5348 16.7815 14.8799 16.7815 15.3149ZM44.7076 14.9913C44.3625 15.1998 44.2474 15.6348 44.4559 15.98C44.6393 16.3251 45.0994 16.4617 45.4446 16.2568C45.7897 16.0483 45.9047 15.6133 45.7214 15.2466C45.5848 15.0165 45.3295 14.8799 45.0779 14.8799C44.9628 14.8799 44.8262 14.9266 44.7112 14.9949L44.7076 14.9913ZM9.77116 15.243C9.56265 15.6097 9.67769 16.0483 10.0228 16.2532C10.3895 16.4617 10.8281 16.3215 11.033 15.9764C11.2415 15.6312 11.1265 15.1962 10.7562 14.9877C10.6412 14.9194 10.5261 14.8727 10.3895 14.8727C10.1379 14.8727 9.90777 15.0093 9.76757 15.2394L9.77116 15.243ZM47.1666 15.9548C46.8898 16.0914 46.7747 16.415 46.8898 16.6918C47.0264 16.9686 47.3499 17.1052 47.6483 16.9686C47.9251 16.832 48.0402 16.5084 47.9 16.2316C47.8065 16.0231 47.6016 15.9081 47.3931 15.9081C47.3248 15.9081 47.2313 15.9081 47.163 15.9548H47.1666ZM7.56382 16.2316C7.42721 16.5084 7.56382 16.8284 7.84064 16.9686C8.11745 17.1052 8.46258 16.9686 8.57762 16.6918C8.71423 16.415 8.59919 16.095 8.3008 15.9548C8.23249 15.9081 8.16419 15.9081 8.07072 15.9081C7.86221 15.9081 7.65729 16.0231 7.56382 16.2316ZM41.4433 16.5552C40.9616 16.832 40.7998 17.4503 41.0766 17.9357C41.3534 18.4174 41.9502 18.5792 42.4319 18.3023C42.9137 18.0255 43.0755 17.4072 42.7986 16.9219C42.6153 16.5983 42.2917 16.4401 41.925 16.4401C41.7633 16.4401 41.6015 16.4617 41.4433 16.5552ZM12.6688 16.9219C12.3919 17.4036 12.5537 18.0255 13.0354 18.3023C13.5172 18.5792 14.1391 18.4174 14.4159 17.9357C14.6927 17.4539 14.531 16.832 14.0492 16.5552C13.8875 16.4617 13.7041 16.4401 13.5423 16.4401C13.1972 16.4401 12.8521 16.6019 12.6688 16.9219ZM38.8693 17.2454C38.8693 17.6588 39.2144 18.0255 39.6494 18.0255C40.0844 18.0255 40.4295 17.6588 40.4295 17.2454C40.4295 16.8104 40.0844 16.4653 39.6494 16.4653C39.2144 16.4653 38.8693 16.8104 38.8693 17.2454ZM15.0343 17.2454C15.0343 17.6588 15.401 18.0255 15.8144 18.0255C16.2494 18.0255 16.5945 17.6588 16.5945 17.2454C16.5945 16.8104 16.2494 16.4653 15.8144 16.4653C15.401 16.4653 15.0343 16.8104 15.0343 17.2454ZM43.9239 17.1304C43.4889 17.3389 43.3019 17.8422 43.5104 18.2808C43.6938 18.7158 44.2223 18.9027 44.6357 18.6942C45.0707 18.4857 45.2576 17.9824 45.0491 17.5438C44.9125 17.2454 44.6141 17.0621 44.2906 17.0621C44.154 17.0621 44.0389 17.0836 43.9239 17.1304ZM10.4111 17.5438C10.2026 17.9788 10.3895 18.4857 10.8245 18.6942C11.2595 18.9027 11.7664 18.7158 11.9749 18.2808C12.1583 17.8458 11.9749 17.3389 11.5615 17.1304C11.4464 17.0836 11.3098 17.0621 11.1948 17.0621C10.8712 17.0621 10.5513 17.2454 10.4147 17.5438H10.4111ZM46.2894 18.0938C45.9227 18.2304 45.7142 18.6439 45.8544 19.0357C45.991 19.4024 46.4296 19.6109 46.7963 19.4707C47.1882 19.3341 47.3715 18.9207 47.2313 18.5288C47.1163 18.2304 46.8394 18.0471 46.5411 18.0471C46.4727 18.0471 46.3793 18.0687 46.2894 18.0938ZM8.2289 18.5288C8.09229 18.9207 8.2972 19.3341 8.6639 19.4707C9.05575 19.6073 9.46918 19.4024 9.60579 19.0357C9.7424 18.6439 9.55906 18.2304 9.1708 18.0938C9.07733 18.0723 9.00902 18.0471 8.91914 18.0471C8.62076 18.0471 8.34394 18.2304 8.2289 18.5288ZM39.7177 19.5858C39.7177 20.1358 40.1779 20.596 40.7531 20.596C41.3283 20.596 41.7633 20.1358 41.7633 19.5858C41.7633 19.0357 41.3031 18.5756 40.7531 18.5756C40.203 18.5756 39.7177 19.0357 39.7177 19.5858ZM13.7221 19.5858C13.7221 20.1358 14.1823 20.596 14.7323 20.596C15.2823 20.596 15.7425 20.1358 15.7425 19.5858C15.7425 19.0357 15.2823 18.5756 14.7323 18.5756C14.1823 18.5756 13.7221 19.0357 13.7221 19.5858ZM42.7986 19.0789C42.2917 19.2622 42.0185 19.8374 42.2019 20.3659C42.3852 20.8728 42.9604 21.146 43.4889 20.9627C44.0173 20.7793 44.269 20.2041 44.0857 19.6756C43.949 19.2622 43.5572 19.0106 43.1438 19.0106C43.0287 19.0106 42.9137 19.0321 42.7986 19.0789ZM11.3781 19.6756C11.1948 20.2041 11.4716 20.7793 11.9749 20.9627C12.5034 21.146 13.0786 20.8692 13.2619 20.3659C13.4704 19.8374 13.1936 19.2622 12.6652 19.0789C12.5501 19.0321 12.4351 19.0106 12.32 19.0106C11.9282 19.0106 11.5399 19.2622 11.3781 19.6756ZM48.5435 19.4671C48.2451 19.5354 48.0833 19.859 48.1516 20.1574C48.2451 20.4558 48.5435 20.6175 48.8419 20.5492C49.1403 20.4809 49.3236 20.1574 49.2337 19.859C49.1654 19.6073 48.9353 19.4456 48.7053 19.4456C48.6369 19.4456 48.5902 19.4456 48.5435 19.4671ZM6.23007 19.859C6.16176 20.1574 6.34511 20.4809 6.6435 20.5492C6.94188 20.6175 7.24027 20.4558 7.30857 20.1574C7.40205 19.859 7.2151 19.5354 6.91672 19.4671C6.86998 19.4456 6.82325 19.4456 6.78011 19.4456C6.52845 19.4456 6.29837 19.6073 6.23007 19.859ZM45.1426 20.0675C44.6824 20.2041 44.4308 20.6643 44.5458 21.1244C44.6609 21.5846 45.1426 21.8614 45.6028 21.7212C46.0629 21.6062 46.3146 21.146 46.1995 20.6858C46.1061 20.294 45.7394 20.0423 45.3727 20.0423C45.3044 20.0423 45.2361 20.0423 45.1426 20.0639V20.0675ZM9.26427 20.6894C9.14922 21.1496 9.42604 21.6098 9.88621 21.7248C10.3464 21.8614 10.8065 21.5882 10.9431 21.128C11.0582 20.6679 10.7814 20.2077 10.3212 20.0711C10.2529 20.0495 10.1846 20.0495 10.0911 20.0495C9.72443 20.0495 9.37931 20.3012 9.26427 20.693V20.6894ZM41.2815 20.9195C40.7315 21.0813 40.3864 21.6565 40.5446 22.2065C40.6812 22.7566 41.2564 23.0801 41.81 22.9184C42.36 22.7817 42.6836 22.2065 42.547 21.6529C42.4319 21.1927 41.9969 20.8944 41.5368 20.8944C41.4685 20.8944 41.375 20.8944 41.2851 20.9159L41.2815 20.9195ZM12.942 21.6565C12.7802 22.2065 13.1038 22.7817 13.6538 22.9219C14.2038 23.0837 14.779 22.7602 14.9408 22.2101C15.0774 21.6601 14.7575 21.0849 14.2038 20.9231C14.1104 20.9015 14.0205 20.9015 13.927 20.9015C13.4668 20.9015 13.0534 21.1999 12.9384 21.6601L12.942 21.6565ZM47.3248 21.4264C46.9329 21.4947 46.6597 21.8866 46.728 22.2784C46.7963 22.6703 47.1882 22.9435 47.58 22.8752C47.9719 22.8069 48.2451 22.415 48.1768 22.0232C48.1085 21.6781 47.8101 21.4264 47.465 21.4264H47.3284H47.3248ZM7.30857 22.0232C7.2151 22.415 7.49192 22.8033 7.88378 22.8752C8.29721 22.9435 8.6639 22.6667 8.7358 22.2784C8.8077 21.8902 8.55245 21.4983 8.13902 21.4264H8.02398C7.67886 21.4264 7.3589 21.6781 7.31217 22.0232H7.30857ZM43.7154 21.7931C43.1653 21.8866 42.795 22.4151 42.8885 22.9651C42.982 23.4936 43.5104 23.8602 44.0605 23.7704C44.6105 23.6769 44.9557 23.1484 44.8658 22.5984C44.7723 22.1167 44.3589 21.7715 43.8771 21.7715C43.8304 21.7715 43.7621 21.7931 43.7154 21.7931ZM10.5944 22.5984C10.501 23.1484 10.8712 23.6769 11.4213 23.7704C11.9497 23.8638 12.4782 23.4936 12.5717 22.9651C12.6652 22.4151 12.32 21.8866 11.7664 21.7931C11.6981 21.7931 11.6514 21.7715 11.5831 21.7715C11.1013 21.7715 10.6879 22.1167 10.5944 22.5984ZM49.2984 23.1736C49 23.2203 48.77 23.472 48.7915 23.7955C48.8131 24.0939 49.0899 24.324 49.3883 24.3024C49.7119 24.2809 49.9383 24.004 49.8952 23.6805C49.8736 23.4037 49.6436 23.1736 49.3452 23.1736H49.2984ZM5.5578 23.6805C5.53623 24.004 5.76631 24.2773 6.0647 24.3024C6.38825 24.324 6.6399 24.0939 6.68663 23.7955C6.7082 23.472 6.47812 23.2203 6.15817 23.1736H6.11143C5.83461 23.1736 5.58296 23.4037 5.56139 23.6805H5.5578ZM45.8508 23.1736C45.3691 23.2203 45.024 23.6338 45.0707 24.1155C45.1174 24.5757 45.5308 24.9424 45.991 24.8956C46.4727 24.8489 46.8179 24.4355 46.7711 23.9537C46.7244 23.5187 46.3577 23.1736 45.9191 23.1736H45.8508ZM8.68547 23.9537C8.63873 24.4355 9.00902 24.8489 9.46559 24.8956C9.94732 24.9424 10.3607 24.5721 10.4075 24.1155C10.4291 23.6338 10.0839 23.2203 9.62736 23.1736H9.53389C9.09889 23.1736 8.72861 23.5187 8.68187 23.9537H8.68547ZM41.8747 23.3569C41.2995 23.4037 40.8861 23.907 40.9328 24.4822C40.9796 25.0322 41.4829 25.4708 42.0581 25.4241C42.6333 25.3558 43.0467 24.874 43 24.2988C42.9532 23.7488 42.4931 23.3569 41.9646 23.3569H41.8711H41.8747ZM12.4566 24.2988C12.4099 24.874 12.8485 25.3558 13.3985 25.4241C13.9737 25.4708 14.477 25.0322 14.5238 24.4822C14.5705 23.907 14.1571 23.4037 13.5819 23.3569H13.4884C12.9599 23.3569 12.4998 23.7488 12.4531 24.2988H12.4566ZM43.1186 25.6326C43.1186 26.1826 43.5788 26.6212 44.1288 26.6212C44.6788 26.6212 45.139 26.1862 45.139 25.6326C45.139 25.079 44.6788 24.6224 44.1288 24.6224C43.5788 24.6224 43.1186 25.0826 43.1186 25.6326ZM10.3428 25.6326C10.3428 26.1826 10.7778 26.6212 11.3314 26.6212C11.885 26.6212 12.3416 26.1862 12.3416 25.6326C12.3416 25.079 11.8814 24.6224 11.3314 24.6224C10.7814 24.6224 10.3428 25.0826 10.3428 25.6326ZM47.0264 25.6326C47.0264 26.0245 47.3499 26.3696 47.7634 26.3696C48.1552 26.3696 48.5003 26.0245 48.5003 25.6326C48.5003 25.2192 48.1552 24.8956 47.7634 24.8956C47.3499 24.8956 47.0264 25.2192 47.0264 25.6326ZM6.98862 25.6326C6.98862 26.0245 7.31217 26.3696 7.7256 26.3696C8.11745 26.3696 8.43741 26.0245 8.43741 25.6326C8.43741 25.2192 8.11386 24.8956 7.7256 24.8956C7.31217 24.8956 6.98862 25.2192 6.98862 25.6326ZM40.9364 26.783C40.8897 27.3582 41.3031 27.8615 41.8783 27.9082C42.4535 27.955 42.9568 27.5415 43.0035 26.9663C43.0503 26.3911 42.6369 25.8878 42.0617 25.8411H41.9682C41.4397 25.8411 40.9796 26.2545 40.9328 26.783H40.9364ZM13.4021 25.8411C12.8521 25.8878 12.4135 26.3911 12.4602 26.9663C12.507 27.5415 13.0103 27.955 13.5855 27.9082C14.1607 27.8615 14.5741 27.3582 14.5274 26.783C14.4806 26.2545 14.0205 25.8411 13.492 25.8411H13.3985H13.4021ZM45.0743 27.1497C45.0275 27.6099 45.3727 28.0233 45.8544 28.07C46.3146 28.1168 46.728 27.7716 46.7747 27.2899C46.8215 26.8297 46.4763 26.4163 45.9946 26.3696H45.9263C45.4913 26.3696 45.121 26.6931 45.0743 27.1497ZM9.47278 26.3696C9.01261 26.4163 8.64592 26.8297 8.69266 27.2899C8.73939 27.7716 9.15282 28.1168 9.63455 28.07C10.0947 28.0233 10.4398 27.6099 10.4147 27.1497C10.3679 26.6895 10.0012 26.3696 9.54108 26.3696H9.47278ZM48.7987 27.4732C48.7772 27.7716 49.0072 28.0485 49.3056 28.07C49.604 28.1168 49.8808 27.8867 49.9024 27.5631C49.9491 27.2647 49.7191 26.9879 49.3955 26.9663H49.3488C49.0719 26.9663 48.8203 27.1749 48.7987 27.4732ZM6.07189 26.9663C5.7735 26.9879 5.54342 27.2647 5.56499 27.5631C5.58656 27.8867 5.86337 28.1132 6.16176 28.07C6.48531 28.0485 6.7118 27.7716 6.69023 27.4732C6.6435 27.1749 6.41341 26.9663 6.11503 26.9663H6.06829H6.07189ZM42.8921 28.3001C42.7986 28.8501 43.1689 29.357 43.719 29.4721C44.2474 29.5655 44.7759 29.1953 44.8694 28.6452C44.9628 28.1168 44.6177 27.5883 44.0641 27.4948C43.9958 27.4732 43.949 27.4732 43.8807 27.4732C43.399 27.4732 42.9856 27.8184 42.8921 28.3001ZM11.4285 27.4948C10.8784 27.5883 10.5081 28.1168 10.6016 28.6452C10.6951 29.1953 11.2236 29.5655 11.7736 29.4721C12.3236 29.357 12.6688 28.8501 12.5789 28.3001C12.4854 27.8184 12.072 27.4732 11.5902 27.4732C11.5435 27.4732 11.4752 27.4732 11.4285 27.4948ZM40.5481 29.0587C40.3864 29.6087 40.7315 30.1839 41.2851 30.3241C41.8352 30.4859 42.3888 30.1623 42.5506 29.5871C42.6872 29.0371 42.3672 28.4834 41.8136 28.3217C41.7201 28.3001 41.6302 28.3001 41.5368 28.3001C41.0766 28.3001 40.6632 28.5985 40.5481 29.0587ZM13.6574 28.3217C13.1073 28.4834 12.7838 29.0335 12.9456 29.5871C13.0822 30.1623 13.6574 30.4823 14.211 30.3241C14.7611 30.1875 15.0846 29.6123 14.948 29.0587C14.8114 28.5985 14.398 28.3001 13.9378 28.3001C13.8443 28.3001 13.7544 28.3001 13.661 28.3217H13.6574ZM46.7316 28.9868C46.6633 29.3786 46.9401 29.7453 47.3284 29.8136C47.7202 29.9071 48.1085 29.6303 48.1804 29.2384C48.2487 28.825 47.9719 28.4583 47.5836 28.3864C47.5369 28.3648 47.4901 28.3648 47.4686 28.3648C47.1019 28.3648 46.8035 28.6165 46.7316 28.9868ZM7.88737 28.39C7.49552 28.4583 7.22229 28.825 7.31217 29.242C7.38047 29.6339 7.74717 29.9071 8.13902 29.8172C8.55245 29.7489 8.8041 29.3822 8.7358 28.9903C8.68906 28.6237 8.36911 28.3684 8.02398 28.3684C7.97725 28.3684 7.93051 28.3684 7.88737 28.39ZM44.5458 30.1372C44.4308 30.5973 44.6824 31.0575 45.1426 31.1725C45.6028 31.3091 46.0845 31.0359 46.1995 30.5758C46.3146 30.1156 46.0629 29.6554 45.6028 29.5188C45.5093 29.5188 45.441 29.4972 45.3727 29.4972C44.9808 29.4972 44.6357 29.7489 44.5458 30.1408V30.1372ZM9.88621 29.5152C9.42604 29.6518 9.14922 30.112 9.26427 30.5722C9.40088 31.0323 9.86104 31.3091 10.3212 31.1689C10.7814 31.0539 11.0582 30.5937 10.9431 30.1336C10.8281 29.7417 10.483 29.4901 10.1163 29.4901C10.0228 29.4901 9.95451 29.5116 9.88621 29.5116V29.5152ZM42.2019 30.8957C42.0185 31.4242 42.2953 31.9994 42.7986 32.1827C43.3271 32.3661 43.9023 32.0893 44.0857 31.586C44.269 31.0575 44.0173 30.4823 43.4889 30.2989C43.3738 30.2522 43.2588 30.2306 43.1438 30.2306C42.7303 30.2306 42.3636 30.4823 42.2019 30.8957ZM11.9785 30.2989C11.4716 30.4823 11.1984 31.0575 11.3817 31.586C11.5902 32.0928 12.1619 32.3661 12.6688 32.1827C13.1972 31.9994 13.474 31.4242 13.2655 30.8957C13.1289 30.4823 12.7371 30.2306 12.3236 30.2306C12.2086 30.2306 12.0935 30.2522 11.9785 30.2989ZM39.7429 31.2408C39.5128 31.7477 39.7429 32.3661 40.2498 32.6213C40.7782 32.8514 41.4002 32.6213 41.6303 32.1144C41.8819 31.586 41.6518 30.964 41.1234 30.7339C40.9867 30.6656 40.8465 30.6189 40.6884 30.6189C40.2965 30.6189 39.9298 30.849 39.7465 31.2408H39.7429ZM14.344 30.7339C13.8371 30.964 13.6071 31.586 13.8371 32.1144C14.0888 32.6213 14.7107 32.8514 15.2176 32.6213C15.7461 32.3697 15.9762 31.7477 15.7245 31.2408C15.5412 30.849 15.1745 30.6189 14.7826 30.6189C14.646 30.6189 14.4842 30.6656 14.3476 30.7339H14.344ZM48.1552 31.1006C48.0869 31.399 48.2487 31.6974 48.5471 31.7909C48.8455 31.8592 49.169 31.6758 49.2373 31.3774C49.3308 31.0791 49.1438 30.7807 48.8455 30.7124C48.7987 30.6908 48.752 30.6908 48.7089 30.6908C48.4572 30.6908 48.2271 30.8526 48.1588 31.1042L48.1552 31.1006ZM6.64709 30.7088C6.3487 30.7771 6.16536 31.0755 6.23366 31.3738C6.32713 31.6722 6.62552 31.8556 6.92391 31.7873C7.22229 31.6938 7.40564 31.3954 7.31576 31.097C7.24746 30.8454 7.03895 30.6836 6.78729 30.6836C6.74056 30.6836 6.69383 30.6836 6.65068 30.7052L6.64709 30.7088ZM45.858 32.2259C45.7214 32.5926 45.9263 33.0311 46.293 33.1678C46.6849 33.3044 47.0983 33.0995 47.2349 32.7328C47.3715 32.3409 47.1882 31.9275 46.7999 31.7909C46.7316 31.7693 46.6381 31.7441 46.5482 31.7441C46.2499 31.7441 45.973 31.9275 45.858 32.2259ZM8.67109 31.7909C8.3044 31.9275 8.09589 32.3409 8.23609 32.7328C8.3727 33.0995 8.81129 33.308 9.17799 33.1678C9.56984 33.0311 9.75319 32.5926 9.61298 32.2259C9.49794 31.9275 9.22113 31.7441 8.92274 31.7441C8.85443 31.7441 8.76096 31.7657 8.67109 31.7909ZM43.514 32.9844C43.3055 33.3978 43.4925 33.9263 43.9275 34.1097C44.3625 34.3182 44.8694 34.1312 45.0527 33.6962C45.2612 33.2828 45.0743 32.7543 44.6393 32.571C44.5242 32.5027 44.4092 32.4775 44.2942 32.4775C43.9706 32.4775 43.6507 32.6609 43.514 32.9844ZM10.8317 32.571C10.3967 32.7543 10.2098 33.2828 10.4183 33.6962C10.6268 34.1312 11.1301 34.3182 11.5687 34.1097C11.9821 33.9263 12.1655 33.3978 11.9821 32.9844C11.8203 32.6609 11.5219 32.4775 11.202 32.4775C11.0869 32.4775 10.9503 32.4991 10.8353 32.571H10.8317ZM38.5961 33.2361C38.2725 33.6962 38.3875 34.3397 38.8477 34.6597C39.3294 35.0048 39.9729 34.8898 40.2965 34.408C40.62 33.9479 40.505 33.3044 40.0448 32.9844C39.8615 32.8478 39.653 32.7759 39.4481 32.7759C39.1245 32.7759 38.8046 32.9377 38.5961 33.2361ZM15.4297 32.9844C14.9696 33.308 14.8545 33.9515 15.1781 34.408C15.5232 34.8898 16.1667 35.0048 16.6269 34.6597C17.1086 34.3361 17.2236 33.6926 16.8785 33.2361C16.6952 32.9377 16.3716 32.7759 16.0265 32.7759C15.818 32.7759 15.6131 32.8442 15.4297 32.9844ZM41.0802 33.3295C40.8034 33.8113 40.9652 34.408 41.4469 34.6849C41.9286 34.9617 42.5254 34.7999 42.8022 34.3182C43.079 33.8364 42.9173 33.2397 42.4355 32.9628C42.2738 32.8694 42.112 32.8262 41.9538 32.8262C41.5871 32.8262 41.2636 33.0096 41.0802 33.3331V33.3295ZM13.039 32.9628C12.5573 33.2397 12.3955 33.8364 12.6723 34.3182C12.9492 34.7999 13.5675 34.9617 14.0528 34.6849C14.5346 34.408 14.6963 33.8113 14.4195 33.3295C14.2362 33.006 13.8911 32.8226 13.5459 32.8226C13.3626 32.8226 13.2008 32.8694 13.039 32.9592V32.9628ZM46.8934 34.5734C46.7783 34.8502 46.8934 35.1702 47.1702 35.3104C47.447 35.447 47.7921 35.3104 47.9072 35.0336C48.0438 34.7568 47.9287 34.4116 47.6555 34.2966C47.562 34.2499 47.4937 34.2283 47.4039 34.2283C47.1953 34.2283 46.9904 34.3649 46.897 34.5734H46.8934ZM7.84423 34.2966C7.56742 34.4116 7.43081 34.7568 7.56742 35.0336C7.70403 35.3104 8.02758 35.447 8.30439 35.3104C8.60278 35.1738 8.71782 34.8502 8.58121 34.5734C8.48774 34.3649 8.28282 34.2283 8.07431 34.2283C8.00601 34.2283 7.91254 34.2499 7.84423 34.2966ZM37.1257 35.0084C36.7123 35.4003 36.7123 36.0653 37.1257 36.4572C37.5175 36.8706 38.1826 36.8706 38.5745 36.4572C38.9879 36.0653 38.9879 35.4003 38.5745 35.0084C38.3911 34.7999 38.1143 34.6849 37.8375 34.6849C37.5859 34.6849 37.309 34.7999 37.1257 35.0084ZM16.9001 35.0084C16.4867 35.4003 16.4867 36.0653 16.9001 36.4572C17.3135 36.8706 17.957 36.8706 18.3705 36.4572C18.7839 36.0653 18.7839 35.4003 18.3705 35.0084C18.1619 34.7999 17.9103 34.6849 17.6335 34.6849C17.3567 34.6849 17.105 34.7999 16.8965 35.0084H16.9001ZM44.4595 35.2601C44.251 35.6268 44.3661 36.0653 44.7112 36.2703C45.0563 36.4788 45.5165 36.3637 45.7214 35.9934C45.9047 35.6483 45.7897 35.2133 45.4446 35.0048C45.3295 34.9365 45.2145 34.9113 45.0779 34.9113C44.8262 34.9113 44.571 35.0264 44.4559 35.2565L44.4595 35.2601ZM10.03 35.0084C9.68488 35.2169 9.56984 35.6519 9.77835 35.997C9.98686 36.3637 10.4219 36.4788 10.767 36.2739C11.1337 36.0653 11.2487 35.6304 11.0438 35.2637C10.9072 35.0336 10.6519 34.9185 10.4003 34.9185C10.2853 34.9185 10.1486 34.9401 10.0336 35.012L10.03 35.0084ZM39.5415 35.5153C39.1749 35.9503 39.2432 36.5722 39.6566 36.9389C40.0916 37.2841 40.7135 37.2373 41.0802 36.8023C41.4253 36.3889 41.3786 35.7454 40.9436 35.4003C40.7603 35.2385 40.5302 35.1702 40.3001 35.1702C40.0233 35.1702 39.7249 35.2852 39.5415 35.5153ZM14.5346 35.4003C14.1211 35.7454 14.0528 36.3889 14.4195 36.8023C14.7647 37.2373 15.4082 37.2841 15.8216 36.9389C16.2566 36.5722 16.3033 35.9503 15.9582 35.5153C15.7497 35.2852 15.4765 35.1702 15.1781 35.1702C14.948 35.1702 14.7179 35.2385 14.5346 35.4003ZM42.0005 35.6088C41.7237 36.0006 41.8172 36.5291 42.2091 36.8023C42.6009 37.0756 43.1294 36.9857 43.4026 36.5938C43.6794 36.202 43.5859 35.6735 43.1941 35.4003C43.0323 35.2852 42.8705 35.2385 42.6872 35.2385C42.4355 35.2385 42.1587 35.3751 41.9969 35.6052L42.0005 35.6088ZM12.3057 35.4003C11.9138 35.6771 11.8239 36.2056 12.0756 36.5938C12.3524 36.9857 12.9024 37.0756 13.2691 36.8023C13.661 36.5255 13.7509 35.997 13.4992 35.6088C13.3159 35.3787 13.0642 35.2421 12.7874 35.2421C12.6256 35.2421 12.4423 35.2888 12.3057 35.4039V35.4003ZM34.9219 37.3308C34.9219 37.906 35.3821 38.341 35.9321 38.341C36.4822 38.341 36.9675 37.906 36.9675 37.3308C36.9675 36.7556 36.5073 36.3206 35.9321 36.3206C35.3569 36.3206 34.9219 36.7808 34.9219 37.3308ZM18.5358 37.3308C18.5358 37.906 18.996 38.341 19.546 38.341C20.0961 38.341 20.5562 37.906 20.5562 37.3308C20.5562 36.7556 20.0961 36.3206 19.546 36.3206C18.996 36.3206 18.5358 36.7808 18.5358 37.3308ZM37.6362 37.4243C37.2228 37.7694 37.1544 38.4129 37.5211 38.8263C37.8663 39.2613 38.5098 39.3081 38.9232 38.9629C39.3582 38.5962 39.4049 37.9743 39.0598 37.5393C38.8513 37.3092 38.5781 37.1942 38.2797 37.1942C38.0496 37.1942 37.8195 37.2625 37.6362 37.4243ZM16.4435 37.5393C16.0768 37.9743 16.1451 38.5962 16.5586 38.9629C16.9936 39.3081 17.6155 39.2613 17.9822 38.8263C18.3273 38.4129 18.2806 37.7694 17.8456 37.4243C17.6622 37.2625 17.4322 37.1942 17.2021 37.1942C16.9253 37.1942 16.6269 37.3092 16.4435 37.5393ZM45.0599 37.7478C44.8766 37.9995 44.9449 38.3698 45.1965 38.5279C45.4482 38.7113 45.7933 38.643 45.9766 38.3913C46.16 38.1397 46.0917 37.7946 45.84 37.6112C45.7466 37.5429 45.6315 37.5177 45.5165 37.5177C45.3331 37.5177 45.1713 37.6112 45.0563 37.7478H45.0599ZM9.64174 37.6112C9.39009 37.7946 9.34336 38.1397 9.5267 38.3913C9.68848 38.643 10.0336 38.7149 10.2853 38.5279C10.5369 38.3662 10.6088 37.9995 10.4219 37.7478C10.3284 37.6112 10.145 37.5177 9.9617 37.5177C9.86823 37.5177 9.75319 37.5393 9.63815 37.6112H9.64174ZM40.0484 37.9348C39.7033 38.2799 39.7033 38.8084 40.0484 39.1535C40.3936 39.477 40.922 39.477 41.2672 39.1535C41.5907 38.8084 41.5907 38.2799 41.2672 37.9348C41.0838 37.773 40.8753 37.6831 40.6452 37.6831C40.4367 37.6831 40.2102 37.7766 40.0484 37.9348ZM14.2362 37.9348C13.8911 38.2799 13.8911 38.8084 14.2362 39.1535C14.5597 39.477 15.1098 39.477 15.4297 39.1535C15.7749 38.8084 15.7749 38.2799 15.4297 37.9348C15.268 37.773 15.063 37.6831 14.833 37.6831C14.6244 37.6831 14.398 37.7766 14.2362 37.9348ZM42.529 38.0282C42.2522 38.3518 42.2989 38.8084 42.6225 39.0636C42.9209 39.3153 43.381 39.2937 43.6327 38.9701C43.9095 38.6717 43.8628 38.2116 43.5392 37.9348C43.4242 37.8197 43.2408 37.773 43.079 37.773C42.8705 37.773 42.6656 37.8665 42.529 38.0246V38.0282ZM11.9354 37.9348C11.637 38.2116 11.5902 38.6717 11.8419 38.9701C12.0935 39.2937 12.5537 39.3153 12.8773 39.0636C13.1757 38.8119 13.2224 38.3518 12.9707 38.0282C12.8341 37.8665 12.6256 37.7766 12.3955 37.7766C12.2338 37.7766 12.072 37.8233 11.9354 37.9384V37.9348ZM33.013 38.7868C33.013 39.2685 33.3797 39.6388 33.865 39.6388C34.3503 39.6388 34.717 39.2721 34.717 38.7868C34.717 38.3015 34.3252 37.9348 33.865 37.9348C33.3833 37.9348 33.013 38.3266 33.013 38.7868ZM20.6928 38.7868C20.6928 39.2685 21.0595 39.6388 21.5449 39.6388C22.0302 39.6388 22.3969 39.2721 22.3969 38.7868C22.3969 38.3015 22.005 37.9348 21.5449 37.9348C21.0631 37.9348 20.6928 38.3266 20.6928 38.7868ZM35.4504 38.9701C34.9687 39.2469 34.8069 39.8653 35.0837 40.3255C35.3605 40.8072 35.9573 40.969 36.439 40.6921C36.9208 40.4153 37.0826 39.8186 36.8057 39.3368C36.6224 39.0133 36.2773 38.8299 35.9321 38.8299C35.7704 38.8299 35.587 38.8767 35.4504 38.9665V38.9701ZM18.6724 39.3368C18.3956 39.8186 18.5574 40.4153 19.0391 40.6921C19.5209 40.969 20.1428 40.8072 20.4196 40.3255C20.6964 39.8653 20.5347 39.2469 20.0529 38.9701C19.8912 38.8767 19.7078 38.8335 19.546 38.8335C19.2009 38.8335 18.8558 39.0169 18.6724 39.3404V39.3368ZM30.9926 40.0486C30.9926 40.3722 31.2442 40.6454 31.5894 40.6454C31.9345 40.6454 32.2113 40.3686 32.2113 40.0486C32.2113 39.7035 31.9345 39.4267 31.5894 39.4267C31.2442 39.4267 30.9926 39.7035 30.9926 40.0486ZM23.2705 40.0486C23.2705 40.3722 23.5473 40.6454 23.8672 40.6454C24.2124 40.6454 24.4892 40.3686 24.4892 40.0486C24.4892 39.7035 24.2124 39.4267 23.8672 39.4267C23.5437 39.4267 23.2705 39.7035 23.2705 40.0486ZM37.7261 39.8869C37.3342 40.1637 37.2443 40.6921 37.5175 41.0804C37.7908 41.4687 38.3228 41.5621 38.7111 41.2889C39.1029 41.0121 39.1928 40.4836 38.9196 40.0954C38.7578 39.8653 38.4846 39.7287 38.2078 39.7287C38.046 39.7287 37.8627 39.7754 37.7261 39.8904V39.8869ZM16.5801 40.0954C16.3033 40.4872 16.3968 41.0157 16.7886 41.2889C17.1805 41.5657 17.709 41.4723 17.9822 41.0804C18.259 40.6885 18.144 40.1601 17.7737 39.8869C17.6119 39.7718 17.4501 39.7251 17.2668 39.7251C16.99 39.7251 16.7383 39.8617 16.5765 40.0918L16.5801 40.0954ZM33.013 40.0954C32.4845 40.2787 32.2077 40.8539 32.4162 41.3824C32.5996 41.9109 33.1748 42.1625 33.7032 41.9792C34.2101 41.7958 34.4833 41.2206 34.3 40.6921C34.1382 40.3003 33.7715 40.0486 33.3581 40.0486C33.2431 40.0486 33.128 40.0486 33.013 40.0954ZM21.1997 40.6921C21.0164 41.2206 21.268 41.7958 21.7965 41.9792C22.3034 42.1625 22.875 41.9109 23.0835 41.3824C23.2669 40.8539 22.9901 40.2787 22.4868 40.0954C22.3717 40.0486 22.2567 40.0486 22.1416 40.0486C21.7282 40.0486 21.3364 40.3003 21.1997 40.6921ZM40.1383 40.4153C39.8399 40.667 39.7932 41.1271 40.0448 41.4507C40.3217 41.7491 40.7818 41.7958 41.0802 41.5442C41.4038 41.2673 41.4253 40.8072 41.1737 40.5088C41.0371 40.3254 40.8286 40.232 40.6236 40.232C40.4403 40.232 40.2785 40.3003 40.1419 40.4153H40.1383ZM14.3045 40.5088C14.0528 40.8072 14.096 41.2673 14.398 41.5442C14.7215 41.7958 15.1781 41.7527 15.4333 41.4507C15.7101 41.1271 15.6634 40.6706 15.3399 40.4153C15.2032 40.3003 15.0415 40.232 14.8797 40.232C14.6712 40.232 14.4663 40.3254 14.3045 40.5088ZM42.6908 40.5771C42.4823 40.8072 42.4823 41.1523 42.6908 41.3824C42.9209 41.5909 43.266 41.5909 43.4709 41.3824C43.701 41.1523 43.701 40.8072 43.4709 40.5771C43.3774 40.4621 43.2193 40.4153 43.079 40.4153C42.9388 40.4153 42.8022 40.4621 42.6872 40.5771H42.6908ZM12.0073 40.5771C11.7772 40.8072 11.7772 41.1523 12.0073 41.3824C12.2374 41.5909 12.5825 41.5909 12.7874 41.3824C13.0175 41.1523 13.0175 40.8072 12.7874 40.5771C12.6939 40.4621 12.5357 40.4153 12.3955 40.4153C12.2553 40.4153 12.1187 40.4621 12.0037 40.5771H12.0073ZM30.4174 40.7856C29.8673 40.9007 29.497 41.4076 29.6121 41.9576C29.7056 42.5076 30.2089 42.8528 30.7625 42.7629C31.3125 42.6694 31.6828 42.1661 31.5894 41.6125C31.4959 41.1307 31.0609 40.7856 30.6007 40.7856H30.4174ZM23.914 41.6125C23.8205 42.1625 24.1908 42.6694 24.7193 42.7629C25.2693 42.8563 25.7978 42.5112 25.8912 41.9576C25.9847 41.4076 25.6144 40.9007 25.0644 40.7856H24.9026C24.4209 40.7856 24.0075 41.1307 23.914 41.6125ZM26.7397 42.0259C26.7397 42.5759 27.1998 43.0361 27.7499 43.0361C28.2999 43.0361 28.7385 42.5759 28.7385 42.0259C28.7385 41.4759 28.3035 41.0373 27.7499 41.0373C27.1962 41.0373 26.7397 41.4723 26.7397 42.0259ZM35.1053 41.404C34.6703 41.6125 34.4833 42.1158 34.6919 42.5292C34.8752 42.9642 35.4037 43.1511 35.8171 42.9642C36.2521 42.7557 36.439 42.2524 36.2305 41.8138C36.0939 41.4902 35.7704 41.3069 35.4504 41.3069C35.3354 41.3069 35.2203 41.3536 35.1053 41.4004V41.404ZM19.2476 41.8174C19.0391 42.2524 19.2476 42.7593 19.6611 42.9678C20.0961 43.1511 20.603 42.9678 20.8115 42.5328C21.02 42.1194 20.8115 41.6125 20.398 41.4076C20.283 41.3608 20.1464 41.3141 20.0314 41.3141C19.7078 41.3141 19.4094 41.4974 19.2512 41.821L19.2476 41.8174ZM37.3809 42.3459C37.0358 42.5292 36.9208 42.9894 37.1293 43.3345C37.3126 43.6796 37.7728 43.8162 38.1179 43.6113C38.463 43.4028 38.5996 42.9678 38.3947 42.6011C38.2581 42.371 38.0029 42.2344 37.7512 42.2344C37.6362 42.2344 37.4996 42.2811 37.3845 42.3494L37.3809 42.3459ZM17.1086 42.5975C16.9001 42.9642 17.0151 43.4028 17.3603 43.6077C17.7054 43.8162 18.1655 43.676 18.3705 43.3309C18.5754 42.9858 18.4388 42.5256 18.0936 42.3423C17.9786 42.274 17.8636 42.2272 17.7269 42.2272C17.4753 42.2272 17.2201 42.3638 17.105 42.5939L17.1086 42.5975ZM32.2544 42.4357C31.7943 42.5508 31.5175 43.0325 31.6325 43.4927C31.7691 43.9528 32.2293 44.2045 32.6894 44.0894C33.1496 43.9744 33.4264 43.4927 33.2862 43.0325C33.1927 42.6658 32.8512 42.4106 32.4593 42.4106C32.391 42.4106 32.3227 42.4106 32.2508 42.4321L32.2544 42.4357ZM22.1884 43.0325C22.0733 43.4927 22.3501 43.9744 22.7851 44.0894C23.2453 44.2045 23.727 43.9528 23.8421 43.4927C23.9787 43.0325 23.7055 42.5508 23.2453 42.4357C23.177 42.4142 23.0835 42.4142 23.0152 42.4142C22.6485 42.4142 22.3034 42.6658 22.1884 43.0361V43.0325ZM39.8615 42.939C39.6099 43.1224 39.5631 43.4675 39.7249 43.7191C39.9082 43.9708 40.2534 44.0427 40.505 43.8558C40.7567 43.6724 40.8286 43.3273 40.6416 43.0756C40.5266 42.9139 40.3648 42.8456 40.1815 42.8456C40.0664 42.8456 39.9514 42.8671 39.8579 42.939H39.8615ZM14.833 43.0756C14.6712 43.3273 14.7179 43.6724 14.9696 43.8558C15.2212 44.0391 15.5663 43.9708 15.7497 43.7191C15.933 43.4675 15.8647 43.1224 15.6131 42.939C15.5196 42.8707 15.4046 42.8456 15.2895 42.8456C15.1277 42.8456 14.9444 42.9139 14.8294 43.0756H14.833ZM29.267 42.9606C28.7852 43.0073 28.4401 43.4208 28.4869 43.8809C28.5336 44.3627 28.947 44.7078 29.4072 44.6611C29.8889 44.6395 30.234 44.2009 30.1873 43.7407C30.1406 43.2806 29.7739 42.9606 29.3353 42.9606H29.267ZM25.2909 43.7407C25.2693 44.2009 25.6144 44.6359 26.071 44.6611C26.5527 44.7078 26.9662 44.3627 27.0129 43.8809C27.0345 43.4208 26.6893 43.0073 26.2328 42.9606H26.1393C25.7043 42.9606 25.334 43.2842 25.2873 43.7407H25.2909ZM34.3467 43.7407C33.9549 43.8773 33.7715 44.3159 33.9117 44.6826C34.0484 45.0745 34.4618 45.2578 34.8536 45.1176C35.2203 44.981 35.4288 44.5676 35.2886 44.1757C35.1736 43.8989 34.8968 43.7156 34.5984 43.7156C34.5049 43.7156 34.415 43.7156 34.3467 43.7371V43.7407ZM20.2111 44.1757C20.0745 44.5676 20.2578 44.981 20.6461 45.1176C21.0128 45.2542 21.4514 45.0709 21.588 44.6826C21.7246 44.3159 21.5197 43.8773 21.153 43.7407C21.0595 43.7192 20.9697 43.7191 20.9014 43.7191C20.603 43.7191 20.3261 43.9025 20.2111 44.1793V44.1757ZM31.0825 44.6107C30.6906 44.679 30.4389 45.0709 30.5073 45.4627C30.5756 45.8762 30.9422 46.1278 31.3593 46.0595C31.7511 45.9912 32.0028 45.5993 31.9345 45.2075C31.8877 44.8624 31.5678 44.6107 31.2227 44.6107H31.0861H31.0825ZM23.5437 45.2075C23.4754 45.5993 23.7522 45.9876 24.1405 46.0595C24.5323 46.1278 24.9206 45.8762 24.9925 45.4627C25.0608 45.0709 24.784 44.6826 24.3957 44.6107H24.2591C23.914 44.6107 23.6156 44.8624 23.5473 45.2075H23.5437ZM36.6691 44.7725C36.3923 44.9091 36.2773 45.2542 36.4175 45.531C36.5325 45.8079 36.8776 45.9229 37.1545 45.7827C37.4313 45.6677 37.5463 45.3225 37.4313 45.0457C37.3378 44.8372 37.1329 44.7222 36.9244 44.7222C36.8309 44.7222 36.7626 44.7437 36.6727 44.7689L36.6691 44.7725ZM18.0757 45.0493C17.9391 45.3261 18.0541 45.6712 18.3273 45.7863C18.6257 45.9229 18.9493 45.8079 19.0859 45.5346C19.2009 45.2578 19.0859 44.9127 18.8091 44.7761C18.7407 44.7545 18.6473 44.7294 18.579 44.7294C18.3705 44.7294 18.1655 44.8444 18.0721 45.0529L18.0757 45.0493ZM27.0165 45.6461C27.0165 46.0379 27.34 46.3831 27.7535 46.3831C28.1453 46.3831 28.4904 46.0379 28.4904 45.6461C28.4904 45.2327 28.1453 44.9091 27.7535 44.9091C27.34 44.9091 27.0165 45.2327 27.0165 45.6461ZM33.2215 46.0379C32.9231 46.1314 32.7398 46.4298 32.8296 46.7282C32.8979 47.0266 33.1963 47.2099 33.4947 47.12C33.7931 47.0517 33.9765 46.7282 33.9081 46.4298C33.8398 46.1997 33.6098 46.0164 33.3581 46.0164C33.3114 46.0164 33.2646 46.0379 33.2215 46.0379ZM21.5916 46.4298C21.4981 46.7282 21.6851 47.0517 21.9835 47.12C22.2818 47.2135 22.5802 47.0266 22.6737 46.7282C22.742 46.4298 22.5802 46.1314 22.2818 46.0379C22.2351 46.0379 22.1668 46.0164 22.1201 46.0164C21.89 46.0164 21.6599 46.1997 21.5916 46.4298ZM29.5905 46.6815C29.267 46.703 29.0621 46.9798 29.0836 47.2782C29.1052 47.6018 29.382 47.8283 29.6804 47.7851C30.0039 47.7636 30.2089 47.5083 30.1873 47.1884C30.1657 46.89 29.9105 46.6815 29.6373 46.6815H29.5905ZM25.2909 47.1884C25.2693 47.5119 25.4994 47.7636 25.7978 47.7851C26.1213 47.8319 26.3946 47.6018 26.4197 47.2782C26.4413 46.9798 26.2112 46.703 25.9128 46.6815H25.8445C25.5677 46.6815 25.316 46.89 25.2945 47.1884H25.2909Z" fill="white"/>
</svg>
