<svg width="195" height="55" viewBox="0 0 195 55" fill="none" xmlns="http://www.w3.org/2000/svg">
<path d="M7.00686 24.9583C6.88043 25.6454 7.4352 26.1804 8.11827 26.0095C8.62586 25.8819 9.04287 25.5984 9.34289 25.1686C9.62971 24.7575 10.0335 24.5003 10.4637 24.2732C10.5996 24.2037 10.7468 24.1493 10.8902 24.0949C11.343 23.9259 11.8053 23.7795 12.2469 23.588C13.2602 23.1488 14.3225 22.8672 15.3849 22.58C16.4585 22.2891 17.485 22.7602 18.0624 23.5561C18.2455 23.8095 18.3172 24.1042 18.3832 24.4083C18.687 25.7636 19.1625 27.0532 19.9003 28.2396C20.6268 29.4071 21.6684 30.1636 22.9591 30.616C23.6233 30.8507 24.295 31.044 24.98 31.2054C25.4536 31.3181 25.8895 31.5377 26.2744 31.8418C26.9839 32.3974 27.1386 32.9962 26.7575 33.809C26.6178 34.1037 26.4216 34.3703 26.2461 34.6462C26.1669 34.772 26.0801 34.894 25.9574 35.0761C26.1235 35.0873 26.2291 35.1193 26.3197 35.0967C26.4876 35.0498 26.6575 34.9879 26.8103 34.9053C27.7764 34.3834 28.7501 33.8728 29.6973 33.3172C30.2257 33.0056 30.7087 32.6189 31.2106 32.2623C31.6277 31.9676 31.6956 31.5527 31.5899 31.0928C31.5465 30.9032 31.4767 30.7155 31.3993 30.5353C31.0238 29.6474 30.6559 28.7558 30.1068 27.9524C29.9973 27.7928 29.8596 27.637 29.8936 27.3667C30.0068 27.3235 30.1389 27.2409 30.2785 27.2203C32.3428 26.9312 34.2109 26.1203 35.9903 25.086C36.3658 24.8664 36.6847 24.5529 37.0394 24.2938C37.096 24.2525 37.2017 24.2469 37.2753 24.2638C37.3168 24.2751 37.3658 24.367 37.364 24.4196C37.3564 24.8589 37.3564 25.2981 37.3168 25.7336C37.2205 26.736 37.1281 27.7403 36.9922 28.737C36.8149 30.0379 36.4186 31.2486 35.7601 32.3505C35.7601 32.3505 35.7601 32.3542 35.7601 32.3561C35.0241 33.9104 29.769 39.2321 29.769 39.2321L23.1062 44.9104L22.3798 45.5317C22.2873 45.5955 22.1911 45.6575 22.0948 45.7175C21.8514 45.8658 21.625 46.0235 21.4627 46.2807C21.4401 46.3164 21.4155 46.3483 21.3891 46.3745L21.3476 46.4102C21.1665 46.5435 20.9363 46.4609 20.8551 46.4252C20.8362 46.4158 20.8249 46.4102 20.8249 46.4102C20.7079 46.352 20.606 46.2657 20.5041 46.1831C18.27 44.3679 16.0529 42.5321 13.93 40.5873C12.245 39.0443 10.6128 37.4488 9.03343 35.7988C8.15223 34.8771 7.34085 33.8991 6.63513 32.8329C5.89545 31.7104 5.4558 30.4902 5.30295 29.1612C5.14634 27.7909 4.95387 26.4244 4.83499 25.0503C4.69725 23.4566 4.61045 21.8592 4.59535 20.2599C4.57271 18.135 4.53308 16.01 4.48402 13.887C4.46704 13.1793 4.62365 12.5467 5.06709 11.9836C5.45202 11.4955 5.94451 11.1783 6.55022 11.0751C7.622 10.893 8.62963 10.5232 9.62782 10.1177C11.9506 9.1754 14.2905 8.27626 16.6793 7.51039C17.8587 7.13308 19.0701 6.91721 20.3041 6.83274C20.5683 6.81584 20.8306 6.79895 21.0948 6.78018C22.0024 6.72011 22.8836 6.84963 23.7591 7.10117C24.6479 7.35458 25.5328 7.60988 26.4008 7.93274C27.4707 8.33069 28.567 8.65731 29.6445 9.03462C30.1615 9.21482 30.6634 9.44195 31.1729 9.64281C31.8069 9.89434 32.4409 10.144 33.0749 10.3899C33.2806 10.4687 33.4995 10.5194 33.6939 10.617C34.0939 10.8198 34.5147 10.8892 34.9581 10.9455C36.1054 11.0901 36.9658 11.6851 37.4791 12.7307C37.6715 13.1211 37.6055 13.322 37.2413 13.5641C36.3827 14.1367 35.5204 14.7054 34.66 15.2761C34.6222 15.3005 34.5883 15.3268 34.5486 15.3474C34.2335 15.522 34.0486 15.4694 33.9259 15.1409C33.7825 14.7524 33.6674 14.3507 33.5278 13.9583C33.4486 13.7387 33.3919 13.5022 33.1882 13.3013C33.0655 13.3689 32.9504 13.4271 32.8428 13.4928C31.7126 14.1855 30.6898 15.0114 29.7483 15.9425C28.5614 17.1157 27.4217 18.3339 26.3895 19.6479C26.1876 19.907 26.0102 20.1867 25.8102 20.4476C25.5328 20.8099 25.3611 20.8718 24.9686 20.6372C24.412 20.3068 23.7818 20.1792 23.2006 19.9276C22.4949 19.6235 21.8024 19.2856 21.1136 18.9421C20.4249 18.5986 19.7003 18.4503 18.9399 18.516C17.6435 18.6268 16.6472 19.2256 16.0019 20.3669C15.9491 20.4607 15.8925 20.5583 15.8604 20.6616C15.6547 21.2961 15.1943 21.6677 14.6018 21.923C13.8734 22.2346 13.1489 22.5518 12.4375 22.8972C11.8053 23.2032 11.1827 23.5336 10.5788 23.8884C10.2147 24.1024 9.89765 24.1756 9.56178 23.864C9.3127 23.6331 9.01645 23.6199 8.69567 23.68C8.29941 23.7532 7.93712 23.9147 7.60125 24.1249C7.29934 24.3145 7.07668 24.5885 7.00875 24.9583H7.00686Z" fill="white"/>
<path d="M20.8533 46.4253C20.8796 46.4385 20.9041 46.4441 20.9286 46.4535C20.8985 46.4441 20.8721 46.4328 20.8533 46.4253Z" fill="white"/>
<path d="M21.2696 46.4536C21.1679 46.5007 21.053 46.4988 20.9287 46.4536C21.0172 46.4819 21.1472 46.5045 21.2696 46.4536Z" fill="white"/>
<path d="M21.3456 46.4104C21.3211 46.4292 21.2947 46.4424 21.2703 46.4537C21.2966 46.4405 21.323 46.4292 21.3456 46.4104Z" fill="white"/>
<path d="M23.1044 44.9104C22.8874 45.1432 22.6421 45.3478 22.3779 45.5317L23.1044 44.9104Z" fill="white"/>
<path d="M131.386 35.2601C131.288 35.307 131.251 35.3371 131.211 35.3427C131.124 35.3577 131.037 35.3709 130.949 35.3709C125.969 35.3558 120.989 35.3389 116.01 35.3202C115.947 35.3202 115.885 35.2901 115.783 35.2639C115.644 34.9203 115.719 34.5449 115.713 34.1826C115.708 33.8372 115.678 33.4881 115.764 33.1127C115.91 33.0976 116.036 33.0714 116.163 33.0714C116.934 33.0695 117.704 33.0714 118.476 33.0714C120.944 33.0714 123.412 33.0732 125.88 33.0714C126.118 33.0714 126.356 33.0545 126.618 33.0432C126.646 32.8761 126.684 32.7523 126.684 32.6265C126.69 31.136 126.69 29.6456 126.69 28.1552C126.69 28.0669 126.69 27.9787 126.68 27.8924C126.66 27.7122 126.575 27.622 126.388 27.5939C126.235 27.5714 126.08 27.5601 125.927 27.5582C122.844 27.5432 119.759 27.5301 116.676 27.5169C116.415 27.5169 116.153 27.5075 115.93 27.5019C115.704 27.2823 115.761 27.0533 115.763 26.8412C115.774 26.0302 115.77 25.2174 115.819 24.4103C115.927 22.6364 115.904 20.8606 115.912 19.0867C115.912 18.8014 115.91 18.5161 115.915 18.2326C115.917 18.1275 115.94 18.0224 115.959 17.8816C116.178 17.8647 116.37 17.8384 116.561 17.8366C117.838 17.8328 119.118 17.8328 120.395 17.8366C123.612 17.8422 126.829 17.8459 130.047 17.8534C130.618 17.8534 131.192 17.8741 131.764 17.8741C132.132 17.8741 132.29 18.0787 132.122 18.4297C132.094 18.4879 132.098 18.5724 132.056 18.6137C131.607 19.0435 131.605 19.6761 131.279 20.2205C131.079 20.2956 130.813 20.2618 130.552 20.2618C127.513 20.2599 124.471 20.2524 121.431 20.2524C121.195 20.2524 120.948 20.1999 120.697 20.3388C120.676 20.4533 120.635 20.579 120.633 20.7067C120.604 22.1934 120.587 23.6801 120.606 25.1499C120.833 25.3394 121.063 25.2794 121.274 25.2813C122.927 25.2906 124.58 25.2888 126.231 25.2982C127.773 25.3057 129.315 25.3207 130.858 25.3338C130.968 25.3338 131.079 25.3338 131.188 25.347C131.447 25.3751 131.547 25.4652 131.552 25.7205C131.564 26.2029 131.564 26.6854 131.558 27.1678C131.547 28.4386 131.534 29.7113 131.513 30.9821C131.49 32.2961 131.458 33.612 131.426 34.926C131.424 35.0348 131.403 35.1418 131.39 35.2639L131.386 35.2601Z" fill="white"/>
<path d="M52.9594 34.9543C52.9255 34.8079 52.899 34.7459 52.899 34.6821C52.9009 33.7398 52.9009 32.7975 52.9123 31.8552C52.9689 27.168 53.0292 22.4808 53.0877 17.7616C53.2066 17.726 53.3255 17.6753 53.4481 17.6603C53.601 17.6415 53.7557 17.6528 53.9105 17.6528C58.2278 17.6528 62.5451 17.6528 66.8624 17.6528C67.1002 17.6528 67.3379 17.6697 67.6096 17.679C67.6304 17.8461 67.6587 17.97 67.6587 18.0939C67.6455 20.3953 67.6304 22.6947 67.6115 24.9961C67.604 25.8502 67.5832 26.7043 67.5644 27.5584C67.5606 27.7517 67.5436 27.9451 67.536 28.0877C67.353 28.2811 67.1719 28.2567 66.9964 28.2548C64.1113 28.2454 61.2261 28.2342 58.341 28.2267C58.1693 28.2267 57.9957 28.2492 57.79 28.2642C57.7636 28.4275 57.7221 28.572 57.7202 28.7185C57.6843 30.5581 57.6541 32.3977 57.6202 34.2391C57.6164 34.4756 57.6692 34.7234 57.4937 34.9693C57.3673 34.9862 57.2183 35.0256 57.0711 35.0238C55.7106 35.0012 54.3482 35.0782 52.9594 34.9524V34.9543ZM57.9183 19.941C57.7315 20.1024 57.7541 20.3258 57.7523 20.5436C57.7485 20.9603 57.7428 21.3751 57.7409 21.7918C57.7353 22.9313 57.7296 24.0707 57.7315 25.2082C57.7315 25.3997 57.6862 25.6099 57.8994 25.7695C58.0296 25.777 58.1825 25.7958 58.3353 25.7958C59.7656 25.7901 61.1959 25.7807 62.6262 25.7714C62.647 25.7714 62.6696 25.762 62.6866 25.7488C62.7036 25.7376 62.7168 25.7169 62.7678 25.6606C62.7753 25.4879 62.7904 25.2739 62.7923 25.0581C62.8074 23.4587 62.8206 21.8613 62.83 20.262C62.83 20.1606 62.7885 20.0611 62.7696 19.9748C62.2451 19.879 58.592 19.8584 57.9221 19.9391L57.9183 19.941Z" fill="white"/>
<path d="M190.008 35.5079C185.583 35.5079 181.185 35.5079 176.843 35.5079C176.643 35.2357 176.692 35.0086 176.698 34.7946C176.722 33.612 176.758 32.4294 176.781 31.2468C176.811 29.7357 176.835 28.2246 176.854 26.7135C176.866 25.8369 176.862 24.9603 176.867 24.0837C176.867 23.8903 176.883 23.6951 176.89 23.5055C177.158 23.3459 177.426 23.3891 177.684 23.3872C179.051 23.3835 180.415 23.3872 181.781 23.3872C182.817 23.3872 183.851 23.3872 184.887 23.3872C185.083 23.3872 185.278 23.3872 185.506 23.3872C185.542 23.2014 185.593 23.0587 185.596 22.9123C185.615 22.0582 185.617 21.2041 185.636 20.35C185.649 19.7381 185.678 19.1261 185.708 18.5142C185.711 18.4335 185.766 18.3546 185.802 18.2627C185.898 18.2514 185.985 18.2251 186.068 18.2364C187.21 18.3903 188.355 18.2908 189.499 18.3209C189.734 18.3265 189.985 18.2645 190.201 18.4147C190.306 19.1712 190.148 34.7289 190.012 35.506L190.008 35.5079ZM181.447 33.3173C181.583 33.3398 181.707 33.3773 181.834 33.3792C182.845 33.3942 183.855 33.4092 184.866 33.4092C185.5 33.4092 185.544 33.3717 185.547 32.7429C185.561 30.5335 185.564 28.326 185.566 26.1166C185.566 25.9702 185.528 25.8219 185.51 25.6924C185.434 25.6661 185.393 25.6379 185.351 25.6379C184.142 25.6323 182.934 25.6285 181.724 25.6323C181.626 25.6323 181.53 25.7036 181.396 25.7543C181.39 28.1927 181.385 30.618 181.383 33.0451C181.383 33.1277 181.421 33.2103 181.445 33.3173H181.447Z" fill="white"/>
<path d="M142.397 35.3766C142.34 34.4906 142.387 33.6834 142.38 32.8781C142.37 32.0446 142.38 31.2131 142.382 30.3796C142.385 29.5687 142.383 28.7578 142.395 27.9469C142.406 27.1397 142.431 26.3325 142.393 25.5385C142.285 25.4972 142.225 25.4522 142.165 25.4522C141.019 25.4371 139.874 25.4259 138.73 25.4165C138.647 25.4165 138.562 25.4521 138.449 25.4765C138.421 25.6042 138.383 25.7262 138.37 25.8501C138.355 25.9796 138.364 26.1129 138.364 26.2443C138.349 29.0487 138.334 31.8551 138.317 34.6595C138.317 34.8528 138.3 35.0481 138.289 35.2583C138.157 35.294 138.055 35.3465 137.953 35.3465C136.741 35.3484 135.53 35.3465 134.319 35.3371C134.124 35.3371 133.932 35.2921 133.707 35.2639C133.694 35.0349 133.671 34.8416 133.673 34.6482C133.687 33.2235 133.702 31.7987 133.721 30.3759C133.721 30.2445 133.717 30.1056 133.76 29.9854C133.911 29.5631 133.905 29.1276 133.921 28.6883C134.034 25.4672 134.024 22.246 134.03 19.0248C134.03 18.7395 134.034 18.4542 134.054 18.1708C134.068 17.9924 134.173 17.8929 134.347 17.8704C134.456 17.8554 134.566 17.8535 134.677 17.8535C135.734 17.8591 136.792 17.8685 137.849 17.876C137.915 17.876 137.981 17.876 138.047 17.8836C138.366 17.9173 138.479 18.0206 138.489 18.3378C138.5 18.7545 138.498 19.1713 138.489 19.5861C138.466 20.5941 138.434 21.6003 138.415 22.6083C138.411 22.7772 138.455 22.9462 138.474 23.0926C138.738 23.2428 138.985 23.1921 139.223 23.1921C141.514 23.1977 143.804 23.1958 146.095 23.1977C146.378 23.1977 146.663 23.2071 146.889 23.2127C147.116 23.3835 147.071 23.5694 147.071 23.7402C147.067 25.1649 147.063 26.5897 147.056 28.0144C147.042 30.2501 147.023 32.4858 147.006 34.7196C147.006 34.7853 147.006 34.851 147.005 34.9167C146.982 35.3522 146.895 35.4441 146.44 35.4498C145.912 35.4573 145.384 35.4498 144.855 35.4404C144.284 35.4329 143.71 35.4178 143.138 35.4028C142.921 35.3972 142.704 35.3859 142.402 35.3747L142.397 35.3766Z" fill="white"/>
<path d="M168.484 33.4393C168.514 33.734 168.493 33.9574 168.252 34.1639C168.101 34.2934 168.046 34.5393 167.959 34.7383C167.857 34.9767 167.767 35.2188 167.669 35.4647C167.478 35.4816 167.329 35.5079 167.178 35.5079C163.325 35.5079 159.47 35.5042 155.617 35.4985C154.977 35.4985 154.941 35.4666 154.951 34.8265C154.975 33.1409 155.024 31.4533 155.045 29.7677C155.069 27.883 155.073 26.0002 155.086 24.1156C155.086 23.8753 155.086 23.6369 155.086 23.3723C155.232 23.3235 155.349 23.2521 155.468 23.2465C155.798 23.2296 156.128 23.239 156.458 23.2409C157.36 23.2502 158.264 23.2653 159.166 23.2728C161.544 23.2934 163.921 23.3103 166.299 23.3328C166.761 23.3366 167.223 23.3497 167.686 23.3685C167.812 23.3741 167.935 23.4173 168.08 23.4473C168.101 23.5731 168.133 23.6782 168.133 23.7834C168.121 26.0828 168.148 28.3842 168.008 30.6799C168.003 30.7625 167.961 30.8414 167.923 30.9559C167.721 30.9709 167.529 30.9953 167.336 30.9953C165.046 30.9953 162.755 30.9878 160.466 30.9878C160.206 30.9878 159.938 30.9334 159.692 31.0535C159.574 31.5359 159.564 32.6021 159.681 33.2366C159.813 33.2554 159.959 33.2929 160.106 33.2948C161.581 33.3098 163.057 33.3173 164.531 33.3342C165.719 33.3473 166.906 33.3661 168.095 33.3868C168.221 33.3886 168.35 33.4224 168.482 33.4412L168.484 33.4393ZM163.527 28.4874C163.561 28.3579 163.612 28.2359 163.621 28.112C163.676 27.2955 163.634 26.1035 163.544 25.6905C163.487 25.6717 163.427 25.6361 163.366 25.6361C162.245 25.6305 161.123 25.6286 160.002 25.6323C159.923 25.6323 159.843 25.683 159.751 25.7149C159.681 26.5183 159.63 27.3011 159.655 28.0857C159.666 28.4405 159.777 28.5438 160.149 28.5456C161.161 28.5494 162.172 28.5456 163.183 28.54C163.291 28.54 163.397 28.5081 163.527 28.4874Z" fill="white"/>
<path d="M69.306 34.9541C69.2418 34.3496 69.3815 23.4041 69.4513 22.7902C69.6154 22.6382 69.823 22.6832 70.0155 22.6832C72.4175 22.6832 74.8177 22.6889 77.2198 22.6945C78.6954 22.6983 80.171 22.7001 81.6485 22.7058C82.4636 22.7095 82.4693 22.7114 82.4674 23.4979C82.4617 25.1855 82.4523 26.873 82.4353 28.5605C82.4297 29.0636 82.3919 29.5667 82.3617 30.0698C82.3447 30.3344 82.2504 30.4283 81.9994 30.4452C81.8466 30.4546 81.6919 30.4471 81.5371 30.4452C80.3918 30.4358 79.2464 30.4283 78.101 30.4133C76.8896 30.4001 75.6801 30.3795 74.4686 30.3645C74.2517 30.3626 74.0271 30.325 73.8384 30.4639C73.7384 30.9689 73.7309 32.2097 73.8252 32.8385C74.0403 32.9418 74.2856 32.8948 74.5196 32.8948C76.899 32.9005 79.2785 32.9023 81.6579 32.9061C81.9221 32.9061 82.1862 32.9099 82.4504 32.9249C82.6316 32.9361 82.7221 33.0769 82.6617 33.2496C82.4636 33.8034 82.2655 34.3571 82.0504 34.9034C82.0164 34.9878 81.8994 35.0704 81.8051 35.0948C81.6598 35.1324 81.4994 35.1286 81.3466 35.1268C79.2313 35.1099 77.1179 35.0873 75.0027 35.0723C73.7686 35.0629 72.5345 35.0723 71.3024 35.0648C70.7967 35.0629 70.2891 35.0498 69.7834 35.031C69.6343 35.0254 69.489 34.9822 69.3135 34.9522L69.306 34.9541ZM73.8214 25.2174C73.7082 26.0245 73.7327 27.5657 73.8705 28.0575C75.0404 28.157 76.2235 28.1288 77.4047 28.1194C77.5085 28.1194 77.6123 28.0744 77.7576 28.0387C77.7991 27.5525 77.7934 27.0739 77.7802 26.5952C77.7689 26.1221 77.8406 25.6453 77.7595 25.1855C77.0783 25.0691 74.38 25.0878 73.8195 25.2174H73.8214Z" fill="white"/>
<path d="M153.133 35.4234C152.899 35.4497 152.749 35.4835 152.598 35.4835C151.541 35.4797 150.484 35.4722 149.428 35.4628C149.295 35.4628 149.163 35.4572 149.033 35.4403C148.884 35.4196 148.799 35.322 148.788 35.1756C148.777 35.0461 148.784 34.9128 148.786 34.7814C148.801 31.365 148.814 27.9487 148.835 24.5323C148.837 24.1231 148.778 23.7026 148.954 23.2671C149.12 23.2483 149.29 23.2126 149.46 23.2126C150.56 23.2164 151.66 23.2277 152.762 23.2389C152.85 23.2389 152.937 23.2389 153.024 23.2539C153.194 23.2784 153.305 23.3835 153.318 23.5543C153.333 23.7289 153.333 23.9053 153.33 24.0799C153.288 26.1372 153.237 28.1946 153.205 30.2519C153.181 31.7405 153.183 33.229 153.169 34.7195C153.167 34.9335 153.149 35.1493 153.133 35.4253V35.4234Z" fill="white"/>
<path d="M153.299 18.0656C153.388 18.9592 153.362 21.2417 153.254 21.7692C152.552 21.8706 151.829 21.8049 151.111 21.8105C150.409 21.8162 149.707 21.8274 148.991 21.7974C148.944 21.6622 148.878 21.5646 148.88 21.4651C148.891 20.3933 148.91 19.3196 148.933 18.2477C148.933 18.1877 148.976 18.1276 149.005 18.0525C149.086 18.0319 149.169 17.9924 149.252 17.9924C150.507 17.9924 151.762 17.9999 153.016 18.0075C153.099 18.0075 153.182 18.0412 153.299 18.0675V18.0656Z" fill="white"/>
<path d="M22.3779 45.5317L21.3872 46.3746C21.4136 46.3483 21.4382 46.3164 21.4608 46.2807C21.6231 46.0235 21.8495 45.8659 22.0929 45.7176C22.1892 45.6575 22.2854 45.5956 22.3779 45.5317Z" fill="white"/>
<path d="M108.843 28.0032L113.811 23.025C113.8 22.9912 113.785 22.9574 113.764 22.9199C113.596 22.9105 113.402 22.8898 113.21 22.888C111.889 22.8805 110.566 22.8767 109.245 22.8711C109.07 22.8711 108.892 22.8654 108.717 22.8842C108.658 22.8898 108.592 22.9011 108.532 22.9199L104.726 26.7286C104.726 26.7286 103.971 27.1622 103.971 26.402V17.7559C103.918 17.7446 103.854 17.739 103.777 17.739C102.697 17.7165 101.618 17.6996 100.541 17.6846C100.388 17.6827 100.231 17.6921 100.08 17.7146C99.9104 17.739 99.8047 17.8535 99.7745 18.0168C99.7519 18.1444 99.7538 18.2777 99.7519 18.4091C99.7406 19.1318 99.7255 19.8545 99.7217 20.5791C99.7009 24.4573 99.6859 28.3354 99.6632 32.2154C99.6632 32.4219 99.6821 32.634 99.6745 32.8405V35.1212C99.8274 35.2076 99.9897 35.2245 100.161 35.2245C101.284 35.2207 102.409 35.2245 103.531 35.2207C103.679 35.2207 103.826 35.1738 103.973 35.1494C104.081 34.8885 104.047 34.6463 104.048 34.4098C104.062 32.788 104.071 31.1661 104.084 29.5462C104.084 29.4448 104.115 29.3434 104.133 29.2195C104.301 29.2101 104.439 29.1933 104.543 29.2946C104.554 29.3059 104.567 29.319 104.579 29.334C104.632 29.4054 104.69 29.4767 104.732 29.5555L106.434 31.9132C106.505 31.9996 106.571 32.0915 106.632 32.1873L107.485 33.3699C107.569 33.4337 107.649 33.5276 107.673 33.6177C107.675 33.6271 107.679 33.6346 107.681 33.6421L108.76 35.1381C108.922 35.2226 109.109 35.2695 109.33 35.2677C110.628 35.2583 111.928 35.2827 113.228 35.2883C113.355 35.2883 113.481 35.2489 113.619 35.2264L108.821 28.3317C108.821 28.3317 108.724 28.1515 108.843 28.005V28.0032Z" fill="white"/>
<path d="M89.2116 30.434C89.2248 28.8572 89.2323 27.2804 89.2474 25.7036C89.2474 25.5591 89.2833 25.4126 89.3021 25.2831C89.8267 25.1592 90.991 25.1236 93.1572 25.1949C94.4327 25.2381 95.7045 25.2287 96.9744 25.2324C97.2046 24.8063 97.3443 24.399 97.4367 23.971C97.4575 23.8734 97.5028 23.7476 97.5783 23.6988C97.8632 23.5149 97.833 23.2258 97.9009 22.9667C97.6462 22.8128 97.399 22.8691 97.1631 22.8672C93.8176 22.8466 90.4702 22.8316 87.1246 22.8128C86.5529 22.8091 85.9811 22.7865 85.4094 22.779C85.2358 22.7771 85.0527 22.7603 84.9056 22.9161C84.7999 23.1563 84.8546 23.421 84.8471 23.6819C84.8339 24.0893 84.8527 24.4966 84.8339 24.9021V35.1644C88.6908 35.1644 92.6043 35.1643 96.5178 35.1625C96.6254 35.1625 96.731 35.1306 96.8612 35.1099C97.0839 34.391 97.3613 33.7621 97.6217 33.092C97.4764 33.0507 97.3348 32.9906 97.1896 32.9737C96.9726 32.9493 96.7499 32.9512 96.531 32.9493C94.2856 32.9381 92.0401 32.9268 89.7946 32.9137C89.6022 32.9137 89.3946 32.9587 89.1965 32.7466C89.1927 32.4425 89.1833 32.0934 89.1851 31.7461C89.1889 31.3087 89.2097 30.8713 89.2134 30.4321L89.2116 30.434Z" fill="white"/>
<path d="M175.024 28.0857V18.0299C174.584 18.0299 174.107 18.0299 173.626 18.0299C173.141 18.0299 172.656 18.0224 172.171 18.0299C171.671 18.0393 171.169 17.9717 170.663 18.0543C170.633 18.1782 170.595 18.2608 170.593 18.3434C170.531 23.9541 170.473 29.563 170.416 35.1737C170.416 35.2563 170.444 35.3389 170.471 35.476C170.684 35.4872 170.837 35.5041 170.988 35.5041C172.243 35.4985 173.497 35.4891 174.752 35.4797C174.771 35.4797 174.794 35.4666 174.811 35.4553C174.83 35.444 174.843 35.4272 174.888 35.3859C174.897 35.3089 174.92 35.2038 174.92 35.0986C174.952 32.8649 174.984 30.6292 175.011 28.3954C175.011 28.2922 175.016 28.1889 175.022 28.0857H175.024Z" fill="white"/>
</svg>
