<svg width="24" height="24" viewBox="0 0 24 24" fill="none" xmlns="http://www.w3.org/2000/svg">
<g id="Fenix Icon">
<path id="Vector" d="M12 24C18.6274 24 24 18.6274 24 12C24 5.37258 18.6274 0 12 0C5.37258 0 0 5.37258 0 12C0 18.6274 5.37258 24 12 24Z" fill="url(#paint0_linear_6677_43558)"/>
<g id="Group">
<path id="Vector_2" d="M6.09268 10.0305C8.13643 11.2492 11.1364 12.9367 11.1364 12.9367L10.5927 11.3242C10.5927 11.3242 5.00519 8.62422 4.23644 7.48047C4.23644 7.49922 4.04893 8.81171 6.09268 10.0305Z" fill="white"/>
<path id="Vector_3" d="M16.5185 11.2506L12.8622 13.4631L11.9997 15.6006L11.156 13.5006L7.4997 11.2881C7.4997 11.2881 3.11221 8.66311 2.79346 7.63186C2.79346 7.63186 2.86846 9.63811 4.51846 10.7631C6.16846 11.8881 10.4622 14.3069 10.4622 14.3069L11.9997 18.3006V18.3569L12.0185 18.3194L12.0372 18.3944V18.2631L13.5747 14.2694C13.5747 14.2694 17.8872 11.8506 19.5185 10.7256C21.1685 9.60061 21.2435 7.59436 21.2435 7.59436C20.8872 8.62561 16.5185 11.2506 16.5185 11.2506Z" fill="white"/>
<path id="Vector_4" d="M17.9065 9.99292C19.9503 8.77417 19.7628 7.46167 19.7628 7.46167C18.994 8.58667 13.4065 11.3054 13.4065 11.3054L12.8628 12.9179C12.8628 12.8992 15.8628 11.2304 17.9065 9.99292Z" fill="white"/>
<path id="Vector_5" d="M13.0878 11.3241L11.9815 9.31787L10.894 11.3241L11.9815 15.0179L13.0878 11.3241Z" fill="white"/>
<path id="Vector_6" d="M10.3867 14.8694L6.0367 12.2819C6.0367 12.2819 5.9617 14.9069 10.3867 14.8694Z" fill="white"/>
<path id="Vector_7" d="M13.5938 14.8694C18.0188 14.9069 17.9438 12.2819 17.9438 12.2819L13.5938 14.8694Z" fill="white"/>
</g>
</g>
<defs>
<linearGradient id="paint0_linear_6677_43558" x1="2.50316" y1="13.875" x2="38.1338" y2="13.9224" gradientUnits="userSpaceOnUse">
<stop stop-color="#FE5E35"/>
<stop offset="0.55" stop-color="#F67702"/>
<stop offset="1" stop-color="#FFEF76"/>
</linearGradient>
</defs>
</svg>
