<svg xmlns="http://www.w3.org/2000/svg" width="163" height="39" viewBox="0 0 163 39" fill="none">
    <g opacity="0.5">
        <path
            d="M19.7879 19.0895C19.661 18.9097 19.6995 18.7507 19.7477 18.5981C19.8923 18.1437 20.0416 17.6908 20.191 17.2363C20.3532 16.7417 20.5137 16.2471 20.6808 15.7557C20.8108 15.3719 20.8703 15.3333 21.2685 15.3349C25.2303 15.3365 29.1921 15.3365 33.1523 15.343C33.3707 15.343 33.5088 15.3012 33.5794 15.0587C33.6967 14.6556 33.8637 14.267 33.997 13.8687C34.1961 13.2778 34.3904 12.6836 34.5783 12.0894C34.6988 11.712 34.8015 11.3298 34.9188 10.9508C34.9686 10.787 35.0408 10.6312 35.089 10.4674C35.187 10.1334 35.081 10.0001 34.7309 10.0001C24.6779 10.0001 14.6265 10.0001 4.57347 10.0033C4.31652 10.0033 4.05958 10.0386 3.79139 10.0579C3.77051 9.87643 3.89417 9.79935 3.99855 9.72066C5.06006 8.93216 6.12478 8.14526 7.18789 7.35836C7.97158 6.78024 8.75366 6.2005 9.53895 5.62558C9.69793 5.50996 9.87297 5.45375 10.0801 5.45375C18.736 5.46017 27.3919 5.46339 36.0477 5.45215C36.4781 5.45215 36.8073 5.57419 37.1381 5.82472C38.0053 6.48314 38.887 7.11908 39.7638 7.76466C39.9742 7.91883 40.1878 8.06817 40.3965 8.22395C40.6278 8.39739 40.6599 8.58046 40.5603 8.84704C40.4062 9.25816 40.2713 9.6773 40.1283 10.0932C39.9405 10.6408 39.7461 11.1853 39.5663 11.7345C39.4314 12.144 39.3158 12.5599 39.1889 12.9726C39.0652 13.3709 38.9432 13.7708 38.8099 14.1658C38.7119 14.4565 38.5273 14.6717 38.2414 14.8098C37.5268 15.1519 36.8186 15.5068 36.1104 15.8601C35.3395 16.2439 34.5719 16.6309 33.8011 17.0131C33.5586 17.1335 33.3064 17.2331 33.0639 17.3552C32.9692 17.4033 32.8921 17.4868 32.7877 17.5671C32.86 17.6635 32.9001 17.7502 32.9676 17.8C33.8251 18.4343 34.6859 19.0622 35.5451 19.6918C35.8357 19.9053 36.12 20.1302 36.4235 20.3245C36.6628 20.4771 36.6933 20.6682 36.613 20.9107C36.4042 21.5482 36.1987 22.1874 35.9931 22.8265C35.794 23.4416 35.5981 24.0582 35.3973 24.6733C35.2239 25.2016 35.044 25.7284 34.8674 26.2551C34.7919 26.4799 34.7357 26.7144 34.6329 26.9264C34.5735 27.05 34.4579 27.1753 34.3358 27.2379C33.6116 27.6137 32.8777 27.9734 32.1454 28.3332C31.1497 28.823 30.1444 29.2951 29.1568 29.8026C28.789 29.9905 28.4229 30.0692 28.0166 30.0676C20.9634 30.0627 13.9102 30.0643 6.85868 30.0643C6.74466 30.0643 6.62904 30.0643 6.51502 30.0643C6.07821 30.0595 6.01558 29.9519 6.15529 29.5505C6.30464 29.1217 6.41706 28.6817 6.55195 28.2481C6.6467 27.9445 6.75269 27.6458 6.85065 27.3439C7 26.8798 7.14293 26.4125 7.29388 25.9484C7.38542 25.669 7.49623 25.3944 7.58455 25.1133C7.70339 24.7359 7.80617 24.3537 7.91858 23.9731C7.99567 23.713 8.07275 23.4528 8.15626 23.1943C8.29758 22.751 8.44372 22.3078 8.58664 21.8646C8.68781 21.5514 8.78738 21.2366 8.89016 20.9235C9.04433 20.4514 9.2001 19.9792 9.35427 19.5071C9.50522 19.0446 9.65939 18.5837 9.80392 18.1196C9.92115 17.7406 10.0239 17.3568 10.1347 16.9746C10.2086 16.724 10.2857 16.4735 10.366 16.2246C10.6005 15.4891 10.8333 14.7536 11.0726 14.0213C11.2621 13.4416 11.4709 12.8666 11.6571 12.2869C11.7567 11.9754 11.8322 11.6542 11.9141 11.3362C11.9928 11.0279 12.1309 10.9861 12.3943 11.1836C13.3385 11.887 14.286 12.5872 15.2319 13.2906C15.4407 13.4464 15.6478 13.6054 15.855 13.7643C16.0782 13.9346 16.0782 14.0004 15.9819 14.2718C15.847 14.646 15.741 15.0298 15.6205 15.4088C15.5033 15.7749 15.3796 16.1395 15.264 16.5072C15.1628 16.8316 15.0745 17.1608 14.9701 17.4836C14.8738 17.7872 14.763 18.0842 14.6634 18.3862C14.5237 18.8069 14.3904 19.2293 14.2539 19.65C14.0692 20.2217 13.8797 20.7934 13.6983 21.3667C13.5923 21.7008 13.5023 22.0396 13.3979 22.3736C13.3064 22.6659 13.2052 22.955 13.1105 23.2456C12.9547 23.721 12.8006 24.1963 12.6464 24.6733C12.5966 24.8243 12.5292 24.972 12.5067 25.1278C12.481 25.3044 12.5581 25.3751 12.7379 25.396C12.7941 25.4024 12.8519 25.396 12.9098 25.396C18.5658 25.396 24.2218 25.396 29.8778 25.3976C30.1733 25.3976 30.3002 25.3157 30.3708 25.0764C30.4752 24.7279 30.5764 24.3762 30.6872 24.0293C30.8285 23.5877 30.9763 23.1461 31.1224 22.7061C31.3938 21.8887 31.6684 21.0728 31.9382 20.2538C32.0233 19.9953 32.0956 19.7335 32.1791 19.4734C32.277 19.1634 32.224 19.0879 31.8852 19.0879C30.5908 19.0879 29.2981 19.0879 28.0037 19.0879C25.3925 19.0879 22.7829 19.0879 20.1717 19.0879C20.0368 19.0879 19.9003 19.0879 19.7863 19.0879L19.7879 19.0895Z"
            fill="url(#paint0_linear_973_13475)" />
        <path
            d="M99.9769 10.1429C100.46 10.4865 100.904 10.7965 101.34 11.1128C102.108 11.6733 102.871 12.2386 103.637 12.8006C103.918 13.0078 103.94 13.1234 103.812 13.4382C103.671 13.7835 103.558 14.1416 103.433 14.4933C103.388 14.6217 103.337 14.7486 103.295 14.8771C103.261 14.9847 103.224 15.0971 103.216 15.2079C103.206 15.3508 103.274 15.4504 103.434 15.4536C103.492 15.4536 103.548 15.4536 103.606 15.4536C109.445 15.4488 115.284 15.444 121.124 15.4392C121.355 15.4392 121.565 15.4648 121.766 15.6158C122.697 16.316 123.64 17.0001 124.578 17.689C124.669 17.7565 124.764 17.8223 124.854 17.8914C125.077 18.0632 125.109 18.2126 125.02 18.4808C124.811 19.1038 124.613 19.7318 124.406 20.3548C124.287 20.7114 124.156 21.0631 124.035 21.4196C123.903 21.8146 123.78 22.2145 123.65 22.6112C123.402 23.3675 123.147 24.1207 122.905 24.8787C122.718 25.4633 122.554 26.0542 122.365 26.6372C122.257 26.9696 122.061 27.1976 121.695 27.3357C121.167 27.5349 120.68 27.8432 120.173 28.0985C118.978 28.6992 117.787 29.303 116.584 29.8891C116.377 29.9903 116.128 30.0546 115.898 30.0546C108.673 30.0626 101.45 30.0594 94.2246 30.0642C93.7283 30.0642 93.5661 29.9839 93.7685 29.4572C94.0319 28.7698 94.2198 28.0536 94.4478 27.3518C94.6341 26.7817 94.83 26.2148 95.0259 25.6463C95.0516 25.5725 95.0934 25.5034 95.1367 25.4119C95.2813 25.4038 95.429 25.3878 95.5751 25.3878C102.856 25.3878 110.139 25.3878 117.42 25.3878C117.801 25.3878 117.909 25.2818 117.99 24.8996C118.04 24.6683 118.137 24.4483 118.212 24.2235C118.435 23.5554 118.663 22.889 118.882 22.2193C119.05 21.7006 119.208 21.1787 119.372 20.66C119.405 20.5524 119.441 20.4448 119.482 20.3388C119.564 20.1364 119.518 20.0417 119.299 20.008C119.221 19.9951 119.139 19.9999 119.06 19.9999C113.404 19.9999 107.748 19.9983 102.092 20.0096C101.723 20.0096 101.47 19.8201 101.207 19.6322C100.224 18.9256 99.2463 18.2094 98.2683 17.4963C98.1301 17.3968 98.0001 17.286 97.862 17.188C97.7239 17.0916 97.7158 16.9696 97.7688 16.8283C97.8989 16.4798 98.0354 16.1329 98.1558 15.7796C98.294 15.3733 98.416 14.9606 98.5477 14.5511C98.7436 13.9344 98.9363 13.3161 99.1403 12.7011C99.333 12.1213 99.5433 11.5464 99.7361 10.9683C99.8244 10.7033 99.8902 10.4303 99.9737 10.1396L99.9769 10.1429Z"
            fill="url(#paint1_linear_973_13475)" />
        <path
            d="M72.5081 18.8101C72.6269 18.786 72.6815 18.7667 72.7345 18.7667C74.8639 18.7667 76.9934 18.7716 79.1228 18.7667C79.3573 18.7667 79.5339 18.8422 79.7154 18.9803C80.756 19.7785 81.8063 20.5654 82.8501 21.3603C83.69 21.9994 84.5251 22.6434 85.3618 23.2858C85.9014 23.7001 86.4361 24.1209 86.9837 24.5223C87.0801 24.593 87.2295 24.593 87.3756 24.6299C87.4832 24.3168 87.5779 24.0534 87.663 23.7852C87.9441 22.9084 88.2187 22.03 88.4981 21.1531C88.7053 20.5043 88.9108 19.8572 89.1244 19.21C89.3059 18.6608 89.5034 18.1164 89.6817 17.5655C89.8551 17.0356 90.0093 16.5008 90.1811 15.9709C90.377 15.367 90.5906 14.7696 90.7849 14.1642C90.9712 13.5813 91.135 12.9919 91.3229 12.4089C91.4931 11.879 91.6794 11.3555 91.8609 10.8287C91.9203 10.6585 91.9894 10.4915 92.044 10.3197C92.0889 10.1799 92.0135 10.0531 91.8545 10.0097C91.779 9.99044 91.6955 9.99686 91.6152 9.99686C84.3452 9.99686 77.0737 9.99686 69.8037 9.99686C69.5435 9.99686 69.2834 9.98884 69.0377 9.98402C68.9751 9.81861 69.057 9.7624 69.1437 9.69817C70.1923 8.92733 71.2394 8.15488 72.2864 7.38083C73.0958 6.78183 73.9052 6.18283 74.7146 5.58222C74.8479 5.48426 74.9924 5.44892 75.161 5.44892C81.0114 5.45374 86.8617 5.46338 92.7136 5.44411C93.2853 5.4425 93.7382 5.58382 94.183 5.92428C95.1723 6.68227 96.1856 7.40814 97.1893 8.14686C97.4687 8.35241 97.5201 8.51622 97.4125 8.85506C97.2568 9.34166 97.1058 9.82985 96.9436 10.3148C96.7605 10.8625 96.5598 11.4036 96.3799 11.9529C96.1937 12.5246 96.0347 13.1059 95.8468 13.6776C95.6621 14.2381 95.4517 14.7889 95.2638 15.3494C95.137 15.7268 95.0358 16.1106 94.9153 16.4896C94.7291 17.0725 94.5347 17.6538 94.3468 18.2368C94.1798 18.7555 94.0192 19.279 93.849 19.7977C93.6435 20.4224 93.4267 21.0439 93.2211 21.6686C93.0011 22.3367 92.7907 23.008 92.5755 23.6776C92.4326 24.1209 92.2849 24.5625 92.1467 25.0073C91.9669 25.5822 91.8015 26.162 91.6152 26.7337C91.4305 27.3054 91.225 27.8691 91.0355 28.4392C90.9166 28.7941 90.8122 29.1538 90.6998 29.5103C90.6693 29.6083 90.6292 29.703 90.5938 29.7994C90.5216 29.9969 90.3802 30.0708 90.1699 30.0708C89.1164 30.0643 88.0629 30.0659 87.0094 30.0675C86.783 30.0675 86.5903 29.9808 86.4185 29.8459C85.6701 29.2598 84.9234 28.6704 84.175 28.0842C83.0782 27.2235 81.9797 26.3675 80.8861 25.5052C79.9354 24.7552 78.9895 23.9988 78.0404 23.2472C77.0897 22.4957 76.139 21.7425 75.1867 20.9941C74.6182 20.5477 74.0433 20.1077 73.47 19.6661C73.2114 19.4669 72.9465 19.2726 72.6927 19.067C72.6285 19.0141 72.5916 18.9257 72.5129 18.8101H72.5081Z"
            fill="url(#paint2_linear_973_13475)" />
        <path
            d="M129.77 9.96151C129.805 9.79931 129.821 9.6869 129.855 9.58091C130.086 8.85825 130.317 8.13398 130.555 7.41293C130.751 6.82195 130.96 6.23419 131.159 5.64482C131.202 5.51635 131.279 5.45532 131.409 5.45532C131.559 5.45532 131.706 5.46175 131.856 5.46175C139.137 5.46175 146.418 5.46175 153.699 5.45532C153.892 5.45532 154.062 5.48905 154.213 5.60146C155.156 6.30806 156.097 7.01466 157.036 7.72448C157.796 8.29779 158.551 8.87591 159.31 9.44601C159.445 9.54718 159.606 9.61624 159.741 9.71901C159.843 9.7961 159.98 9.86997 159.932 10.0611C159.72 10.0402 159.508 10.0017 159.297 10.0017C155.244 9.99844 151.192 9.99845 147.139 9.99845C146.829 9.99845 146.659 10.1269 146.559 10.4256C146.32 11.1483 146.073 11.8661 145.841 12.592C145.655 13.1749 145.496 13.7659 145.313 14.3489C145.151 14.8676 144.971 15.3831 144.799 15.8986C144.709 16.1667 144.618 16.4333 144.534 16.7031C144.422 17.0612 144.322 17.4226 144.208 17.7807C144.088 18.1597 143.956 18.5355 143.836 18.9145C143.588 19.6917 143.346 20.4706 143.097 21.2462C142.996 21.5594 142.874 21.8677 142.771 22.1809C142.58 22.7638 142.395 23.3484 142.211 23.9345C141.981 24.6588 141.761 25.3863 141.525 26.1073C141.345 26.6566 141.135 27.1962 140.956 27.747C140.77 28.3203 140.608 28.9 140.431 29.4765C140.388 29.6163 140.344 29.764 140.264 29.8828C140.153 30.0434 139.975 30.0723 139.781 30.0707C138.613 30.0643 137.446 30.0659 136.278 30.0659C136.106 30.0659 135.935 30.0691 135.763 30.0659C135.43 30.0611 135.334 29.9278 135.44 29.6114C135.559 29.2565 135.684 28.9032 135.805 28.5483C136.034 27.8722 136.272 27.1978 136.489 26.5168C136.675 25.9339 136.829 25.3397 137.017 24.7568C137.195 24.2059 137.409 23.668 137.585 23.1171C137.775 22.5229 137.936 21.9207 138.115 21.3233C138.173 21.129 138.252 20.9395 138.315 20.7468C138.461 20.2923 138.6 19.8363 138.748 19.3818C138.843 19.0895 138.944 18.8004 139.044 18.5098C139.182 18.1035 139.325 17.6972 139.458 17.2893C139.652 16.6967 139.842 16.1025 140.031 15.5083C140.214 14.935 140.391 14.3601 140.577 13.7884C140.76 13.2279 140.956 12.6707 141.139 12.1102C141.237 11.8099 141.318 11.5032 141.414 11.2029C141.473 11.0198 141.552 10.8448 141.615 10.6633C141.652 10.5557 141.687 10.4449 141.705 10.3341C141.74 10.1109 141.658 10.0097 141.436 10C141.276 9.99363 141.115 10.0033 140.956 10.0033C137.499 10.0033 134.041 10.0033 130.584 10.0033C130.414 10.0033 130.242 10.0257 130.071 10.0225C129.986 10.0225 129.901 9.98881 129.773 9.96312L129.77 9.96151Z"
            fill="url(#paint3_linear_973_13475)" />
        <path
            d="M44.4001 5.12769C44.5511 5.23849 44.686 5.33646 44.8192 5.43602C45.6206 6.0286 46.4219 6.62439 47.2249 7.21537C47.4883 7.40969 47.7677 7.58473 48.0246 7.78707C48.3442 8.0376 48.3009 8.10344 48.2093 8.36199C47.9781 9.01399 47.75 9.66599 47.5348 10.3228C47.3582 10.8624 47.2072 11.41 47.0338 11.9496C46.8427 12.5438 46.6323 13.1315 46.4412 13.7257C46.263 14.2766 46.0992 14.8322 45.9257 15.3846C45.8454 15.6432 45.7539 15.8985 45.672 16.1555C45.5371 16.5762 45.4086 17.0002 45.2737 17.4209C45.1806 17.7132 45.0826 18.0039 44.9863 18.2962C44.8369 18.749 44.6876 19.2003 44.5382 19.6532C44.3503 20.2216 44.1576 20.7901 43.9729 21.3602C43.7931 21.9111 43.6244 22.4651 43.4446 23.0159C43.2503 23.6101 43.0527 24.2027 42.8472 24.7921C42.6705 25.2979 42.7332 25.3927 43.2647 25.3911C49.0572 25.3911 54.8498 25.3911 60.6407 25.3911C60.6519 25.3911 60.6632 25.3911 60.6744 25.3911C61.0438 25.3975 61.0935 25.4858 60.9635 25.8295C60.8511 26.125 60.7659 26.4317 60.668 26.732C60.57 27.0339 60.4721 27.3358 60.3725 27.6377C60.2264 28.0778 60.0802 28.5162 59.9341 28.9562C59.8634 29.1714 59.7895 29.3866 59.7285 29.6066C59.6338 29.9438 59.3929 30.0723 59.107 30.0723C53.3723 30.0643 47.6376 30.0659 41.9013 30.0691C41.6604 30.0691 41.4517 30 41.267 29.8619C40.3484 29.1794 39.4362 28.4905 38.5177 27.8096C38.19 27.5671 37.8608 27.3262 37.5204 27.1014C37.2506 26.9231 37.2956 26.7127 37.3678 26.5072C37.5059 26.1105 37.6392 25.7123 37.7709 25.314C37.893 24.9478 38.015 24.5817 38.1322 24.2155C38.3233 23.623 38.5064 23.0272 38.6991 22.4362C38.8726 21.9079 39.054 21.3811 39.2323 20.8544C39.3158 20.6071 39.4041 20.363 39.4812 20.1141C39.5952 19.7463 39.6932 19.3721 39.8104 19.006C39.9341 18.6157 40.0738 18.2319 40.2039 17.8449C40.4271 17.18 40.6519 16.5152 40.8719 15.8488C41.0807 15.2144 41.2895 14.5785 41.4902 13.9409C41.6701 13.3676 41.8322 12.7879 42.0121 12.2146C42.1245 11.8565 42.2546 11.5048 42.375 11.1499C42.4553 10.9154 42.534 10.6793 42.6143 10.4449C42.7637 10.0032 42.9162 9.56321 43.0624 9.12159C43.223 8.6366 43.3868 8.15162 43.5361 7.66342C43.716 7.07887 43.8846 6.4895 44.0564 5.90174C44.1126 5.70903 44.1608 5.5115 44.2299 5.322C44.254 5.25616 44.3278 5.20638 44.3969 5.1309L44.4001 5.12769Z"
            fill="url(#paint4_linear_973_13475)" />
        <path
            d="M100.283 9.8699C100.426 9.76391 100.567 9.65792 100.71 9.55193C101.684 8.82766 102.657 8.105 103.63 7.37913C104.418 6.78976 105.209 6.20039 105.994 5.60941C106.137 5.50182 106.284 5.45525 106.469 5.45525C113.739 5.45846 121.007 5.45685 128.277 5.45525C128.324 5.45525 128.369 5.44882 128.414 5.45525C128.611 5.47773 128.668 5.57248 128.597 5.75876C128.475 6.07673 128.342 6.39149 128.234 6.71428C128.109 7.09167 128.011 7.47709 127.89 7.85448C127.686 8.49203 127.47 9.12475 127.272 9.76391C127.222 9.92289 127.139 9.99355 126.985 9.99837C126.916 9.99998 126.847 10.0016 126.779 10.0016C118.101 10.0016 109.424 10.0016 100.746 10.0016C100.603 10.0016 100.46 9.98392 100.317 9.97268L100.285 9.8699H100.283Z"
            fill="white" />
        <path
            d="M64.6744 30.0643C64.0336 30.0643 63.3929 30.0643 62.7521 30.0643C62.6718 30.0643 62.5899 30.0708 62.5128 30.0579C62.3105 30.021 62.2189 29.8781 62.2848 29.6837C62.3827 29.3931 62.4984 29.1072 62.5979 28.8165C62.7007 28.5162 62.7906 28.2127 62.8918 27.9124C63.0363 27.482 63.1905 27.0565 63.3302 26.6245C63.4362 26.3001 63.5261 25.9709 63.6289 25.6465C63.8168 25.0523 64.0095 24.4597 64.2006 23.8671C64.3821 23.3051 64.5652 22.743 64.7499 22.1825C64.9538 21.5691 65.1658 20.9572 65.3649 20.3421C65.5416 19.7913 65.7054 19.2373 65.8724 18.6832C65.9414 18.4568 66.0009 18.2256 66.0763 18.0007C66.2947 17.3552 66.5292 16.716 66.7396 16.0672C66.9869 15.3012 67.2117 14.5255 67.4542 13.7579C67.5457 13.4672 67.6678 13.1846 67.7625 12.8955C67.9681 12.2692 68.164 11.6413 68.3632 11.0134C68.4242 10.8191 68.4836 10.6248 68.5366 10.4289C68.596 10.2056 68.7181 10.1639 68.9027 10.3004C70.0397 11.1403 71.1783 11.9786 72.3169 12.8152C72.5578 12.9919 72.6012 13.0818 72.5064 13.3853C72.3635 13.8398 72.2029 14.2879 72.0584 14.7407C71.8769 15.314 71.7099 15.8922 71.5268 16.4639C71.355 17.0035 71.1671 17.5382 70.992 18.0762C70.8041 18.6575 70.6275 19.2437 70.4364 19.825C70.2485 20.3951 70.0429 20.9604 69.855 21.5305C69.7201 21.94 69.6061 22.356 69.4712 22.7655C69.2352 23.4865 68.9862 24.2028 68.7502 24.9238C68.6265 25.3028 68.5253 25.6882 68.4065 26.0688C68.1881 26.7722 67.9681 27.474 67.7433 28.1758C67.5843 28.672 67.4173 29.1682 67.2487 29.6613C67.1346 29.9921 67.0222 30.0659 66.6673 30.0675C66.0041 30.0675 65.3392 30.0675 64.676 30.0675L64.6744 30.0643Z"
            fill="url(#paint5_linear_973_13475)" />
    </g>
    <defs>
        <linearGradient id="paint0_linear_973_13475" x1="22.2013" y1="5.45215" x2="22" y2="39.0001"
            gradientUnits="userSpaceOnUse">
            <stop stop-color="white" />
            <stop offset="1" stop-color="white" stop-opacity="0" />
        </linearGradient>
        <linearGradient id="paint1_linear_973_13475" x1="109.375" y1="10.1396" x2="109.22" y2="37.2946"
            gradientUnits="userSpaceOnUse">
            <stop stop-color="white" />
            <stop offset="1" stop-color="white" stop-opacity="0" />
        </linearGradient>
        <linearGradient id="paint2_linear_973_13475" x1="83.2402" y1="5.44409" x2="82.9793" y2="39.0066"
            gradientUnits="userSpaceOnUse">
            <stop stop-color="white" />
            <stop offset="1" stop-color="white" stop-opacity="0" />
        </linearGradient>
        <linearGradient id="paint3_linear_973_13475" x1="144.856" y1="5.45532" x2="144.61" y2="39.0028"
            gradientUnits="userSpaceOnUse">
            <stop stop-color="white" />
            <stop offset="1" stop-color="white" stop-opacity="0" />
        </linearGradient>
        <linearGradient id="paint4_linear_973_13475" x1="49.1705" y1="5.12769" x2="48.8495" y2="39.1225"
            gradientUnits="userSpaceOnUse">
            <stop stop-color="white" />
            <stop offset="1" stop-color="white" stop-opacity="0" />
        </linearGradient>
        <linearGradient id="paint5_linear_973_13475" x1="67.4083" y1="10.2222" x2="66.9401" y2="37.262"
            gradientUnits="userSpaceOnUse">
            <stop stop-color="white" />
            <stop offset="1" stop-color="white" stop-opacity="0" />
        </linearGradient>
    </defs>
</svg>