<svg width="65" height="38" viewBox="0 0 65 38" fill="none" xmlns="http://www.w3.org/2000/svg">
    <g opacity="0.2">
        <path d="M10.916 0V6.07516" stroke="white" stroke-width="0.828431" />
        <path d="M13.8157 3.0376L7.74051 3.0376" stroke="white" stroke-width="0.828431" />
        <path d="M26.656 0V6.07516" stroke="white" stroke-width="0.828431" />
        <path d="M29.5557 3.0376L23.4805 3.0376" stroke="white" stroke-width="0.828431" />
        <path d="M42.3962 0V6.07516" stroke="white" stroke-width="0.828431" />
        <path d="M45.2959 3.0376L39.2207 3.0376" stroke="white" stroke-width="0.828431" />
        <path d="M58.1365 0V6.07516" stroke="white" stroke-width="0.828431" />
        <path d="M61.0361 3.0376L54.961 3.0376" stroke="white" stroke-width="0.828431" />
        <path d="M10.916 15.7402V21.8154" stroke="white" stroke-width="0.828431" />
        <path d="M13.8157 18.7778L7.74051 18.7778" stroke="white" stroke-width="0.828431" />
        <path d="M26.656 15.7402V21.8154" stroke="white" stroke-width="0.828431" />
        <path d="M29.5557 18.7778L23.4805 18.7778" stroke="white" stroke-width="0.828431" />
        <path d="M42.3962 15.7402V21.8154" stroke="white" stroke-width="0.828431" />
        <path d="M45.2959 18.7778L39.2207 18.7778" stroke="white" stroke-width="0.828431" />
        <path d="M58.1365 15.7402V21.8154" stroke="white" stroke-width="0.828431" />
        <path d="M61.0361 18.7777L54.961 18.7777" stroke="white" stroke-width="0.828431" />
        <path d="M10.916 31.4805V37.5556" stroke="white" stroke-width="0.828431" />
        <path d="M13.8157 34.5179L7.74051 34.5179" stroke="white" stroke-width="0.828431" />
        <path d="M26.656 31.4805V37.5556" stroke="white" stroke-width="0.828431" />
        <path d="M29.5557 34.5179L23.4805 34.5179" stroke="white" stroke-width="0.828431" />
        <path d="M42.3962 31.4805V37.5556" stroke="white" stroke-width="0.828431" />
        <path d="M45.2959 34.5179L39.2207 34.5179" stroke="white" stroke-width="0.828431" />
        <path d="M58.1365 31.4805V37.5556" stroke="white" stroke-width="0.828431" />
        <path d="M61.0361 34.5179L54.961 34.5179" stroke="white" stroke-width="0.828431" />
    </g>
</svg>