<svg width="229" height="504" viewBox="0 0 229 504" fill="none" xmlns="http://www.w3.org/2000/svg">
<g filter="url(#filter0_b_2177_948)">
<path d="M22.345 4.9711L1.35649 41.0455C0.468042 42.5725 0 44.3077 0 46.0743V494C0 499.523 4.47714 504 9.99999 504H197.269C200.83 504 204.122 502.107 205.913 499.029L227.643 461.679C228.532 460.152 229 458.417 229 456.65V10C229 4.47715 224.523 0 219 0H30.9885C27.4278 0 24.1357 1.89338 22.345 4.9711Z" fill="url(#paint0_linear_2177_948)" fill-opacity="0.4"/>
<path d="M1.78867 41.2969L22.7772 5.22254C24.4783 2.29872 27.6058 0.5 30.9885 0.5H219C224.247 0.5 228.5 4.75329 228.5 10V456.65C228.5 458.328 228.055 459.977 227.211 461.427L205.48 498.777C203.779 501.701 200.652 503.5 197.269 503.5H9.99999C4.75328 503.5 0.5 499.247 0.5 494V46.0743C0.5 44.396 0.94464 42.7476 1.78867 41.2969Z" stroke="url(#paint1_linear_2177_948)"/>
</g>
<defs>
<filter id="filter0_b_2177_948" x="-148.3" y="-148.3" width="525.6" height="800.6" filterUnits="userSpaceOnUse" color-interpolation-filters="sRGB">
<feFlood flood-opacity="0" result="BackgroundImageFix"/>
<feGaussianBlur in="BackgroundImageFix" stdDeviation="74.15"/>
<feComposite in2="SourceAlpha" operator="in" result="effect1_backgroundBlur_2177_948"/>
<feBlend mode="normal" in="SourceGraphic" in2="effect1_backgroundBlur_2177_948" result="shape"/>
</filter>
<linearGradient id="paint0_linear_2177_948" x1="297.428" y1="0.000315619" x2="892.175" y2="555.286" gradientUnits="userSpaceOnUse">
<stop stop-color="#292D32"/>
<stop offset="1" stop-color="#7B8A98"/>
</linearGradient>
<linearGradient id="paint1_linear_2177_948" x1="-94.3704" y1="91.7495" x2="832.837" y2="91.7495" gradientUnits="userSpaceOnUse">
<stop stop-color="#262C33"/>
<stop offset="1" stop-color="#718599" stop-opacity="0"/>
</linearGradient>
</defs>
</svg>
