<svg width="12" height="12" viewBox="0 0 12 12" fill="none" xmlns="http://www.w3.org/2000/svg">
<circle cx="6" cy="6" r="6" fill="url(#paint0_linear_3401_33797)"/>
<mask id="path-2-inside-1_3401_33797" fill="white">
<path fill-rule="evenodd" clip-rule="evenodd" d="M8.99005 5.28378C10.028 4.66374 9.9324 4 9.9324 4C9.54453 4.5736 6.71476 5.94205 6.71476 5.94205L6.43889 6.75602C6.43939 6.75513 6.51418 6.71275 6.64157 6.64056L6.64175 6.64046C7.08921 6.3869 8.185 5.76596 8.99005 5.28378ZM5.56908 6.77246C5.56908 6.77246 4.05586 5.92298 3.01791 5.30295C2.03383 4.71094 2.07161 4.08437 2.0754 4.02158C2.0756 4.01831 2.0757 4.01657 2.07557 4.01644C2.46343 4.59004 5.29047 5.95849 5.29047 5.95849L5.56908 6.77246ZM6.43705 7.04284L8.28623 5.92295C8.28623 5.92295 10.5042 4.59274 10.668 4.0765C10.668 4.0765 10.6325 5.09532 9.79945 5.6662C8.96636 6.23707 6.78667 7.45802 6.78667 7.45802L6.01094 9.47929V9.54484L5.99729 9.51206L5.99182 9.52572V9.49568L5.21609 7.47441C5.21609 7.47441 3.03367 6.25619 2.20331 5.68258C1.37296 5.10898 1.33472 4.09289 1.33472 4.09289C1.50133 4.61186 3.71926 5.94207 3.71926 5.94207L5.56845 7.06196L6.00002 8.12449L6.43705 7.04284ZM5.99337 4.93685L6.54785 5.95841L5.99337 7.82398L5.43888 5.95841L5.99337 4.93685ZM5.18213 7.75022L2.98058 6.43913C2.98058 6.43913 2.94508 7.76934 5.18213 7.75022ZM6.80867 7.75022C9.04572 7.76934 9.01022 6.43913 9.01022 6.43913L6.80867 7.75022Z"/>
</mask>
<path fill-rule="evenodd" clip-rule="evenodd" d="M8.99005 5.28378C10.028 4.66374 9.9324 4 9.9324 4C9.54453 4.5736 6.71476 5.94205 6.71476 5.94205L6.43889 6.75602C6.43939 6.75513 6.51418 6.71275 6.64157 6.64056L6.64175 6.64046C7.08921 6.3869 8.185 5.76596 8.99005 5.28378ZM5.56908 6.77246C5.56908 6.77246 4.05586 5.92298 3.01791 5.30295C2.03383 4.71094 2.07161 4.08437 2.0754 4.02158C2.0756 4.01831 2.0757 4.01657 2.07557 4.01644C2.46343 4.59004 5.29047 5.95849 5.29047 5.95849L5.56908 6.77246ZM6.43705 7.04284L8.28623 5.92295C8.28623 5.92295 10.5042 4.59274 10.668 4.0765C10.668 4.0765 10.6325 5.09532 9.79945 5.6662C8.96636 6.23707 6.78667 7.45802 6.78667 7.45802L6.01094 9.47929V9.54484L5.99729 9.51206L5.99182 9.52572V9.49568L5.21609 7.47441C5.21609 7.47441 3.03367 6.25619 2.20331 5.68258C1.37296 5.10898 1.33472 4.09289 1.33472 4.09289C1.50133 4.61186 3.71926 5.94207 3.71926 5.94207L5.56845 7.06196L6.00002 8.12449L6.43705 7.04284ZM5.99337 4.93685L6.54785 5.95841L5.99337 7.82398L5.43888 5.95841L5.99337 4.93685ZM5.18213 7.75022L2.98058 6.43913C2.98058 6.43913 2.94508 7.76934 5.18213 7.75022ZM6.80867 7.75022C9.04572 7.76934 9.01022 6.43913 9.01022 6.43913L6.80867 7.75022Z" fill="#E83001" fill-opacity="0.5"/>
<path d="M9.9324 4L10.9222 3.85744L10.5533 1.29649L9.10401 3.43985L9.9324 4ZM8.99005 5.28378L8.47721 4.42529L8.47622 4.42588L8.99005 5.28378ZM6.71476 5.94205L6.2794 5.0418L5.90218 5.22422L5.76768 5.62106L6.71476 5.94205ZM6.43889 6.75602L5.4918 6.43503L7.30762 7.2513L6.43889 6.75602ZM6.64157 6.64056L6.14998 5.76973L6.14856 5.77054L6.64157 6.64056ZM6.64175 6.64046L7.13335 7.51128L7.13476 7.51048L6.64175 6.64046ZM3.01791 5.30295L2.50242 6.15985L2.50508 6.16144L3.01791 5.30295ZM5.56908 6.77246L5.07957 7.64446L7.36333 8.92649L6.51519 6.44863L5.56908 6.77246ZM2.0754 4.02158L3.07359 4.08177L3.07359 4.08177L2.0754 4.02158ZM2.07557 4.01644L2.78274 3.3094L1.24718 4.57659L2.07557 4.01644ZM5.29047 5.95849L6.23659 5.63466L6.10154 5.2401L5.72617 5.0584L5.29047 5.95849ZM8.28623 5.92295L7.77189 5.06536L7.76821 5.06758L8.28623 5.92295ZM6.43705 7.04284L5.91903 6.18747L5.63449 6.3598L5.50987 6.66822L6.43705 7.04284ZM10.668 4.0765L11.6674 4.11133L9.71493 3.77392L10.668 4.0765ZM9.79945 5.6662L9.23419 4.84129V4.84129L9.79945 5.6662ZM6.78667 7.45802L6.29797 6.58557L5.98259 6.76223L5.85307 7.09972L6.78667 7.45802ZM6.01094 9.47929L5.07734 9.12099L5.01094 9.29399V9.47929H6.01094ZM6.01094 9.54484L5.08786 9.92945L7.01094 9.54484H6.01094ZM5.99729 9.51206L6.92037 9.12746L5.97843 6.86675L5.06882 9.14066L5.99729 9.51206ZM5.99182 9.52572H4.99182L6.92029 9.89713L5.99182 9.52572ZM5.99182 9.49568H6.99182V9.31037L6.92543 9.13737L5.99182 9.49568ZM5.21609 7.47441L6.1497 7.11611L6.01988 6.77783L5.7035 6.60123L5.21609 7.47441ZM2.20331 5.68258L1.63495 6.50536L1.63495 6.50536L2.20331 5.68258ZM1.33472 4.09289L2.28685 3.7872L0.335424 4.13049L1.33472 4.09289ZM3.71926 5.94207L4.23729 5.0867L4.2336 5.08449L3.71926 5.94207ZM5.56845 7.06196L6.49494 6.68565L6.37014 6.37839L6.08647 6.2066L5.56845 7.06196ZM6.00002 8.12449L5.07352 8.50081L6.00245 10.7879L6.9272 8.49911L6.00002 8.12449ZM6.54785 5.95841L7.50641 6.24331L7.62455 5.84582L7.42673 5.48137L6.54785 5.95841ZM5.99337 4.93685L6.87225 4.45981L5.99336 2.84059L5.11448 4.45981L5.99337 4.93685ZM5.99337 7.82398L5.03481 8.10888L5.99336 11.334L6.95192 8.10888L5.99337 7.82398ZM5.43888 5.95841L4.56 5.48137L4.36219 5.84582L4.48033 6.24331L5.43888 5.95841ZM5.18213 7.75022L5.19067 8.75018L8.76432 8.71964L5.6938 6.89104L5.18213 7.75022ZM2.98058 6.43913L3.49225 5.57995L2.02646 4.70702L1.98094 6.41244L2.98058 6.43913ZM6.80867 7.75022L6.297 6.89104L3.22648 8.71964L6.80013 8.75018L6.80867 7.75022ZM9.01022 6.43913L10.0099 6.41244L9.96433 4.70702L8.49854 5.57995L9.01022 6.43913ZM9.9324 4C8.94261 4.14256 8.94249 4.14176 8.94238 4.14096C8.94234 4.14069 8.94223 4.13989 8.94215 4.13937C8.94201 4.13831 8.94186 4.13726 8.94172 4.13621C8.94143 4.13413 8.94115 4.13207 8.94089 4.13004C8.94036 4.12597 8.93987 4.12202 8.93942 4.11818C8.93852 4.11049 8.93778 4.10323 8.93716 4.09638C8.93595 4.0827 8.93526 4.07062 8.93494 4.06003C8.93429 4.03887 8.93511 4.02344 8.93617 4.01302C8.93837 3.99118 8.94157 3.99182 8.93338 4.01065C8.92217 4.03644 8.84256 4.20704 8.47721 4.42529L9.50288 6.14227C10.1755 5.74048 10.567 5.26919 10.7675 4.8081C10.8652 4.58349 10.9094 4.37944 10.9261 4.21378C10.9344 4.13144 10.9358 4.05932 10.934 3.99943C10.9331 3.96948 10.9314 3.94254 10.9293 3.91883C10.9282 3.90697 10.9271 3.89591 10.9259 3.88567C10.9253 3.88055 10.9246 3.87564 10.924 3.87093C10.9237 3.86858 10.9234 3.86628 10.9231 3.86403C10.923 3.8629 10.9228 3.86179 10.9226 3.86069C10.9226 3.86015 10.9225 3.85933 10.9224 3.85906C10.9223 3.85825 10.9222 3.85744 9.9324 4ZM6.71476 5.94205C7.15012 6.84231 7.15017 6.84228 7.15024 6.84225C7.15028 6.84223 7.15036 6.84219 7.15044 6.84216C7.15059 6.84208 7.15078 6.84199 7.15102 6.84187C7.1515 6.84164 7.15214 6.84133 7.15296 6.84094C7.15458 6.84015 7.15689 6.83903 7.15984 6.83759C7.16576 6.83472 7.17429 6.83057 7.18528 6.8252C7.20726 6.81448 7.23909 6.79889 7.27947 6.77897C7.36019 6.73916 7.47527 6.68195 7.61433 6.61161C7.89179 6.47127 8.26785 6.27704 8.65831 6.0633C9.04582 5.85116 9.46165 5.61212 9.81295 5.3826C9.98813 5.26816 10.1605 5.14752 10.3104 5.02662C10.4439 4.91899 10.6262 4.75919 10.7608 4.56015L9.10401 3.43985C9.14163 3.38421 9.15061 3.39265 9.05512 3.46965C8.97608 3.53337 8.86373 3.61375 8.71907 3.70826C8.4307 3.89666 8.06636 4.10728 7.69794 4.30896C7.33248 4.50903 6.97686 4.69276 6.71161 4.82693C6.57932 4.89384 6.4703 4.94803 6.39475 4.98529C6.35699 5.00392 6.32764 5.01829 6.30798 5.02789C6.29815 5.03269 6.29075 5.03629 6.28593 5.03863C6.28352 5.0398 6.28176 5.04065 6.28067 5.04118C6.28012 5.04145 6.27974 5.04163 6.27953 5.04174C6.27942 5.04179 6.27936 5.04182 6.27934 5.04183C6.27933 5.04183 6.27934 5.04183 6.27934 5.04183C6.27936 5.04181 6.2794 5.0418 6.71476 5.94205ZM7.38597 7.07701L7.66184 6.26305L5.76768 5.62106L5.4918 6.43503L7.38597 7.07701ZM6.14856 5.77054C6.08521 5.80643 6.03379 5.83557 5.99821 5.85581C5.98067 5.86579 5.96531 5.87455 5.95375 5.88121C5.94848 5.88425 5.941 5.88857 5.93359 5.89295C5.93077 5.89462 5.92235 5.8996 5.91226 5.90587C5.90852 5.90819 5.89522 5.91645 5.87876 5.92758C5.87194 5.93219 5.85191 5.9458 5.82742 5.96474C5.81593 5.97362 5.79088 5.9933 5.76115 6.0207C5.75477 6.02659 5.6529 6.1156 5.57015 6.26073L7.30762 7.2513C7.25811 7.33814 7.2065 7.39785 7.1835 7.42351C7.15591 7.45428 7.1317 7.47742 7.11667 7.49127C7.08697 7.51865 7.06196 7.5383 7.05051 7.54715C7.02611 7.56602 7.0062 7.57954 6.99954 7.58404C6.9834 7.59496 6.97057 7.60292 6.96744 7.60487C6.95856 7.61038 6.95192 7.61429 6.95144 7.61457C6.94871 7.61619 6.94816 7.61648 6.95196 7.61429C6.95855 7.6105 6.96994 7.60399 6.98709 7.59424C7.02088 7.57502 7.07054 7.54687 7.13458 7.51058L6.14856 5.77054ZM6.15016 5.76963L6.14998 5.76973L7.13317 7.51138L7.13334 7.51128L6.15016 5.76963ZM8.47622 4.42588C7.68341 4.90073 6.59853 5.51555 6.14874 5.77044L7.13476 7.51048C7.5799 7.25824 8.68658 6.63118 9.50388 6.14167L8.47622 4.42588ZM2.50508 6.16144C3.03284 6.4767 3.6776 6.84805 4.18716 7.13879C4.44263 7.28455 4.66545 7.41081 4.82447 7.50066C4.90399 7.5456 4.9676 7.58146 5.01141 7.60612C5.03331 7.61845 5.05027 7.62799 5.06179 7.63447C5.06755 7.63771 5.07195 7.64018 5.07493 7.64186C5.07643 7.64269 5.07756 7.64333 5.07834 7.64377C5.07873 7.64399 5.07902 7.64415 5.07923 7.64427C5.07933 7.64433 5.07941 7.64437 5.07947 7.6444C5.07949 7.64442 5.07952 7.64443 5.07953 7.64444C5.07955 7.64445 5.07957 7.64446 5.56908 6.77246C6.05859 5.90047 6.0586 5.90047 6.05859 5.90047C6.05858 5.90046 6.05858 5.90046 6.05856 5.90045C6.05852 5.90043 6.05846 5.90039 6.05838 5.90035C6.05822 5.90026 6.05797 5.90011 6.05762 5.89992C6.05694 5.89954 6.05589 5.89895 6.05448 5.89816C6.05168 5.89658 6.04746 5.89421 6.04188 5.89108C6.03073 5.88481 6.01416 5.87549 5.99266 5.86338C5.94966 5.83917 5.88694 5.80381 5.80838 5.75942C5.65123 5.67062 5.43088 5.54576 5.1783 5.40165C4.67176 5.11264 4.04094 4.74923 3.53075 4.44446L2.50508 6.16144ZM1.07721 3.96138C1.06925 4.09347 1.06302 4.4502 1.27265 4.89227C1.48159 5.33291 1.86623 5.77712 2.50242 6.15984L3.53341 4.44605C3.18551 4.23676 3.097 4.07169 3.07977 4.03535C3.06898 4.01259 3.07008 4.0062 3.07203 4.01948C3.07294 4.02565 3.07392 4.03529 3.07421 4.04872C3.07436 4.05543 3.07432 4.06246 3.0741 4.06968C3.07388 4.07717 3.07349 4.08333 3.07359 4.08177L1.07721 3.96138ZM1.36839 4.72348C1.27191 4.62697 1.21545 4.53095 1.18488 4.47104C1.15275 4.40809 1.13322 4.35326 1.12167 4.31655C1.09926 4.24531 1.08984 4.187 1.08586 4.15943C1.07758 4.10204 1.07632 4.05676 1.07596 4.04279C1.07508 4.00862 1.07625 3.9818 1.07639 3.97836C1.07687 3.96622 1.07762 3.95464 1.07721 3.96139L3.07359 4.08177C3.0736 4.08149 3.07377 4.07882 3.07392 4.07605C3.07405 4.07378 3.07447 4.06645 3.07483 4.05731C3.075 4.05301 3.07619 4.02552 3.07529 3.99089C3.07492 3.97669 3.07365 3.93122 3.06535 3.8737C3.06136 3.84606 3.05193 3.7877 3.02951 3.71641C3.01579 3.67281 2.95687 3.48357 2.78274 3.3094L1.36839 4.72348ZM5.29047 5.95849C5.72617 5.0584 5.72621 5.05842 5.72624 5.05843C5.72623 5.05843 5.72625 5.05844 5.72624 5.05843C5.72622 5.05842 5.72615 5.05839 5.72605 5.05834C5.72584 5.05824 5.72546 5.05805 5.72491 5.05779C5.72382 5.05726 5.72206 5.0564 5.71965 5.05523C5.71484 5.05289 5.70744 5.04929 5.69762 5.04449C5.67798 5.0349 5.64866 5.02052 5.61094 5.0019C5.53547 4.96464 5.42655 4.91045 5.29439 4.84354C5.02939 4.70937 4.67411 4.52564 4.30899 4.32558C3.94091 4.12391 3.5769 3.91329 3.28878 3.7249C3.14424 3.6304 3.03197 3.55002 2.95298 3.48629C2.85757 3.40931 2.86644 3.4008 2.90396 3.45629L1.24718 4.57659C1.38166 4.77547 1.56372 4.9352 1.69716 5.04286C1.84701 5.16376 2.01924 5.28439 2.19428 5.39884C2.54531 5.62836 2.96079 5.86742 3.34795 6.07955C3.73807 6.2933 4.11379 6.48754 4.39099 6.62788C4.52992 6.69822 4.6449 6.75543 4.72554 6.79524C4.76588 6.81516 4.79768 6.83075 4.81964 6.84148C4.83062 6.84684 4.83915 6.85099 4.84506 6.85387C4.84801 6.8553 4.85031 6.85642 4.85194 6.85721C4.85275 6.85761 4.8534 6.85792 4.85387 6.85815C4.85411 6.85826 4.8543 6.85836 4.85445 6.85843C4.85453 6.85847 4.85461 6.85851 4.85465 6.85852C4.85472 6.85856 4.85478 6.85859 5.29047 5.95849ZM6.51519 6.44863L6.23659 5.63466L4.34436 6.28233L4.62297 7.0963L6.51519 6.44863ZM7.76821 5.06758L5.91903 6.18747L6.95507 7.89821L8.80425 6.77832L7.76821 5.06758ZM9.71493 3.77392C9.76047 3.63047 9.82588 3.57829 9.7716 3.63929C9.73717 3.67798 9.67452 3.73934 9.57724 3.82244C9.38428 3.98728 9.12376 4.17962 8.84741 4.37047C8.57501 4.5586 8.30506 4.73306 8.10184 4.86125C8.00066 4.92507 7.91702 4.97679 7.85914 5.01228C7.83023 5.03 7.8078 5.04364 7.79291 5.05267C7.78546 5.05719 7.7799 5.06054 7.77635 5.06268C7.77458 5.06375 7.77331 5.06451 7.77256 5.06496C7.77218 5.06519 7.77194 5.06534 7.77183 5.0654C7.77177 5.06544 7.77175 5.06545 7.77176 5.06544C7.77177 5.06544 7.7718 5.06542 7.7718 5.06542C7.77184 5.06539 7.77189 5.06537 8.28623 5.92295C8.80057 6.78054 8.80064 6.7805 8.80071 6.78045C8.80075 6.78043 8.80084 6.78038 8.80091 6.78034C8.80105 6.78025 8.80123 6.78014 8.80145 6.78001C8.80187 6.77976 8.80243 6.77942 8.80312 6.77901C8.80451 6.77817 8.80642 6.77702 8.80885 6.77556C8.81371 6.77263 8.82062 6.76846 8.82946 6.7631C8.84713 6.75239 8.87251 6.73695 8.90457 6.7173C8.96863 6.67802 9.05954 6.62179 9.16885 6.55283C9.38661 6.41547 9.68139 6.22511 9.98395 6.01616C10.2826 5.80993 10.6073 5.57292 10.8763 5.34315C11.01 5.22894 11.1475 5.10169 11.2657 4.96882C11.3641 4.85827 11.5347 4.65159 11.6212 4.37908L9.71493 3.77392ZM10.3647 6.49111C11.0122 6.04741 11.3332 5.4401 11.491 4.98475C11.5708 4.75463 11.6139 4.54989 11.6375 4.39924C11.6493 4.32331 11.6565 4.25938 11.6609 4.2107C11.6631 4.18631 11.6646 4.16559 11.6656 4.14894C11.6661 4.1406 11.6665 4.13327 11.6668 4.12699C11.6669 4.12385 11.6671 4.12097 11.6672 4.11836C11.6672 4.11706 11.6673 4.11582 11.6673 4.11464C11.6673 4.11406 11.6674 4.11349 11.6674 4.11294C11.6674 4.11266 11.6674 4.11226 11.6674 4.11212C11.6674 4.11172 11.6674 4.11133 10.668 4.0765C9.66866 4.04167 9.66867 4.04128 9.66868 4.0409C9.66869 4.04078 9.6687 4.0404 9.66871 4.04015C9.66873 4.03966 9.66875 4.03919 9.66876 4.03872C9.6688 4.0378 9.66883 4.03693 9.66887 4.03611C9.66893 4.03449 9.669 4.03308 9.66905 4.03188C9.66917 4.02949 9.66926 4.02795 9.6693 4.02722C9.66939 4.02577 9.6693 4.0275 9.66889 4.03208C9.66806 4.04134 9.66597 4.06147 9.66151 4.08997C9.6524 4.1482 9.63456 4.23384 9.6013 4.32979C9.5331 4.52657 9.41978 4.71411 9.23419 4.84129L10.3647 6.49111ZM6.78667 7.45802C7.27537 8.33047 7.2754 8.33046 7.27543 8.33044C7.27545 8.33043 7.27549 8.33041 7.27554 8.33038C7.27562 8.33033 7.27574 8.33027 7.2759 8.33018C7.2762 8.33001 7.27664 8.32976 7.27721 8.32944C7.27834 8.32881 7.28 8.32788 7.28216 8.32667C7.28649 8.32424 7.29283 8.32068 7.3011 8.31603C7.31763 8.30675 7.34184 8.29314 7.37286 8.27566C7.4349 8.2407 7.52422 8.19026 7.63392 8.12799C7.85319 8.00352 8.15453 7.83143 8.48251 7.64113C9.12637 7.26756 9.91213 6.80124 10.3647 6.49111L9.23419 4.84129C8.85368 5.10203 8.13305 5.53162 7.47879 5.91124C7.15771 6.09753 6.86207 6.26637 6.64661 6.38867C6.53895 6.44978 6.45147 6.49919 6.39105 6.53323C6.36084 6.55025 6.33741 6.56343 6.32161 6.57231C6.31371 6.57674 6.30771 6.58011 6.30374 6.58234C6.30175 6.58345 6.30027 6.58428 6.2993 6.58483C6.29882 6.5851 6.29846 6.58529 6.29824 6.58542C6.29813 6.58548 6.29805 6.58553 6.29801 6.58555C6.29798 6.58556 6.29797 6.58557 6.29796 6.58557C6.29796 6.58558 6.29797 6.58557 6.78667 7.45802ZM6.94455 9.83759L7.72028 7.81632L5.85307 7.09972L5.07734 9.12099L6.94455 9.83759ZM7.01094 9.54484V9.47929H5.01094V9.54484H7.01094ZM5.07421 9.89667L5.08786 9.92945L6.93402 9.16023L6.92037 9.12746L5.07421 9.89667ZM6.92029 9.89713L6.92576 9.88347L5.06882 9.14066L5.06335 9.15431L6.92029 9.89713ZM4.99182 9.49568V9.52572H6.99182V9.49568H4.99182ZM4.28249 7.83271L5.05822 9.85398L6.92543 9.13737L6.1497 7.11611L4.28249 7.83271ZM1.63495 6.50536C2.08818 6.81845 2.8759 7.28581 3.51976 7.65886C3.84811 7.8491 4.14988 8.02102 4.36947 8.14533C4.47934 8.20753 4.56881 8.25791 4.63096 8.29282C4.66204 8.31027 4.6863 8.32387 4.70287 8.33315C4.71116 8.33779 4.71753 8.34135 4.72186 8.34377C4.72403 8.34499 4.7257 8.34591 4.72684 8.34655C4.72741 8.34687 4.72785 8.34712 4.72816 8.34729C4.72831 8.34738 4.72843 8.34744 4.72852 8.34749C4.72857 8.34752 4.72861 8.34754 4.72863 8.34755C4.72866 8.34757 4.72869 8.34759 5.21609 7.47441C5.7035 6.60123 5.70351 6.60124 5.70351 6.60124C5.7035 6.60123 5.70349 6.60123 5.70346 6.60122C5.70342 6.60119 5.70334 6.60115 5.70323 6.60109C5.70301 6.60096 5.70266 6.60077 5.70218 6.6005C5.70122 6.59996 5.69974 6.59913 5.69775 6.59802C5.69378 6.5958 5.68779 6.59245 5.67989 6.58803C5.66409 6.57918 5.64065 6.56605 5.61043 6.54907C5.54999 6.51512 5.46247 6.46584 5.35476 6.40487C5.1392 6.28284 4.84346 6.11435 4.52241 5.92834C3.86748 5.54888 3.1488 5.12032 2.77168 4.85981L1.63495 6.50536ZM1.33472 4.09289C0.335424 4.13049 0.335439 4.13089 0.335454 4.13128C0.335459 4.13142 0.335475 4.13182 0.335486 4.1321C0.335507 4.13265 0.33553 4.13321 0.335554 4.1338C0.335602 4.13497 0.335654 4.1362 0.335711 4.13751C0.335825 4.14011 0.33596 4.14298 0.336117 4.14611C0.336433 4.15237 0.336841 4.15968 0.33737 4.16798C0.338427 4.18459 0.339969 4.20524 0.342213 4.22956C0.346692 4.27809 0.354026 4.34183 0.366054 4.41753C0.38992 4.56774 0.43333 4.77184 0.513188 5.00131C0.671176 5.45529 0.991317 6.06075 1.63495 6.50536L2.77168 4.85981C2.58495 4.73082 2.4708 4.54143 2.40207 4.34396C2.36858 4.24771 2.35053 4.16193 2.34128 4.1037C2.33675 4.07518 2.33461 4.05505 2.33375 4.04577C2.33333 4.04119 2.33324 4.03945 2.33333 4.04089C2.33337 4.04161 2.33347 4.04315 2.33359 4.04553C2.33365 4.04672 2.33371 4.04812 2.33378 4.04974C2.33382 4.05056 2.33386 4.05142 2.33389 4.05234C2.33391 4.05281 2.33393 4.05328 2.33395 4.05377C2.33396 4.05401 2.33398 4.05439 2.33398 4.05451C2.33399 4.05489 2.33401 4.05528 1.33472 4.09289ZM3.71926 5.94207C4.2336 5.08449 4.23365 5.08452 4.2337 5.08454C4.2337 5.08454 4.23373 5.08456 4.23374 5.08457C4.23375 5.08457 4.23373 5.08456 4.23367 5.08452C4.23356 5.08446 4.23331 5.08431 4.23294 5.08409C4.23219 5.08364 4.23093 5.08287 4.22915 5.08181C4.22561 5.07967 4.22005 5.07631 4.2126 5.0718C4.19771 5.06277 4.17528 5.04913 4.14637 5.0314C4.0885 4.99592 4.00486 4.94419 3.90366 4.88035C3.70042 4.75213 3.4304 4.5776 3.15784 4.38932C2.88136 4.19833 2.62058 4.00572 2.42721 3.8405C2.32975 3.75723 2.26676 3.69555 2.23194 3.65644C2.17762 3.59542 2.24156 3.64613 2.28685 3.7872L0.382584 4.39857C0.469529 4.66938 0.639223 4.87519 0.738089 4.98625C0.856456 5.11922 0.994076 5.24661 1.12798 5.36103C1.39733 5.59118 1.72227 5.82844 2.0211 6.03487C2.32385 6.24401 2.61873 6.43447 2.83655 6.57188C2.9459 6.64086 3.03683 6.69711 3.10091 6.7364C3.13296 6.75605 3.15835 6.7715 3.17603 6.78221C3.18487 6.78757 3.19178 6.79175 3.19664 6.79467C3.19907 6.79614 3.20099 6.79729 3.20237 6.79812C3.20306 6.79854 3.20362 6.79888 3.20405 6.79913C3.20426 6.79926 3.20444 6.79937 3.20459 6.79946C3.20466 6.7995 3.20475 6.79955 3.20478 6.79957C3.20486 6.79962 3.20492 6.79966 3.71926 5.94207ZM6.08647 6.2066L4.23729 5.0867L3.20124 6.79744L5.05043 7.91733L6.08647 6.2066ZM6.92651 7.74818L6.49494 6.68565L4.64196 7.43828L5.07352 8.50081L6.92651 7.74818ZM5.50987 6.66822L5.07284 7.74988L6.9272 8.49911L7.36423 7.41746L5.50987 6.66822ZM7.42673 5.48137L6.87225 4.45981L5.11448 5.41389L5.66897 6.43545L7.42673 5.48137ZM6.95192 8.10888L7.50641 6.24331L5.58929 5.67351L5.03481 7.53908L6.95192 8.10888ZM4.48033 6.24331L5.03481 8.10888L6.95192 7.53908L6.39744 5.67351L4.48033 6.24331ZM5.11448 4.45981L4.56 5.48137L6.31777 6.43545L6.87225 5.41389L5.11448 4.45981ZM5.6938 6.89104L3.49225 5.57995L2.46891 7.29831L4.67046 8.6094L5.6938 6.89104ZM2.98058 6.43913C1.98094 6.41244 1.98092 6.41327 1.9809 6.4141C1.98089 6.41439 1.98087 6.41523 1.98086 6.4158C1.98083 6.41694 1.9808 6.41811 1.98078 6.4193C1.98073 6.42168 1.98069 6.42417 1.98066 6.42675C1.98059 6.4319 1.98055 6.43745 1.98055 6.44337C1.98056 6.45522 1.98073 6.4686 1.98116 6.48343C1.98203 6.51303 1.98396 6.54863 1.98777 6.58937C1.99536 6.67051 2.01061 6.77424 2.04081 6.89304C2.10134 7.13117 2.224 7.43693 2.46922 7.73595C2.98782 8.36834 3.87063 8.76147 5.19067 8.75018L5.17358 6.75026C4.25657 6.75809 4.03862 6.49567 4.01571 6.46774C3.99017 6.4366 3.98188 6.411 3.97917 6.40031C3.97774 6.3947 3.97829 6.39465 3.97908 6.40313C3.97949 6.40753 3.98 6.41457 3.9803 6.4247C3.98045 6.42978 3.98055 6.4357 3.98055 6.44251C3.98055 6.44592 3.98053 6.44956 3.98048 6.45344C3.98045 6.45538 3.98042 6.45738 3.98038 6.45944C3.98036 6.46047 3.98033 6.46152 3.98031 6.46258C3.9803 6.46311 3.98028 6.46392 3.98027 6.46418C3.98025 6.46499 3.98023 6.46581 2.98058 6.43913ZM6.80013 8.75018C8.12017 8.76147 9.00299 8.36834 9.52158 7.73595C9.7668 7.43693 9.88945 7.13116 9.94999 6.89304C9.98019 6.77424 9.99544 6.67051 10.003 6.58937C10.0068 6.54862 10.0088 6.51303 10.0096 6.48343C10.0101 6.4686 10.0102 6.45522 10.0102 6.44337C10.0103 6.43745 10.0102 6.4319 10.0101 6.42674C10.0101 6.42417 10.0101 6.42168 10.01 6.4193C10.01 6.41811 10.01 6.41694 10.0099 6.4158C10.0099 6.41523 10.0099 6.41439 10.0099 6.4141C10.0099 6.41327 10.0099 6.41244 9.01022 6.43913C8.01057 6.46581 8.01055 6.465 8.01053 6.46418C8.01052 6.46392 8.0105 6.46311 8.01049 6.46258C8.01047 6.46152 8.01044 6.46047 8.01042 6.45944C8.01038 6.45738 8.01035 6.45538 8.01032 6.45344C8.01027 6.44956 8.01025 6.44592 8.01025 6.44251C8.01025 6.4357 8.01035 6.42978 8.0105 6.4247C8.0108 6.41457 8.0113 6.40754 8.01172 6.40313C8.01251 6.39465 8.01306 6.3947 8.01163 6.40031C8.00891 6.411 8.00063 6.4366 7.97509 6.46774C7.95218 6.49567 7.73423 6.75809 6.81722 6.75026L6.80013 8.75018ZM8.49854 5.57995L6.297 6.89104L7.32035 8.6094L9.52189 7.29831L8.49854 5.57995Z" fill="#FFEF76" fill-opacity="0.5" mask="url(#path-2-inside-1_3401_33797)"/>
<defs>
<linearGradient id="paint0_linear_3401_33797" x1="1.25158" y1="6.9375" x2="19.0669" y2="6.9612" gradientUnits="userSpaceOnUse">
<stop stop-color="#FE5E35"/>
<stop offset="0.432725" stop-color="#F67702"/>
<stop offset="1" stop-color="#FFEF76"/>
</linearGradient>
</defs>
</svg>