<svg width="200" height="42" viewBox="0 0 200 42" fill="none" xmlns="http://www.w3.org/2000/svg">
<g clip-path="url(#clip0_2098_431)">
<path d="M56.5377 16.4129C56.5377 15.9795 56.7111 15.546 57.0578 15.1993C57.2312 15.0259 57.4046 14.9393 57.5779 14.8526C57.7513 14.7659 58.0113 14.6792 58.2714 14.6792H64.7727C65.4661 14.6792 66.0729 15.1126 66.333 15.7194C66.4197 15.8928 66.5063 16.1528 66.5063 16.4129V17.9732H64.7727V16.4129H58.2714V24.9946H64.7727V23.4343H66.5063V24.9946C66.5063 25.688 66.0729 26.2948 65.4661 26.5549C65.2928 26.6416 65.0327 26.7282 64.7727 26.7282H58.2714C57.5779 26.7282 56.9711 26.2948 56.7111 25.688C56.6244 25.5147 56.5377 25.2546 56.5377 24.9946V16.4129Z" fill="white"/>
<path d="M79.5088 14.7659V26.7282H77.7752V21.6139H70.9272V26.7282H69.1935V14.7659H70.9272V19.8802H77.7752V14.7659H79.5088Z" fill="white"/>
<path d="M87.9173 14.7659L92.5115 26.7282H90.7778L89.7376 23.9543H84.3632L83.323 26.7282H81.5894L86.1836 14.7659H87.9173ZM85.0567 22.2207H89.1308L87.0504 16.933L85.0567 22.2207Z" fill="white"/>
<path d="M96.3255 14.7659H94.5918V26.7282H96.3255V14.7659Z" fill="white"/>
<path d="M101.093 26.7282H99.3594V14.7659H101.093L108.288 24.041V14.7659H110.021V26.7282H108.288L101.093 17.3664V26.7282Z" fill="white"/>
<path d="M114.789 21.6139C114.096 21.6139 113.489 21.1805 113.229 20.5737C113.142 20.4003 113.055 20.1403 113.055 19.8802V16.4995C113.055 16.0661 113.229 15.6327 113.576 15.286C113.749 15.1126 113.922 15.0259 114.096 14.9392C114.269 14.8526 114.529 14.7659 114.789 14.7659H120.597C121.29 14.7659 121.897 15.1993 122.157 15.8061C122.244 15.9794 122.331 16.2395 122.331 16.4995V18.0599H120.597V16.4995H114.789V19.8802H120.597C121.29 19.8802 121.897 20.3136 122.157 20.9204C122.244 21.0938 122.331 21.3538 122.331 21.6139V24.9946C122.331 25.688 121.897 26.2948 121.29 26.5549C121.117 26.6415 120.857 26.7282 120.597 26.7282H114.616C113.922 26.7282 113.316 26.2948 113.055 25.688C112.969 25.5147 112.882 25.2546 112.882 24.9946V23.4342H114.616V24.9946H120.597V21.6139H114.789Z" fill="white"/>
<path d="M125.365 14.7659H134.12V16.4995H127.098V19.9669H133.079V21.7006H127.098V25.0812H134.12V26.8149H125.365V14.7659Z" fill="white"/>
<path d="M136.72 16.4129C136.72 15.9795 136.894 15.546 137.24 15.1993C137.414 15.0259 137.587 14.9393 137.76 14.8526C137.934 14.7659 138.194 14.6792 138.454 14.6792H144.955C145.649 14.6792 146.255 15.1126 146.515 15.7194C146.602 15.8928 146.689 16.1528 146.689 16.4129V17.9732H144.955V16.4129H138.454V24.9946H144.955V23.4343H146.689V24.9946C146.689 25.688 146.255 26.2948 145.649 26.5549C145.475 26.6416 145.215 26.7282 144.955 26.7282H138.454C137.76 26.7282 137.154 26.2948 136.894 25.688C136.807 25.5147 136.72 25.2546 136.72 24.9946V16.4129Z" fill="white"/>
<path d="M149.376 14.7659H151.11V24.9946H157.958V14.7659H159.691V24.9946C159.691 25.688 159.258 26.2948 158.651 26.5549C158.478 26.6415 158.218 26.7282 157.958 26.7282H151.11C150.416 26.7282 149.809 26.2948 149.549 25.688C149.463 25.5147 149.376 25.2546 149.376 24.9946V14.7659Z" fill="white"/>
<path d="M172.174 19.0134C172.174 20.6604 171.48 21.6139 170.007 21.8739L172.261 26.7282H170.44L168.186 21.9606H164.459V26.7282H162.725V14.7659H169.313C171.22 14.7659 172.174 15.7194 172.174 17.7131V19.0134ZM164.459 20.2269H169.227C169.573 20.2269 169.92 20.1403 170.267 19.9669C170.527 19.7068 170.614 19.3601 170.527 18.9267V17.7131C170.527 17.3664 170.44 17.0196 170.267 16.6729C170.007 16.4129 169.66 16.3262 169.227 16.4129H164.459V20.2269Z" fill="white"/>
<path d="M176.768 14.7659H175.034V26.7282H176.768V14.7659Z" fill="white"/>
<path d="M178.762 14.7659H188.384V16.4995H184.483V26.7282H182.749V16.4129H178.762V14.7659Z" fill="white"/>
<path d="M191.244 14.7659L194.712 20.4003L198.179 14.7659H200.173L195.578 21.9606V26.7282H193.845V21.9606L189.25 14.7659H191.244Z" fill="white"/>
<path d="M36.9272 30.6924L20.1106 1.56665" stroke="white" stroke-width="0.242714" stroke-miterlimit="10"/>
<path d="M3.29395 11.2751L36.9272 30.6923" stroke="white" stroke-width="0.242714" stroke-miterlimit="10"/>
<path d="M36.9272 11.2751L3.29395 30.6923" stroke="white" stroke-width="0.242714" stroke-miterlimit="10"/>
<path d="M20.1106 40.4877V1.56665" stroke="white" stroke-width="0.242714" stroke-miterlimit="10"/>
<path d="M36.9272 30.6924H3.29395" stroke="white" stroke-width="0.242714" stroke-miterlimit="10"/>
<path d="M20.1106 1.56665L3.29395 30.6924" stroke="white" stroke-width="0.242714" stroke-miterlimit="10"/>
<path d="M36.9272 11.2751H3.29395" stroke="white" stroke-width="0.242714" stroke-miterlimit="10"/>
<path d="M20.1106 40.4876L36.9272 11.2751" stroke="white" stroke-width="0.242714" stroke-miterlimit="10"/>
<path d="M3.29395 11.2751L20.1106 40.4876" stroke="white" stroke-width="0.242714" stroke-miterlimit="10"/>
<path d="M36.9272 30.6924V11.2752L20.1106 1.56665L3.29395 11.2752V30.6924L20.1106 40.401L36.9272 30.6924Z" stroke="white" stroke-width="0.242714" stroke-miterlimit="10"/>
<path d="M3.29395 20.9839H36.9272" stroke="white" stroke-width="0.242714" stroke-miterlimit="10"/>
<path d="M11.5288 35.5466L28.6055 6.50757" stroke="white" stroke-width="0.242714" stroke-miterlimit="10"/>
<path d="M28.2589 35.8067L11.9624 6.24756" stroke="white" stroke-width="0.242714" stroke-miterlimit="10"/>
<path d="M28.3456 16.2161L25.5717 11.4485L14.4762 11.3618L11.4423 16.2161L28.2589 25.9247L25.225 30.779H14.3895L11.6156 25.9247" stroke="white" stroke-width="2.60051" stroke-miterlimit="10" stroke-linecap="round" stroke-linejoin="round"/>
<path d="M28.5189 6.50762L19.9372 1.56665L3.12061 11.2752V30.6924L19.9372 40.4877L28.0855 35.8067" stroke="white" stroke-width="1.73368" stroke-miterlimit="10" stroke-linecap="round" stroke-linejoin="round"/>
</g>
<defs>
<clipPath id="clip0_2098_431">
<rect width="200" height="42" fill="white"/>
</clipPath>
</defs>
</svg>
