<svg width="208" height="37" viewBox="0 0 208 37" fill="none" xmlns="http://www.w3.org/2000/svg">
<path d="M44.595 10.2224H36.7603V18.0693H44.595V10.2224Z" fill="white"/>
<path d="M35.4051 10.2224H27.5752V18.0693H35.41V10.2224H35.4051Z" fill="white"/>
<path d="M26.215 10.2224H18.3802V18.0693H26.215V10.2224Z" fill="white"/>
<path d="M17.0248 10.2224H9.19006V18.0693H17.0248V10.2224Z" fill="white"/>
<path d="M44.595 0.876465H36.7603V8.72337H44.595V0.876465Z" fill="white"/>
<path d="M27.5703 8.71849V8.72337H35.4051V0.876465L27.5703 8.71849Z" fill="white"/>
<path d="M17.0248 0.876465H9.19006V8.72337H17.0248V0.876465Z" fill="white"/>
<path d="M44.595 19.5685H36.7603V27.4154H44.595V19.5685Z" fill="white"/>
<path d="M17.0248 19.5685H9.19006V27.4154H17.0248V19.5685Z" fill="white"/>
<path d="M44.595 28.9144H36.7603V36.7613H44.595V28.9144Z" fill="white"/>
<path d="M53.7902 28.9144H45.9554V36.7613H53.7902V28.9144Z" fill="white"/>
<path d="M35.4051 28.9144H27.5752V36.7613H35.41V28.9144H35.4051Z" fill="white"/>
<path d="M26.215 28.9144H18.3802V36.7613H26.215V28.9144Z" fill="white"/>
<path d="M17.0248 28.9144H9.19006V36.7613H17.0248V28.9144Z" fill="white"/>
<path d="M7.83476 28.9144H0V36.7613H7.83476V28.9144Z" fill="white"/>
<path d="M18.3802 0.876465V8.72337H26.215V8.71849L18.3802 0.876465Z" fill="white"/>
<path fill-rule="evenodd" clip-rule="evenodd" d="M22.3 19.5685V27.4154H26.2149V19.5685H26.215V27.4154H18.3802V19.5685H22.3Z" fill="white"/>
<path fill-rule="evenodd" clip-rule="evenodd" d="M31.4238 19.5685V27.4154H35.3387V27.4154H27.5039V19.5685H31.4238Z" fill="white"/>
<path d="M82.5569 27.9102H80.4854V19.8376H71.333V27.9102H69.2615V10.2058H71.333V17.9767H80.4854V10.2058H82.5569V27.9102Z" fill="white"/>
<path d="M95.9527 27.9103H93.9314V25.9361H93.8812C93.0023 27.4576 91.7092 28.212 90.0018 28.212C88.7463 28.212 87.7545 27.8725 87.0514 27.2061C86.3358 26.5397 85.9843 25.6595 85.9843 24.5529C85.9843 22.189 87.3778 20.8184 90.1524 20.4286L93.9439 19.9005C93.9439 17.7503 93.0777 16.6815 91.3451 16.6815C89.826 16.6815 88.445 17.1971 87.2272 18.2407V16.166C88.4701 15.3738 89.9013 14.984 91.5209 14.984C94.4838 14.984 95.9778 16.5558 95.9778 19.6993L95.9527 27.9103ZM93.9314 21.51L90.8806 21.925C89.939 22.0507 89.2359 22.2896 88.7588 22.6165C88.2818 22.956 88.0432 23.5345 88.0432 24.3895C88.0432 25.0056 88.2692 25.5086 88.7086 25.8984C89.148 26.2882 89.7381 26.4894 90.4663 26.4894C91.4707 26.4894 92.2993 26.1373 92.9521 25.4331C93.605 24.729 93.9314 23.8362 93.9314 22.7549V21.51Z" fill="white"/>
<path d="M105.62 27.7846C105.143 28.0487 104.515 28.1744 103.737 28.1744C101.527 28.1744 100.422 26.9422 100.422 24.4651V16.9834H98.2504V15.2482H100.422V12.1549L102.444 11.5011V15.2482H105.62V16.9834H102.444V24.113C102.444 24.9555 102.582 25.5716 102.871 25.9237C103.159 26.2883 103.636 26.4644 104.302 26.4644C104.779 26.4769 105.243 26.326 105.62 26.0494V27.7846Z" fill="white"/>
<path d="M107.553 27.4578V25.2825C108.658 26.0998 109.863 26.5022 111.194 26.5022C112.964 26.5022 113.856 25.9112 113.856 24.7292C113.868 24.4275 113.78 24.1257 113.63 23.8742C113.466 23.6227 113.253 23.4215 113.014 23.2455C112.726 23.0443 112.424 22.8808 112.098 22.7551C111.746 22.6168 111.37 22.4659 110.968 22.3024C110.466 22.1012 109.976 21.8749 109.499 21.6234C109.11 21.4222 108.758 21.1582 108.444 20.8564C108.168 20.5798 107.942 20.2528 107.804 19.8882C107.654 19.4858 107.578 19.0457 107.591 18.6182C107.578 18.0649 107.716 17.5242 107.993 17.0464C108.269 16.5937 108.633 16.1914 109.085 15.9022C109.562 15.5878 110.077 15.3489 110.629 15.198C111.219 15.0345 111.822 14.9591 112.424 14.9591C113.517 14.9591 114.496 15.1477 115.362 15.5249V17.5745C114.433 16.971 113.366 16.6566 112.161 16.6566C111.809 16.6566 111.47 16.6943 111.131 16.7824C110.855 16.8578 110.591 16.9835 110.353 17.147C110.139 17.2979 109.976 17.4865 109.851 17.7128C109.725 17.9392 109.675 18.1781 109.675 18.4296C109.675 18.7565 109.738 19.0331 109.851 19.2595C109.976 19.4984 110.164 19.6996 110.378 19.8505C110.642 20.0391 110.918 20.2025 111.219 20.3157C111.545 20.454 111.922 20.6049 112.349 20.7684C112.864 20.957 113.366 21.1833 113.856 21.4348C114.27 21.636 114.647 21.9 114.985 22.2018C115.287 22.4785 115.538 22.8054 115.701 23.1826C115.864 23.5598 115.952 23.9999 115.952 24.5029C115.952 25.1316 115.814 25.6723 115.538 26.1375C115.262 26.6028 114.885 26.9926 114.433 27.2818C113.943 27.5961 113.404 27.8225 112.839 27.9608C112.223 28.1117 111.583 28.1871 110.955 28.1871C109.637 28.2123 108.507 27.9608 107.553 27.4578Z" fill="white"/>
<path d="M135.211 12.0794H128.306V18.203H134.697V20.064H128.306V27.9102H126.235V10.2058H135.211V12.0794Z" fill="white"/>
<path d="M139.329 12.0544C138.978 12.067 138.651 11.9287 138.4 11.6898C138.149 11.4509 138.011 11.0988 138.023 10.7467C138.011 10.03 138.576 9.43902 139.292 9.42645C139.304 9.42645 139.317 9.42645 139.329 9.42645C139.681 9.41387 140.02 9.55219 140.271 9.80367C140.786 10.3192 140.786 11.1491 140.271 11.6646C140.02 11.9161 139.681 12.0544 139.329 12.0544ZM140.308 27.9105H138.287V15.2609H140.308V27.9105Z" fill="white"/>
<path d="M154.885 27.9105H152.863V20.6929C152.863 18.0146 151.884 16.6692 149.925 16.6692C148.909 16.6692 148.08 17.0464 147.414 17.8134C146.749 18.5805 146.423 19.5361 146.423 20.6929V27.9105H144.401V15.2609H146.423V17.3608H146.473C147.427 15.7639 148.808 14.9717 150.616 14.9591C151.997 14.9591 153.052 15.4118 153.78 16.3045C154.508 17.1973 154.872 18.4924 154.872 20.1774L154.885 27.9105Z" fill="white"/>
<path d="M167.74 27.9103H165.719V25.9361H165.669C164.79 27.4576 163.497 28.212 161.789 28.212C160.534 28.212 159.542 27.8725 158.839 27.2061C158.136 26.5397 157.772 25.6595 157.772 24.5529C157.772 22.189 159.166 20.8184 161.94 20.4286L165.732 19.9005C165.732 17.7503 164.865 16.6815 163.133 16.6815C161.614 16.6815 160.233 17.1971 159.015 18.2407V16.166C160.258 15.3738 161.689 14.984 163.309 14.984C166.272 14.984 167.766 16.5558 167.766 19.6993L167.74 27.9103ZM165.719 21.51L162.668 21.925C161.727 22.0507 161.024 22.2896 160.547 22.6165C160.069 22.956 159.831 23.5345 159.831 24.3895C159.831 25.0056 160.057 25.5086 160.496 25.8984C160.936 26.2882 161.526 26.4894 162.254 26.4894C163.258 26.4894 164.087 26.1373 164.74 25.4331C165.393 24.729 165.719 23.8362 165.719 22.7549V21.51Z" fill="white"/>
<path d="M182.028 27.9105H180.007V20.6929C180.007 18.0146 179.027 16.6692 177.069 16.6692C176.052 16.6692 175.223 17.0464 174.558 17.8134C173.892 18.5805 173.566 19.5361 173.566 20.6929V27.9105H171.545V15.2609H173.566V17.3608H173.616C174.57 15.7639 175.951 14.9717 177.759 14.9591C179.14 14.9591 180.195 15.4118 180.923 16.3045C181.651 17.1973 182.015 18.4924 182.015 20.1774L182.028 27.9105Z" fill="white"/>
<path d="M194.457 27.332C193.49 27.9104 192.335 28.2122 191.004 28.2122C189.209 28.2122 187.753 27.6212 186.648 26.4518C185.543 25.2824 184.99 23.7609 184.99 21.8874C184.99 19.8 185.581 18.1277 186.773 16.8703C187.966 15.6003 189.56 14.9716 191.544 14.9716C192.649 14.9716 193.628 15.1727 194.482 15.5877V17.6624C193.54 17.0086 192.548 16.6691 191.469 16.6691C190.176 16.6691 189.121 17.1343 188.292 18.0522C187.464 18.9827 187.049 20.1898 187.049 21.6987C187.049 23.1825 187.439 24.3519 188.217 25.2069C188.995 26.062 190.037 26.4895 191.343 26.4895C192.448 26.4895 193.477 26.1249 194.457 25.3955V27.332Z" fill="white"/>
<path d="M207.652 22.0885H198.738C198.776 23.4968 199.152 24.5782 199.868 25.3453C200.596 26.1123 201.588 26.4895 202.856 26.4895C204.275 26.4895 205.58 26.0243 206.773 25.0812V26.9799C205.668 27.7846 204.199 28.187 202.366 28.187C200.584 28.187 199.177 27.6086 198.16 26.4644C197.144 25.3201 196.629 23.698 196.629 21.6107C196.629 19.6491 197.181 18.0397 198.299 16.7948C199.416 15.55 200.797 14.9338 202.454 14.9338C204.111 14.9338 205.379 15.4745 206.283 16.5433C207.187 17.6121 207.639 19.0959 207.639 21.0072V22.0885H207.652ZM205.58 20.3785C205.568 19.2091 205.292 18.3037 204.739 17.6499C204.187 16.996 203.408 16.6691 202.429 16.6691C201.513 16.6565 200.634 17.0211 200.006 17.6876C199.341 18.3666 198.926 19.2594 198.776 20.3659L205.58 20.3785Z" fill="white"/>
</svg>
