<svg width="187" height="41" viewBox="0 0 187 41" fill="none" xmlns="http://www.w3.org/2000/svg">
<path d="M29.576 34.0202V26.7974H21.7976C19.7034 26.7974 17.7374 27.9086 16.6262 29.7463L14.1046 34.0202H29.576Z" fill="white"/>
<path d="M4.83032 6.19727V13.4201H25.3021L29.576 6.19727H4.83032Z" fill="white"/>
<path d="M14.9167 17.6512L4.87317 34.0201H13.4636L25.5159 14.4458H20.7719C18.3358 14.4458 16.1134 15.6852 14.9167 17.6512Z" fill="white"/>
<path d="M47.1415 27.652C42.9532 27.652 39.876 24.5748 39.876 20.3864C39.876 16.2835 42.9959 13.1208 47.1843 13.1208C51.3727 13.1208 54.4926 16.2835 54.4926 20.3864C54.4926 24.4893 51.3299 27.652 47.1415 27.652ZM47.1843 25.0876C49.8341 25.0876 51.7573 23.0789 51.7573 20.3864C51.7573 17.6939 49.8768 15.6852 47.1843 15.6852C44.4917 15.6852 42.6112 17.7366 42.6112 20.3864C42.6112 23.0789 44.4917 25.0876 47.1843 25.0876ZM57.2706 31.9685V16.8818H59.7921V18.2067H59.9204C60.1768 17.7793 61.1598 16.6254 63.0403 16.6254C65.9465 16.6254 67.9552 18.8051 67.9552 22.0959C67.9552 25.3868 65.9892 27.652 63.1258 27.652C61.288 27.652 60.305 26.6262 59.9631 26.0279H59.8349V31.9685H57.2706ZM62.6129 25.2586C64.2797 25.2586 65.3909 23.9764 65.3909 22.0959C65.3909 20.1727 64.2797 18.9333 62.5702 18.9333C60.8606 18.9333 59.7921 20.3009 59.7921 22.0959C59.7921 24.0619 60.9888 25.2586 62.6129 25.2586ZM75.349 27.652C72.2718 27.652 70.0921 25.3441 70.0921 22.1814C70.0921 18.8478 72.2718 16.6254 75.349 16.6254C78.6826 16.6254 80.5203 19.1042 80.5203 22.0959V22.908H72.6137C72.6992 24.4893 73.7677 25.6005 75.4345 25.6005C76.7166 25.6005 77.6569 25.0022 78.0415 24.1474H80.4349C79.922 26.2416 78.0415 27.652 75.349 27.652ZM72.6564 21.0275H78.0843C77.956 19.6171 76.8876 18.6769 75.3917 18.6769C73.9386 18.6769 72.8274 19.7026 72.6564 21.0275ZM83.2983 27.3528V16.8391H85.7344V18.1213H85.8627C86.29 17.352 87.3158 16.5827 88.8116 16.5827C91.1623 16.5827 92.5726 18.2495 92.5726 20.4719V27.3528H90.0083V21.1557C90.0083 19.8735 89.1963 19.0188 87.9996 19.0188C86.7602 19.0188 85.8627 20.0017 85.8627 21.3266V27.3528H83.2983ZM95.1369 27.3528V24.9594L102.36 15.7706V15.6424H95.3934V13.3345H105.608V15.6852L98.3851 24.8739V25.0449H105.651V27.3528H95.1369ZM112.66 27.652C109.583 27.652 107.403 25.3441 107.403 22.1814C107.403 18.8478 109.583 16.6254 112.66 16.6254C115.993 16.6254 117.831 19.1042 117.831 22.0959V22.908H109.924C110.01 24.4893 111.078 25.6005 112.745 25.6005C114.027 25.6005 114.968 25.0022 115.352 24.1474H117.746C117.19 26.2416 115.352 27.652 112.66 27.652ZM109.924 21.0275H115.352C115.224 19.6171 114.156 18.6769 112.66 18.6769C111.207 18.6769 110.095 19.7026 109.924 21.0275ZM120.566 31.9685V16.8818H123.088V18.2067H123.216C123.473 17.7793 124.456 16.6254 126.336 16.6254C129.242 16.6254 131.251 18.8051 131.251 22.0959C131.251 25.3868 129.285 27.652 126.422 27.652C124.584 27.652 123.601 26.6262 123.259 26.0279H123.131V31.9685H120.566ZM125.866 25.2586C127.533 25.2586 128.644 23.9764 128.644 22.0959C128.644 20.1727 127.533 18.9333 125.823 18.9333C124.114 18.9333 123.045 20.3009 123.045 22.0959C123.088 24.0619 124.285 25.2586 125.866 25.2586ZM134.072 31.9685V16.8818H136.593V18.2067H136.722C136.978 17.7793 137.961 16.6254 139.841 16.6254C142.748 16.6254 144.756 18.8051 144.756 22.0959C144.756 25.3868 142.79 27.652 139.927 27.652C138.089 27.652 137.106 26.6262 136.764 26.0279H136.636V31.9685H134.072ZM139.371 25.2586C141.038 25.2586 142.149 23.9764 142.149 22.0959C142.149 20.1727 141.038 18.9333 139.329 18.9333C137.619 18.9333 136.551 20.3009 136.551 22.0959C136.593 24.0619 137.747 25.2586 139.371 25.2586ZM152.15 27.652C149.073 27.652 146.893 25.3441 146.893 22.1814C146.893 18.8478 149.073 16.6254 152.15 16.6254C155.484 16.6254 157.322 19.1042 157.322 22.0959V22.908H149.415C149.5 24.4893 150.569 25.6005 152.236 25.6005C153.518 25.6005 154.458 25.0022 154.843 24.1474H157.236C156.68 26.2416 154.843 27.652 152.15 27.652ZM149.415 21.0275H154.843C154.714 19.6171 153.646 18.6769 152.15 18.6769C150.697 18.6769 149.586 19.7026 149.415 21.0275ZM162.621 27.3528C160.783 27.3528 159.758 26.2416 159.758 24.4038V12.3943H162.322V24.1901C162.322 24.7885 162.621 25.1304 163.134 25.1304H163.561V27.3955H162.621V27.3528ZM167.322 15.4715C166.382 15.4715 165.741 14.8731 165.741 13.9329C165.741 13.0354 166.382 12.437 167.322 12.437C168.263 12.437 168.904 13.0354 168.904 13.9329C168.946 14.8731 168.263 15.4715 167.322 15.4715ZM166.04 27.3528V16.8391H168.605V27.3528H166.04ZM171.767 27.3528V16.8391H174.203V18.1213H174.331C174.759 17.352 175.785 16.5827 177.28 16.5827C179.631 16.5827 181.041 18.2495 181.041 20.4719V27.3528H178.477V21.1557C178.477 19.8735 177.665 19.0188 176.468 19.0188C175.229 19.0188 174.331 20.0017 174.331 21.3266V27.3528H171.767Z" fill="white"/>
</svg>
