<svg width="1428" height="1322" viewBox="0 0 1428 1322" fill="none" xmlns="http://www.w3.org/2000/svg">
<g filter="url(#filter0_b_3002_1502)">
<circle cx="423" cy="982" r="40" fill="url(#paint0_linear_3002_1502)" fill-opacity="0.4"/>
<circle cx="423" cy="982" r="39.3631" stroke="url(#paint1_linear_3002_1502)" stroke-width="1.27371"/>
</g>
<g filter="url(#filter1_b_3002_1502)">
<circle cx="423" cy="982" r="30" fill="url(#paint2_linear_3002_1502)"/>
<circle cx="423" cy="982" r="29.5335" stroke="url(#paint3_linear_3002_1502)" stroke-width="0.932974"/>
</g>
<g clip-path="url(#clip0_3002_1502)">
<path d="M421.293 983.638C421.182 983.473 421.216 983.326 421.258 983.186C421.385 982.768 421.516 982.351 421.648 981.933C421.79 981.478 421.931 981.023 422.078 980.57C422.192 980.217 422.244 980.182 422.594 980.183C426.076 980.185 429.557 980.185 433.036 980.191C433.228 980.191 433.35 980.152 433.412 979.929C433.515 979.558 433.662 979.201 433.779 978.834C433.954 978.29 434.124 977.744 434.29 977.197C434.395 976.85 434.486 976.498 434.589 976.149C434.632 975.999 434.696 975.855 434.738 975.704C434.824 975.397 434.731 975.274 434.424 975.274C425.59 975.274 416.758 975.274 407.925 975.277C407.699 975.277 407.473 975.31 407.237 975.328C407.219 975.161 407.328 975.09 407.419 975.017C408.352 974.292 409.288 973.568 410.222 972.844C410.91 972.312 411.598 971.778 412.288 971.249C412.427 971.143 412.581 971.091 412.763 971.091C420.369 971.097 427.975 971.1 435.581 971.09C435.959 971.09 436.248 971.202 436.539 971.432C437.301 972.038 438.076 972.623 438.846 973.217C439.031 973.359 439.219 973.497 439.402 973.64C439.605 973.8 439.633 973.968 439.546 974.213C439.41 974.592 439.292 974.977 439.166 975.36C439.001 975.864 438.83 976.365 438.672 976.87C438.554 977.247 438.452 977.63 438.341 978.01C438.232 978.376 438.125 978.744 438.008 979.108C437.922 979.375 437.759 979.573 437.508 979.7C436.88 980.015 436.258 980.341 435.636 980.667C434.958 981.02 434.284 981.376 433.607 981.728C433.393 981.838 433.172 981.93 432.959 982.042C432.876 982.087 432.808 982.163 432.716 982.237C432.78 982.326 432.815 982.406 432.874 982.452C433.628 983.035 434.384 983.613 435.139 984.192C435.394 984.389 435.644 984.596 435.911 984.775C436.121 984.915 436.148 985.091 436.077 985.314C435.894 985.901 435.713 986.489 435.533 987.077C435.358 987.643 435.186 988.21 435.009 988.776C434.857 989.262 434.699 989.747 434.544 990.232C434.477 990.439 434.428 990.654 434.338 990.849C434.285 990.963 434.184 991.078 434.076 991.136C433.44 991.482 432.795 991.813 432.152 992.144C431.277 992.594 430.394 993.029 429.526 993.496C429.203 993.669 428.881 993.741 428.524 993.74C422.326 993.735 416.129 993.737 409.933 993.737C409.832 993.737 409.731 993.737 409.631 993.737C409.247 993.732 409.192 993.633 409.315 993.264C409.446 992.869 409.545 992.464 409.663 992.065C409.746 991.786 409.839 991.511 409.926 991.234C410.057 990.806 410.182 990.376 410.315 989.949C410.395 989.692 410.493 989.44 410.57 989.181C410.675 988.834 410.765 988.482 410.864 988.132C410.932 987.892 410.999 987.653 411.073 987.415C411.197 987.007 411.325 986.599 411.451 986.192C411.54 985.903 411.627 985.614 411.718 985.326C411.853 984.891 411.99 984.457 412.125 984.022C412.258 983.597 412.394 983.173 412.521 982.746C412.624 982.397 412.714 982.044 412.811 981.692C412.876 981.462 412.944 981.231 413.014 981.002C413.22 980.325 413.425 979.648 413.635 978.975C413.802 978.441 413.985 977.912 414.149 977.379C414.236 977.092 414.303 976.796 414.375 976.504C414.444 976.22 414.565 976.182 414.797 976.363C415.626 977.011 416.459 977.655 417.29 978.302C417.473 978.446 417.656 978.592 417.838 978.738C418.034 978.895 418.034 978.955 417.949 979.205C417.831 979.549 417.737 979.903 417.632 980.251C417.529 980.588 417.42 980.924 417.318 981.262C417.229 981.561 417.152 981.863 417.06 982.16C416.975 982.44 416.878 982.713 416.791 982.991C416.668 983.378 416.551 983.767 416.431 984.154C416.268 984.68 416.102 985.206 415.942 985.734C415.849 986.041 415.77 986.353 415.679 986.66C415.598 986.929 415.509 987.195 415.426 987.462C415.289 987.9 415.154 988.337 415.018 988.776C414.974 988.915 414.915 989.051 414.895 989.194C414.873 989.357 414.941 989.422 415.099 989.441C415.148 989.447 415.199 989.441 415.25 989.441C420.219 989.441 425.189 989.441 430.159 989.443C430.419 989.443 430.53 989.367 430.592 989.147C430.684 988.826 430.773 988.503 430.87 988.184C430.995 987.777 431.124 987.371 431.253 986.966C431.491 986.214 431.733 985.463 431.97 984.71C432.044 984.472 432.108 984.231 432.181 983.991C432.267 983.706 432.221 983.637 431.923 983.637C430.786 983.637 429.65 983.637 428.513 983.637C426.218 983.637 423.925 983.637 421.631 983.637C421.512 983.637 421.392 983.637 421.292 983.637L421.293 983.638Z" fill="black"/>
</g>
<g filter="url(#filter2_b_3002_1502)">
<circle cx="266" cy="639" r="40" fill="url(#paint4_linear_3002_1502)" fill-opacity="0.4"/>
<circle cx="266" cy="639" r="39.3631" stroke="url(#paint5_linear_3002_1502)" stroke-width="1.27371"/>
</g>
<g filter="url(#filter3_b_3002_1502)">
<circle cx="266" cy="639" r="30" fill="url(#paint6_linear_3002_1502)"/>
<circle cx="266" cy="639" r="29.5335" stroke="url(#paint7_linear_3002_1502)" stroke-width="0.932974"/>
</g>
<path fill-rule="evenodd" clip-rule="evenodd" d="M249 649.856H252.392C253.065 649.104 266.48 625.522 267 624.969C267.322 625.368 267.595 625.803 267.813 626.266L270.235 630.406C271.288 632.222 272.346 634.087 273.434 635.869C273.845 636.552 279.624 646.331 279.794 646.855H261.44C261.156 647.227 259.797 649.532 259.775 649.882H285C284.948 649.593 267.315 619.264 267 619C266.577 619.594 266.197 620.217 265.864 620.864L253.458 642.106C252.68 643.468 251.959 644.644 251.19 645.998C250.81 646.638 249.087 649.424 249 649.856Z" fill="white"/>
<path fill-rule="evenodd" clip-rule="evenodd" d="M251.769 653.97L281.538 654L279.889 651.09L256.978 651.077C257.1 650.559 258.901 647.674 259.314 646.964L264.201 638.631C264.601 637.955 265.026 637.245 265.425 636.547C265.79 635.842 266.199 635.16 266.65 634.505C266.992 634.865 270.99 641.743 271.572 642.765C272.072 643.717 272.63 644.637 273.243 645.522H276.603C276.538 645.068 272.332 638.135 271.737 637.082C270.921 635.674 270.074 634.249 269.245 632.858C268.811 632.117 267.036 628.925 266.671 628.608C266.376 628.907 256.253 646.322 255.502 647.597L251.769 653.97Z" fill="white"/>
<path fill-rule="evenodd" clip-rule="evenodd" d="M267.013 645.078H267.847C267.399 644.628 267.34 644.855 267.336 643.879C267.336 643.308 267.336 642.733 267.336 642.158C267.948 642.158 268.307 642.274 268.287 641.625C267.859 641.852 267.956 641.827 267.34 641.827C267.34 641.488 267.34 641.132 267.34 640.797C267.335 640.634 267.348 640.47 267.379 640.309C267.492 639.863 267.769 639.776 268.034 640.103C268.19 640.305 268.034 640.148 268.174 640.363C268.314 640.578 268.205 640.475 268.385 640.628L268.307 639.61C266.892 639.466 267.005 640.024 267.005 641.496C267.005 642.696 266.99 643.895 267.013 645.078Z" fill="white"/>
<path fill-rule="evenodd" clip-rule="evenodd" d="M265.615 642.176L266.377 642.013C266.452 642.584 266.469 643.161 266.426 643.735C266.46 643.981 266.434 644.231 266.348 644.465C266.262 644.699 266.119 644.909 265.931 645.078H266.786C266.822 643.49 266.657 640.807 267 639.588C266.982 639.567 265.647 642.133 265.615 642.176Z" fill="white"/>
<g filter="url(#filter4_b_3002_1502)">
<circle cx="1023" cy="967" r="40" fill="url(#paint8_linear_3002_1502)" fill-opacity="0.4"/>
<circle cx="1023" cy="967" r="39.3631" stroke="url(#paint9_linear_3002_1502)" stroke-width="1.27371"/>
</g>
<g filter="url(#filter5_b_3002_1502)">
<circle cx="1023" cy="967" r="30" fill="url(#paint10_linear_3002_1502)"/>
<circle cx="1023" cy="967" r="29.5335" stroke="url(#paint11_linear_3002_1502)" stroke-width="0.932974"/>
</g>
<path d="M1022.85 951.242C1029.86 951.242 1035.79 955.891 1037.71 962.275L1014.04 966.887V967.098L1037.37 972.249C1035.15 978.106 1029.49 982.273 1022.85 982.273C1014.29 982.273 1007.34 975.327 1007.34 966.758C1007.34 958.189 1014.29 951.242 1022.85 951.242Z" fill="#EBEB02"/>
<g filter="url(#filter6_b_3002_1502)">
<circle cx="1162" cy="633" r="40" fill="url(#paint12_linear_3002_1502)" fill-opacity="0.4"/>
<circle cx="1162" cy="633" r="39.3631" stroke="url(#paint13_linear_3002_1502)" stroke-width="1.27371"/>
</g>
<g filter="url(#filter7_b_3002_1502)">
<circle cx="1162" cy="633" r="30" fill="url(#paint14_linear_3002_1502)"/>
<circle cx="1162" cy="633" r="29.5335" stroke="url(#paint15_linear_3002_1502)" stroke-width="0.932974"/>
</g>
<g clip-path="url(#clip1_3002_1502)">
<path d="M1148.65 649.889C1148.51 649.112 1148.35 648.336 1148.23 647.544C1148.12 646.652 1148 645.743 1147.95 644.835C1147.9 643.695 1148.5 642.886 1149.57 642.506C1149.8 642.424 1150.03 642.358 1150.28 642.275C1152.92 641.416 1155.57 640.558 1158.21 639.699C1159.88 639.154 1161.53 638.609 1163.2 638.08C1164.19 637.767 1164.4 637.915 1164.57 638.939C1164.73 640.013 1164.88 641.086 1165.05 642.16C1165.16 642.936 1165.06 643.695 1164.63 644.356C1164.32 644.852 1163.82 645.116 1163.3 645.297C1161.96 645.727 1160.6 646.156 1159.27 646.602C1156.81 647.395 1154.34 648.188 1151.9 648.997C1151.01 649.294 1150.12 649.591 1149.22 649.905C1149.03 649.889 1148.83 649.889 1148.65 649.889Z" fill="white"/>
<path d="M1171.04 617.024C1171.24 618.493 1171.45 619.963 1171.62 621.45C1171.67 621.962 1171.64 622.507 1171.52 623.002C1171.34 623.762 1170.76 624.224 1170.05 624.472C1169.34 624.736 1168.63 624.951 1167.92 625.199C1165.59 625.991 1163.26 626.784 1160.95 627.593C1159.48 628.105 1158.03 628.634 1156.56 629.146C1156.36 629.212 1156.16 629.278 1155.96 629.311C1155.5 629.377 1155.25 629.212 1155.17 628.749C1155.04 628.056 1154.96 627.362 1154.86 626.668C1154.77 626.074 1154.66 625.463 1154.59 624.868C1154.46 623.514 1155.1 622.391 1156.47 621.929C1157.68 621.516 1158.87 621.103 1160.08 620.69C1162.32 619.897 1164.6 619.154 1166.83 618.312C1168.13 617.816 1169.46 617.37 1170.83 617.09C1170.86 617.09 1170.88 617.057 1170.91 617.04C1170.96 617.024 1170.99 617.024 1171.04 617.024Z" fill="white"/>
<path d="M1155.78 638.378C1155.78 637.436 1155.78 636.528 1155.78 635.62C1155.8 634.579 1155.8 633.555 1155.83 632.515C1155.85 631.739 1156.26 631.21 1156.94 630.896C1157.22 630.764 1157.51 630.682 1157.81 630.583C1159.78 629.938 1161.74 629.311 1163.71 628.683C1163.81 628.65 1163.91 628.634 1164.01 628.601C1164.02 628.634 1164.04 628.65 1164.04 628.667C1164.02 630.632 1164.01 632.597 1164.01 634.546C1164.01 635.388 1163.51 635.818 1162.82 636.066C1161.86 636.412 1160.88 636.71 1159.91 637.023C1158.65 637.436 1157.4 637.849 1156.13 638.262C1156.03 638.295 1155.91 638.328 1155.78 638.378Z" fill="white"/>
</g>
<g filter="url(#filter8_b_3002_1502)">
<circle cx="1063" cy="354" r="40" fill="url(#paint16_linear_3002_1502)" fill-opacity="0.4"/>
<circle cx="1063" cy="354" r="39.3631" stroke="url(#paint17_linear_3002_1502)" stroke-width="1.27371"/>
</g>
<g filter="url(#filter9_b_3002_1502)">
<circle cx="1063" cy="354" r="30" fill="url(#paint18_linear_3002_1502)"/>
<circle cx="1063" cy="354" r="29.5335" stroke="url(#paint19_linear_3002_1502)" stroke-width="0.932974"/>
</g>
<g clip-path="url(#clip2_3002_1502)">
<g clip-path="url(#clip3_3002_1502)">
<path fill-rule="evenodd" clip-rule="evenodd" d="M1053.32 356.057L1051.12 354.3L1051.15 368.31L1049.71 368.326L1049.7 351.238L1053.83 354.511L1053.32 356.057ZM1055.11 355.535L1063.39 362.111L1077.23 351.203L1077.27 368.3L1075.72 368.315V354.355L1063.4 364.134L1054.7 357.171L1055.11 355.535ZM1065.32 345.876L1066.14 341.941L1063.53 343.045L1066.22 340.445L1062.97 337.9L1066.85 339.406L1068.2 335.555L1068.1 339.551L1072.39 339.622L1068.15 340.907L1069.84 344.546L1067.52 342.192L1066.69 346.137C1067.78 346.424 1068.84 346.89 1069.81 347.533L1069.25 349.044C1067.07 347.453 1064.31 346.981 1061.78 347.628L1061.81 346.022C1062.97 345.786 1064.15 345.736 1065.32 345.876ZM1049.68 347.016L1055.54 351.745C1054.83 352.568 1054.24 353.497 1053.82 354.516C1053.61 355.013 1053.44 355.53 1053.32 356.062C1053.13 356.82 1053.04 357.608 1053.04 358.421C1053.04 364.094 1057.7 368.687 1063.43 368.687C1066.43 368.687 1069.13 367.437 1071.03 365.434L1069.87 364.375C1068.26 366.072 1065.97 367.131 1063.43 367.131C1058.56 367.131 1054.61 363.23 1054.61 358.416C1054.61 357.989 1054.64 357.573 1054.7 357.166C1054.79 356.604 1054.92 356.057 1055.11 355.535C1055.48 354.496 1056.05 353.542 1056.76 352.729L1063.34 358.04L1077.21 347.046V345.018L1070.2 350.62C1068.38 349.079 1066.02 348.15 1063.44 348.15C1060.83 348.15 1058.44 349.104 1056.62 350.67L1049.68 345.133V347.016ZM1068.95 351.619C1067.44 350.424 1065.52 349.707 1063.43 349.707C1061.32 349.707 1059.38 350.445 1057.86 351.669L1063.37 356.072L1068.95 351.619Z" fill="white"/>
</g>
</g>
<g filter="url(#filter10_b_3002_1502)">
<circle cx="727" cy="191" r="40" fill="url(#paint20_linear_3002_1502)" fill-opacity="0.4"/>
<circle cx="727" cy="191" r="39.3631" stroke="url(#paint21_linear_3002_1502)" stroke-width="1.27371"/>
</g>
<g filter="url(#filter11_b_3002_1502)">
<circle cx="727" cy="191" r="30" fill="url(#paint22_linear_3002_1502)"/>
<circle cx="727" cy="191" r="29.5335" stroke="url(#paint23_linear_3002_1502)" stroke-width="0.932974"/>
</g>
<g clip-path="url(#clip4_3002_1502)">
<path fill-rule="evenodd" clip-rule="evenodd" d="M726.602 207.993H727.282C727.499 207.898 727.839 207.858 728.056 207.772C728.279 207.687 728.494 207.581 728.698 207.456L729.935 206.722L737.429 202.318C738.265 201.837 739.108 201.347 739.912 200.85C740.344 200.651 740.732 200.364 741.053 200.007C741.373 199.651 741.619 199.231 741.776 198.774C742.116 197.748 741.961 189.233 741.961 187.023C741.961 184.134 742.402 182.445 739.958 181.072C736.262 178.988 732.495 176.66 728.767 174.553C728.333 174.316 727.874 174.13 727.398 174H726.432C725.957 174.136 725.5 174.33 725.071 174.577C721.397 176.723 717.615 179.02 713.957 181.111C711.575 182.469 712.031 184.268 712.031 187.086C712.031 189.288 711.876 197.804 712.232 198.822C712.39 199.274 712.637 199.687 712.959 200.036C713.282 200.385 713.671 200.663 714.104 200.85L721.482 205.262C722.302 205.751 723.137 206.233 723.949 206.738C724.55 207.129 725.178 207.475 725.828 207.772C726.06 207.874 726.455 207.922 726.602 207.993Z" fill="#333333"/>
<path fill-rule="evenodd" clip-rule="evenodd" d="M725.689 202.634C722.889 202.306 720.305 200.939 718.429 198.792C716.554 196.645 715.518 193.869 715.519 190.993C715.517 189.363 715.846 187.75 716.486 186.257L723.995 190.637C723.995 190.637 725.658 191.356 725.666 193.936V202.618L725.689 202.634ZM717.901 183.842L725.101 188.191C727.422 189.596 729.023 188.191 729.023 188.191L736.13 183.937C735.065 182.492 733.685 181.32 732.1 180.512C730.515 179.704 728.768 179.282 726.996 179.28C725.239 179.281 723.506 179.692 721.929 180.483C720.353 181.274 718.975 182.423 717.901 183.842ZM737.491 186.21C738.143 187.7 738.48 189.313 738.481 190.945C738.482 193.801 737.461 196.56 735.61 198.702C733.758 200.844 731.204 202.223 728.427 202.578L728.357 193.684C728.31 193.078 728.44 192.471 728.73 191.94C729.021 191.409 729.459 190.978 729.989 190.701C731.134 190.022 734.838 187.82 737.491 186.241V186.21Z" fill="#4D4D4D"/>
<path fill-rule="evenodd" clip-rule="evenodd" d="M725.689 201.552C723.165 201.233 720.843 199.983 719.159 198.038C717.476 196.093 716.547 193.588 716.547 190.993C716.548 189.555 716.832 188.133 717.383 186.81L723.972 190.653C723.972 190.653 725.635 191.371 725.642 193.952V201.552H725.689ZM718.821 184.395L725.101 188.191C727.421 189.596 729.022 188.191 729.022 188.191L735.209 184.481C734.234 183.207 732.986 182.177 731.562 181.468C730.137 180.76 728.573 180.392 726.988 180.393C725.415 180.392 723.862 180.755 722.446 181.455C721.03 182.155 719.788 183.173 718.813 184.434L718.821 184.395ZM736.609 186.762C737.162 188.101 737.441 189.54 737.429 190.993C737.431 193.572 736.514 196.064 734.849 198.005C733.185 199.946 730.886 201.204 728.38 201.545L728.318 193.731C728.271 193.125 728.401 192.518 728.692 191.987C728.982 191.456 729.42 191.025 729.95 190.748C731.002 190.101 734.049 188.285 736.578 186.786L736.609 186.762Z" fill="#666666"/>
<path fill-rule="evenodd" clip-rule="evenodd" d="M725.689 200.479C723.452 200.156 721.403 199.021 719.92 197.281C718.437 195.541 717.619 193.314 717.615 191.008C717.616 189.758 717.855 188.52 718.319 187.362L723.995 190.669C723.995 190.669 725.658 191.387 725.666 193.968V200.495L725.689 200.479ZM719.726 184.947L725.14 188.191C727.46 189.596 729.061 188.191 729.061 188.191L734.343 185.034C733.464 183.92 732.351 183.021 731.086 182.404C729.821 181.786 728.437 181.466 727.035 181.467C725.642 181.465 724.266 181.781 723.009 182.391C721.751 183.002 720.643 183.891 719.765 184.994L719.726 184.947ZM735.666 187.315C736.142 188.477 736.387 189.725 736.385 190.985C736.383 193.281 735.574 195.501 734.103 197.239C732.632 198.977 730.599 200.119 728.373 200.455L728.319 193.715C728.271 193.109 728.401 192.502 728.692 191.971C728.982 191.441 729.42 191.009 729.95 190.732C730.878 190.18 733.361 188.696 735.666 187.323V187.315Z" fill="#808080"/>
<path fill-rule="evenodd" clip-rule="evenodd" d="M725.681 199.485C723.701 199.163 721.898 198.132 720.597 196.575C719.295 195.018 718.581 193.039 718.582 190.993C718.578 189.912 718.775 188.841 719.162 187.836L723.995 190.653C723.995 190.653 725.658 191.371 725.666 193.952V199.477L725.681 199.485ZM720.561 185.452L725.101 188.191C727.421 189.596 729.022 188.191 729.022 188.191L733.462 185.531C732.673 184.563 731.684 183.785 730.566 183.252C729.449 182.718 728.23 182.443 726.996 182.445C725.771 182.445 724.561 182.717 723.449 183.243C722.338 183.77 721.352 184.537 720.561 185.492V185.452ZM734.831 187.82C735.217 188.826 735.417 189.896 735.418 190.977C735.419 193.015 734.71 194.987 733.419 196.541C732.127 198.095 730.336 199.13 728.365 199.461L728.319 193.715C728.271 193.109 728.401 192.502 728.692 191.971C728.982 191.441 729.42 191.009 729.95 190.732C730.77 190.243 732.789 189.043 734.831 187.82Z" fill="#B3B3B3"/>
<path fill-rule="evenodd" clip-rule="evenodd" d="M725.681 198.553C723.945 198.233 722.374 197.301 721.243 195.919C720.112 194.537 719.493 192.793 719.494 190.993C719.493 190.073 719.656 189.162 719.974 188.301L724.011 190.669C724.011 190.669 725.674 191.387 725.681 193.968V198.569V198.553ZM721.35 185.926L725.101 188.191C727.421 189.596 729.022 188.191 729.022 188.191L732.673 186.005C731.973 185.164 731.103 184.488 730.124 184.022C729.144 183.556 728.077 183.312 726.996 183.306C725.928 183.305 724.872 183.538 723.898 183.987C722.924 184.436 722.056 185.091 721.35 185.91V185.926ZM734.042 188.293C734.359 189.157 734.521 190.071 734.521 190.993C734.519 192.791 733.898 194.532 732.768 195.912C731.637 197.292 730.068 198.224 728.334 198.546V193.731C728.287 193.125 728.417 192.518 728.707 191.987C728.998 191.456 729.436 191.025 729.966 190.748L734.042 188.293Z" fill="#CCCCCC"/>
<path fill-rule="evenodd" clip-rule="evenodd" d="M725.673 197.512C724.217 197.198 722.91 196.384 721.972 195.204C721.034 194.024 720.523 192.551 720.523 191.032C720.517 190.283 720.635 189.539 720.871 188.83L723.964 190.645C723.964 190.645 725.627 191.364 725.635 193.944V197.512H725.673ZM722.271 186.462L725.101 188.175C727.421 189.58 729.022 188.175 729.022 188.175L731.76 186.533C731.153 185.863 730.416 185.329 729.596 184.963C728.776 184.598 727.891 184.41 726.996 184.41C726.113 184.404 725.237 184.583 724.424 184.936C723.612 185.289 722.878 185.808 722.271 186.462ZM733.098 188.83C733.334 189.523 733.455 190.251 733.454 190.985C733.455 192.5 732.946 193.969 732.013 195.147C731.079 196.325 729.778 197.14 728.326 197.456V193.723C728.279 193.117 728.409 192.51 728.699 191.979C728.99 191.448 729.428 191.017 729.958 190.74C730.538 190.409 731.737 189.667 733.121 188.83H733.098Z" fill="#E6E6E6"/>
</g>
<g filter="url(#filter12_b_3002_1502)">
<circle cx="378" cy="341" r="40" fill="url(#paint24_linear_3002_1502)" fill-opacity="0.4"/>
<circle cx="378" cy="341" r="39.3631" stroke="url(#paint25_linear_3002_1502)" stroke-width="1.27371"/>
</g>
<g filter="url(#filter13_b_3002_1502)">
<circle cx="378" cy="341" r="30" fill="url(#paint26_linear_3002_1502)"/>
<circle cx="378" cy="341" r="29.5335" stroke="url(#paint27_linear_3002_1502)" stroke-width="0.932974"/>
</g>
<path d="M386.303 349.826C386.281 349.805 386.26 349.784 386.238 349.763C386.232 349.758 386.219 349.752 386.219 349.749C386.237 349.661 386.16 349.581 386.123 349.563C386.031 349.52 386.084 349.39 385.982 349.371C385.978 349.294 385.875 349.272 385.883 349.18C385.886 349.144 385.839 349.081 385.803 349.07C385.734 349.048 385.752 348.994 385.731 348.954C385.707 348.909 385.671 348.869 385.641 348.827C385.621 348.8 385.601 348.773 385.581 348.746C385.541 348.692 385.501 348.639 385.461 348.586C385.454 348.577 385.435 348.57 385.436 348.566C385.459 348.476 385.379 348.423 385.338 348.377C385.27 348.3 385.258 348.184 385.178 348.132C385.117 348.093 385.128 348.046 385.105 348.001C385.083 347.957 385.04 347.922 385.006 347.883C384.99 347.864 384.964 347.845 384.962 347.824C384.956 347.742 384.879 347.71 384.846 347.647C384.837 347.628 384.815 347.614 384.81 347.595C384.788 347.514 384.731 347.46 384.673 347.406C384.669 347.402 384.661 347.399 384.66 347.395C384.646 347.291 384.581 347.222 384.502 347.162C384.491 347.154 384.495 347.128 384.491 347.111C384.481 347.075 384.491 347.04 384.432 347.02C384.388 347.005 384.35 346.932 384.337 346.878C384.32 346.801 384.246 346.769 384.22 346.702C384.215 346.691 384.194 346.685 384.191 346.674C384.169 346.58 384.105 346.517 384.038 346.454C384.029 346.446 384.028 346.427 384.025 346.413C384.007 346.334 383.948 346.285 383.895 346.23C383.886 346.221 383.878 346.208 383.874 346.195C383.852 346.108 383.775 346.057 383.737 345.985C383.69 345.898 383.629 345.825 383.576 345.745C383.528 345.672 383.537 345.667 383.487 345.612C383.462 345.584 383.461 345.535 383.443 345.499C383.423 345.461 383.401 345.401 383.371 345.395C383.311 345.382 383.326 345.338 383.307 345.308C383.271 345.251 383.224 345.201 383.182 345.148C383.177 345.141 383.167 345.138 383.164 345.131C383.133 345.066 383.118 344.964 383.069 344.943C382.979 344.904 383.005 344.81 382.943 344.757C382.903 344.722 382.83 344.669 382.828 344.578C382.828 344.533 382.763 344.489 382.728 344.445C382.715 344.428 382.697 344.414 382.692 344.395C382.67 344.314 382.621 344.254 382.554 344.206C382.544 344.199 382.541 344.182 382.534 344.17C382.503 344.107 382.473 344.044 382.438 343.984C382.431 343.971 382.402 343.971 382.383 343.966C382.376 343.861 382.318 343.79 382.238 343.733C382.231 343.729 382.222 343.719 382.224 343.714C382.25 343.622 382.165 343.574 382.126 343.528C382.061 343.451 382.046 343.34 381.971 343.288C381.909 343.245 381.914 343.194 381.89 343.144C381.869 343.099 381.816 343.068 381.778 343.03C381.768 343.02 381.758 343.008 381.755 342.996C381.739 342.906 381.684 342.844 381.613 342.791C381.605 342.786 381.6 342.772 381.599 342.762C381.589 342.667 381.52 342.614 381.455 342.559C381.449 342.553 381.442 342.545 381.442 342.538C381.438 342.433 381.37 342.373 381.292 342.318C381.285 342.313 381.284 342.296 381.283 342.285C381.275 342.195 381.212 342.143 381.148 342.091C381.142 342.086 381.134 342.079 381.133 342.072C381.125 341.968 381.055 341.906 380.983 341.845C380.979 341.842 380.977 341.835 380.976 341.829C380.965 341.731 380.898 341.671 380.829 341.612C380.82 341.604 380.819 341.585 380.816 341.571C380.797 341.489 380.731 341.443 380.682 341.382C380.656 341.349 380.652 341.298 380.642 341.267C380.593 341.218 380.517 341.178 380.515 341.134C380.512 341.047 380.452 340.983 380.41 340.952C380.34 340.899 380.368 340.794 380.274 340.76C380.235 340.746 380.216 340.675 380.191 340.628C380.172 340.591 380.168 340.557 380.122 340.525C380.064 340.483 380.041 340.39 379.993 340.32C379.974 340.287 379.963 340.235 379.936 340.224C379.866 340.196 379.874 340.139 379.867 340.087C379.856 340.014 379.833 339.936 379.931 339.899C379.939 339.896 379.941 339.873 379.943 339.859C379.952 339.77 380.02 339.723 380.076 339.667C380.082 339.661 380.094 339.654 380.093 339.65C380.072 339.561 380.173 339.529 380.183 339.455C380.29 339.443 380.227 339.305 380.325 339.27C380.37 339.254 380.387 339.164 380.42 339.11C380.464 339.037 380.525 338.972 380.555 338.894C380.581 338.824 380.664 338.795 380.665 338.706C380.665 338.664 380.72 338.622 380.75 338.58C380.77 338.552 380.79 338.524 380.808 338.496C380.843 338.444 380.876 338.391 380.91 338.339C380.925 338.316 380.947 338.297 380.959 338.273C380.976 338.239 380.96 338.194 381.025 338.178C381.062 338.17 381.085 338.098 381.11 338.052C381.131 338.014 381.108 337.945 381.186 337.947C381.189 337.947 381.195 337.933 381.195 337.925C381.198 337.824 381.265 337.767 381.337 337.713C381.343 337.708 381.347 337.699 381.35 337.691C381.379 337.626 381.392 337.535 381.442 337.502C381.505 337.46 381.494 337.401 381.524 337.359C381.551 337.323 381.582 337.27 381.612 337.254C381.665 337.226 381.652 337.183 381.672 337.149C381.701 337.098 381.74 337.052 381.776 337.005C381.781 336.998 381.794 336.998 381.798 336.991C381.836 336.917 381.869 336.84 381.912 336.769C381.944 336.716 381.988 336.67 382.028 336.622C382.035 336.614 382.054 336.606 382.053 336.602C382.03 336.514 382.106 336.458 382.147 336.414C382.195 336.362 382.219 336.315 382.224 336.244H382.357C382.368 336.352 382.425 336.427 382.506 336.485C382.512 336.489 382.515 336.5 382.517 336.508C382.533 336.601 382.592 336.664 382.664 336.718C382.67 336.722 382.675 336.732 382.675 336.74C382.687 336.837 382.748 336.899 382.823 336.951C382.831 336.956 382.833 336.971 382.835 336.982C382.847 337.028 382.839 337.072 382.905 337.103C382.953 337.126 382.969 337.213 383.004 337.269C383.035 337.319 383.071 337.365 383.106 337.412C383.12 337.432 383.145 337.449 383.151 337.47C383.173 337.548 383.223 337.603 383.286 337.649C383.294 337.655 383.305 337.665 383.306 337.674C383.315 337.774 383.375 337.838 383.452 337.893C383.465 337.901 383.458 337.935 383.468 337.95C383.509 338.007 383.553 338.061 383.596 338.116C383.602 338.125 383.616 338.132 383.617 338.14C383.63 338.241 383.687 338.309 383.771 338.359C383.777 338.363 383.776 338.381 383.777 338.393C383.786 338.484 383.857 338.53 383.913 338.589C383.936 338.613 383.936 338.658 383.951 338.691C383.956 338.702 383.974 338.709 383.989 338.72C384.04 338.795 384.099 338.879 384.155 338.964C384.192 339.021 384.22 339.084 384.262 339.137C384.301 339.188 384.32 339.253 384.382 339.291C384.419 339.314 384.458 339.362 384.465 339.404C384.487 339.538 384.636 339.593 384.654 339.731C384.66 339.773 384.722 339.807 384.759 339.844C384.767 339.852 384.781 339.858 384.782 339.867C384.796 339.969 384.863 340.033 384.938 340.094C384.951 340.105 384.95 340.133 384.953 340.153C384.958 340.187 384.956 340.213 385.006 340.227C385.045 340.239 385.091 340.293 385.098 340.334C385.115 340.437 385.176 340.499 385.251 340.558C385.258 340.564 385.257 340.58 385.259 340.592C385.272 340.678 385.337 340.726 385.393 340.78C385.401 340.787 385.411 340.797 385.412 340.807C385.425 340.904 385.487 340.967 385.561 341.02C385.567 341.025 385.569 341.036 385.571 341.044C385.585 341.138 385.642 341.201 385.716 341.253C385.723 341.257 385.727 341.268 385.728 341.275C385.736 341.376 385.802 341.436 385.878 341.488C385.883 341.492 385.886 341.504 385.887 341.512C385.892 341.612 385.958 341.669 386.031 341.721C386.037 341.725 386.042 341.736 386.042 341.743C386.05 341.842 386.113 341.901 386.187 341.955C386.196 341.961 386.198 341.98 386.201 341.994C386.217 342.08 386.266 342.142 386.34 342.185C386.347 342.189 386.357 342.199 386.355 342.205C386.336 342.293 386.412 342.349 386.453 342.394C386.519 342.468 386.534 342.573 386.606 342.631C386.687 342.696 386.692 342.804 386.762 342.863C386.842 342.929 386.85 343.035 386.918 343.097C386.993 343.167 387.009 343.277 387.079 343.332C387.138 343.378 387.142 343.43 387.166 343.494C387.177 343.479 387.184 343.469 387.196 343.452C387.21 343.497 387.223 343.538 387.235 343.578C387.24 343.575 387.245 343.572 387.25 343.569C387.267 343.595 387.278 343.628 387.301 343.646C387.363 343.696 387.361 343.787 387.437 343.83C387.473 343.85 387.508 343.899 387.515 343.939C387.538 344.073 387.686 344.13 387.703 344.267C387.708 344.307 387.765 344.34 387.797 344.378C387.815 344.4 387.83 344.425 387.846 344.448C387.882 344.502 387.917 344.557 387.954 344.61C387.969 344.634 387.988 344.655 388.003 344.678C388.038 344.733 388.069 344.789 388.104 344.844C388.12 344.867 388.143 344.886 388.158 344.91C388.193 344.965 388.224 345.022 388.259 345.077C388.276 345.103 388.299 345.125 388.316 345.151C388.352 345.205 388.386 345.26 388.422 345.314C388.436 345.335 388.461 345.351 388.467 345.374C388.489 345.451 388.548 345.499 388.601 345.552C388.609 345.559 388.621 345.567 388.621 345.576C388.633 345.677 388.699 345.738 388.774 345.793C388.78 345.797 388.781 345.809 388.782 345.817C388.785 345.915 388.856 345.966 388.921 346.021C388.93 346.029 388.938 346.045 388.939 346.057C388.948 346.152 389.013 346.205 389.081 346.257C389.089 346.263 389.096 346.276 389.097 346.286C389.105 346.383 389.165 346.443 389.241 346.492C389.249 346.497 389.251 346.512 389.253 346.523C389.262 346.617 389.327 346.672 389.395 346.725C389.403 346.731 389.407 346.745 389.408 346.756C389.421 346.849 389.482 346.907 389.552 346.96C389.56 346.966 389.564 346.98 389.565 346.99C389.576 347.085 389.64 347.141 389.71 347.193C389.718 347.199 389.723 347.212 389.724 347.223C389.737 347.317 389.789 347.383 389.869 347.431C389.875 347.434 389.88 347.445 389.88 347.452C389.888 347.55 389.947 347.612 390.024 347.664C390.031 347.669 390.031 347.684 390.036 347.694C390.073 347.769 390.095 347.854 390.18 347.894C390.185 347.896 390.188 347.901 390.191 347.906C390.22 347.97 390.235 348.07 390.283 348.09C390.354 348.121 390.324 348.223 390.406 348.225C390.41 348.225 390.416 348.234 390.415 348.238C390.4 348.324 390.479 348.398 390.515 348.417C390.604 348.461 390.558 348.576 390.656 348.613C390.703 348.631 390.712 348.738 390.751 348.796C390.776 348.837 390.826 348.857 390.843 348.912C390.857 348.957 390.896 348.995 390.92 349.03C390.969 349.097 391.014 349.157 391.056 349.219C391.093 349.272 391.124 349.329 391.159 349.383C391.174 349.407 391.196 349.427 391.211 349.451C391.246 349.505 391.279 349.561 391.314 349.615C391.332 349.643 391.358 349.667 391.371 349.697C391.383 349.727 391.369 349.771 391.426 349.769C391.433 349.769 391.446 349.801 391.445 349.818C391.444 349.829 391.424 349.844 391.41 349.846C391.384 349.851 391.357 349.85 391.33 349.85C389.694 349.85 388.058 349.85 386.422 349.85H386.299C386.3 349.842 386.3 349.833 386.301 349.825L386.303 349.826Z" fill="white"/>
<path d="M370.089 349.325C370.116 349.336 370.124 349.339 370.132 349.342C370.101 349.379 370.071 349.417 370.039 349.453C370.034 349.459 369.988 349.561 369.982 349.572C369.963 349.609 369.946 349.67 369.919 349.676C369.831 349.696 369.864 349.774 369.828 349.824C369.821 349.812 369.814 349.802 369.816 349.806C369.775 349.822 369.738 349.848 369.701 349.848C368.053 349.85 366.405 349.85 364.757 349.849C364.713 349.849 364.67 349.828 364.612 349.813C364.665 349.765 364.717 349.729 364.752 349.68C364.793 349.625 364.814 349.556 364.85 349.497C364.88 349.449 364.919 349.408 364.953 349.363C364.963 349.349 364.967 349.331 364.977 349.318C365.027 349.253 365.079 349.189 365.13 349.125C365.135 349.119 365.144 349.112 365.145 349.105C365.154 349.004 365.226 348.947 365.295 348.887C365.299 348.883 365.303 348.877 365.304 348.872C365.313 348.772 365.38 348.711 365.45 348.65C365.467 348.635 365.465 348.6 365.477 348.577C365.488 348.556 365.505 348.537 365.521 348.519C365.524 348.516 365.536 348.519 365.538 348.515C365.567 348.463 365.593 348.409 365.626 348.359C365.664 348.302 365.708 348.248 365.75 348.193C365.756 348.184 365.775 348.177 365.774 348.173C365.752 348.082 365.862 348.056 365.867 347.98C365.97 347.967 365.912 347.83 366.012 347.796C366.057 347.78 366.07 347.678 366.104 347.619C366.13 347.575 366.167 347.537 366.198 347.496C366.218 347.47 366.237 347.443 366.257 347.416C366.296 347.364 366.336 347.311 366.376 347.259C366.384 347.249 366.404 347.242 366.404 347.232C366.414 347.132 366.477 347.07 366.552 347.015C366.559 347.01 366.559 346.994 366.561 346.983C366.577 346.895 366.636 346.839 366.701 346.786C366.711 346.779 366.717 346.762 366.718 346.749C366.729 346.657 366.797 346.609 366.859 346.555C366.866 346.549 366.874 346.542 366.874 346.535C366.883 346.434 366.947 346.371 367.023 346.316C367.029 346.311 367.032 346.3 367.032 346.293C367.035 346.192 367.106 346.14 367.175 346.085C367.183 346.079 367.19 346.066 367.19 346.056C367.194 345.957 367.267 345.906 367.331 345.848C367.341 345.84 367.342 345.822 367.345 345.808C367.367 345.726 367.414 345.663 367.485 345.618C367.487 345.616 367.53 345.504 367.534 345.497C367.56 345.461 367.585 345.425 367.612 345.39C367.626 345.37 367.641 345.345 367.661 345.336C367.744 345.299 367.718 345.19 367.799 345.142C367.849 345.113 367.867 345.031 367.901 344.973C367.913 344.953 367.933 344.937 367.949 344.918C367.977 344.884 368.023 344.853 368.03 344.814C368.043 344.736 368.087 344.658 368.137 344.633C368.226 344.589 368.179 344.477 368.272 344.435C368.322 344.413 368.337 344.318 368.373 344.259C368.401 344.213 368.437 344.172 368.469 344.128C368.486 344.105 368.504 344.082 368.521 344.059C368.562 344.003 368.604 343.947 368.645 343.892C368.653 343.881 368.668 343.872 368.669 343.861C368.681 343.764 368.745 343.706 368.817 343.654C368.823 343.649 368.828 343.639 368.828 343.631C368.836 343.531 368.897 343.468 368.976 343.418C368.982 343.414 368.985 343.403 368.985 343.394C368.989 343.294 369.061 343.242 369.129 343.186C369.138 343.178 369.143 343.161 369.144 343.147C369.154 343.056 369.216 343.003 369.284 342.953C369.292 342.947 369.3 342.936 369.301 342.926C369.311 342.829 369.372 342.768 369.445 342.714C369.453 342.709 369.455 342.694 369.457 342.683C369.47 342.593 369.535 342.541 369.597 342.487C369.603 342.481 369.608 342.474 369.612 342.466C369.642 342.402 369.658 342.322 369.706 342.276C369.778 342.205 369.797 342.1 369.865 342.039C369.94 341.971 369.951 341.867 370.018 341.809C370.098 341.739 370.109 341.629 370.18 341.568C370.256 341.502 370.273 341.408 370.332 341.342C370.364 341.307 370.397 341.274 370.422 341.233C370.436 341.208 370.464 341.189 370.472 341.163C370.507 341.051 370.634 340.998 370.65 340.869C370.656 340.828 370.724 340.795 370.764 340.758C370.77 340.752 370.779 340.746 370.779 340.739C370.789 340.635 370.86 340.574 370.93 340.511C370.947 340.496 370.942 340.46 370.953 340.436C370.962 340.416 370.979 340.4 370.994 340.384C371.025 340.35 371.082 340.32 371.085 340.284C371.091 340.203 371.132 340.133 371.187 340.102C371.27 340.055 371.234 339.946 371.319 339.907C371.356 339.891 371.391 339.844 371.401 339.804C371.425 339.707 371.479 339.636 371.558 339.58C371.565 339.575 371.563 339.557 371.566 339.546C371.585 339.461 371.64 339.402 371.708 339.353C371.714 339.348 371.724 339.339 371.722 339.334C371.697 339.242 371.781 339.188 371.822 339.147C371.891 339.074 371.896 338.968 371.972 338.911C372.056 338.848 372.059 338.73 372.134 338.676C372.19 338.635 372.191 338.59 372.212 338.541C372.232 338.494 372.283 338.461 372.321 338.423C372.331 338.412 372.348 338.404 372.354 338.391C372.384 338.329 372.396 338.247 372.443 338.208C372.524 338.142 372.529 338.033 372.602 337.974C372.681 337.908 372.689 337.8 372.758 337.739C372.835 337.671 372.865 337.58 372.914 337.499C372.923 337.484 372.955 337.483 372.977 337.475C372.981 337.37 373.041 337.302 373.123 337.247C373.131 337.242 373.138 337.228 373.139 337.218C373.143 337.118 373.219 337.071 373.279 337.006C373.328 336.952 373.348 336.871 373.381 336.802C373.382 336.799 373.383 336.796 373.401 336.805C373.445 336.742 373.489 336.678 373.532 336.614C373.569 336.561 373.604 336.508 373.642 336.456C373.649 336.445 373.666 336.441 373.673 336.43C373.706 336.37 373.735 336.307 373.772 336.25C373.778 336.241 373.826 336.247 373.845 336.26C373.869 336.278 373.883 336.309 373.898 336.336C373.949 336.415 373.999 336.494 374.073 336.609C374.073 336.663 374.135 336.73 374.212 336.788C374.218 336.793 374.226 336.801 374.227 336.808C374.234 336.913 374.31 336.97 374.374 337.04C374.398 337.065 374.394 337.117 374.419 337.148C374.437 337.177 374.449 337.226 374.473 337.232C374.573 337.257 374.51 337.399 374.613 337.418C374.62 337.42 374.619 337.451 374.625 337.467C374.651 337.541 374.695 337.602 374.76 337.649C374.77 337.656 374.779 337.671 374.78 337.682C374.784 337.781 374.855 337.832 374.92 337.888C374.93 337.896 374.931 337.914 374.935 337.927C374.948 337.97 374.931 338.025 375.005 338.041C375.021 338.044 375.082 338.128 375.08 338.145C375.07 338.24 375.149 338.307 375.189 338.335C375.262 338.384 375.227 338.485 375.318 338.52C375.364 338.538 375.371 338.637 375.415 338.679C375.482 338.742 375.473 338.843 375.554 338.904C375.606 338.942 375.618 339.032 375.654 339.094C375.68 339.138 375.718 339.175 375.75 339.215C375.766 339.235 375.782 339.255 375.794 339.277C375.812 339.311 375.794 339.363 375.863 339.371C375.888 339.374 375.91 339.431 375.929 339.466C375.967 339.535 375.999 339.608 376.04 339.675C376.076 339.732 376.122 339.783 376.162 339.837C376.173 339.851 376.18 339.869 376.188 339.886C376.205 339.924 376.184 339.983 376.255 339.993C376.264 339.995 376.276 340.078 376.262 340.114C376.245 340.157 376.203 340.19 376.172 340.228C376.153 340.252 376.125 340.273 376.118 340.3C376.1 340.374 376.036 340.412 375.995 340.467C375.988 340.475 375.969 340.482 375.97 340.486C375.988 340.575 375.886 340.605 375.877 340.68C375.771 340.69 375.832 340.825 375.736 340.861C375.689 340.879 375.672 340.978 375.641 341.04C375.635 341.052 375.631 341.066 375.621 341.075C375.561 341.131 375.502 341.182 375.481 341.27C375.469 341.319 375.421 341.36 375.389 341.404C375.371 341.429 375.35 341.453 375.332 341.479C375.295 341.534 375.259 341.59 375.221 341.644C375.213 341.655 375.193 341.66 375.191 341.67C375.173 341.766 375.108 341.828 375.04 341.888C375.027 341.9 375.027 341.926 375.021 341.946C375.012 341.979 375.022 342.016 374.964 342.027C374.93 342.034 374.883 342.091 374.883 342.125C374.885 342.214 374.821 342.284 374.777 342.313C374.703 342.364 374.743 342.476 374.643 342.502C374.61 342.51 374.576 342.569 374.567 342.61C374.545 342.709 374.466 342.766 374.415 342.844C374.365 342.923 374.326 343.01 374.282 343.094C374.276 343.087 374.268 343.076 374.266 343.073C374.219 343.157 374.172 343.242 374.123 343.33C374.117 343.322 374.109 343.31 374.101 343.298C374.067 343.343 374.112 343.437 374.012 343.441C374.008 343.441 374.004 343.462 374.003 343.473C373.994 343.565 373.93 343.617 373.866 343.67C373.856 343.678 373.849 343.694 373.848 343.707C373.841 343.802 373.77 343.851 373.708 343.907C373.702 343.912 373.696 343.92 373.695 343.928C373.682 344.026 373.625 344.092 373.546 344.145C373.539 344.15 373.538 344.166 373.536 344.177C373.521 344.266 373.468 344.327 373.395 344.375C373.388 344.379 373.379 344.389 373.38 344.393C373.411 344.487 373.322 344.537 373.283 344.583C373.218 344.658 373.206 344.766 373.132 344.821C373.047 344.884 373.052 345 372.977 345.053C372.889 345.117 372.897 345.235 372.821 345.292C372.738 345.354 372.735 345.464 372.665 345.524C372.586 345.591 372.579 345.707 372.504 345.76C372.442 345.803 372.449 345.855 372.425 345.904C372.403 345.949 372.35 345.98 372.31 346.016C372.304 346.022 372.29 346.028 372.291 346.032C372.308 346.119 372.21 346.152 372.2 346.226C372.093 346.239 372.161 346.393 372.055 346.407C372.051 346.485 371.951 346.507 371.955 346.597C371.956 346.637 371.897 346.679 371.866 346.72C371.847 346.744 371.829 346.768 371.811 346.792C371.771 346.847 371.73 346.902 371.689 346.957C371.682 346.966 371.663 346.973 371.664 346.978C371.688 347.069 371.608 347.123 371.567 347.165C371.484 347.249 371.48 347.386 371.362 347.439C371.353 347.443 371.352 347.466 371.348 347.479C371.326 347.558 371.277 347.618 371.211 347.666C371.207 347.669 371.2 347.674 371.2 347.678C371.19 347.784 371.125 347.852 371.044 347.909C371.039 347.913 371.038 347.925 371.038 347.934C371.032 348.03 370.959 348.08 370.898 348.139C370.892 348.145 370.883 348.152 370.882 348.159C370.872 348.261 370.806 348.324 370.731 348.381C370.724 348.387 370.726 348.403 370.724 348.415C370.71 348.499 370.654 348.555 370.592 348.606C370.586 348.611 370.577 348.618 370.576 348.624C370.559 348.722 370.494 348.788 370.425 348.852C370.418 348.858 370.418 348.873 370.415 348.885C370.399 348.97 370.333 349.02 370.281 349.081C370.269 349.095 370.263 349.115 370.253 349.132C370.218 349.191 370.184 349.249 370.147 349.306C370.141 349.315 370.12 349.315 370.089 349.325L370.089 349.325Z" fill="white"/>
<path d="M382.478 349.51C382.496 349.542 382.511 349.575 382.532 349.605C382.571 349.662 382.618 349.716 382.654 349.775C382.675 349.81 382.683 349.854 382.687 349.894C382.688 349.902 382.643 349.917 382.618 349.924C382.604 349.929 382.589 349.925 382.574 349.925C379.568 349.925 376.562 349.925 373.555 349.925C373.508 349.925 373.461 349.923 373.414 349.918C373.401 349.917 373.385 349.901 373.38 349.888C373.377 349.879 373.39 349.853 373.395 349.853C373.452 349.853 373.439 349.805 373.457 349.775C373.492 349.714 373.541 349.661 373.584 349.603C373.593 349.59 373.598 349.574 373.603 349.559C373.617 349.517 373.592 349.452 373.671 349.448C373.677 349.448 373.683 349.424 373.685 349.411C373.7 349.323 373.759 349.267 373.822 349.211C373.834 349.199 373.834 349.174 373.84 349.156C373.853 349.119 373.831 349.059 373.903 349.061C373.908 349.061 373.915 349.056 373.917 349.051C373.946 348.989 373.973 348.926 374.003 348.864C374.009 348.85 374.021 348.838 374.032 348.828C374.043 348.82 374.069 348.816 374.068 348.812C374.056 348.728 374.115 348.668 374.161 348.622C374.219 348.565 374.198 348.458 374.293 348.433C374.3 348.432 374.31 348.421 374.31 348.415C374.307 348.305 374.417 348.252 374.443 348.17C374.471 348.081 374.564 348.033 374.561 347.928C374.559 347.888 374.62 347.846 374.652 347.804C374.67 347.78 374.688 347.756 374.703 347.731C374.722 347.7 374.739 347.667 374.766 347.64C374.776 347.539 374.839 347.471 374.913 347.41C374.922 347.402 374.928 347.387 374.932 347.374C374.947 347.329 374.925 347.262 375.005 347.257C375.009 347.256 375.014 347.242 375.015 347.234C375.024 347.136 375.083 347.072 375.154 347.013C375.169 347.001 375.164 346.968 375.175 346.948C375.189 346.922 375.21 346.899 375.227 346.875C375.235 346.864 375.246 346.855 375.252 346.843C375.28 346.779 375.291 346.695 375.339 346.657C375.394 346.612 375.392 346.553 375.423 346.511C375.451 346.475 375.485 346.442 375.503 346.396C375.52 346.356 375.544 346.319 375.566 346.281C375.572 346.269 375.58 346.248 375.587 346.248C375.647 346.251 375.633 346.202 375.647 346.17C375.659 346.142 375.681 346.119 375.699 346.094C375.704 346.088 375.714 346.084 375.716 346.077C375.728 346.037 375.731 346.009 375.778 345.975C375.836 345.933 375.847 345.829 375.886 345.755C375.914 345.703 375.955 345.659 375.99 345.611C376 345.597 376.013 345.584 376.023 345.569C376.047 345.53 376.018 345.455 376.101 345.453C376.104 345.453 376.108 345.427 376.11 345.413C376.122 345.327 376.181 345.274 376.243 345.222C376.247 345.218 376.256 345.213 376.255 345.211C376.236 345.111 376.334 345.066 376.36 344.987C376.38 344.928 376.434 344.881 376.473 344.83C376.477 344.826 376.488 344.823 376.487 344.821C376.476 344.733 376.552 344.686 376.585 344.618C376.615 344.554 376.668 344.499 376.71 344.44C376.719 344.427 376.726 344.412 376.731 344.397C376.746 344.354 376.729 344.291 376.803 344.286C376.808 344.285 376.814 344.266 376.815 344.255C376.82 344.159 376.887 344.105 376.952 344.048C376.956 344.045 376.96 344.04 376.962 344.035C376.995 343.962 377.022 343.885 377.062 343.816C377.095 343.759 377.143 343.712 377.185 343.66C377.19 343.654 377.201 343.648 377.202 343.642C377.203 343.537 377.313 343.482 377.332 343.404C377.355 343.305 377.47 343.261 377.457 343.148C377.454 343.12 377.521 343.057 377.529 343.055C377.622 343.026 377.562 342.888 377.664 342.872C377.67 342.871 377.672 342.846 377.675 342.832C377.687 342.745 377.75 342.691 377.807 342.634C377.81 342.629 377.82 342.626 377.819 342.623C377.807 342.53 377.908 342.489 377.919 342.405C377.922 342.383 377.948 342.365 377.961 342.343C377.977 342.319 377.99 342.293 378.015 342.25C378.04 342.264 378.071 342.281 378.104 342.299C378.103 342.302 378.11 342.291 378.12 342.273C378.131 342.305 378.137 342.333 378.149 342.357C378.16 342.379 378.176 342.398 378.192 342.418C378.199 342.426 378.217 342.431 378.217 342.437C378.219 342.547 378.302 342.607 378.361 342.682C378.375 342.699 378.373 342.727 378.383 342.748C378.395 342.771 378.411 342.791 378.426 342.81C378.433 342.818 378.448 342.821 378.452 342.83C378.483 342.895 378.51 342.963 378.544 343.026C378.572 343.077 378.609 343.122 378.641 343.174C378.659 343.207 378.677 343.241 378.698 343.272C378.737 343.329 378.78 343.384 378.818 343.442C378.834 343.467 378.839 343.499 378.853 343.526C378.866 343.553 378.883 343.578 378.911 343.598C378.922 343.704 378.988 343.773 379.064 343.837C379.079 343.85 379.078 343.88 379.085 343.902C379.095 343.935 379.078 343.986 379.142 343.981C379.148 343.98 379.161 343.997 379.161 344.006C379.166 344.109 379.231 344.173 379.307 344.231C379.315 344.238 379.312 344.259 379.317 344.273C379.331 344.31 379.305 344.375 379.383 344.373C379.387 344.373 379.395 344.397 379.397 344.41C379.41 344.5 379.472 344.557 379.534 344.613C379.54 344.618 379.548 344.626 379.548 344.633C379.542 344.747 379.644 344.8 379.689 344.884C379.702 344.909 379.701 344.943 379.716 344.966C379.73 344.987 379.757 344.999 379.784 345.02C379.795 345.069 379.786 345.126 379.859 345.169C379.908 345.198 379.92 345.291 379.95 345.354C379.956 345.368 379.969 345.379 379.982 345.388C379.992 345.397 380.017 345.403 380.016 345.406C379.995 345.494 380.066 345.564 380.109 345.593C380.186 345.644 380.145 345.765 380.246 345.785C380.251 345.786 380.257 345.8 380.257 345.808C380.259 345.91 380.329 345.969 380.394 346.034C380.409 346.049 380.407 346.079 380.418 346.099C380.433 346.125 380.452 346.148 380.47 346.172C380.477 346.181 380.49 346.188 380.491 346.197C380.496 346.3 380.555 346.366 380.633 346.424C380.648 346.435 380.643 346.469 380.654 346.489C380.667 346.515 380.687 346.539 380.704 346.563C380.711 346.572 380.725 346.579 380.725 346.587C380.73 346.69 380.8 346.749 380.869 346.811C380.88 346.82 380.877 346.844 380.883 346.86C380.896 346.896 380.871 346.957 380.945 346.954C380.951 346.954 380.96 346.972 380.961 346.982C380.974 347.079 381.033 347.144 381.105 347.202C381.12 347.214 381.113 347.248 381.123 347.268C381.136 347.295 381.156 347.318 381.174 347.341C381.181 347.35 381.193 347.355 381.197 347.364C381.226 347.429 381.238 347.534 381.285 347.553C381.383 347.592 381.329 347.71 381.424 347.75C381.471 347.77 381.484 347.87 381.515 347.932C381.522 347.947 381.539 347.959 381.552 347.971C381.562 347.98 381.585 347.989 381.584 347.994C381.562 348.082 381.666 348.115 381.671 348.19C381.777 348.204 381.703 348.363 381.816 348.373C381.82 348.373 381.823 348.388 381.823 348.396C381.825 348.495 381.894 348.551 381.959 348.611C381.968 348.619 381.966 348.638 381.973 348.651C381.994 348.689 381.967 348.76 382.046 348.76C382.05 348.76 382.057 348.78 382.058 348.79C382.064 348.886 382.131 348.941 382.194 349C382.205 349.011 382.205 349.032 382.212 349.047C382.227 349.085 382.203 349.151 382.28 349.146C382.282 349.146 382.286 349.15 382.286 349.152C382.295 349.266 382.375 349.336 382.442 349.416C382.461 349.438 382.454 349.483 382.459 349.518C382.466 349.515 382.472 349.513 382.479 349.51H382.478Z" fill="white"/>
<path d="M376.886 332.288C376.868 332.28 376.858 332.275 376.843 332.268C376.86 332.261 376.883 332.257 376.887 332.247C376.916 332.17 376.973 332.118 377.035 332.07C377.042 332.064 377.043 332.049 377.045 332.037C377.06 331.949 377.118 331.894 377.187 331.847C377.195 331.841 377.204 331.83 377.205 331.82C377.215 331.721 377.284 331.668 377.352 331.607C377.399 331.565 377.414 331.49 377.45 331.435C377.481 331.388 377.521 331.348 377.557 331.304C377.572 331.287 377.592 331.27 377.596 331.25C377.613 331.168 377.674 331.122 377.73 331.069C377.766 331.035 377.822 330.991 377.82 330.956C377.814 330.868 377.885 330.801 377.92 330.782C377.999 330.74 377.977 330.652 378.027 330.607C378.088 330.668 378.143 330.722 378.197 330.777C378.203 330.783 378.211 330.79 378.211 330.798C378.224 330.896 378.294 330.951 378.363 331.008C378.37 331.013 378.374 331.022 378.375 331.03C378.381 331.129 378.447 331.185 378.521 331.236C378.529 331.241 378.532 331.255 378.537 331.265C378.574 331.341 378.612 331.411 378.674 331.476C378.714 331.517 378.781 331.564 378.785 331.651C378.787 331.695 378.851 331.736 378.886 331.779C378.901 331.797 378.919 331.814 378.926 331.834C378.943 331.886 379.015 331.973 379.064 332.014C379.1 332.044 379.15 332.091 379.149 332.129C379.147 332.216 379.214 332.266 379.254 332.305C379.323 332.375 379.336 332.472 379.404 332.534C379.479 332.601 379.537 332.674 379.569 332.774C379.583 332.819 379.647 332.847 379.687 332.884C379.695 332.891 379.703 332.902 379.704 332.913C379.719 333.007 379.779 333.066 379.854 333.118C379.879 333.136 379.886 333.18 379.904 333.218C379.91 333.214 379.899 333.222 379.895 333.225C379.939 333.281 379.971 333.356 380.026 333.386C380.11 333.43 380.076 333.535 380.162 333.579C380.211 333.604 380.229 333.687 380.266 333.74C380.303 333.792 380.347 333.84 380.388 333.889C380.418 333.925 380.474 333.957 380.476 333.994C380.481 334.075 380.531 334.151 380.575 334.169C380.673 334.208 380.622 334.328 380.707 334.361C380.716 334.364 380.71 334.404 380.711 334.427C380.66 334.427 380.659 334.494 380.648 334.497C380.553 334.523 380.604 334.648 380.511 334.681C380.472 334.694 380.454 334.771 380.426 334.819C380.407 334.852 380.428 334.915 380.356 334.909C380.352 334.909 380.346 334.939 380.339 334.954C380.309 335.014 380.281 335.075 380.246 335.132C380.239 335.145 380.209 335.144 380.19 335.149C380.185 335.254 380.127 335.324 380.046 335.379C380.04 335.383 380.033 335.392 380.032 335.399C380.024 335.499 379.966 335.566 379.886 335.619C379.882 335.621 379.878 335.628 379.878 335.633C379.871 335.737 379.811 335.804 379.728 335.857C379.722 335.861 379.719 335.873 379.719 335.881C379.714 335.98 379.647 336.037 379.576 336.092C379.57 336.097 379.564 336.106 379.564 336.114C379.558 336.212 379.491 336.269 379.425 336.328C379.419 336.333 379.415 336.343 379.414 336.351C379.398 336.447 379.338 336.51 379.263 336.565C379.257 336.569 379.256 336.581 379.255 336.589C379.242 336.685 379.174 336.742 379.113 336.807C379.098 336.822 379.093 336.848 379.088 336.871C379.081 336.904 379.089 336.946 379.032 336.94C379.026 336.939 379.016 336.954 379.011 336.964C378.982 337.027 378.971 337.113 378.922 337.151C378.837 337.217 378.836 337.327 378.767 337.39C378.692 337.461 378.673 337.569 378.603 337.628C378.553 337.67 378.555 337.716 378.529 337.758C378.5 337.806 378.452 337.842 378.413 337.883C378.403 337.893 378.393 337.902 378.387 337.914C378.358 337.976 378.342 338.081 378.299 338.094C378.194 338.125 378.265 338.263 378.155 338.282C378.122 338.288 378.104 338.364 378.073 338.402C378.06 338.418 378.031 338.421 378.011 338.43C377.967 338.35 377.929 338.28 377.89 338.21C377.888 338.21 377.887 338.21 377.886 338.21C377.869 338.184 377.858 338.144 377.835 338.135C377.745 338.102 377.793 337.969 377.693 337.946C377.687 337.945 377.682 337.927 377.681 337.916C377.668 337.825 377.609 337.768 377.542 337.714C377.531 337.705 377.53 337.683 377.525 337.667C377.501 337.59 377.459 337.526 377.389 337.482C377.382 337.478 377.376 337.471 377.373 337.463C377.342 337.398 377.329 337.312 377.278 337.271C377.197 337.203 377.198 337.088 377.122 337.032C377.039 336.969 377.042 336.857 376.969 336.798C376.889 336.733 376.884 336.617 376.81 336.562C376.751 336.518 376.753 336.466 376.728 336.415C376.705 336.369 376.654 336.337 376.617 336.298C376.607 336.288 376.599 336.276 376.595 336.263C376.573 336.176 376.517 336.114 376.45 336.058C376.444 336.054 376.44 336.043 376.439 336.035C376.427 335.939 376.352 335.883 376.299 335.812C376.284 335.792 376.28 335.763 376.267 335.74C376.257 335.721 376.242 335.703 376.227 335.686C376.218 335.677 376.202 335.672 376.197 335.662C376.167 335.599 376.153 335.498 376.106 335.479C376.014 335.441 376.066 335.314 375.967 335.298C375.964 335.221 375.871 335.194 375.866 335.109C375.864 335.064 375.806 335.023 375.773 334.98C375.756 334.958 375.728 334.938 375.725 334.915C375.715 334.835 375.639 334.803 375.607 334.74C375.601 334.729 375.579 334.724 375.578 334.713C375.561 334.617 375.496 334.556 375.43 334.492C375.38 334.445 375.411 334.321 375.46 334.272C375.504 334.229 375.538 334.17 375.562 334.112C375.591 334.043 375.647 334.003 375.697 333.954C375.704 333.947 375.713 333.937 375.714 333.927C375.724 333.829 375.788 333.772 375.864 333.721C375.874 333.714 375.872 333.689 375.878 333.673C375.902 333.599 375.948 333.543 376.011 333.494C376.049 333.465 376.078 333.42 376.104 333.378C376.139 333.32 376.153 333.243 376.2 333.2C376.275 333.131 376.296 333.029 376.362 332.962C376.429 332.896 376.496 332.839 376.514 332.739C376.519 332.709 376.555 332.67 376.585 332.662C376.684 332.636 376.634 332.509 376.728 332.472C376.77 332.455 376.788 332.378 376.821 332.331C376.833 332.314 376.858 332.305 376.886 332.288H376.886Z" fill="white"/>
<defs>
<filter id="filter0_b_3002_1502" x="306.577" y="865.577" width="232.846" height="232.846" filterUnits="userSpaceOnUse" color-interpolation-filters="sRGB">
<feFlood flood-opacity="0" result="BackgroundImageFix"/>
<feGaussianBlur in="BackgroundImageFix" stdDeviation="38.2114"/>
<feComposite in2="SourceAlpha" operator="in" result="effect1_backgroundBlur_3002_1502"/>
<feBlend mode="normal" in="SourceGraphic" in2="effect1_backgroundBlur_3002_1502" result="shape"/>
</filter>
<filter id="filter1_b_3002_1502" x="337.022" y="896.022" width="171.957" height="171.957" filterUnits="userSpaceOnUse" color-interpolation-filters="sRGB">
<feFlood flood-opacity="0" result="BackgroundImageFix"/>
<feGaussianBlur in="BackgroundImageFix" stdDeviation="27.9892"/>
<feComposite in2="SourceAlpha" operator="in" result="effect1_backgroundBlur_3002_1502"/>
<feBlend mode="normal" in="SourceGraphic" in2="effect1_backgroundBlur_3002_1502" result="shape"/>
</filter>
<filter id="filter2_b_3002_1502" x="149.577" y="522.577" width="232.846" height="232.846" filterUnits="userSpaceOnUse" color-interpolation-filters="sRGB">
<feFlood flood-opacity="0" result="BackgroundImageFix"/>
<feGaussianBlur in="BackgroundImageFix" stdDeviation="38.2114"/>
<feComposite in2="SourceAlpha" operator="in" result="effect1_backgroundBlur_3002_1502"/>
<feBlend mode="normal" in="SourceGraphic" in2="effect1_backgroundBlur_3002_1502" result="shape"/>
</filter>
<filter id="filter3_b_3002_1502" x="180.022" y="553.021" width="171.957" height="171.957" filterUnits="userSpaceOnUse" color-interpolation-filters="sRGB">
<feFlood flood-opacity="0" result="BackgroundImageFix"/>
<feGaussianBlur in="BackgroundImageFix" stdDeviation="27.9892"/>
<feComposite in2="SourceAlpha" operator="in" result="effect1_backgroundBlur_3002_1502"/>
<feBlend mode="normal" in="SourceGraphic" in2="effect1_backgroundBlur_3002_1502" result="shape"/>
</filter>
<filter id="filter4_b_3002_1502" x="906.577" y="850.577" width="232.846" height="232.846" filterUnits="userSpaceOnUse" color-interpolation-filters="sRGB">
<feFlood flood-opacity="0" result="BackgroundImageFix"/>
<feGaussianBlur in="BackgroundImageFix" stdDeviation="38.2114"/>
<feComposite in2="SourceAlpha" operator="in" result="effect1_backgroundBlur_3002_1502"/>
<feBlend mode="normal" in="SourceGraphic" in2="effect1_backgroundBlur_3002_1502" result="shape"/>
</filter>
<filter id="filter5_b_3002_1502" x="937.022" y="881.021" width="171.957" height="171.957" filterUnits="userSpaceOnUse" color-interpolation-filters="sRGB">
<feFlood flood-opacity="0" result="BackgroundImageFix"/>
<feGaussianBlur in="BackgroundImageFix" stdDeviation="27.9892"/>
<feComposite in2="SourceAlpha" operator="in" result="effect1_backgroundBlur_3002_1502"/>
<feBlend mode="normal" in="SourceGraphic" in2="effect1_backgroundBlur_3002_1502" result="shape"/>
</filter>
<filter id="filter6_b_3002_1502" x="1045.58" y="516.577" width="232.846" height="232.846" filterUnits="userSpaceOnUse" color-interpolation-filters="sRGB">
<feFlood flood-opacity="0" result="BackgroundImageFix"/>
<feGaussianBlur in="BackgroundImageFix" stdDeviation="38.2114"/>
<feComposite in2="SourceAlpha" operator="in" result="effect1_backgroundBlur_3002_1502"/>
<feBlend mode="normal" in="SourceGraphic" in2="effect1_backgroundBlur_3002_1502" result="shape"/>
</filter>
<filter id="filter7_b_3002_1502" x="1076.02" y="547.021" width="171.957" height="171.957" filterUnits="userSpaceOnUse" color-interpolation-filters="sRGB">
<feFlood flood-opacity="0" result="BackgroundImageFix"/>
<feGaussianBlur in="BackgroundImageFix" stdDeviation="27.9892"/>
<feComposite in2="SourceAlpha" operator="in" result="effect1_backgroundBlur_3002_1502"/>
<feBlend mode="normal" in="SourceGraphic" in2="effect1_backgroundBlur_3002_1502" result="shape"/>
</filter>
<filter id="filter8_b_3002_1502" x="946.577" y="237.577" width="232.846" height="232.846" filterUnits="userSpaceOnUse" color-interpolation-filters="sRGB">
<feFlood flood-opacity="0" result="BackgroundImageFix"/>
<feGaussianBlur in="BackgroundImageFix" stdDeviation="38.2114"/>
<feComposite in2="SourceAlpha" operator="in" result="effect1_backgroundBlur_3002_1502"/>
<feBlend mode="normal" in="SourceGraphic" in2="effect1_backgroundBlur_3002_1502" result="shape"/>
</filter>
<filter id="filter9_b_3002_1502" x="977.022" y="268.021" width="171.957" height="171.957" filterUnits="userSpaceOnUse" color-interpolation-filters="sRGB">
<feFlood flood-opacity="0" result="BackgroundImageFix"/>
<feGaussianBlur in="BackgroundImageFix" stdDeviation="27.9892"/>
<feComposite in2="SourceAlpha" operator="in" result="effect1_backgroundBlur_3002_1502"/>
<feBlend mode="normal" in="SourceGraphic" in2="effect1_backgroundBlur_3002_1502" result="shape"/>
</filter>
<filter id="filter10_b_3002_1502" x="610.577" y="74.5772" width="232.846" height="232.846" filterUnits="userSpaceOnUse" color-interpolation-filters="sRGB">
<feFlood flood-opacity="0" result="BackgroundImageFix"/>
<feGaussianBlur in="BackgroundImageFix" stdDeviation="38.2114"/>
<feComposite in2="SourceAlpha" operator="in" result="effect1_backgroundBlur_3002_1502"/>
<feBlend mode="normal" in="SourceGraphic" in2="effect1_backgroundBlur_3002_1502" result="shape"/>
</filter>
<filter id="filter11_b_3002_1502" x="641.022" y="105.022" width="171.957" height="171.957" filterUnits="userSpaceOnUse" color-interpolation-filters="sRGB">
<feFlood flood-opacity="0" result="BackgroundImageFix"/>
<feGaussianBlur in="BackgroundImageFix" stdDeviation="27.9892"/>
<feComposite in2="SourceAlpha" operator="in" result="effect1_backgroundBlur_3002_1502"/>
<feBlend mode="normal" in="SourceGraphic" in2="effect1_backgroundBlur_3002_1502" result="shape"/>
</filter>
<filter id="filter12_b_3002_1502" x="261.577" y="224.577" width="232.846" height="232.846" filterUnits="userSpaceOnUse" color-interpolation-filters="sRGB">
<feFlood flood-opacity="0" result="BackgroundImageFix"/>
<feGaussianBlur in="BackgroundImageFix" stdDeviation="38.2114"/>
<feComposite in2="SourceAlpha" operator="in" result="effect1_backgroundBlur_3002_1502"/>
<feBlend mode="normal" in="SourceGraphic" in2="effect1_backgroundBlur_3002_1502" result="shape"/>
</filter>
<filter id="filter13_b_3002_1502" x="292.022" y="255.021" width="171.957" height="171.957" filterUnits="userSpaceOnUse" color-interpolation-filters="sRGB">
<feFlood flood-opacity="0" result="BackgroundImageFix"/>
<feGaussianBlur in="BackgroundImageFix" stdDeviation="27.9892"/>
<feComposite in2="SourceAlpha" operator="in" result="effect1_backgroundBlur_3002_1502"/>
<feBlend mode="normal" in="SourceGraphic" in2="effect1_backgroundBlur_3002_1502" result="shape"/>
</filter>
<linearGradient id="paint0_linear_3002_1502" x1="415.255" y1="942" x2="473.074" y2="960.089" gradientUnits="userSpaceOnUse">
<stop stop-color="#292D32"/>
<stop offset="1" stop-color="#7B8A98"/>
</linearGradient>
<linearGradient id="paint1_linear_3002_1502" x1="372.831" y1="988.015" x2="473.23" y2="988.015" gradientUnits="userSpaceOnUse">
<stop stop-color="#262C33"/>
<stop offset="1" stop-color="#718599" stop-opacity="0"/>
</linearGradient>
<linearGradient id="paint2_linear_3002_1502" x1="423.299" y1="946.495" x2="443.729" y2="970.301" gradientUnits="userSpaceOnUse">
<stop stop-color="#FFFF71"/>
<stop offset="0.41" stop-color="#FCFC00"/>
<stop offset="1" stop-color="#DADA03"/>
</linearGradient>
<linearGradient id="paint3_linear_3002_1502" x1="385.374" y1="986.511" x2="460.672" y2="986.511" gradientUnits="userSpaceOnUse">
<stop stop-color="#262C33"/>
<stop offset="1" stop-color="#718599" stop-opacity="0"/>
</linearGradient>
<linearGradient id="paint4_linear_3002_1502" x1="258.255" y1="599" x2="316.074" y2="617.089" gradientUnits="userSpaceOnUse">
<stop stop-color="#292D32"/>
<stop offset="1" stop-color="#7B8A98"/>
</linearGradient>
<linearGradient id="paint5_linear_3002_1502" x1="215.831" y1="645.015" x2="316.23" y2="645.015" gradientUnits="userSpaceOnUse">
<stop stop-color="#262C33"/>
<stop offset="1" stop-color="#718599" stop-opacity="0"/>
</linearGradient>
<linearGradient id="paint6_linear_3002_1502" x1="266.299" y1="603.495" x2="286.729" y2="627.301" gradientUnits="userSpaceOnUse">
<stop stop-color="#7DFFF9"/>
<stop offset="0.41" stop-color="#00FFF3"/>
<stop offset="1" stop-color="#00D7CC"/>
</linearGradient>
<linearGradient id="paint7_linear_3002_1502" x1="228.374" y1="643.511" x2="303.672" y2="643.511" gradientUnits="userSpaceOnUse">
<stop stop-color="#262C33"/>
<stop offset="1" stop-color="#718599" stop-opacity="0"/>
</linearGradient>
<linearGradient id="paint8_linear_3002_1502" x1="1015.26" y1="927" x2="1073.07" y2="945.089" gradientUnits="userSpaceOnUse">
<stop stop-color="#292D32"/>
<stop offset="1" stop-color="#7B8A98"/>
</linearGradient>
<linearGradient id="paint9_linear_3002_1502" x1="972.831" y1="973.015" x2="1073.23" y2="973.015" gradientUnits="userSpaceOnUse">
<stop stop-color="#262C33"/>
<stop offset="1" stop-color="#718599" stop-opacity="0"/>
</linearGradient>
<linearGradient id="paint10_linear_3002_1502" x1="1023.3" y1="931.495" x2="1043.73" y2="955.301" gradientUnits="userSpaceOnUse">
<stop stop-color="#979493"/>
<stop offset="0.41" stop-color="#242628"/>
<stop offset="0.98" stop-color="#1C1D1F"/>
</linearGradient>
<linearGradient id="paint11_linear_3002_1502" x1="985.374" y1="971.511" x2="1060.67" y2="971.511" gradientUnits="userSpaceOnUse">
<stop stop-color="#262C33"/>
<stop offset="1" stop-color="#718599" stop-opacity="0"/>
</linearGradient>
<linearGradient id="paint12_linear_3002_1502" x1="1154.26" y1="593" x2="1212.07" y2="611.089" gradientUnits="userSpaceOnUse">
<stop stop-color="#292D32"/>
<stop offset="1" stop-color="#7B8A98"/>
</linearGradient>
<linearGradient id="paint13_linear_3002_1502" x1="1111.83" y1="639.015" x2="1212.23" y2="639.015" gradientUnits="userSpaceOnUse">
<stop stop-color="#262C33"/>
<stop offset="1" stop-color="#718599" stop-opacity="0"/>
</linearGradient>
<linearGradient id="paint14_linear_3002_1502" x1="1162.3" y1="597.495" x2="1182.73" y2="621.301" gradientUnits="userSpaceOnUse">
<stop stop-color="#AAA5FF"/>
<stop offset="0.41" stop-color="#4B42CE"/>
<stop offset="0.98" stop-color="#4B42CE"/>
</linearGradient>
<linearGradient id="paint15_linear_3002_1502" x1="1124.37" y1="637.511" x2="1199.67" y2="637.511" gradientUnits="userSpaceOnUse">
<stop stop-color="#262C33"/>
<stop offset="1" stop-color="#718599" stop-opacity="0"/>
</linearGradient>
<linearGradient id="paint16_linear_3002_1502" x1="1055.26" y1="314" x2="1113.07" y2="332.089" gradientUnits="userSpaceOnUse">
<stop stop-color="#292D32"/>
<stop offset="1" stop-color="#7B8A98"/>
</linearGradient>
<linearGradient id="paint17_linear_3002_1502" x1="1012.83" y1="360.015" x2="1113.23" y2="360.015" gradientUnits="userSpaceOnUse">
<stop stop-color="#262C33"/>
<stop offset="1" stop-color="#718599" stop-opacity="0"/>
</linearGradient>
<linearGradient id="paint18_linear_3002_1502" x1="1063.3" y1="318.495" x2="1083.73" y2="342.301" gradientUnits="userSpaceOnUse">
<stop stop-color="#9EDEFF"/>
<stop offset="0.41" stop-color="#016DCF"/>
<stop offset="0.98" stop-color="#072B9E"/>
</linearGradient>
<linearGradient id="paint19_linear_3002_1502" x1="1025.37" y1="358.511" x2="1100.67" y2="358.511" gradientUnits="userSpaceOnUse">
<stop stop-color="#262C33"/>
<stop offset="1" stop-color="#718599" stop-opacity="0"/>
</linearGradient>
<linearGradient id="paint20_linear_3002_1502" x1="719.255" y1="151" x2="777.074" y2="169.089" gradientUnits="userSpaceOnUse">
<stop stop-color="#292D32"/>
<stop offset="1" stop-color="#7B8A98"/>
</linearGradient>
<linearGradient id="paint21_linear_3002_1502" x1="676.831" y1="197.015" x2="777.23" y2="197.015" gradientUnits="userSpaceOnUse">
<stop stop-color="#262C33"/>
<stop offset="1" stop-color="#718599" stop-opacity="0"/>
</linearGradient>
<linearGradient id="paint22_linear_3002_1502" x1="727.299" y1="155.495" x2="747.729" y2="179.301" gradientUnits="userSpaceOnUse">
<stop stop-color="#B2F6DC"/>
<stop offset="0.41" stop-color="#06E38F"/>
<stop offset="1" stop-color="#00B46F"/>
</linearGradient>
<linearGradient id="paint23_linear_3002_1502" x1="689.374" y1="195.511" x2="764.672" y2="195.511" gradientUnits="userSpaceOnUse">
<stop stop-color="#262C33"/>
<stop offset="1" stop-color="#718599" stop-opacity="0"/>
</linearGradient>
<linearGradient id="paint24_linear_3002_1502" x1="370.255" y1="301" x2="428.074" y2="319.089" gradientUnits="userSpaceOnUse">
<stop stop-color="#292D32"/>
<stop offset="1" stop-color="#7B8A98"/>
</linearGradient>
<linearGradient id="paint25_linear_3002_1502" x1="327.831" y1="347.015" x2="428.23" y2="347.015" gradientUnits="userSpaceOnUse">
<stop stop-color="#262C33"/>
<stop offset="1" stop-color="#718599" stop-opacity="0"/>
</linearGradient>
<linearGradient id="paint26_linear_3002_1502" x1="378.299" y1="305.495" x2="398.729" y2="329.301" gradientUnits="userSpaceOnUse">
<stop stop-color="#DAA099"/>
<stop offset="0.41" stop-color="#DC756B"/>
<stop offset="1" stop-color="#C96C64"/>
</linearGradient>
<linearGradient id="paint27_linear_3002_1502" x1="340.374" y1="345.511" x2="415.672" y2="345.511" gradientUnits="userSpaceOnUse">
<stop stop-color="#262C33"/>
<stop offset="1" stop-color="#718599" stop-opacity="0"/>
</linearGradient>
<clipPath id="clip0_3002_1502">
<rect width="31" height="28" fill="white" transform="translate(409 968)"/>
</clipPath>
<clipPath id="clip1_3002_1502">
<rect width="28" height="32.9123" fill="white" transform="translate(1148 617)"/>
</clipPath>
<clipPath id="clip2_3002_1502">
<rect width="31" height="36" fill="white" transform="translate(1048 336)"/>
</clipPath>
<clipPath id="clip3_3002_1502">
<rect width="42.0714" height="41.565" fill="white" transform="translate(1042.46 331.625)"/>
</clipPath>
<clipPath id="clip4_3002_1502">
<rect width="30" height="34" fill="white" transform="translate(712 174)"/>
</clipPath>
</defs>
</svg>
