<svg width="106" height="70" viewBox="0 0 106 70" fill="none" xmlns="http://www.w3.org/2000/svg">
<path d="M86.5786 24.0182C86.4234 24.4796 86.2521 24.9372 86.0826 25.3899C86.0423 25.4977 86.002 25.6052 85.9621 25.7124C85.7536 26.2727 85.5533 26.8282 85.3886 27.3917L85.3885 27.3919C85.2754 27.7781 85.0943 28.0478 84.816 28.2075C84.5511 28.3595 84.2369 28.3876 83.9175 28.3876H83.9171C74.8598 28.373 65.7995 28.3701 56.7385 28.3672C54.4773 28.3664 52.216 28.3657 49.9547 28.3648H49.9538C49.6698 28.3636 49.463 28.37 49.3023 28.3936C49.145 28.4166 49.0489 28.4541 48.9779 28.5043C48.8272 28.6107 48.7131 28.823 48.5218 29.3846L48.5217 29.3849C48.1294 30.5333 47.7496 31.6879 47.3689 32.8451C47.287 33.0942 47.205 33.3435 47.1228 33.5928L47.1228 33.5929C47.0846 33.7085 47.0464 33.824 47.0083 33.9394C46.6197 35.1156 46.2326 36.2873 45.857 37.4627C45.7887 37.6779 45.7385 37.8656 45.739 38.0528C45.7393 38.198 45.7705 38.3501 45.8633 38.516L86.5786 24.0182ZM86.5786 24.0182C87.1481 22.3364 87.7039 20.6453 88.2413 18.9542C88.4309 18.3629 88.6091 17.7546 88.7862 17.1497C88.928 16.6654 89.0691 16.1834 89.215 15.7141L89.2154 15.7129C89.2817 15.4956 89.363 15.2824 89.448 15.0596L89.4546 15.0423C89.5408 14.8161 89.6304 14.5799 89.7025 14.336L89.7026 14.3358C89.846 13.8491 89.8762 13.4026 89.6269 13.0815C89.3803 12.764 88.9389 12.6725 88.4291 12.6725C59.6984 12.6725 30.9724 12.6725 2.24168 12.6816M86.5786 24.0182L83.2352 35.3241C83.1024 35.2265 83.0054 35.0994 82.9235 34.981C82.8916 34.935 82.8627 34.8914 82.8341 34.8483C82.7825 34.7705 82.732 34.6944 82.6675 34.6089L82.5118 34.4022L82.7173 34.2449C82.8147 34.1703 82.8997 34.0979 82.9866 34.0237C83.0281 33.9883 83.07 33.9525 83.114 33.9159C83.2437 33.808 83.3848 33.6988 83.5474 33.6165L83.5484 33.616C83.9011 33.4394 84.2598 33.2795 84.6126 33.1228L84.6434 33.1091C84.9873 32.9564 85.3253 32.8063 85.6562 32.6427L85.6564 32.6426C86.9152 32.0216 88.1697 31.3967 89.4251 30.7713C90.3673 30.302 91.3101 29.8324 92.2556 29.3639C92.4397 29.2725 92.6239 29.1811 92.8081 29.0896C94.6478 28.176 96.491 27.2607 98.3496 26.3755C99.1021 26.0135 99.5819 25.4567 99.8396 24.6958L99.8397 24.6957C100.165 23.7353 100.467 22.765 100.77 21.7924C100.82 21.6315 100.87 21.4704 100.921 21.3094C101.051 20.8859 101.179 20.4582 101.307 20.0291C101.53 19.2793 101.755 18.5254 102.001 17.7834C102.352 16.7169 102.723 15.6553 103.093 14.5954C103.265 14.101 103.438 13.607 103.608 13.1131L103.608 13.113C103.727 12.7695 103.844 12.4239 103.961 12.0775C104.246 11.2378 104.532 10.3933 104.845 9.5626C104.979 9.20662 105.009 8.94485 104.956 8.73078C104.905 8.52195 104.765 8.31538 104.466 8.0916C104.119 7.83435 103.773 7.58654 103.424 7.33707C103.17 7.15595 102.916 6.97395 102.659 6.78683L102.659 6.78649C101.947 6.26479 101.233 5.74492 100.519 5.22491C98.7233 3.9171 96.9266 2.60843 95.1519 1.26769C94.2485 0.586935 93.3621 0.260722 92.1927 0.26069C67.4548 0.292657 42.7169 0.283514 17.9792 0.265247C17.4398 0.265281 16.9937 0.409108 16.5857 0.704238C14.97 1.88127 13.3592 3.06525 11.7475 4.24989C11.1213 4.71018 10.495 5.17057 9.86816 5.63069C9.16923 6.14547 8.47008 6.66022 7.77088 7.17501C5.43066 8.89801 3.08982 10.6215 0.754373 12.3477C0.731152 12.3651 0.708695 12.3818 0.686991 12.3979C0.554856 12.496 0.450623 12.5733 0.371758 12.6716C0.337603 12.7142 0.308979 12.7602 0.289345 12.8138C0.428386 12.8019 0.567997 12.7891 0.707911 12.7762C1.21946 12.7291 1.73499 12.6816 2.24168 12.6816M2.24168 12.6816L2.24177 12.9423L2.24168 12.6816ZM90.6024 40.7045C90.0115 40.2736 89.4202 39.843 88.8287 39.4123C86.9634 38.0537 85.0967 36.6942 83.2354 35.3242L90.6024 40.7045ZM90.6024 40.7045C90.8165 40.861 91.0311 41.021 91.2468 41.1819C91.8579 41.6375 92.4785 42.1003 93.1264 42.513L93.1268 42.5133C93.43 42.7057 93.5723 42.9028 93.629 43.102C93.6875 43.3078 93.667 43.5581 93.5607 43.8777L93.5604 43.8786C92.9637 45.6917 92.3763 47.5093 91.789 49.3262L91.7886 49.3276L90.6024 40.7045ZM90.0862 54.5784C90.4237 53.5494 90.756 52.52 91.0885 51.4903C91.3211 50.7697 91.5538 50.049 91.7884 49.3281L90.0862 54.5784ZM90.0862 54.5784C89.7473 55.6055 89.4001 56.6297 89.0528 57.6545C88.8923 58.1278 88.7319 58.6012 88.5721 59.0751M90.0862 54.5784L10.8472 55.9114L11.0958 55.9899C10.9677 56.3954 10.8236 56.7952 10.6803 57.1895L10.6448 57.287C10.513 57.6493 10.3828 58.007 10.2642 58.3673M88.5721 59.0751C88.5721 59.0751 88.5722 59.075 88.5722 59.075L88.8192 59.1583L88.5721 59.0751ZM88.5721 59.0751C88.5038 59.2776 88.4427 59.4761 88.3828 59.6705C88.2446 60.119 88.113 60.5462 87.9148 60.9531L87.9144 60.9539C87.7669 61.2593 87.4749 61.5712 87.1815 61.7211L87.1805 61.7216C85.1888 62.7498 83.1713 63.7359 81.1539 64.7219L80.9254 64.8336L80.9253 64.8336C79.9688 65.3018 79.0077 65.7651 78.0456 66.2288C76.1516 67.1417 74.2538 68.0563 72.3806 69.014M72.3806 69.014C71.3696 69.528 70.3645 69.7437 69.2412 69.7392H69.2403C53.1236 69.7283 37.0069 69.729 20.8926 69.7298C16.8525 69.7299 12.8125 69.7301 8.77271 69.7301H8.7708H8.76889H8.76698H8.76507H8.76316H8.76125H8.75934H8.75743H8.75552H8.75361H8.7517H8.74979H8.74788H8.74597H8.74405H8.74214H8.74023H8.73832H8.73641H8.7345H8.73259H8.73068H8.72876H8.72685H8.72494H8.72303H8.72112H8.7192H8.71729H8.71538H8.71347H8.71156H8.70964H8.70773H8.70582H8.70391H8.70199H8.70008H8.69817H8.69625H8.69434H8.69243H8.69051H8.6886H8.68669H8.68477H8.68286H8.68095H8.67903H8.67712H8.6752H8.67329H8.67137H8.66946H8.66755H8.66563H8.66372H8.6618H8.65989H8.65797H8.65606H8.65414H8.65223H8.65031H8.6484H8.64648H8.64457H8.64265H8.64073H8.63882H8.6369H8.63499H8.63307H8.63116H8.62924H8.62732H8.62541H8.62349H8.62158H8.61966H8.61774H8.61583H8.61391H8.61199H8.61008H8.60816H8.60624H8.60433H8.60241H8.60049H8.59857H8.59666H8.59474H8.59282H8.59091H8.58899H8.58707H8.58515H8.58323H8.58132H8.5794H8.57748H8.57556H8.57364H8.57173H8.56981H8.56789H8.56597H8.56405H8.56214H8.56022H8.5583H8.55638H8.55446H8.55254H8.55062H8.54871H8.54679H8.54487H8.54295H8.54103H8.53911H8.53719H8.53527H8.53335H8.53143H8.52951H8.5276H8.52568H8.52376H8.52184H8.51992H8.518H8.51608H8.51416H8.51224H8.51032H8.5084H8.50648H8.50456H8.50264H8.50072H8.4988H8.49688H8.49496H8.49304H8.49112H8.4892H8.48728H8.48536H8.48344H8.48151H8.47959H8.47767H8.47575H8.47383H8.47191H8.46999H8.46807H8.46615H8.46423H8.46231H8.46039H8.45847H8.45654H8.45462H8.4527H8.45078H8.44886H8.44694H8.44502H8.4431H8.44117H8.43925H8.43733H8.43541H8.43349H8.43157H8.42965H8.42772H8.4258H8.42388H8.42196H8.42004H8.41812H8.41619H8.41427H8.41235H8.41043H8.40851H8.40659H8.40466H8.40274H8.40082H8.3989H8.39698H8.39505H8.39313H8.39121H8.38929H8.38737H8.38544H8.38352H8.3816H8.37968H8.37775H8.37583H8.37391H8.37199H8.37006H8.36814H8.36622H8.3643H8.36238H8.36045H8.35853H8.35661H8.35469H8.35276H8.35084H8.34892H8.347H8.34507H8.34315H8.34123H8.3393H8.33738H8.33546H8.33354H8.33161H8.32969H8.32777H8.32585H8.32392H8.322H8.32008H8.31816H8.31623H8.31431H8.31239H8.31046H8.30854H8.30662H8.3047H8.30277H8.30085H8.29893H8.29701H8.29508H8.29316H8.29124H8.28932H8.28739H8.28547H8.28355H8.28162H8.2797H8.27778H8.27586H8.27393H8.27201H8.27009H8.26816H8.26624H8.26432H8.2624H8.26047H8.25855H8.25663H8.25471H8.25278H8.25086H8.24894H8.24701H8.24509H8.24317H8.24125H8.23932H8.2374H8.23548H8.23356H8.23163H8.22971H8.22779H8.22587H8.22394H8.22202H8.2201H8.21817H8.21625H8.21433H8.21241H8.21048H8.20856H8.20664H8.20472H8.2028H8.20087H8.19895H8.19703H8.19511H8.19318H8.19126H8.18934H8.18742H8.18549H8.18357H8.18165H8.17973H8.1778H8.17588H8.17396H8.17204H8.17012H8.16819H8.16627H8.16435H8.16243H8.16051H8.15858H8.15666H8.15474H8.15282H8.1509H8.14898H8.14705H8.14513H8.14321H8.14129H8.13937H8.13744H8.13552H8.1336H8.13168H8.12976H8.12784H8.12592H8.12399H8.12207H8.12015H8.11823H8.11631H8.11439H8.11247H8.11055H8.10862H8.1067H8.10478H8.10286H8.10094H8.09902H8.0971H8.09518H8.09326H8.09134H8.08941H8.08749H8.08557H8.08365H8.08173H8.07981H8.07789H8.07597H8.07405H8.07213H8.07021H8.06829H8.06637H8.06445H8.06253H8.06061H8.05869H8.05677H8.05485H8.05293H8.05101H8.04909H8.04717H8.04525H8.04333H8.04141H8.03949H8.03757H8.03565H8.03373H8.03181H8.02989H8.02798H8.02606H8.02414H8.02222H8.0203H8.01838H8.01646H8.01454H8.01262H8.0107H8.00879H8.00687H8.00495H8.00303H8.00111H7.99919H7.99728H7.99536H7.99344H7.99152H7.9896H7.98768H7.98577H7.98385H7.98193H7.98001H7.9781H7.97618H7.97426H7.97234H7.97043H7.96851H7.96659H7.96467H7.96276H7.96084H7.95892H7.95701H7.95509H7.95317H7.95125H7.94934H7.94742H7.94551H7.94359H7.94167H7.93976H7.93784H7.93592H7.93401H7.93209H7.93018H7.92826H7.92634H7.92443H7.92251H7.9206H7.91868H7.91677H7.91485H7.91294H7.91102H7.90911H7.90719H7.90528H7.90336H7.90145H7.89953H7.89762H7.8957H7.89379H7.89187H7.88996H7.88804H7.88613H7.88422H7.8823H7.88039H7.87848H7.87656H7.87465H7.87273H7.87082H7.86891H7.86699H7.86508H7.86317H7.86126H7.85934H7.85743H7.85552H7.8536H7.85169H7.84978H7.84787H7.84595H7.84404H7.84213H7.84022H7.83831H7.83639H7.83448H7.83257H7.83066H7.82875H7.82684H7.82493H7.82302H7.8211H7.81919H7.81728H7.81537H7.81346H7.81155H7.80964H7.80773H7.80582H7.80391H7.802H7.80009H7.79818H7.79627H7.79436H7.79245H7.79202M72.3806 69.014L72.4987 69.2464M72.3806 69.014C72.3804 69.0141 72.3802 69.0142 72.38 69.0143L72.4987 69.2464M7.79202 69.7301C7.48704 69.7267 7.26753 69.7053 7.11279 69.665C6.95906 69.6249 6.90013 69.5745 6.87392 69.5361C6.84722 69.497 6.82181 69.4227 6.83838 69.2647C6.85503 69.1059 6.91056 68.8957 7.00856 68.6155M7.79202 69.7301C7.79248 69.7301 7.79294 69.7301 7.7934 69.7301L7.79054 69.9908M7.79202 69.7301H7.79054V69.9908M7.00856 68.6155C7.27603 67.8514 7.50507 67.0656 7.73189 66.2875C7.86777 65.8214 8.00285 65.3579 8.14491 64.9036M7.00856 68.6155C7.00855 68.6155 7.00854 68.6155 7.00853 68.6156L6.76248 68.5294M7.00856 68.6155L6.76248 68.5294M8.14491 64.9036C8.3032 64.399 8.47038 63.9055 8.63861 63.4089C8.75869 63.0543 8.87931 62.6982 8.99761 62.3355L8.9978 62.3349C9.19204 61.7343 9.38099 61.1365 9.56969 60.5396C9.79855 59.8156 10.0271 59.0928 10.2642 58.3673M8.14491 64.9036C8.14489 64.9036 8.14486 64.9037 8.14484 64.9038L7.8961 64.8258M8.14491 64.9036L7.8961 64.8258M10.2642 58.3673C10.2642 58.3674 10.2641 58.3675 10.2641 58.3676L10.0165 58.2861L10.2643 58.3671C10.2642 58.3672 10.2642 58.3672 10.2642 58.3673ZM7.8961 64.8258C7.75068 65.2909 7.6144 65.7586 7.47815 66.2262C7.25319 66.9983 7.02831 67.77 6.76248 68.5294M7.8961 64.8258C8.05462 64.3205 8.22414 63.8199 8.39363 63.3195C8.51367 62.965 8.63369 62.6106 8.74976 62.2547L6.76248 68.5294M6.76248 68.5294C6.36319 69.6711 6.54218 69.9771 7.79054 69.9908M6.76248 68.5294L7.79054 69.9908M7.79054 69.9908H8.77271C12.8125 69.9908 16.8525 69.9906 20.8927 69.9904C37.0069 69.9897 53.1235 69.989 69.2401 69.9999M7.79054 69.9908L69.2401 69.9999M69.2401 69.9999C70.4013 70.0045 71.4477 69.7807 72.4987 69.2464M69.2401 69.9999L72.4987 69.2464M14.8262 44.0778L14.8261 44.0782C14.6391 44.645 14.4562 45.2126 14.2732 45.7807C14.1688 46.1047 14.0643 46.4289 13.9591 46.7531L14.8262 44.0778ZM14.8262 44.0778C15.0464 43.4067 15.2678 42.7356 15.4893 42.0643L15.4908 42.0596C15.7117 41.3899 15.9327 40.7199 16.1526 40.0499L16.1526 40.0499M14.8262 44.0778L16.1526 40.0499M16.1526 40.0499C16.2641 39.71 16.3763 39.37 16.4886 39.0299C16.8101 38.0561 17.1321 37.0806 17.4387 36.1008L17.4389 36.1003M16.1526 40.0499L17.4389 36.1003M17.4389 36.1003C17.6578 35.3961 17.8601 34.6829 18.0615 33.9726C18.1689 33.5939 18.2761 33.2159 18.3854 32.8406C18.5959 32.1303 18.8156 31.42 19.0443 30.7145L19.0446 30.7136M17.4389 36.1003L19.0446 30.7136M19.0446 30.7136C19.1636 30.3422 19.2824 29.9708 19.4012 29.5996C19.9516 27.8795 20.5012 26.1616 21.0634 24.4498C21.3142 23.6861 21.577 22.9252 21.8405 22.1623C21.8606 22.104 21.8807 22.0458 21.9009 21.9875C22.1842 21.1667 22.4673 20.3435 22.7344 19.5164L22.7345 19.516M19.0446 30.7136L22.7345 19.516M22.7345 19.516C22.9608 18.8115 23.1445 18.0882 23.3256 17.3749C23.3747 17.1817 23.4235 16.9892 23.473 16.7981L23.4732 16.7975M22.7345 19.516L23.4732 16.7975M23.4732 16.7975C23.5851 16.3612 23.7115 16.2487 23.7867 16.2252C23.8248 16.2133 23.89 16.2094 24.0021 16.2509C24.1156 16.2929 24.2587 16.3748 24.437 16.5078L24.4377 16.5084M23.4732 16.7975L24.4377 16.5084M24.4377 16.5084C25.9475 17.6275 27.461 18.7443 28.9748 19.8613C30.1661 20.7404 31.3576 21.6196 32.5475 22.5C33.1424 22.9417 33.733 23.3927 34.3252 23.8449L34.3258 23.8454M24.4377 16.5084L34.3258 23.8454M34.3258 23.8454C34.648 24.0899 34.7303 24.207 34.7527 24.308C34.7643 24.3599 34.7647 24.4299 34.7404 24.543C34.7156 24.6581 34.6694 24.8001 34.6006 24.9927M34.3258 23.8454L32.5457 31.3599M32.5457 31.3599L32.5459 31.3593C32.733 30.7672 32.929 30.1732 33.1243 29.5814C33.2731 29.1306 33.4214 28.6811 33.565 28.2349C33.6776 27.8825 33.7867 27.5251 33.8963 27.166C34.1178 26.4407 34.3416 25.7079 34.6006 24.9927M32.5457 31.3599C32.4137 31.781 32.2926 32.1935 32.1722 32.6034C32.0223 33.1139 31.8736 33.6203 31.7066 34.1339L31.7062 34.1352M32.5457 31.3599L31.7062 34.1352M34.6006 24.9927C34.6007 24.9925 34.6008 24.9923 34.6009 24.9921L34.846 25.0809M34.6006 24.9927C34.6006 24.9929 34.6005 24.9931 34.6005 24.9933L34.846 25.0809M34.846 25.0809C34.589 25.7902 34.3687 26.5117 34.1484 27.2333C34.0382 27.5941 33.9281 27.9549 33.8133 28.3142L34.846 25.0809ZM31.7062 34.1352C31.5506 34.623 31.3856 35.0938 31.2193 35.5684C31.0893 35.9395 30.9585 36.3129 30.8306 36.6986C30.5705 37.478 30.3179 38.2605 30.0658 39.041C29.9306 39.4596 29.7956 39.8776 29.6598 40.2943L29.6597 40.2946M31.7062 34.1352L29.6597 40.2946M29.6597 40.2946C29.47 40.8789 29.2782 41.464 29.0863 42.0498M29.6597 40.2946L29.0863 42.0498M25.5456 56.9741L25.5452 56.9741C25.2712 56.9424 25.0076 56.8678 24.832 56.6758C24.6464 56.4729 24.6142 56.2027 24.6562 55.915C24.6918 55.6696 24.7622 55.4358 24.8382 55.2159C24.8747 55.1102 24.9094 55.0159 24.9432 54.9241C24.985 54.8105 25.0253 54.7009 25.0658 54.5787C25.5063 53.2226 25.9469 51.8709 26.3921 50.519C26.3922 50.5189 26.3922 50.5187 26.3922 50.5186L26.6399 50.6002L25.5456 56.9741ZM25.5456 56.9741C25.6445 56.9854 25.7406 56.9849 25.8262 56.9826C25.8587 56.9817 25.8884 56.9805 25.9166 56.9795C25.9685 56.9776 26.0155 56.9758 26.0662 56.9758C42.2306 56.9758 58.395 56.9758 74.5593 56.9804C74.9982 56.9804 75.3614 56.9215 75.6465 56.7371C75.9401 56.5471 76.1079 56.2527 76.2183 55.8805L75.9684 55.8063M25.5456 56.9741L78.1163 49.0657M78.1163 49.0657L78.3636 49.1483C78.3037 49.3278 78.2437 49.5074 78.1837 49.6871C77.8252 50.76 77.4662 51.8342 77.1208 52.9085C76.8915 53.6225 76.6771 54.3426 76.4623 55.0642C76.3812 55.3365 76.3001 55.609 76.218 55.8815L75.9684 55.8063M78.1163 49.0657L78.3636 49.1482C78.665 48.2451 78.9679 47.3422 79.2709 46.4388C79.7473 45.0187 80.224 43.5977 80.6953 42.1741L80.4478 42.0922L80.6953 42.1741C80.8182 41.8028 80.9315 41.4299 81.0433 41.0595L81.0705 40.9696C81.1734 40.6287 81.2755 40.2902 81.3844 39.9528L81.3847 39.9517C81.4564 39.7261 81.5071 39.5236 81.5194 39.3478C81.5317 39.1703 81.507 38.9885 81.3924 38.8369C81.2787 38.6867 81.1104 38.6109 80.9345 38.5701C80.7589 38.5293 80.544 38.516 80.2964 38.516H80.2747H80.253H80.2314H80.2097H80.188H80.1663H80.1447H80.123H80.1013H80.0796H80.058H80.0363H80.0146H79.9929H79.9713H79.9496H79.9279H79.9062H79.8846H79.8629H79.8412H79.8196H79.7979H79.7762H79.7545H79.7329H79.7112H79.6895H79.6678H79.6462H79.6245H79.6028H79.5812H79.5595H79.5378H79.5161H79.4945H79.4728H79.4511H79.4295H79.4078H79.3861H79.3644H79.3428H79.3211H79.2994H79.2778H79.2561H79.2344H79.2128H79.1911H79.1694H79.1477H79.1261H79.1044H79.0827H79.0611H79.0394H79.0177H78.9961H78.9744H78.9527H78.9311H78.9094H78.8877H78.866H78.8444H78.8227H78.801H78.7794H78.7577H78.736H78.7144H78.6927H78.671H78.6494H78.6277H78.606H78.5844H78.5627H78.541H78.5193H78.4977H78.476H78.4543H78.4327H78.411H78.3893H78.3677H78.346H78.3243H78.3027H78.281H78.2593H78.2377H78.216H78.1943H78.1727H78.151H78.1293H78.1077H78.086H78.0643H78.0427H78.021H77.9993H77.9777H77.956H77.9343H77.9127H77.891H77.8693H77.8477H77.826H77.8044H77.7827H77.761H77.7394H77.7177H77.696H77.6744H77.6527H77.631H77.6094H77.5877H77.566H77.5444H77.5227H77.501H77.4794H77.4577H77.4361H77.4144H77.3927H77.3711H77.3494H77.3277H77.3061H77.2844H77.2627H77.2411H77.2194H77.1977H77.1761H77.1544H77.1327H77.1111H77.0894H77.0678H77.0461H77.0244H77.0028H76.9811H76.9594H76.9378H76.9161H76.8944H76.8728H76.8511H76.8295H76.8078H76.7861H76.7645H76.7428H76.7211H76.6995H76.6778H76.6562H76.6345H76.6128H76.5912H76.5695H76.5478H76.5262H76.5045H76.4828H76.4612H76.4395H76.4179H76.3962H76.3745H76.3529H76.3312H76.3095H76.2879H76.2662H76.2446H76.2229H76.2012H76.1796H76.1579H76.1362H76.1146H76.0929H76.0713H76.0496H76.0279H76.0063H75.9846H75.963H75.9413H75.9196H75.898H75.8763H75.8546H75.833H75.8113H75.7896H75.768H75.7463H75.7247H75.703H75.6813H75.6597H75.638H75.6164H75.5947H75.573H75.5514H75.5297H75.508H75.4864H75.4647H75.4431H75.4214H75.3997H75.3781H75.3564H75.3348H75.3131H75.2914H75.2698H75.2481H75.2264H75.2048H75.1831H75.1615H75.1398H75.1181H75.0965H75.0748H75.0532H75.0315H75.0098H74.9882H74.9665H74.9448H74.9232H74.9015H74.8799H74.8582H74.8365H74.8149H74.7932H74.7716H74.7499H74.7282H74.7066H74.6849H74.6632H74.6416H74.6199H74.5983H74.5766H74.5549H74.5333H74.5116H74.49H74.4683H74.4466H74.425H74.4033H74.3816H74.36H74.3383H74.3167H74.295H74.2733H74.2517H74.23H74.2084H74.1867H74.165H74.1434H74.1217H74.1001H74.0784H74.0567H74.0351H74.0134H73.9917H73.9701H73.9484H73.9268H73.9051H73.8834H73.8618H73.8401H73.8184H73.7968H73.7751H73.7535H73.7318H73.7101H73.6885H73.6668H73.6451H73.6235H73.6018H73.5802H73.5585H73.5368H73.5152H73.4935H73.4719H73.4502H73.4285H73.4069H73.3852H73.3635H73.3419H73.3202H73.2986H73.2769H73.2552H73.2336H73.2119H73.1902H73.1686H73.1469H73.1253H73.1036H73.0819H73.0603H73.0386H73.0169H72.9953H72.9736H72.952H72.9303H72.9086H72.887H72.8653H72.8436H72.822H72.8003H72.7786H72.757H72.7353H72.7137H72.692H72.6703H72.6487H72.627H72.6053H72.5837H72.562H72.5404H72.5187H72.497H72.4754H72.4537H72.432H72.4104H72.3887H72.367H72.3454H72.3237H72.302H72.2804H72.2587H72.2371H72.2154H72.1937H72.1721H72.1504H72.1287H72.1071H72.0854H72.0637H72.0421H72.0204H71.9987H71.9771H71.9554H71.9338H71.9121H71.8904H71.8688H71.8471H71.8254H71.8038H71.7821H71.7604H71.7388H71.7171H71.6954H71.6738H71.6521H71.6304H71.6088H71.5871H71.5654H71.5438H71.5221H71.5004H71.4788H71.4571H71.4354H71.4138H71.3921H71.3704H71.3488H71.3271H71.3055H71.2838H71.2621H71.2404H71.2188H71.1971H71.1754H71.1538H71.1321H71.1104H71.0888H71.0671H71.0454H71.0238H71.0021H70.9804H70.9588H70.9371H70.9154H70.8938H70.8721H70.8504H70.8288H70.8071H70.7854H70.7638H70.7421H70.7204H70.6988H70.6771H70.6554H70.6338H70.6121H70.5904H70.5687H70.5471H70.5254H70.5037H70.4821H70.4604H70.4387H70.4171H70.3954H70.3737H70.352H70.3304H70.3087H70.287H70.2654H70.2437H70.222H70.2004H70.1787H70.157H70.1353H70.1137H70.092H70.0703H70.0487H70.027H70.0053H69.9836H69.962H69.9403H69.9186H69.897H69.8753H69.8536H69.8319H69.8103H69.7886H69.7669H69.7453H69.7236H69.7019H69.6802H69.6586H69.6369H69.6152H69.5935H69.5719H69.5502H69.5285H69.5069H69.4852H69.4635H69.4418H69.4202H69.3985H69.3768H69.3551H69.3335H69.3118H69.2901H69.2684H69.2468H69.2251H69.2034H69.1597H69.116H69.0722H69.0285H68.9848H68.9411H68.8973H68.8536H68.8099H68.7662H68.7224H68.6787H68.635H68.5913H68.5475H68.5038H68.4601H68.4164H68.3726H68.3289H68.2852H68.2415H68.1977H68.154H68.1103H68.0666H68.0228H67.9791H67.9354H67.8917H67.8479H67.8042H67.7605H67.7168H67.6731H67.6293H67.5856H67.5419H67.4982H67.4544H67.4107H67.367H67.3233H67.2796H67.2358H67.1921H67.1484H67.1047H67.0609H67.0172H66.9735H66.9298H66.8861H66.8423H66.7986H66.7549H66.7112H66.6674H66.6237H66.58H66.5363H66.4926H66.4489H66.4051H66.3614H66.3177H66.274H66.2302H66.1865H66.1428H66.0991H66.0554H66.0117H65.9679H65.9242H65.8805H65.8368H65.7931H65.7493H65.7056H65.6619H65.6182H65.5745H65.5307H65.487H65.4433H65.3996H65.3559H65.3121H65.2684H65.2247H65.181H65.1373H65.0936H65.0498H65.0061H64.9624H64.9187H64.875H64.8312H64.7875H64.7438H64.7001H64.6564H64.6127H64.5689H64.5252H64.4815H64.4378H64.3941H64.3503H64.3066H64.2629H64.2192H64.1755H64.1318H64.0881H64.0443H64.0006H63.9569H63.9132H63.8695H63.8257H63.782H63.7383H63.6946H63.6509H63.6072H63.5634H63.5197H63.476H63.4323H63.3886H63.3449H63.3012H63.2574H63.2137H63.17H63.1263H63.0826H63.0389H62.9951H62.9514H62.9077H62.864H62.8203H62.7766H62.7329H62.6891H62.6454H62.6017H62.558H62.5143H62.4706H62.4268H62.3831H62.3394H62.2957H62.252H62.2083H62.1646H62.1208H62.0771H62.0334H61.9897H61.946H61.9023H61.8586H61.8148H61.7711H61.7274H61.6837H61.64H61.5963H61.5526H61.5088H61.4651H61.4214H61.3777H61.334H61.2903H61.2466H61.2028H61.1591H61.1154H61.0717H61.028H60.9843H60.9406H60.8968H60.8531H60.8094H60.7657H60.722H60.6783H60.6346H60.5909H60.5471H60.5034H60.4597H60.416H60.3723H60.3286H60.2849H60.2411H60.1974H60.1537H60.11H60.0663H60.0226H59.9789H59.9352H59.8914H59.8477H59.804H59.7603H59.7166H59.6729H59.6292H59.5854H59.5417H59.498H59.4543H59.4106H59.3669H59.3232H59.2795H59.2357H59.192H59.1483H59.1046H59.0609H59.0172H58.9735H58.9297H58.886H58.8423H58.7986H58.7549H58.7112H58.6675H58.6238H58.58H58.5363H58.4926H58.4489H58.4052H58.3615H58.3178H58.2741H58.2303H58.1866H58.1429H58.0992H58.0555H58.0118H57.9681H57.9244H57.8806H57.8369H57.7932H57.7495H57.7058H57.6621H57.6184H57.5746H57.5309H57.4872H57.4435H57.3998H57.3561H57.3124H57.2687H57.2249H57.1812H57.1375H57.0938H57.0501H57.0064H56.9627H56.919H56.8752H56.8315H56.7878H56.7441H56.7004H56.6567H56.613H56.5693H56.5255H56.4818H56.4381H56.3944H56.3507H56.307H56.2633H56.2195H56.1758H56.1321H56.0884H56.0447H56.001H55.9573H55.9136H55.8698H55.8261H55.7824H55.7387H55.695H55.6513H55.6076H55.5638H55.5201H55.4764H55.4327H55.389H55.3453H55.3016H55.2579H55.2141H55.1704H55.1267H55.083H55.0393H54.9956H54.9519H54.9081H54.8644H54.8207H54.777H54.7333H54.6896H54.6459H54.6021H54.5584H54.5147H54.471H54.4273H54.3836H54.3399H54.2961H54.2524H54.2087H54.165H54.1213H54.0776H54.0339H53.9901H53.9464H53.9027H53.859H53.8153H53.7716H53.7279H53.6841H53.6404H53.5967H53.553H53.5093H53.4656H53.4218H53.3781H53.3344H53.2907H53.247H53.2033H53.1596H53.1158H53.0721H53.0284H52.9847H52.941H52.8973H52.8535H52.8098H52.7661H52.7224H52.6787H52.635H52.5913H52.5475H52.5038H52.4601H52.4164H52.3727H52.329H52.2852H52.2415H52.1978H52.1541H52.1104H52.0667H52.0229H51.9792H51.9355H51.8918H51.8481H51.8044H51.7606H51.7169H51.6732H51.6295H51.5858H51.5421H51.4983H51.4546H51.4109H51.3672H51.3235H51.2797H51.236H51.1923H51.1486H51.1049H51.0612H51.0174H50.9737H50.93H50.8863H50.8426H50.7989H50.7551H50.7114H50.6677H50.624H50.5803H50.5365H50.4928H50.4491H50.4054H50.3617H50.3179H50.2742H50.2305H50.1868H50.1431H50.0993H50.0556H50.0119H49.9682H49.9245H49.8807H49.837H49.7933H49.7496H49.7059H49.6621H49.6184H49.5747H49.531H49.4873H49.4435H49.3998H49.3561H49.3124H49.2687H49.2249H49.1812H49.1375H49.0938H49.0501H49.0063H48.9626H48.9189H48.8752H48.8314H48.7877H48.744H48.7003H48.6566H48.6128H48.5691H48.5254H48.4817H48.4379H48.3942H48.3505H48.3068H48.2631H48.2193H48.1756H48.1319H48.0882H48.0444H48.0007H47.957H47.9133H47.8695H47.8258H47.7821H47.7384H47.6946H47.6509H47.6072H47.5635H47.5197H47.476H47.4323H47.3886H47.3448H47.3011H47.2574H47.2137H47.1699H47.1262H47.0825H47.0388H46.995H46.9513H46.9076H46.8639H46.8201H46.8179H46.8156H46.8134H46.8111H46.8088H46.8066H46.8043H46.8021H46.7998H46.7975H46.7953H46.793H46.7908H46.7885H46.7862H46.784H46.7817H46.7795H46.7772H46.7749H46.7727H46.7704H46.7682H46.7659H46.7636H46.7614H46.7591H46.7569H46.7546H46.7523H46.7501H46.7478H46.7456H46.7433H46.741H46.7388H46.7365H46.7343H46.732H46.7297H46.7275H46.7252H46.7229H46.7207H46.7184H46.7162H46.7139H46.7116H46.7094H46.7071H46.7049H46.7026H46.7003H46.6981H46.6958H46.6936H46.6913H46.689H46.6868H46.6845H46.6823H46.68H46.6777H46.6755H46.6732H46.671H46.6687H46.6665H46.6642H46.6619H46.6597H46.6574H46.6552H46.6529H46.6506H46.6484H46.6461H46.6439H46.6416H46.6394H46.6371H46.6348H46.6326H46.6303H46.6281H46.6258H46.6236H46.6213H46.619H46.6168H46.6145H46.6123H46.61H46.6078H46.6055H46.6033H46.601H46.5987H46.5965H46.5942H46.592H46.5897H46.5875H46.5852H46.583H46.5807H46.5785H46.5762H46.574H46.5717H46.5695H46.5672H46.565H46.5627H46.5605H46.5582H46.556H46.5537H46.5515H46.5492H46.547H46.5447H46.5425H46.5402H46.538H46.5357H46.5335H46.5312H46.529H46.5267H46.5245H46.5222H46.52H46.5177H46.5155H46.5132H46.511H46.5088H46.5065H46.5043H46.502H46.4998H46.4975H46.4953H46.4931H46.4908H46.4886H46.4863H46.4841H46.4819H46.4796H46.4774H46.4751H46.4729H46.4707H46.4684H46.4662H46.4639H46.4617H46.4595H46.4572H46.455H46.4528H46.4505H46.4483H46.4461H46.4438H46.4416H46.4394H46.4371H46.4349H46.4327H46.4304H46.4282H46.426H46.4237H46.4215H46.4193H46.4171H46.4148H46.4126H46.4104H46.4081H46.4059H46.4037H46.4015H46.3992H46.397H46.3948H46.3926H46.3903H46.3881H46.3859H46.3837H46.3815H46.3792H46.377H46.3748H46.3726H46.3704H46.3681H46.3659H46.3637H46.3615H46.3593H46.3571H46.3548H46.3526H46.3504H46.3482H46.346H46.3438H46.3416H46.3394H46.3371H46.3349H46.3327H46.3305H46.3283H46.3261H46.3239H46.3217H46.3195H46.3173H46.3151H46.3129H46.3107H46.3085H46.3063H46.3041H46.3019H46.2997H46.2975H46.2952H46.2931H46.2909H46.2887H46.2865H46.2843H46.2821H46.2799H46.2777H46.2755H46.2733H46.2711H46.2689H46.2667H46.2645H46.2623H46.2601H46.258H46.2558H46.2536H46.2514H46.2492H46.247H46.2448H46.2427L78.1163 49.0657ZM75.9684 55.8063C76.05 55.5355 76.1308 55.2639 76.2117 54.9921C76.4269 54.2696 76.6424 53.5456 76.8726 52.8288L25.9006 56.7192C25.9557 56.7172 26.0109 56.7151 26.0662 56.7151C42.2306 56.7151 58.395 56.7151 74.5594 56.7197C75.4039 56.7197 75.7665 56.4868 75.9684 55.8063ZM29.0863 42.0498C28.7451 43.091 28.4033 44.134 28.0713 45.1778M29.0863 42.0498L28.0713 45.1778M28.0713 45.1778C27.9187 45.6563 27.7778 46.1376 27.6385 46.6158M28.0713 45.1778L27.6385 46.6158M27.6385 46.6158L27.6186 46.6841M27.6385 46.6158L27.6186 46.6841M27.6186 46.6841C27.4857 47.1401 27.3538 47.5929 27.2127 48.0423L27.6186 46.6841ZM11.8018 52.6689L12.0517 52.7433C12.0517 52.7433 12.0517 52.7432 12.0517 52.7431L11.8018 52.6689Z" fill="url(#paint0_linear_2039_76)" stroke="url(#paint1_linear_2039_76)" stroke-width="0.521379"/>
<defs>
<linearGradient id="paint0_linear_2039_76" x1="42.4326" y1="9.78549e-05" x2="110.81" y2="32.1625" gradientUnits="userSpaceOnUse">
<stop stop-color="#292D32"/>
<stop offset="1" stop-color="#7B8A98"/>
</linearGradient>
<linearGradient id="paint1_linear_2039_76" x1="-13.377" y1="40.2632" x2="118.699" y2="40.2632" gradientUnits="userSpaceOnUse">
<stop stop-color="#262C33"/>
<stop offset="1" stop-color="#718599" stop-opacity="0"/>
</linearGradient>
</defs>
</svg>
