<svg width="351" height="351" viewBox="0 0 351 351" fill="none" xmlns="http://www.w3.org/2000/svg">
<g filter="url(#filter0_b_2253_961)">
<path d="M149.236 48.1221C156.285 48.1221 163.338 48.1221 170.387 48.1221C171.479 48.2911 172.565 48.5446 173.66 48.6161C186.556 49.4319 199.27 51.3851 211.704 54.9244C226.528 59.1429 240.561 65.0157 252.323 75.3247C258.982 81.1617 264.507 88.0354 265.934 96.9144C266.954 103.271 266.506 109.892 266.369 116.388C266.327 118.361 266.538 119.417 268.374 120.415C271.988 122.378 275.547 124.507 278.872 126.915C285.479 131.702 290.978 137.487 294.771 144.868C298.226 151.586 298.333 158.71 298.304 165.957C298.268 175.145 294.982 183.033 289.122 189.952C283.484 196.605 276.5 201.529 268.921 205.718C268.043 206.202 267.159 207.288 266.941 208.246C266.243 211.324 265.937 214.49 265.307 217.584C265.047 218.867 265.027 219.745 266.135 220.723C276.155 229.557 280.672 240.496 280.425 254.039C280.191 266.925 274.949 276.86 265.648 285.057C252.882 296.302 237.519 302.448 221.301 306.448C190.163 314.135 158.866 314.313 127.617 307.037C110.392 303.026 94.1193 296.747 80.57 284.885C73.9075 279.054 68.6653 272.093 66.9948 263.233C65.542 255.531 65.3763 247.685 67.6123 240.012C68.1225 238.267 67.8528 237.168 66.5105 235.793C63.644 232.859 60.8718 229.761 58.5123 226.414C52.204 217.463 52.2138 207.21 53.114 196.91C53.608 191.259 55.7985 186.137 58.9933 181.437C64.2323 173.731 71.2263 167.972 79.2733 163.513C82.4648 161.745 85.0973 160.091 84.457 155.895C84.3595 155.249 84.5578 154.511 84.782 153.874C85.3638 152.216 84.5643 151.492 83.1895 150.705C79.5398 148.622 75.8803 146.516 72.4548 144.091C66.0783 139.58 60.7645 134.049 56.9003 127.159C52.139 118.67 52.4088 109.498 53.0913 100.291C53.5268 94.4151 55.9838 89.2281 59.2923 84.4084C64.567 76.7189 71.7073 71.1451 79.6698 66.5691C96.716 56.7834 115.352 52.0871 134.676 49.6886C139.515 49.0874 144.374 48.6389 149.226 48.1189L149.236 48.1221ZM164.313 130.058C169.045 129.645 178.151 129.18 187.16 127.994C203.339 125.862 218.965 121.673 233.353 113.678C240.168 109.892 246.307 105.277 250.841 98.7669C251.757 97.4474 251.757 96.4562 251.019 95.0717C248.153 89.7026 243.925 85.6109 239.073 82.1204C228.738 74.6844 217.028 70.3261 204.834 67.1704C186.891 62.5261 168.606 61.1644 150.153 62.0484C130.367 62.9974 111.11 66.4911 93.011 74.9379C84.4473 78.9354 76.4133 83.8071 70.885 91.7111C66.8388 97.4929 66.9103 96.5796 71.3985 101.897C78.2268 109.986 87.3365 114.845 96.95 118.754C117.136 126.961 138.319 129.778 164.316 130.058H164.313ZM104.981 159.844C109.84 164.472 114.89 167.82 120.344 170.543C138.544 179.627 158.063 183.501 178.171 184.937C192.364 185.951 206.517 185.418 220.577 183.221C235.927 180.823 250.805 176.825 264.504 169.246C271.475 165.389 277.864 160.761 282.268 153.926C282.746 153.185 282.873 151.755 282.486 150.985C277.712 141.534 269.291 136.249 260.334 131.426C251.744 142.84 240.184 149.616 227.646 154.937C214.681 160.436 201.087 163.588 187.157 165.431C164.732 168.395 142.424 167.683 120.236 163.367C115.313 162.408 110.457 161.118 104.987 159.847L104.981 159.844ZM88.0515 250.305C87.9638 250.389 87.876 250.47 87.7883 250.555C91.3275 253.015 94.7043 255.761 98.4353 257.887C117.675 268.852 138.83 272.957 160.579 274.527C173.978 275.495 187.375 275.021 200.693 273.038C216.755 270.646 232.326 266.659 246.645 258.706C253.542 254.877 259.814 250.262 264.244 243.558C264.66 242.927 265.099 241.894 264.861 241.322C263.272 237.493 260.802 234.285 257.659 231.562C255.462 233.648 253.551 235.631 251.468 237.409C241.292 246.086 229.378 251.497 216.784 255.537C202.478 260.129 187.771 262.515 172.786 263.409C151.443 264.679 130.36 263.106 109.703 257.468C102.381 255.469 95.2633 252.71 88.0515 250.301V250.305ZM196.793 223.492C196.774 223.388 196.754 223.284 196.735 223.18C186.039 222.439 175.301 222.078 164.657 220.876C146.097 218.776 128.267 213.918 111.835 204.753C103.278 199.978 95.5785 194.086 90.19 185.717C88.2238 182.666 86.7905 179.266 85.0355 175.876C78.8605 179.812 73.1243 184.183 69.2633 190.644C68.077 192.627 67.6545 194.297 69.429 196.137C71.0313 197.801 72.367 199.738 74.0375 201.327C82.4355 209.306 92.647 214.148 103.447 217.811C124.952 225.107 147.143 227.512 169.718 226.277C178.766 225.783 187.771 224.444 196.793 223.492Z" fill="url(#paint0_linear_2253_961)"/>
<path d="M166.558 106.865C166.665 106.653 166.801 106.458 166.866 106.241C167.221 105.045 167.562 103.842 167.9 102.64C168.209 101.548 168.508 100.452 168.816 99.3604C168.94 98.9184 169.125 98.4894 169.203 98.0377C169.32 97.3714 169.931 97.3454 170.35 97.1049C171.8 96.2762 173.269 95.4799 174.751 94.7064C175.794 94.1604 176.88 93.7054 177.92 93.1529C179.723 92.1942 181.495 91.1737 183.298 90.2117C185.993 88.7752 188.719 87.4069 191.394 85.9379C193.325 84.8752 195.216 83.7344 197.082 82.5547C199.412 81.0824 201.706 79.5517 203.998 78.0177C204.615 77.6049 205.194 77.1207 205.723 76.6039C206.133 76.2042 206.438 75.7004 206.793 75.2454C206.9 75.1057 207.023 74.9789 207.157 74.8262C208.106 76.3309 208.349 77.9104 208.141 79.5224C208.047 80.2667 207.677 81.0044 207.306 81.6739C206.263 83.5589 204.433 84.5729 202.678 85.6389C200.813 86.7732 198.918 87.8619 197.017 88.9377C194.699 90.2507 192.372 91.5539 190.029 92.8182C187.809 94.0174 185.56 95.1582 183.328 96.3379C181.933 97.0757 180.559 97.8524 179.155 98.5739C178.095 99.1199 176.971 99.5554 175.944 100.157C175.586 100.365 175.31 100.888 175.206 101.317C174.858 102.744 174.611 104.193 174.315 105.63C174.049 106.939 173.789 108.252 173.49 109.556C173.168 110.956 172.772 112.341 172.46 113.745C172.216 114.84 172.057 115.955 171.845 117.057C171.732 117.645 171.572 118.223 171.468 118.815C171.371 119.38 171.319 119.956 171.234 120.648C171.127 120.609 170.883 120.589 170.757 120.459C169.158 118.786 167.578 117.092 165.989 115.406C164.536 113.862 163.077 112.321 161.624 110.778C160.305 109.377 158.995 107.963 157.672 106.569C156.648 105.49 155.579 104.456 154.581 103.355C154.117 102.841 153.496 102.776 152.924 102.627C151.357 102.207 149.765 101.879 148.182 101.525C147.662 101.408 147.129 101.336 146.609 101.219C145.546 100.982 144.49 100.706 143.424 100.488C142.465 100.293 141.494 100.173 140.535 99.9812C139.891 99.8512 139.267 99.6367 138.63 99.4937C137.418 99.2207 136.196 98.9899 134.987 98.7137C133.817 98.4472 132.66 98.1319 131.49 97.8622C130.236 97.5762 128.971 97.3422 127.72 97.0432C126.761 96.8157 125.822 96.5069 124.87 96.2632C124.395 96.1429 123.895 96.1169 123.42 95.9999C122.813 95.8504 122.215 95.6489 121.613 95.4702C121.539 95.4474 121.464 95.4117 121.389 95.3954C120.427 95.1972 119.459 95.0184 118.5 94.7974C116.998 94.4497 115.5 94.0792 114.002 93.7087C113.791 93.6567 113.605 93.5169 113.394 93.4584C112.66 93.2602 111.915 93.1042 111.187 92.8929C109.065 92.2787 106.998 91.4922 105.168 90.2604C103.475 89.1197 101.86 87.8327 101.122 85.7819C100.839 84.9922 100.479 84.2349 100.202 83.4419C100.124 83.2209 100.225 82.9382 100.251 82.5417C101.268 83.5849 102.383 84.0529 103.475 84.5242C104.964 85.1644 106.481 85.7462 108.012 86.2694C109.315 86.7114 110.664 87.0104 111.98 87.4134C112.562 87.5922 113.102 87.9042 113.683 88.0862C114.229 88.2584 114.814 88.3072 115.367 88.4664C116.842 88.8922 118.308 89.3602 119.787 89.7859C120.32 89.9387 120.876 90.0134 121.418 90.1369C121.799 90.2214 122.176 90.3222 122.553 90.4197C123.606 90.6992 124.652 91.0014 125.712 91.2549C126.963 91.5539 128.227 91.8009 129.482 92.0902C130.613 92.3502 131.74 92.6427 132.868 92.9189C133.609 93.1009 134.353 93.2764 135.094 93.4617C136.105 93.7184 137.113 93.9914 138.123 94.2417C138.507 94.3359 138.903 94.3684 139.287 94.4497C140.359 94.6739 141.455 94.8234 142.495 95.1549C144.012 95.6359 145.572 95.9122 147.119 96.2469C147.532 96.3379 147.916 96.5589 148.325 96.6694C148.54 96.7279 148.79 96.6434 149.011 96.6922C149.979 96.8969 150.945 97.1082 151.903 97.3552C152.826 97.5924 153.73 97.9012 154.653 98.1384C155.231 98.2847 155.829 98.3464 156.414 98.4569C156.973 98.5642 157.581 98.5772 158.072 98.8242C158.553 99.0679 158.92 99.5424 159.326 99.9292C161.705 102.204 164.078 104.486 166.551 106.855L166.558 106.865Z" fill="url(#paint1_linear_2253_961)"/>
<path d="M109.794 82.1738C109.778 81.6213 110.067 81.3646 110.464 81.6279C111.497 82.3136 112.674 82.6061 113.844 82.9246C115.18 83.2886 116.509 83.6851 117.845 84.0523C118.852 84.3318 119.863 84.6146 120.88 84.8551C121.803 85.0728 122.742 85.2353 123.672 85.4303C124.517 85.6091 125.362 85.7846 126.197 85.9926C126.652 86.1063 127.088 86.2916 127.539 86.4281C127.705 86.4801 127.887 86.4736 128.059 86.5126C128.826 86.6816 129.593 86.8603 130.36 87.0293C130.497 87.0586 130.64 87.0521 130.776 87.0814C131.586 87.2536 132.388 87.4453 133.198 87.6046C133.493 87.6631 133.809 87.6143 134.098 87.6793C134.722 87.8191 135.339 88.0043 135.96 88.1636C136.093 88.1961 136.243 88.1701 136.379 88.1961C137.192 88.3521 137.998 88.5211 138.81 88.6738C139.064 88.7193 139.334 88.6901 139.587 88.7486C140.328 88.9144 141.059 89.1191 141.8 89.2816C142.028 89.3303 142.285 89.2524 142.515 89.2979C143.23 89.4344 143.939 89.6098 144.654 89.7496C144.979 89.8113 145.317 89.8146 145.645 89.8569C146.467 89.9641 147.293 90.0486 148.105 90.2014C148.583 90.2924 149.035 90.5036 149.506 90.6369C149.672 90.6856 149.864 90.6434 150.039 90.6694C150.783 90.7701 151.528 90.8611 152.262 91.0008C152.434 91.0333 152.584 91.2316 152.72 91.3779C154.235 92.9996 155.749 94.6246 157.254 96.2561C157.348 96.3569 157.365 96.5258 157.42 96.6656C157.257 96.6981 157.085 96.7826 156.932 96.7534C155.636 96.5031 154.339 96.2496 153.052 95.9604C151.976 95.7199 150.917 95.4241 149.844 95.1803C149.246 95.0438 148.612 95.0276 148.031 94.8424C146.971 94.5044 145.791 94.6668 144.797 94.0558C144.683 93.9876 144.472 94.0981 144.322 94.0591C143.679 93.8999 143.048 93.7016 142.405 93.5488C142.181 93.4968 141.927 93.5684 141.703 93.5131C141.082 93.3539 140.478 93.1393 139.857 92.9898C139.597 92.9281 139.301 93.0191 139.041 92.9573C138.407 92.8046 137.79 92.5804 137.156 92.4276C136.873 92.3594 136.558 92.4276 136.272 92.3561C135.72 92.2229 135.187 91.9173 134.637 91.8946C133.614 91.8523 132.671 91.5371 131.706 91.2771C130.988 91.0854 130.26 90.9326 129.535 90.7668C129.379 90.7311 129.216 90.7311 129.06 90.6953C128.329 90.5328 127.601 90.3606 126.87 90.2014C126.597 90.1429 126.314 90.1298 126.038 90.0746C125.193 89.8991 124.351 89.7106 123.506 89.5253C122.759 89.3596 122.001 89.2296 121.267 89.0183C120.168 88.7031 119.086 88.3228 117.994 87.9816C117.308 87.7671 116.597 87.6143 115.93 87.3511C114.309 86.7141 112.762 85.9179 111.436 84.7771C110.698 84.1434 109.687 82.8953 109.791 82.1836L109.794 82.1738Z" fill="url(#paint2_linear_2253_961)"/>
<path d="M168.064 90.2637C167.836 91.5084 167.644 92.5452 167.456 93.5852C167.43 93.7249 167.436 93.8679 167.414 94.0077C167.248 95.0704 167.079 96.1332 166.91 97.1992C166.897 97.2804 166.877 97.3584 166.871 97.4397C166.77 98.4992 166.695 99.5587 166.562 100.615C166.409 101.83 166.211 103.039 166.019 104.248C165.958 104.645 165.717 104.651 165.464 104.421C165.194 104.177 164.944 103.91 164.706 103.634C163.478 102.194 162.256 100.751 161.037 99.3052C160.312 98.4439 159.607 97.5632 158.879 96.7019C157.657 95.2524 156.429 93.8127 155.2 92.3697C154.898 92.0154 154.553 91.6904 154.316 91.2972C154.202 91.1119 154.189 90.7414 154.303 90.5627C155.294 88.9929 156.331 87.4524 157.342 85.8989C157.768 85.2424 158.158 84.5632 158.583 83.9099C158.782 83.6044 159.058 83.4777 159.406 83.7182C160.361 84.3844 161.317 85.0507 162.275 85.7072C163.137 86.2954 164.008 86.8674 164.866 87.4557C165.756 88.0667 166.673 88.6484 167.514 89.3212C167.81 89.5552 167.921 90.0232 168.057 90.2702L168.064 90.2637Z" fill="url(#paint3_linear_2253_961)"/>
<path d="M200.122 76.7448C200.226 77.5768 199.758 78.2008 199.348 78.8378C198.006 80.9471 195.89 82.0553 193.765 83.1571C191.513 84.3238 189.277 85.5263 187.015 86.6703C185.578 87.3951 184.099 88.0353 182.653 88.7373C181.876 89.1143 181.135 89.5628 180.359 89.9431C179.078 90.5703 177.781 91.1553 176.501 91.7761C175.513 92.2538 174.541 92.7608 173.563 93.2581C172.039 94.0316 170.521 94.8083 168.993 95.5786C168.899 95.6273 168.694 95.6501 168.672 95.6111C168.6 95.4843 168.532 95.3088 168.561 95.1756C168.805 94.1128 169.084 93.0566 169.325 91.9906C169.461 91.3926 169.575 90.7848 169.634 90.1738C169.705 89.4263 169.929 89.2118 170.657 89.0103C171.311 88.8283 171.922 88.5001 172.555 88.2466C173.543 87.8533 174.544 87.4926 175.519 87.0701C176.459 86.6638 177.356 86.1601 178.295 85.7571C179.51 85.2338 180.765 84.8016 181.974 84.2686C183.134 83.7583 184.255 83.1571 185.403 82.6176C186.586 82.0618 187.808 81.5808 188.965 80.9763C191.548 79.6341 194.122 78.2691 196.661 76.8391C197.509 76.3613 198.243 75.6691 199.007 75.0483C199.277 74.8273 199.478 74.7883 199.628 75.1166C199.862 75.6333 200.063 76.1631 200.278 76.6896C200.226 76.7091 200.174 76.7318 200.122 76.7513V76.7448Z" fill="url(#paint4_linear_2253_961)"/>
<path d="M121.933 97.4758C122.788 97.6351 123.551 97.7553 124.302 97.9276C124.738 98.0283 125.147 98.2363 125.579 98.3533C125.839 98.4248 126.129 98.3891 126.395 98.4476C127.136 98.6198 127.867 98.8246 128.608 99.0033C129.427 99.2016 130.253 99.3803 131.072 99.5818C131.605 99.7118 132.131 99.8743 132.664 100.014C132.837 100.06 133.019 100.073 133.191 100.115C133.815 100.274 134.439 100.443 135.063 100.609C135.102 100.619 135.134 100.654 135.17 100.661C136.243 100.859 137.318 101.041 138.388 101.262C138.843 101.356 139.278 101.532 139.72 101.675C139.775 101.691 139.818 101.756 139.873 101.769C140.916 101.974 141.959 102.169 143.003 102.377C143.331 102.442 143.649 102.539 143.971 102.627C144.878 102.874 145.778 103.154 146.691 103.362C147.566 103.56 148.459 103.683 149.34 103.849C149.574 103.891 149.808 103.956 150.036 104.021C150.985 104.288 151.927 104.574 152.883 104.818C153.149 104.886 153.451 104.818 153.728 104.87C153.864 104.896 153.978 105.045 154.101 105.143C153.988 105.227 153.88 105.377 153.76 105.39C152.619 105.497 151.479 105.568 150.338 105.679C149.883 105.724 149.418 105.975 148.986 105.919C147.133 105.682 145.3 106.098 143.448 105.975C142.005 105.877 140.549 105.962 139.099 105.949C138.888 105.949 138.677 105.858 138.469 105.802C138.355 105.773 138.228 105.672 138.131 105.695C137.273 105.903 136.447 105.474 135.654 105.516C134.572 105.575 133.62 105.136 132.583 105.061C131.498 104.987 130.425 104.561 129.379 104.197C128.384 103.849 127.393 103.453 126.47 102.949C125.576 102.461 124.76 101.824 123.928 101.23C122.957 100.534 122.463 99.4941 122.04 98.4281C121.923 98.1356 121.965 97.7813 121.936 97.4823L121.933 97.4758Z" fill="url(#paint5_linear_2253_961)"/>
<path d="M198.745 90.1674C198.933 90.6061 199.235 91.0124 199.265 91.4349C199.333 92.4489 199.443 93.4791 198.917 94.4509C198.173 95.8256 197.162 96.9306 195.81 97.6976C194.539 98.4191 193.265 99.1406 191.939 99.7516C191.205 100.09 190.363 100.184 189.573 100.405C189.346 100.47 189.141 100.61 188.917 100.691C188.64 100.792 188.354 100.876 188.068 100.948C187.129 101.178 186.187 101.396 185.247 101.62C185.036 101.672 184.828 101.741 184.614 101.78C183.694 101.952 182.774 102.124 181.851 102.283C181.201 102.397 180.548 102.504 179.895 102.586C179.001 102.699 178.104 102.797 177.204 102.875C177.012 102.891 176.807 102.784 176.609 102.732C176.749 102.595 176.866 102.42 177.031 102.326C178.728 101.357 180.418 100.385 182.134 99.4526C183.167 98.8904 184.263 98.4354 185.286 97.8601C186.216 97.3401 187.067 96.6869 187.99 96.1506C190.308 94.8019 192.641 93.4694 194.981 92.1596C196.177 91.4901 197.402 90.8759 198.741 90.1674H198.745Z" fill="url(#paint6_linear_2253_961)"/>
</g>
<defs>
<filter id="filter0_b_2253_961" x="-72.4437" y="-72.4437" width="495.887" height="495.887" filterUnits="userSpaceOnUse" color-interpolation-filters="sRGB">
<feFlood flood-opacity="0" result="BackgroundImageFix"/>
<feGaussianBlur in="BackgroundImageFix" stdDeviation="36.2219"/>
<feComposite in2="SourceAlpha" operator="in" result="effect1_backgroundBlur_2253_961"/>
<feBlend mode="normal" in="SourceGraphic" in2="effect1_backgroundBlur_2253_961" result="shape"/>
</filter>
<linearGradient id="paint0_linear_2253_961" x1="182.651" y1="36.1081" x2="184.982" y2="477.494" gradientUnits="userSpaceOnUse">
<stop stop-color="#E91D05"/>
<stop offset="0.55" stop-color="#F67702"/>
<stop offset="1" stop-color="#FFEF76"/>
</linearGradient>
<linearGradient id="paint1_linear_2253_961" x1="157.339" y1="72.7434" x2="157.498" y2="149.286" gradientUnits="userSpaceOnUse">
<stop stop-color="#E91D05"/>
<stop offset="0.55" stop-color="#F67702"/>
<stop offset="1" stop-color="#FFEF76"/>
</linearGradient>
<linearGradient id="paint2_linear_2253_961" x1="134.989" y1="80.8314" x2="135.029" y2="106.282" gradientUnits="userSpaceOnUse">
<stop stop-color="#E91D05"/>
<stop offset="0.55" stop-color="#F67702"/>
<stop offset="1" stop-color="#FFEF76"/>
</linearGradient>
<linearGradient id="paint3_linear_2253_961" x1="161.547" y1="82.6387" x2="161.808" y2="117.687" gradientUnits="userSpaceOnUse">
<stop stop-color="#E91D05"/>
<stop offset="0.55" stop-color="#F67702"/>
<stop offset="1" stop-color="#FFEF76"/>
</linearGradient>
<linearGradient id="paint4_linear_2253_961" x1="185.34" y1="73.933" x2="185.451" y2="108.602" gradientUnits="userSpaceOnUse">
<stop stop-color="#E91D05"/>
<stop offset="0.55" stop-color="#F67702"/>
<stop offset="1" stop-color="#FFEF76"/>
</linearGradient>
<linearGradient id="paint5_linear_2253_961" x1="138.954" y1="97.0885" x2="138.973" y2="111.324" gradientUnits="userSpaceOnUse">
<stop stop-color="#E91D05"/>
<stop offset="0.55" stop-color="#F67702"/>
<stop offset="1" stop-color="#FFEF76"/>
</linearGradient>
<linearGradient id="paint6_linear_2253_961" x1="188.628" y1="89.5897" x2="188.686" y2="110.82" gradientUnits="userSpaceOnUse">
<stop stop-color="#E91D05"/>
<stop offset="0.55" stop-color="#F67702"/>
<stop offset="1" stop-color="#FFEF76"/>
</linearGradient>
</defs>
</svg>
