<svg width="137" height="81" viewBox="0 0 137 81" fill="none" xmlns="http://www.w3.org/2000/svg">
<g id="Icon Color" opacity="0.6">
<path id="Vector" d="M24.7063 18.7672L24.7059 18.7669C17.1562 14.2642 13.76 9.62395 12.2534 6.12508C11.4993 4.37408 11.2163 2.90386 11.125 1.87228C11.0908 1.48665 11.0835 1.16245 11.0883 0.907961C11.847 1.85198 12.9732 2.90512 14.3672 4.03045C16.0469 5.38636 18.1321 6.86011 20.47 8.38944C25.1461 11.4483 30.8471 14.7383 36.3673 17.7644C41.8882 20.791 47.232 23.5554 51.1954 25.5632C53.1771 26.5671 54.8139 27.3819 55.9554 27.9458C56.5261 28.2277 56.973 28.4469 57.2773 28.5957C57.3576 28.6349 57.428 28.6693 57.488 28.6986C57.5418 28.7248 57.5874 28.747 57.6244 28.765L57.645 28.775L61.4093 39.9402C61.2946 39.8756 61.1639 39.8021 61.0181 39.72C60.3819 39.3617 59.4562 38.8399 58.2981 38.1853C55.982 36.8762 52.7364 35.0365 49.0186 32.9139C41.5826 28.6684 32.2593 23.2922 24.7063 18.7672Z" fill="url(#paint0_linear_2216_68)" stroke="url(#paint1_linear_2216_68)" stroke-width="0.521379"/>
<path id="Vector_2" d="M67.8935 60.3371L68.1348 60.935L68.3769 60.3374L74.7426 44.6262L101.691 28.335L101.691 28.3349L101.692 28.3343L101.697 28.3316L101.714 28.321L101.784 28.2789C101.846 28.2417 101.937 28.1865 102.056 28.1142C102.294 27.9695 102.644 27.7565 103.09 27.4827C103.981 26.9351 105.257 26.1446 106.796 25.1724C109.874 23.2281 114.004 20.5565 118.211 17.6482C122.417 14.7406 126.705 11.5931 130.097 8.69713C131.793 7.24933 133.269 5.8606 134.4 4.59307C135.064 3.84908 135.616 3.13914 136.024 2.4772C135.989 2.77666 135.943 3.11892 135.884 3.49868C135.651 5.00851 135.214 7.10937 134.399 9.46991C132.769 14.1921 129.631 19.9403 123.599 24.0852C117.516 28.2648 106.515 34.8114 97.0266 40.3171C92.2841 43.0691 87.9221 45.5595 84.7458 47.3619C83.1577 48.2631 81.866 48.9923 80.9714 49.4962C80.524 49.7481 80.176 49.9437 79.9398 50.0763L79.671 50.2271L79.6024 50.2655L79.5851 50.2752L79.5808 50.2777L79.5797 50.2783C79.5795 50.2784 79.5794 50.2785 79.7067 50.5059L79.5794 50.2785L79.4972 50.3245L79.4634 50.4123L68.151 79.8111L56.9433 50.6846L56.9094 50.5966L56.8271 50.5506L56.7 50.7782C56.8271 50.5506 56.827 50.5505 56.8268 50.5504L56.8257 50.5498L56.8213 50.5474L56.804 50.5377L56.7353 50.4993L56.4659 50.3484C56.2293 50.2158 55.8805 50.0202 55.4324 49.7683C54.536 49.2644 53.2419 48.5352 51.6511 47.634C48.4695 45.8316 44.1012 43.3412 39.3545 40.5893C29.8576 35.0835 18.8568 28.5371 12.8087 24.3578C6.81035 20.2129 3.67206 14.4645 2.03304 9.74178C1.21376 7.38106 0.770362 5.28003 0.531894 3.77008C0.472761 3.39566 0.426247 3.0577 0.389733 2.76126C0.796795 3.41984 1.34644 4.12577 2.00653 4.86536C3.13781 6.13289 4.61412 7.52162 6.30988 8.96941C9.7018 11.8654 13.9898 15.0129 18.1959 17.9205C22.4029 20.8288 26.5327 23.5004 29.6104 25.4447C31.1493 26.4169 32.4255 27.2074 33.317 27.755C33.7628 28.0288 34.1124 28.2418 34.3507 28.3865C34.4698 28.4588 34.5611 28.514 34.6226 28.5512L34.6924 28.5933L34.7101 28.6039L34.7146 28.6066L34.7155 28.6072L34.7157 28.6073L61.6639 44.8984L67.8935 60.3371Z" fill="url(#paint2_linear_2216_68)" stroke="url(#paint3_linear_2216_68)" stroke-width="0.521379"/>
<path id="Vector_3" d="M111.701 18.4949L111.7 18.495C104.113 23.054 94.7901 28.4301 87.371 32.6757C84.752 34.1744 82.3707 35.532 80.3869 36.663C79.5608 37.134 78.8036 37.5656 78.1269 37.9519C76.9762 38.6086 76.0577 39.134 75.429 39.4975C75.2994 39.5724 75.1819 39.6406 75.0771 39.7016L78.8298 28.5708L78.8504 28.5608C78.9289 28.5226 79.0454 28.4658 79.1976 28.3915C79.5019 28.2427 79.9488 28.0235 80.5195 27.7415C81.661 27.1776 83.2978 26.3628 85.2795 25.3589C89.2428 23.3512 94.5866 20.5867 100.108 17.5602C105.628 14.5341 111.329 11.244 116.005 8.18522C118.343 6.65589 120.428 5.18214 122.108 3.82623C123.482 2.71667 124.596 1.67729 125.354 0.743492C125.351 0.982695 125.337 1.27853 125.301 1.62484C125.195 2.64808 124.9 4.11279 124.137 5.86011C122.613 9.35171 119.216 13.9923 111.701 18.4949Z" fill="url(#paint4_linear_2216_68)" stroke="url(#paint5_linear_2216_68)" stroke-width="0.521379"/>
<path id="Vector_4" d="M68.0672 54.903L60.2479 28.6853L68.0672 14.2295L75.8865 28.6853L68.0672 54.903Z" fill="url(#paint6_linear_2216_68)" stroke="url(#paint7_linear_2216_68)" stroke-width="0.521379"/>
<path id="Vector_5" d="M24.3278 36.4112C24.3159 36.2819 24.3075 36.1665 24.3016 36.0664L55.2149 54.5358C39.5631 54.4836 31.8494 49.7953 28.0414 45.1338C26.0961 42.7524 25.158 40.364 24.706 38.5728C24.48 37.6772 24.3756 36.9313 24.3278 36.4112Z" fill="url(#paint8_linear_2216_68)" stroke="url(#paint9_linear_2216_68)" stroke-width="0.521379"/>
<path id="Vector_6" d="M80.8515 54.5358L111.765 36.0664C111.759 36.1665 111.751 36.2819 111.739 36.4112C111.691 36.9313 111.586 37.6772 111.36 38.5728C110.908 40.364 109.97 42.7524 108.025 45.1338C104.217 49.7953 96.5033 54.4836 80.8515 54.5358Z" fill="url(#paint10_linear_2216_68)" stroke="url(#paint11_linear_2216_68)" stroke-width="0.521379"/>
</g>
<defs>
<linearGradient id="paint0_linear_2216_68" x1="31.408" y1="0.20428" x2="66.4136" y2="14.0779" gradientUnits="userSpaceOnUse">
<stop stop-color="#4C525B"/>
<stop offset="1" stop-color="#41464D"/>
</linearGradient>
<linearGradient id="paint1_linear_2216_68" x1="4.33784" y1="23.3819" x2="68.4005" y2="23.3819" gradientUnits="userSpaceOnUse">
<stop stop-color="#262C33"/>
<stop offset="1" stop-color="#8A97A4" stop-opacity="0"/>
</linearGradient>
<linearGradient id="paint2_linear_2216_68" x1="54.9982" y1="1.08922" x2="139.214" y2="46.064" gradientUnits="userSpaceOnUse">
<stop stop-color="#4C525B"/>
<stop offset="1" stop-color="#41464D"/>
</linearGradient>
<linearGradient id="paint3_linear_2216_68" x1="-17.3383" y1="47.0529" x2="153.849" y2="47.0529" gradientUnits="userSpaceOnUse">
<stop stop-color="#262C33"/>
<stop offset="1" stop-color="#8A97A4" stop-opacity="0"/>
</linearGradient>
<linearGradient id="paint4_linear_2216_68" x1="95.1701" y1="5.63306e-05" x2="130.159" y2="13.8584" gradientUnits="userSpaceOnUse">
<stop stop-color="#4C525B"/>
<stop offset="1" stop-color="#41464D"/>
</linearGradient>
<linearGradient id="paint5_linear_2216_68" x1="68.1173" y1="23.1777" x2="132.139" y2="23.1777" gradientUnits="userSpaceOnUse">
<stop stop-color="#262C33"/>
<stop offset="1" stop-color="#8A97A4" stop-opacity="0"/>
</linearGradient>
<linearGradient id="paint6_linear_2216_68" x1="66.4989" y1="13.6816" x2="79.1697" y2="15.2058" gradientUnits="userSpaceOnUse">
<stop stop-color="#4C525B"/>
<stop offset="1" stop-color="#41464D"/>
</linearGradient>
<linearGradient id="paint7_linear_2216_68" x1="57.908" y1="37.9163" x2="78.2387" y2="37.9163" gradientUnits="userSpaceOnUse">
<stop stop-color="#262C33"/>
<stop offset="1" stop-color="#8A97A4" stop-opacity="0"/>
</linearGradient>
<linearGradient id="paint8_linear_2216_68" x1="36.9811" y1="35.5991" x2="56.9891" y2="46.0749" gradientUnits="userSpaceOnUse">
<stop stop-color="#4C525B"/>
<stop offset="1" stop-color="#41464D"/>
</linearGradient>
<linearGradient id="paint9_linear_2216_68" x1="19.9435" y1="46.6415" x2="60.2638" y2="46.6415" gradientUnits="userSpaceOnUse">
<stop stop-color="#262C33"/>
<stop offset="1" stop-color="#8A97A4" stop-opacity="0"/>
</linearGradient>
<linearGradient id="paint10_linear_2216_68" x1="92.8648" y1="35.5991" x2="112.873" y2="46.0749" gradientUnits="userSpaceOnUse">
<stop stop-color="#4C525B"/>
<stop offset="1" stop-color="#41464D"/>
</linearGradient>
<linearGradient id="paint11_linear_2216_68" x1="75.8271" y1="46.6415" x2="116.147" y2="46.6415" gradientUnits="userSpaceOnUse">
<stop stop-color="#262C33"/>
<stop offset="1" stop-color="#8A97A4" stop-opacity="0"/>
</linearGradient>
</defs>
</svg>
