<?xml version="1.0" encoding="utf-8"?>
<!-- Generator: Adobe Illustrator 26.0.0, SVG Export Plug-In . SVG Version: 6.00 Build 0)  -->
<svg version="1.1" id="Capa_1" xmlns="http://www.w3.org/2000/svg" xmlns:xlink="http://www.w3.org/1999/xlink" x="0px" y="0px"
	 viewBox="0 0 1802 940" style="enable-background:new 0 0 1802 940;" xml:space="preserve">
<style type="text/css">
	.st0{fill:#292D32;fill-opacity:0.4;}
</style>
<path class="st0" d="M1801.7,43.2v854.5c0,11-8.9,20-20,20H347.3c-6.2,0-12.1,2.9-15.9,7.8l-4.7,6.1c-3.8,4.9-9.7,7.8-15.9,7.8
	h-81.3c-6.2,0-12.1-2.9-15.9-7.8l-4.7-6.1c-3.8-4.9-9.7-7.8-15.9-7.8H49.7c-6.1,0-11.8-2.8-15.6-7.5L4,872.5
	c-2.8-3.5-4.4-7.9-4.4-12.5l0-829.4c0-4.7,1.6-9.2,4.6-12.8l8.4-10.1c3.8-4.6,9.4-7.2,15.4-7.2h191.1c6.2,0,12.1,2.9,15.9,7.8
	l5.5,7.2c3.8,4.9,9.7,7.8,15.9,7.8h109.3c6.2,0,12.1-2.9,15.9-7.8l5.5-7.2c3.8-4.9,9.7-7.8,15.9-7.8H1749c4.1,0,8.1,1.2,11.4,3.6
	l32.7,22.7C1798.5,30.5,1801.7,36.7,1801.7,43.2z"/>
</svg>
