<svg width="150" height="48" viewBox="0 0 150 48" fill="none" xmlns="http://www.w3.org/2000/svg">
<path d="M9.408 19.696V28H8.316V21.808L5.556 28H4.788L2.016 21.796V28H0.924V19.696H2.1L5.172 26.56L8.244 19.696H9.408ZM10.8519 24.688C10.8519 24.016 10.9879 23.428 11.2599 22.924C11.5319 22.412 11.9039 22.016 12.3759 21.736C12.8559 21.456 13.3879 21.316 13.9719 21.316C14.5479 21.316 15.0479 21.44 15.4719 21.688C15.8959 21.936 16.2119 22.248 16.4199 22.624V21.424H17.5239V28H16.4199V26.776C16.2039 27.16 15.8799 27.48 15.4479 27.736C15.0239 27.984 14.5279 28.108 13.9599 28.108C13.3759 28.108 12.8479 27.964 12.3759 27.676C11.9039 27.388 11.5319 26.984 11.2599 26.464C10.9879 25.944 10.8519 25.352 10.8519 24.688ZM16.4199 24.7C16.4199 24.204 16.3199 23.772 16.1199 23.404C15.9199 23.036 15.6479 22.756 15.3039 22.564C14.9679 22.364 14.5959 22.264 14.1879 22.264C13.7799 22.264 13.4079 22.36 13.0719 22.552C12.7359 22.744 12.4679 23.024 12.2679 23.392C12.0679 23.76 11.9679 24.192 11.9679 24.688C11.9679 25.192 12.0679 25.632 12.2679 26.008C12.4679 26.376 12.7359 26.66 13.0719 26.86C13.4079 27.052 13.7799 27.148 14.1879 27.148C14.5959 27.148 14.9679 27.052 15.3039 26.86C15.6479 26.66 15.9199 26.376 16.1199 26.008C16.3199 25.632 16.4199 25.196 16.4199 24.7ZM22.5733 21.304C23.3733 21.304 24.0213 21.548 24.5173 22.036C25.0133 22.516 25.2613 23.212 25.2613 24.124V28H24.1813V24.28C24.1813 23.624 24.0173 23.124 23.6893 22.78C23.3613 22.428 22.9133 22.252 22.3453 22.252C21.7693 22.252 21.3093 22.432 20.9653 22.792C20.6293 23.152 20.4613 23.676 20.4613 24.364V28H19.3693V21.424H20.4613V22.36C20.6773 22.024 20.9693 21.764 21.3373 21.58C21.7133 21.396 22.1253 21.304 22.5733 21.304ZM26.6371 24.688C26.6371 24.016 26.7731 23.428 27.0451 22.924C27.3171 22.412 27.6891 22.016 28.1611 21.736C28.6411 21.456 29.1731 21.316 29.7571 21.316C30.3331 21.316 30.8331 21.44 31.2571 21.688C31.6811 21.936 31.9971 22.248 32.2051 22.624V21.424H33.3091V28H32.2051V26.776C31.9891 27.16 31.6651 27.48 31.2331 27.736C30.8091 27.984 30.3131 28.108 29.7451 28.108C29.1611 28.108 28.6331 27.964 28.1611 27.676C27.6891 27.388 27.3171 26.984 27.0451 26.464C26.7731 25.944 26.6371 25.352 26.6371 24.688ZM32.2051 24.7C32.2051 24.204 32.1051 23.772 31.9051 23.404C31.7051 23.036 31.4331 22.756 31.0891 22.564C30.7531 22.364 30.3811 22.264 29.9731 22.264C29.5651 22.264 29.1931 22.36 28.8571 22.552C28.5211 22.744 28.2531 23.024 28.0531 23.392C27.8531 23.76 27.7531 24.192 27.7531 24.688C27.7531 25.192 27.8531 25.632 28.0531 26.008C28.2531 26.376 28.5211 26.66 28.8571 26.86C29.1931 27.052 29.5651 27.148 29.9731 27.148C30.3811 27.148 30.7531 27.052 31.0891 26.86C31.4331 26.66 31.7051 26.376 31.9051 26.008C32.1051 25.632 32.2051 25.196 32.2051 24.7ZM37.8665 21.316C38.4345 21.316 38.9305 21.44 39.3545 21.688C39.7865 21.936 40.1065 22.248 40.3145 22.624V21.424H41.4185V28.144C41.4185 28.744 41.2905 29.276 41.0345 29.74C40.7785 30.212 40.4105 30.58 39.9305 30.844C39.4585 31.108 38.9065 31.24 38.2745 31.24C37.4105 31.24 36.6905 31.036 36.1145 30.628C35.5385 30.22 35.1985 29.664 35.0945 28.96H36.1745C36.2945 29.36 36.5425 29.68 36.9185 29.92C37.2945 30.168 37.7465 30.292 38.2745 30.292C38.8745 30.292 39.3625 30.104 39.7385 29.728C40.1225 29.352 40.3145 28.824 40.3145 28.144V26.764C40.0985 27.148 39.7785 27.468 39.3545 27.724C38.9305 27.98 38.4345 28.108 37.8665 28.108C37.2825 28.108 36.7505 27.964 36.2705 27.676C35.7985 27.388 35.4265 26.984 35.1545 26.464C34.8825 25.944 34.7465 25.352 34.7465 24.688C34.7465 24.016 34.8825 23.428 35.1545 22.924C35.4265 22.412 35.7985 22.016 36.2705 21.736C36.7505 21.456 37.2825 21.316 37.8665 21.316ZM40.3145 24.7C40.3145 24.204 40.2145 23.772 40.0145 23.404C39.8145 23.036 39.5425 22.756 39.1985 22.564C38.8625 22.364 38.4905 22.264 38.0825 22.264C37.6745 22.264 37.3025 22.36 36.9665 22.552C36.6305 22.744 36.3625 23.024 36.1625 23.392C35.9625 23.76 35.8625 24.192 35.8625 24.688C35.8625 25.192 35.9625 25.632 36.1625 26.008C36.3625 26.376 36.6305 26.66 36.9665 26.86C37.3025 27.052 37.6745 27.148 38.0825 27.148C38.4905 27.148 38.8625 27.052 39.1985 26.86C39.5425 26.66 39.8145 26.376 40.0145 26.008C40.2145 25.632 40.3145 25.196 40.3145 24.7ZM49.2638 24.46C49.2638 24.668 49.2518 24.888 49.2278 25.12H43.9718C44.0118 25.768 44.2318 26.276 44.6318 26.644C45.0398 27.004 45.5318 27.184 46.1078 27.184C46.5798 27.184 46.9718 27.076 47.2838 26.86C47.6038 26.636 47.8278 26.34 47.9558 25.972H49.1318C48.9558 26.604 48.6038 27.12 48.0758 27.52C47.5478 27.912 46.8918 28.108 46.1078 28.108C45.4838 28.108 44.9238 27.968 44.4278 27.688C43.9398 27.408 43.5558 27.012 43.2758 26.5C42.9958 25.98 42.8558 25.38 42.8558 24.7C42.8558 24.02 42.9918 23.424 43.2638 22.912C43.5358 22.4 43.9158 22.008 44.4038 21.736C44.8998 21.456 45.4678 21.316 46.1078 21.316C46.7318 21.316 47.2838 21.452 47.7638 21.724C48.2438 21.996 48.6118 22.372 48.8678 22.852C49.1318 23.324 49.2638 23.86 49.2638 24.46ZM48.1358 24.232C48.1358 23.816 48.0438 23.46 47.8598 23.164C47.6758 22.86 47.4238 22.632 47.1038 22.48C46.7918 22.32 46.4438 22.24 46.0598 22.24C45.5078 22.24 45.0358 22.416 44.6438 22.768C44.2598 23.12 44.0398 23.608 43.9838 24.232H48.1358ZM50.2973 24.688C50.2973 24.016 50.4333 23.428 50.7053 22.924C50.9773 22.412 51.3493 22.016 51.8213 21.736C52.3013 21.456 52.8373 21.316 53.4293 21.316C53.9413 21.316 54.4173 21.436 54.8573 21.676C55.2973 21.908 55.6333 22.216 55.8653 22.6V19.12H56.9693V28H55.8653V26.764C55.6493 27.156 55.3293 27.48 54.9053 27.736C54.4813 27.984 53.9853 28.108 53.4173 28.108C52.8333 28.108 52.3013 27.964 51.8213 27.676C51.3493 27.388 50.9773 26.984 50.7053 26.464C50.4333 25.944 50.2973 25.352 50.2973 24.688ZM55.8653 24.7C55.8653 24.204 55.7653 23.772 55.5653 23.404C55.3653 23.036 55.0933 22.756 54.7493 22.564C54.4133 22.364 54.0413 22.264 53.6333 22.264C53.2253 22.264 52.8533 22.36 52.5173 22.552C52.1813 22.744 51.9133 23.024 51.7133 23.392C51.5133 23.76 51.4133 24.192 51.4133 24.688C51.4133 25.192 51.5133 25.632 51.7133 26.008C51.9133 26.376 52.1813 26.66 52.5173 26.86C52.8533 27.052 53.2253 27.148 53.6333 27.148C54.0413 27.148 54.4133 27.052 54.7493 26.86C55.0933 26.66 55.3653 26.376 55.5653 26.008C55.7653 25.632 55.8653 25.196 55.8653 24.7ZM63.1058 22.648C63.3298 22.256 63.6578 21.936 64.0898 21.688C64.5218 21.44 65.0138 21.316 65.5658 21.316C66.1578 21.316 66.6898 21.456 67.1618 21.736C67.6338 22.016 68.0058 22.412 68.2778 22.924C68.5498 23.428 68.6858 24.016 68.6858 24.688C68.6858 25.352 68.5498 25.944 68.2778 26.464C68.0058 26.984 67.6298 27.388 67.1498 27.676C66.6778 27.964 66.1498 28.108 65.5658 28.108C64.9978 28.108 64.4978 27.984 64.0658 27.736C63.6418 27.488 63.3218 27.172 63.1058 26.788V28H62.0138V19.12H63.1058V22.648ZM67.5698 24.688C67.5698 24.192 67.4698 23.76 67.2698 23.392C67.0698 23.024 66.7978 22.744 66.4538 22.552C66.1178 22.36 65.7458 22.264 65.3378 22.264C64.9378 22.264 64.5658 22.364 64.2218 22.564C63.8858 22.756 63.6138 23.04 63.4058 23.416C63.2058 23.784 63.1058 24.212 63.1058 24.7C63.1058 25.196 63.2058 25.632 63.4058 26.008C63.6138 26.376 63.8858 26.66 64.2218 26.86C64.5658 27.052 64.9378 27.148 65.3378 27.148C65.7458 27.148 66.1178 27.052 66.4538 26.86C66.7978 26.66 67.0698 26.376 67.2698 26.008C67.4698 25.632 67.5698 25.192 67.5698 24.688ZM75.7872 21.424L71.8272 31.096H70.6992L71.9952 27.928L69.3432 21.424H70.5552L72.6192 26.752L74.6592 21.424H75.7872Z" fill="#53606A"/>
<path fill-rule="evenodd" clip-rule="evenodd" d="M93.4225 22.8601V18.4479C94.8194 18.7048 96.3842 18.8626 98.1431 18.8626C99.902 18.8626 101.466 18.7048 102.864 18.4479V22.8601H93.4225ZM98.1431 29.1369C96.3842 29.1369 94.8194 29.2946 93.4225 29.5521V25.1394H102.864V29.5521C101.466 29.2946 99.902 29.1369 98.1431 29.1369ZM106.058 17.5982C106.077 17.5911 106.096 17.5835 106.115 17.5764C107.525 17.0686 108.677 16.4657 109.594 15.8694C110.03 15.5865 110.286 15.0884 110.286 14.5603C110.286 13.7056 109.356 13.2064 108.666 13.6877C107.623 14.4168 106.148 15.1973 104.149 15.7529C104.089 15.7697 104.031 15.788 103.97 15.8043C103.693 15.8781 103.405 15.9462 103.109 16.0103C103.019 16.0302 102.926 16.048 102.835 16.0663C102.589 16.1167 102.336 16.1625 102.077 16.2052C101.998 16.2179 101.921 16.2322 101.841 16.2444C101.504 16.2953 101.156 16.3405 100.796 16.3782C100.734 16.3843 100.669 16.3889 100.606 16.395C100.295 16.425 99.974 16.4489 99.6453 16.4677C99.5524 16.4728 99.4596 16.4784 99.3652 16.4825C98.9689 16.5003 98.5642 16.5125 98.1431 16.5125C97.723 16.5125 97.3198 16.5003 96.925 16.4825C96.8262 16.4784 96.7298 16.4728 96.6335 16.4672C96.3171 16.4489 96.0088 16.426 95.7088 16.397C95.6319 16.3899 95.5534 16.3843 95.4779 16.3767C95.1298 16.34 94.7946 16.2963 94.4678 16.2469C94.3601 16.2306 94.2568 16.2123 94.151 16.1945C93.932 16.1579 93.718 16.1187 93.5089 16.077C93.3833 16.0521 93.2572 16.0271 93.135 16.0002C92.923 15.9534 92.7174 15.9035 92.5158 15.8521C92.329 15.8043 92.1483 15.7544 91.97 15.703C90.0601 15.152 88.6399 14.3965 87.6248 13.6898C86.9331 13.2075 86 13.704 86 14.5613C86 15.0889 86.2552 15.586 86.6898 15.8689C87.606 16.4642 88.7561 17.0661 90.1624 17.5733C90.1858 17.582 90.2081 17.5911 90.2324 17.5998C90.514 17.7 90.8085 17.7946 91.1094 17.8872V22.8601H90.0874C89.6326 22.8601 89.2636 23.2381 89.2636 23.7041C89.2636 24.4968 89.8913 25.1394 90.6645 25.1394H91.1094V30.1123C90.8085 30.2049 90.514 30.3 90.2324 30.3997C90.2081 30.4084 90.1858 30.4175 90.1624 30.4267C88.7561 30.9339 87.606 31.5353 86.6898 32.1311C86.2552 32.4135 86 32.9106 86 33.4387C86 34.2955 86.9331 34.792 87.6248 34.3102C88.6399 33.603 90.0601 32.848 91.97 32.2965C92.1483 32.2451 92.329 32.1952 92.5158 32.1474C92.7174 32.096 92.923 32.0461 93.135 31.9993C93.2572 31.9724 93.3833 31.9474 93.5089 31.9225C93.718 31.8808 93.932 31.8416 94.151 31.8055C94.2568 31.7877 94.3601 31.7689 94.4678 31.7526C94.7946 31.7032 95.1298 31.6595 95.4779 31.6233C95.5534 31.6152 95.6319 31.6096 95.7088 31.6025C96.0088 31.574 96.3171 31.5506 96.6335 31.5323C96.7298 31.5272 96.8262 31.5216 96.925 31.517C97.3198 31.4992 97.723 31.487 98.1431 31.487C98.5642 31.487 98.9689 31.4992 99.3652 31.517C99.4596 31.5211 99.5524 31.5267 99.6453 31.5318C99.974 31.5506 100.295 31.5745 100.606 31.6045C100.669 31.6106 100.734 31.6152 100.796 31.6213C101.156 31.659 101.504 31.7042 101.841 31.7556C101.921 31.7678 101.998 31.7816 102.077 31.7948C102.336 31.837 102.589 31.8833 102.835 31.9332C102.926 31.9515 103.019 31.9698 103.109 31.9892C103.405 32.0533 103.693 32.1214 103.97 32.1952C104.031 32.2115 104.089 32.2303 104.149 32.2466C106.148 32.8027 107.623 33.5832 108.666 34.3123C109.356 34.7936 110.286 34.2944 110.286 33.4397C110.286 32.9111 110.03 32.413 109.594 32.1301C108.677 31.5338 107.525 30.9309 106.115 30.4231C106.096 30.416 106.077 30.4084 106.058 30.4018C105.775 30.301 105.479 30.2054 105.176 30.1123V25.1394H106.198C106.653 25.1394 107.022 24.7614 107.022 24.2953C107.022 23.5027 106.395 22.8601 105.621 22.8601H105.176V17.8872C105.479 17.7946 105.775 17.699 106.058 17.5982Z" fill="url(#paint0_linear_6607_46285)"/>
<path fill-rule="evenodd" clip-rule="evenodd" d="M122.196 18.2026H118.246C117.99 18.2026 117.773 18.4277 117.773 18.6941V19.605C117.773 19.8714 117.99 20.0964 118.239 20.0963L119.211 20.1238V28.7594L118.246 28.7731C117.99 28.7731 117.773 28.9981 117.773 29.2645V30.1926C117.773 30.4383 117.957 30.6438 118.209 30.6815L118.228 30.6842H122.214L122.232 30.6815C122.485 30.6438 122.668 30.4383 122.668 30.1926V29.2645C122.668 28.9981 122.452 28.7731 122.199 28.7731L121.23 28.7594V20.1236L122.196 20.0964C122.452 20.0964 122.668 19.8714 122.668 19.605V18.6941C122.668 18.4277 122.452 18.2026 122.196 18.2026Z" fill="white"/>
<mask id="mask0_6607_46285" style="mask-type:luminance" maskUnits="userSpaceOnUse" x="122" y="18" width="12" height="13">
<path d="M122.977 18.1201H133.614V30.7201H122.977V18.1201Z" fill="white"/>
</mask>
<g mask="url(#mask0_6607_46285)">
<path fill-rule="evenodd" clip-rule="evenodd" d="M132.754 27.408C132.653 27.3031 132.515 27.2431 132.374 27.2431C132.246 27.2431 132.127 27.2916 132.037 27.38C131.251 28.0492 130.3 28.4027 129.286 28.4027C127.318 28.4027 125.255 26.9553 125.212 24.5323C125.187 23.3468 125.55 22.321 126.26 21.5662C126.957 20.8257 127.923 20.4177 128.981 20.4177C130.029 20.4177 131.055 20.8151 131.942 21.5619C132.037 21.6472 132.158 21.6942 132.282 21.6942C132.436 21.6942 132.582 21.6229 132.677 21.5073L133.399 20.7056C133.612 20.4835 133.605 20.1284 133.374 19.889C132.179 18.7483 130.652 18.1201 129.073 18.1201C127.408 18.1201 125.799 18.811 124.659 20.0155C123.533 21.2055 122.951 22.7649 122.977 24.5236C123.014 28.4023 126.17 30.7201 129.2 30.7201C130.783 30.7201 132.29 30.0955 133.448 28.9557C133.663 28.7327 133.67 28.3776 133.467 28.1664L132.754 27.408Z" fill="white"/>
</g>
<path fill-rule="evenodd" clip-rule="evenodd" d="M142.816 18.1514H141.808C141.534 18.1514 141.304 18.3795 141.271 18.6821L141.27 18.6955L141.223 23.6849L137.073 23.6695L137.026 18.6955L137.024 18.6821C136.992 18.3795 136.761 18.1514 136.487 18.1514H135.479C135.191 18.1514 134.957 18.4026 134.957 18.7116V30.1586C134.957 30.4728 135.186 30.7188 135.479 30.7188H136.487C136.769 30.7188 136.995 30.4945 137.025 30.1852L137.026 30.1735L137.073 25.7859H141.223L141.27 30.1735L141.271 30.1852C141.301 30.4945 141.527 30.7188 141.808 30.7188H142.816C143.109 30.7188 143.338 30.4728 143.338 30.1586V18.7116C143.338 18.4026 143.104 18.1514 142.816 18.1514Z" fill="white"/>
<mask id="mask1_6607_46285" style="mask-type:luminance" maskUnits="userSpaceOnUse" x="144" y="18" width="6" height="13">
<path d="M144.855 18.2031H149.75V30.6845H144.855V18.2031Z" fill="white"/>
</mask>
<g mask="url(#mask1_6607_46285)">
<path fill-rule="evenodd" clip-rule="evenodd" d="M149.278 20.0969C149.534 20.0969 149.75 19.8719 149.75 19.6055V18.6946C149.75 18.4281 149.534 18.2031 149.278 18.2031H145.328C145.072 18.2031 144.855 18.4281 144.855 18.6946V19.6055C144.855 19.8718 145.072 20.0969 145.321 20.0968L146.293 20.1243V28.7599L145.328 28.7735C145.072 28.7735 144.855 28.9986 144.855 29.265V30.1931C144.855 30.4387 145.039 30.6443 145.292 30.6819L145.31 30.6845H149.296L149.314 30.6819C149.567 30.6443 149.75 30.4387 149.75 30.1931V29.265C149.75 28.9986 149.534 28.7735 149.281 28.7735L148.312 28.7599V20.1241L149.278 20.0969Z" fill="white"/>
</g>
<defs>
<linearGradient id="paint0_linear_6607_46285" x1="1300.29" y1="13.5" x2="1300.29" y2="2113.5" gradientUnits="userSpaceOnUse">
<stop stop-color="#006EF5"/>
<stop offset="1" stop-color="#0062DB"/>
</linearGradient>
</defs>
</svg>
