<?xml version="1.0" encoding="utf-8"?>
<!-- Generator: Adobe Illustrator 26.0.0, SVG Export Plug-In . SVG Version: 6.00 Build 0)  -->
<svg version="1.1" id="Layer_1" xmlns="http://www.w3.org/2000/svg" xmlns:xlink="http://www.w3.org/1999/xlink" x="0px" y="0px"
	 viewBox="0 0 577.1 66.2" style="enable-background:new 0 0 577.1 66.2;" xml:space="preserve">
<style type="text/css">
	.st0{opacity:0.4;fill:#292D32;enable-background:new    ;}
</style>
<path class="st0" d="M0,0v17.1l43,41.7c3.6,3.5,8.4,5.4,13.4,5.4h120.4c5,0,9.9-1.9,13.4-5.4L201,48.3c3.9-3.8,9.3-6,14.8-6h149.4
	c5.6,0,10.9,2.1,14.9,6l10.8,10.5c3.6,3.5,8.4,5.4,13.4,5.4h141.4c4.8,0,9.3-1.7,12.8-4.9l12.3-10.9c3.9-3.5,6.2-8.4,6.2-13.6V17.1
	h0.1V0H0z"/>
</svg>
