<svg width="366" height="143" viewBox="0 0 366 143" fill="none" xmlns="http://www.w3.org/2000/svg">
<g filter="url(#filter0_b_1164_3036)">
<rect width="366" height="143" rx="10" fill="#292D32" fill-opacity="0.35"/>
<rect x="1" y="1" width="364" height="141" rx="9" stroke="url(#paint0_linear_1164_3036)" stroke-width="2"/>
<path d="M131.722 34.242L128.894 44H127.466L125.198 36.146L122.846 44L121.432 44.014L118.702 34.242H120.06L122.188 42.516L124.54 34.242H125.968L128.208 42.488L130.35 34.242H131.722ZM136.924 36.188C137.503 36.188 138.025 36.314 138.492 36.566C138.959 36.8087 139.323 37.1773 139.584 37.672C139.855 38.1667 139.99 38.7687 139.99 39.478V44H138.73V39.66C138.73 38.8947 138.539 38.3113 138.156 37.91C137.773 37.4993 137.251 37.294 136.588 37.294C135.916 37.294 135.379 37.504 134.978 37.924C134.586 38.344 134.39 38.9553 134.39 39.758V44H133.116V33.64H134.39V37.42C134.642 37.028 134.987 36.7247 135.426 36.51C135.874 36.2953 136.373 36.188 136.924 36.188ZM145.417 44.126C144.698 44.126 144.045 43.9627 143.457 43.636C142.878 43.3093 142.421 42.8473 142.085 42.25C141.758 41.6433 141.595 40.9433 141.595 40.15C141.595 39.366 141.763 38.6753 142.099 38.078C142.444 37.4713 142.911 37.0093 143.499 36.692C144.087 36.3653 144.745 36.202 145.473 36.202C146.201 36.202 146.859 36.3653 147.447 36.692C148.035 37.0093 148.497 37.4667 148.833 38.064C149.178 38.6613 149.351 39.3567 149.351 40.15C149.351 40.9433 149.174 41.6433 148.819 42.25C148.474 42.8473 148.002 43.3093 147.405 43.636C146.808 43.9627 146.145 44.126 145.417 44.126ZM145.417 43.006C145.874 43.006 146.304 42.8987 146.705 42.684C147.106 42.4693 147.428 42.1473 147.671 41.718C147.923 41.2887 148.049 40.766 148.049 40.15C148.049 39.534 147.928 39.0113 147.685 38.582C147.442 38.1527 147.125 37.8353 146.733 37.63C146.341 37.4153 145.916 37.308 145.459 37.308C144.992 37.308 144.563 37.4153 144.171 37.63C143.788 37.8353 143.48 38.1527 143.247 38.582C143.014 39.0113 142.897 39.534 142.897 40.15C142.897 40.7753 143.009 41.3027 143.233 41.732C143.466 42.1613 143.774 42.4833 144.157 42.698C144.54 42.9033 144.96 43.006 145.417 43.006ZM157.853 44.098C157.209 44.098 156.63 43.986 156.117 43.762C155.613 43.5287 155.216 43.2113 154.927 42.81C154.637 42.3993 154.488 41.928 154.479 41.396H155.837C155.883 41.8533 156.07 42.2407 156.397 42.558C156.733 42.866 157.218 43.02 157.853 43.02C158.459 43.02 158.935 42.8707 159.281 42.572C159.635 42.264 159.813 41.872 159.813 41.396C159.813 41.0227 159.71 40.7193 159.505 40.486C159.299 40.2527 159.043 40.0753 158.735 39.954C158.427 39.8327 158.011 39.702 157.489 39.562C156.845 39.394 156.327 39.226 155.935 39.058C155.552 38.89 155.221 38.6287 154.941 38.274C154.67 37.91 154.535 37.4247 154.535 36.818C154.535 36.286 154.67 35.8147 154.941 35.404C155.211 34.9933 155.589 34.676 156.075 34.452C156.569 34.228 157.134 34.116 157.769 34.116C158.683 34.116 159.43 34.3447 160.009 34.802C160.597 35.2593 160.928 35.866 161.003 36.622H159.603C159.556 36.2487 159.36 35.922 159.015 35.642C158.669 35.3527 158.212 35.208 157.643 35.208C157.111 35.208 156.677 35.348 156.341 35.628C156.005 35.8987 155.837 36.2813 155.837 36.776C155.837 37.1307 155.935 37.42 156.131 37.644C156.336 37.868 156.583 38.0407 156.873 38.162C157.171 38.274 157.587 38.4047 158.119 38.554C158.763 38.7313 159.281 38.9087 159.673 39.086C160.065 39.254 160.401 39.52 160.681 39.884C160.961 40.2387 161.101 40.724 161.101 41.34C161.101 41.816 160.975 42.264 160.723 42.684C160.471 43.104 160.097 43.4447 159.603 43.706C159.108 43.9673 158.525 44.098 157.853 44.098ZM169.779 36.328V44H168.505V42.866C168.263 43.258 167.922 43.566 167.483 43.79C167.054 44.0047 166.578 44.112 166.055 44.112C165.458 44.112 164.921 43.9907 164.445 43.748C163.969 43.496 163.591 43.1227 163.311 42.628C163.041 42.1333 162.905 41.5313 162.905 40.822V36.328H164.165V40.654C164.165 41.41 164.357 41.9933 164.739 42.404C165.122 42.8053 165.645 43.006 166.307 43.006C166.989 43.006 167.525 42.796 167.917 42.376C168.309 41.956 168.505 41.3447 168.505 40.542V36.328H169.779ZM173.205 37.742C173.457 37.3033 173.83 36.9393 174.325 36.65C174.829 36.3513 175.412 36.202 176.075 36.202C176.756 36.202 177.372 36.3653 177.923 36.692C178.483 37.0187 178.921 37.4807 179.239 38.078C179.556 38.666 179.715 39.352 179.715 40.136C179.715 40.9107 179.556 41.6013 179.239 42.208C178.921 42.8147 178.483 43.286 177.923 43.622C177.372 43.958 176.756 44.126 176.075 44.126C175.421 44.126 174.843 43.9813 174.339 43.692C173.844 43.3933 173.466 43.0247 173.205 42.586V47.64H171.931V36.328H173.205V37.742ZM178.413 40.136C178.413 39.5573 178.296 39.0533 178.063 38.624C177.829 38.1947 177.512 37.868 177.111 37.644C176.719 37.42 176.285 37.308 175.809 37.308C175.342 37.308 174.908 37.4247 174.507 37.658C174.115 37.882 173.797 38.2133 173.555 38.652C173.321 39.0813 173.205 39.5807 173.205 40.15C173.205 40.7287 173.321 41.2373 173.555 41.676C173.797 42.1053 174.115 42.4367 174.507 42.67C174.908 42.894 175.342 43.006 175.809 43.006C176.285 43.006 176.719 42.894 177.111 42.67C177.512 42.4367 177.829 42.1053 178.063 41.676C178.296 41.2373 178.413 40.724 178.413 40.136ZM182.665 37.742C182.917 37.3033 183.291 36.9393 183.785 36.65C184.289 36.3513 184.873 36.202 185.535 36.202C186.217 36.202 186.833 36.3653 187.383 36.692C187.943 37.0187 188.382 37.4807 188.699 38.078C189.017 38.666 189.175 39.352 189.175 40.136C189.175 40.9107 189.017 41.6013 188.699 42.208C188.382 42.8147 187.943 43.286 187.383 43.622C186.833 43.958 186.217 44.126 185.535 44.126C184.882 44.126 184.303 43.9813 183.799 43.692C183.305 43.3933 182.927 43.0247 182.665 42.586V47.64H181.391V36.328H182.665V37.742ZM187.873 40.136C187.873 39.5573 187.757 39.0533 187.523 38.624C187.29 38.1947 186.973 37.868 186.571 37.644C186.179 37.42 185.745 37.308 185.269 37.308C184.803 37.308 184.369 37.4247 183.967 37.658C183.575 37.882 183.258 38.2133 183.015 38.652C182.782 39.0813 182.665 39.5807 182.665 40.15C182.665 40.7287 182.782 41.2373 183.015 41.676C183.258 42.1053 183.575 42.4367 183.967 42.67C184.369 42.894 184.803 43.006 185.269 43.006C185.745 43.006 186.179 42.894 186.571 42.67C186.973 42.4367 187.29 42.1053 187.523 41.676C187.757 41.2373 187.873 40.724 187.873 40.136ZM194.198 44.126C193.48 44.126 192.826 43.9627 192.238 43.636C191.66 43.3093 191.202 42.8473 190.866 42.25C190.54 41.6433 190.376 40.9433 190.376 40.15C190.376 39.366 190.544 38.6753 190.88 38.078C191.226 37.4713 191.692 37.0093 192.28 36.692C192.868 36.3653 193.526 36.202 194.254 36.202C194.982 36.202 195.64 36.3653 196.228 36.692C196.816 37.0093 197.278 37.4667 197.614 38.064C197.96 38.6613 198.132 39.3567 198.132 40.15C198.132 40.9433 197.955 41.6433 197.6 42.25C197.255 42.8473 196.784 43.3093 196.186 43.636C195.589 43.9627 194.926 44.126 194.198 44.126ZM194.198 43.006C194.656 43.006 195.085 42.8987 195.486 42.684C195.888 42.4693 196.21 42.1473 196.452 41.718C196.704 41.2887 196.83 40.766 196.83 40.15C196.83 39.534 196.709 39.0113 196.466 38.582C196.224 38.1527 195.906 37.8353 195.514 37.63C195.122 37.4153 194.698 37.308 194.24 37.308C193.774 37.308 193.344 37.4153 192.952 37.63C192.57 37.8353 192.262 38.1527 192.028 38.582C191.795 39.0113 191.678 39.534 191.678 40.15C191.678 40.7753 191.79 41.3027 192.014 41.732C192.248 42.1613 192.556 42.4833 192.938 42.698C193.321 42.9033 193.741 43.006 194.198 43.006ZM201.081 37.574C201.305 37.1353 201.623 36.7947 202.033 36.552C202.453 36.3093 202.962 36.188 203.559 36.188V37.504H203.223C201.795 37.504 201.081 38.2787 201.081 39.828V44H199.807V36.328H201.081V37.574ZM206.584 37.378V41.9C206.584 42.2733 206.663 42.5393 206.822 42.698C206.981 42.8473 207.256 42.922 207.648 42.922H208.586V44H207.438C206.729 44 206.197 43.8367 205.842 43.51C205.487 43.1833 205.31 42.6467 205.31 41.9V37.378H204.316V36.328H205.31V34.396H206.584V36.328H208.586V37.378H206.584ZM219.378 34.242V35.278H215.136V38.568H218.58V39.604H215.136V44H213.862V34.242H219.378ZM227.917 39.87C227.917 40.1127 227.903 40.3693 227.875 40.64H221.743C221.79 41.396 222.046 41.9887 222.513 42.418C222.989 42.838 223.563 43.048 224.235 43.048C224.786 43.048 225.243 42.922 225.607 42.67C225.98 42.4087 226.242 42.0633 226.391 41.634H227.763C227.558 42.3713 227.147 42.9733 226.531 43.44C225.915 43.8973 225.15 44.126 224.235 44.126C223.507 44.126 222.854 43.9627 222.275 43.636C221.706 43.3093 221.258 42.8473 220.931 42.25C220.604 41.6433 220.441 40.9433 220.441 40.15C220.441 39.3567 220.6 38.6613 220.917 38.064C221.234 37.4667 221.678 37.0093 222.247 36.692C222.826 36.3653 223.488 36.202 224.235 36.202C224.963 36.202 225.607 36.3607 226.167 36.678C226.727 36.9953 227.156 37.434 227.455 37.994C227.763 38.5447 227.917 39.17 227.917 39.87ZM226.601 39.604C226.601 39.1187 226.494 38.7033 226.279 38.358C226.064 38.0033 225.77 37.7373 225.397 37.56C225.033 37.3733 224.627 37.28 224.179 37.28C223.535 37.28 222.984 37.4853 222.527 37.896C222.079 38.3067 221.822 38.876 221.757 39.604H226.601ZM233.337 36.188C234.27 36.188 235.026 36.4727 235.605 37.042C236.183 37.602 236.473 38.414 236.473 39.478V44H235.213V39.66C235.213 38.8947 235.021 38.3113 234.639 37.91C234.256 37.4993 233.733 37.294 233.071 37.294C232.399 37.294 231.862 37.504 231.461 37.924C231.069 38.344 230.873 38.9553 230.873 39.758V44H229.599V36.328H230.873V37.42C231.125 37.028 231.465 36.7247 231.895 36.51C232.333 36.2953 232.814 36.188 233.337 36.188ZM239.212 35.082C238.969 35.082 238.764 34.998 238.596 34.83C238.428 34.662 238.344 34.4567 238.344 34.214C238.344 33.9713 238.428 33.766 238.596 33.598C238.764 33.43 238.969 33.346 239.212 33.346C239.445 33.346 239.641 33.43 239.8 33.598C239.968 33.766 240.052 33.9713 240.052 34.214C240.052 34.4567 239.968 34.662 239.8 34.83C239.641 34.998 239.445 35.082 239.212 35.082ZM239.828 36.328V44H238.554V36.328H239.828ZM246.003 44L244.183 41.144L242.433 44H241.103L243.581 40.192L241.103 36.328H242.545L244.365 39.17L246.101 36.328H247.431L244.967 40.122L247.445 44H246.003Z" fill="white"/>
<path d="M88.2 68H104.2L107.88 71.68V80.68L104.16 84.4H91.24V96H88.2V68ZM102.88 81.76L104.88 79.8V72.6L102.88 70.64H91.24V81.76H102.88ZM117.635 68H120.915L130.875 96H127.715L125.115 88.44H113.435L110.835 96H107.675L117.635 68ZM124.235 85.8L119.315 71.52H119.235L114.355 85.8H124.235ZM154.72 87.44V96H151.68V88.28L147.84 84.24H137.92V96H134.88V68H150.88L154.56 71.68V80.52L151.32 83.76L154.72 87.44ZM137.92 81.6H149.56L151.56 79.64V72.6L149.56 70.64H137.92V81.6ZM166.828 70.68H158.348V68H178.348V70.68H169.868V96H166.828V70.68ZM182.731 68H185.691L200.291 91.04H200.371V68H203.251V96H200.291L185.691 72.96H185.611V96H182.731V68ZM209.645 68H227.725V70.72H212.685V80.56H226.565V83.28H212.685V93.28H227.725V96H209.645V68ZM252.767 87.44V96H249.727V88.28L245.887 84.24H235.967V96H232.927V68H248.927L252.607 71.68V80.52L249.367 83.76L252.767 87.44ZM235.967 81.6H247.607L249.607 79.64V72.6L247.607 70.64H235.967V81.6ZM258.381 92.32V89.76H261.381V91.32L263.301 93.28H272.901L274.901 91.24V84.96L272.901 83H262.141L258.461 79.32V71.68L262.141 68H273.901L277.581 71.68V74.28H274.621V72.68L272.621 70.72H263.461L261.461 72.68V78.32L263.461 80.28H274.221L277.901 83.96V92.24L274.141 96H262.061L258.381 92.32Z" fill="url(#paint1_linear_1164_3036)"/>
</g>
<defs>
<filter id="filter0_b_1164_3036" x="-76.7" y="-76.7" width="519.4" height="296.4" filterUnits="userSpaceOnUse" color-interpolation-filters="sRGB">
<feFlood flood-opacity="0" result="BackgroundImageFix"/>
<feGaussianBlur in="BackgroundImageFix" stdDeviation="38.35"/>
<feComposite in2="SourceAlpha" operator="in" result="effect1_backgroundBlur_1164_3036"/>
<feBlend mode="normal" in="SourceGraphic" in2="effect1_backgroundBlur_1164_3036" result="shape"/>
</filter>
<linearGradient id="paint0_linear_1164_3036" x1="215.783" y1="-254.82" x2="213.647" y2="118.272" gradientUnits="userSpaceOnUse">
<stop stop-color="white"/>
<stop offset="1" stop-color="white" stop-opacity="0"/>
</linearGradient>
<linearGradient id="paint1_linear_1164_3036" x1="291.709" y1="73.4666" x2="-14.9785" y2="75.0053" gradientUnits="userSpaceOnUse">
<stop stop-color="#FE5E35"/>
<stop offset="0.55" stop-color="#F67702"/>
<stop offset="1" stop-color="#FFEF76"/>
</linearGradient>
</defs>
</svg>
