<svg width="51" height="52" viewBox="0 0 51 52" fill="none" xmlns="http://www.w3.org/2000/svg">
<path d="M31.9904 8.16341C39.7367 2.93743 46.1858 0.528282 48.5579 2.93743C52.2642 6.6438 44.7032 19.8385 32.1016 32.5884C19.4999 45.3384 6.15693 52.7511 2.45055 49.0447C0.0154632 46.6096 2.37642 39.9456 7.97676 32.0251" stroke="url(#paint0_linear_5842_37198)" stroke-width="3" stroke-linecap="round" stroke-linejoin="round"/>
<path d="M19.7968 43.5373C21.6645 44.1419 23.6156 44.4496 25.5788 44.449C28.5268 44.451 31.4327 43.7496 34.0552 42.4032C36.6778 41.0567 38.9412 39.1041 40.6577 36.7073C42.3742 34.3106 43.4941 31.5389 43.9244 28.6225C44.3548 25.7061 44.0832 22.7291 43.1322 19.9388M10.7533 37.0363C8.07673 33.4676 6.77729 29.0531 7.09352 24.6034C7.40975 20.1538 9.32043 15.9675 12.4748 12.8131C15.6291 9.6588 19.8154 7.74813 24.2651 7.4319C28.7148 7.11567 33.1292 8.41511 36.6979 11.0917" stroke="url(#paint1_linear_5842_37198)" stroke-width="3" stroke-linecap="round" stroke-linejoin="round"/>
<path fill-rule="evenodd" clip-rule="evenodd" d="M31.5705 22.1137C34.088 20.6099 33.8561 19 33.8561 19C32.9154 20.3912 26.0519 23.7103 26.0519 23.7103L25.3828 25.6845C25.384 25.6824 25.5656 25.5795 25.8749 25.4043C26.9601 24.7893 29.6179 23.2832 31.5705 22.1137ZM23.2693 25.7241C23.2693 25.7241 19.5991 23.6638 17.0816 22.1599C14.6948 20.724 14.7865 19.2043 14.7956 19.052V19.052V19.052V19.052V19.052C14.7961 19.0441 14.7964 19.0399 14.796 19.0396C15.7368 20.4308 22.5936 23.7499 22.5936 23.7499L23.2693 25.7241ZM25.3754 26.3802L29.8605 23.664C29.8605 23.664 35.2399 20.4377 35.6374 19.1855C35.6374 19.1855 35.5513 21.6566 33.5307 23.0413C31.5101 24.4259 26.2234 27.3872 26.2234 27.3872L24.3419 32.2897V32.4487L24.3088 32.3692L24.2955 32.4023V32.3294L22.414 27.427C22.414 27.427 17.1207 24.4722 15.1067 23.081C13.0927 21.6898 13 19.2253 13 19.2253C13.4041 20.484 18.7836 23.7104 18.7836 23.7104L23.2686 26.4266L24.3154 29.0037L25.3754 26.3802ZM24.3019 21.2725L25.6468 23.7502L24.3019 28.275L22.957 23.7502L24.3019 21.2725ZM22.332 28.096L16.9923 24.916C16.9923 24.916 16.9061 28.1424 22.332 28.096ZM26.2773 28.096C31.7032 28.1424 31.617 24.916 31.617 24.916L26.2773 28.096Z" fill="url(#paint2_linear_5842_37198)"/>
<defs>
<linearGradient id="paint0_linear_5842_37198" x1="6.50304" y1="29.75" x2="77.7731" y2="29.8448" gradientUnits="userSpaceOnUse">
<stop stop-color="#FE5E35"/>
<stop offset="0.55" stop-color="#F67702"/>
<stop offset="1" stop-color="#FFEF76"/>
</linearGradient>
<linearGradient id="paint1_linear_5842_37198" x1="10.9139" y1="28.8127" x2="65.9574" y2="28.886" gradientUnits="userSpaceOnUse">
<stop stop-color="#FE5E35"/>
<stop offset="0.55" stop-color="#F67702"/>
<stop offset="1" stop-color="#FFEF76"/>
</linearGradient>
<linearGradient id="paint2_linear_5842_37198" x1="15.361" y1="26.7749" x2="48.9686" y2="26.8502" gradientUnits="userSpaceOnUse">
<stop stop-color="#FE5E35"/>
<stop offset="0.55" stop-color="#F67702"/>
<stop offset="1" stop-color="#FFEF76"/>
</linearGradient>
</defs>
</svg>
