<svg width="24" height="24" viewBox="0 0 24 24" fill="none" xmlns="http://www.w3.org/2000/svg">
<circle cx="12" cy="12" r="12" fill="url(#paint0_linear_6910_43773)"/>
<path d="M12.0039 19.5024C7.86166 19.5024 4.50391 16.1447 4.50391 12.0024C4.50391 7.86019 7.86166 4.50244 12.0039 4.50244C16.1462 4.50244 19.5039 7.86019 19.5039 12.0024C19.5039 16.1447 16.1462 19.5024 12.0039 19.5024ZM12.0039 18.0024C13.5952 18.0024 15.1213 17.3703 16.2465 16.2451C17.3718 15.1199 18.0039 13.5937 18.0039 12.0024C18.0039 10.4111 17.3718 8.88502 16.2465 7.7598C15.1213 6.63458 13.5952 6.00244 12.0039 6.00244C10.4126 6.00244 8.88648 6.63458 7.76127 7.7598C6.63605 8.88502 6.00391 10.4111 6.00391 12.0024C6.00391 13.5937 6.63605 15.1199 7.76127 16.2451C8.88648 17.3703 10.4126 18.0024 12.0039 18.0024ZM12.0039 8.28994L15.7164 12.0024L12.0039 15.7149L8.29141 12.0024L12.0039 8.28994ZM12.0039 10.4109L10.4132 12.0024L12.0032 13.5932L13.5947 12.0024L12.0039 10.4109Z" fill="white"/>
<defs>
<linearGradient id="paint0_linear_6910_43773" x1="2.50316" y1="13.875" x2="38.1338" y2="13.9224" gradientUnits="userSpaceOnUse">
<stop stop-color="#FE5E35"/>
<stop offset="0.55" stop-color="#F67702"/>
<stop offset="1" stop-color="#FFEF76"/>
</linearGradient>
</defs>
</svg>
