<svg width="20" height="20" viewBox="0 0 20 20" fill="inherit" xmlns="http://www.w3.org/2000/svg"><path d="M4.04537 14.5833C4.72134 15.5235 5.58842 16.3103 6.58975 16.8919C7.59108 17.4735 8.70405 17.8369 9.85568 17.9583C9.26318 17.0667 8.40195 16.2464 7.32677 15.6219C6.25159 14.9974 5.11296 14.6563 4.04537 14.5833Z" fill="inherit"></path><path d="M8.77152 13.1353C6.70007 11.9318 4.45806 11.6251 2.85383 12.1669C3.0087 12.6788 3.21295 13.1743 3.46369 13.6467C4.85749 13.6144 6.37928 13.993 7.79532 14.8154C9.21136 15.6379 10.2944 16.773 10.9571 18C11.492 17.9836 12.0239 17.9155 12.5456 17.7966C12.2213 16.1349 10.8424 14.339 8.77152 13.1353Z" fill="inherit"></path><path d="M18.6426 8.25045C18.3793 7.1792 17.9027 6.17201 17.2415 5.28902C16.5802 4.40603 15.7478 3.66534 14.794 3.11118C13.8401 2.55702 12.7844 2.20075 11.6898 2.06365C10.5952 1.92656 9.48419 2.01144 8.42313 2.31323C10.1958 2.53017 12.1633 3.19561 14.093 4.31662C16.0226 5.43763 17.5767 6.81706 18.6426 8.25045Z" fill="inherit"></path><path d="M16.0635 12.1792C15.1562 10.6723 13.6019 9.22941 11.6872 8.11708C9.77246 7.00475 7.74955 6.3694 5.99266 6.32737C4.447 6.29076 3.28694 6.74009 2.81077 7.55983C2.80806 7.56471 2.80427 7.56932 2.80128 7.5742C2.75844 7.72795 2.72156 7.88197 2.68794 8.03654C3.35284 7.77405 4.12322 7.62789 4.97984 7.61162C6.8848 7.57583 9.01671 8.18514 10.984 9.32811C12.9514 10.4711 14.538 12.0219 15.4502 13.6939C15.8591 14.4472 16.1143 15.1889 16.2154 15.8974C16.3331 15.7922 16.4486 15.6835 16.5606 15.5704C16.5636 15.5652 16.5655 15.5598 16.5685 15.5544C17.0446 14.7338 16.8605 13.5038 16.0635 12.1792Z" fill="inherit"></path><path d="M10.2304 10.6243C7.29831 8.92079 4.05813 8.65396 2.5 9.84276C2.50306 10.2149 2.53151 10.5863 2.58515 10.9545C3.04349 10.8156 3.51588 10.7281 3.99359 10.6937C5.73476 10.5627 7.65435 11.0478 9.39633 12.0604C11.1383 13.0729 12.5115 14.5009 13.2605 16.0772C13.4675 16.509 13.6254 16.9627 13.7312 17.4298C14.0778 17.2939 14.4147 17.1347 14.7397 16.9533C15.0006 15.0107 13.1634 12.328 10.2304 10.6243Z" fill="inherit"></path><path d="M17.5717 9.65705C16.6541 8.15179 15.0862 6.70484 13.1579 5.58519C11.2296 4.46554 9.19887 3.82016 7.43629 3.76837C6.09265 3.72959 5.05191 4.05527 4.51228 4.67055C6.75294 4.29091 9.7084 4.92897 12.573 6.59312C15.4376 8.25728 17.4567 10.5091 18.2361 12.6434C18.5032 11.8703 18.2708 10.8049 17.5717 9.65705Z" fill="inherit"></path></svg>