<?xml version="1.0" encoding="utf-8"?>
<!-- Generator: Adobe Illustrator 26.0.0, SVG Export Plug-In . SVG Version: 6.00 Build 0)  -->
<svg version="1.1" id="Capa_1" xmlns="http://www.w3.org/2000/svg" xmlns:xlink="http://www.w3.org/1999/xlink" x="0px" y="0px"
	 viewBox="0 0 32 32" style="enable-background:new 0 0 32 32;" xml:space="preserve">
<style type="text/css">
	.st0{fill:#0037FF;}
	.st1{fill:#FFFFFF;}
</style>
<g>
	<circle class="st0" cx="16" cy="16" r="15.7"/>
	<path class="st1" d="M14.8,15.5c1,0.8,1.4,1,2.3,0.2c1.5-1.3,3.2-2.4,4.7-3.7c0.4-0.3,0.7-0.5,1.1,0c0,2.3,0,4.7,0,7
		c0,1.2-2.2,2.9-3.5,2.9c0-1.5,0.1-3.4,0.1-4.8C19.3,17,19,17.4,19,17.4c-2.1,1.9-4.3,2.7-6.5-0.6c-0.1,0.3,0.1,0.4,0,0.7
		c0,1.3,0,2.6,0,3.9c0,0.8-0.1,0.5-1,0.4c-0.6-0.1-1.9-0.7-2-1.4c-0.1-2.6-0.3-5.4-0.4-8.2c0-0.9,0.5-0.5,1-0.2
		C11.6,13.2,13.2,14.3,14.8,15.5z"/>
	<path class="st1" d="M19.6,11.4c-0.4,1.9-2.3,3.5-4.2,3.2c-1.1-0.5-2.8-1.4-2.7-3.4c0.1-1.2,0.6-1.5,1.4-0.7
		c1.3,1.3,2.5,1.6,3.9,0.1C19,9.5,19.6,10.2,19.6,11.4z"/>
</g>
</svg>
