<?xml version="1.0" encoding="UTF-8"?>
<svg version="1.1" viewBox="0 0 1304 1616" width="1280" height="1280" xmlns="http://www.w3.org/2000/svg">
<path transform="translate(649)" d="m0 0 5 1 15 8 24 14 14 8 24 14 25 14 10 6 26 15 24 14 23 13 24 14 26 15 28 16 24 14 28 16 24 14 28 16 24 14 49 28 17 10 26 15 14 8 24 14 25 14 10 6 26 15 19 11 24 14 23 13 2 2v752l-52 30-24 14-26 15-28 16-24 14-52 30-28 16-24 14-26 15-24 14-23 13-17 10-182 105-24 14-28 16-26 15-24 14-18 10-4 1-25-14-19-11-24-14-104-60-24-14-23-13-24-14-28-16-24-14-26-15-7-5 1 33 1 199v70l-4-2-24-14-25-14-24-14-21-12-24-14-28-16-24-14-104-60-24-14-22-13v-1053l11-7 26-15 24-14 21-12 24-14 28-16 26-15 21-12 17-10 21-12 26-15 24-14 21-12 24-14 28-16 26-15 24-14 23-13 17-10 24-14 28-16 26-15 24-14 26-15 14-8 24-14 25-14 25-15z" fill="#FCFCFC"/>
<path transform="translate(0,755)" d="m0 0 5 2 21 12 25 15 58 34 25 15 24 14 29 17 22 13 27 16 29 17 49 29 6 4 1 24 1 196 1 151v33l1 199v70l-4-2-24-14-25-14-24-14-21-12-24-14-28-16-24-14-104-60-24-14-22-13z"/>
<path transform="translate(1302,755)" d="m0 0 2 1v372l-52 30-24 14-26 15-28 16-24 14-52 30-28 16-24 14-26 15-24 14-14 8h-3v-63l1-88 2-208 1-13 26-15 49-29 53-31 27-16 24-14 22-13 29-17 15-9 58-34 13-8z" fill="#000001"/>
<path transform="translate(649)" d="m0 0 5 1 15 8 24 14 14 8 24 14 25 14 10 6 26 15 24 14 23 13 24 14 26 15 28 16 24 14 28 16 5 3-2 4-26 15-28 16-41 23-14 8-23 13-28 16-25 14-14 8-23 13-25 14-21 12-27 15-22 13-4 1-8-4-23-13-25-14-24-14-14-8-11-6-27-15-24-14-27-15-16-9-23-13-25-14-24-14-11-6-17-10-12-6-11-7 2-4 18-10 24-14 26-15 21-12 24-14 21-12 71-41 24-14 14-8 24-14 25-14 25-15z" fill="#7050F6"/>
<path transform="translate(321,190)" d="m0 0 3 1v39l-1 104-1 67-1 159-5 4-30 18-100 59-24 14-66 39-39 23-48 28-7 4h-2v-373l11-7 26-15 24-14 21-12 24-14 28-16 26-15 21-12 17-10 21-12 26-15 24-14 21-12 24-14z" fill="#B958FA"/>
<path transform="translate(649,1135)" d="m0 0h5l35 20 46 26 24 14 24 13 21 12 23 13 24 14 22 12 49 28 27 15 24 14v3l-17 10-182 105-24 14-28 16-26 15-24 14-18 10-4 1-25-14-19-11-24-14-104-60-24-14-23-13-24-14-28-16-24-14-26-15-1-2 24-14 25-14 23-13 25-14 21-12 23-13 25-14 23-13 21-12 46-26 25-14 26-15z"/>
<path transform="translate(979,189)" d="m0 0 5 2 25 14 24 14 52 30 14 8 24 14 23 13 17 10 28 16 45 26 19 11 24 14 23 13 2 2v56h-1v146l-1 171-6-2-11-7-27-16-29-17-73-43-25-15-24-14-29-17-49-29-29-17-17-10-1-8-3-343z"/>
</svg>
