<?xml version="1.0" encoding="UTF-8"?>
<svg version="1.1" viewBox="0 0 1820 1876" width="1280" height="1280" xmlns="http://www.w3.org/2000/svg">
<path transform="translate(1278,310)" d="m0 0h3v23l-8 376v14l19 10 40 20 17 9 16 8 15 8 130 65 19 10 16 8 17 9 106 53 3 3-7 4-23 13-49 28-25 14-49 28-27 15-42 24-25 14-24 14-29 16-21 12-23 13-24 14-19 10-1 10-2 377v47l-4 1-13-8-25-14-24-14-27-15-24-14-25-14-24-14-18-10-77-44-23-13-21-12-26-15-46-26-5 1-26 15-15 9-53 31-44 26-29 17-27 16-26 15-20 12-29 17-70 41-22 13-19 11h-2l3-63 15-276 5-93v-14l-23-13-26-14-23-13-17-9-23-13-17-9-23-13-17-9-23-13-17-9-23-13-17-9-23-13-19-10-23-13-17-9-23-13-7-4 3-3 28-16 26-15 25-14 24-14 22-12 42-24 23-13 21-12 69-39 21-12 23-13 25-14 17-10 1-84 1-229 1-103 6 2 25 14 24 14 25 14 23 13 17 10 18 10 42 24 26 15 23 13 84 48 23 13 24 14 3 1 27-16 22-13 24-14 27-16 70-41 22-13 114-67 48-28z" fill="#BA59F9"/>
<path transform="translate(1238,744)" d="m0 0h6l19 10 88 44 19 10 26 13 19 10 102 51 19 10 28 14 38 20v3l-22 12-24 14-27 15-17 10-27 15-24 14-27 15-23 13-21 12-25 14-49 28-25 14-24 14-14 8-1 1-1 191-1 130-1 77-4-1-16-9-49-28-23-13-24-14-25-14-77-44-23-13-26-15-23-13-56-32-5 2-23 13-20 12-80 47-126 74-90 53-6 3-1-1 1-25 7-134 5-90 5-96 3-51 2-9 13-8 14-8 24-14 28-16 26-15 24-14 26-15 21-12 24-14 23-13 17-10 21-12 24-14 45-26 24-14 16-9 24-14 21-12 24-14 21-12 24-14 23-13 17-10 21-12 24-14 28-16 43-25 22-13z" fill="#FCFCFC"/>
<path transform="translate(1273,725)" d="m0 0 5 1 54 27 17 9 16 8 15 8 130 65 19 10 16 8 17 9 106 53 3 3-7 4-23 13-49 28-25 14-49 28-27 15-42 24-25 14-24 14-29 16-21 12-23 13-24 14-19 10-1 10-2 377v47l-4 1-13-8-25-14-24-14-27-15-24-14-25-14-24-14-18-10-77-44-23-13-21-12-26-15-46-26-5 1-26 15-15 9-53 31-44 26-29 17-27 16-26 15-20 12-29 17-70 41-22 13-19 11h-2l3-63 15-276 5-93 1-10 4-4 16-9 9-5 4 2-4 76-7 127-6 114-4 75v8l11-6 14-8 49-29 41-24 27-16 41-24 27-16 26-15 25-15 26-15 27-16 29-17 5-3 6 2 17 10 25 14 24 14 18 10 77 44 23 13 26 15 23 13 24 14 27 15 24 14 34 19v-77l1-130 1-191 9-6 28-16 23-13 28-16 25-14 21-12 23-13 21-12 25-14 21-12 46-26 49-28 23-13 9-5-3-3-34-17-19-10-20-10-19-10-110-55-19-10-22-11-19-10-92-46-2-4 21-12z" fill="#535153"/>
</svg>
