<?xml version="1.0" encoding="utf-8"?>
<!-- Generator: Adobe Illustrator 26.0.0, SVG Export Plug-In . SVG Version: 6.00 Build 0)  -->
<svg version="1.1" id="Capa_1" xmlns="http://www.w3.org/2000/svg" xmlns:xlink="http://www.w3.org/1999/xlink" x="0px" y="0px"
	 viewBox="0 0 32 32" style="enable-background:new 0 0 32 32;" xml:space="preserve">
<style type="text/css">
	.st0{fill:#3204A3;}
	.st1{fill:#F9F9F9;}
	.st2{fill:#FE4F0A;}
	.st3{fill:#F7F7F8;}
	.st4{fill:#F3F3F5;}
</style>
<g>
	<circle class="st0" cx="16" cy="16" r="15.7"/>
	<path class="st1" d="M3.7,15.4c-0.6-3.1,3-5.5,5.6-5.8c2.6-0.3,4.9,0.7,6.9,2.2c1.4,1,2.7,2.1,4,3.2c2,1.6,4.1,2.1,6.4,0.8
		c0.4-0.3,1-0.7,1.4-0.3c0.5,0.4,0.3,1.1,0.1,1.6c-0.4,0.8-0.8,1.5-1.2,2.2c-2.5,3.2-5.5,3.9-9.5,2.2c-1.6-0.7-3.3-1.5-4.4-2.8
		C10.6,15.6,7.5,14.6,3.7,15.4z"/>
	<path class="st2" d="M3.7,15.4c3.9-2.1,5.4-1.9,8.6,1.2c2,2,4.2,3.7,7.1,4.5c3,0.8,5.3-0.1,7.5-1.8c-1.2,3.3-5.6,5.4-9.1,4.7
		c-3.9-0.8-6.7-3.4-9.6-5.8C6.8,17.1,5.3,16.2,3.7,15.4z"/>
	<path class="st3" d="M20.4,10c1.6,0.1,1.6-1.3,2.5-2.1c0.1,1.2,0.5,2.1,1.9,1.8c-0.6,1-2,0.9-1.7,2.8C22.3,11,21.6,10.3,20.4,10z"
		/>
	<path class="st4" d="M7.2,22.9c0.2-0.6,0.5-1,1-0.9c0.5,0.1,0.8,0.4,0.8,0.9c0,0.4-0.4,0.8-0.9,0.7C7.7,23.6,7.4,23.2,7.2,22.9z"/>
</g>
</svg>
