<svg version="1.1" id="Layer_1" xmlns="http://www.w3.org/2000/svg" xmlns:xlink="http://www.w3.org/1999/xlink" x="0px" y="0px"
	 width="100%" viewBox="0 0 414 414" enable-background="new 0 0 414 414" xml:space="preserve">
<path fill="#001945" opacity="1.000000" stroke="none" 
	d="
M415.000000,177.000000 
	C415.000000,197.354233 415.000000,217.708450 414.631042,238.621231 
	C413.862335,239.858154 413.284241,240.489090 413.089386,241.221924 
	C409.686859,254.019638 407.322845,267.193512 402.783539,279.570648 
	C387.846405,320.298828 362.432465,353.207703 326.615082,377.914215 
	C300.198151,396.136292 271.216034,407.784973 239.363052,412.220734 
	C236.174850,412.664673 233.117874,414.050995 230.000000,415.000000 
	C216.645767,415.000000 203.291550,415.000000 189.367859,414.621399 
	C188.112411,413.850372 187.451492,413.169952 186.736755,413.107697 
	C169.910187,411.642639 153.713608,407.495605 137.855682,401.831696 
	C109.176544,391.588379 84.265915,375.247314 62.836525,353.884338 
	C44.094692,335.200623 29.290972,313.594116 18.991079,289.034454 
	C10.374089,268.487610 4.753170,247.126495 3.245725,224.975204 
	C2.346531,211.761948 3.157209,198.363113 4.087288,185.110031 
	C5.674788,162.489075 12.149892,141.029266 21.782694,120.589233 
	C35.449322,91.589745 54.512157,66.713287 79.734177,46.740452 
	C108.191376,24.205746 140.118774,9.472120 176.128281,3.860377 
	C179.485901,3.337122 182.712540,1.973458 186.000000,1.000001 
	C201.020889,1.000000 216.041794,1.000000 231.629608,1.376040 
	C233.046692,2.157234 233.868423,2.835859 234.751175,2.927658 
	C258.504364,5.397832 280.939667,12.482796 302.144165,23.169930 
	C329.362579,36.888077 352.522552,55.759384 371.392883,79.829460 
	C392.177063,106.340691 406.037750,135.947647 412.141418,169.147385 
	C412.638062,171.848801 414.026154,174.386322 415.000000,177.000000 
M335.566193,323.646912 
	C337.720703,320.919464 339.875214,318.192017 342.694397,315.137787 
	C352.742584,309.937286 362.819855,304.791962 372.830872,299.520874 
	C383.033844,294.148743 383.241638,292.570068 373.413910,286.239777 
	C368.858429,283.305481 368.492493,280.891968 370.469696,275.931335 
	C389.889313,227.208588 388.570251,178.985092 365.143433,131.923828 
	C315.270508,31.736200 183.227249,5.086528 98.214249,77.820259 
	C92.827477,82.428963 92.824272,82.501854 96.948196,87.841270 
	C93.632057,90.558090 90.315918,93.274918 86.445984,96.322479 
	C85.291794,97.797165 84.137604,99.271851 82.210030,100.831230 
	C80.655975,101.373825 79.012573,101.742546 77.562531,102.487595 
	C68.980461,106.897148 60.410072,111.331871 51.898922,115.876442 
	C39.800446,122.336487 39.673412,122.975418 51.045025,130.679749 
	C54.744644,133.186279 54.851101,135.119827 53.275471,139.061890 
	C32.510620,191.013229 34.535213,242.082565 61.887398,291.026855 
	C98.080055,355.790405 168.394623,388.977875 241.749039,377.091187 
	C273.578857,371.933350 301.580688,358.437469 326.029968,337.478424 
	C328.064026,335.734772 330.516998,334.131195 328.584167,330.650970 
	C330.718933,328.427948 332.853668,326.204895 335.566193,323.646912 
z"/>
<path fill="#000000" opacity="1.000000" stroke="none" 
	d="
M185.531342,1.000001 
	C182.712540,1.973458 179.485901,3.337122 176.128281,3.860377 
	C140.118774,9.472120 108.191376,24.205746 79.734177,46.740452 
	C54.512157,66.713287 35.449322,91.589745 21.782694,120.589233 
	C12.149892,141.029266 5.674788,162.489075 4.087288,185.110031 
	C3.157209,198.363113 2.346531,211.761948 3.245725,224.975204 
	C4.753170,247.126495 10.374089,268.487610 18.991079,289.034454 
	C29.290972,313.594116 44.094692,335.200623 62.836525,353.884338 
	C84.265915,375.247314 109.176544,391.588379 137.855682,401.831696 
	C153.713608,407.495605 169.910187,411.642639 186.736755,413.107697 
	C187.451492,413.169952 188.112411,413.850372 188.899200,414.621399 
	C126.368179,415.000000 63.736366,415.000000 1.052274,415.000000 
	C1.052274,277.111603 1.052274,139.223190 1.052274,1.000000 
	C62.353821,1.000000 123.708252,1.000000 185.531342,1.000001 
z"/>
<path fill="#000000" opacity="1.000000" stroke="none" 
	d="
M230.468658,415.000000 
	C233.117874,414.050995 236.174850,412.664673 239.363052,412.220734 
	C271.216034,407.784973 300.198151,396.136292 326.615082,377.914215 
	C362.432465,353.207703 387.846405,320.298828 402.783539,279.570648 
	C407.322845,267.193512 409.686859,254.019638 413.089386,241.221924 
	C413.284241,240.489090 413.862335,239.858154 414.631042,239.089890 
	C415.000000,297.595520 415.000000,356.191010 415.000000,415.000000 
	C353.645935,415.000000 292.291626,415.000000 230.468658,415.000000 
z"/>
<path fill="#000000" opacity="1.000000" stroke="none" 
	d="
M415.000000,176.531342 
	C414.026154,174.386322 412.638062,171.848801 412.141418,169.147385 
	C406.037750,135.947647 392.177063,106.340691 371.392883,79.829460 
	C352.522552,55.759384 329.362579,36.888077 302.144165,23.169930 
	C280.939667,12.482796 258.504364,5.397832 234.751175,2.927658 
	C233.868423,2.835859 233.046692,2.157234 232.098267,1.376040 
	C292.925598,1.000000 353.851166,1.000000 415.000000,1.000000 
	C415.000000,59.354038 415.000000,117.708359 415.000000,176.531342 
z"/>
<path fill="#22DA01" opacity="1.000000" stroke="none" 
	d="
M97.778831,87.715965 
	C92.824272,82.501854 92.827477,82.428963 98.214249,77.820259 
	C183.227249,5.086528 315.270508,31.736200 365.143433,131.923828 
	C388.570251,178.985092 389.889313,227.208588 370.469696,275.931335 
	C368.492493,280.891968 368.858429,283.305481 373.413910,286.239777 
	C383.241638,292.570068 383.033844,294.148743 372.830872,299.520874 
	C362.819855,304.791962 352.742584,309.937286 341.988464,315.208984 
	C335.338623,314.051392 338.235718,309.329712 337.717102,305.548279 
	C338.593994,294.467346 339.260376,283.825836 340.235840,273.212738 
	C340.430481,271.095215 341.372437,267.806915 342.743500,267.342438 
	C344.565186,266.725311 347.291229,268.056915 349.362854,269.086243 
	C351.798401,270.296356 353.949066,272.079803 356.499390,273.800964 
	C357.533722,271.362335 358.356750,269.553589 359.076996,267.704742 
	C382.930786,206.473007 367.009949,137.423340 318.740753,92.721924 
	C264.627197,42.608150 183.468063,36.110611 122.130859,77.095200 
	C115.229225,81.706757 108.730812,86.921761 101.834335,91.633476 
	C100.341782,90.178665 99.060310,88.947311 97.778831,87.715965 
z"/>
<path fill="#23DA02" opacity="1.000000" stroke="none" 
	d="
M328.026764,330.998383 
	C330.516998,334.131195 328.064026,335.734772 326.029968,337.478424 
	C301.580688,358.437469 273.578857,371.933350 241.749039,377.091187 
	C168.394623,388.977875 98.080055,355.790405 61.887398,291.026855 
	C34.535213,242.082565 32.510620,191.013229 53.275471,139.061890 
	C54.851101,135.119827 54.744644,133.186279 51.045025,130.679749 
	C39.673412,122.975418 39.800446,122.336487 51.898922,115.876442 
	C60.410072,111.331871 68.980461,106.897148 77.562531,102.487595 
	C79.012573,101.742546 80.655975,101.373825 82.928680,100.988052 
	C87.588951,103.713295 85.205132,107.689598 85.686340,111.376503 
	C85.221001,116.488770 84.908867,121.218658 84.456635,126.334015 
	C84.009811,131.476486 83.703072,136.233490 83.295586,141.393402 
	C82.050751,144.488571 80.906654,147.180786 79.427933,149.803558 
	C75.075157,147.413956 71.057014,145.093811 66.553596,142.493454 
	C65.326973,145.926651 64.242119,148.963058 62.964279,152.318146 
	C61.621983,156.341156 60.472675,160.045502 59.180687,164.082062 
	C58.104965,168.610855 57.171928,172.807434 56.125248,177.406708 
	C55.404652,182.541168 54.797699,187.272934 54.103516,192.449890 
	C53.889225,197.929260 53.762165,202.963455 53.531971,208.454895 
	C53.812672,213.943085 54.196510,218.974030 54.548538,224.450409 
	C55.503345,230.539688 56.489956,236.183502 57.503551,242.188904 
	C59.183563,248.090714 60.836586,253.630951 62.575287,259.542908 
	C64.028397,263.308014 65.395828,266.701416 66.861084,270.442444 
	C68.892021,274.559082 70.825134,278.328033 72.856110,282.439575 
	C76.201454,287.893646 79.448944,293.005188 82.821495,298.441772 
	C98.455498,320.422852 117.881432,337.476959 142.237183,349.277893 
	C147.657455,351.638916 152.834320,353.747223 158.319305,356.061432 
	C163.042130,357.623962 167.456833,358.980560 172.157440,360.582397 
	C175.966888,361.498657 179.490402,362.169647 183.408234,362.962646 
	C189.869843,363.764343 195.937164,364.444092 202.397980,365.271301 
	C208.194641,365.470001 213.597824,365.521179 219.412018,365.634430 
	C224.882004,365.117859 229.940964,364.539246 235.419556,364.000153 
	C240.562698,363.067047 245.286194,362.094421 250.406067,361.133362 
	C254.927231,359.937012 259.052032,358.729095 263.545349,357.432556 
	C266.622894,356.273010 269.331848,355.202087 272.406250,354.095032 
	C275.846191,352.653473 278.920685,351.248016 282.337463,349.796753 
	C285.853058,347.980194 289.026428,346.209442 292.536133,344.323364 
	C296.297180,341.988556 299.721893,339.769012 303.423828,337.444641 
	C306.319458,335.327148 308.937836,333.314514 311.853394,331.184540 
	C314.437469,329.054199 316.724365,327.041199 319.387756,324.950775 
	C322.518463,326.915039 325.272614,328.956726 328.026764,330.998383 
z"/>
<path fill="#012459" opacity="1.000000" stroke="none" 
	d="
M85.839546,110.994118 
	C85.205132,107.689598 87.588951,103.713295 83.315369,100.945709 
	C84.137604,99.271851 85.291794,97.797165 86.895180,96.446259 
	C92.530418,100.911774 97.682693,105.294701 102.913017,109.582420 
	C107.223801,113.116318 111.627060,116.537415 115.964302,120.424194 
	C115.605759,124.902428 115.272240,128.964981 114.584488,133.001038 
	C110.450699,130.114090 106.642097,127.291046 102.898376,124.384445 
	C97.188545,119.951340 91.523567,115.460464 85.839546,110.994118 
z"/>
<path fill="#001F4F" opacity="1.000000" stroke="none" 
	d="
M115.989334,120.008507 
	C111.627060,116.537415 107.223801,113.116318 102.913017,109.582420 
	C97.682693,105.294701 92.530418,100.911774 87.172073,96.280884 
	C90.315918,93.274918 93.632057,90.558090 97.363510,87.778618 
	C99.060310,88.947311 100.341782,90.178665 101.885330,91.982079 
	C105.530205,95.882957 108.601746,99.631561 112.377136,102.430908 
	C116.775017,105.691818 119.064087,109.161140 117.142975,114.669373 
	C116.547874,116.375648 116.362366,118.224777 115.989334,120.008507 
z"/>
<path fill="#012B60" opacity="1.000000" stroke="none" 
	d="
M328.305481,330.824677 
	C325.272614,328.956726 322.518463,326.915039 319.366089,324.587463 
	C318.045990,323.027954 317.175171,321.713379 316.191650,320.489410 
	C314.157257,317.957642 312.062836,315.474091 310.300476,312.748352 
	C314.734863,311.695160 318.861908,310.864319 323.060822,310.368286 
	C324.207642,311.876709 325.297302,313.037140 326.354614,314.226410 
	C329.239838,317.471741 332.111450,320.729218 334.988434,323.981873 
	C332.853668,326.204895 330.718933,328.427948 328.305481,330.824677 
z"/>
<path fill="#012756" opacity="1.000000" stroke="none" 
	d="
M335.277313,323.814392 
	C332.111450,320.729218 329.239838,317.471741 326.354614,314.226410 
	C325.297302,313.037140 324.207642,311.876709 323.406494,310.209534 
	C328.325256,308.476501 332.970276,307.237122 337.615295,305.997711 
	C338.235718,309.329712 335.338623,314.051392 341.656128,315.372375 
	C339.875214,318.192017 337.720703,320.919464 335.277313,323.814392 
z"/>
<path fill="#011945" opacity="1.000000" stroke="none" 
	d="
M337.717102,305.548279 
	C332.970276,307.237122 328.325256,308.476501 323.334595,309.874695 
	C318.861908,310.864319 314.734863,311.695160 309.853760,312.753601 
	C304.055267,313.363068 299.010803,313.744965 293.501892,314.111633 
	C288.007385,314.170563 282.977386,314.244751 277.488434,314.266418 
	C271.018066,313.820892 265.006622,313.427917 258.605774,312.946106 
	C251.508270,311.501740 244.800201,310.146179 237.794968,308.592773 
	C231.353363,306.245087 225.208923,304.095184 219.178238,301.575012 
	C230.006851,299.196686 240.214066,295.954803 249.285919,289.612518 
	C278.393585,269.262817 277.189056,227.760574 246.379501,210.327744 
	C236.233276,204.586731 224.649307,201.409256 213.786804,196.905121 
	C203.397903,192.597382 192.453857,189.150436 182.906204,183.408859 
	C170.010529,175.653885 167.983826,159.625626 177.388779,147.747971 
	C187.148285,135.422546 200.541931,131.615051 215.398392,134.749680 
	C230.064255,137.844070 238.508865,147.906342 241.031235,162.580475 
	C241.868179,167.449524 243.763885,169.666092 248.872208,169.148621 
	C252.501190,168.780991 256.206543,168.914398 259.861267,169.119003 
	C264.293671,169.367142 265.827240,167.529556 265.335938,163.154404 
	C263.992462,151.191147 259.417084,140.751572 251.351669,131.807602 
	C242.671509,122.181938 231.742020,116.636734 218.838959,114.124214 
	C218.838959,109.757301 218.832825,105.618950 218.840057,101.480614 
	C218.866928,86.127441 220.140732,87.859238 204.747482,87.627953 
	C199.980453,87.556320 198.111206,89.422058 198.244186,94.112617 
	C198.431824,100.731110 198.291702,107.358910 198.291702,113.301605 
	C191.498260,115.616714 185.070572,117.053047 179.343628,119.899307 
	C161.710114,128.663132 149.664276,141.968063 148.920166,162.657196 
	C148.147446,184.141769 159.110947,198.641144 178.084686,207.252853 
	C187.279587,211.426178 197.106232,214.184616 206.455658,218.046539 
	C216.840836,222.336273 227.802048,225.943939 237.078751,232.032883 
	C250.046036,240.544205 250.478683,258.833038 239.549774,269.966766 
	C231.917679,277.741943 222.192429,280.176422 211.866623,280.691498 
	C190.145752,281.775024 172.650208,272.061279 170.908875,249.479919 
	C170.795731,248.012726 168.621552,245.544296 167.368057,245.520218 
	C160.937729,245.396667 154.494965,245.921341 147.774063,246.017426 
	C142.354141,237.864334 137.216705,229.913345 132.008179,221.608154 
	C128.633224,213.500717 125.329391,205.747467 122.012497,197.596802 
	C120.634468,191.803864 119.269501,186.408340 117.869278,180.625641 
	C116.885956,175.159714 115.937897,170.080994 114.997650,164.554352 
	C114.657036,158.741852 114.308609,153.377289 113.975189,147.551453 
	C114.306374,142.402618 114.622551,137.715073 114.938728,133.027527 
	C115.272240,128.964981 115.605759,124.902428 115.964294,120.424194 
	C116.362366,118.224777 116.547874,116.375648 117.142975,114.669373 
	C119.064087,109.161140 116.775017,105.691818 112.377136,102.430908 
	C108.601746,99.631561 105.530205,95.882957 102.096405,92.205536 
	C108.730812,86.921761 115.229225,81.706757 122.130859,77.095200 
	C183.468063,36.110611 264.627197,42.608150 318.740753,92.721924 
	C367.009949,137.423340 382.930786,206.473007 359.076996,267.704742 
	C358.356750,269.553589 357.533722,271.362335 356.499390,273.800964 
	C353.949066,272.079803 351.798401,270.296356 349.362854,269.086243 
	C347.291229,268.056915 344.565186,266.725311 342.743500,267.342438 
	C341.372437,267.806915 340.430481,271.095215 340.235840,273.212738 
	C339.260376,283.825836 338.593994,294.467346 337.717102,305.548279 
z"/>
<path fill="#0354A9" opacity="1.000000" stroke="none" 
	d="
M250.009689,361.121765 
	C245.286194,362.094421 240.562698,363.067047 235.351089,363.666351 
	C233.750259,361.870270 232.819763,360.242340 231.491180,359.062744 
	C227.276779,355.320923 222.871857,351.794739 218.615997,348.098389 
	C204.968994,336.245331 191.398102,324.304382 177.717590,312.490265 
	C164.542175,301.112366 151.230530,289.892303 138.046829,278.523926 
	C126.869400,268.885559 115.846008,259.068329 104.652023,249.449432 
	C89.562187,236.482941 74.402573,223.596985 59.184612,210.781296 
	C57.645164,209.484833 55.499470,208.908279 53.635109,207.997635 
	C53.762165,202.963455 53.889225,197.929260 54.437706,192.520111 
	C58.080349,194.437729 61.493561,196.505753 64.486893,199.064896 
	C73.558350,206.820480 82.420319,214.820480 91.449226,222.626556 
	C109.879105,238.560425 128.324997,254.476547 146.884293,270.258881 
	C148.907562,271.979431 151.716858,272.775604 154.433792,274.187500 
	C160.136963,280.004852 165.567932,285.635254 171.024109,291.610260 
	C171.364395,292.700226 171.479309,293.670380 172.025253,294.156494 
	C178.067413,299.536621 184.092896,304.942078 190.310577,310.115082 
	C192.632248,312.046692 195.444565,313.388489 198.140594,315.437958 
	C198.262009,317.709473 198.406265,319.552368 198.264847,321.373077 
	C197.888046,326.224060 200.252808,327.991272 204.855011,327.743256 
	C208.511581,327.546265 212.183624,327.636536 215.929993,327.961487 
	C222.756348,334.600281 229.574219,340.801117 236.222000,347.179169 
	C240.936859,351.702698 245.422012,356.465668 250.009689,361.121765 
z"/>
<path fill="#035AB4" opacity="1.000000" stroke="none" 
	d="
M53.531971,208.454895 
	C55.499470,208.908279 57.645164,209.484833 59.184612,210.781296 
	C74.402573,223.596985 89.562187,236.482941 104.652023,249.449432 
	C115.846008,259.068329 126.869400,268.885559 138.046829,278.523926 
	C151.230530,289.892303 164.542175,301.112366 177.717590,312.490265 
	C191.398102,324.304382 204.968994,336.245331 218.615997,348.098389 
	C222.871857,351.794739 227.276779,355.320923 231.491180,359.062744 
	C232.819763,360.242340 233.750259,361.870270 234.931458,363.626801 
	C229.940964,364.539246 224.882004,365.117859 219.383163,365.301117 
	C214.441071,360.363312 210.186234,355.538696 205.388855,351.332977 
	C192.525894,340.056366 179.415588,329.062286 166.432175,317.922577 
	C155.087494,308.188904 143.814117,298.371948 132.448608,288.662781 
	C123.354660,280.894135 114.084511,273.330383 105.044716,265.500061 
	C90.980865,253.317810 77.108025,240.914474 62.996807,228.788040 
	C60.594948,226.723984 57.405788,225.576096 54.580345,224.004959 
	C54.196510,218.974030 53.812672,213.943085 53.531971,208.454895 
z"/>
<path fill="#0460BD" opacity="1.000000" stroke="none" 
	d="
M54.548542,224.450409 
	C57.405788,225.576096 60.594948,226.723984 62.996807,228.788040 
	C77.108025,240.914474 90.980865,253.317810 105.044716,265.500061 
	C114.084511,273.330383 123.354660,280.894135 132.448608,288.662781 
	C143.814117,298.371948 155.087494,308.188904 166.432175,317.922577 
	C179.415588,329.062286 192.525894,340.056366 205.388855,351.332977 
	C210.186234,355.538696 214.441071,360.363312 218.972137,365.239044 
	C213.597824,365.521179 208.194641,365.470001 202.374634,364.909576 
	C201.123413,363.230072 200.473206,361.852234 199.425369,360.922516 
	C191.361710,353.767792 183.230316,346.689240 175.101715,339.607941 
	C164.347641,330.239594 153.623001,320.836700 142.801575,311.546631 
	C129.969315,300.530304 117.023949,289.645874 104.170921,278.653595 
	C89.930229,266.474548 75.764931,254.206985 61.456841,242.107986 
	C60.637112,241.414825 58.826183,241.893829 57.476562,241.827316 
	C56.489956,236.183502 55.503345,230.539688 54.548542,224.450409 
z"/>
<path fill="#0565C4" opacity="1.000000" stroke="none" 
	d="
M57.503548,242.188904 
	C58.826183,241.893829 60.637112,241.414825 61.456841,242.107986 
	C75.764931,254.206985 89.930229,266.474548 104.170921,278.653595 
	C117.023949,289.645874 129.969315,300.530304 142.801575,311.546631 
	C153.623001,320.836700 164.347641,330.239594 175.101715,339.607941 
	C183.230316,346.689240 191.361710,353.767792 199.425369,360.922516 
	C200.473206,361.852234 201.123413,363.230072 201.981140,364.762085 
	C195.937164,364.444092 189.869843,363.764343 183.384003,362.609558 
	C182.067276,360.813873 181.394943,359.235565 180.232361,358.216583 
	C174.739380,353.402222 169.062347,348.798492 163.542526,344.014008 
	C147.731003,330.308777 131.994202,316.517273 116.170143,302.826599 
	C102.358047,290.876678 88.548615,278.920715 74.556374,267.183990 
	C70.880226,264.100433 66.530190,261.820282 62.489613,259.171173 
	C60.836586,253.630951 59.183563,248.090714 57.503548,242.188904 
z"/>
<path fill="#034E9F" opacity="1.000000" stroke="none" 
	d="
M154.161591,274.000519 
	C151.716858,272.775604 148.907562,271.979431 146.884293,270.258881 
	C128.324997,254.476547 109.879105,238.560425 91.449226,222.626556 
	C82.420319,214.820480 73.558350,206.820480 64.486893,199.064896 
	C61.493561,196.505753 58.080349,194.437729 54.524933,192.074921 
	C54.797699,187.272934 55.404652,182.541168 56.471245,177.428894 
	C58.197498,177.772293 59.619381,178.315460 60.705914,179.248947 
	C68.637024,186.063034 76.465393,192.996643 84.393181,199.814621 
	C100.624390,213.773575 116.847389,227.743011 133.186752,241.574661 
	C137.582962,245.296143 142.385513,248.537628 147.166595,252.365051 
	C149.608307,259.820618 151.884949,266.910553 154.161591,274.000519 
z"/>
<path fill="#024794" opacity="1.000000" stroke="none" 
	d="
M147.001541,251.999451 
	C142.385513,248.537628 137.582962,245.296143 133.186752,241.574661 
	C116.847389,227.743011 100.624390,213.773575 84.393181,199.814621 
	C76.465393,192.996643 68.637024,186.063034 60.705914,179.248947 
	C59.619381,178.315460 58.197498,177.772293 56.584885,177.026215 
	C57.171928,172.807434 58.104965,168.610855 59.574905,164.173279 
	C65.211815,167.827911 70.487297,171.516327 75.378387,175.658630 
	C89.168121,187.337189 102.698929,199.322784 116.548782,210.928391 
	C121.400711,214.994110 126.884186,218.306152 132.079269,221.962357 
	C137.216705,229.913345 142.354141,237.864334 147.679245,246.369476 
	C147.578445,248.615555 147.289993,250.307510 147.001541,251.999451 
z"/>
<path fill="#024189" opacity="1.000000" stroke="none" 
	d="
M132.008179,221.608154 
	C126.884186,218.306152 121.400711,214.994110 116.548782,210.928391 
	C102.698929,199.322784 89.168121,187.337189 75.378387,175.658630 
	C70.487297,171.516327 65.211815,167.827911 59.717590,163.841064 
	C60.472675,160.045502 61.621983,156.341156 63.332767,152.323273 
	C65.372261,152.622299 67.130165,152.907806 68.285896,153.896912 
	C83.221169,166.679031 98.016571,179.624985 112.992172,192.359192 
	C115.666664,194.633423 118.997673,196.135574 122.025551,197.994217 
	C125.329391,205.747467 128.633224,213.500717 132.008179,221.608154 
z"/>
<path fill="#116CBF" opacity="1.000000" stroke="none" 
	d="
M62.575287,259.542908 
	C66.530190,261.820282 70.880226,264.100433 74.556374,267.183990 
	C88.548615,278.920715 102.358047,290.876678 116.170143,302.826599 
	C131.994202,316.517273 147.731003,330.308777 163.542526,344.014008 
	C169.062347,348.798492 174.739380,353.402222 180.232361,358.216583 
	C181.394943,359.235565 182.067276,360.813873 182.989716,362.487549 
	C179.490402,362.169647 175.966888,361.498657 172.129883,360.222870 
	C171.014526,358.619965 170.344238,357.469421 169.391052,356.646545 
	C154.551270,343.835236 139.639099,331.107697 124.816734,318.276398 
	C108.988571,304.574371 93.300034,290.710236 77.399551,277.093201 
	C74.201675,274.354584 70.326279,272.407043 66.763260,270.094788 
	C65.395828,266.701416 64.028397,263.308014 62.575287,259.542908 
z"/>
<path fill="#023C7F" opacity="1.000000" stroke="none" 
	d="
M122.012497,197.596802 
	C118.997673,196.135574 115.666664,194.633423 112.992172,192.359192 
	C98.016571,179.624985 83.221169,166.679031 68.285896,153.896912 
	C67.130165,152.907806 65.372261,152.622299 63.525757,152.004608 
	C64.242119,148.963058 65.326973,145.926651 66.553596,142.493454 
	C71.057014,145.093811 75.075157,147.413956 79.736420,149.978058 
	C87.348389,156.076675 94.271996,161.986328 101.300591,167.768372 
	C106.767410,172.265640 112.365036,176.603897 117.904526,181.012833 
	C119.269501,186.408340 120.634468,191.803864 122.012497,197.596802 
z"/>
<path fill="#1D72B7" opacity="1.000000" stroke="none" 
	d="
M66.861084,270.442444 
	C70.326279,272.407043 74.201675,274.354584 77.399551,277.093201 
	C93.300034,290.710236 108.988571,304.574371 124.816734,318.276398 
	C139.639099,331.107697 154.551270,343.835236 169.391052,356.646545 
	C170.344238,357.469421 171.014526,358.619965 171.843964,359.977600 
	C167.456833,358.980560 163.042130,357.623962 158.244781,355.735413 
	C155.421997,352.506531 153.233353,349.518402 150.501633,347.158997 
	C129.770630,329.253540 108.981964,311.413818 88.093025,293.692963 
	C83.213799,289.553772 77.881882,285.948151 72.758255,282.097015 
	C70.825134,278.328033 68.892021,274.559082 66.861084,270.442444 
z"/>
<path fill="#024590" opacity="1.000000" stroke="none" 
	d="
M219.064468,301.945251 
	C225.208923,304.095184 231.353363,306.245087 237.826965,308.953522 
	C239.334427,311.071320 240.287399,312.888580 241.728333,314.147125 
	C249.816238,321.211304 258.096161,328.056122 266.161011,335.145905 
	C271.567505,339.898743 276.725830,344.933807 281.995209,349.842590 
	C278.920685,351.248016 275.846191,352.653473 272.336792,353.749268 
	C270.107300,351.301483 268.550903,348.892151 266.477478,347.071625 
	C256.773010,338.550751 247.023529,330.074860 237.092972,321.820099 
	C231.273651,316.982819 225.084671,312.590210 218.970276,307.573181 
	C218.940536,305.414276 219.002502,303.679749 219.064468,301.945251 
z"/>
<path fill="#024087" opacity="1.000000" stroke="none" 
	d="
M282.337463,349.796753 
	C276.725830,344.933807 271.567505,339.898743 266.161011,335.145905 
	C258.096161,328.056122 249.816238,321.211304 241.728333,314.147125 
	C240.287399,312.888580 239.334427,311.071320 238.124146,309.151306 
	C244.800201,310.146179 251.508270,311.501740 258.675476,313.279205 
	C263.724792,318.114471 268.250549,322.597382 272.920807,326.924286 
	C279.289459,332.824677 285.768250,338.606232 292.199829,344.438721 
	C289.026428,346.209442 285.853058,347.980194 282.337463,349.796753 
z"/>
<path fill="#034E9F" opacity="1.000000" stroke="none" 
	d="
M250.406067,361.133362 
	C245.422012,356.465668 240.936859,351.702698 236.222000,347.179169 
	C229.574219,340.801117 222.756348,334.600281 216.176819,327.714111 
	C217.248520,324.402191 218.154572,321.699829 219.397247,319.069153 
	C221.526657,320.305084 223.480148,321.282562 225.086182,322.663971 
	C235.342621,331.486176 245.584091,340.328186 255.687317,349.324493 
	C258.436737,351.772675 260.693787,354.773804 263.176819,357.521149 
	C259.052032,358.729095 254.927231,359.937012 250.406067,361.133362 
z"/>
<path fill="#2877AF" opacity="1.000000" stroke="none" 
	d="
M72.856110,282.439575 
	C77.881882,285.948151 83.213799,289.553772 88.093025,293.692963 
	C108.981964,311.413818 129.770630,329.253540 150.501633,347.158997 
	C153.233353,349.518402 155.421997,352.506531 157.936676,355.529480 
	C152.834320,353.747223 147.657455,351.638916 142.172867,348.939209 
	C139.433151,345.688507 137.230347,342.766083 134.530441,340.414307 
	C121.207458,328.809021 107.827560,317.265808 94.294044,305.907654 
	C90.747009,302.930756 86.579178,300.693604 82.696442,298.116730 
	C79.448944,293.005188 76.201454,287.893646 72.856110,282.439575 
z"/>
<path fill="#024997" opacity="1.000000" stroke="none" 
	d="
M263.545349,357.432556 
	C260.693787,354.773804 258.436737,351.772675 255.687317,349.324493 
	C245.584091,340.328186 235.342621,331.486176 225.086182,322.663971 
	C223.480148,321.282562 221.526657,320.305084 219.306366,318.618744 
	C218.939926,314.730316 219.000961,311.363922 219.061981,307.997559 
	C225.084671,312.590210 231.273651,316.982819 237.092972,321.820099 
	C247.023529,330.074860 256.773010,338.550751 266.477478,347.071625 
	C268.550903,348.892151 270.107300,351.301483 271.971375,353.785339 
	C269.331848,355.202087 266.622894,356.273010 263.545349,357.432556 
z"/>
<path fill="#01316D" opacity="1.000000" stroke="none" 
	d="
M113.960175,148.012726 
	C114.308609,153.377289 114.657036,158.741852 114.651657,164.491119 
	C109.101662,160.653687 103.980995,156.333954 98.687439,152.237640 
	C93.684875,148.366486 88.500648,144.730118 83.396332,140.990479 
	C83.703072,136.233490 84.009811,131.476486 84.832024,126.399734 
	C90.643089,130.298050 95.886917,134.583344 101.250923,138.712540 
	C105.409470,141.913757 109.718201,144.919876 113.960175,148.012726 
z"/>
<path fill="#023B7E" opacity="1.000000" stroke="none" 
	d="
M292.536133,344.323395 
	C285.768250,338.606232 279.289459,332.824677 272.920807,326.924286 
	C268.250549,322.597382 263.724792,318.114471 259.064911,313.368042 
	C265.006622,313.427917 271.018066,313.820892 277.525726,314.593445 
	C278.529938,315.987305 278.788055,317.297546 279.584625,317.970001 
	C287.387299,324.557281 295.279694,331.038269 303.146606,337.549469 
	C299.721893,339.769012 296.297180,341.988556 292.536133,344.323395 
z"/>
<path fill="#012B63" opacity="1.000000" stroke="none" 
	d="
M113.975189,147.551453 
	C109.718201,144.919876 105.409470,141.913757 101.250923,138.712540 
	C95.886917,134.583344 90.643089,130.298050 84.972122,126.014252 
	C84.908867,121.218658 85.221001,116.488770 85.686340,111.376503 
	C91.523567,115.460464 97.188545,119.951340 102.898376,124.384445 
	C106.642097,127.291046 110.450699,130.114090 114.584488,133.001038 
	C114.622551,137.715073 114.306374,142.402618 113.975189,147.551453 
z"/>
<path fill="#013677" opacity="1.000000" stroke="none" 
	d="
M83.295586,141.393402 
	C88.500648,144.730118 93.684875,148.366486 98.687439,152.237640 
	C103.980995,156.333954 109.101662,160.653687 114.643845,164.939056 
	C115.937897,170.080994 116.885956,175.159714 117.869278,180.625641 
	C112.365036,176.603897 106.767410,172.265640 101.300591,167.768372 
	C94.271996,161.986328 87.348389,156.076675 80.071060,150.047516 
	C80.906654,147.180786 82.050751,144.488571 83.295586,141.393402 
z"/>
<path fill="#337DA6" opacity="1.000000" stroke="none" 
	d="
M82.821503,298.441772 
	C86.579178,300.693604 90.747009,302.930756 94.294044,305.907654 
	C107.827560,317.265808 121.207458,328.809021 134.530441,340.414307 
	C137.230347,342.766083 139.433151,345.688507 141.929443,348.686523 
	C117.881432,337.476959 98.455498,320.422852 82.821503,298.441772 
z"/>
<path fill="#013574" opacity="1.000000" stroke="none" 
	d="
M303.423828,337.444641 
	C295.279694,331.038269 287.387299,324.557281 279.584625,317.970001 
	C278.788055,317.297546 278.529938,315.987305 277.984680,314.645966 
	C282.977386,314.244751 288.007385,314.170563 293.531799,314.461304 
	C294.520691,315.849518 294.761597,317.165985 295.550751,317.848785 
	C300.820587,322.408630 306.207397,326.833313 311.556244,331.301880 
	C308.937836,333.314514 306.319458,335.327148 303.423828,337.444641 
z"/>
<path fill="#012F6A" opacity="1.000000" stroke="none" 
	d="
M311.853394,331.184540 
	C306.207397,326.833313 300.820587,322.408630 295.550751,317.848785 
	C294.761597,317.165985 294.520691,315.849518 293.996277,314.476532 
	C299.010803,313.744965 304.055267,313.363068 309.546387,312.975952 
	C312.062836,315.474091 314.157257,317.957642 316.191650,320.489410 
	C317.175171,321.713379 318.045990,323.027954 318.989532,324.664856 
	C316.724365,327.041199 314.437469,329.054199 311.853394,331.184540 
z"/>
<path fill="#FCFCFD" opacity="1.000000" stroke="none" 
	d="
M218.970276,307.573181 
	C219.000961,311.363922 218.939926,314.730316 218.969757,318.547089 
	C218.154572,321.699829 217.248520,324.402191 216.095627,327.351929 
	C212.183624,327.636536 208.511581,327.546265 204.855011,327.743256 
	C200.252808,327.991272 197.888046,326.224060 198.264847,321.373077 
	C198.406265,319.552368 198.262009,317.709473 198.247650,314.981323 
	C198.247314,309.513000 198.247314,304.940063 198.247314,301.972321 
	C188.470779,298.130859 179.734848,294.698242 170.998901,291.265656 
	C165.567932,285.635254 160.136963,280.004852 154.433792,274.187500 
	C151.884949,266.910553 149.608307,259.820618 147.166595,252.365051 
	C147.289993,250.307510 147.578445,248.615555 147.961716,246.571564 
	C154.494965,245.921341 160.937729,245.396667 167.368057,245.520218 
	C168.621552,245.544296 170.795731,248.012726 170.908875,249.479919 
	C172.650208,272.061279 190.145752,281.775024 211.866623,280.691498 
	C222.192429,280.176422 231.917679,277.741943 239.549774,269.966766 
	C250.478683,258.833038 250.046036,240.544205 237.078751,232.032883 
	C227.802048,225.943939 216.840836,222.336273 206.455658,218.046539 
	C197.106232,214.184616 187.279587,211.426178 178.084686,207.252853 
	C159.110947,198.641144 148.147446,184.141769 148.920166,162.657196 
	C149.664276,141.968063 161.710114,128.663132 179.343628,119.899307 
	C185.070572,117.053047 191.498260,115.616714 198.291702,113.301605 
	C198.291702,107.358910 198.431824,100.731110 198.244186,94.112617 
	C198.111206,89.422058 199.980453,87.556320 204.747482,87.627953 
	C220.140732,87.859238 218.866928,86.127441 218.840057,101.480614 
	C218.832825,105.618950 218.838959,109.757301 218.838959,114.124214 
	C231.742020,116.636734 242.671509,122.181938 251.351669,131.807602 
	C259.417084,140.751572 263.992462,151.191147 265.335938,163.154404 
	C265.827240,167.529556 264.293671,169.367142 259.861267,169.119003 
	C256.206543,168.914398 252.501190,168.780991 248.872208,169.148621 
	C243.763885,169.666092 241.868179,167.449524 241.031235,162.580475 
	C238.508865,147.906342 230.064255,137.844070 215.398392,134.749680 
	C200.541931,131.615051 187.148285,135.422546 177.388779,147.747971 
	C167.983826,159.625626 170.010529,175.653885 182.906204,183.408859 
	C192.453857,189.150436 203.397903,192.597382 213.786804,196.905121 
	C224.649307,201.409256 236.233276,204.586731 246.379501,210.327744 
	C277.189056,227.760574 278.393585,269.262817 249.285919,289.612518 
	C240.214066,295.954803 230.006851,299.196686 219.178238,301.575012 
	C219.002502,303.679749 218.940536,305.414276 218.970276,307.573181 
z"/>
<path fill="#0651A3" opacity="1.000000" stroke="none" 
	d="
M171.024109,291.610260 
	C179.734848,294.698242 188.470779,298.130859 198.247314,301.972321 
	C198.247314,304.940063 198.247314,309.513000 198.140244,314.542572 
	C195.444565,313.388489 192.632248,312.046692 190.310577,310.115082 
	C184.092896,304.942078 178.067413,299.536621 172.025253,294.156494 
	C171.479309,293.670380 171.364395,292.700226 171.024109,291.610260 
z"/>
</svg>