<svg version="1.1" id="Layer_1" xmlns="http://www.w3.org/2000/svg" xmlns:xlink="http://www.w3.org/1999/xlink" x="0px" y="0px"
	 width="100%" viewBox="0 0 140 140" enable-background="new 0 0 140 140" xml:space="preserve">
<path fill="#FBFB03" opacity="1.000000" stroke="none" 
	d="
M141.000000,54.000000 
	C141.000000,65.020897 141.000000,76.041786 140.700256,87.203568 
	C139.929077,88.141106 139.286484,88.883148 139.012192,89.742706 
	C135.592407,100.459915 130.745163,110.309151 122.933685,118.643959 
	C113.838295,128.348709 103.110420,135.214508 90.348000,138.965042 
	C89.444069,139.230682 88.777138,140.302856 88.000000,141.000000 
	C76.979103,141.000000 65.958214,141.000000 54.796421,140.700256 
	C53.858864,139.929047 53.116821,139.286484 52.257252,139.012100 
	C41.540607,135.591309 31.690752,130.745285 23.355953,122.933640 
	C13.651319,113.838150 6.785561,103.110359 3.035043,90.347977 
	C2.769398,89.444038 1.697174,88.777130 1.000001,88.000000 
	C1.000000,76.979103 1.000000,65.958214 1.299751,54.796417 
	C2.070945,53.858704 2.713464,53.116489 2.987843,52.256779 
	C6.408456,41.538967 11.255014,31.687492 19.068506,23.353813 
	C28.162762,13.654099 38.878559,6.772913 51.646778,3.036577 
	C52.552296,2.771597 53.221115,1.697739 54.000000,0.999999 
	C65.020897,1.000000 76.041786,1.000000 87.204803,1.300505 
	C88.144119,2.071922 88.886909,2.713091 89.746780,2.987883 
	C100.461174,6.411934 110.311790,11.256190 118.645889,19.067293 
	C128.349976,28.162407 135.214783,38.890457 138.965164,51.652210 
	C139.230804,52.556076 140.302902,53.222935 141.000000,54.000000 
M45.578823,49.524017 
	C44.444935,52.570683 43.204018,55.582451 42.197296,58.670570 
	C39.217461,67.811234 39.213051,67.887268 47.369511,73.037956 
	C48.798634,73.940422 50.711689,74.364616 52.431614,74.459541 
	C56.207531,74.667938 60.002888,74.524147 64.303238,74.524147 
	C63.318108,77.859444 62.396744,80.508377 61.769161,83.225174 
	C61.019428,86.470764 59.403500,87.728546 55.862698,87.574265 
	C48.400051,87.249092 40.913380,87.475388 33.081165,87.475388 
	C31.870516,91.233009 30.700706,94.863876 29.319118,99.152061 
	C38.918400,99.152061 47.479191,99.152061 56.518089,99.152061 
	C54.487461,105.747696 52.610249,111.845016 50.553837,118.524399 
	C52.881268,118.524399 54.547108,118.295990 56.126362,118.568810 
	C60.255268,119.282066 62.146004,117.497665 63.002155,113.551506 
	C63.808582,109.834518 65.391571,106.290619 66.287949,102.587074 
	C67.011421,99.597878 68.575691,98.820198 71.543884,98.848091 
	C76.476791,98.894440 81.609619,99.115288 86.309952,97.907341 
	C95.533485,95.536980 102.159187,90.083366 103.157578,79.738335 
	C103.219086,79.100952 103.636337,78.503860 103.845474,77.873871 
	C106.784378,69.021118 106.709053,68.631943 98.518242,64.033142 
	C97.063324,63.216267 95.074837,63.149700 93.322678,63.101372 
	C88.846024,62.977886 84.363686,63.060219 79.206017,63.060219 
	C80.701958,58.447365 82.044807,54.306561 83.382683,50.181099 
	C91.795097,50.181099 99.621315,49.988300 107.430252,50.271721 
	C110.763542,50.392708 112.245781,49.200214 112.881691,46.133465 
	C113.363182,43.811508 114.150627,41.552998 114.907639,38.895054 
	C105.384644,38.895054 96.430344,38.895054 87.013885,38.895054 
	C88.906288,32.777283 90.687836,27.017851 92.579597,20.902142 
	C90.729752,20.801750 89.581146,20.840765 88.467667,20.661549 
	C83.478424,19.858526 80.450653,21.315413 79.506981,26.851057 
	C78.802345,30.984528 76.990509,34.929253 75.853279,38.403362 
	C69.716225,38.918045 63.847153,38.217678 59.033978,40.148903 
	C54.208721,42.084972 50.437038,46.646858 46.283752,49.996742 
	C46.283752,49.996742 46.349045,49.919918 45.578823,49.524017 
z"/>
<path fill="#000000" opacity="1.000000" stroke="none" 
	d="
M53.531342,0.999999 
	C53.221115,1.697739 52.552296,2.771597 51.646778,3.036577 
	C38.878559,6.772913 28.162762,13.654099 19.068506,23.353813 
	C11.255014,31.687492 6.408456,41.538967 2.987843,52.256779 
	C2.713464,53.116489 2.070945,53.858704 1.299751,54.327759 
	C1.000000,36.406563 1.000000,18.813124 1.000000,1.000000 
	C18.353609,1.000000 35.708145,1.000000 53.531342,0.999999 
z"/>
<path fill="#000000" opacity="1.000000" stroke="none" 
	d="
M141.000000,53.531342 
	C140.302902,53.222935 139.230804,52.556076 138.965164,51.652210 
	C135.214783,38.890457 128.349976,28.162407 118.645889,19.067293 
	C110.311790,11.256190 100.461174,6.411934 89.746780,2.987883 
	C88.886909,2.713091 88.144119,2.071922 87.673462,1.300505 
	C105.593437,1.000000 123.186867,1.000000 141.000000,1.000000 
	C141.000000,18.353609 141.000000,35.708145 141.000000,53.531342 
z"/>
<path fill="#000000" opacity="1.000000" stroke="none" 
	d="
M1.000001,88.468658 
	C1.697174,88.777130 2.769398,89.444038 3.035043,90.347977 
	C6.785561,103.110359 13.651319,113.838150 23.355953,122.933640 
	C31.690752,130.745285 41.540607,135.591309 52.257252,139.012100 
	C53.116821,139.286484 53.858864,139.929047 54.327763,140.700256 
	C36.406567,141.000000 18.813131,141.000000 1.000000,141.000000 
	C1.000000,123.646393 1.000000,106.291855 1.000001,88.468658 
z"/>
<path fill="#000000" opacity="1.000000" stroke="none" 
	d="
M88.468658,141.000000 
	C88.777138,140.302856 89.444069,139.230682 90.348000,138.965042 
	C103.110420,135.214508 113.838295,128.348709 122.933685,118.643959 
	C130.745163,110.309151 135.592407,100.459915 139.012192,89.742706 
	C139.286484,88.883148 139.929077,88.141106 140.700256,87.672226 
	C141.000000,105.593437 141.000000,123.186867 141.000000,141.000000 
	C123.646393,141.000000 106.291855,141.000000 88.468658,141.000000 
z"/>
<path fill="#060600" opacity="1.000000" stroke="none" 
	d="
M46.203587,50.057880 
	C50.437038,46.646858 54.208721,42.084972 59.033978,40.148903 
	C63.847153,38.217678 69.716225,38.918045 75.853279,38.403362 
	C76.990509,34.929253 78.802345,30.984528 79.506981,26.851057 
	C80.450653,21.315413 83.478424,19.858526 88.467667,20.661549 
	C89.581146,20.840765 90.729752,20.801750 92.579597,20.902142 
	C90.687836,27.017851 88.906288,32.777283 87.013885,38.895054 
	C96.430344,38.895054 105.384644,38.895054 114.907639,38.895054 
	C114.150627,41.552998 113.363182,43.811508 112.881691,46.133465 
	C112.245781,49.200214 110.763542,50.392708 107.430252,50.271721 
	C99.621315,49.988300 91.795097,50.181099 83.382683,50.181099 
	C82.044807,54.306561 80.701958,58.447365 79.206017,63.060219 
	C84.363686,63.060219 88.846024,62.977886 93.322678,63.101372 
	C95.074837,63.149700 97.063324,63.216267 98.518242,64.033142 
	C106.709053,68.631943 106.784378,69.021118 103.845474,77.873871 
	C103.636337,78.503860 103.219086,79.100952 103.157578,79.738335 
	C102.159187,90.083366 95.533485,95.536980 86.309952,97.907341 
	C81.609619,99.115288 76.476791,98.894440 71.543884,98.848091 
	C68.575691,98.820198 67.011421,99.597878 66.287949,102.587074 
	C65.391571,106.290619 63.808582,109.834518 63.002155,113.551506 
	C62.146004,117.497665 60.255268,119.282066 56.126362,118.568810 
	C54.547108,118.295990 52.881268,118.524399 50.553837,118.524399 
	C52.610249,111.845016 54.487461,105.747696 56.518089,99.152061 
	C47.479191,99.152061 38.918400,99.152061 29.319118,99.152061 
	C30.700706,94.863876 31.870516,91.233009 33.081165,87.475388 
	C40.913380,87.475388 48.400051,87.249092 55.862698,87.574265 
	C59.403500,87.728546 61.019428,86.470764 61.769161,83.225174 
	C62.396744,80.508377 63.318108,77.859444 64.303238,74.524147 
	C60.002888,74.524147 56.207531,74.667938 52.431614,74.459541 
	C50.711689,74.364616 48.798634,73.940422 47.369511,73.037956 
	C39.213051,67.887268 39.217461,67.811234 42.197296,58.670570 
	C43.204018,55.582451 44.444935,52.570683 45.847847,50.059952 
	C47.239952,51.566319 48.238956,52.760349 49.509357,53.465282 
	C53.332108,55.586498 55.707520,58.197540 52.905842,63.177887 
	C57.550663,63.177887 61.541393,63.339748 65.503883,63.076473 
	C66.650673,63.000278 68.305450,61.939548 68.711357,60.924061 
	C70.050484,57.573883 70.924568,54.037819 72.133751,50.057880 
	C63.141224,50.057880 54.672405,50.057880 46.203587,50.057880 
M75.103508,75.462570 
	C73.920288,79.327332 72.737076,83.192101 71.404129,87.545937 
	C76.807076,87.545937 81.442810,87.656464 86.065559,87.460411 
	C87.092255,87.416862 88.627647,86.511658 88.977219,85.627121 
	C90.347656,82.159409 91.337318,78.541206 92.526146,74.797142 
	C86.475464,74.797142 81.035072,74.797142 75.103508,75.462570 
z"/>
<path fill="#E9E903" opacity="1.000000" stroke="none" 
	d="
M75.349091,75.129852 
	C81.035072,74.797142 86.475464,74.797142 92.526146,74.797142 
	C91.337318,78.541206 90.347656,82.159409 88.977219,85.627121 
	C88.627647,86.511658 87.092255,87.416862 86.065559,87.460411 
	C81.442810,87.656464 76.807076,87.545937 71.404129,87.545937 
	C72.737076,83.192101 73.920288,79.327332 75.349091,75.129852 
z"/>
<path fill="#F0F003" opacity="1.000000" stroke="none" 
	d="
M46.243668,50.027313 
	C54.672405,50.057880 63.141224,50.057880 72.133751,50.057880 
	C70.924568,54.037819 70.050484,57.573883 68.711357,60.924061 
	C68.305450,61.939548 66.650673,63.000278 65.503883,63.076473 
	C61.541393,63.339748 57.550663,63.177887 52.905842,63.177887 
	C55.707520,58.197540 53.332108,55.586498 49.509357,53.465282 
	C48.238956,52.760349 47.239952,51.566319 46.232960,50.257904 
	C46.349045,49.919918 46.283752,49.996742 46.243668,50.027313 
z"/>
</svg>