<svg width="1171" height="612" viewBox="0 0 1171 612" fill="none" xmlns="http://www.w3.org/2000/svg">
<path d="M6.47399 110.46L75.5381 43.9538C79.1716 40.4548 84.0197 38.5 89.0641 38.5H678.767C681.628 38.5 684.457 37.9011 687.073 36.7419L723.332 20.6723C725.82 19.5697 728.512 19 731.233 19H929.31C934.384 19 939.277 17.1184 943.044 13.7191L952.126 5.52333C955.709 2.28984 960.364 0.5 965.19 0.5H1055.52C1060.22 0.5 1064.77 2.19998 1068.32 5.28667L1163.3 87.8979C1167.56 91.6014 1170 96.9679 1170 102.611V537.814C1170 543.286 1167.7 548.507 1163.66 552.201L1105.39 605.511C1101.8 608.799 1097.1 610.623 1092.23 610.623H642.155C637.644 610.623 633.273 609.06 629.786 606.198L582.349 567.275C578.682 564.267 574.087 562.623 569.345 562.623H261.577C256.573 562.623 251.742 564.453 247.994 567.769L220.344 592.229C216.779 595.382 212.183 597.123 207.423 597.123H79.4492C74.4716 597.123 69.6824 595.22 66.063 591.803L6.61375 535.68C2.71155 531.996 0.5 526.866 0.5 521.5V124.506C0.5 119.207 2.65678 114.136 6.47399 110.46Z" fill="#292D32" fill-opacity="0.4" stroke="#262C33"/>
</svg>
