<?xml version="1.0" encoding="utf-8"?>
<!-- Generator: Adobe Illustrator 26.0.0, SVG Export Plug-In . SVG Version: 6.00 Build 0)  -->
<svg version="1.1" id="Capa_1" xmlns="http://www.w3.org/2000/svg" xmlns:xlink="http://www.w3.org/1999/xlink" x="0px" y="0px"
	 viewBox="0 0 32 32" style="enable-background:new 0 0 32 32;" xml:space="preserve">
<style type="text/css">
	.st0{fill:#FC8D08;}
	.st1{fill:#FEFEFE;}
</style>
<circle class="st0" cx="16" cy="16" r="16"/>
<path class="st1" d="M7.8,16.7c0.2-0.2,0.3-0.4,0.5-0.5c0.6-0.4,2.1-0.5,1.6-1.3c-0.6-1-0.9-2.8-2.5-2.7c-1.6,0.1-1.3-1-1.2-1.6
	c0.2-1.6,0.7,0.8,1.3-0.1C7.9,9.7,8.8,10,9.5,10c1.1,0.1,1.8-0.1,1.6-1.5C11,7.7,11.4,7.1,12.3,7C13,7,13.9,6.6,14.1,7.8
	c0.2,1.1,1,0.7,1.5,0.7c0.8,0,1.5,0.2,1.7,1.1c0.2,1.2-1,0.8-1.5,1.2c6.6,4,8.2,7.6,5.5,11.9c3.2,0.6,5-1.3,4.4-4.4
	c-0.4-2.4-1.1-4.8-0.5-7.3c0.3,2.6,1.2,5,1.7,7.6c0.4,2.2-0.9,5.3-4.3,5.4c-4.2,0.1-8.4,0-12.8,0c0.9-2.5,2.9-1.1,4.4-1.6
	c-0.1-0.7-0.2-1.3-0.3-2c-0.8,0.3,0,1.1-0.7,1.5c-1-0.8-1.8-1.9-2-3.1C10.8,16.5,9.8,16,7.8,16.7z"/>
</svg>
