<?xml version="1.0" encoding="utf-8"?>
<!-- Generator: Adobe Illustrator 26.0.0, SVG Export Plug-In . SVG Version: 6.00 Build 0)  -->
<svg version="1.1" id="Capa_1" xmlns="http://www.w3.org/2000/svg" xmlns:xlink="http://www.w3.org/1999/xlink" x="0px" y="0px"
	 viewBox="0 0 32 32" style="enable-background:new 0 0 32 32;" xml:space="preserve">
<style type="text/css">
	.st0{fill:#FFFFFF;}
	.st1{fill:#6667AA;}
	.st2{fill:#B1B2D4;}
	.st3{fill:#8A8CBF;}
	.st4{fill:#787AB4;}
</style>
<circle class="st0" cx="16" cy="16" r="16"/>
<g>
	<path class="st1" d="M24.2,16.4c-2.1,2.2-4.2,4.3-6.2,6.5c-0.4,0.4-0.6,0.9-1.3,0.9c0-5.3,0-10.6,0-15.9c0.1,0,0.2,0,0.3,0
		c0.6,0.2,1,0.5,1.4,1c1.6,1.8,3.4,3.4,4.9,5.3c0.3,0.4,0.7,0.8,1,1.3C24.2,15.7,24.2,16,24.2,16.4z"/>
	<path class="st2" d="M15.6,7.8c0,1,0,2,0,3c-1.3,1.1-2.7,1.9-4.1,2.8c-0.8,0.5-0.8,0.8,0,1.3c1.1,0.7,1.1,1,0,1.7
		c-0.8,0.5-0.7,0.8,0,1.3c1.4,0.9,2.8,1.7,4.1,2.8c0,0.7,0,1.4,0,2.1c0.1,1-0.4,0.9-1,0.5c-1.9-1.3-3.7-2.5-5.6-3.8
		c-1.2-0.8-1.2-0.9,0-1.7c0.2-0.2,0.5-0.4,0.7-0.6c-0.3-0.7-1.6-0.7-1.6-1.6c0-0.8,1.1-0.8,1.6-1.5c-0.1-0.1-0.1-0.2-0.2-0.2
		c-1.8-1.3-1.8-1.3,0.1-2.5c1.8-1.2,3.6-2.5,5.4-3.7C15.3,7.8,15.5,7.8,15.6,7.8z"/>
	<path class="st3" d="M15.6,20.9c-1.9-0.8-3.4-2.1-5.1-3.2c-0.4-0.3-0.2-0.4,0.1-0.6c0.2-0.1,0.3-0.3,0.5-0.4c1.2-0.8,1.2-0.9,0-1.6
		c-1-0.6-0.8-1,0.1-1.5c1.6-0.9,2.8-2.2,4.5-2.8c0,1,0,2,0,3c-0.6,0.7-1.4,1-2.1,1.5c-0.5,0.4-0.5,0.6,0,1c0.7,0.5,1.5,0.8,2.1,1.5
		C15.6,18.9,15.6,19.9,15.6,20.9z"/>
	<path class="st4" d="M15.6,17.9c-1.1-0.3-1.9-1.1-2.8-1.7c-0.4-0.2-0.4-0.4,0-0.6c0.9-0.6,1.7-1.4,2.8-1.7
		C15.6,15.2,15.6,16.5,15.6,17.9z"/>
</g>
</svg>
