<svg version="1.1" id="Layer_1" xmlns="http://www.w3.org/2000/svg" xmlns:xlink="http://www.w3.org/1999/xlink" x="0px" y="0px"
	 width="100%" viewBox="0 0 5000 5000" enable-background="new 0 0 5000 5000" xml:space="preserve">
<path fill="#000000" opacity="1.000000" stroke="none" 
	d="
M2900.000000,5004.000000 
	C1933.333374,5004.000000 968.666687,5004.000000 4.000000,5004.000000 
	C4.000000,3337.333252 4.000000,1670.666626 4.000000,4.000001 
	C1670.666626,4.000000 3337.333252,4.000000 5004.000000,4.000000 
	C5004.000000,1670.666626 5004.000000,3337.333252 5004.000000,5004.000000 
	C4303.333496,5004.000000 3602.666748,5004.000000 2900.000000,5004.000000 
M1560.226685,4765.792480 
	C1570.055420,4769.913574 1579.808716,4774.226562 1589.725220,4778.124512 
	C1658.603149,4805.198242 1728.202515,4830.186035 1799.167480,4851.325684 
	C1958.025269,4898.648438 2119.738770,4930.979980 2285.057617,4944.569336 
	C2303.636719,4946.096680 2322.211182,4947.774414 2340.818848,4948.842773 
	C2382.017334,4951.208496 2423.213379,4954.176758 2464.451416,4955.135742 
	C2509.046143,4956.172852 2553.663574,4956.595215 2598.281738,4952.928223 
	C2626.111084,4950.640625 2654.157959,4951.678711 2682.067383,4948.704590 
	C2718.468018,4944.824219 2755.186523,4943.669922 2791.472656,4939.030762 
	C2846.290283,4932.021973 2901.084473,4924.310547 2955.474609,4914.583008 
	C3059.895996,4895.906738 3162.489014,4869.607910 3263.520020,4837.123535 
	C3359.472656,4806.272949 3453.236084,4769.805176 3544.443848,4727.071777 
	C3593.298096,4704.183105 3641.015137,4678.811035 3688.800781,4653.712891 
	C3740.750732,4626.428711 3790.817627,4595.851562 3840.063721,4563.964355 
	C3921.822754,4511.024414 4000.967041,4454.450195 4075.284180,4391.413574 
	C4115.917969,4356.947754 4156.577148,4322.380859 4195.296875,4285.818359 
	C4269.960449,4215.314941 4340.281738,4140.638672 4405.645508,4061.285156 
	C4460.801758,3994.323730 4512.458984,3924.829346 4560.403320,3852.603271 
	C4597.267090,3797.069336 4631.835938,3740.104492 4663.752930,3681.523438 
	C4709.078125,3598.333008 4750.498535,3513.289307 4786.336426,3425.598633 
	C4814.334473,3357.091553 4839.285645,3287.474609 4860.709961,3216.586182 
	C4882.125977,3145.724365 4900.616699,3074.145752 4915.989746,3001.741943 
	C4928.587891,2942.406250 4938.489258,2882.600586 4946.744629,2822.536621 
	C4950.731934,2793.526123 4953.320801,2764.316895 4956.224121,2735.166016 
	C4958.071777,2716.617188 4959.566895,2698.025879 4960.807617,2679.425781 
	C4963.200195,2643.563232 4966.728516,2607.699951 4967.209961,2571.802734 
	C4968.077148,2507.209473 4969.447754,2442.617188 4965.052734,2377.985107 
	C4962.387695,2338.799561 4960.273438,2299.591064 4956.683594,2260.454834 
	C4952.666992,2216.664551 4947.149902,2173.095947 4940.938477,2129.573975 
	C4929.534180,2049.665527 4913.288574,1970.725098 4893.766602,1892.473145 
	C4871.321289,1802.503174 4843.486816,1714.147705 4810.710449,1627.404175 
	C4790.213379,1573.157959 4768.277344,1519.454224 4743.359375,1467.076416 
	C4723.900391,1426.171875 4703.485352,1385.710327 4682.896973,1345.357544 
	C4649.847656,1280.582031 4612.234375,1218.436157 4572.762207,1157.415161 
	C4532.191406,1094.695923 4488.562500,1034.155151 4442.448242,975.384338 
	C4401.288574,922.927429 4358.375000,871.902100 4312.619629,823.473328 
	C4243.031738,749.820007 4170.642090,679.032043 4092.781738,613.915039 
	C4031.368408,562.553650 3968.137695,513.665344 3902.154297,468.408600 
	C3792.592041,393.261780 3678.041748,326.758698 3557.646973,270.309204 
	C3482.739746,235.187408 3406.494873,203.461884 3328.548584,175.845520 
	C3206.436523,132.581116 3081.575439,99.485619 2954.149414,76.147476 
	C2884.018066,63.302856 2813.392822,54.244560 2742.439453,47.033131 
	C2693.359375,42.044815 2644.137207,40.308830 2594.995361,37.062183 
	C2562.462646,34.912838 2529.698486,35.848515 2497.042725,36.089153 
	C2459.087402,36.368855 2421.131348,35.832138 2383.213623,39.417202 
	C2353.401123,42.235962 2323.307861,42.104202 2293.500977,44.964123 
	C2251.758301,48.969208 2210.120361,54.183582 2168.518799,59.512398 
	C2095.769043,68.830994 2023.785645,82.507698 1952.360718,99.094734 
	C1850.964111,122.642044 1751.322754,152.098480 1653.706909,188.330292 
	C1588.687866,212.463257 1524.565430,238.817719 1462.201294,269.122406 
	C1413.662598,292.708832 1365.830933,317.785126 1318.077026,342.943176 
	C1257.870605,374.661652 1200.396851,411.048706 1143.793701,448.690216 
	C1089.958008,484.491211 1037.802734,522.701172 986.934998,562.679138 
	C932.406067,605.534485 879.699402,650.534851 829.213562,697.995483 
	C768.993225,754.607239 711.228760,813.684448 657.043762,876.225525 
	C608.139465,932.671631 561.386536,990.749329 517.411560,1051.134644 
	C450.983978,1142.350952 391.263977,1237.762817 337.982727,1337.148315 
	C299.547607,1408.841187 264.728973,1482.338989 233.845154,1557.636597 
	C183.924026,1679.348877 143.540680,1804.126587 113.708916,1932.292603 
	C87.542717,2044.710205 68.598106,2158.268555 59.358143,2273.377441 
	C57.866501,2291.959961 56.162502,2310.531250 55.069935,2329.138184 
	C52.729019,2369.004883 49.702148,2408.869629 48.850945,2448.775635 
	C47.885529,2494.035889 48.395554,2539.290039 50.853828,2584.609375 
	C53.270313,2629.158447 54.509949,2673.755615 59.344162,2718.146729 
	C63.308010,2754.545410 66.864662,2790.996582 71.419533,2827.321777 
	C81.708435,2909.375732 97.367798,2990.454834 116.530663,3070.887939 
	C144.388260,3187.815674 180.734879,3302.065430 225.715347,3413.481201 
	C259.663055,3497.569092 297.938965,3579.675293 341.170746,3659.496826 
	C376.434998,3724.606934 414.149261,3788.195801 454.894867,3849.971191 
	C500.059967,3918.447266 548.851074,3984.266846 600.547302,4048.001221 
	C640.458557,4097.206543 682.402893,4144.591797 725.805786,4190.644043 
	C774.723022,4242.548340 826.442566,4291.622070 879.939148,4338.861816 
	C921.927612,4375.938477 965.000854,4411.654785 1009.324280,4445.843750 
	C1121.471802,4532.350098 1240.437988,4608.331055 1365.687988,4674.400391 
	C1428.199707,4707.375000 1492.194946,4737.300781 1560.226685,4765.792480 
z"/>
<path fill="#161E53" opacity="1.000000" stroke="none" 
	d="
M1558.817871,4765.188477 
	C1492.194946,4737.300781 1428.199707,4707.375000 1365.687988,4674.400391 
	C1240.437988,4608.331055 1121.471802,4532.350098 1009.324280,4445.843750 
	C965.000854,4411.654785 921.927612,4375.938477 879.939148,4338.861816 
	C826.442566,4291.622070 774.723022,4242.548340 725.805786,4190.644043 
	C682.402893,4144.591797 640.458557,4097.206543 600.547302,4048.001221 
	C548.851074,3984.266846 500.059967,3918.447266 454.894867,3849.971191 
	C414.149261,3788.195801 376.434998,3724.606934 341.170746,3659.496826 
	C297.938965,3579.675293 259.663055,3497.569092 225.715347,3413.481201 
	C180.734879,3302.065430 144.388260,3187.815674 116.530663,3070.887939 
	C97.367798,2990.454834 81.708435,2909.375732 71.419533,2827.321777 
	C66.864662,2790.996582 63.308010,2754.545410 59.344162,2718.146729 
	C54.509949,2673.755615 53.270313,2629.158447 50.853828,2584.609375 
	C48.395554,2539.290039 47.885529,2494.035889 48.850945,2448.775635 
	C49.702148,2408.869629 52.729019,2369.004883 55.069935,2329.138184 
	C56.162502,2310.531250 57.866501,2291.959961 59.358143,2273.377441 
	C68.598106,2158.268555 87.542717,2044.710205 113.708916,1932.292603 
	C143.540680,1804.126587 183.924026,1679.348877 233.845154,1557.636597 
	C264.728973,1482.338989 299.547607,1408.841187 337.982727,1337.148315 
	C391.263977,1237.762817 450.983978,1142.350952 517.411560,1051.134644 
	C561.386536,990.749329 608.139465,932.671631 657.043762,876.225525 
	C711.228760,813.684448 768.993225,754.607239 829.213562,697.995483 
	C879.699402,650.534851 932.406067,605.534485 986.934998,562.679138 
	C1037.802734,522.701172 1089.958008,484.491211 1143.793701,448.690216 
	C1200.396851,411.048706 1257.870605,374.661652 1318.077026,342.943176 
	C1365.830933,317.785126 1413.662598,292.708832 1462.201294,269.122406 
	C1524.565430,238.817719 1588.687866,212.463257 1653.706909,188.330292 
	C1751.322754,152.098480 1850.964111,122.642044 1952.360718,99.094734 
	C2023.785645,82.507698 2095.769043,68.830994 2168.518799,59.512398 
	C2210.120361,54.183582 2251.758301,48.969208 2293.500977,44.964123 
	C2323.307861,42.104202 2353.401123,42.235962 2383.213623,39.417202 
	C2421.131348,35.832138 2459.087402,36.368855 2497.042725,36.089153 
	C2529.698486,35.848515 2562.462646,34.912838 2594.995361,37.062183 
	C2644.137207,40.308830 2693.359375,42.044815 2742.439453,47.033131 
	C2813.392822,54.244560 2884.018066,63.302856 2954.149414,76.147476 
	C3081.575439,99.485619 3206.436523,132.581116 3328.548584,175.845520 
	C3406.494873,203.461884 3482.739746,235.187408 3557.646973,270.309204 
	C3678.041748,326.758698 3792.592041,393.261780 3902.154297,468.408600 
	C3968.137695,513.665344 4031.368408,562.553650 4092.781738,613.915039 
	C4170.642090,679.032043 4243.031738,749.820007 4312.619629,823.473328 
	C4358.375000,871.902100 4401.288574,922.927429 4442.448242,975.384338 
	C4488.562500,1034.155151 4532.191406,1094.695923 4572.762207,1157.415161 
	C4612.234375,1218.436157 4649.847656,1280.582031 4682.896973,1345.357544 
	C4703.485352,1385.710327 4723.900391,1426.171875 4743.359375,1467.076416 
	C4768.277344,1519.454224 4790.213379,1573.157959 4810.710449,1627.404175 
	C4843.486816,1714.147705 4871.321289,1802.503174 4893.766602,1892.473145 
	C4913.288574,1970.725098 4929.534180,2049.665527 4940.938477,2129.573975 
	C4947.149902,2173.095947 4952.666992,2216.664551 4956.683594,2260.454834 
	C4960.273438,2299.591064 4962.387695,2338.799561 4965.052734,2377.985107 
	C4969.447754,2442.617188 4968.077148,2507.209473 4967.209961,2571.802734 
	C4966.728516,2607.699951 4963.200195,2643.563232 4960.807617,2679.425781 
	C4959.566895,2698.025879 4958.071777,2716.617188 4956.224121,2735.166016 
	C4953.320801,2764.316895 4950.731934,2793.526123 4946.744629,2822.536621 
	C4938.489258,2882.600586 4928.587891,2942.406250 4915.989746,3001.741943 
	C4900.616699,3074.145752 4882.125977,3145.724365 4860.709961,3216.586182 
	C4839.285645,3287.474609 4814.334473,3357.091553 4786.336426,3425.598633 
	C4750.498535,3513.289307 4709.078125,3598.333008 4663.752930,3681.523438 
	C4631.835938,3740.104492 4597.267090,3797.069336 4560.403320,3852.603271 
	C4512.458984,3924.829346 4460.801758,3994.323730 4405.645508,4061.285156 
	C4340.281738,4140.638672 4269.960449,4215.314941 4195.296875,4285.818359 
	C4156.577148,4322.380859 4115.917969,4356.947754 4075.284180,4391.413574 
	C4000.967041,4454.450195 3921.822754,4511.024414 3840.063721,4563.964355 
	C3790.817627,4595.851562 3740.750732,4626.428711 3688.800781,4653.712891 
	C3641.015137,4678.811035 3593.298096,4704.183105 3544.443848,4727.071777 
	C3453.236084,4769.805176 3359.472656,4806.272949 3263.520020,4837.123535 
	C3162.489014,4869.607910 3059.895996,4895.906738 2955.474609,4914.583008 
	C2901.084473,4924.310547 2846.290283,4932.021973 2791.472656,4939.030762 
	C2755.186523,4943.669922 2718.468018,4944.824219 2682.067383,4948.704590 
	C2654.157959,4951.678711 2626.111084,4950.640625 2598.281738,4952.928223 
	C2553.663574,4956.595215 2509.046143,4956.172852 2464.451416,4955.135742 
	C2423.213379,4954.176758 2382.017334,4951.208496 2340.818848,4948.842773 
	C2322.211182,4947.774414 2303.636719,4946.096680 2285.057617,4944.569336 
	C2119.738770,4930.979980 1958.025269,4898.648438 1799.167480,4851.325684 
	C1728.202515,4830.186035 1658.603149,4805.198242 1589.725220,4778.124512 
	C1579.808716,4774.226562 1570.055420,4769.913574 1558.817871,4765.188477 
M1764.321777,3742.260498 
	C1758.190674,3761.594971 1748.410400,3779.760498 1744.024902,3801.238037 
	C1752.221436,3801.533203 1758.740479,3801.956543 1765.260498,3801.970947 
	C1797.258667,3802.041260 1829.257568,3802.102539 1861.255493,3801.980469 
	C1910.579102,3801.792725 1959.903809,3801.130615 2009.224243,3801.383301 
	C2023.287476,3801.455322 2031.867920,3796.070068 2036.538086,3783.042480 
	C2040.131836,3773.018066 2044.615234,3763.316162 2048.383057,3753.349854 
	C2074.998291,3682.948730 2101.520996,3612.513184 2128.104736,3542.100098 
	C2130.456299,3535.871094 2133.009033,3529.717529 2135.507080,3523.544434 
	C2139.648438,3513.311279 2147.821045,3508.083496 2158.154541,3505.966064 
	C2162.024658,3505.173340 2166.109131,3505.231689 2170.095703,3505.229248 
	C2230.752686,3505.191895 2291.409668,3505.180664 2352.066650,3505.282715 
	C2355.795410,3505.289062 2359.522461,3506.294922 2363.128418,3506.817871 
	C2365.567139,3514.329834 2362.661133,3519.718506 2360.598389,3525.260254 
	C2349.213379,3555.846680 2337.840576,3586.437500 2326.502686,3617.041260 
	C2306.142090,3672.001465 2285.731201,3726.943359 2265.591553,3781.984863 
	C2263.665527,3787.249023 2259.636475,3792.574219 2263.123291,3799.810303 
	C2268.049316,3800.251221 2273.272217,3801.076660 2278.502686,3801.129883 
	C2315.825439,3801.509521 2353.149658,3801.956543 2390.473389,3801.944580 
	C2433.130127,3801.930908 2475.786621,3801.440918 2518.443604,3801.203857 
	C2547.481934,3801.042480 2548.461914,3800.693604 2559.021729,3773.020264 
	C2575.405273,3730.083496 2591.278076,3686.951904 2607.542480,3643.969238 
	C2622.392578,3604.724365 2637.716553,3565.657471 2652.322998,3526.323242 
	C2657.357666,3512.764404 2666.494385,3505.873047 2680.478516,3504.728760 
	C2687.785156,3504.130859 2695.108398,3503.719482 2702.429688,3503.320068 
	C2752.377197,3500.594482 2802.055420,3495.708252 2851.235352,3486.162354 
	C2933.446533,3470.204590 3011.950439,3443.194336 3087.805420,3408.015625 
	C3209.920410,3351.383545 3319.675049,3277.133545 3413.837402,3180.437012 
	C3488.859375,3103.396240 3549.891113,3016.437744 3598.189941,2920.526611 
	C3640.601318,2836.307129 3673.709473,2748.669922 3693.697510,2656.273682 
	C3704.996338,2604.044678 3712.376465,2551.267578 3715.018311,2497.978516 
	C3717.327393,2451.398438 3718.398926,2404.702148 3712.748047,2358.183105 
	C3709.614990,2332.390137 3706.828125,2306.553467 3703.468994,2280.790771 
	C3698.733398,2244.468262 3694.377197,2208.083008 3685.564453,2172.413330 
	C3653.413574,2042.279419 3599.515137,1921.994141 3522.543213,1812.171021 
	C3480.323975,1751.932983 3432.054443,1696.861084 3379.396973,1645.571411 
	C3374.702393,1640.998535 3370.260498,1636.166138 3365.495850,1631.242310 
	C3367.915527,1624.132568 3369.876465,1617.842407 3372.181396,1611.680786 
	C3395.286377,1549.921631 3418.437256,1488.179810 3441.596191,1426.440918 
	C3471.538330,1346.618530 3501.563965,1266.827271 3531.319092,1186.935181 
	C3533.481934,1181.128296 3538.099121,1175.354980 3534.875488,1167.858276 
	C3532.095215,1167.509399 3529.502441,1166.912109 3526.906738,1166.901245 
	C3505.574951,1166.811035 3484.241699,1166.961792 3462.910645,1166.789429 
	C3408.270508,1166.347778 3353.631592,1165.760010 3298.991699,1165.282959 
	C3292.999023,1165.230591 3286.992432,1165.331909 3281.010742,1165.680786 
	C3257.635010,1167.043823 3242.657471,1179.083618 3235.852539,1201.453369 
	C3232.557861,1212.284424 3229.676758,1223.283325 3225.662598,1233.846924 
	C3197.037598,1309.178345 3168.185791,1384.423462 3139.313965,1459.660767 
	C3138.171631,1462.638062 3136.101807,1465.259399 3133.900635,1469.006104 
	C3069.246094,1442.646362 3005.249023,1416.554932 2940.345215,1390.093506 
	C2942.592529,1383.266602 2944.240723,1377.635986 2946.282959,1372.152100 
	C2969.761963,1309.110474 2993.324707,1246.099976 3016.774902,1183.047607 
	C3018.516846,1178.363403 3022.215332,1173.729980 3018.220947,1167.514771 
	C3013.337402,1167.290283 3008.074951,1166.857056 3002.810791,1166.839722 
	C2979.478760,1166.762817 2956.146240,1166.885620 2932.814209,1166.788208 
	C2881.491699,1166.573975 2830.169434,1166.273438 2778.847168,1165.998779 
	C2772.848145,1165.966675 2766.843262,1166.030273 2760.852051,1165.783569 
	C2742.591064,1165.031860 2730.153076,1172.782959 2724.323730,1190.411499 
	C2723.696045,1192.308960 2723.027588,1194.193359 2722.346924,1196.072388 
	C2707.832275,1236.151245 2693.316162,1276.229614 2678.790283,1316.304443 
	C2676.975342,1321.311523 2674.919189,1326.238770 2673.296875,1331.306152 
	C2668.793457,1345.372437 2658.837891,1351.378418 2644.538574,1351.234985 
	C2640.539307,1351.194946 2636.538818,1351.288086 2632.539307,1351.265259 
	C2607.210449,1351.120239 2581.881348,1350.843506 2556.552490,1350.826172 
	C2473.223145,1350.769165 2389.893799,1350.710815 2306.564941,1350.903076 
	C2293.774902,1350.932617 2281.409180,1349.385010 2269.075928,1346.084229 
	C2227.901367,1335.064087 2186.666504,1324.266846 2145.407715,1313.564697 
	C2139.808350,1312.112305 2134.130615,1309.213501 2126.593994,1312.701904 
	C1852.660645,2039.668091 1578.363525,2767.596924 1304.117554,3495.545166 
	C1303.247070,3497.855713 1303.122559,3500.447510 1302.511108,3503.629395 
	C1310.731445,3507.310791 1318.787231,3505.934570 1326.546631,3505.938477 
	C1491.205200,3506.024414 1655.863647,3506.002441 1820.522217,3506.008057 
	C1827.188232,3506.008301 1833.862305,3505.889648 1840.516602,3506.186523 
	C1843.596191,3506.323975 1846.636841,3507.329102 1849.328369,3507.867676 
	C1849.650635,3510.293945 1850.318237,3511.760498 1849.919922,3512.830078 
	C1821.798462,3588.352295 1793.591919,3663.842529 1764.321777,3742.260498 
z"/>
<path fill="#FEBA51" opacity="1.000000" stroke="none" 
	d="
M1764.857056,3740.798096 
	C1793.591919,3663.842529 1821.798462,3588.352295 1849.919922,3512.830078 
	C1850.318237,3511.760498 1849.650635,3510.293945 1849.328369,3507.867676 
	C1846.636841,3507.329102 1843.596191,3506.323975 1840.516602,3506.186523 
	C1833.862305,3505.889648 1827.188232,3506.008301 1820.522217,3506.008057 
	C1655.863647,3506.002441 1491.205200,3506.024414 1326.546631,3505.938477 
	C1318.787231,3505.934570 1310.731445,3507.310791 1302.511108,3503.629395 
	C1303.122559,3500.447510 1303.247070,3497.855713 1304.117554,3495.545166 
	C1578.363525,2767.596924 1852.660645,2039.668091 2126.593994,1312.701904 
	C2134.130615,1309.213501 2139.808350,1312.112305 2145.407715,1313.564697 
	C2186.666504,1324.266846 2227.901367,1335.064087 2269.075928,1346.084229 
	C2281.409180,1349.385010 2293.774902,1350.932617 2306.564941,1350.903076 
	C2389.893799,1350.710815 2473.223145,1350.769165 2556.552490,1350.826172 
	C2581.881348,1350.843506 2607.210449,1351.120239 2632.539307,1351.265259 
	C2636.538818,1351.288086 2640.539307,1351.194946 2644.538574,1351.234985 
	C2658.837891,1351.378418 2668.793457,1345.372437 2673.296875,1331.306152 
	C2674.919189,1326.238770 2676.975342,1321.311523 2678.790283,1316.304443 
	C2693.316162,1276.229614 2707.832275,1236.151245 2722.346924,1196.072388 
	C2723.027588,1194.193359 2723.696045,1192.308960 2724.323730,1190.411499 
	C2730.153076,1172.782959 2742.591064,1165.031860 2760.852051,1165.783569 
	C2766.843262,1166.030273 2772.848145,1165.966675 2778.847168,1165.998779 
	C2830.169434,1166.273438 2881.491699,1166.573975 2932.814209,1166.788208 
	C2956.146240,1166.885620 2979.478760,1166.762817 3002.810791,1166.839722 
	C3008.074951,1166.857056 3013.337402,1167.290283 3018.220947,1167.514771 
	C3022.215332,1173.729980 3018.516846,1178.363403 3016.774902,1183.047607 
	C2993.324707,1246.099976 2969.761963,1309.110474 2946.282959,1372.152100 
	C2944.240723,1377.635986 2942.592529,1383.266602 2940.345215,1390.093506 
	C3005.249023,1416.554932 3069.246094,1442.646362 3133.900635,1469.006104 
	C3136.101807,1465.259399 3138.171631,1462.638062 3139.313965,1459.660767 
	C3168.185791,1384.423462 3197.037598,1309.178345 3225.662598,1233.846924 
	C3229.676758,1223.283325 3232.557861,1212.284424 3235.852539,1201.453369 
	C3242.657471,1179.083618 3257.635010,1167.043823 3281.010742,1165.680786 
	C3286.992432,1165.331909 3292.999023,1165.230591 3298.991699,1165.282959 
	C3353.631592,1165.760010 3408.270508,1166.347778 3462.910645,1166.789429 
	C3484.241699,1166.961792 3505.574951,1166.811035 3526.906738,1166.901245 
	C3529.502441,1166.912109 3532.095215,1167.509399 3534.875488,1167.858276 
	C3538.099121,1175.354980 3533.481934,1181.128296 3531.319092,1186.935181 
	C3501.563965,1266.827271 3471.538330,1346.618530 3441.596191,1426.440918 
	C3418.437256,1488.179810 3395.286377,1549.921631 3372.181396,1611.680786 
	C3369.876465,1617.842407 3367.915527,1624.132568 3365.495850,1631.242310 
	C3370.260498,1636.166138 3374.702393,1640.998535 3379.396973,1645.571411 
	C3432.054443,1696.861084 3480.323975,1751.932983 3522.543213,1812.171021 
	C3599.515137,1921.994141 3653.413574,2042.279419 3685.564453,2172.413330 
	C3694.377197,2208.083008 3698.733398,2244.468262 3703.468994,2280.790771 
	C3706.828125,2306.553467 3709.614990,2332.390137 3712.748047,2358.183105 
	C3718.398926,2404.702148 3717.327393,2451.398438 3715.018311,2497.978516 
	C3712.376465,2551.267578 3704.996338,2604.044678 3693.697510,2656.273682 
	C3673.709473,2748.669922 3640.601318,2836.307129 3598.189941,2920.526611 
	C3549.891113,3016.437744 3488.859375,3103.396240 3413.837402,3180.437012 
	C3319.675049,3277.133545 3209.920410,3351.383545 3087.805420,3408.015625 
	C3011.950439,3443.194336 2933.446533,3470.204590 2851.235352,3486.162354 
	C2802.055420,3495.708252 2752.377197,3500.594482 2702.429688,3503.320068 
	C2695.108398,3503.719482 2687.785156,3504.130859 2680.478516,3504.728760 
	C2666.494385,3505.873047 2657.357666,3512.764404 2652.322998,3526.323242 
	C2637.716553,3565.657471 2622.392578,3604.724365 2607.542480,3643.969238 
	C2591.278076,3686.951904 2575.405273,3730.083496 2559.021729,3773.020264 
	C2548.461914,3800.693604 2547.481934,3801.042480 2518.443604,3801.203857 
	C2475.786621,3801.440918 2433.130127,3801.930908 2390.473389,3801.944580 
	C2353.149658,3801.956543 2315.825439,3801.509521 2278.502686,3801.129883 
	C2273.272217,3801.076660 2268.049316,3800.251221 2263.123291,3799.810303 
	C2259.636475,3792.574219 2263.665527,3787.249023 2265.591553,3781.984863 
	C2285.731201,3726.943359 2306.142090,3672.001465 2326.502686,3617.041260 
	C2337.840576,3586.437500 2349.213379,3555.846680 2360.598389,3525.260254 
	C2362.661133,3519.718506 2365.567139,3514.329834 2363.128418,3506.817871 
	C2359.522461,3506.294922 2355.795410,3505.289062 2352.066650,3505.282715 
	C2291.409668,3505.180664 2230.752686,3505.191895 2170.095703,3505.229248 
	C2166.109131,3505.231689 2162.024658,3505.173340 2158.154541,3505.966064 
	C2147.821045,3508.083496 2139.648438,3513.311279 2135.507080,3523.544434 
	C2133.009033,3529.717529 2130.456299,3535.871094 2128.104736,3542.100098 
	C2101.520996,3612.513184 2074.998291,3682.948730 2048.383057,3753.349854 
	C2044.615234,3763.316162 2040.131836,3773.018066 2036.538086,3783.042480 
	C2031.867920,3796.070068 2023.287476,3801.455322 2009.224243,3801.383301 
	C1959.903809,3801.130615 1910.579102,3801.792725 1861.255493,3801.980469 
	C1829.257568,3802.102539 1797.258667,3802.041260 1765.260498,3801.970947 
	C1758.740479,3801.956543 1752.221436,3801.533203 1744.024902,3801.238037 
	C1748.410400,3779.760498 1758.190674,3761.594971 1764.857056,3740.798096 
M2186.208984,2620.250488 
	C2238.261475,2482.598145 2289.517578,2344.638184 2342.560791,2207.368652 
	C2414.572021,2021.012573 2482.918213,1833.300537 2552.499756,1646.044189 
	C2554.541992,1640.548462 2558.160400,1635.339233 2556.051025,1628.059937 
	C2551.803467,1627.651367 2547.293457,1626.843750 2542.782227,1626.839233 
	C2465.470215,1626.761475 2388.158203,1626.758301 2310.846191,1626.845459 
	C2306.310303,1626.850586 2301.775391,1627.763062 2297.143799,1628.263550 
	C2293.951660,1636.329712 2290.912109,1643.709106 2288.094971,1651.172485 
	C2119.246582,2098.483887 1950.419067,2545.803467 1781.582520,2993.119385 
	C1753.600098,3067.256836 1725.510010,3141.354004 1697.732056,3215.567871 
	C1695.542969,3221.416504 1690.697266,3227.160889 1694.053833,3234.645020 
	C1697.382324,3234.854736 1700.687256,3235.243408 1703.992432,3235.244629 
	C1775.967163,3235.274902 1847.942017,3235.270264 1919.916748,3235.237793 
	C1924.579224,3235.235840 1929.242920,3234.979004 1933.904053,3234.794922 
	C1947.167358,3234.270996 1956.773071,3228.587158 1961.327148,3215.558350 
	C1962.863525,3211.163330 1964.901611,3206.946289 1966.533936,3202.581787 
	C1979.831909,3167.031250 1992.973877,3131.421875 2006.376587,3095.910889 
	C2065.866943,2938.288330 2125.427979,2780.692139 2186.208984,2620.250488 
M3416.215576,2201.997070 
	C3391.326172,2117.434814 3351.993164,2039.947632 3301.195312,1968.157471 
	C3288.277100,1949.901001 3275.990234,1931.016357 3258.061035,1913.969116 
	C3254.228516,1923.678101 3251.012939,1931.491821 3248.042480,1939.397949 
	C3089.708252,2360.859863 2931.393555,2782.329346 2773.087402,3203.802246 
	C2771.448730,3208.165527 2769.736816,3212.519531 2768.445068,3216.989502 
	C2766.785156,3222.732178 2770.899902,3227.974854 2776.677490,3227.598389 
	C2779.303223,3227.427490 2781.928955,3226.818848 2784.490234,3226.158936 
	C2878.433105,3201.941406 2968.815674,3168.668945 3053.271729,3120.351074 
	C3203.054932,3034.658936 3312.539551,2913.284180 3378.250488,2753.188721 
	C3406.219482,2685.046387 3424.383301,2614.209717 3435.635498,2541.548340 
	C3443.398438,2491.421387 3447.515137,2441.006348 3445.982422,2390.215576 
	C3444.083984,2327.304932 3435.053467,2265.522461 3416.215576,2201.997070 
M2992.060547,1854.119263 
	C3008.063965,1811.204834 3024.946533,1768.611450 3040.293945,1725.499268 
	C3037.994873,1723.498535 3036.753174,1721.734131 3035.072510,1721.054077 
	C2972.229736,1695.624512 2909.346924,1670.294800 2847.011475,1645.170166 
	C2839.778564,1651.201660 2838.801025,1658.859741 2836.270264,1665.556274 
	C2668.909424,2108.400635 2501.657471,2551.286377 2334.395996,2994.168213 
	C2306.401611,3068.293213 2278.385498,3142.410156 2250.462158,3216.562012 
	C2248.444092,3221.921143 2244.577148,3227.085938 2247.143311,3233.349365 
	C2265.516846,3235.541748 2453.242188,3235.322266 2470.448730,3232.889404 
	C2473.483643,3225.080566 2476.892090,3216.513916 2480.153076,3207.890869 
	C2556.225342,3006.727051 2632.262451,2805.549805 2708.346436,2604.390381 
	C2802.567871,2355.275635 2896.825928,2106.174561 2992.060547,1854.119263 
z"/>
<path fill="#171F53" opacity="1.000000" stroke="none" 
	d="
M2185.586426,2621.668457 
	C2125.427979,2780.692139 2065.866943,2938.288330 2006.376587,3095.910889 
	C1992.973877,3131.421875 1979.831909,3167.031250 1966.533936,3202.581787 
	C1964.901611,3206.946289 1962.863525,3211.163330 1961.327148,3215.558350 
	C1956.773071,3228.587158 1947.167358,3234.270996 1933.904053,3234.794922 
	C1929.242920,3234.979004 1924.579224,3235.235840 1919.916748,3235.237793 
	C1847.942017,3235.270264 1775.967163,3235.274902 1703.992432,3235.244629 
	C1700.687256,3235.243408 1697.382324,3234.854736 1694.053833,3234.645020 
	C1690.697266,3227.160889 1695.542969,3221.416504 1697.732056,3215.567871 
	C1725.510010,3141.354004 1753.600098,3067.256836 1781.582520,2993.119385 
	C1950.419067,2545.803467 2119.246582,2098.483887 2288.094971,1651.172485 
	C2290.912109,1643.709106 2293.951660,1636.329712 2297.143799,1628.263550 
	C2301.775391,1627.763062 2306.310303,1626.850586 2310.846191,1626.845459 
	C2388.158203,1626.758301 2465.470215,1626.761475 2542.782227,1626.839233 
	C2547.293457,1626.843750 2551.803467,1627.651367 2556.051025,1628.059937 
	C2558.160400,1635.339233 2554.541992,1640.548462 2552.499756,1646.044189 
	C2482.918213,1833.300537 2414.572021,2021.012573 2342.560791,2207.368652 
	C2289.517578,2344.638184 2238.261475,2482.598145 2185.586426,2621.668457 
z"/>
<path fill="#171F53" opacity="1.000000" stroke="none" 
	d="
M3416.625488,2203.568359 
	C3435.053467,2265.522461 3444.083984,2327.304932 3445.982422,2390.215576 
	C3447.515137,2441.006348 3443.398438,2491.421387 3435.635498,2541.548340 
	C3424.383301,2614.209717 3406.219482,2685.046387 3378.250488,2753.188721 
	C3312.539551,2913.284180 3203.054932,3034.658936 3053.271729,3120.351074 
	C2968.815674,3168.668945 2878.433105,3201.941406 2784.490234,3226.158936 
	C2781.928955,3226.818848 2779.303223,3227.427490 2776.677490,3227.598389 
	C2770.899902,3227.974854 2766.785156,3222.732178 2768.445068,3216.989502 
	C2769.736816,3212.519531 2771.448730,3208.165527 2773.087402,3203.802246 
	C2931.393555,2782.329346 3089.708252,2360.859863 3248.042480,1939.397949 
	C3251.012939,1931.491821 3254.228516,1923.678101 3258.061035,1913.969116 
	C3275.990234,1931.016357 3288.277100,1949.901001 3301.195312,1968.157471 
	C3351.993164,2039.947632 3391.326172,2117.434814 3416.625488,2203.568359 
z"/>
<path fill="#181F53" opacity="1.000000" stroke="none" 
	d="
M2991.564453,1855.593384 
	C2896.825928,2106.174561 2802.567871,2355.275635 2708.346436,2604.390381 
	C2632.262451,2805.549805 2556.225342,3006.727051 2480.153076,3207.890869 
	C2476.892090,3216.513916 2473.483643,3225.080566 2470.448730,3232.889404 
	C2453.242188,3235.322266 2265.516846,3235.541748 2247.143311,3233.349365 
	C2244.577148,3227.085938 2248.444092,3221.921143 2250.462158,3216.562012 
	C2278.385498,3142.410156 2306.401611,3068.293213 2334.395996,2994.168213 
	C2501.657471,2551.286377 2668.909424,2108.400635 2836.270264,1665.556274 
	C2838.801025,1658.859741 2839.778564,1651.201660 2847.011475,1645.170166 
	C2909.346924,1670.294800 2972.229736,1695.624512 3035.072510,1721.054077 
	C3036.753174,1721.734131 3037.994873,1723.498535 3040.293945,1725.499268 
	C3024.946533,1768.611450 3008.063965,1811.204834 2991.564453,1855.593384 
z"/>
</svg>