<svg width="25" height="25" viewBox="0 0 25 25" fill="none" xmlns="http://www.w3.org/2000/svg">
<rect x="0.75" y="0.424805" width="24" height="24" rx="11.6561" fill="black"/>
<path d="M13.3389 12.7151C13.3464 12.7228 13.3558 12.8261 13.3615 12.9428C13.3709 13.1437 13.369 13.159 13.337 13.159C13.3106 13.159 13.2993 13.1399 13.2899 13.0825C13.2635 12.9294 13.1371 12.8089 13.0391 12.8452C13.0127 12.8548 12.975 12.8873 12.9523 12.916C12.9165 12.9658 12.9128 13.0002 12.9071 13.3255L12.8996 13.6794L13.0598 13.6737C13.1993 13.666 13.2276 13.6603 13.2691 13.6201C13.3049 13.5857 13.3238 13.578 13.3389 13.5933C13.3653 13.6201 13.3464 13.6814 13.2861 13.7521C13.2408 13.8076 13.2352 13.8095 13.0711 13.8095H12.9033V14.307C12.9033 14.6859 12.909 14.8217 12.9297 14.8676C12.9561 14.9365 13.0598 15.0341 13.1032 15.0341C13.1183 15.0341 13.1296 15.0475 13.1296 15.0647C13.1296 15.0915 13.1164 15.0934 13.0598 15.0838C13.0202 15.0781 12.9354 15.0724 12.8713 15.0724H12.7525V14.0679C12.7525 13.3982 12.76 13.0308 12.7732 12.9638C12.7996 12.8433 12.8977 12.7342 13.0108 12.7036C13.0843 12.6826 13.3181 12.6902 13.3389 12.7151ZM12.6903 12.8548C12.6488 12.939 12.6488 12.9466 12.6431 14.0047L12.6375 15.0724H12.5187C12.4527 15.0724 12.3716 15.0781 12.3396 15.0838C12.2943 15.0934 12.2811 15.0896 12.2811 15.0666C12.2811 15.0494 12.2962 15.0322 12.3151 15.0264C12.3339 15.0188 12.3735 14.9901 12.4037 14.9595C12.4715 14.8868 12.4866 14.749 12.4866 14.2037L12.4885 13.8038L12.4018 13.8153C12.3546 13.8191 12.2887 13.844 12.2585 13.8669C12.1868 13.9205 12.1472 13.8937 12.1887 13.8172C12.2264 13.7426 12.3339 13.6756 12.415 13.6756H12.4847L12.4923 13.3446C12.4979 12.9677 12.5168 12.9064 12.645 12.8127C12.6865 12.7821 12.7242 12.7591 12.7261 12.7629C12.7299 12.7668 12.7129 12.8069 12.6903 12.8548Z" fill="white"/>
<path d="M6.8624 16.7794H5.47656L12.7522 4.15137L20.0349 16.7865H9.81082L10.5037 15.5703H17.942L12.7522 6.59072L6.8624 16.7794Z" fill="#54F5EF"/>
<path d="M18.8292 18.4978H6.70312L12.7555 7.99805L16.8282 15.005H15.4282L12.7555 10.4233L8.79601 17.31H18.1292L18.8292 18.4978Z" fill="#54F5EF"/>
</svg>
