<svg version="1.1" id="Layer_1" xmlns="http://www.w3.org/2000/svg" xmlns:xlink="http://www.w3.org/1999/xlink" x="0px" y="0px"
	 width="100%" viewBox="0 0 1000 1000" enable-background="new 0 0 1000 1000" xml:space="preserve">
<path fill="#23A49C" opacity="1.000000" stroke="none" 
	d="
M456.000000,1.000005 
	C485.687561,1.000000 515.375122,1.000000 545.384644,1.413724 
	C546.550598,2.214117 547.363647,2.835043 548.243530,2.951724 
	C558.640198,4.330474 569.150208,5.097024 579.428406,7.074288 
	C598.003418,10.647635 616.536682,14.541254 634.914490,19.011869 
	C662.294617,25.672413 688.418762,35.964512 713.867493,47.980618 
	C739.980042,60.310154 765.256714,74.212799 788.486389,91.375137 
	C806.029419,104.336098 823.359619,117.761414 839.511780,132.385803 
	C861.590332,152.376190 881.760071,174.339432 899.708557,198.217728 
	C915.559204,219.305069 929.990723,241.307755 942.274292,264.677032 
	C957.297852,293.258881 970.513733,322.616760 979.305298,353.771484 
	C983.510986,368.675201 987.895569,383.598206 990.806885,398.779480 
	C994.317200,417.084808 996.330811,435.676392 999.091736,454.129181 
	C999.196960,454.832214 1000.340393,455.379913 1001.000000,456.000000 
	C1001.000000,485.687561 1001.000000,515.375122 1000.586304,545.384521 
	C999.785889,546.550476 999.164856,547.363403 999.048157,548.243225 
	C997.669434,558.639893 996.902893,569.149902 994.925659,579.428101 
	C991.352295,598.003235 987.458557,616.536560 982.987915,634.914490 
	C976.327393,662.294861 966.035156,688.419067 954.019165,713.868042 
	C941.689819,739.980774 927.786255,765.256897 910.624268,788.486877 
	C897.663940,806.029907 884.239868,823.360840 869.614380,839.511353 
	C849.622437,861.588013 827.662170,881.760925 803.782532,899.708008 
	C782.694153,915.557373 760.692566,929.990784 737.322937,942.274353 
	C708.740906,957.297546 679.383301,970.513916 648.228394,979.305237 
	C633.324707,983.510803 618.401794,987.895935 603.220459,990.807007 
	C584.915161,994.317383 566.323486,996.330872 547.870605,999.091736 
	C547.167664,999.196960 546.619995,1000.340332 546.000000,1001.000000 
	C516.312439,1001.000000 486.624878,1001.000000 456.615417,1000.586304 
	C455.449768,999.785889 454.637085,999.164917 453.757538,999.048218 
	C443.360840,997.669495 432.850891,996.902893 422.572632,994.925537 
	C403.997559,991.352112 385.464264,987.458252 367.086334,982.987732 
	C339.705688,976.327209 313.580994,966.034912 288.131836,954.018738 
	C262.019012,941.689148 236.742340,927.785767 213.512253,910.623230 
	C195.969666,897.662659 178.638168,884.239563 162.488083,869.614014 
	C140.412048,849.621826 120.238991,827.662109 102.292091,803.782593 
	C86.442833,782.694092 72.009331,760.692627 59.726051,737.322998 
	C44.703045,708.740784 31.485468,679.383545 22.694630,648.228394 
	C18.489300,633.324585 14.104343,618.401733 11.193104,603.220398 
	C7.682759,584.914917 5.669302,566.323181 2.908372,547.870178 
	C2.803222,547.167358 1.659674,546.619873 1.000003,546.000000 
	C1.000000,516.312439 1.000000,486.624878 1.413707,456.615417 
	C2.214144,455.449768 2.835208,454.637024 2.951861,453.757446 
	C4.330672,443.360596 5.097295,432.850525 7.074606,422.572144 
	C10.648027,403.996948 14.541812,385.463440 19.012363,367.085358 
	C25.672897,339.704529 35.966160,313.580017 47.981697,288.130493 
	C60.310558,262.017303 74.215637,236.741470 91.377243,213.510941 
	C104.337257,195.967804 117.762642,178.638138 132.386917,162.486511 
	C152.377380,140.408295 174.340973,120.239044 198.218933,102.290527 
	C219.306000,86.439888 241.308380,72.008125 264.677917,59.725212 
	C293.260101,44.702583 322.617218,31.485104 353.772064,22.693941 
	C368.675751,18.488472 383.598602,14.103831 398.779785,11.192657 
	C417.085022,7.682418 435.676514,5.669023 454.129211,2.908196 
	C454.832245,2.803013 455.379944,1.659616 456.000000,1.000005 
M580.923096,604.963379 
	C636.718994,647.436340 692.532288,689.886475 748.220886,732.499634 
	C749.783447,733.695312 750.868408,736.687256 750.736389,738.749451 
	C748.725098,770.172058 746.461304,801.578430 744.290527,832.990967 
	C743.951294,837.900208 743.779846,842.821045 743.508850,848.170105 
	C752.527161,848.170105 760.857849,847.813599 769.139282,848.297852 
	C774.486877,848.610535 775.705811,846.621155 776.105957,841.646973 
	C778.723633,809.103760 781.738403,776.592712 784.445007,744.056274 
	C784.680481,741.224792 784.174255,738.061401 783.091797,735.431030 
	C766.685364,695.564209 750.085876,655.776794 733.697266,615.902710 
	C732.705872,613.490540 732.448975,610.375488 732.960144,607.808472 
	C738.356750,580.707764 743.895447,553.634277 749.625305,526.602112 
	C750.528381,522.341614 749.753906,519.562683 746.338257,516.729736 
	C736.597717,508.651001 727.147400,500.221680 717.609985,491.899231 
	C715.171265,489.771118 712.832825,487.528015 710.080261,484.999695 
	C711.660278,484.165039 712.483887,483.656494 713.362915,483.276184 
	C751.510071,466.771576 778.008545,438.768433 794.144653,400.800415 
	C811.939331,358.929901 807.878418,319.903229 778.136230,284.478119 
	C777.110779,283.256714 776.460754,281.720093 775.635681,280.330414 
	C775.029663,280.738953 774.423584,281.147491 773.817505,281.556030 
	C773.960999,283.966858 774.032532,286.384430 774.258362,288.787506 
	C780.435181,354.493683 744.588562,417.826904 684.898376,446.489716 
	C683.027405,447.388184 680.785400,447.934204 678.715454,447.936768 
	C617.883423,448.012451 557.051208,448.027802 496.219482,447.874451 
	C494.102631,447.869110 491.366211,446.582733 489.967194,444.978760 
	C453.937469,403.670563 418.050201,362.238159 382.131042,320.833527 
	C373.974579,311.431458 365.791595,302.052368 357.327850,292.326019 
	C344.223053,306.086426 328.077515,312.910645 310.428406,316.828644 
	C334.729492,303.731171 353.486572,285.377960 366.468628,260.035736 
	C341.925079,266.957489 318.243958,273.636017 293.898712,280.501801 
	C293.281921,245.959122 301.978271,215.739044 326.381775,192.444824 
	C380.265442,141.010468 445.548462,114.912216 519.402405,110.150246 
	C561.253723,107.451752 600.113403,119.376778 637.192993,137.829071 
	C660.568787,149.461838 681.790405,164.416183 702.178467,180.618134 
	C704.379211,182.367020 706.786194,183.856293 709.097534,185.466003 
	C709.527954,184.991486 709.958313,184.516968 710.388733,184.042465 
	C707.625854,180.207458 705.107422,176.165192 702.060547,172.570908 
	C681.579895,148.410721 657.005188,129.171875 629.718018,113.349152 
	C582.243103,85.820427 531.125183,73.681778 476.334015,78.242638 
	C429.775360,82.118217 386.428223,96.531349 346.092285,119.873001 
	C307.628510,142.131271 274.301849,169.901886 251.793671,209.176620 
	C241.130722,227.782501 230.844620,246.505173 229.185394,268.367889 
	C227.407791,291.790253 226.397934,315.270325 224.998718,338.721985 
	C222.831146,375.051788 216.014648,410.373688 202.002411,444.123413 
	C201.256790,445.919312 200.585678,447.746155 199.770401,449.839722 
	C200.938461,450.178864 201.697647,450.564911 202.472702,450.600037 
	C220.616318,451.421906 238.759354,452.279449 256.911407,452.846771 
	C258.254120,452.888763 260.309479,451.076172 260.937836,449.644775 
	C265.152252,440.044525 268.993347,430.281006 273.144623,420.651917 
	C274.030212,418.597717 275.366486,416.493195 277.050140,415.067047 
	C288.618042,405.268097 300.324738,395.632721 312.017181,385.981537 
	C313.016907,385.156342 314.237579,384.598785 315.355652,383.916870 
	C315.651947,384.267059 315.948242,384.617249 316.244537,384.967407 
	C315.408325,386.071777 314.635651,387.231628 313.726105,388.271851 
	C304.406494,398.930481 294.935608,409.461426 285.837341,420.305237 
	C284.006561,422.487213 282.647156,425.829193 282.625305,428.648407 
	C282.350189,464.144226 282.321716,499.642334 282.335938,535.139771 
	C282.338379,541.223999 282.834595,547.308105 283.144592,554.342224 
	C284.760498,552.795593 285.705139,551.983765 286.544434,551.074646 
	C308.580780,527.204834 330.774902,503.476654 352.504181,479.330292 
	C357.375000,473.917694 362.172455,471.553009 369.532562,471.816528 
	C385.985718,472.405579 402.474487,472.000732 418.948730,472.000732 
	C402.653503,474.510376 386.332672,476.380981 369.979919,477.910187 
	C365.888519,478.292755 362.916412,479.642151 360.164642,482.752106 
	C337.316498,508.574799 314.419678,534.356445 291.272034,559.909912 
	C287.686035,563.868652 286.356171,567.455750 287.142426,572.771179 
	C292.868317,611.481323 298.232635,650.244690 303.890350,688.965149 
	C305.035522,696.802612 305.109436,704.228394 302.753998,712.037292 
	C292.419312,746.300049 282.595215,780.716858 272.592926,815.079834 
	C269.444946,825.894714 266.318695,836.716064 262.998291,848.169739 
	C274.345642,848.169739 284.990997,847.984131 295.623962,848.266052 
	C299.580231,848.371033 301.432373,847.141479 302.884674,843.384399 
	C337.274750,754.417786 371.801636,665.504028 406.311646,576.583801 
	C407.552612,573.386230 408.875824,570.220703 410.160736,567.040222 
	C410.847626,568.063599 410.902771,568.880188 410.753540,569.657532 
	C406.297241,592.873047 401.887604,616.098022 397.284027,639.284363 
	C396.479340,643.337280 397.040192,645.399414 401.470734,646.909241 
	C428.886292,656.251587 456.170288,665.979553 483.527740,675.493774 
	C485.347809,676.126709 487.445557,676.422363 489.359711,676.254456 
	C517.072876,673.824341 544.778076,671.303406 572.481262,668.761230 
	C576.950745,668.351074 582.120239,669.007690 585.726257,666.973450 
	C596.824829,660.712097 607.322205,653.384949 619.997742,645.219238 
	C617.325867,643.547119 615.339478,642.767273 613.974731,641.377197 
	C602.307373,629.493164 590.752686,617.498535 579.737549,605.111023 
	C579.927795,604.967834 580.117981,604.824707 580.923096,604.963379 
M613.642395,660.126038 
	C606.709106,664.606445 599.775879,669.086914 592.362549,673.877563 
	C594.194214,675.563049 595.474487,676.807373 596.823242,677.972473 
	C620.495239,698.422119 644.201233,718.832703 667.788818,739.379211 
	C669.157532,740.571411 670.508484,742.964722 670.304688,744.604797 
	C667.164429,769.864502 663.757812,795.090942 660.428833,820.327271 
	C659.238159,829.353638 658.089417,838.385559 656.831848,848.108093 
	C667.995422,848.108093 678.600159,848.209717 689.194885,847.931335 
	C690.128479,847.906799 691.601562,845.481995 691.807068,844.028198 
	C697.325317,804.988403 702.611938,765.915649 708.259949,726.895020 
	C708.869263,722.685425 707.563354,720.553711 704.600403,718.163757 
	C681.158936,699.255188 657.818054,680.221802 634.443176,661.230591 
	C624.714050,653.326050 624.710693,653.330200 613.642395,660.126038 
M384.962341,766.555908 
	C379.647095,743.743958 374.331848,720.931946 368.734680,696.909973 
	C367.568359,699.696472 366.825653,701.311646 366.207214,702.973145 
	C360.233459,719.021484 354.496857,735.163086 348.208466,751.086853 
	C345.898682,756.935730 345.637146,762.354248 346.982666,768.428467 
	C352.557312,793.594727 357.739929,818.847534 363.197845,844.040161 
	C363.519775,845.526001 364.968079,847.919312 365.933777,847.939880 
	C378.372650,848.204956 390.819092,848.115112 403.899628,848.115112 
	C397.525757,820.758728 391.307465,794.070190 384.962341,766.555908 
z"/>
<path fill="#000000" opacity="1.000000" stroke="none" 
	d="
M455.531342,1.000005 
	C455.379944,1.659616 454.832245,2.803013 454.129211,2.908196 
	C435.676514,5.669023 417.085022,7.682418 398.779785,11.192657 
	C383.598602,14.103831 368.675751,18.488472 353.772064,22.693941 
	C322.617218,31.485104 293.260101,44.702583 264.677917,59.725212 
	C241.308380,72.008125 219.306000,86.439888 198.218933,102.290527 
	C174.340973,120.239044 152.377380,140.408295 132.386917,162.486511 
	C117.762642,178.638138 104.337257,195.967804 91.377243,213.510941 
	C74.215637,236.741470 60.310558,262.017303 47.981697,288.130493 
	C35.966160,313.580017 25.672897,339.704529 19.012363,367.085358 
	C14.541812,385.463440 10.648027,403.996948 7.074606,422.572144 
	C5.097295,432.850525 4.330672,443.360596 2.951861,453.757446 
	C2.835208,454.637024 2.214144,455.449768 1.413707,456.146790 
	C1.000000,304.406250 1.000000,152.812500 1.000000,1.000000 
	C152.354156,1.000000 303.708435,1.000000 455.531342,1.000005 
z"/>
<path fill="#000000" opacity="1.000000" stroke="none" 
	d="
M1001.000000,455.531342 
	C1000.340393,455.379913 999.196960,454.832214 999.091736,454.129181 
	C996.330811,435.676392 994.317200,417.084808 990.806885,398.779480 
	C987.895569,383.598206 983.510986,368.675201 979.305298,353.771484 
	C970.513733,322.616760 957.297852,293.258881 942.274292,264.677032 
	C929.990723,241.307755 915.559204,219.305069 899.708557,198.217728 
	C881.760071,174.339432 861.590332,152.376190 839.511780,132.385803 
	C823.359619,117.761414 806.029419,104.336098 788.486389,91.375137 
	C765.256714,74.212799 739.980042,60.310154 713.867493,47.980618 
	C688.418762,35.964512 662.294617,25.672413 634.914490,19.011869 
	C616.536682,14.541254 598.003418,10.647635 579.428406,7.074288 
	C569.150208,5.097024 558.640198,4.330474 548.243530,2.951724 
	C547.363647,2.835043 546.550598,2.214117 545.853271,1.413724 
	C697.593750,1.000000 849.187439,1.000000 1001.000000,1.000000 
	C1001.000000,152.354156 1001.000000,303.708435 1001.000000,455.531342 
z"/>
<path fill="#000000" opacity="1.000000" stroke="none" 
	d="
M1.000003,546.468628 
	C1.659674,546.619873 2.803222,547.167358 2.908372,547.870178 
	C5.669302,566.323181 7.682759,584.914917 11.193104,603.220398 
	C14.104343,618.401733 18.489300,633.324585 22.694630,648.228394 
	C31.485468,679.383545 44.703045,708.740784 59.726051,737.322998 
	C72.009331,760.692627 86.442833,782.694092 102.292091,803.782593 
	C120.238991,827.662109 140.412048,849.621826 162.488083,869.614014 
	C178.638168,884.239563 195.969666,897.662659 213.512253,910.623230 
	C236.742340,927.785767 262.019012,941.689148 288.131836,954.018738 
	C313.580994,966.034912 339.705688,976.327209 367.086334,982.987732 
	C385.464264,987.458252 403.997559,991.352112 422.572632,994.925537 
	C432.850891,996.902893 443.360840,997.669495 453.757538,999.048218 
	C454.637085,999.164917 455.449768,999.785889 456.146759,1000.586304 
	C304.406250,1001.000000 152.812500,1001.000000 1.000000,1001.000000 
	C1.000000,849.645813 1.000000,698.291565 1.000003,546.468628 
z"/>
<path fill="#000000" opacity="1.000000" stroke="none" 
	d="
M546.468628,1001.000000 
	C546.619995,1000.340332 547.167664,999.196960 547.870605,999.091736 
	C566.323486,996.330872 584.915161,994.317383 603.220459,990.807007 
	C618.401794,987.895935 633.324707,983.510803 648.228394,979.305237 
	C679.383301,970.513916 708.740906,957.297546 737.322937,942.274353 
	C760.692566,929.990784 782.694153,915.557373 803.782532,899.708008 
	C827.662170,881.760925 849.622437,861.588013 869.614380,839.511353 
	C884.239868,823.360840 897.663940,806.029907 910.624268,788.486877 
	C927.786255,765.256897 941.689819,739.980774 954.019165,713.868042 
	C966.035156,688.419067 976.327393,662.294861 982.987915,634.914490 
	C987.458557,616.536560 991.352295,598.003235 994.925659,579.428101 
	C996.902893,569.149902 997.669434,558.639893 999.048157,548.243225 
	C999.164856,547.363403 999.785889,546.550476 1000.586304,545.853210 
	C1001.000000,697.593750 1001.000000,849.187500 1001.000000,1001.000000 
	C849.645813,1001.000000 698.291565,1001.000000 546.468628,1001.000000 
z"/>
<path fill="#1A1A1A" opacity="1.000000" stroke="none" 
	d="
M579.164307,605.536987 
	C590.752686,617.498535 602.307373,629.493164 613.974731,641.377197 
	C615.339478,642.767273 617.325867,643.547119 619.997742,645.219238 
	C607.322205,653.384949 596.824829,660.712097 585.726257,666.973450 
	C582.120239,669.007690 576.950745,668.351074 572.481262,668.761230 
	C544.778076,671.303406 517.072876,673.824341 489.359711,676.254456 
	C487.445557,676.422363 485.347809,676.126709 483.527740,675.493774 
	C456.170288,665.979553 428.886292,656.251587 401.470734,646.909241 
	C397.040192,645.399414 396.479340,643.337280 397.284027,639.284363 
	C401.887604,616.098022 406.297241,592.873047 410.753540,569.657532 
	C410.902771,568.880188 410.847626,568.063599 410.160736,567.040222 
	C408.875824,570.220703 407.552612,573.386230 406.311646,576.583801 
	C371.801636,665.504028 337.274750,754.417786 302.884674,843.384399 
	C301.432373,847.141479 299.580231,848.371033 295.623962,848.266052 
	C284.990997,847.984131 274.345642,848.169739 262.998291,848.169739 
	C266.318695,836.716064 269.444946,825.894714 272.592926,815.079834 
	C282.595215,780.716858 292.419312,746.300049 302.753998,712.037292 
	C305.109436,704.228394 305.035522,696.802612 303.890350,688.965149 
	C298.232635,650.244690 292.868317,611.481323 287.142426,572.771179 
	C286.356171,567.455750 287.686035,563.868652 291.272034,559.909912 
	C314.419678,534.356445 337.316498,508.574799 360.164642,482.752106 
	C362.916412,479.642151 365.888519,478.292755 369.979919,477.910187 
	C386.332672,476.380981 402.653503,474.510376 418.948730,472.000732 
	C402.474487,472.000732 385.985718,472.405579 369.532562,471.816528 
	C362.172455,471.553009 357.375000,473.917694 352.504181,479.330292 
	C330.774902,503.476654 308.580780,527.204834 286.544434,551.074646 
	C285.705139,551.983765 284.760498,552.795593 283.144592,554.342224 
	C282.834595,547.308105 282.338379,541.223999 282.335938,535.139771 
	C282.321716,499.642334 282.350189,464.144226 282.625305,428.648407 
	C282.647156,425.829193 284.006561,422.487213 285.837341,420.305237 
	C294.935608,409.461426 304.406494,398.930481 313.726105,388.271851 
	C314.635651,387.231628 315.408325,386.071777 316.244537,384.967407 
	C315.948242,384.617249 315.651947,384.267059 315.355652,383.916870 
	C314.237579,384.598785 313.016907,385.156342 312.017181,385.981537 
	C300.324738,395.632721 288.618042,405.268097 277.050140,415.067047 
	C275.366486,416.493195 274.030212,418.597717 273.144623,420.651917 
	C268.993347,430.281006 265.152252,440.044525 260.937836,449.644775 
	C260.309479,451.076172 258.254120,452.888763 256.911407,452.846771 
	C238.759354,452.279449 220.616318,451.421906 202.472702,450.600037 
	C201.697647,450.564911 200.938461,450.178864 199.770401,449.839722 
	C200.585678,447.746155 201.256790,445.919312 202.002411,444.123413 
	C216.014648,410.373688 222.831146,375.051788 224.998718,338.721985 
	C226.397934,315.270325 227.407791,291.790253 229.185394,268.367889 
	C230.844620,246.505173 241.130722,227.782501 251.793671,209.176620 
	C274.301849,169.901886 307.628510,142.131271 346.092285,119.873001 
	C386.428223,96.531349 429.775360,82.118217 476.334015,78.242638 
	C531.125183,73.681778 582.243103,85.820427 629.718018,113.349152 
	C657.005188,129.171875 681.579895,148.410721 702.060547,172.570908 
	C705.107422,176.165192 707.625854,180.207458 710.388733,184.042465 
	C709.958313,184.516968 709.527954,184.991486 709.097534,185.466003 
	C706.786194,183.856293 704.379211,182.367020 702.178467,180.618134 
	C681.790405,164.416183 660.568787,149.461838 637.192993,137.829071 
	C600.113403,119.376778 561.253723,107.451752 519.402405,110.150246 
	C445.548462,114.912216 380.265442,141.010468 326.381775,192.444824 
	C301.978271,215.739044 293.281921,245.959122 293.898712,280.501801 
	C318.243958,273.636017 341.925079,266.957489 366.468628,260.035736 
	C353.486572,285.377960 334.729492,303.731171 310.428406,316.828644 
	C328.077515,312.910645 344.223053,306.086426 357.327850,292.326019 
	C365.791595,302.052368 373.974579,311.431458 382.131042,320.833527 
	C418.050201,362.238159 453.937469,403.670563 489.967194,444.978760 
	C491.366211,446.582733 494.102631,447.869110 496.219482,447.874451 
	C557.051208,448.027802 617.883423,448.012451 678.715454,447.936768 
	C680.785400,447.934204 683.027405,447.388184 684.898376,446.489716 
	C744.588562,417.826904 780.435181,354.493683 774.258362,288.787506 
	C774.032532,286.384430 773.960999,283.966858 773.817505,281.556030 
	C774.423584,281.147491 775.029663,280.738953 775.635681,280.330414 
	C776.460754,281.720093 777.110779,283.256714 778.136230,284.478119 
	C807.878418,319.903229 811.939331,358.929901 794.144653,400.800415 
	C778.008545,438.768433 751.510071,466.771576 713.362915,483.276184 
	C712.483887,483.656494 711.660278,484.165039 710.080261,484.999695 
	C712.832825,487.528015 715.171265,489.771118 717.609985,491.899231 
	C727.147400,500.221680 736.597717,508.651001 746.338257,516.729736 
	C749.753906,519.562683 750.528381,522.341614 749.625305,526.602112 
	C743.895447,553.634277 738.356750,580.707764 732.960144,607.808472 
	C732.448975,610.375488 732.705872,613.490540 733.697266,615.902710 
	C750.085876,655.776794 766.685364,695.564209 783.091797,735.431030 
	C784.174255,738.061401 784.680481,741.224792 784.445007,744.056274 
	C781.738403,776.592712 778.723633,809.103760 776.105957,841.646973 
	C775.705811,846.621155 774.486877,848.610535 769.139282,848.297852 
	C760.857849,847.813599 752.527161,848.170105 743.508850,848.170105 
	C743.779846,842.821045 743.951294,837.900208 744.290527,832.990967 
	C746.461304,801.578430 748.725098,770.172058 750.736389,738.749451 
	C750.868408,736.687256 749.783447,733.695312 748.220886,732.499634 
	C692.532288,689.886475 636.718994,647.436340 580.365112,604.594360 
	C579.382202,604.268494 578.957153,604.311768 578.532166,604.354980 
	C578.742859,604.748962 578.953613,605.142944 579.164307,605.536987 
M577.203003,603.546143 
	C577.462036,603.540283 577.721008,603.534424 577.980042,603.528564 
	C577.811829,603.185669 577.643616,602.842712 577.091797,602.188293 
	C576.819336,602.272095 576.546875,602.355896 576.274414,602.439636 
	C576.505615,602.639160 576.736816,602.838623 577.203003,603.546143 
M285.600677,344.683044 
	C289.871460,341.036133 294.307251,337.557739 298.310760,333.637909 
	C299.486511,332.486755 300.327667,329.640594 299.699982,328.377167 
	C299.057831,327.084564 296.342255,326.004639 294.678619,326.182434 
	C288.438263,326.849457 282.256927,328.068512 275.381714,329.332825 
	C269.878754,332.084320 264.329041,334.747284 258.890228,337.620209 
	C255.581833,339.367767 253.057571,341.645599 255.116241,345.999878 
	C258.071411,352.250336 262.382355,355.575287 266.620544,353.823059 
	C272.891388,351.230469 278.886353,347.970551 285.600677,344.683044 
z"/>
<path fill="#1A1B1B" opacity="1.000000" stroke="none" 
	d="
M613.950439,659.936157 
	C624.710693,653.330200 624.714050,653.326050 634.443176,661.230591 
	C657.818054,680.221802 681.158936,699.255188 704.600403,718.163757 
	C707.563354,720.553711 708.869263,722.685425 708.259949,726.895020 
	C702.611938,765.915649 697.325317,804.988403 691.807068,844.028198 
	C691.601562,845.481995 690.128479,847.906799 689.194885,847.931335 
	C678.600159,848.209717 667.995422,848.108093 656.831848,848.108093 
	C658.089417,838.385559 659.238159,829.353638 660.428833,820.327271 
	C663.757812,795.090942 667.164429,769.864502 670.304688,744.604797 
	C670.508484,742.964722 669.157532,740.571411 667.788818,739.379211 
	C644.201233,718.832703 620.495239,698.422119 596.823242,677.972473 
	C595.474487,676.807373 594.194214,675.563049 592.362549,673.877563 
	C599.775879,669.086914 606.709106,664.606445 613.950439,659.936157 
z"/>
<path fill="#1A1B1B" opacity="1.000000" stroke="none" 
	d="
M385.025757,766.968750 
	C391.307465,794.070190 397.525757,820.758728 403.899628,848.115112 
	C390.819092,848.115112 378.372650,848.204956 365.933777,847.939880 
	C364.968079,847.919312 363.519775,845.526001 363.197845,844.040161 
	C357.739929,818.847534 352.557312,793.594727 346.982666,768.428467 
	C345.637146,762.354248 345.898682,756.935730 348.208466,751.086853 
	C354.496857,735.163086 360.233459,719.021484 366.207214,702.973145 
	C366.825653,701.311646 367.568359,699.696472 368.734680,696.909973 
	C374.331848,720.931946 379.647095,743.743958 385.025757,766.968750 
z"/>
<path fill="#262626" opacity="1.000000" stroke="none" 
	d="
M284.998810,344.994751 
	C278.886353,347.970551 272.891388,351.230469 266.620544,353.823059 
	C262.382355,355.575287 258.071411,352.250336 255.116241,345.999878 
	C253.057571,341.645599 255.581833,339.367767 258.890228,337.620209 
	C264.329041,334.747284 269.878754,332.084320 275.754028,329.563751 
	C279.083801,334.861389 282.041321,339.928070 284.998810,344.994751 
z"/>
<path fill="#2E2E2E" opacity="1.000000" stroke="none" 
	d="
M285.299744,344.838928 
	C282.041321,339.928070 279.083801,334.861389 276.089905,329.437683 
	C282.256927,328.068512 288.438263,326.849457 294.678619,326.182434 
	C296.342255,326.004639 299.057831,327.084564 299.699982,328.377167 
	C300.327667,329.640594 299.486511,332.486755 298.310760,333.637909 
	C294.307251,337.557739 289.871460,341.036133 285.299744,344.838928 
z"/>
<path fill="#23A49C" opacity="1.000000" stroke="none" 
	d="
M576.968018,603.038147 
	C576.736816,602.838623 576.505615,602.639160 576.274414,602.439636 
	C576.546875,602.355896 576.819336,602.272095 577.155518,602.477417 
	C577.219238,602.766602 576.968018,603.038147 576.968018,603.038147 
z"/>
<path fill="#23A49C" opacity="1.000000" stroke="none" 
	d="
M577.347351,602.633179 
	C577.643616,602.842712 577.811829,603.185669 577.980042,603.528564 
	C577.721008,603.534424 577.462036,603.540283 577.085510,603.292114 
	C576.968018,603.038147 577.219238,602.766602 577.347351,602.633179 
z"/>
<path fill="#23A49C" opacity="1.000000" stroke="none" 
	d="
M579.450928,605.323975 
	C578.953613,605.142944 578.742859,604.748962 578.532166,604.354980 
	C578.957153,604.311768 579.382202,604.268494 580.057739,604.453491 
	C580.117981,604.824707 579.927795,604.967834 579.450928,605.323975 
z"/>
</svg>