<?xml version="1.0" encoding="utf-8"?>
<!-- Generator: Adobe Illustrator 26.0.0, SVG Export Plug-In . SVG Version: 6.00 Build 0)  -->
<svg version="1.1" id="Capa_1" xmlns="http://www.w3.org/2000/svg" xmlns:xlink="http://www.w3.org/1999/xlink" x="0px" y="0px"
	 viewBox="0 0 32 32" style="enable-background:new 0 0 32 32;" xml:space="preserve">
<style type="text/css">
	.st0{fill:#FFFFFF;}
	.st1{fill:#4070F3;}
</style>
<circle class="st0" cx="16" cy="16" r="16"/>
<g>
	<path class="st1" d="M15.4,24.5c0.8-0.9,1.6-1.8,2.3-2.6c0.9-1,1.7-1.9,2.6-2.9c0.2-0.3,0.2-0.5,0.1-0.8c-2-3.4-3.9-6.8-5.9-10.1
		c-0.2-0.3-0.2-0.6,0-0.9c0.5-0.8,1-1.7,1.5-2.5c0.2,0.1,0.2,0.2,0.3,0.3c2.7,4.6,5.3,9.1,8,13.7c0.1,0.2,0.1,0.3,0,0.4
		c-1.5,1.7-3,3.3-4.4,5c-0.1,0.1-0.2,0.3-0.5,0.3C18.1,24.5,16.8,24.5,15.4,24.5z"/>
	<path class="st1" d="M16.7,21.6c-0.8,0.9-1.7,1.9-2.5,2.8c-0.2,0.2-0.5,0.1-0.8,0.1c-0.7,0.1-1.1-0.1-1.6-0.7
		c-1.3-1.5-2.6-3-3.9-4.4c-0.2-0.2-0.2-0.4-0.1-0.7c1.9-3.2,3.8-6.4,5.6-9.7c0.2-0.3,0.3-0.4,0.5,0c0.4,0.8,0.9,1.6,1.4,2.3
		c0.2,0.3,0.1,0.5,0,0.7c-1.2,2.1-2.4,4.1-3.6,6.2c-0.2,0.3-0.2,0.5,0.1,0.8c0.6,0.7,1.3,1.4,1.9,2.1c0.2,0.2,0.4,0.3,0.7,0.3
		c0.8,0,1.6,0,2.5,0C16.7,21.5,16.7,21.5,16.7,21.6z"/>
</g>
</svg>
