<?xml version="1.0" encoding="UTF-8"?>
<svg version="1.1" xmlns="http://www.w3.org/2000/svg" width="64" height="64">
<path d="M0 0 C6.47496935 5.28699977 10.89385341 12.01682002 12.48828125 20.3046875 C13.45098895 30.92603642 11.69688696 39.81059549 4.86328125 48.1796875 C-1.65304959 54.98888714 -9.73881 58.38100539 -19.07421875 58.6171875 C-28.91069917 58.48555577 -36.45265729 55.40153127 -43.56640625 48.59375 C-49.91613191 41.12198447 -51.90948271 33.11373067 -51.78125 23.53125 C-50.98490145 13.99815002 -46.7695639 6.47261734 -39.51171875 0.3046875 C-27.03890251 -7.52359656 -12.53369022 -8.45975359 0 0 Z " fill="#0A0A0A" transform="translate(51.51171875,5.6953125)"/>
<path d="M0 0 C3.44121198 1.45295617 4.6657595 2.31560279 6.3125 5.6875 C6.6528125 6.8321875 6.6528125 6.8321875 7 8 C3.625 8.125 3.625 8.125 0 8 C-0.66 7.34 -1.32 6.68 -2 6 C-2.99 6 -3.98 6 -5 6 C-5 6.99 -5 7.98 -5 9 C-4.30132812 9.33773437 -3.60265625 9.67546875 -2.8828125 10.0234375 C-1.97273438 10.46945313 -1.06265625 10.91546875 -0.125 11.375 C0.77992187 11.81585938 1.68484375 12.25671875 2.6171875 12.7109375 C5 14 5 14 7 16 C6.92441916 20.08136534 6.60131963 22.28934953 3.9375 25.4375 C0.14096173 27.45693525 -2.7857053 27.85137267 -7 27 C-10.03965634 25.1891409 -11.60422231 24.09599977 -12.8125 20.75 C-12.9053125 19.88375 -12.9053125 19.88375 -13 19 C-10.69 19 -8.38 19 -6 19 C-6 19.66 -6 20.32 -6 21 C-4.02 21 -2.04 21 0 21 C-1.00569333 18.38738362 -1.62458105 17.214325 -4.09375 15.8046875 C-4.8878125 15.49789062 -5.681875 15.19109375 -6.5 14.875 C-9.30805541 13.77183537 -10.84266036 13.15733964 -13 11 C-13.375 8.125 -13.375 8.125 -13 5 C-9.0739479 0.15786907 -6.14399577 -0.41654209 0 0 Z " fill="#FBFBFB" transform="translate(35,23)"/>
<path d="M0 0 C7.92 0 15.84 0 24 0 C24 1.65 24 3.3 24 5 C16.08 5 8.16 5 0 5 C0 3.35 0 1.7 0 0 Z " fill="#E50913" transform="translate(20,14)"/>
</svg>
