<svg id="Capa_1" data-name="Capa 1" xmlns="http://www.w3.org/2000/svg" viewBox="0 0 32 32"><defs><style>.cls-1{fill:#1373e9;}.cls-2{fill:#fefefe;}.cls-3{fill:#217cea;}</style></defs><circle class="cls-1" cx="16" cy="16" r="16"/><path class="cls-2" d="M14.17,24.51c-3-1.42-4-3.65-3.69-6.79a63.1,63.1,0,0,0,0-7.15c0-1.27.44-1.91,1.89-1.84,2.44.12,4.89.09,7.33,0,1.11,0,1.71.35,1.68,1.44-.06,1.92.46,3.91-.43,5.74-.41.83.35,1.23.46,1.87C22,20.88,21,23.12,18,24.37a33.31,33.31,0,0,1-.13-5.14c-.06-1.38-.65-2.09-2.13-2.12-1.26,0-1.61.43-1.55,1.63C14.24,20.65,14.17,22.57,14.17,24.51Z" transform="translate(0 0)"/><path class="cls-3" d="M17.83,10.8a16.54,16.54,0,0,1,0,2.44c-.19,1.32-1.1,1.65-2.36,1.68s-1.34-.73-1.3-1.68,0-1.62,0-2.44A3.49,3.49,0,0,1,17.83,10.8Z" transform="translate(0 0)"/></svg>