<?xml version="1.0" encoding="UTF-8"?>
<!DOCTYPE svg PUBLIC "-//W3C//DTD SVG 1.1//EN" "http://www.w3.org/Graphics/SVG/1.1/DTD/svg11.dtd">
<svg xmlns="http://www.w3.org/2000/svg" version="1.1" width="64px" height="64px" style="shape-rendering:geometricPrecision; text-rendering:geometricPrecision; image-rendering:optimizeQuality; fill-rule:evenodd; clip-rule:evenodd" xmlns:xlink="http://www.w3.org/1999/xlink">
<g><path style="opacity:1" fill="#f6f6f6" d="M -0.5,-0.5 C 8.16667,-0.5 16.8333,-0.5 25.5,-0.5C 11.8333,3.16667 3.16667,11.8333 -0.5,25.5C -0.5,16.8333 -0.5,8.16667 -0.5,-0.5 Z"/></g>
<g><path style="opacity:1" fill="#0b0b0b" d="M 25.5,-0.5 C 29.1667,-0.5 32.8333,-0.5 36.5,-0.5C 49.9841,3.06207 58.9841,11.3954 63.5,24.5C 63.5,28.5 63.5,32.5 63.5,36.5C 59.4913,50.5087 50.4913,59.5087 36.5,63.5C 32.5,63.5 28.5,63.5 24.5,63.5C 11.3855,58.9448 3.05215,49.9448 -0.5,36.5C -0.5,32.8333 -0.5,29.1667 -0.5,25.5C 3.16667,11.8333 11.8333,3.16667 25.5,-0.5 Z"/></g>
<g><path style="opacity:1" fill="#f6f6f6" d="M 36.5,-0.5 C 45.5,-0.5 54.5,-0.5 63.5,-0.5C 63.5,7.83333 63.5,16.1667 63.5,24.5C 58.9841,11.3954 49.9841,3.06207 36.5,-0.5 Z"/></g>
<g><path style="opacity:1" fill="#dcdcdc" d="M 29.5,12.5 C 30.5,12.5 31.5,12.5 32.5,12.5C 32.5,13.8333 32.5,15.1667 32.5,16.5C 38.0257,16.3604 41.0257,19.0271 41.5,24.5C 40.5,24.5 39.5,24.5 38.5,24.5C 38.7035,22.6096 38.0368,21.1096 36.5,20C 33.1667,19.3333 29.8333,19.3333 26.5,20C 23.8333,23 23.8333,26 26.5,29C 31.7192,29.5029 36.5525,31.0029 41,33.5C 43.5056,41.4743 40.6723,45.8077 32.5,46.5C 32.5,47.8333 32.5,49.1667 32.5,50.5C 31.5,50.5 30.5,50.5 29.5,50.5C 29.5,49.1667 29.5,47.8333 29.5,46.5C 24.0729,46.0683 21.4063,43.0683 21.5,37.5C 22.5,37.5 23.5,37.5 24.5,37.5C 24.178,39.7224 24.8446,41.5557 26.5,43C 29.8333,43.6667 33.1667,43.6667 36.5,43C 39.1667,40 39.1667,37 36.5,34C 33.1667,33.3333 29.8333,32.6667 26.5,32C 21.2625,28.7262 20.0958,24.2262 23,18.5C 24.897,16.9837 27.0637,16.317 29.5,16.5C 29.5,15.1667 29.5,13.8333 29.5,12.5 Z"/></g>
<g><path style="opacity:1" fill="#dadada" d="M 22.5,5.5 C 23.9778,5.23798 25.3112,5.57131 26.5,6.5C 6.89542,15.1474 2.39542,28.814 13,47.5C 16.6231,51.5613 21.1231,53.8946 26.5,54.5C 26.5,55.5 26.5,56.5 26.5,57.5C 8.87546,52.2606 2.04213,40.5939 6,22.5C 7.41306,19.3388 9.07973,16.3388 11,13.5C 14.4636,10.1945 18.297,7.52788 22.5,5.5 Z"/></g>
<g><path style="opacity:1" fill="#dddddd" d="M 36.5,5.5 C 53.5109,10.19 60.3443,21.19 57,38.5C 53.8351,48.8328 47.0018,55.1662 36.5,57.5C 36.5,56.5 36.5,55.5 36.5,54.5C 51.4924,50.2161 57.659,40.2161 55,24.5C 52.025,15.3512 45.8584,10.0179 36.5,8.5C 36.5,7.5 36.5,6.5 36.5,5.5 Z"/></g>
<g><path style="opacity:1" fill="#f6f6f6" d="M -0.5,36.5 C 3.05215,49.9448 11.3855,58.9448 24.5,63.5C 16.1667,63.5 7.83333,63.5 -0.5,63.5C -0.5,54.5 -0.5,45.5 -0.5,36.5 Z"/></g>
<g><path style="opacity:1" fill="#f5f5f5" d="M 63.5,36.5 C 63.5,45.5 63.5,54.5 63.5,63.5C 54.5,63.5 45.5,63.5 36.5,63.5C 50.4913,59.5087 59.4913,50.5087 63.5,36.5 Z"/></g>
</svg>
