<svg width="1168" height="412" viewBox="0 0 1168 412" fill="none" xmlns="http://www.w3.org/2000/svg">
<path d="M1103.81 12.4151L1162.1 70.7859C1165.9 74.5905 1168 79.5966 1168 84.903V310.577C1168 315.883 1168 355.431 1168 362.44L1138.4 406.894L1135.4 412H1093.41C1088.41 412 1054.01 412 1048.71 412H966.917C961.618 412 955.918 412 949.419 412H940.919C936.92 412 928.121 411.9 922.821 411.9H720.738C715.439 411.9 710.339 409.797 706.64 405.993L686.841 386.169C683.042 382.364 678.042 380.261 672.742 380.261H465.76C460.461 380.261 455.361 382.364 451.661 386.169L439.362 398.484C435.563 402.288 430.563 404.391 425.264 404.391H190.284C184.984 404.391 179.885 402.288 176.185 398.484L163.886 386.169C160.086 382.364 155.087 380.261 149.787 380.261H56.2952C50.9956 380.261 45.8961 378.159 42.1964 374.354L5.8995 338.311C2.09982 334.506 0 329.4 0 324.093V69.8848C0 64.5784 2.09982 59.4722 5.8995 55.7677L55.5952 5.90717C59.3949 2.10255 64.4945 0 69.794 0H291.175C296.475 0 301.574 2.10255 305.274 5.90717L324.572 25.2306C328.372 29.0352 333.371 31.1378 338.671 31.1378H600.049C605.348 31.1378 610.448 29.0352 614.147 25.2306L626.946 12.4151C630.746 8.61045 635.746 6.5079 641.045 6.5079H1089.41C1094.91 6.5079 1100.01 8.61045 1103.81 12.4151Z" fill="#292D32" fill-opacity="0.4"/>
</svg>
