<svg width="154" height="95" viewBox="0 0 154 95" fill="none" xmlns="http://www.w3.org/2000/svg">
<mask id="path-1-inside-1_8182_78911" fill="white">
<path fill-rule="evenodd" clip-rule="evenodd" d="M10 0C4.47715 0 0 4.47715 0 10V71C0 76.5229 4.47716 81 10 81H98.6479C101.3 81 103.844 82.0536 105.719 83.9289L114.681 92.8909C116.634 94.8435 119.799 94.8435 121.752 92.8909L130.714 83.9289C132.589 82.0536 135.133 81 137.785 81H144C149.523 81 154 76.5229 154 71V10C154 4.47715 149.523 0 144 0H10Z"/>
</mask>
<path fill-rule="evenodd" clip-rule="evenodd" d="M10 0C4.47715 0 0 4.47715 0 10V71C0 76.5229 4.47716 81 10 81H98.6479C101.3 81 103.844 82.0536 105.719 83.9289L114.681 92.8909C116.634 94.8435 119.799 94.8435 121.752 92.8909L130.714 83.9289C132.589 82.0536 135.133 81 137.785 81H144C149.523 81 154 76.5229 154 71V10C154 4.47715 149.523 0 144 0H10Z" fill="url(#paint0_linear_8182_78911)" fill-opacity="0.8"/>
<path d="M121.752 92.8909L122.459 93.598L121.752 92.8909ZM130.714 83.9289L130.007 83.2218L130.714 83.9289ZM1 10C1 5.02944 5.02944 1 10 1V-1C3.92487 -1 -1 3.92487 -1 10H1ZM1 71V10H-1V71H1ZM10 80C5.02944 80 1 75.9706 1 71H-1C-1 77.0751 3.92487 82 10 82V80ZM98.6479 80H10V82H98.6479V80ZM115.388 92.1838L106.426 83.2218L105.012 84.636L113.974 93.598L115.388 92.1838ZM121.045 92.1838C119.483 93.7459 116.95 93.7459 115.388 92.1838L113.974 93.598C116.317 95.9411 120.116 95.9411 122.459 93.598L121.045 92.1838ZM130.007 83.2218L121.045 92.1838L122.459 93.598L131.421 84.636L130.007 83.2218ZM144 80H137.785V82H144V80ZM153 71C153 75.9706 148.971 80 144 80V82C150.075 82 155 77.0751 155 71H153ZM153 10V71H155V10H153ZM144 1C148.971 1 153 5.02944 153 10H155C155 3.92487 150.075 -1 144 -1V1ZM10 1H144V-1H10V1ZM131.421 84.636C133.109 82.9482 135.398 82 137.785 82V80C134.868 80 132.07 81.1589 130.007 83.2218L131.421 84.636ZM98.6479 82C101.035 82 103.324 82.9482 105.012 84.636L106.426 83.2218C104.363 81.1589 101.565 80 98.6479 80V82Z" fill="url(#paint1_linear_8182_78911)" mask="url(#path-1-inside-1_8182_78911)"/>
<defs>
<linearGradient id="paint0_linear_8182_78911" x1="16.0619" y1="54.5492" x2="244.691" y2="55.0457" gradientUnits="userSpaceOnUse">
<stop stop-color="#FE5E35"/>
<stop offset="0.55" stop-color="#F67702"/>
<stop offset="1" stop-color="#FFEF76"/>
</linearGradient>
<linearGradient id="paint1_linear_8182_78911" x1="16.0619" y1="54.5492" x2="244.691" y2="55.0457" gradientUnits="userSpaceOnUse">
<stop stop-color="#FE5E35"/>
<stop offset="0.55" stop-color="#F67702"/>
<stop offset="1" stop-color="#FFEF76"/>
</linearGradient>
</defs>
</svg>
