<svg width="98" height="2" viewBox="0 0 98 2" fill="none" xmlns="http://www.w3.org/2000/svg">
<path d="M97.1641 1.86621C97.4402 1.86621 97.6641 1.64235 97.6641 1.36621C97.6641 1.09007 97.4402 0.866211 97.1641 0.866211V1.86621ZM97.1641 0.866211L94.7384 0.866211V1.86621L97.1641 1.86621V0.866211ZM89.887 0.866211L85.0355 0.866211V1.86621L89.887 1.86621V0.866211ZM80.1841 0.866211L75.3327 0.866211V1.86621L80.1841 1.86621V0.866211ZM70.4813 0.866211L65.6299 0.866211V1.86621L70.4813 1.86621V0.866211ZM60.7785 0.866211L55.9271 0.866211V1.86621L60.7785 1.86621V0.866211ZM51.0757 0.866211L46.2243 0.866211V1.86621L51.0757 1.86621V0.866211ZM41.3729 0.866211L36.5215 0.866211V1.86621L41.3729 1.86621V0.866211ZM31.6701 0.866211L26.8187 0.866211V1.86621L31.6701 1.86621V0.866211ZM21.9673 0.866211L17.1158 0.866211V1.86621L21.9673 1.86621V0.866211ZM12.2644 0.866211L7.41302 0.866211V1.86621L12.2644 1.86621V0.866211ZM2.56161 0.866211L0.135933 0.866211V1.86621L2.56161 1.86621V0.866211Z" fill="url(#paint0_linear_6841_72280)"/>
<defs>
<linearGradient id="paint0_linear_6841_72280" x1="87.0442" y1="0.788086" x2="-54.6434" y2="-17.5039" gradientUnits="userSpaceOnUse">
<stop stop-color="#FE5E35"/>
<stop offset="0.55" stop-color="#F67702"/>
<stop offset="1" stop-color="#FFEF76"/>
</linearGradient>
</defs>
</svg>
