<svg width="369" height="535" viewBox="0 0 369 535" fill="none" xmlns="http://www.w3.org/2000/svg">
<g clip-path="url(#clip0_8832_53903)">
<path d="M185.435 105.923C182.954 102.472 180.495 98.9784 178.888 95.0153C177.495 91.5858 176.735 87.4947 178.391 84.0154C179.557 81.5606 182.016 79.9455 184.625 80.1661C181.718 78.6932 178.249 78.3161 175.064 78.9494C172.05 79.5542 168.688 81.0199 166.797 83.5387C165.738 84.9474 165.184 86.776 165.518 88.5263C165.859 90.3336 166.868 91.9274 167.643 93.5639C168.859 96.1253 169.612 99.0852 169.662 101.931C169.704 104.379 169.022 106.969 166.918 108.42C164.338 110.199 160.414 109.694 157.67 108.584C155.154 107.566 153.163 105.795 151.621 103.625C151.507 103.582 151.429 103.482 151.422 103.347C151.23 103.063 151.038 102.778 150.86 102.479C149.062 99.505 148.053 96.168 146.446 93.0942C145.856 91.9629 145.195 90.853 144.463 89.7999C143.653 88.9319 142.8 88.0994 141.897 87.3381C136.807 83.0121 130.395 80.4507 124.062 78.5723C113.663 75.4914 102.403 74.5522 92.7925 69.1661C83.2176 63.8013 75.2776 52.0685 79.1303 40.8124C81.0709 35.1416 85.5704 30.9081 91.0367 28.6384C94.4843 27.2082 98.209 27.1442 101.884 27.0446C105.815 26.9379 109.554 26.0841 113.229 24.7037C115.958 23.6791 118.61 22.555 120.593 20.3422C122.157 18.599 123.117 16.379 123.479 14.0737C123.657 12.9638 123.671 11.8467 123.564 10.751C123.209 11.7329 122.754 12.6721 122.285 13.5259C120.849 16.1229 118.908 18.5847 116.321 20.1002C112.76 22.185 108.594 22.9534 104.557 23.4657C100.633 23.9566 96.6807 24.2057 92.764 24.7678C78.3413 26.8311 61.3026 31.2852 53.5048 44.8964C51.3439 48.6674 50.0715 52.9365 49.4744 57.2269C48.9199 61.2185 48.8631 65.5232 49.6947 69.4863C50.0928 71.3718 50.896 73.1506 52.2253 74.5594C53.4124 75.8187 54.9975 76.6014 56.3694 77.626C57.9262 78.7857 59.1346 80.1518 59.7672 82.016C60.3928 83.8588 60.4638 85.8439 60.1155 87.7437C59.4402 91.4649 57.0661 94.9015 54.1872 97.285C51.5713 99.4552 48.5361 100.65 45.1809 101.063C39.1247 101.803 31.6325 99.9959 28.1778 94.5315C26.2515 91.4862 26.024 87.3808 27.6803 84.1719C28.5546 82.4785 29.9905 81.2618 31.7747 80.6286C33.5162 80.0095 35.4283 80.0167 37.1557 79.3621C38.5773 78.8284 39.8071 77.3485 39.8568 75.7903C39.9066 74.3317 38.9683 73.0581 37.9873 72.0762C37.7812 71.8699 37.5679 71.6849 37.3476 71.4928C38.1721 73.0012 38.3001 74.7301 37.113 76.3595C35.8833 78.0529 33.7437 78.8782 31.8386 79.5328C29.7914 80.2443 27.7585 80.778 25.8747 81.8737C21.2401 84.5632 17.3519 88.4765 15.063 93.3575C12.8025 98.1744 12.3476 103.71 13.6413 108.861C14.21 111.124 15.0985 113.074 16.6055 114.859C18.1835 116.738 20.6928 117.883 22.8964 118.823C25.1355 119.776 27.4599 120.68 29.2796 122.359C31.0709 124.009 32.0732 126.272 32.3931 128.67C33.6086 137.841 24.2825 148.414 14.7644 146.002C12.3121 145.383 10.1725 143.832 9.36212 141.363C8.5802 138.973 9.1773 136.753 10.9899 135.073C12.6462 133.537 14.9137 131.644 13.8333 129.118C13.7551 128.933 13.6555 128.755 13.5489 128.577C13.6271 129.054 13.6271 129.552 13.4921 130.064C12.9376 132.256 10.7696 133.515 9.16309 134.896C7.65612 136.191 6.39795 137.592 5.44543 139.35C4.40051 141.278 3.73944 143.391 3.26318 145.526C2.26801 149.965 2.09741 154.797 3.39113 159.194C3.98823 161.207 4.9052 163.185 6.43349 164.658C7.86226 166.031 9.70332 166.878 11.4875 167.703C15.2549 169.447 19.392 171.787 20.8634 175.943C21.432 177.551 21.3539 179.287 21.2614 180.959C21.1477 182.937 21.1406 184.95 21.496 186.914C22.2779 191.304 23.8773 195.538 26.2444 199.316C27.3746 201.123 28.6683 202.809 30.1966 204.296C31.5827 205.641 33.1537 206.694 34.8099 207.683C38.5133 209.896 42.4869 211.739 46.631 212.963C47.7613 213.297 48.9199 213.603 50.0928 213.845C50.6259 213.738 51.1662 213.667 51.7419 213.66C52.8864 213.66 54.0308 213.653 55.1752 213.703C60.0942 213.916 64.9421 214.862 69.8255 215.403C74.6449 215.93 79.5141 215.979 84.3407 215.574C93.7023 214.777 102.936 212.194 111.615 208.651C128.014 201.956 142.501 191.624 157.293 182.062C170.437 173.566 184.326 164.153 191.968 150.029C195.671 143.178 196.354 134.988 195.01 127.403C194.314 123.462 193.141 119.598 191.47 115.962C189.828 112.39 187.724 109.132 185.435 105.951V105.923Z" fill="#EFDB22"/>
<path d="M142.67 79.2337C144.433 80.6496 146.786 81.5533 148.932 82.1865C151.378 82.9051 153.922 83.1471 156.339 82.1794C156.481 82.1225 156.623 82.0513 156.759 81.9802C157.043 81.7454 157.327 81.4963 157.59 81.2402C159.353 79.5255 160.839 77.3767 161.016 74.8508C161.201 72.2609 160.227 69.7137 158.792 67.6005C157.981 66.3981 156.844 65.5798 155.706 64.7047C154.399 63.7014 153.055 62.6982 151.939 61.4815C151.036 60.4996 150.126 59.2331 150.183 57.8243C150.254 56.1167 151.79 54.8146 153.29 54.2668C155.429 53.4841 157.754 54.2668 159.893 54.6297C161.521 54.9071 163.838 54.8502 165.125 53.6264C164.002 54.2312 162.623 54.3877 161.379 54.2668C157.647 53.8968 154.285 51.6769 150.446 52.5236C147.61 53.1497 145.314 55.0566 143.821 57.5113C142.364 59.9091 141.604 62.7551 141.49 65.5443C141.419 67.3515 141.625 69.1516 142.165 70.8735C142.449 71.7771 142.819 72.638 143.182 73.5061C143.502 74.2674 144.077 75.0429 143.892 75.8896C143.821 76.2169 143.466 76.3521 143.167 76.2952C143.167 76.2952 143.167 76.2952 143.167 76.3023C143.16 76.3023 143.153 76.2952 143.146 76.2881C143.061 76.2667 142.983 76.224 142.912 76.16C142.705 76.0319 142.528 75.8612 142.371 75.6691C141.959 75.5054 141.341 75.3275 141.184 75.2635C140.715 75.0643 140.324 74.8295 139.919 74.5235C139.372 74.1109 138.853 73.6555 138.391 73.1503C138.497 73.4278 138.611 73.6982 138.732 73.9685C139.642 75.9679 140.935 77.8392 142.656 79.2266L142.67 79.2337Z" fill="#EFDB22"/>
<path d="M188.587 105.033C186.092 101.753 183.498 98.4804 181.671 94.7664C180.192 91.7495 178.813 87.5516 180.469 84.3285C181.187 82.9339 182.524 81.8311 184.13 81.6817C185.715 81.5394 187.343 82.4572 188.523 83.4249C188.544 83.4462 188.573 83.4676 188.594 83.4889C189.54 84.7056 190.272 86.0788 190.684 87.5374C190.755 87.7935 191.054 87.8434 191.239 87.7295C191.566 87.758 191.921 87.5659 191.942 87.1461C192.006 85.8582 191.48 84.6842 190.67 83.6739C190.585 83.4818 190.492 83.2897 190.378 83.1047C189.646 81.8453 188.651 80.7496 187.514 79.8602C185.189 78.0387 182.31 77.1066 179.389 76.8647C176.219 76.6015 173.105 77.2845 170.233 78.6293C167.269 80.0167 164.518 82.3291 163.736 85.6448C163.296 87.5232 163.587 89.3304 164.319 91.095C165.044 92.8453 166.104 94.4675 166.637 96.2961C167.326 98.6583 167.937 101.419 167.347 103.859C166.715 106.499 164.191 106.983 161.796 106.791C158.64 106.535 156.031 105.133 154.005 102.714C153.508 102.123 153.081 101.49 152.683 100.843C152.669 99.4694 152.178 98.0749 151.617 96.8084C150.494 94.3039 148.859 92.0342 147.103 89.9423C147.082 89.921 147.06 89.8925 147.039 89.8712C146.584 89.1952 146.101 88.5406 145.575 87.9145C144.352 86.4701 143.044 85.1467 141.317 84.4139C138.537 82.2722 135.481 80.4934 132.183 79.0491C126.588 76.5872 120.703 75.0504 114.774 73.6273C109.464 72.3537 104.098 71.1371 99.0081 69.1235C94.1246 67.1953 89.6038 64.3563 86.2557 60.258C82.73 55.9392 80.2705 50.1474 81.0596 44.4909C81.8628 38.7633 85.7937 34.1811 90.798 31.5414C94.1246 29.7911 97.7072 29.3571 101.396 29.0582C103.266 28.9088 105.135 28.7594 106.969 28.3894C108.938 27.991 110.851 27.3862 112.741 26.7245C115.613 25.7213 118.464 24.654 120.717 22.5337C122.487 20.8759 123.766 18.72 124.413 16.3862C125.046 14.1307 125.074 11.7472 124.754 9.44186C124.648 8.69477 124.506 7.93345 124.314 7.19348C124.349 6.30409 124.257 5.4147 123.972 4.568C123.51 3.18767 122.593 2.22001 121.3 1.57254C121.172 1.5085 121.044 1.50139 120.923 1.52273C120.482 1.01044 120.027 0.505269 119.537 0.0356714C119.466 -0.0354797 119.373 0.071247 119.43 0.142398C119.828 0.640456 120.198 1.15275 120.539 1.68638C120.241 1.92118 120.113 2.33385 120.482 2.6398C121.065 3.1094 121.485 3.65015 121.783 4.21936C121.947 4.67473 122.103 5.1301 122.252 5.58546C122.53 7.06541 122.21 8.69477 121.62 10.2103C120.596 12.85 118.826 15.5253 116.615 17.3183C113.694 19.6876 109.535 20.4774 105.91 20.9826C102.072 21.5162 98.1906 21.6799 94.345 22.1423C79.8725 23.8855 63.63 27.6779 53.9911 39.5744C48.6669 46.1488 46.3354 54.7225 46.3923 63.1041C46.4207 66.9178 46.5984 71.4643 48.9726 74.6306C50.1241 76.1674 51.5885 77.3059 53.1949 78.3304C54.5953 79.2198 56.1875 80.0736 57.0974 81.518C59.1446 84.7625 58.057 89.0387 56.1378 92.0484C54.2754 94.9656 51.3183 97.278 47.9774 98.2172C42.5751 99.7398 35.2891 98.8647 31.2942 94.5956C29.1119 92.2618 28.1737 88.6687 29.5313 85.6732C30.2848 84.0083 31.5785 83.0762 33.3201 82.6493C35.0403 82.2295 36.8387 82.1157 38.4381 81.2761C41.4236 79.7037 42.6178 75.8117 40.8904 72.9229C39.3195 70.2975 36.3056 68.597 33.4907 67.6293C32.0121 67.117 30.1782 66.747 28.6286 66.9889C28.3229 67.0387 28.394 67.5368 28.6997 67.5297C28.8987 67.5297 29.0977 67.5297 29.2968 67.551C29.1617 67.6008 29.0195 67.6506 28.8845 67.7218C28.721 67.8072 28.7494 68.0989 28.9414 68.1345C29.7801 68.2697 30.6331 68.6325 31.4222 68.9314C32.4173 69.3085 33.3698 69.7354 34.2086 70.4042C35.6303 71.5355 36.9453 73.6202 35.7298 75.3705C34.6493 76.9145 32.3249 77.4624 30.626 77.9533C28.5575 78.551 26.5885 79.0989 24.6835 80.1234C15.4426 85.104 9.15179 94.9087 10.2109 105.596C10.4668 108.157 10.9431 110.839 12.2084 113.109C13.367 115.173 15.0659 116.574 16.9994 117.89C19.011 119.264 21.2004 120.174 23.4253 121.121C25.508 122.01 27.8467 123.063 29.0835 125.07C31.4577 128.926 30.2351 134.07 27.9533 137.649C25.6573 141.264 21.698 144.316 17.2482 144.195C15.0943 144.138 12.6064 143.327 11.5331 141.313C11.0142 140.346 10.7583 139.001 11.1919 137.955C11.5544 137.094 12.3505 136.497 13.0258 135.892C14.7745 134.326 16.0326 132.142 15.599 129.716C15.2081 127.531 13.3315 125.781 11.2772 125.134C11.0852 125.077 10.8862 125.034 10.6872 124.991C9.95503 124.621 9.18022 124.465 8.313 124.436C8.09975 124.429 7.95048 124.7 8.05711 124.878C8.04289 124.878 8.02867 124.878 8.01445 124.878C7.86518 124.892 7.7941 125.141 7.97181 125.169C8.15662 125.198 8.34855 125.24 8.54047 125.283C9.27263 125.838 10.0474 126.379 10.7156 126.998C11.3554 127.588 11.9098 128.385 11.7961 129.303C11.661 130.449 10.6374 131.288 9.80575 131.957C8.95986 132.633 8.10686 133.295 7.29651 134.013C5.85353 135.28 4.50294 136.696 3.53621 138.361C2.4131 140.296 1.65962 142.48 1.09806 144.636C-0.0819222 149.197 -0.416013 154.106 0.54361 158.738C0.998542 160.93 1.79467 163.164 3.11682 164.985C4.3821 166.729 6.05256 168.045 7.93626 169.062C11.4975 170.984 15.9971 172.321 17.9874 176.192C18.7054 177.586 18.6343 179.201 18.5916 180.724C18.5277 182.802 18.3997 184.837 18.6272 186.907C19.5726 195.602 24.2925 204.617 31.7136 209.448C35.3815 211.839 39.3693 213.774 43.4992 215.211C47.0391 216.442 50.9843 217.395 54.7801 217.004C55.0218 217.011 55.2635 217.018 55.5051 217.033C57.8509 217.168 60.1824 217.431 62.5139 217.737C67.305 218.37 72.0675 219.046 76.9154 219.089C86.3481 219.181 95.7667 217.474 104.709 214.507C113.388 211.625 121.698 207.705 129.652 203.215C137.308 198.889 144.544 193.937 151.908 189.156C165.073 180.603 179.076 172.307 189.035 159.884C191.516 156.789 193.84 153.473 195.546 149.873C197.266 146.237 198.311 142.381 198.745 138.382C199.612 130.399 197.92 122.316 194.658 115.03C193.044 111.437 190.983 108.164 188.601 105.033H188.587ZM191.964 150.001C184.322 164.125 170.425 173.538 157.289 182.033C142.497 191.596 128.01 201.927 111.611 208.622C102.932 212.166 93.691 214.749 84.3365 215.545C79.5099 215.958 74.6407 215.908 69.8213 215.375C64.9379 214.841 60.09 213.888 55.1711 213.674C54.0266 213.624 52.8822 213.624 51.7377 213.632C51.162 213.632 50.6217 213.71 50.0886 213.817C48.9157 213.567 47.75 213.262 46.6269 212.934C42.4827 211.718 38.5092 209.868 34.8057 207.655C33.1566 206.666 31.5785 205.62 30.1924 204.268C28.6641 202.781 27.3704 201.095 26.2402 199.287C23.8802 195.509 22.2809 191.269 21.4918 186.886C21.1435 184.929 21.1435 182.916 21.2573 180.93C21.3568 179.258 21.435 177.522 20.8592 175.914C19.3878 171.759 15.2507 169.418 11.4833 167.675C9.69913 166.85 7.86518 166.01 6.4293 164.63C4.8939 163.157 3.97693 161.186 3.38694 159.165C2.09322 154.768 2.26382 149.937 3.25899 145.497C3.73525 143.363 4.39632 141.249 5.44124 139.321C6.39376 137.571 7.65193 136.162 9.15889 134.867C10.7654 133.487 12.9334 132.227 13.4879 130.036C13.6158 129.517 13.6229 129.019 13.5447 128.549C13.6514 128.727 13.7509 128.905 13.8291 129.09C14.9095 131.616 12.642 133.515 10.9857 135.045C9.17311 136.724 8.57601 138.944 9.35793 141.335C10.1683 143.804 12.3079 145.355 14.7603 145.974C24.2783 148.386 33.6044 137.813 32.3889 128.641C32.069 126.251 31.0667 123.988 29.2754 122.33C27.4557 120.651 25.1313 119.748 22.8922 118.794C20.6886 117.855 18.1794 116.709 16.6013 114.831C15.1015 113.045 14.2058 111.096 13.6371 108.833C12.3434 103.682 12.7912 98.146 15.0588 93.3291C17.3548 88.4481 21.2359 84.5419 25.8706 81.8453C27.7614 80.7496 29.7872 80.2159 31.8344 79.5044C33.7395 78.8498 35.8791 78.0245 37.1088 76.3311C38.2959 74.6946 38.1679 72.9656 37.3434 71.4643C37.5566 71.6565 37.777 71.8414 37.9831 72.0478C38.9641 73.0368 39.8953 74.3033 39.8526 75.7619C39.8029 77.313 38.566 78.7929 37.1515 79.3337C35.4241 79.9883 33.512 79.9811 31.7705 80.6002C29.9863 81.2334 28.5504 82.4501 27.6761 84.1435C26.0198 87.3524 26.2473 91.4578 28.1737 94.5031C31.6283 99.9675 39.1205 101.768 45.1768 101.035C48.5319 100.629 51.5671 99.4339 54.183 97.2566C57.0548 94.8731 59.436 91.4365 60.1113 87.7153C60.4596 85.8155 60.3886 83.8304 59.763 81.9876C59.1304 80.1235 57.9291 78.7573 56.3653 77.5976C54.9862 76.573 53.4082 75.7832 52.2211 74.531C50.8918 73.1222 50.0815 71.3434 49.6905 69.4579C48.8589 65.4948 48.9157 61.1901 49.4702 57.1985C50.0602 52.9081 51.3397 48.639 53.5006 44.868C61.2984 31.2568 78.3371 26.8027 92.7599 24.7394C96.6765 24.1773 100.629 23.9282 104.553 23.4373C108.59 22.9321 112.763 22.1637 116.317 20.0718C118.904 18.5563 120.845 16.0945 122.281 13.4975C122.75 12.6437 123.198 11.7045 123.56 10.7226C123.667 11.8254 123.653 12.9354 123.475 14.0453C123.112 16.3506 122.153 18.5634 120.589 20.3138C118.606 22.5266 115.947 23.6508 113.225 24.6753C109.543 26.0557 105.811 26.9095 101.88 27.0162C98.2048 27.1158 94.4801 27.1798 91.0325 28.61C85.5662 30.8797 81.0667 35.1061 79.1261 40.784C75.2734 52.0401 83.2134 63.78 92.7883 69.1377C102.399 74.5167 113.658 75.4559 124.058 78.5439C130.391 80.4223 136.803 82.9837 141.893 87.3097C142.795 88.0781 143.641 88.9106 144.459 89.7715C145.191 90.8246 145.852 91.9345 146.442 93.0658C148.048 96.1325 149.058 99.4766 150.856 102.451C151.034 102.75 151.226 103.034 151.418 103.319C151.418 103.454 151.503 103.561 151.617 103.596C153.159 105.766 155.15 107.538 157.666 108.555C160.41 109.665 164.326 110.171 166.914 108.392C169.025 106.94 169.707 104.35 169.658 101.903C169.608 99.0568 168.862 96.0969 167.639 93.5354C166.864 91.899 165.855 90.3052 165.514 88.4979C165.179 86.7476 165.741 84.919 166.793 83.5102C168.684 80.9915 172.053 79.5258 175.06 78.921C178.245 78.2806 181.713 78.6577 184.621 80.1377C182.012 79.9171 179.56 81.5322 178.387 83.987C176.73 87.4662 177.491 91.5574 178.884 94.9869C180.491 98.95 182.95 102.444 185.431 105.894C187.72 109.075 189.824 112.341 191.466 115.905C193.136 119.541 194.309 123.405 195.006 127.346C196.349 134.931 195.667 143.121 191.964 149.973V150.001Z" fill="#C55229"/>
<path d="M140.693 80.5433C142.684 82.3861 145.321 83.5388 147.873 84.3713C150.602 85.2678 153.851 85.7729 156.595 84.663C158.016 84.0866 159.168 83.0407 160.184 81.9094C161.194 80.7781 162.011 79.5757 162.338 78.0744C162.388 77.8609 162.281 77.7115 162.139 77.6475C163.618 73.5563 162.217 68.6255 159.281 65.4521C157.177 63.1682 153.829 61.8163 152.344 58.9774C151.64 57.6397 152.649 56.6792 153.957 56.2452C156.168 55.5123 158.663 56.4871 160.916 56.5227C163.333 56.5583 166.226 55.3416 167.172 52.9438C167.357 52.4742 167.506 51.9619 167.492 51.4567C167.47 50.8946 167.179 50.5033 167.165 49.9483C167.15 49.3577 167.037 49.0376 166.653 48.6107C166.233 48.1411 165.963 47.6003 165.715 47.024C165.693 46.9742 165.608 47.0098 165.622 47.0596C165.786 47.6003 165.942 48.1482 165.885 48.7174C165.835 49.2581 165.821 49.557 166.041 50.0621C166.226 50.4962 166.184 50.5602 166.105 50.9302C165.921 51.2433 165.693 51.5279 165.487 51.7484C164.876 52.3817 164.08 52.7161 163.212 52.8513C161.279 53.1501 159.317 52.403 157.512 51.7982C154.242 50.7096 150.993 50.176 147.723 51.5492C142.328 53.8189 139.499 59.945 139.307 65.5375C139.243 67.4942 139.52 69.4295 140.196 71.2723C140.544 72.2257 140.956 73.1649 141.447 74.0543C141.454 74.0686 141.461 74.0828 141.475 74.1041C141.34 73.9974 141.198 73.8836 141.056 73.7768C140.309 73.2147 139.627 72.5744 139.058 71.8273C138.532 71.13 138.049 70.39 137.701 69.586C137.566 69.273 137.473 68.9528 137.395 68.6326C137.338 68.099 137.274 67.5653 137.132 67.053C137.089 66.8894 136.968 66.804 136.833 66.7684C136.755 66.6759 136.627 66.6759 136.556 66.7684C136.464 66.804 136.371 66.8538 136.307 66.9463C135.014 68.8532 135.788 71.9981 136.471 73.9832C137.317 76.4379 138.781 78.7788 140.693 80.5433ZM139.933 74.531C140.338 74.837 140.729 75.0718 141.198 75.271C141.354 75.3351 141.973 75.52 142.385 75.6766C142.541 75.8687 142.719 76.0394 142.925 76.1675C142.989 76.2244 143.067 76.2742 143.16 76.2956C143.167 76.2956 143.174 76.3027 143.181 76.3098C143.181 76.3098 143.181 76.3098 143.181 76.3027C143.48 76.3667 143.835 76.2316 143.906 75.8971C144.091 75.0576 143.515 74.2749 143.195 73.5136C142.833 72.6455 142.463 71.7775 142.179 70.881C141.639 69.1591 141.425 67.3519 141.504 65.5518C141.617 62.7626 142.378 59.9166 143.835 57.5188C145.328 55.0641 147.617 53.1572 150.46 52.5311C154.299 51.6844 157.661 53.8972 161.393 54.2743C162.637 54.3953 164.016 54.2458 165.139 53.6339C163.852 54.8577 161.535 54.9147 159.907 54.6372C157.767 54.2672 155.443 53.4916 153.303 54.2743C151.804 54.8222 150.275 56.1242 150.197 57.8319C150.133 59.2406 151.043 60.5 151.953 61.489C153.069 62.7057 154.412 63.7089 155.72 64.7122C156.858 65.5873 157.995 66.4056 158.805 67.608C160.241 69.7283 161.208 72.2684 161.03 74.8583C160.852 77.3842 159.367 79.533 157.604 81.2477C157.341 81.5039 157.064 81.7529 156.772 81.9877C156.63 82.0517 156.495 82.1229 156.353 82.1869C153.943 83.1546 151.391 82.9126 148.946 82.194C146.799 81.5679 144.446 80.6643 142.684 79.2413C140.963 77.8538 139.67 75.9825 138.76 73.9832C138.639 73.7128 138.525 73.4424 138.419 73.1649C138.881 73.6701 139.4 74.1326 139.947 74.5382L139.933 74.531Z" fill="#C55229"/>
<path d="M176.096 110.91C178.051 113.678 179.16 117.036 179.253 120.423C177.703 116.738 176.146 113.059 174.597 109.373C176.338 112.589 173.964 116.489 171.327 119.029C167.566 122.657 162.932 125.532 157.792 126.485C152.653 127.439 147.009 126.293 143.121 122.8C138.138 118.324 136.823 111.053 132.885 105.631C126.445 96.7583 114.474 94.3819 103.648 92.7098C107.75 94.7163 112.605 98.2952 111.254 102.664C110.089 106.442 105.098 107.31 101.196 106.712C94.9834 105.759 89.0977 102.778 84.655 98.3236C83.6598 97.3275 82.6717 96.0966 82.7499 94.6878C82.8495 92.9019 84.5412 91.7137 85.7923 90.433C89.6948 86.4485 89.7516 79.5682 86.4889 75.0501C83.2262 70.532 77.2481 68.4046 71.7107 69.0449C72.9902 67.2946 74.3124 65.4304 74.5256 63.2746C74.7389 61.1187 73.3741 58.6426 71.2131 58.4718C69.1659 58.3153 66.4435 59.9162 65.4554 58.1161C65.2208 57.6892 65.1995 57.1769 65.235 56.6859C65.4767 52.9719 68.6257 49.6562 72.322 49.2364C68.6897 48.8237 64.7303 49.6847 62.1927 52.3244C59.655 54.9641 59.0934 59.5818 61.5814 62.2642C62.4628 63.2176 63.6357 63.8722 64.5029 64.8399C67.1614 67.8069 66.1165 72.4673 64.645 76.1743C63.1736 79.8812 61.4534 84.0863 63.1807 87.6865C64.8156 91.0804 68.9527 92.5533 71.0354 95.691C73.6086 99.5759 72.2865 104.969 69.5782 108.762C66.8699 112.554 63.0101 115.364 59.9109 118.851C56.8188 122.344 54.4375 127.076 55.6672 131.58C56.6482 135.166 59.7972 138.78 58.0912 142.074C56.8117 144.536 53.222 145.027 50.8194 143.64C48.4167 142.252 47.0591 139.57 46.3198 136.895C45.4597 133.771 45.3175 130.235 47.0235 127.481C48.3386 125.354 50.6701 123.817 51.3027 121.398C52.0633 118.495 50.0375 115.585 47.713 113.685C43.8319 110.505 38.7779 108.783 33.7594 108.939C39.6238 111.081 43.6826 117.385 43.1992 123.611C42.8367 128.328 40.2137 132.533 37.5623 136.446C34.9109 140.36 32.0818 144.358 31.2075 149.012C30.3332 153.658 32.0321 159.179 36.3468 161.107C33.3755 160.311 30.3119 162.865 29.5228 165.846C28.7338 168.827 29.6437 171.979 30.8094 174.832C38.9698 194.833 59.3351 207.704 80.3331 212.692C86.6026 214.186 93.0783 215.097 99.5042 214.542C110.906 213.567 121.526 208.01 130.425 200.803C137.285 195.239 143.299 188.671 150.364 183.364C157.43 178.056 165.946 173.993 174.753 174.562C179.978 174.904 185.913 176.668 189.979 173.36C193.86 170.201 193.59 164.202 192.247 159.378C191.102 155.273 186.482 151.673 186.062 147.859C185.885 146.251 187.185 143.875 187.455 142.245C187.846 139.869 187.903 137.407 187.754 135.009C187.456 130.384 186.24 125.824 184.221 121.654C182.202 117.485 178.762 114.66 176.104 110.889L176.096 110.91Z" fill="#EDA63E"/>
<path d="M368.997 202.29V206.211C363.445 205.926 359.955 205.777 358.512 205.769C352.69 205.72 346.52 206.872 340.002 209.227C326.24 214.208 313.715 221.01 302.435 229.634C298.916 232.33 295.44 235.582 292.156 238.634C291.865 238.905 291.609 239.211 291.374 239.545C290.983 240.121 291.09 240.249 291.708 239.929L294.431 238.542C301.518 237.104 307.474 236.429 312.315 236.514C317.867 236.606 324.008 237.41 330.733 238.926C335.353 240.875 338.374 242.213 339.803 242.946C344.622 245.408 348.752 248.965 352.193 253.619C352.335 253.811 352.463 253.804 352.584 253.597C356.429 247.016 361.903 242.483 368.997 239.986V243.038C366.132 245.564 363.509 248.225 361.135 251.029C357.112 255.789 353.913 262.818 355.001 268.923C355.52 271.862 356.884 274.566 359.109 277.049C361.64 280.528 364.938 283.267 368.997 285.274V288.163C365.699 287.871 362.429 286.654 359.187 284.512C357.133 283.082 355.711 281.795 354.908 280.649C354.276 279.76 353.65 278.97 353.017 278.294C352.74 277.995 352.619 278.052 352.641 278.458C352.946 283.431 354.972 287.586 358.704 290.916C361.697 293.677 365.123 296.003 368.997 297.896V300.87C365.727 300.493 362.614 299.397 359.664 297.583C356.557 295.598 353.913 293.108 351.731 290.112C351.432 289.699 351.255 289.749 351.198 290.262C351.063 291.528 351.176 292.866 351.546 294.274C353.65 302.4 358.285 308.668 365.443 313.087L368.997 315.314V317.925C367.206 317.69 365.414 317.42 363.623 317.1C362.926 316.979 362.308 316.737 361.775 316.388C360.701 315.691 360.367 315.954 360.758 317.171C361.874 320.636 360.787 325.204 360.254 328.754C359.721 331.337 359.386 334.354 358.306 336.73C357.751 337.947 356.287 337.968 355.235 337.527C355.036 337.449 354.887 337.307 354.78 337.115C354.048 335.713 353.487 334.212 353.11 332.604C352.548 330.22 351.958 327.865 351.333 325.524C350.771 323.461 350.465 323.496 350.402 325.638C350.352 327.189 350.451 328.776 350.7 330.398C351.923 338.41 350.785 346.001 350.323 353.892C350.131 357.236 349.875 360.594 349.563 363.96C349.371 366.059 348.56 369.652 345.603 368.549C336.299 365.056 326.802 363.668 317.12 364.373C313.588 364.629 308.278 365.34 301.183 366.507C300.793 366.571 300.778 366.678 301.148 366.827C302.1 367.212 303.081 367.525 304.091 367.759C312.145 369.666 320.163 370.89 328.152 371.438C328.487 371.459 328.771 371.594 328.998 371.851C329.098 371.957 329.091 372.121 328.991 372.228C319.786 381.591 306.579 384.523 293.741 385.455C291.58 385.611 289.476 385.206 287.329 385.113C286.398 385.078 286.37 385.234 287.23 385.583C291.367 387.255 294.367 391.303 297.231 394.711C297.779 395.359 297.644 395.558 296.833 395.323C289.412 393.132 281.458 391.816 273.639 391.922C270.504 391.958 267.419 391.951 264.398 391.894C263.111 391.872 261.931 391.574 260.68 391.374C260.232 391.303 260.176 391.424 260.51 391.737C273.226 403.541 283.74 412.891 292.042 419.799C302.051 428.131 314.398 432.599 327.207 434.392C327.698 434.464 328.195 434.328 328.586 434.022C333.086 430.486 337.855 427.96 342.888 426.431C351.489 423.819 360.19 423.272 368.997 424.787V429.006C366.061 429.27 363.133 429.483 360.197 429.632C354.062 429.953 349.79 430.579 344.473 432.173C333.917 435.325 326.738 441.949 322.949 452.031C322.672 452.806 322.38 453.582 322.061 454.365C321.741 455.126 321.471 455.916 321.25 456.72C318.684 465.912 317.988 476.229 316.943 486.19C316.836 487.194 316.708 487.194 316.559 486.19C316.21 483.907 315.94 481.388 315.734 478.641C313.779 467.812 314.874 457.381 319.004 447.356C320.483 443.784 322.309 440.732 324.477 438.206C324.669 437.978 324.513 437.637 324.222 437.623C310.176 436.989 298.518 431.674 287.926 422.852C278.153 414.705 268.62 406.131 259.315 397.116C254.816 392.762 250.331 389.062 243.826 388.471C240.294 388.151 236.704 388.109 233.057 388.336C232.993 388.336 232.937 388.322 232.887 388.286C232.83 388.244 232.816 388.18 232.837 388.094C232.858 388.016 232.908 387.959 232.986 387.938C238.9 386.323 245.525 384.523 251.141 386.579C254.716 387.881 258.143 388.507 261.42 388.464C268.748 388.358 276.198 388.372 283.775 388.507C284.77 388.528 285.737 388.614 286.683 388.777C287.294 388.884 287.336 388.777 286.818 388.436C283.228 386.116 279.532 383.662 275.721 381.072C275.501 380.922 275.316 380.744 275.153 380.538C274.961 380.289 275.11 379.926 275.423 379.876C276.169 379.77 276.894 379.77 277.605 379.876C287.095 381.385 298.12 381.349 307.496 378.944C312.635 377.628 317.703 375.949 322.686 373.921C323.134 373.743 323.12 373.636 322.636 373.601C320.994 373.494 319.395 373.487 317.746 373.274C309.387 372.206 301.432 370.591 293.45 367.617C292.12 367.119 291.751 366.208 292.341 364.885C292.447 364.65 292.611 364.479 292.838 364.365C293.3 364.131 293.798 363.967 294.317 363.882C298.539 363.156 302.776 362.302 307.034 361.32C312.4 360.075 317.895 359.499 323.504 359.598C330.306 359.719 337.187 360.431 343.613 362.786C343.919 362.9 344.246 362.715 344.31 362.395C344.502 361.384 344.63 360.381 344.686 359.378C345.12 351.629 345.632 344.408 346.222 337.705C346.314 336.588 346.328 335.457 346.257 334.311C345.71 325.837 344.224 317.47 341.793 309.216C341.36 307.736 341.566 307.644 342.398 308.939C344.189 311.706 345.845 314.766 347.359 318.124C347.615 318.686 347.814 318.665 347.963 318.06C348.312 316.573 348.475 314.93 348.07 313.428C347.828 312.525 347.75 311.585 347.835 310.611C347.864 310.312 348.177 310.134 348.447 310.269C349.158 310.632 349.691 311.13 350.053 311.77C352.548 316.189 354.212 321.646 355.704 326.606C355.903 327.267 356.131 327.274 356.387 326.634C356.607 326.086 356.742 325.51 356.778 324.919C356.955 322.159 357.261 319.412 357.688 316.673C357.929 315.1 357.545 313.82 356.543 312.824C350.849 307.188 343.485 295.669 348.738 287.672C349.186 286.981 349.62 286.483 349.342 285.566C348.027 281.147 347.835 276.017 349.406 271.933C349.506 271.684 349.534 271.428 349.492 271.165C348.66 265.978 349.257 261.025 351.283 256.301C351.446 255.917 351.347 255.476 351.041 255.191C350.508 254.693 349.897 254.231 349.222 253.797C341.282 248.723 333.512 244.945 323.66 242.797C319.516 241.921 315.258 241.381 310.879 241.174C307.261 241.004 303.842 241.502 300.302 241.928C294.665 242.604 289.092 244.291 283.583 246.973C283.249 247.137 283.072 247.521 283.157 247.884C284.863 255.113 284.877 262.456 283.199 269.905L279.674 282.207C279.645 282.314 279.581 282.342 279.482 282.293L279.304 282.207C279.205 282.164 279.169 282.093 279.19 281.987C280.704 274.765 281.685 268.311 282.126 262.612C282.403 259.076 282.155 254.373 281.387 248.496C281.38 248.425 281.337 248.389 281.266 248.389C281.245 248.389 281.216 248.396 281.195 248.403C281.131 248.439 281.095 248.489 281.088 248.567C280.52 256.941 278.764 264.917 275.828 272.495C273.333 278.934 270.063 285.622 266.019 292.545C265.99 292.595 265.955 292.609 265.905 292.581L265.727 292.496C265.692 292.474 265.677 292.446 265.699 292.41C270.205 282.613 273.397 272.403 275.274 261.787C277.378 251.036 277.186 241.516 274.03 231.825C271.243 223.266 267.184 214.293 261.853 204.923C254.404 191.824 245.106 180.603 233.967 171.261C220.589 160.041 204.837 152.484 186.711 148.592C186.455 148.543 186.299 148.642 186.235 148.891C186.171 149.154 186.263 149.432 186.512 149.738C186.391 150.663 186.277 152.186 186.171 154.306C185.943 158.895 184.209 163.321 180.96 167.583C180.84 167.732 180.676 167.81 180.47 167.803C180.392 167.803 180.321 167.768 180.264 167.689C180.129 167.511 180.115 167.326 180.214 167.134C183.228 161.2 183.029 155.53 182.78 148.962C182.738 147.888 182.539 147.86 182.176 148.877C179.66 155.928 175.501 162.125 169.708 167.455C169.665 167.49 169.609 167.497 169.566 167.462C169.523 167.426 169.509 167.369 169.537 167.319C172.438 162.417 174.826 157.429 176.71 152.356C178.323 147.98 178.864 143.654 178.323 139.364C177.108 129.687 172.829 121.655 165.493 115.265C162.6 112.419 159.152 110.292 155.136 108.883C154.326 108.598 154.219 108.769 154.809 109.395C162.415 117.457 161.185 129.574 155.036 138.304C152.847 141.413 150.395 144.772 147.686 148.379C144.459 152.662 142.241 157.963 143.102 163.463C143.62 166.772 144.495 169.696 145.717 172.243C146.236 173.325 146.094 173.424 145.284 172.535C143.357 170.436 141.808 167.96 140.635 165.107C137.337 157.102 142.092 149.304 146.819 143.128C147.21 142.623 147.303 141.94 147.068 141.342C144.63 135.202 140.5 130.79 134.671 128.115C131.352 126.585 128.046 125.732 124.755 125.554C124.321 125.532 124.257 125.675 124.549 125.988C129.66 131.545 130.577 138.418 126.66 144.949C122.175 152.435 114.576 158.646 108.463 164.893C104.461 168.977 101.418 175.452 102.748 181.265C104.02 186.793 106.202 191.674 109.309 195.894C110.027 196.868 109.92 196.975 108.975 196.207C105.406 193.29 102.577 189.696 100.494 185.427C98.0064 180.333 97.7221 175.231 99.9896 170.03C101.831 165.783 104.468 162.154 107.901 159.144C108.065 159.002 108.086 158.838 107.972 158.653C103.38 151.218 96.4994 145.689 87.9765 144.729C82.5245 144.117 76.262 145.597 72.7434 150.136C72.5088 150.442 72.587 150.57 72.9638 150.521C77.2359 149.987 80.9393 150.983 84.0741 153.509C90.5924 158.781 86.3274 165.391 82.887 170.806C76.0488 181.564 65.5498 198.875 71.2862 211.817C73.0704 215.83 75.7573 218.961 79.3613 221.202C81.4724 222.526 83.541 223.792 86.0146 224.276C86.6615 224.397 86.6615 224.475 86.0004 224.504C84.5717 224.568 83.0576 224.34 81.4582 223.828C75.672 221.985 71.2862 219.31 68.514 213.561C67.1207 210.665 66.3672 208.11 66.2464 205.89C66.1398 203.891 66.09 201.892 66.09 199.878C66.09 199.288 65.8981 198.711 65.5427 198.242C58.2282 188.508 49.485 181.87 37.2231 179.885C30.5626 178.81 24.2149 179.465 18.1942 181.848L14.114 183.713C13.7586 183.876 13.7728 184.004 14.1495 184.104C20.9806 185.94 23.9306 191.141 25.1745 198.014C25.9565 202.304 26.7384 206.638 27.5132 211.006C30.0295 225.172 37.8416 235.005 50.9422 240.52C55.3565 242.377 60.1119 242.725 65.2228 241.573C65.4147 241.53 65.5996 241.473 65.7773 241.395C66.5236 241.075 66.6018 241.196 66.0047 241.751C64.9456 242.74 63.7372 243.551 62.3653 244.184C62.1307 244.291 62.0667 244.469 62.1591 244.703L62.2302 244.888C62.2729 244.988 62.3795 245.045 62.4861 245.016L66.4099 243.892C65.5498 245.009 64.448 245.735 63.1045 246.055C63.0192 246.077 62.9482 246.119 62.8984 246.169C62.8202 246.255 62.7704 246.326 62.7491 246.375L57.8586 247.685C57.7804 247.706 57.752 247.806 57.8088 247.863C61.5123 251.619 65.2228 255.397 68.9405 259.197C70.156 260.442 70.6109 261.73 70.291 263.068C69.6229 265.906 67.8529 272.04 69.957 274.48C72.7079 277.668 76.0843 280.4 79.5247 282.812C79.9157 283.089 80.4631 282.947 80.6692 282.52L82.4747 278.778C87.1236 270.787 91.744 263.011 96.3359 255.447C99.6982 249.933 103.686 244.931 108.313 240.449C109.344 239.445 110.702 238.62 112.173 238.478C116.836 238.029 121.514 237.745 126.198 237.624C130.328 237.517 134.501 238.179 138.673 238.52C139.853 238.62 139.91 238.926 138.844 239.445C138.808 239.46 138.467 239.531 137.813 239.666C131.707 241.907 125.452 243.65 119.033 244.903C117.76 245.152 116.893 245.764 116.417 246.745C112.806 254.209 108.982 261.801 104.944 269.514C104.397 270.56 104.589 270.723 105.527 269.998C110.745 265.963 116.325 262.242 122.26 258.827C124.975 257.269 127.684 255.597 130.385 253.818C130.591 253.683 130.762 253.491 130.861 253.263C131.75 251.363 132.809 249.961 134.024 249.058C137.472 246.518 140.891 243.878 144.274 241.153C145.973 240.143 147.281 239.275 148.212 238.549C157.88 231.007 167.042 223.927 175.693 217.317C177.918 215.617 180.2 213.945 182.539 212.315C185.09 210.537 187.322 208.231 189.633 206.097C190.535 205.257 191.559 205.207 192.703 205.435C199.044 206.659 205.328 208.181 211.555 210.003C213.645 210.615 213.751 212.792 212.543 214.244C210.325 216.919 208.328 218.833 206.543 219.985C205.129 220.91 202.719 220.348 201.233 220.049C200.793 219.957 200.338 220.042 199.961 220.291C194.687 223.735 189.355 226.923 184.486 230.879C172.566 240.555 159.102 251.036 144.111 262.32C142.853 263.274 141.573 264.149 140.287 264.953C139.874 265.209 139.761 265.757 140.045 266.155C146.279 274.971 149.407 284.484 149.442 294.694C149.449 295.1 149.62 295.192 149.954 294.965C156.686 290.368 165.301 292.389 170.44 297.91C175.068 302.877 176.105 308.498 173.547 314.766C172.48 317.377 171.4 319.988 170.298 322.607C168.173 327.659 167.398 332.874 167.974 338.26C168.5 343.248 169.552 347.958 169.225 353.202C169.026 356.432 167.782 358.538 166.388 361.242C166.317 361.377 166.388 361.541 166.531 361.583C171.428 363.085 176.312 363.839 181.181 363.832C197.558 363.796 211.604 358.538 225.039 349.95C231.216 346.001 235.936 341.455 239.199 336.325C241.673 334.14 243.727 331.942 245.362 329.736C247.174 327.289 248.852 325.076 250.38 323.098C251.077 322.194 251.191 322.258 250.714 323.297C247.949 329.352 244.551 335.713 240.521 342.373C239.938 342.885 238.943 344.002 237.528 345.724C235.602 348.072 233.143 350.349 230.15 352.554C219.097 360.701 206.842 365.831 193.4 367.937C192.433 367.745 191.744 367.873 191.324 368.329C186.398 373.722 183.512 380.937 181.735 388.294C179.411 397.949 179.354 407.54 181.579 417.06C183.278 424.325 185.737 431.105 188.943 437.402C189.334 438.178 189.448 438.135 189.284 437.281C188.111 431.269 187.571 425.257 187.649 419.237C188.069 417.11 188.495 415.025 188.929 412.969C191.779 399.386 199.535 389.859 212.209 384.402C215.635 382.929 219.488 382.324 223.767 382.587C223.703 383.349 223.262 383.669 222.452 383.541C217.099 385.255 212.664 387.824 209.145 391.246C201.169 397.294 196.293 405.149 194.516 414.812C193.784 418.832 193.428 421.941 193.464 424.14C193.514 427.228 193.926 430.814 194.701 434.891C197.146 447.804 204.176 460.59 212.585 470.43C212.863 470.751 212.934 470.708 212.813 470.302L209.948 460.975C210.467 459.274 210.652 457.737 210.517 456.35C210.424 455.389 210.716 455.254 211.391 455.937L212.059 456.613C218.606 469.669 225.245 481.203 231.97 491.214C237.706 499.759 244.338 507.408 251.859 514.153C252.399 514.637 252.527 514.544 252.236 513.883C251.688 512.623 251.084 511.378 250.423 510.154C249.215 507.92 248.553 505.344 247.779 502.911C247.494 502.007 247.665 501.908 248.29 502.626C249.051 503.502 249.584 504.555 250.444 505.38C257.673 512.36 266.083 517.839 275.075 522.428C279.51 524.69 283.996 526.434 288.524 527.65C293.258 528.924 298.553 528.789 304.404 527.245C308.924 526.327 313.936 525.196 319.445 523.837C321.407 523.353 323.319 523.395 324.954 524.769C330.193 529.166 340.478 529.607 346.478 528.027C353.629 526.142 357.751 522.172 358.839 516.11C359.145 514.43 359.6 512.922 360.204 511.577C361.86 507.906 364.789 505.43 368.997 504.149V507.913C368.634 509.073 368.172 510.211 367.597 511.314C365.706 514.928 364.469 518.763 362.99 522.634C360.111 530.148 352.69 533.392 344.772 534.673C336.86 535.954 328.508 533.193 322.039 528.582C321.805 528.419 321.556 528.383 321.293 528.483C313.374 531.485 305.157 533.698 297.103 534.239C293.649 534.474 289.895 533.997 285.844 532.823C277.371 530.368 269.26 526.242 261.519 520.436C261.455 520.386 261.377 520.336 261.299 520.3C260.545 519.93 260.097 519.966 259.955 520.414C259.927 520.5 259.948 520.564 260.026 520.613C263.68 522.84 257.382 526.355 254.546 522.684C253.394 521.197 251.702 520.87 250.487 519.447C248.148 516.7 245.511 514.516 243.023 511.94C241.744 510.617 240.414 509.279 239.028 507.92C237.678 506.59 236.441 505.202 235.318 503.758C232.396 500.001 229.254 496.137 226.731 491.89C224.89 488.795 223.042 485.813 221.179 482.953C220.867 482.476 220.483 482.078 220.021 481.751C216.481 479.225 212.493 477.282 209.543 474.123C207.304 471.725 204.894 469.641 202.861 467.022C200.679 464.212 198.987 461.643 197.786 459.302C195.682 455.204 194.104 451.376 190.997 447.612C189.334 445.592 187.976 443.628 186.931 441.714C185.055 438.306 183.214 434.684 181.785 431.006C179.269 424.531 177.584 418.191 176.724 411.987C176.404 409.653 176.269 407.369 176.305 405.142C176.376 401.328 175.892 397.344 176.568 393.708C176.831 392.307 177.079 390.976 177.314 389.717C178.103 385.554 179.454 381.392 181.359 377.222C182.78 374.113 184.856 371.459 186.69 368.677C186.853 368.435 186.647 368.122 186.363 368.172C179.191 369.488 172.438 367.895 165.82 365.205C165.201 364.956 164.654 364.593 164.178 364.124C164.014 363.96 163.829 363.939 163.638 364.067C159.451 366.863 154.653 368.556 149.257 369.14C147.239 369.36 145.234 369.567 143.244 369.759C141.161 369.958 139.149 369.937 137.216 369.695C133.299 369.211 129.162 368.77 125.302 367.795C121.94 366.948 119.296 366.763 116.005 364.913C115.308 364.522 115.073 364.109 114.569 363.54C114.341 363.277 114.1 363.27 113.851 363.505C112.429 364.871 110.858 365.988 109.842 367.774C108.271 370.534 106.181 372.733 104.887 375.714C104.34 376.966 102.705 377.607 101.603 376.81C100.395 375.935 99.3854 374.889 98.6177 373.565C95.4901 368.144 93.3362 363.405 92.1562 359.356C90.4858 353.622 89.8816 348.008 90.3507 342.522C90.7843 337.406 92.1491 331.707 94.438 325.424C95.0849 323.624 95.945 321.732 97.0041 319.739C97.8287 318.188 99.0584 317.185 99.8759 315.634C100.004 315.385 99.9541 315.079 99.7479 314.887C97.4448 312.781 95.1702 310.746 93.3576 308.163C90.1019 303.538 87.7206 298.387 86.2137 292.716C85.9933 291.87 85.9507 291.023 86.036 290.155C86.0715 289.82 85.9222 289.635 85.5953 289.593C84.5219 289.443 83.4628 289.294 82.4249 289.13C81.2308 288.945 80.2214 288.589 79.4039 288.063C76.5748 286.227 73.4329 284.512 71.0374 282.122C69.8574 280.948 68.3434 280.364 67.3553 278.977C65.9763 277.034 64.839 275.697 64.7252 273.086C64.576 269.421 64.9953 266.049 65.9834 262.975C66.1256 262.541 66.0118 262.064 65.6991 261.737C64.6897 260.705 63.6163 259.745 62.4861 258.87C61.0289 257.753 60.6593 256.031 59.4153 254.721C58.0576 253.306 56.6217 251.932 55.0935 250.609C54.1907 249.826 53.814 248.802 53.1813 247.834C53.032 247.606 52.833 247.443 52.5842 247.343C50.1319 246.333 48.305 244.597 45.9095 243.465C43.6633 242.405 41.4384 241.245 39.2419 240C37.8771 239.225 37.3795 237.802 35.9294 237.233C34.3798 236.614 33.3136 235.404 32.5388 233.974C32.2402 233.426 31.8848 232.928 31.4654 232.487C30.3707 231.334 29.3684 229.982 28.4586 228.424C25.2954 222.995 23.2766 217.474 22.3952 211.867C21.663 207.192 20.9593 202.653 20.284 198.249C20.021 196.491 19.4452 194.62 18.5638 192.642C16.8862 188.885 12.4009 186.964 8.71167 188.572C7.90132 188.921 7.29712 189.426 6.89194 190.102C5.25703 192.806 3.70741 195.36 2.23599 197.758C1.4754 198.989 1.15553 198.882 1.26215 197.445C1.5607 193.581 2.54876 190.28 4.22632 187.555C9.5078 178.96 20.1845 174.954 29.9798 174.869C39.1921 174.79 47.7648 177.423 55.7048 182.781C56.9558 183.62 58.0363 184.517 58.9533 185.477C60.2399 186.815 61.8819 188.103 62.8202 189.696C63.7585 191.297 64.775 192.856 65.8768 194.364C66.0189 194.556 66.1185 194.777 66.1753 195.011L66.3104 195.616C66.417 196.079 66.545 196.086 66.7085 195.645C67.3269 193.951 67.3056 192.13 68.1159 190.508C68.4926 189.746 68.8623 188.964 69.2177 188.16C70.1276 186.096 70.4119 183.841 71.6629 181.984C72.9922 180.013 74.2006 177.999 75.3024 175.957C76.4184 173.887 77.6197 171.937 78.9063 170.108C80.392 168.002 81.6928 165.74 82.7946 163.314C83.1642 162.51 82.9865 161.627 83.5978 160.966C83.8182 160.724 83.875 160.446 83.7684 160.14C82.4605 156.547 79.276 154.434 75.537 154.512C74.1864 154.541 72.85 154.512 71.5279 154.405C70.6678 154.341 69.8859 154.889 69.6513 155.715C69.1182 157.572 68.3149 159.286 67.2416 160.873C66.9928 161.243 66.8506 161.207 66.8151 160.759C66.5663 157.735 66.9359 154.626 67.9382 151.431C68.2794 150.336 68.9049 149.261 69.8077 148.201C71.6487 146.052 73.2055 144.551 74.4707 143.697C76.326 142.452 78.8921 141.534 82.1548 140.944C88.5239 139.798 97.9993 142.73 102.385 147.425C103.53 148.642 104.738 149.788 106.025 150.848C107.574 152.121 108.178 153.907 108.882 155.7C109.195 156.504 110.254 156.689 110.823 156.042L112.294 154.377C112.422 154.228 112.6 154.135 112.792 154.099C113.659 153.943 114.384 153.516 114.967 152.826C117.092 150.3 119.388 147.945 121.855 145.761C124.144 143.733 125.309 140.033 126.184 137.294C126.276 137.009 126.248 136.696 126.113 136.433C125.843 135.935 125.7 135.408 125.679 134.853C125.572 131.644 123.149 128.321 120.639 126.308C119.957 125.76 118.841 125.703 118.08 126.023C116.31 126.763 114.569 127.46 112.856 128.115C111.242 128.741 110.965 128.371 112.031 126.998C112.55 126.322 113.033 125.589 113.481 124.792C114.107 123.682 116.431 122.957 117.576 122.345C121.578 120.203 126.482 120.722 130.577 121.704C132.581 122.195 135.275 123.263 138.652 124.906C140.123 125.625 141.396 126.521 142.476 127.596C145.277 130.399 147.416 132.811 149.243 136.333C149.655 137.123 149.663 137.87 149.4 138.702C149.328 138.902 149.407 139.122 149.577 139.25C149.663 139.314 149.755 139.328 149.854 139.3C149.933 139.279 149.997 139.236 150.039 139.165C152.748 134.561 156.664 129.83 156.366 124.102C156.252 121.911 156.394 119.769 155.825 117.613C155.036 114.646 153.316 112.12 150.658 110.036C148.703 108.506 146.115 107.844 142.895 108.058C142.647 108.079 142.441 107.986 142.277 107.794C142.206 107.709 142.17 107.609 142.177 107.503C142.185 107.225 142.32 107.033 142.568 106.912C145.078 105.688 146.855 105.091 147.907 105.112C150.707 105.176 153.373 105.19 155.911 105.155C157.759 105.119 161.27 106.563 163.09 107.737C166.651 110.043 170.426 112.319 173.106 115.678C178.572 122.53 181.614 128.876 182.944 136.753C183.384 139.371 184.365 141.712 185.517 144.06C185.766 144.579 185.787 145.113 185.581 145.654C185.446 146.017 185.567 146.209 185.943 146.244C187.92 146.436 189.96 146.223 191.886 146.814C193.009 147.148 194.132 147.027 195.305 147.361C198.596 148.294 201.795 149.147 204.908 149.909C207.46 150.535 210.958 151.844 215.386 153.843C233.143 161.848 248.689 176.021 259.536 192.03C262.941 197.046 266.502 202.753 269.239 208.246C270.497 210.771 271.798 213.397 273.134 216.129C275.821 221.629 277.996 227.463 279.659 233.618C280.008 234.899 280.278 236.265 280.463 237.709C280.655 239.175 281.074 240.584 281.735 241.928C281.856 242.178 282.041 242.234 282.282 242.085C282.581 241.907 282.752 241.623 282.794 241.224C282.816 241.004 282.894 240.797 283.036 240.626C284.038 239.388 284.898 238.157 285.63 236.941C287.329 234.109 290.358 231.626 292.661 229.271C294.949 226.93 297.715 225.037 300.281 223.031C305.363 219.046 310.254 215.823 314.938 213.361C321.527 209.903 328.316 206.189 335.197 203.621C341.488 201.273 348.084 199.764 354.986 199.095C356.038 198.996 357.147 198.953 358.178 199.238C359.266 199.53 360.339 199.686 361.405 199.693C363.111 199.715 364.526 200.611 366.111 200.96C367.383 201.237 368.35 201.671 368.997 202.276M139.917 260.207C139.526 260.84 139.064 261.474 138.524 262.107C138.502 262.128 138.502 262.15 138.524 262.171L138.773 262.42C138.872 262.52 138.972 262.52 139.071 262.42C139.91 261.566 140.607 260.613 141.502 259.809C153.629 248.972 166.182 239.324 179.162 230.85C186.1 226.325 192.54 221.857 199.371 217.46C201.34 216.193 204.247 217.936 206.28 215.973C207.268 215.026 208.235 214.087 209.181 213.169C209.38 212.977 209.301 212.643 209.038 212.55C208.121 212.223 207.176 211.945 206.202 211.711C201.447 210.579 196.869 209.548 192.483 208.601C191.95 208.487 191.395 208.623 190.969 208.957C185.879 213.041 180.932 217.068 176.098 221.337C163.709 232.28 150.693 242.861 137.067 253.071C136.59 253.427 136.576 253.804 137.024 254.195C138.318 255.326 141.026 258.414 139.917 260.207ZM88.2182 291.62C92.2131 297.903 95.8241 304.748 101.212 310.298C103.522 312.681 106.202 314.118 109.252 314.609C115.287 315.591 121.364 315.364 127.499 313.919C132.005 312.859 135.958 310.846 139.363 307.879C145.156 302.827 146.883 295.719 145.689 287.978C144.552 280.592 141.204 273.811 137.429 267.258C136.192 265.11 136.704 262.413 137.33 260.193C137.415 259.901 137.386 259.581 137.266 259.304C136.669 258.002 135.752 256.963 134.508 256.173C134.166 255.952 133.733 255.945 133.377 256.152C125.722 260.656 117.234 265.821 107.908 271.648C105.875 272.922 103.544 273.982 101.802 275.576C101.525 275.832 101.283 276.138 101.084 276.494C98.9092 280.343 96.5136 284.029 93.8978 287.544C92.2415 289.778 90.0948 289.529 87.7704 289.756C87.3368 289.799 87.0951 290.269 87.3084 290.646C87.4861 290.966 87.9765 291.236 88.2182 291.62ZM103.224 317.242L101.354 315.84C101.155 315.698 100.878 315.84 100.878 316.082C100.878 316.488 100.779 316.865 100.58 317.221C99.4138 319.291 98.4827 321.468 97.7931 323.752C96.3359 328.534 95.2128 333.657 94.4167 339.121C93.8409 343.063 93.9049 347.261 94.6086 351.708C95.8241 359.456 98.5111 366.699 102.677 373.451C102.797 373.644 103.089 373.608 103.16 373.395L104.667 368.691C108.719 361.939 114.093 356.261 120.796 351.651C125.466 348.428 130.15 345.219 134.835 342.024C142.647 336.695 149.001 330.049 153.899 322.087C156.799 317.377 158.342 312.98 159.017 307.622C159.06 307.288 158.761 307.01 158.434 307.082C154.461 307.943 151.504 310.76 148.532 313.343C147.978 313.827 147.836 313.727 148.099 313.037C148.938 310.888 150.018 308.868 151.347 306.975C154.532 302.443 161.107 301.027 164.135 306.641C166.41 310.867 166.723 315.036 165.081 319.156C164.69 320.138 164.455 320.102 164.384 319.049C164.192 316.267 163.154 313.934 162.102 311.351C161.825 310.661 161.647 310.689 161.569 311.429C160.595 321.319 154.61 329.58 147.75 336.51C140.919 343.411 132.617 348.492 124.57 353.757C121.805 355.571 119.019 357.748 116.225 360.296C116.005 360.495 116.012 360.694 116.225 360.893C117.007 361.598 117.924 362.089 118.976 362.366C129.852 365.219 140.422 366.735 151.518 364.515C158.335 363.156 163.616 360.687 165.18 353.323C166.118 348.911 165.393 344.457 165.052 340.018C164.576 333.849 165.4 327.943 167.526 322.308C168.372 320.067 169.26 317.911 170.177 315.833C173.582 308.156 172.8 301.276 164.462 297.042C159.856 294.708 154.212 294.388 149.982 297.398C149.073 298.045 148.355 298.921 147.836 300.031C143.77 308.675 138.609 315.207 129.333 317.747C123.255 319.412 116.95 319.882 110.432 319.156C108.036 318.886 105.634 318.245 103.217 317.242H103.224Z" fill="#7D0431"/>
<path d="M165.494 115.279C165.743 117.25 166.134 119.171 166.653 121.035C167.378 123.632 167.833 125.532 168.017 126.735C168.977 132.975 169.347 138.133 169.126 142.224C168.792 148.443 168.081 153.039 166.994 156.021C164.925 161.649 162.643 166.366 161.819 172.421C161.065 177.992 161.819 184.602 163.397 189.639C163.788 190.885 164.079 190.856 164.278 189.568C164.52 187.989 164.108 186.537 165.999 185.755C166.318 185.627 166.574 185.377 166.717 185.064C169.034 180.048 169.972 175.786 175.808 173.673C188.539 169.048 198.277 176.007 208.449 183.051C211.293 185.022 213.617 186.914 215.43 188.736C220.782 194.115 224.557 198.405 226.746 201.6C229.732 205.969 232.504 210.174 235.07 214.208C240.764 223.159 245.512 233.02 249.329 243.793C251.035 248.588 252.287 253.697 252.862 258.407C254.035 267.934 254.27 278.6 252.557 288.525C251.952 292.033 250.275 295.164 249.401 298.558C248.476 302.115 248.903 302.286 250.673 299.07L253.388 294.153C253.708 293.577 253.879 293.62 253.907 294.274C253.943 294.922 253.843 295.598 253.609 296.295C252.151 300.642 250.609 305.032 248.981 309.458C247.453 313.628 245.903 317.996 244.332 322.571C242.79 327.082 241.077 331.671 239.2 336.339C235.937 341.469 231.217 346.016 225.04 349.964C211.606 358.552 197.56 363.81 181.182 363.846C176.313 363.853 171.429 363.099 166.532 361.598C166.39 361.555 166.318 361.391 166.39 361.256C167.783 358.552 169.027 356.446 169.226 353.216C169.553 347.972 168.501 343.262 167.975 338.274C167.399 332.888 168.174 327.673 170.299 322.621C171.401 320.003 172.481 317.391 173.548 314.78C176.107 308.512 175.069 302.891 170.441 297.924C165.302 292.403 156.687 290.382 149.955 294.979C149.621 295.206 149.45 295.114 149.443 294.708C149.408 284.498 146.28 274.985 140.046 266.17C139.762 265.771 139.876 265.223 140.288 264.967C141.574 264.163 142.854 263.288 144.112 262.335C159.104 251.05 172.567 240.569 184.487 230.893C189.357 226.937 194.688 223.749 199.962 220.306C200.339 220.057 200.794 219.971 201.235 220.064C202.72 220.363 205.13 220.925 206.544 220C208.329 218.847 210.326 216.933 212.544 214.258C213.752 212.806 213.646 210.629 211.556 210.017C205.329 208.196 199.045 206.673 192.705 205.449C191.56 205.222 190.537 205.271 189.634 206.111C187.324 208.245 185.092 210.551 182.54 212.33C180.201 213.959 177.919 215.631 175.694 217.332C167.044 223.941 157.881 231.021 148.214 238.563C147.282 239.289 145.974 240.157 144.276 241.167C142.683 240.456 140.771 240.192 138.532 240.37C138.013 240.413 137.771 240.185 137.814 239.68C138.468 239.545 138.809 239.474 138.845 239.46C139.911 238.94 139.854 238.634 138.674 238.535C134.502 238.193 130.329 237.531 126.199 237.638C121.515 237.759 116.837 238.044 112.174 238.492C110.703 238.634 109.345 239.46 108.315 240.463C103.687 244.945 99.6993 249.947 96.3371 255.461C91.7451 263.025 87.1247 270.802 82.4759 278.792L73.8961 272.111C73.4696 271.776 73.2706 271.236 73.3701 270.709C74.4506 265.188 76.2063 259.723 72.311 254.778C70.4415 252.409 67.4844 249.72 63.4469 246.696C63.3474 246.624 63.1128 246.525 62.7503 246.39C62.7716 246.34 62.8213 246.269 62.8995 246.183C62.9493 246.133 63.0204 246.091 63.1057 246.069C64.4492 245.749 65.5509 245.024 66.411 243.906C69.5529 243.259 72.1404 241.509 74.1733 238.67C74.7065 237.923 74.5287 237.667 73.6402 237.887C68.3445 239.232 61.4992 239.751 56.3599 237.859C52.4645 236.428 48.7895 234.87 45.3278 233.191C35.5538 228.445 30.642 215.88 29.9667 205.357C29.6752 200.796 29.1421 196.598 27.7773 192.244C26.2064 187.185 23.0076 183.727 18.1953 181.863C24.2161 179.479 30.5638 178.824 37.2243 179.899C49.4861 181.884 58.2294 188.522 65.5438 198.256C65.8993 198.725 66.0912 199.302 66.0912 199.892C66.0912 201.906 66.1409 203.905 66.2476 205.905C66.3684 208.125 67.1219 210.679 68.5151 213.575C71.2874 219.324 75.6732 221.999 81.4594 223.842C83.0587 224.354 84.5728 224.582 86.0016 224.518C86.6627 224.489 86.6627 224.411 86.0158 224.29C83.5421 223.806 81.4736 222.54 79.3624 221.216C75.7585 218.975 73.0715 215.844 71.2874 211.832C65.5509 198.889 76.0499 181.578 82.8881 170.82C86.3286 165.405 90.5936 158.795 84.0752 153.523C80.9405 150.997 77.237 150.001 72.9649 150.535C72.5882 150.585 72.51 150.456 72.7446 150.151C76.2632 145.611 82.5256 144.131 87.9777 144.743C96.5006 145.704 103.381 151.232 107.973 158.667C108.087 158.852 108.066 159.016 107.902 159.158C104.469 162.168 101.832 165.797 99.9908 170.044C97.7232 175.246 98.0075 180.347 100.495 185.442C102.578 189.711 105.407 193.304 108.976 196.221C109.921 196.989 110.028 196.883 109.31 195.908C106.203 191.689 104.021 186.808 102.749 181.279C101.42 175.466 104.462 168.991 108.464 164.907C114.577 158.66 122.176 152.449 126.661 144.964C130.578 138.432 129.661 131.559 124.55 126.002C124.259 125.689 124.323 125.546 124.756 125.568C128.047 125.746 131.353 126.599 134.672 128.129C140.501 130.805 144.631 135.216 147.069 141.356C147.304 141.954 147.211 142.637 146.82 143.142C142.093 149.318 137.338 157.116 140.636 165.121C141.809 167.974 143.359 170.45 145.285 172.549C146.095 173.438 146.237 173.339 145.719 172.257C144.496 169.71 143.622 166.786 143.103 163.477C142.243 157.977 144.46 152.676 147.688 148.393C150.396 144.786 152.848 141.427 155.038 138.318C161.186 129.588 162.416 117.471 154.81 109.409C154.22 108.783 154.327 108.612 155.137 108.897C159.153 110.306 162.601 112.433 165.494 115.279ZM129 213.909C123.761 212.55 119.802 209.121 115.494 204.973C114.485 203.998 114.35 204.112 115.082 205.307C116.361 207.385 117.897 209.355 119.688 211.212C123.569 215.233 129.831 217.168 135.547 218.064C139.577 218.69 142.328 219.971 144.361 223.692C145.832 226.389 146.97 229.42 147.787 232.793C147.887 233.198 148.384 233.341 148.683 233.042C149.017 232.707 149.209 232.287 149.259 231.782C149.713 227.186 147.865 222.775 144.958 219.374C143.145 217.26 140.65 215.951 137.459 215.46C133.386 214.827 130.564 214.315 129 213.909ZM151.64 229.185L151.818 229.128C151.818 229.128 151.853 229.107 151.846 229.079C150.773 224.29 148.789 219.907 145.882 215.944C145.775 215.802 145.605 215.738 145.434 215.766L145.249 215.795C145.072 215.823 144.986 216.022 145.079 216.179C147.588 220.334 149.699 224.632 151.412 229.071C151.455 229.178 151.533 229.221 151.64 229.185Z" fill="#E07436"/>
<path d="M186.513 149.752C194.211 152.755 202.606 156.547 211.684 161.122C229.909 170.315 243.891 183.314 253.637 200.113C260.113 211.276 265.835 223.756 269.403 235.447C271.202 241.366 272.389 246.205 272.957 249.954C273.739 255.155 274.514 259.104 275.275 261.801C273.398 272.417 270.206 282.627 265.7 292.424C265.678 292.46 265.693 292.488 265.728 292.51L265.906 292.595C265.956 292.624 265.991 292.609 266.02 292.56C270.064 285.637 273.334 278.948 275.829 272.509C278.765 264.932 280.521 256.956 281.089 248.581C281.096 248.503 281.132 248.453 281.196 248.417C281.217 248.41 281.246 248.403 281.267 248.403C281.338 248.403 281.381 248.439 281.388 248.51C282.156 254.387 282.404 259.09 282.127 262.626C281.686 268.326 280.705 274.779 279.191 282.001C279.17 282.107 279.206 282.179 279.305 282.221L279.483 282.307C279.582 282.357 279.646 282.328 279.675 282.221L283.2 269.919C284.821 278.116 284.878 286.334 283.371 294.566C283.35 294.659 283.3 294.715 283.215 294.73C283.193 294.737 283.165 294.737 283.144 294.73C283.023 294.694 282.959 294.616 282.952 294.481C282.831 290.816 282.234 287.216 281.146 283.666C281.118 283.58 281.061 283.538 280.968 283.531H280.713C280.606 283.523 280.556 283.58 280.578 283.687C280.968 286.199 281.118 288.824 280.677 291.336C279.632 297.234 279.262 303.503 279.554 310.127C279.653 312.318 280.57 314.147 283.172 313.99C285.098 313.869 285.169 314.182 283.392 314.93C279.682 316.488 276.398 318.202 273.54 320.074C272.481 320.764 272.574 320.984 273.81 320.75C275.85 320.351 277.891 319.775 279.931 319.014C280.094 318.95 280.251 319.028 280.4 319.234C280.492 319.369 280.492 319.54 280.4 319.675C277.855 323.418 274.45 326.605 270.334 328.868C265.707 331.408 261.364 334.631 256.338 336.801C251.369 338.943 246.102 340.8 240.522 342.387C244.553 335.727 247.95 329.366 250.715 323.311C251.192 322.272 251.078 322.208 250.381 323.112C248.853 325.09 247.176 327.303 245.363 329.75C243.728 331.956 241.674 334.155 239.2 336.339C241.077 331.671 242.79 327.082 244.332 322.571C245.903 317.996 247.453 313.627 248.981 309.458C250.609 305.032 252.151 300.642 253.609 296.295C253.843 295.598 253.943 294.922 253.907 294.274C253.879 293.62 253.708 293.577 253.388 294.153L250.673 299.07C248.903 302.286 248.476 302.115 249.4 298.558C250.275 295.164 251.952 292.033 252.556 288.525C254.27 278.6 254.035 267.934 252.862 258.407C252.286 253.697 251.035 248.588 249.329 243.793C245.512 233.02 240.764 223.159 235.07 214.208C232.504 210.174 229.732 205.969 226.746 201.6C224.557 198.405 220.782 194.115 215.43 188.736C213.617 186.914 211.293 185.022 208.449 183.051C198.277 176.007 188.539 169.048 175.808 173.673C169.972 175.786 169.034 180.048 166.716 185.064C166.574 185.377 166.318 185.626 165.998 185.755C164.108 186.537 164.52 187.989 164.278 189.568C164.079 190.856 163.788 190.885 163.397 189.639C161.812 184.602 161.065 177.992 161.819 172.421C162.643 166.366 164.925 161.649 166.994 156.02C168.081 153.039 168.792 148.443 169.126 142.224C169.347 138.133 168.977 132.975 168.017 126.735C167.832 125.532 167.377 123.632 166.652 121.035C166.134 119.171 165.743 117.25 165.494 115.279C172.83 121.669 177.109 129.702 178.324 139.378C178.865 143.669 178.324 147.995 176.711 152.37C174.827 157.443 172.439 162.431 169.538 167.333C169.51 167.383 169.524 167.44 169.567 167.476C169.61 167.511 169.666 167.504 169.709 167.469C175.502 162.139 179.661 155.942 182.177 148.891C182.54 147.874 182.739 147.902 182.781 148.977C183.03 155.544 183.229 161.215 180.215 167.149C180.116 167.341 180.13 167.526 180.265 167.703C180.322 167.782 180.393 167.817 180.471 167.817C180.677 167.817 180.841 167.746 180.962 167.597C184.21 163.335 185.944 158.909 186.172 154.32C186.279 152.2 186.392 150.677 186.513 149.752Z" fill="#B14A39"/>
<path d="M275.277 261.801C274.517 259.104 273.742 255.155 272.96 249.954C272.391 246.204 271.204 241.366 269.406 235.446C265.837 223.756 260.115 211.276 253.639 200.113C243.894 183.314 229.912 170.314 211.686 161.122C202.609 156.547 194.214 152.754 186.516 149.752C186.267 149.446 186.174 149.168 186.238 148.905C186.302 148.656 186.459 148.556 186.715 148.606C204.841 152.498 220.593 160.054 233.971 171.275C245.109 180.617 254.407 191.838 261.857 204.937C267.188 214.307 271.247 223.279 274.033 231.839C277.189 241.53 277.381 251.05 275.277 261.801Z" fill="#F1DC1C"/>
<path d="M18.1967 181.862C23.009 183.726 26.2077 187.184 27.7787 192.243C29.1435 196.598 29.6766 200.796 29.968 205.356C30.6433 215.88 35.5552 228.445 45.3291 233.191C48.7909 234.87 52.4659 236.428 56.3612 237.858C61.5005 239.751 68.3459 239.231 73.6415 237.887C74.5301 237.666 74.7078 237.922 74.1747 238.669C72.1417 241.508 69.5543 243.259 66.4124 243.906L62.4886 245.03C62.382 245.059 62.2753 245.002 62.2327 244.902L62.1616 244.717C62.0692 244.482 62.1332 244.305 62.3678 244.198C63.7397 243.565 64.9481 242.753 66.0072 241.764C66.6043 241.21 66.5261 241.089 65.7797 241.409C65.602 241.487 65.4172 241.544 65.2253 241.587C60.1144 242.739 55.359 242.391 50.9447 240.534C37.8441 235.019 30.032 225.186 27.5157 211.02C26.7409 206.651 25.9589 202.318 25.177 198.028C23.9331 191.155 20.9831 185.953 14.152 184.118C13.7753 184.018 13.7611 183.89 14.1165 183.726L18.1967 181.862Z" fill="#F1DC1C"/>
<path d="M115.493 204.972C119.8 209.12 123.76 212.55 128.998 213.909C130.562 214.314 133.384 214.827 137.457 215.46C140.649 215.951 143.144 217.26 144.957 219.373C147.864 222.774 149.712 227.186 149.257 231.782C149.207 232.287 149.015 232.707 148.681 233.041C148.383 233.34 147.885 233.198 147.786 232.792C146.968 229.42 145.831 226.389 144.359 223.692C142.326 219.971 139.576 218.69 135.545 218.064C129.83 217.167 123.568 215.232 119.686 211.212C117.895 209.355 116.36 207.384 115.08 205.307C114.348 204.111 114.483 203.997 115.493 204.972Z" fill="#7D0431"/>
<path d="M369.001 206.21V210.131C361.999 209.91 354.941 210.735 347.818 212.614C337.433 215.353 327.701 218.655 318.617 222.504C309.661 226.303 301.6 231.647 294.435 238.541L291.712 239.929C291.094 240.249 290.987 240.121 291.378 239.545C291.613 239.21 291.868 238.904 292.16 238.634C295.444 235.581 298.92 232.33 302.439 229.633C313.719 221.01 326.244 214.208 340.006 209.227C346.524 206.872 352.694 205.719 358.516 205.769C359.959 205.776 363.449 205.926 369.001 206.21Z" fill="#F1DC1C"/>
<path d="M139.922 260.207C141.031 258.414 138.322 255.326 137.029 254.195C136.581 253.804 136.595 253.426 137.071 253.071C150.698 242.86 163.713 232.28 176.103 221.337C180.937 217.068 185.884 213.041 190.974 208.957C191.4 208.623 191.955 208.487 192.488 208.601C196.874 209.547 201.451 210.579 206.207 211.71C207.181 211.945 208.126 212.223 209.043 212.55C209.306 212.643 209.384 212.977 209.185 213.169C208.24 214.087 207.273 215.026 206.285 215.972C204.252 217.936 201.345 216.193 199.376 217.46C192.545 221.857 186.104 226.325 179.167 230.85C166.187 239.324 153.634 248.972 141.507 259.809C140.611 260.613 139.915 261.566 139.076 262.42C138.976 262.52 138.877 262.52 138.777 262.42L138.529 262.171C138.529 262.171 138.507 262.128 138.529 262.107C139.069 261.474 139.531 260.84 139.922 260.207Z" fill="#6A5C66"/>
<path d="M369.004 210.131V222.248C362.414 223.628 355.967 225.442 349.662 227.698C347.466 228.48 346.414 230.089 344.416 231.028C344.21 231.127 344.16 231.277 344.267 231.476C344.302 231.561 344.366 231.618 344.445 231.654C344.58 231.718 344.722 231.739 344.864 231.718C347.921 231.206 350.934 231.078 353.913 231.334C354.453 231.383 354.467 231.49 353.948 231.654C349.335 233.141 345.12 233.383 340.407 233.255C339.561 233.233 338.772 233.433 338.047 233.852C337.763 234.023 337.784 234.443 338.09 234.578C340.713 235.702 343.4 236.791 346.151 237.837C346.478 237.965 346.613 238.143 346.556 238.378C346.506 238.591 346.3 238.733 346.079 238.712C340.976 238.129 335.865 238.2 330.74 238.925C324.015 237.41 317.874 236.606 312.322 236.513C307.481 236.428 301.524 237.104 294.438 238.541C301.603 231.647 309.664 226.303 318.62 222.504C327.704 218.655 337.436 215.353 347.821 212.614C354.944 210.735 362.002 209.91 369.004 210.131Z" fill="#E07436"/>
<path d="M151.418 229.071C149.705 224.631 147.594 220.334 145.085 216.179C144.992 216.022 145.077 215.823 145.255 215.794L145.44 215.766C145.611 215.737 145.781 215.801 145.888 215.944C148.795 219.907 150.778 224.29 151.852 229.078C151.859 229.107 151.852 229.121 151.823 229.128L151.646 229.185C151.539 229.221 151.461 229.185 151.418 229.071Z" fill="#7D0431"/>
<path d="M368.998 222.248V239.986C361.904 242.483 356.431 247.016 352.585 253.597C352.465 253.804 352.337 253.811 352.194 253.619C348.754 248.965 344.624 245.408 339.805 242.946C338.376 242.213 335.355 240.875 330.734 238.926C335.859 238.2 340.97 238.129 346.074 238.712C346.294 238.734 346.501 238.591 346.55 238.378C346.607 238.143 346.472 237.965 346.145 237.837C343.394 236.791 340.707 235.703 338.084 234.579C337.779 234.443 337.757 234.024 338.042 233.853C338.767 233.433 339.556 233.234 340.402 233.255C345.115 233.383 349.33 233.141 353.943 231.654C354.462 231.491 354.448 231.384 353.908 231.334C350.929 231.078 347.915 231.206 344.859 231.718C344.716 231.74 344.574 231.718 344.439 231.654C344.361 231.619 344.297 231.562 344.262 231.476C344.155 231.277 344.205 231.128 344.411 231.028C346.408 230.089 347.46 228.481 349.657 227.698C355.962 225.443 362.409 223.628 368.998 222.248Z" fill="#B14A39"/>
<path d="M137.813 239.68C137.77 240.185 138.012 240.413 138.531 240.37C140.77 240.192 142.682 240.455 144.275 241.167C140.891 243.892 137.472 246.532 134.024 249.072C132.809 249.975 131.75 251.377 130.861 253.277C130.762 253.504 130.591 253.696 130.385 253.832C127.684 255.61 124.975 257.283 122.26 258.841C116.325 262.256 110.745 265.977 105.527 270.011C104.589 270.737 104.397 270.574 104.944 269.528C108.982 261.815 112.806 254.223 116.417 246.759C116.893 245.777 117.761 245.165 119.033 244.916C125.452 243.664 131.707 241.921 137.813 239.68Z" fill="#B14A39"/>
<path d="M323.661 242.81C325.985 245.507 327.549 248.559 328.345 251.968C328.835 254.067 329.44 256.158 330.172 258.243C333.079 266.575 334.934 275.497 335.731 285.01C335.887 286.874 336.349 288.539 336.235 290.439C336.235 290.482 336.214 290.517 336.178 290.539C336.157 290.553 336.136 290.56 336.114 290.567C336.008 290.588 335.944 290.539 335.922 290.425C334.65 283.665 332.269 277.269 328.779 271.235C328.686 271.086 328.565 271.057 328.402 271.15C328.217 271.264 328.132 271.484 328.196 271.691C328.779 273.498 329.433 275.248 329.724 277.148C330.911 284.968 331.984 292.588 332.93 300.023C333.378 303.502 333.371 306.982 333.655 310.518C334.06 315.591 334.216 321.354 334.117 327.801C334.117 327.857 334.089 327.886 334.032 327.886H333.847C333.648 327.9 333.541 327.801 333.527 327.608C333.108 321.525 332.063 315.989 330.406 311.002C329.098 307.081 327.911 303.068 326.845 298.949C326.817 298.835 326.717 298.742 326.603 298.721C326.397 298.678 326.291 298.721 326.291 298.878C326.227 302.414 327.002 305.623 327.208 309.066C327.357 311.521 327.755 313.898 327.734 316.352C327.698 321.319 327.734 326.121 327.847 330.768C327.847 330.988 327.627 331.145 327.421 331.066C320.981 328.526 313.297 329.978 306.65 331.821C305.961 332.013 305.335 332.304 304.788 332.703C304.027 333.251 304.113 333.55 305.058 333.585C306.764 333.649 308.243 332.98 310.006 333.315C312.707 333.827 315.202 334.681 317.498 335.876C318.358 336.324 319.275 336.687 320.256 336.979C320.803 337.143 320.817 337.335 320.298 337.562C320.028 337.683 319.737 337.747 319.417 337.762C311.328 338.053 302.627 339.064 295.497 340.999C289.022 342.764 283.143 345.674 277.862 349.729C276.731 350.597 276.831 350.775 278.16 350.263C282.603 348.555 286.704 349.601 291.19 350.37C292.455 350.583 292.469 350.868 291.24 351.231C290.578 351.423 289.932 351.672 289.299 351.964C283.676 354.589 278.338 357.513 273.192 361.05C270.874 362.636 268.102 364.351 264.868 366.18C264.505 366.386 264.576 366.927 264.981 367.026C265.252 367.09 265.522 367.083 265.785 366.998C270.114 365.596 274.677 363.782 279.305 364.287C280.2 364.386 280.257 364.664 279.482 365.126C276.177 367.076 273.27 368.399 269.431 369.559C259.387 372.597 249.322 375.564 239.235 378.453C235.368 379.563 231.857 381.413 227.819 381.947C226.461 382.124 225.111 382.345 223.767 382.601C219.488 382.338 215.635 382.943 212.209 384.416C199.535 389.873 191.78 399.4 188.93 412.983C188.496 415.039 188.069 417.124 187.65 419.251C186.619 414.32 186.221 409.788 186.442 405.654C186.953 396.027 188.716 386.28 191.723 376.404C192.619 373.473 193.045 370.826 193.401 367.951C206.842 365.845 219.097 360.715 230.151 352.568C233.143 350.363 235.603 348.086 237.529 345.738C238.944 344.016 239.939 342.899 240.522 342.387C246.102 340.8 251.369 338.943 256.338 336.801C261.363 334.631 265.706 331.408 270.334 328.868C274.45 326.605 277.855 323.418 280.399 319.675C280.492 319.54 280.492 319.369 280.399 319.234C280.25 319.028 280.094 318.949 279.93 319.013C277.89 319.775 275.85 320.351 273.81 320.749C272.573 320.984 272.481 320.764 273.54 320.074C276.397 318.202 279.681 316.488 283.392 314.929C285.169 314.182 285.098 313.869 283.172 313.99C280.57 314.147 279.653 312.318 279.553 310.127C279.262 303.502 279.632 297.234 280.677 291.336C281.117 288.824 280.968 286.198 280.577 283.687C280.556 283.58 280.606 283.523 280.712 283.53H280.968C281.06 283.537 281.117 283.58 281.146 283.665C282.233 287.216 282.83 290.816 282.951 294.48C282.958 294.616 283.022 294.694 283.143 294.73C283.165 294.737 283.193 294.737 283.214 294.73C283.3 294.715 283.349 294.658 283.371 294.566C284.878 286.334 284.821 278.116 283.2 269.919C284.878 262.47 284.863 255.127 283.157 247.898C283.072 247.535 283.25 247.151 283.584 246.987C289.093 244.305 294.666 242.618 300.303 241.942C303.843 241.516 307.262 241.017 310.88 241.188C315.259 241.395 319.516 241.935 323.661 242.81Z" fill="#E07436"/>
<path d="M315.736 478.648C315.195 479.851 314.968 481.252 315.053 482.846C315.075 483.266 314.655 483.579 314.264 483.423C312.764 482.86 311.414 482.12 310.212 481.203C303.14 475.845 296.913 469.961 291.532 463.536C290.444 462.234 289.641 460.782 288.831 459.295C288.667 458.996 288.937 458.641 289.271 458.726C291.596 459.316 294.005 460.049 296.5 460.924C298.327 461.572 300.126 461.793 301.889 461.593C302.855 461.487 302.905 461.216 302.031 460.789C301.128 460.355 300.318 459.843 299.593 459.26C296.053 456.385 292.84 454.066 289.954 452.294C288.077 451.148 286.215 449.996 284.367 448.836C282.625 447.74 282.739 447.491 284.708 448.089C287.501 448.936 290.423 449.732 293.472 450.472C294.873 450.814 294.93 450.65 293.657 449.981C292.42 449.334 291.105 448.736 289.719 448.188C282.909 445.506 276.917 442.233 271.742 438.37C266.774 434.663 261.812 430.358 256.843 425.456C250.467 419.173 245.534 413.438 242.037 408.266C241.034 406.778 239.904 405.355 238.646 404.004C237.139 402.388 236.03 400.93 235.319 399.635C231.943 393.48 227.649 388.123 222.453 383.555C223.263 383.683 223.704 383.363 223.768 382.601C225.112 382.345 226.462 382.125 227.82 381.947C231.857 381.413 235.369 379.563 239.236 378.453C249.323 375.564 259.388 372.597 269.432 369.559C273.271 368.4 276.178 367.076 279.483 365.127C280.258 364.664 280.201 364.387 279.305 364.287C274.678 363.782 270.114 365.596 265.785 366.998C265.522 367.083 265.252 367.09 264.982 367.026C264.577 366.927 264.506 366.386 264.868 366.18C268.103 364.351 270.875 362.636 273.192 361.05C278.339 357.513 283.677 354.589 289.3 351.964C289.932 351.672 290.579 351.423 291.24 351.231C292.47 350.868 292.456 350.583 291.191 350.37C286.705 349.601 282.604 348.555 278.161 350.263C276.832 350.775 276.732 350.597 277.862 349.729C283.144 345.674 289.023 342.764 295.498 340.999C302.628 339.064 311.328 338.054 319.418 337.762C319.738 337.748 320.029 337.684 320.299 337.563C320.818 337.335 320.804 337.143 320.257 336.979C319.276 336.687 318.359 336.325 317.498 335.876C315.202 334.681 312.707 333.827 310.006 333.315C308.243 332.98 306.765 333.649 305.059 333.585C304.114 333.55 304.028 333.251 304.789 332.703C305.336 332.305 305.962 332.013 306.651 331.821C313.297 329.978 320.982 328.526 327.422 331.066C327.628 331.145 327.848 330.988 327.848 330.768C327.734 326.121 327.699 321.319 327.734 316.352C327.756 313.898 327.358 311.521 327.208 309.067C327.002 305.623 326.227 302.414 326.291 298.878C326.291 298.728 326.398 298.678 326.604 298.721C326.718 298.742 326.817 298.835 326.846 298.949C327.912 303.068 329.099 307.081 330.407 311.002C332.063 315.99 333.108 321.525 333.528 327.609C333.542 327.801 333.649 327.9 333.848 327.893H334.032C334.089 327.886 334.118 327.858 334.118 327.801C334.217 321.354 334.061 315.591 333.656 310.518C333.371 306.982 333.378 303.503 332.931 300.023C331.985 292.588 330.912 284.968 329.725 277.148C329.433 275.248 328.779 273.498 328.196 271.691C328.133 271.484 328.218 271.264 328.403 271.15C328.566 271.058 328.687 271.086 328.779 271.235C332.27 277.269 334.651 283.666 335.923 290.425C335.945 290.539 336.009 290.589 336.115 290.567C336.136 290.56 336.158 290.553 336.179 290.539C336.215 290.517 336.229 290.482 336.236 290.439C336.35 288.539 335.888 286.874 335.731 285.01C334.935 275.497 333.08 266.575 330.173 258.243C329.44 256.159 328.836 254.067 328.346 251.968C327.55 248.56 325.986 245.507 323.661 242.811C333.514 244.959 341.283 248.737 349.223 253.811C349.898 254.245 350.51 254.707 351.043 255.205C351.348 255.49 351.448 255.931 351.284 256.315C349.258 261.039 348.661 265.992 349.493 271.179C349.536 271.442 349.507 271.698 349.408 271.947C347.837 276.031 348.029 281.161 349.344 285.58C349.621 286.497 349.187 286.995 348.74 287.686C343.486 295.683 350.851 307.202 356.544 312.838C357.547 313.834 357.931 315.114 357.689 316.687C357.262 319.426 356.957 322.173 356.779 324.933C356.744 325.524 356.608 326.1 356.388 326.648C356.132 327.288 355.905 327.281 355.706 326.62C354.213 321.66 352.55 316.203 350.055 311.785C349.692 311.144 349.159 310.646 348.448 310.283C348.178 310.148 347.865 310.326 347.837 310.625C347.751 311.6 347.83 312.539 348.071 313.442C348.477 314.944 348.313 316.587 347.965 318.074C347.815 318.679 347.616 318.7 347.361 318.138C345.846 314.78 344.19 311.72 342.399 308.953C341.567 307.658 341.361 307.75 341.795 309.23C344.226 317.484 345.711 325.851 346.259 334.325C346.33 335.471 346.316 336.602 346.223 337.719C345.633 344.422 345.121 351.643 344.688 359.392C344.631 360.395 344.503 361.398 344.311 362.409C344.247 362.729 343.92 362.914 343.614 362.8C337.189 360.445 330.308 359.733 323.505 359.612C317.897 359.513 312.402 360.089 307.035 361.334C302.777 362.316 298.541 363.17 294.318 363.896C293.799 363.981 293.302 364.145 292.84 364.379C292.612 364.493 292.449 364.664 292.342 364.899C291.752 366.222 292.122 367.133 293.451 367.631C301.434 370.605 309.388 372.22 317.747 373.288C319.396 373.501 320.996 373.508 322.638 373.615C323.121 373.65 323.135 373.757 322.688 373.935C317.705 375.963 312.636 377.642 307.497 378.958C298.121 381.363 287.096 381.399 277.607 379.89C276.896 379.777 276.171 379.777 275.424 379.89C275.112 379.94 274.962 380.303 275.154 380.552C275.318 380.758 275.503 380.936 275.723 381.086C279.533 383.676 283.229 386.13 286.819 388.45C287.338 388.784 287.295 388.898 286.684 388.791C285.738 388.628 284.772 388.542 283.777 388.521C276.199 388.386 268.75 388.372 261.421 388.478C258.144 388.521 254.718 387.895 251.142 386.593C245.527 384.537 238.902 386.337 232.988 387.952C232.909 387.973 232.86 388.03 232.838 388.108C232.817 388.194 232.838 388.258 232.888 388.3C232.938 388.336 232.995 388.35 233.059 388.35C236.705 388.123 240.295 388.165 243.828 388.485C250.332 389.076 254.817 392.776 259.317 397.13C268.622 406.145 278.154 414.719 287.928 422.866C298.519 431.688 310.177 437.003 324.223 437.637C324.514 437.651 324.671 437.992 324.479 438.22C322.311 440.746 320.484 443.798 319.005 447.37C314.876 457.395 313.781 467.826 315.736 478.655M253.325 399.991C253.872 400.282 253.915 400.218 253.453 399.813C249.429 396.262 242.058 391.929 236.272 392.747C236.208 392.755 236.165 392.797 236.158 392.868L236.144 393.068C236.115 393.359 236.243 393.537 236.535 393.587C242.754 394.775 247.901 397.116 253.325 399.991ZM254.483 404.736C251.284 401.022 247.467 398.226 242.605 397.33C242.193 397.258 242.172 397.33 242.534 397.529C246.266 399.67 250.147 402.139 254.17 404.95C254.27 405.014 254.369 405.014 254.462 404.943C254.54 404.879 254.547 404.815 254.483 404.736Z" fill="#B14A39"/>
<path d="M369 243.038V261.929C365.382 262.975 362.929 265.259 361.657 268.788C360.889 270.908 360.043 273.662 359.112 277.048C356.887 274.565 355.523 271.861 355.004 268.923C353.916 262.818 357.115 255.788 361.138 251.028C363.512 248.225 366.135 245.564 369 243.038Z" fill="#B14A39"/>
<path d="M62.7514 246.39C63.114 246.525 63.3485 246.624 63.4481 246.696C67.4856 249.72 70.4426 252.409 72.3121 254.778C76.2075 259.723 74.4517 265.188 73.3713 270.709C73.2718 271.236 73.4708 271.776 73.8973 272.111L82.477 278.792L80.6715 282.534C80.4654 282.961 79.918 283.104 79.5271 282.826C76.0866 280.414 72.7102 277.682 69.9593 274.494C67.8552 272.054 69.6252 265.921 70.2934 263.082C70.6132 261.744 70.1583 260.456 68.9428 259.211C65.2251 255.412 61.5146 251.633 57.8112 247.877C57.7543 247.82 57.7827 247.72 57.8609 247.699L62.7514 246.39Z" fill="#F1DC1C"/>
<path d="M88.223 291.62C87.9813 291.236 87.4908 290.966 87.3131 290.646C87.0999 290.269 87.3416 289.799 87.7752 289.756C90.0996 289.529 92.2463 289.778 93.9025 287.543C96.5184 284.029 98.9139 280.343 101.089 276.494C101.288 276.138 101.53 275.832 101.807 275.576C103.549 273.982 105.88 272.922 107.913 271.648C117.239 265.821 125.726 260.655 133.382 256.152C133.738 255.945 134.171 255.952 134.512 256.173C135.756 256.963 136.673 258.001 137.27 259.304C137.391 259.581 137.42 259.901 137.334 260.193C136.709 262.413 136.197 265.109 137.434 267.258C141.208 273.811 144.556 280.592 145.694 287.977C146.888 295.719 145.161 302.827 139.367 307.878C135.962 310.845 132.01 312.859 127.504 313.919C121.369 315.364 115.291 315.591 109.257 314.609C106.207 314.118 103.527 312.681 101.217 310.298C95.8289 304.748 92.2179 297.903 88.223 291.62Z" fill="#6A5C66"/>
<path d="M368.997 261.929V285.273C364.938 283.267 361.64 280.528 359.109 277.048C360.041 273.662 360.886 270.908 361.654 268.788C362.927 265.259 365.379 262.975 368.997 261.929Z" fill="#E07436"/>
<path d="M359.19 284.512L358.706 290.916C354.975 287.586 352.949 283.431 352.643 278.457C352.622 278.052 352.743 277.995 353.02 278.294C353.652 278.97 354.278 279.759 354.911 280.649C355.714 281.794 357.135 283.082 359.19 284.512Z" fill="#B14A39"/>
<path d="M359.194 284.512C362.436 286.654 365.706 287.871 369.004 288.162V297.896C365.13 296.003 361.704 293.676 358.711 290.916L359.194 284.512Z" fill="#E07436"/>
<path d="M359.669 297.583C360.33 303.24 362.257 308.405 365.448 313.087C358.29 308.668 353.656 302.4 351.552 294.274C351.182 292.866 351.068 291.528 351.203 290.262C351.26 289.749 351.438 289.699 351.736 290.112C353.919 293.108 356.563 295.598 359.669 297.583Z" fill="#B14A39"/>
<path d="M104.669 368.691C100.653 356.304 99.238 343.945 100.418 331.614C100.781 327.808 101.719 323.019 103.226 317.242C105.643 318.245 108.045 318.885 110.441 319.156C116.959 319.881 123.264 319.412 129.342 317.747C138.618 315.207 143.779 308.675 147.845 300.03C148.364 298.92 149.082 298.045 149.991 297.398C154.221 294.388 159.865 294.708 164.471 297.042C172.809 301.275 173.591 308.156 170.186 315.833C169.269 317.91 168.381 320.066 167.535 322.308C165.409 327.943 164.585 333.848 165.061 340.017C165.402 344.457 166.127 348.911 165.189 353.322C163.625 360.686 158.344 363.155 151.527 364.514C140.431 366.734 129.861 365.219 118.985 362.366C117.933 362.088 117.016 361.597 116.234 360.893C116.014 360.694 116.007 360.494 116.234 360.295C119.028 357.748 121.814 355.571 124.579 353.756C132.626 348.491 140.928 343.411 147.759 336.509C154.619 329.579 160.604 321.319 161.578 311.429C161.656 310.689 161.834 310.66 162.111 311.35C163.163 313.933 164.201 316.267 164.393 319.049C164.464 320.102 164.699 320.137 165.09 319.156C166.732 315.036 166.419 310.866 164.144 306.64C161.116 301.026 154.541 302.442 151.356 306.974C150.027 308.867 148.947 310.888 148.108 313.037C147.845 313.727 147.987 313.826 148.541 313.342C151.513 310.76 154.47 307.942 158.443 307.081C158.77 307.01 159.069 307.288 159.026 307.622C158.351 312.98 156.808 317.377 153.908 322.087C149.011 330.049 142.656 336.694 134.844 342.024C130.159 345.218 125.475 348.427 120.805 351.65C114.102 356.261 108.728 361.939 104.676 368.691M108.244 326.591L109.801 325.061C110 324.869 110.306 324.848 110.526 325.011C111.578 325.78 111.969 327.103 111.692 328.974C111.656 329.223 111.727 329.437 111.919 329.615L112.083 329.764C112.161 329.842 112.218 329.821 112.239 329.714C112.986 326.235 112.651 324.108 111.244 323.339C109.424 322.35 107.228 324.065 106.069 325.417C103.332 328.619 102.963 332.824 103.226 336.993C103.368 339.22 104.583 342.486 107.242 342.415C110.128 342.344 111.464 337.669 111.599 335.471C111.607 335.392 111.571 335.342 111.493 335.328L111.315 335.3C111.315 335.3 111.265 335.314 111.258 335.335C110.995 337.377 110.036 339.028 108.372 340.287C108.202 340.416 107.988 340.472 107.775 340.444C107.142 340.351 106.752 339.981 106.616 339.348C106.567 339.113 106.609 338.893 106.759 338.701C108.685 336.104 109.794 333.144 110.085 329.835C110.135 329.245 109.901 328.668 109.46 328.277L108.259 327.231C108.024 327.025 108.024 326.811 108.244 326.591ZM131.048 359.313C131.098 359.377 131.154 359.384 131.218 359.335C132.519 358.317 133.813 357.307 135.092 356.289C138.149 353.87 140.552 350.633 142.229 347.132C142.265 347.054 142.25 346.99 142.172 346.947H142.165C142.087 346.897 142.023 346.912 141.973 346.99C138.888 351.593 135.206 355.649 130.934 359.164C130.934 359.164 130.934 359.169 130.934 359.178L131.048 359.313ZM139.066 354.774C137.495 356.617 134.709 359.178 130.699 362.458C130.678 362.48 130.671 362.501 130.692 362.529L130.813 362.686C130.813 362.686 130.849 362.714 130.87 362.7C134.275 360.644 137.189 358.431 139.628 356.047C141.184 354.525 142.421 352.981 143.352 351.408C144.227 349.928 144.028 349.772 142.755 350.932C141.525 352.049 140.296 353.329 139.066 354.774Z" fill="#95948A"/>
<path d="M359.664 297.583C362.614 299.397 365.727 300.493 368.997 300.87V315.313L365.443 313.086C362.251 308.405 360.325 303.239 359.664 297.583Z" fill="#E07436"/>
<path d="M103.227 317.242C101.72 323.019 100.782 327.808 100.419 331.614C99.2393 343.945 100.654 356.304 104.67 368.691L103.163 373.394C103.092 373.608 102.801 373.643 102.68 373.451C98.5143 366.699 95.8273 359.456 94.6118 351.707C93.9081 347.26 93.8441 343.062 94.4199 339.121C95.216 333.656 96.3391 328.533 97.7963 323.752C98.4859 321.468 99.417 319.291 100.583 317.22C100.782 316.864 100.881 316.487 100.881 316.082C100.881 315.84 101.159 315.698 101.358 315.84L103.227 317.242Z" fill="#F1DC1C"/>
<path d="M369.003 317.925V419.664C366.65 419.045 364.305 418.618 361.98 418.376C354.261 417.572 346.541 416.59 338.871 415.487C336.376 415.124 331.287 413.808 323.602 411.531C323.538 411.51 323.489 411.474 323.46 411.41C323.425 411.346 323.432 411.275 323.474 411.197C323.524 411.104 323.602 411.062 323.709 411.054C328.998 410.72 333.874 408.521 338.857 406.835C339.845 406.501 339.816 406.287 338.779 406.188C337.343 406.045 336.07 406.152 334.691 405.547C331.372 404.096 328.109 402.367 324.896 400.353C324.704 400.232 324.754 399.934 324.974 399.884C328.443 399.08 331.869 398.155 335.253 397.123C341.643 395.166 348.105 391.061 352.938 386.336C353.066 386.208 353.102 386.059 353.045 385.881C352.967 385.661 352.825 385.597 352.611 385.696C349.064 387.368 343.747 384.935 340.314 383.412C339.809 383.192 339.824 383.028 340.371 382.921C346.697 381.705 353.173 380.232 359.798 378.503C360.224 378.389 360.523 378.005 360.516 377.564C360.452 372.291 360.161 367.296 359.627 362.579C359.194 358.666 358.184 353.429 356.599 346.869C356.599 346.819 356.599 346.776 356.613 346.741C356.649 346.677 356.706 346.634 356.77 346.613C356.848 346.584 356.926 346.62 356.976 346.684C359.649 350.59 361.312 355.215 363.118 359.683C363.622 360.943 363.956 360.893 364.113 359.548C364.219 358.602 364.219 357.549 364.113 356.389C363.551 350.341 362.656 344.343 361.44 338.402C360.793 335.236 360.395 332.02 360.26 328.754C360.793 325.203 361.881 320.635 360.765 317.17C360.374 315.954 360.708 315.691 361.781 316.388C362.314 316.736 362.933 316.978 363.629 317.099C365.421 317.419 367.212 317.69 369.003 317.925Z" fill="#E07436"/>
<path d="M108.26 327.232L109.461 328.278C109.902 328.669 110.136 329.245 110.087 329.836C109.795 333.144 108.686 336.104 106.76 338.701C106.611 338.893 106.568 339.114 106.618 339.349C106.753 339.982 107.144 340.352 107.776 340.444C107.99 340.473 108.203 340.416 108.373 340.288C110.037 339.029 110.996 337.378 111.259 335.336C111.267 335.314 111.288 335.293 111.316 335.3L111.494 335.329C111.572 335.343 111.608 335.393 111.601 335.471C111.466 337.67 110.129 342.344 107.243 342.415C104.585 342.486 103.369 339.221 103.227 336.994C102.964 332.824 103.334 328.619 106.07 325.417C107.229 324.065 109.425 322.351 111.245 323.34C112.653 324.108 112.987 326.236 112.24 329.715C112.219 329.822 112.162 329.843 112.084 329.765L111.92 329.615C111.729 329.437 111.657 329.224 111.693 328.975C111.97 327.104 111.579 325.78 110.527 325.012C110.307 324.848 110.001 324.869 109.802 325.062L108.245 326.591C108.025 326.812 108.025 327.025 108.26 327.232Z" fill="#7D0431"/>
<path d="M360.255 328.754C360.39 332.02 360.788 335.236 361.435 338.402C362.65 344.343 363.546 350.341 364.108 356.389C364.214 357.549 364.214 358.602 364.108 359.548C363.951 360.893 363.617 360.943 363.112 359.684C361.307 355.215 359.644 350.59 356.971 346.684C356.921 346.62 356.843 346.585 356.765 346.613C356.701 346.634 356.644 346.677 356.608 346.741C356.587 346.777 356.587 346.819 356.594 346.869C358.179 353.429 359.189 358.666 359.622 362.579C360.155 367.297 360.447 372.292 360.511 377.564C360.511 378.005 360.219 378.389 359.793 378.503C353.168 380.232 346.692 381.705 340.366 382.922C339.819 383.028 339.804 383.192 340.309 383.412C343.742 384.935 349.059 387.368 352.606 385.696C352.82 385.597 352.962 385.661 353.04 385.881C353.097 386.059 353.061 386.209 352.933 386.337C348.1 391.061 341.638 395.167 335.248 397.123C331.864 398.155 328.438 399.08 324.969 399.884C324.749 399.934 324.699 400.233 324.891 400.354C328.104 402.367 331.367 404.096 334.686 405.548C336.065 406.152 337.338 406.046 338.774 406.188C339.811 406.288 339.84 406.501 338.852 406.835C333.869 408.522 328.993 410.72 323.704 411.055C323.597 411.055 323.519 411.105 323.469 411.197C323.427 411.275 323.42 411.346 323.455 411.41C323.484 411.474 323.533 411.51 323.597 411.531C331.281 413.808 336.371 415.125 338.866 415.487C346.536 416.59 354.256 417.572 361.975 418.376C364.3 418.618 366.645 419.045 368.998 419.664V424.787C360.191 423.271 351.49 423.819 342.889 426.43C337.857 427.96 333.087 430.486 328.587 434.022C328.196 434.328 327.699 434.463 327.208 434.392C314.399 432.599 302.052 428.131 292.044 419.799C283.741 412.89 273.228 403.541 260.511 391.737C260.177 391.424 260.234 391.303 260.682 391.374C261.933 391.574 263.113 391.872 264.399 391.894C267.42 391.951 270.505 391.958 273.64 391.922C281.459 391.815 289.413 393.132 296.835 395.323C297.645 395.558 297.78 395.359 297.233 394.711C294.368 391.303 291.368 387.255 287.231 385.583C286.371 385.234 286.4 385.077 287.331 385.113C289.477 385.205 291.581 385.611 293.742 385.455C306.58 384.522 319.787 381.591 328.993 372.228C329.092 372.121 329.099 371.957 329 371.85C328.772 371.594 328.488 371.459 328.154 371.438C320.164 370.89 312.146 369.666 304.092 367.759C303.083 367.524 302.102 367.211 301.149 366.827C300.78 366.678 300.794 366.571 301.185 366.507C308.279 365.34 313.589 364.629 317.122 364.372C326.803 363.668 336.3 365.055 345.605 368.549C348.562 369.652 349.372 366.059 349.564 363.96C349.877 360.594 350.133 357.236 350.325 353.892C350.787 346.001 351.924 338.409 350.701 330.398C350.453 328.775 350.353 327.189 350.403 325.638C350.467 323.496 350.772 323.46 351.334 325.524C351.96 327.865 352.55 330.22 353.111 332.603C353.488 334.211 354.049 335.713 354.782 337.114C354.888 337.307 355.037 337.449 355.236 337.527C356.289 337.968 357.753 337.947 358.307 336.73C359.388 334.354 359.722 331.337 360.255 328.754Z" fill="#B14A39"/>
<path d="M130.938 359.164C135.21 355.649 138.892 351.593 141.977 346.99C142.026 346.912 142.09 346.897 142.169 346.94H142.176C142.254 346.99 142.268 347.054 142.233 347.132C140.555 350.633 138.152 353.87 135.096 356.289C133.816 357.307 132.523 358.317 131.222 359.335C131.158 359.385 131.101 359.377 131.051 359.313L130.938 359.178C130.938 359.178 130.938 359.171 130.938 359.164Z" fill="#7D0431"/>
<path d="M139.066 354.774C140.295 353.33 141.525 352.049 142.755 350.932C144.027 349.772 144.226 349.929 143.352 351.409C142.421 352.981 141.184 354.525 139.627 356.048C137.189 358.431 134.275 360.644 130.87 362.7C130.849 362.714 130.827 362.707 130.813 362.686L130.692 362.529C130.692 362.529 130.678 362.48 130.699 362.458C134.708 359.178 137.495 356.617 139.066 354.774Z" fill="#7D0431"/>
<path d="M193.403 367.951C193.048 370.826 192.621 373.473 191.725 376.404C188.719 386.28 186.956 396.028 186.444 405.654C186.224 409.788 186.622 414.321 187.652 419.251C187.574 425.271 188.114 431.283 189.287 437.295C189.451 438.149 189.337 438.192 188.946 437.416C185.74 431.12 183.281 424.339 181.582 417.074C179.357 407.554 179.414 397.963 181.738 388.308C183.515 380.951 186.401 373.736 191.327 368.343C191.747 367.887 192.436 367.759 193.403 367.951Z" fill="#F1DC1C"/>
<path d="M222.451 383.555C227.648 388.123 231.941 393.48 235.318 399.635C236.028 400.93 237.137 402.388 238.644 404.004C239.902 405.355 241.033 406.778 242.035 408.265C245.532 413.438 250.465 419.173 256.842 425.456C261.81 430.358 266.772 434.663 271.741 438.37C276.915 442.233 282.908 445.506 289.717 448.188C291.104 448.736 292.419 449.334 293.656 449.981C294.928 450.65 294.871 450.814 293.471 450.472C290.421 449.732 287.5 448.936 284.706 448.089C282.737 447.491 282.623 447.74 284.365 448.836C286.213 449.996 288.075 451.148 289.952 452.294C292.838 454.066 296.051 456.385 299.591 459.26C300.316 459.843 301.126 460.355 302.029 460.789C302.903 461.216 302.854 461.487 301.887 461.593C300.124 461.793 298.326 461.572 296.499 460.924C294.004 460.049 291.594 459.316 289.27 458.726C288.936 458.641 288.665 458.996 288.829 459.295C289.639 460.782 290.443 462.234 291.53 463.536C296.911 469.961 303.138 475.845 310.211 481.203C311.412 482.12 312.763 482.86 314.263 483.422C314.653 483.579 315.073 483.266 315.052 482.846C314.966 481.252 315.194 479.851 315.734 478.648C315.94 481.395 316.21 483.913 316.559 486.197C316.708 487.194 316.836 487.194 316.942 486.197C317.987 476.236 318.684 465.919 321.25 456.727C321.47 455.923 321.74 455.133 322.06 454.371C322.38 453.589 322.672 452.813 322.949 452.038C324.036 451.817 325.053 451.483 325.998 451.02C327.655 450.223 328.614 449.782 328.877 449.704C333.562 448.217 337.919 448.786 341.957 451.412C342.66 451.874 344.096 452.899 346.257 454.492C340.023 457.445 337.67 463.244 336.206 469.505C336.185 469.598 336.199 469.683 336.234 469.769C336.27 469.847 336.327 469.897 336.405 469.904C336.611 469.932 336.767 469.854 336.874 469.669C339.063 465.763 341.758 462.376 344.956 459.509C345.447 459.067 346.47 458.498 348.02 457.794C350.814 463.208 352.427 466.93 352.868 468.972C353.429 471.569 354.112 474.194 354.901 476.848C348.624 480.84 344.835 485.137 343.037 492.629C342.639 494.302 342.305 495.945 342.028 497.56C342.021 497.61 342.028 497.66 342.049 497.71C342.07 497.774 342.12 497.809 342.191 497.823C342.312 497.859 342.404 497.816 342.454 497.695C345.212 491.114 349.47 485.77 355.221 481.651C355.256 484.824 355.05 487.777 354.616 490.502C354.154 493.398 351.467 497.375 349.562 499.282C345.141 503.729 339.262 506.255 333.156 508.653C320.809 513.491 308.754 514.231 295.312 510.453C292.191 509.571 289.255 508.631 286.519 507.642C286.377 507.585 286.206 507.628 286.106 507.742C286.028 507.834 285.993 507.934 286.007 508.055C286.028 508.247 286.106 508.404 286.242 508.539C287.23 509.471 288.296 510.367 289.447 511.221C289.639 511.371 289.781 511.556 289.867 511.776C289.938 511.983 289.753 512.182 289.54 512.125C288.246 511.776 286.938 511.278 285.623 510.631C279.233 507.493 273.56 503.316 267.895 498.941C267.547 498.67 267.17 498.457 266.765 498.3C266.225 498.094 266.068 498.25 266.303 498.784C266.793 499.88 267.71 500.762 268.364 501.822C269.267 503.281 269.9 504.32 270.276 504.953C271.954 507.735 271.613 508.012 269.246 505.785C265.585 502.334 261.448 498.67 256.842 494.807C253.245 491.79 248.965 487.969 246.606 484.383C244.992 481.928 243.57 480.135 242.333 478.99C240.855 477.617 240.229 477.937 240.464 479.936C241.182 486.112 242.952 492.444 245.76 498.933C245.852 499.14 246.008 499.261 246.229 499.289C246.385 499.311 246.542 499.289 246.698 499.239C246.314 499.773 245.873 500.1 245.369 500.207C245.141 500.257 244.949 500.193 244.8 500.015C235.908 489.726 227.747 478.662 221.598 466.46C218.819 460.953 216.779 455.268 214.433 449.59C214.099 448.793 213.644 448.039 213.054 447.328C212.898 447.135 212.784 447.164 212.706 447.399C211.81 450.366 211.597 453.447 212.059 456.634L211.391 455.958C210.716 455.275 210.424 455.41 210.517 456.371C210.652 457.758 210.467 459.295 209.948 460.996C206.145 453.624 203.174 446.04 201.034 438.241C199.648 433.197 198.866 428.536 198.681 424.246C198.454 418.903 198.916 413.872 200.074 409.141C201.489 403.342 204.517 397.379 209.145 391.267C212.663 387.845 217.099 385.277 222.451 383.562V383.555Z" fill="#E07436"/>
<path d="M209.144 391.26C204.517 397.372 201.489 403.335 200.074 409.133C198.915 413.865 198.453 418.895 198.681 424.239C198.866 428.529 199.648 433.19 201.034 438.234C203.173 446.032 206.145 453.617 209.948 460.988L212.812 470.316C212.933 470.722 212.862 470.765 212.585 470.444C204.176 460.604 197.145 447.818 194.7 434.904C193.925 430.827 193.513 427.241 193.463 424.153C193.428 421.955 193.783 418.846 194.515 414.826C196.292 405.163 201.169 397.308 209.144 391.26Z" fill="#F1DC1C"/>
<path d="M253.325 399.991C247.902 397.116 242.755 394.775 236.535 393.587C236.244 393.537 236.116 393.36 236.144 393.068L236.159 392.869C236.166 392.797 236.208 392.755 236.272 392.748C242.059 391.929 249.43 396.263 253.453 399.813C253.915 400.219 253.873 400.283 253.325 399.991Z" fill="#7D0431"/>
<path d="M242.608 397.33C247.47 398.226 251.288 401.022 254.486 404.737C254.55 404.815 254.543 404.879 254.465 404.943C254.373 405.014 254.273 405.014 254.174 404.95C250.15 402.14 246.269 399.671 242.537 397.529C242.175 397.323 242.196 397.259 242.608 397.33Z" fill="#7D0431"/>
<path d="M369.001 429.006V451.788C366.065 451.454 364.174 451.269 363.314 451.226C357.848 450.949 352.161 452.03 346.261 454.485C344.1 452.891 342.665 451.867 341.961 451.404C337.923 448.779 333.566 448.21 328.881 449.697C328.618 449.775 327.659 450.216 326.003 451.013C325.057 451.475 324.041 451.81 322.953 452.03C326.742 441.948 333.921 435.324 344.477 432.172C349.794 430.578 354.066 429.952 360.201 429.632C363.136 429.483 366.065 429.269 369.001 429.006Z" fill="#B14A39"/>
<path d="M246.704 499.232C249.753 497.354 251.665 500.086 253.649 501.815C254.367 502.449 255.113 503.039 255.888 503.601C264.418 509.77 271.931 514.409 278.435 517.504C284.193 520.243 292.851 523.495 304.409 527.259C298.559 528.803 293.263 528.938 288.529 527.664C284.001 526.448 279.516 524.705 275.08 522.442C266.088 517.853 257.679 512.374 250.45 505.394C249.59 504.569 249.057 503.516 248.296 502.641C247.671 501.922 247.5 502.022 247.784 502.925C248.559 505.359 249.22 507.934 250.429 510.168C251.09 511.392 251.694 512.637 252.241 513.897C252.533 514.558 252.405 514.651 251.864 514.167C244.344 507.422 237.712 499.773 231.975 491.228C225.251 481.217 218.612 469.683 212.065 456.627C211.603 453.44 211.816 450.359 212.712 447.392C212.79 447.157 212.904 447.128 213.06 447.321C213.65 448.032 214.105 448.786 214.439 449.583C216.785 455.261 218.825 460.946 221.604 466.453C227.753 478.656 235.913 489.72 244.806 500.008C244.955 500.186 245.147 500.25 245.375 500.2C245.879 500.093 246.32 499.766 246.704 499.232Z" fill="#F1DC1C"/>
<path d="M369.004 451.789V454.628C361.711 454.165 354.716 455.218 348.027 457.787C346.478 458.491 345.454 459.06 344.963 459.501C341.765 462.369 339.071 465.756 336.881 469.662C336.775 469.847 336.618 469.925 336.412 469.897C336.334 469.897 336.277 469.84 336.242 469.761C336.206 469.676 336.192 469.591 336.213 469.498C337.677 463.237 340.03 457.438 346.264 454.485C352.164 452.031 357.851 450.949 363.317 451.227C364.177 451.269 366.068 451.454 369.004 451.789Z" fill="#7D0431"/>
<path d="M369 454.628V473.582C363.655 472.707 359.51 474.394 354.904 476.841C354.115 474.187 353.433 471.562 352.871 468.965C352.431 466.923 350.817 463.202 348.023 457.787C354.712 455.218 361.707 454.165 369 454.628Z" fill="#B14A39"/>
<path d="M369.003 473.582V476.457C365.47 476.848 362.122 477.823 358.959 479.381C357.487 480.107 356.243 480.861 355.227 481.644C349.476 485.763 345.218 491.107 342.46 497.688C342.411 497.809 342.318 497.852 342.197 497.816C342.126 497.802 342.077 497.767 342.055 497.703C342.034 497.653 342.027 497.603 342.034 497.553C342.311 495.938 342.645 494.294 343.043 492.622C344.842 485.13 348.63 480.833 354.907 476.841C359.513 474.393 363.657 472.707 369.003 473.582Z" fill="#7D0431"/>
<path d="M369.003 476.457V504.163C364.794 505.444 361.866 507.92 360.21 511.591C359.605 512.936 359.15 514.445 358.845 516.124C357.757 522.186 353.634 526.156 346.483 528.042C340.484 529.621 330.198 529.18 324.959 524.783C323.324 523.41 321.412 523.367 319.45 523.851C313.941 525.21 308.93 526.341 304.409 527.259C292.851 523.495 284.193 520.243 278.435 517.504C271.931 514.409 264.418 509.77 255.888 503.601C255.113 503.039 254.367 502.449 253.649 501.815C251.665 500.086 249.753 497.354 246.704 499.233C246.547 499.289 246.391 499.304 246.235 499.282C246.014 499.254 245.858 499.133 245.766 498.927C242.958 492.438 241.188 486.105 240.47 479.929C240.235 477.93 240.861 477.61 242.339 478.983C243.576 480.128 244.998 481.921 246.611 484.376C248.971 487.962 253.251 491.783 256.847 494.8C261.454 498.663 265.591 502.328 269.251 505.778C271.619 508.005 271.96 507.728 270.282 504.946C269.905 504.313 269.273 503.274 268.37 501.815C267.716 500.755 266.799 499.873 266.309 498.777C266.074 498.244 266.23 498.087 266.771 498.293C267.176 498.45 267.553 498.663 267.901 498.934C273.566 503.309 279.239 507.486 285.629 510.624C286.944 511.271 288.252 511.769 289.546 512.118C289.759 512.175 289.944 511.976 289.873 511.769C289.787 511.549 289.645 511.364 289.453 511.214C288.302 510.361 287.236 509.464 286.247 508.532C286.112 508.397 286.034 508.24 286.013 508.048C285.999 507.927 286.034 507.828 286.112 507.735C286.212 507.621 286.383 507.579 286.525 507.635C289.261 508.624 292.197 509.564 295.318 510.446C308.76 514.224 320.815 513.484 333.162 508.646C339.268 506.248 345.147 503.722 349.568 499.275C351.473 497.368 354.16 493.391 354.622 490.495C355.056 487.77 355.262 484.817 355.227 481.644C356.243 480.861 357.487 480.107 358.958 479.381C362.122 477.823 365.47 476.848 369.003 476.457Z" fill="#B14A39"/>
</g>
<defs>
<clipPath id="clip0_8832_53903">
<rect width="369" height="535" fill="white"/>
</clipPath>
</defs>
</svg>
