<svg width="163" height="163" viewBox="0 0 163 163" fill="none" xmlns="http://www.w3.org/2000/svg">
<g filter="url(#filter0_b_1154_2960)">
<circle cx="81.5" cy="81.5" r="81.5" fill="#0A0A0A"/>
<circle cx="81.5" cy="81.5" r="80.5" stroke="url(#paint0_linear_1154_2960)" stroke-width="2"/>
</g>
<g clip-path="url(#clip0_1154_2960)">
<path d="M42.6786 68.7885C56.0533 76.778 75.5521 87.7241 75.5521 87.7241L71.9621 77.2356C71.9621 77.2356 35.5337 59.6022 30.5359 52.2109C30.5711 52.2461 29.3392 60.7637 42.6786 68.7885Z" fill="url(#paint1_linear_1154_2960)"/>
<path d="M110.575 76.7781L86.7469 91.2087L81.1155 105.146L75.5544 91.455L51.7265 77.0245C51.7265 77.0245 23.147 59.8838 21 53.1965C21 53.1965 21.4927 66.2896 32.1925 73.6808C42.8922 81.0721 71.0141 96.7697 71.0141 96.7697L81.0099 122.815V123.202L81.0803 123.026L81.2563 123.449V122.604L91.252 96.5585C91.252 96.5585 119.339 80.8257 130.074 73.4697C140.809 66.1136 141.266 52.9854 141.266 52.9854C139.154 59.6375 110.575 76.7781 110.575 76.7781Z" fill="url(#paint2_linear_1154_2960)"/>
<path d="M119.655 68.5423C133.029 60.5527 131.797 52 131.797 52C126.8 59.3912 90.3361 77.0247 90.3361 77.0247L86.7812 87.5132C86.7812 87.478 106.315 76.5319 119.655 68.5423Z" fill="url(#paint3_linear_1154_2960)"/>
<path d="M88.1882 77.2357L81.0433 64.0723L73.8984 77.2357L81.0433 101.275L88.1882 77.2357Z" fill="url(#paint4_linear_1154_2960)"/>
<path d="M70.5895 100.325L42.2211 83.4305C42.2211 83.4305 41.7636 100.571 70.5895 100.325Z" fill="url(#paint5_linear_1154_2960)"/>
<path d="M91.5371 100.325C120.363 100.571 119.905 83.4305 119.905 83.4305L91.5371 100.325Z" fill="url(#paint6_linear_1154_2960)"/>
</g>
<defs>
<filter id="filter0_b_1154_2960" x="-76.7" y="-76.7" width="316.4" height="316.4" filterUnits="userSpaceOnUse" color-interpolation-filters="sRGB">
<feFlood flood-opacity="0" result="BackgroundImageFix"/>
<feGaussianBlur in="BackgroundImageFix" stdDeviation="38.35"/>
<feComposite in2="SourceAlpha" operator="in" result="effect1_backgroundBlur_1154_2960"/>
<feBlend mode="normal" in="SourceGraphic" in2="effect1_backgroundBlur_1154_2960" result="shape"/>
</filter>
<linearGradient id="paint0_linear_1154_2960" x1="-157.037" y1="97.4025" x2="294.858" y2="97.4025" gradientUnits="userSpaceOnUse">
<stop stop-color="white"/>
<stop offset="0.545503" stop-color="white" stop-opacity="0"/>
<stop offset="1" stop-color="white"/>
</linearGradient>
<linearGradient id="paint1_linear_1154_2960" x1="31.6355" y1="81.4233" x2="119.522" y2="34.5146" gradientUnits="userSpaceOnUse">
<stop stop-color="#E71505"/>
<stop offset="0.7318" stop-color="#FFB400"/>
<stop offset="1" stop-color="#FFF888"/>
</linearGradient>
<linearGradient id="paint2_linear_1154_2960" x1="38.8333" y1="94.9044" x2="126.72" y2="47.9958" gradientUnits="userSpaceOnUse">
<stop stop-color="#E71505"/>
<stop offset="0.7318" stop-color="#FFB400"/>
<stop offset="1" stop-color="#FFF888"/>
</linearGradient>
<linearGradient id="paint3_linear_1154_2960" x1="44" y1="104.586" x2="131.886" y2="57.6778" gradientUnits="userSpaceOnUse">
<stop stop-color="#E71505"/>
<stop offset="0.065186" stop-color="#E92305"/>
<stop offset="0.7318" stop-color="#FFB400"/>
<stop offset="1" stop-color="#FFF888"/>
</linearGradient>
<linearGradient id="paint4_linear_1154_2960" x1="43.109" y1="102.919" x2="130.995" y2="56.01" gradientUnits="userSpaceOnUse">
<stop stop-color="#E71505"/>
<stop offset="0.7318" stop-color="#FFB400"/>
<stop offset="1" stop-color="#FFF888"/>
</linearGradient>
<linearGradient id="paint5_linear_1154_2960" x1="41.1788" y1="100.007" x2="129.065" y2="53.0987" gradientUnits="userSpaceOnUse">
<stop stop-color="#E71505"/>
<stop offset="0.7318" stop-color="#FFB400"/>
<stop offset="1" stop-color="#FFF888"/>
</linearGradient>
<linearGradient id="paint6_linear_1154_2960" x1="53.4671" y1="123.019" x2="141.353" y2="76.1108" gradientUnits="userSpaceOnUse">
<stop stop-color="#E71505"/>
<stop offset="0.7318" stop-color="#FFB400"/>
<stop offset="1" stop-color="#FFF888"/>
</linearGradient>
<clipPath id="clip0_1154_2960">
<rect width="120.266" height="71.4487" fill="white" transform="translate(21 52)"/>
</clipPath>
</defs>
</svg>
