<svg width="300" height="111" viewBox="0 0 300 111" fill="none" xmlns="http://www.w3.org/2000/svg">
<g filter="url(#filter0_b_859_15861)">
<rect width="300" height="111" rx="10" fill="#292D32" fill-opacity="0.35"/>
<rect x="1" y="1" width="298" height="109" rx="9" stroke="url(#paint0_linear_859_15861)" stroke-width="2"/>
<path d="M98.7219 34.242L95.8939 44H94.4659L92.1979 36.146L89.8459 44L88.4319 44.014L85.7019 34.242H87.0599L89.1879 42.516L91.5399 34.242H92.9679L95.2079 42.488L97.3499 34.242H98.7219ZM103.924 36.188C104.503 36.188 105.025 36.314 105.492 36.566C105.959 36.8087 106.323 37.1773 106.584 37.672C106.855 38.1667 106.99 38.7687 106.99 39.478V44H105.73V39.66C105.73 38.8947 105.539 38.3113 105.156 37.91C104.773 37.4993 104.251 37.294 103.588 37.294C102.916 37.294 102.379 37.504 101.978 37.924C101.586 38.344 101.39 38.9553 101.39 39.758V44H100.116V33.64H101.39V37.42C101.642 37.028 101.987 36.7247 102.426 36.51C102.874 36.2953 103.373 36.188 103.924 36.188ZM112.417 44.126C111.698 44.126 111.045 43.9627 110.457 43.636C109.878 43.3093 109.421 42.8473 109.085 42.25C108.758 41.6433 108.595 40.9433 108.595 40.15C108.595 39.366 108.763 38.6753 109.099 38.078C109.444 37.4713 109.911 37.0093 110.499 36.692C111.087 36.3653 111.745 36.202 112.473 36.202C113.201 36.202 113.859 36.3653 114.447 36.692C115.035 37.0093 115.497 37.4667 115.833 38.064C116.178 38.6613 116.351 39.3567 116.351 40.15C116.351 40.9433 116.174 41.6433 115.819 42.25C115.474 42.8473 115.002 43.3093 114.405 43.636C113.808 43.9627 113.145 44.126 112.417 44.126ZM112.417 43.006C112.874 43.006 113.304 42.8987 113.705 42.684C114.106 42.4693 114.428 42.1473 114.671 41.718C114.923 41.2887 115.049 40.766 115.049 40.15C115.049 39.534 114.928 39.0113 114.685 38.582C114.442 38.1527 114.125 37.8353 113.733 37.63C113.341 37.4153 112.916 37.308 112.459 37.308C111.992 37.308 111.563 37.4153 111.171 37.63C110.788 37.8353 110.48 38.1527 110.247 38.582C110.014 39.0113 109.897 39.534 109.897 40.15C109.897 40.7753 110.009 41.3027 110.233 41.732C110.466 42.1613 110.774 42.4833 111.157 42.698C111.54 42.9033 111.96 43.006 112.417 43.006ZM124.853 44.098C124.209 44.098 123.63 43.986 123.117 43.762C122.613 43.5287 122.216 43.2113 121.927 42.81C121.637 42.3993 121.488 41.928 121.479 41.396H122.837C122.883 41.8533 123.07 42.2407 123.397 42.558C123.733 42.866 124.218 43.02 124.853 43.02C125.459 43.02 125.935 42.8707 126.281 42.572C126.635 42.264 126.813 41.872 126.813 41.396C126.813 41.0227 126.71 40.7193 126.505 40.486C126.299 40.2527 126.043 40.0753 125.735 39.954C125.427 39.8327 125.011 39.702 124.489 39.562C123.845 39.394 123.327 39.226 122.935 39.058C122.552 38.89 122.221 38.6287 121.941 38.274C121.67 37.91 121.535 37.4247 121.535 36.818C121.535 36.286 121.67 35.8147 121.941 35.404C122.211 34.9933 122.589 34.676 123.075 34.452C123.569 34.228 124.134 34.116 124.769 34.116C125.683 34.116 126.43 34.3447 127.009 34.802C127.597 35.2593 127.928 35.866 128.003 36.622H126.603C126.556 36.2487 126.36 35.922 126.015 35.642C125.669 35.3527 125.212 35.208 124.643 35.208C124.111 35.208 123.677 35.348 123.341 35.628C123.005 35.8987 122.837 36.2813 122.837 36.776C122.837 37.1307 122.935 37.42 123.131 37.644C123.336 37.868 123.583 38.0407 123.873 38.162C124.171 38.274 124.587 38.4047 125.119 38.554C125.763 38.7313 126.281 38.9087 126.673 39.086C127.065 39.254 127.401 39.52 127.681 39.884C127.961 40.2387 128.101 40.724 128.101 41.34C128.101 41.816 127.975 42.264 127.723 42.684C127.471 43.104 127.097 43.4447 126.603 43.706C126.108 43.9673 125.525 44.098 124.853 44.098ZM136.779 36.328V44H135.505V42.866C135.263 43.258 134.922 43.566 134.483 43.79C134.054 44.0047 133.578 44.112 133.055 44.112C132.458 44.112 131.921 43.9907 131.445 43.748C130.969 43.496 130.591 43.1227 130.311 42.628C130.041 42.1333 129.905 41.5313 129.905 40.822V36.328H131.165V40.654C131.165 41.41 131.357 41.9933 131.739 42.404C132.122 42.8053 132.645 43.006 133.307 43.006C133.989 43.006 134.525 42.796 134.917 42.376C135.309 41.956 135.505 41.3447 135.505 40.542V36.328H136.779ZM140.205 37.742C140.457 37.3033 140.83 36.9393 141.325 36.65C141.829 36.3513 142.412 36.202 143.075 36.202C143.756 36.202 144.372 36.3653 144.923 36.692C145.483 37.0187 145.921 37.4807 146.239 38.078C146.556 38.666 146.715 39.352 146.715 40.136C146.715 40.9107 146.556 41.6013 146.239 42.208C145.921 42.8147 145.483 43.286 144.923 43.622C144.372 43.958 143.756 44.126 143.075 44.126C142.421 44.126 141.843 43.9813 141.339 43.692C140.844 43.3933 140.466 43.0247 140.205 42.586V47.64H138.931V36.328H140.205V37.742ZM145.413 40.136C145.413 39.5573 145.296 39.0533 145.063 38.624C144.829 38.1947 144.512 37.868 144.111 37.644C143.719 37.42 143.285 37.308 142.809 37.308C142.342 37.308 141.908 37.4247 141.507 37.658C141.115 37.882 140.797 38.2133 140.555 38.652C140.321 39.0813 140.205 39.5807 140.205 40.15C140.205 40.7287 140.321 41.2373 140.555 41.676C140.797 42.1053 141.115 42.4367 141.507 42.67C141.908 42.894 142.342 43.006 142.809 43.006C143.285 43.006 143.719 42.894 144.111 42.67C144.512 42.4367 144.829 42.1053 145.063 41.676C145.296 41.2373 145.413 40.724 145.413 40.136ZM149.665 37.742C149.917 37.3033 150.291 36.9393 150.785 36.65C151.289 36.3513 151.873 36.202 152.535 36.202C153.217 36.202 153.833 36.3653 154.383 36.692C154.943 37.0187 155.382 37.4807 155.699 38.078C156.017 38.666 156.175 39.352 156.175 40.136C156.175 40.9107 156.017 41.6013 155.699 42.208C155.382 42.8147 154.943 43.286 154.383 43.622C153.833 43.958 153.217 44.126 152.535 44.126C151.882 44.126 151.303 43.9813 150.799 43.692C150.305 43.3933 149.927 43.0247 149.665 42.586V47.64H148.391V36.328H149.665V37.742ZM154.873 40.136C154.873 39.5573 154.757 39.0533 154.523 38.624C154.29 38.1947 153.973 37.868 153.571 37.644C153.179 37.42 152.745 37.308 152.269 37.308C151.803 37.308 151.369 37.4247 150.967 37.658C150.575 37.882 150.258 38.2133 150.015 38.652C149.782 39.0813 149.665 39.5807 149.665 40.15C149.665 40.7287 149.782 41.2373 150.015 41.676C150.258 42.1053 150.575 42.4367 150.967 42.67C151.369 42.894 151.803 43.006 152.269 43.006C152.745 43.006 153.179 42.894 153.571 42.67C153.973 42.4367 154.29 42.1053 154.523 41.676C154.757 41.2373 154.873 40.724 154.873 40.136ZM161.198 44.126C160.48 44.126 159.826 43.9627 159.238 43.636C158.66 43.3093 158.202 42.8473 157.866 42.25C157.54 41.6433 157.376 40.9433 157.376 40.15C157.376 39.366 157.544 38.6753 157.88 38.078C158.226 37.4713 158.692 37.0093 159.28 36.692C159.868 36.3653 160.526 36.202 161.254 36.202C161.982 36.202 162.64 36.3653 163.228 36.692C163.816 37.0093 164.278 37.4667 164.614 38.064C164.96 38.6613 165.132 39.3567 165.132 40.15C165.132 40.9433 164.955 41.6433 164.6 42.25C164.255 42.8473 163.784 43.3093 163.186 43.636C162.589 43.9627 161.926 44.126 161.198 44.126ZM161.198 43.006C161.656 43.006 162.085 42.8987 162.486 42.684C162.888 42.4693 163.21 42.1473 163.452 41.718C163.704 41.2887 163.83 40.766 163.83 40.15C163.83 39.534 163.709 39.0113 163.466 38.582C163.224 38.1527 162.906 37.8353 162.514 37.63C162.122 37.4153 161.698 37.308 161.24 37.308C160.774 37.308 160.344 37.4153 159.952 37.63C159.57 37.8353 159.262 38.1527 159.028 38.582C158.795 39.0113 158.678 39.534 158.678 40.15C158.678 40.7753 158.79 41.3027 159.014 41.732C159.248 42.1613 159.556 42.4833 159.938 42.698C160.321 42.9033 160.741 43.006 161.198 43.006ZM168.081 37.574C168.305 37.1353 168.623 36.7947 169.033 36.552C169.453 36.3093 169.962 36.188 170.559 36.188V37.504H170.223C168.795 37.504 168.081 38.2787 168.081 39.828V44H166.807V36.328H168.081V37.574ZM173.584 37.378V41.9C173.584 42.2733 173.663 42.5393 173.822 42.698C173.981 42.8473 174.256 42.922 174.648 42.922H175.586V44H174.438C173.729 44 173.197 43.8367 172.842 43.51C172.487 43.1833 172.31 42.6467 172.31 41.9V37.378H171.316V36.328H172.31V34.396H173.584V36.328H175.586V37.378H173.584ZM186.378 34.242V35.278H182.136V38.568H185.58V39.604H182.136V44H180.862V34.242H186.378ZM194.917 39.87C194.917 40.1127 194.903 40.3693 194.875 40.64H188.743C188.79 41.396 189.046 41.9887 189.513 42.418C189.989 42.838 190.563 43.048 191.235 43.048C191.786 43.048 192.243 42.922 192.607 42.67C192.98 42.4087 193.242 42.0633 193.391 41.634H194.763C194.558 42.3713 194.147 42.9733 193.531 43.44C192.915 43.8973 192.15 44.126 191.235 44.126C190.507 44.126 189.854 43.9627 189.275 43.636C188.706 43.3093 188.258 42.8473 187.931 42.25C187.604 41.6433 187.441 40.9433 187.441 40.15C187.441 39.3567 187.6 38.6613 187.917 38.064C188.234 37.4667 188.678 37.0093 189.247 36.692C189.826 36.3653 190.488 36.202 191.235 36.202C191.963 36.202 192.607 36.3607 193.167 36.678C193.727 36.9953 194.156 37.434 194.455 37.994C194.763 38.5447 194.917 39.17 194.917 39.87ZM193.601 39.604C193.601 39.1187 193.494 38.7033 193.279 38.358C193.064 38.0033 192.77 37.7373 192.397 37.56C192.033 37.3733 191.627 37.28 191.179 37.28C190.535 37.28 189.984 37.4853 189.527 37.896C189.079 38.3067 188.822 38.876 188.757 39.604H193.601ZM200.337 36.188C201.27 36.188 202.026 36.4727 202.605 37.042C203.183 37.602 203.473 38.414 203.473 39.478V44H202.213V39.66C202.213 38.8947 202.021 38.3113 201.639 37.91C201.256 37.4993 200.733 37.294 200.071 37.294C199.399 37.294 198.862 37.504 198.461 37.924C198.069 38.344 197.873 38.9553 197.873 39.758V44H196.599V36.328H197.873V37.42C198.125 37.028 198.465 36.7247 198.895 36.51C199.333 36.2953 199.814 36.188 200.337 36.188ZM206.212 35.082C205.969 35.082 205.764 34.998 205.596 34.83C205.428 34.662 205.344 34.4567 205.344 34.214C205.344 33.9713 205.428 33.766 205.596 33.598C205.764 33.43 205.969 33.346 206.212 33.346C206.445 33.346 206.641 33.43 206.8 33.598C206.968 33.766 207.052 33.9713 207.052 34.214C207.052 34.4567 206.968 34.662 206.8 34.83C206.641 34.998 206.445 35.082 206.212 35.082ZM206.828 36.328V44H205.554V36.328H206.828ZM213.003 44L211.183 41.144L209.433 44H208.103L210.581 40.192L208.103 36.328H209.545L211.365 39.17L213.101 36.328H214.431L211.967 40.122L214.445 44H213.003Z" fill="white"/>
<path d="M119.36 63.14C119.36 64.3 118.96 65.2667 118.16 66.04C117.373 66.8 116.167 67.18 114.54 67.18H111.86V73H110.04V59.06H114.54C116.113 59.06 117.307 59.44 118.12 60.2C118.947 60.96 119.36 61.94 119.36 63.14ZM114.54 65.68C115.553 65.68 116.3 65.46 116.78 65.02C117.26 64.58 117.5 63.9533 117.5 63.14C117.5 61.42 116.513 60.56 114.54 60.56H111.86V65.68H114.54ZM120.942 67.48C120.942 66.36 121.169 65.38 121.622 64.54C122.075 63.6867 122.695 63.0267 123.482 62.56C124.282 62.0933 125.169 61.86 126.142 61.86C127.102 61.86 127.935 62.0667 128.642 62.48C129.349 62.8933 129.875 63.4133 130.222 64.04V62.04H132.062V73H130.222V70.96C129.862 71.6 129.322 72.1333 128.602 72.56C127.895 72.9733 127.069 73.18 126.122 73.18C125.149 73.18 124.269 72.94 123.482 72.46C122.695 71.98 122.075 71.3067 121.622 70.44C121.169 69.5733 120.942 68.5867 120.942 67.48ZM130.222 67.5C130.222 66.6733 130.055 65.9533 129.722 65.34C129.389 64.7267 128.935 64.26 128.362 63.94C127.802 63.6067 127.182 63.44 126.502 63.44C125.822 63.44 125.202 63.6 124.642 63.92C124.082 64.24 123.635 64.7067 123.302 65.32C122.969 65.9333 122.802 66.6533 122.802 67.48C122.802 68.32 122.969 69.0533 123.302 69.68C123.635 70.2933 124.082 70.7667 124.642 71.1C125.202 71.42 125.822 71.58 126.502 71.58C127.182 71.58 127.802 71.42 128.362 71.1C128.935 70.7667 129.389 70.2933 129.722 69.68C130.055 69.0533 130.222 68.3267 130.222 67.5ZM136.958 63.82C137.278 63.1933 137.731 62.7067 138.318 62.36C138.918 62.0133 139.644 61.84 140.498 61.84V63.72H140.018C137.978 63.72 136.958 64.8267 136.958 67.04V73H135.138V62.04H136.958V63.82ZM144.819 63.54V70C144.819 70.5333 144.932 70.9133 145.159 71.14C145.385 71.3533 145.779 71.46 146.339 71.46H147.679V73H146.039C145.025 73 144.265 72.7667 143.759 72.3C143.252 71.8333 142.999 71.0667 142.999 70V63.54H141.579V62.04H142.999V59.28H144.819V62.04H147.679V63.54H144.819ZM155.224 61.84C156.557 61.84 157.637 62.2467 158.464 63.06C159.29 63.86 159.704 65.02 159.704 66.54V73H157.904V66.8C157.904 65.7067 157.63 64.8733 157.084 64.3C156.537 63.7133 155.79 63.42 154.844 63.42C153.884 63.42 153.117 63.72 152.544 64.32C151.984 64.92 151.704 65.7933 151.704 66.94V73H149.884V62.04H151.704V63.6C152.064 63.04 152.55 62.6067 153.164 62.3C153.79 61.9933 154.477 61.84 155.224 61.84ZM172.677 67.1C172.677 67.4467 172.657 67.8133 172.617 68.2H163.857C163.923 69.28 164.29 70.1267 164.957 70.74C165.637 71.34 166.457 71.64 167.417 71.64C168.203 71.64 168.857 71.46 169.377 71.1C169.91 70.7267 170.283 70.2333 170.497 69.62H172.457C172.163 70.6733 171.577 71.5333 170.697 72.2C169.817 72.8533 168.723 73.18 167.417 73.18C166.377 73.18 165.443 72.9467 164.617 72.48C163.803 72.0133 163.163 71.3533 162.697 70.5C162.23 69.6333 161.997 68.6333 161.997 67.5C161.997 66.3667 162.223 65.3733 162.677 64.52C163.13 63.6667 163.763 63.0133 164.577 62.56C165.403 62.0933 166.35 61.86 167.417 61.86C168.457 61.86 169.377 62.0867 170.177 62.54C170.977 62.9933 171.59 63.62 172.017 64.42C172.457 65.2067 172.677 66.1 172.677 67.1ZM170.797 66.72C170.797 66.0267 170.643 65.4333 170.337 64.94C170.03 64.4333 169.61 64.0533 169.077 63.8C168.557 63.5333 167.977 63.4 167.337 63.4C166.417 63.4 165.63 63.6933 164.977 64.28C164.337 64.8667 163.97 65.68 163.877 66.72H170.797ZM176.899 63.82C177.219 63.1933 177.672 62.7067 178.259 62.36C178.859 62.0133 179.586 61.84 180.439 61.84V63.72H179.959C177.919 63.72 176.899 64.8267 176.899 67.04V73H175.079V62.04H176.899V63.82ZM186.42 73.18C185.58 73.18 184.827 73.04 184.16 72.76C183.493 72.4667 182.967 72.0667 182.58 71.56C182.193 71.04 181.98 70.4467 181.94 69.78H183.82C183.873 70.3267 184.127 70.7733 184.58 71.12C185.047 71.4667 185.653 71.64 186.4 71.64C187.093 71.64 187.64 71.4867 188.04 71.18C188.44 70.8733 188.64 70.4867 188.64 70.02C188.64 69.54 188.427 69.1867 188 68.96C187.573 68.72 186.913 68.4867 186.02 68.26C185.207 68.0467 184.54 67.8333 184.02 67.62C183.513 67.3933 183.073 67.0667 182.7 66.64C182.34 66.2 182.16 65.6267 182.16 64.92C182.16 64.36 182.327 63.8467 182.66 63.38C182.993 62.9133 183.467 62.5467 184.08 62.28C184.693 62 185.393 61.86 186.18 61.86C187.393 61.86 188.373 62.1667 189.12 62.78C189.867 63.3933 190.267 64.2333 190.32 65.3H188.5C188.46 64.7267 188.227 64.2667 187.8 63.92C187.387 63.5733 186.827 63.4 186.12 63.4C185.467 63.4 184.947 63.54 184.56 63.82C184.173 64.1 183.98 64.4667 183.98 64.92C183.98 65.28 184.093 65.58 184.32 65.82C184.56 66.0467 184.853 66.2333 185.2 66.38C185.56 66.5133 186.053 66.6667 186.68 66.84C187.467 67.0533 188.107 67.2667 188.6 67.48C189.093 67.68 189.513 67.9867 189.86 68.4C190.22 68.8133 190.407 69.3533 190.42 70.02C190.42 70.62 190.253 71.16 189.92 71.64C189.587 72.12 189.113 72.5 188.5 72.78C187.9 73.0467 187.207 73.18 186.42 73.18Z" fill="url(#paint1_linear_859_15861)"/>
</g>
<defs>
<filter id="filter0_b_859_15861" x="-76.7" y="-76.7" width="453.4" height="264.4" filterUnits="userSpaceOnUse" color-interpolation-filters="sRGB">
<feFlood flood-opacity="0" result="BackgroundImageFix"/>
<feGaussianBlur in="BackgroundImageFix" stdDeviation="38.35"/>
<feComposite in2="SourceAlpha" operator="in" result="effect1_backgroundBlur_859_15861"/>
<feBlend mode="normal" in="SourceGraphic" in2="effect1_backgroundBlur_859_15861" result="shape"/>
</filter>
<linearGradient id="paint0_linear_859_15861" x1="176.872" y1="-197.797" x2="175.301" y2="91.8069" gradientUnits="userSpaceOnUse">
<stop stop-color="white"/>
<stop offset="1" stop-color="white" stop-opacity="0"/>
</linearGradient>
<linearGradient id="paint1_linear_859_15861" x1="196.035" y1="61.7333" x2="66.1612" y2="62.2852" gradientUnits="userSpaceOnUse">
<stop stop-color="#FE5E35"/>
<stop offset="0.55" stop-color="#F67702"/>
<stop offset="1" stop-color="#FFEF76"/>
</linearGradient>
</defs>
</svg>
