<svg width="23" height="15" viewBox="0 0 23 15" fill="none" xmlns="http://www.w3.org/2000/svg">
<g opacity="0.5">
<path fill-rule="evenodd" clip-rule="evenodd" d="M19.2869 1.6285C18.073 2.03117 16.5309 2.85416 14.8074 4.01692C14.4977 4.22587 14.0772 4.14418 13.8683 3.83446C13.6593 3.52474 13.741 3.10427 14.0507 2.89532C15.8207 1.70121 17.4797 0.802519 18.8609 0.344344C19.5504 0.1156 20.2071 -0.0157857 20.7933 0.00152107C21.3843 0.0189706 21.955 0.191217 22.3811 0.62276C23.0391 1.28256 23.0973 2.25929 22.9094 3.21565C22.7164 4.19803 22.2317 5.34947 21.5382 6.58673C20.1463 9.06979 17.8308 12.0429 14.9604 14.9471C12.0864 17.8548 9.11095 20.1724 6.61705 21.5569C5.37424 22.2469 4.21606 22.7249 3.22823 22.912C2.26624 23.0942 1.28664 23.0296 0.628587 22.3715C0.195738 21.9387 0.0203164 21.3581 0.00170668 20.7537C-0.0167692 20.1536 0.11573 19.4796 0.352275 18.7693C0.82603 17.3467 1.76409 15.6411 3.04684 13.8269C3.26253 13.5219 3.68469 13.4494 3.98975 13.6651C4.29481 13.8808 4.36725 14.303 4.15155 14.608C2.90861 16.3659 2.05144 17.9491 1.63593 19.1968C1.42785 19.8216 1.34221 20.3281 1.35404 20.712C1.36572 21.0916 1.46903 21.2986 1.58528 21.4148C1.76299 21.5925 2.16242 21.7368 2.97643 21.5827C3.76461 21.4334 4.77942 21.0296 5.96034 20.374C8.3139 19.0674 11.1888 16.8383 13.9981 13.996C16.8109 11.1501 19.042 8.27284 20.358 5.92516C21.0184 4.74705 21.428 3.73803 21.5818 2.95484C21.7406 2.14654 21.5984 1.75354 21.4225 1.5776L21.4188 1.57389L21.4188 1.57388C21.3102 1.46354 21.1169 1.36463 20.7534 1.3539C20.3842 1.343 19.8948 1.42683 19.2869 1.6285Z" fill="url(#paint0_linear_8732_53801)"/>
<path fill-rule="evenodd" clip-rule="evenodd" d="M16.1463 5.31793C14.6671 4.20854 12.8374 3.66994 10.9931 3.80102C9.14876 3.93209 7.4136 4.72404 6.10617 6.03146C4.79874 7.33889 4.0068 9.07405 3.87572 10.9184C3.74465 12.7627 4.28325 14.5924 5.39264 16.0716C5.61681 16.3705 5.55623 16.7945 5.25734 17.0187C4.95845 17.2429 4.53443 17.1823 4.31026 16.8834C3.00547 15.1437 2.372 12.9917 2.52616 10.8225C2.68032 8.65328 3.61176 6.61249 5.14948 5.07477C6.68719 3.53705 8.72799 2.60561 10.8972 2.45145C13.0664 2.29729 15.2184 2.93076 16.9581 4.23556C17.257 4.45972 17.3176 4.88375 17.0934 5.18264C16.8692 5.48152 16.4452 5.5421 16.1463 5.31793ZM19.2358 8.12639C19.5894 8.00586 19.9738 8.19483 20.0943 8.54847C20.5579 9.90876 20.6903 11.36 20.4805 12.7818C20.2707 14.2035 19.7248 15.5546 18.888 16.723C18.0513 17.8914 16.9478 18.8433 15.6694 19.4997C14.3909 20.1561 12.9744 20.498 11.5373 20.4971C10.5813 20.4973 9.63118 20.3474 8.72164 20.053C8.36619 19.9379 8.17133 19.5565 8.28641 19.201C8.40148 18.8456 8.78292 18.6507 9.13837 18.7658C9.91332 19.0167 10.7229 19.1443 11.5374 19.1441H11.538C12.7599 19.1449 13.9644 18.8542 15.0514 18.2961C16.1384 17.738 17.0766 16.9287 17.7881 15.9353C18.4995 14.9419 18.9637 13.793 19.1421 12.5842C19.3204 11.3754 19.2079 10.1415 18.8137 8.98494C18.6932 8.6313 18.8821 8.24691 19.2358 8.12639ZM11.5373 20.4971C11.5373 20.4971 11.5372 20.4971 11.5372 20.4971L11.5376 19.8206L11.5378 20.4971C11.5376 20.4971 11.5375 20.4971 11.5373 20.4971Z" fill="url(#paint1_linear_8732_53801)"/>
<path fill-rule="evenodd" clip-rule="evenodd" d="M14.2399 9.74799C15.3752 9.06977 15.2706 8.34375 15.2706 8.34375C14.8464 8.97118 11.751 10.468 11.751 10.468L11.4493 11.3584C11.4498 11.3574 11.5317 11.311 11.6712 11.232C12.1606 10.9546 13.3592 10.2754 14.2399 9.74799ZM10.4961 11.3762C10.4961 11.3762 8.84088 10.447 7.70553 9.76882C6.62909 9.12126 6.67042 8.4359 6.67456 8.36721C6.67478 8.36364 6.67489 8.36173 6.67474 8.36159C7.09901 8.98901 10.1914 10.4859 10.1914 10.4859L10.4961 11.3762ZM11.4459 11.6721L13.4686 10.4471C13.4686 10.4471 15.8947 8.99211 16.074 8.42743C16.074 8.42743 16.0351 9.54186 15.1239 10.1663C14.2126 10.7907 11.8283 12.1263 11.8283 12.1263L10.9798 14.3372V14.4089L10.9649 14.3731L10.9589 14.388V14.3551L10.1104 12.1442C10.1104 12.1442 7.72314 10.8117 6.81486 10.1842C5.90657 9.5568 5.86475 8.44536 5.86475 8.44536C6.047 9.01303 8.47308 10.4681 8.47308 10.4681L10.4958 11.693L10.9679 12.8553L11.4459 11.6721ZM10.9618 9.3686L11.5683 10.486L10.9618 12.5267L10.3553 10.486L10.9618 9.3686ZM10.0734 12.4459L7.66522 11.0118C7.66522 11.0118 7.62638 12.4668 10.0734 12.4459ZM11.8527 12.4459C14.2997 12.4668 14.2608 11.0118 14.2608 11.0118L11.8527 12.4459Z" fill="url(#paint2_linear_8732_53801)"/>
</g>
<defs>
<linearGradient id="paint0_linear_8732_53801" x1="2.39914" y1="13.2969" x2="36.5491" y2="13.3423" gradientUnits="userSpaceOnUse">
<stop stop-color="#FE5E35"/>
<stop offset="0.55" stop-color="#F67702"/>
<stop offset="1" stop-color="#FFEF76"/>
</linearGradient>
<linearGradient id="paint1_linear_8732_53801" x1="4.3885" y1="12.8745" x2="31.2212" y2="12.9102" gradientUnits="userSpaceOnUse">
<stop stop-color="#FE5E35"/>
<stop offset="0.55" stop-color="#F67702"/>
<stop offset="1" stop-color="#FFEF76"/>
</linearGradient>
<linearGradient id="paint2_linear_8732_53801" x1="6.92955" y1="11.8502" x2="22.0862" y2="11.8841" gradientUnits="userSpaceOnUse">
<stop stop-color="#FE5E35"/>
<stop offset="0.55" stop-color="#F67702"/>
<stop offset="1" stop-color="#FFEF76"/>
</linearGradient>
</defs>
</svg>
