<svg width="482" height="457" viewBox="0 0 482 457" fill="none" xmlns="http://www.w3.org/2000/svg">
<path d="M0.5 409.664V41.5C0.5 30.7304 9.23045 22 20 22H63.2157C68.6527 22 73.8669 19.8402 77.7114 15.9957L87.4957 6.21142C91.1526 2.55446 96.1125 0.5 101.284 0.5H214.716C219.887 0.5 224.847 2.55446 228.504 6.21142L238.289 15.9957C242.133 19.8402 247.347 22 252.784 22H421.444C426.484 22 431.328 23.9509 434.96 27.4438L475.016 65.9587C478.839 69.6351 481 74.7106 481 80.0149V425.213C481 430.673 478.711 435.882 474.69 439.575L462.4 450.862C458.802 454.167 454.095 456 449.21 456H307.784C302.613 456 297.653 453.946 293.996 450.289L283.211 439.504C279.367 435.66 274.153 433.5 268.716 433.5H190.784C185.347 433.5 180.133 435.66 176.289 439.504L165.504 450.289C161.847 453.946 156.887 456 151.716 456H54.8137C50.5063 456 46.3202 454.574 42.9088 451.944L8.0951 425.109C3.30561 421.417 0.5 415.712 0.5 409.664Z" fill="#292D32" fill-opacity="0.4" stroke="#262C33"/>
</svg>
