<svg width="1168" height="677" viewBox="0 0 1168 677" fill="none" xmlns="http://www.w3.org/2000/svg">
<g filter="url(#filter0_b_4328_33659)">
<path d="M1103.86 12.3579L1162.14 70.6421C1165.89 74.3929 1168 79.4799 1168 84.7843V557.216C1168 562.52 1165.89 567.607 1162.14 571.358L1062.86 670.642C1059.11 674.393 1054.02 676.5 1048.72 676.5H957.284C951.98 676.5 946.893 674.393 943.142 670.642L936.858 664.358C933.107 660.607 928.02 658.5 922.716 658.5H605.5H510.36C503.863 658.5 497.771 655.345 494.023 650.038L453.164 592.187C450.78 588.812 449.5 584.781 449.5 580.649V476C449.5 464.954 440.546 456 429.5 456H350.5H196.5H139H56.2843C50.9799 456 45.8929 453.893 42.1421 450.142L5.85786 413.858C2.10714 410.107 0 405.02 0 399.716V69.7843C0 64.4799 2.10714 59.3929 5.85786 55.6421L55.6421 5.85786C59.3929 2.10714 64.4799 0 69.7843 0H193.216C198.52 0 203.607 2.10714 207.358 5.85787L226.642 25.1421C230.393 28.8929 235.48 31 240.784 31H502.216C507.52 31 512.607 28.8929 516.358 25.1421L529.142 12.3579C532.893 8.60714 537.98 6.5 543.284 6.5H1089.72C1095.02 6.5 1100.11 8.60714 1103.86 12.3579Z" fill="#292D32" fill-opacity="0.4"/>
<path d="M1103.5 12.7114L1161.79 70.9957C1165.45 74.6526 1167.5 79.6126 1167.5 84.7843V557.216C1167.5 562.387 1165.45 567.347 1161.79 571.004L1062.5 670.289C1058.85 673.946 1053.89 676 1048.72 676H957.284C952.113 676 947.153 673.946 943.496 670.289L937.211 664.004C933.367 660.16 928.153 658 922.716 658H605.5H510.36C504.026 658 498.086 654.923 494.432 649.75L453.572 591.899C451.248 588.608 450 584.678 450 580.649V476C450 464.678 440.822 455.5 429.5 455.5H350.5H196.5H139H56.2843C51.1126 455.5 46.1526 453.446 42.4957 449.789L6.21142 413.504C2.55446 409.847 0.5 404.887 0.5 399.716V69.7843C0.5 64.6125 2.55446 59.6526 6.21142 55.9957L55.9957 6.21142C59.6526 2.55446 64.6125 0.5 69.7843 0.5H193.216C198.387 0.5 203.347 2.55446 207.004 6.21142L226.289 25.4957C230.133 29.3402 235.347 31.5 240.784 31.5H502.216C507.653 31.5 512.867 29.3402 516.711 25.4957L529.496 12.7114C533.153 9.05446 538.113 7 543.284 7H1089.72C1094.89 7 1099.85 9.05446 1103.5 12.7114Z" stroke="#262C33"/>
</g>
<defs>
<filter id="filter0_b_4328_33659" x="-30" y="-30" width="1228" height="736.5" filterUnits="userSpaceOnUse" color-interpolation-filters="sRGB">
<feFlood flood-opacity="0" result="BackgroundImageFix"/>
<feGaussianBlur in="BackgroundImageFix" stdDeviation="15"/>
<feComposite in2="SourceAlpha" operator="in" result="effect1_backgroundBlur_4328_33659"/>
<feBlend mode="normal" in="SourceGraphic" in2="effect1_backgroundBlur_4328_33659" result="shape"/>
</filter>
</defs>
</svg>
