<svg width="464" height="464" viewBox="0 0 464 464" fill="none" xmlns="http://www.w3.org/2000/svg">
<circle cx="232" cy="232" r="232" fill="#E2DB03"/>
<circle cx="232" cy="232" r="225" fill="url(#paint0_linear_6049_38844)"/>
<path fill-rule="evenodd" clip-rule="evenodd" d="M90.5 281.5L124.5 199L258.5 134L335.5 143L371.5 211L226 330L90.5 281.5ZM106 277L136.5 206L202.5 219L214.5 317.5L106 277ZM261.5 143L156.5 193L213.5 204.5L308 148L261.5 143ZM218 216L327 152.5L357.5 210L231 314L218 216Z" fill="#7B7638"/>
<path d="M124.5 199L124.282 198.55L124.11 198.633L124.038 198.809L124.5 199ZM90.5 281.5L90.0377 281.309L89.838 281.794L90.3315 281.971L90.5 281.5ZM258.5 134L258.558 133.503L258.413 133.486L258.282 133.55L258.5 134ZM335.5 143L335.942 142.766L335.819 142.534L335.558 142.503L335.5 143ZM371.5 211L371.817 211.387L372.133 211.128L371.942 210.766L371.5 211ZM226 330L225.832 330.471L226.098 330.566L226.317 330.387L226 330ZM136.5 206L136.597 205.509L136.2 205.431L136.041 205.803L136.5 206ZM106 277L105.541 276.803L105.333 277.285L105.825 277.468L106 277ZM202.5 219L202.996 218.94L202.952 218.58L202.597 218.509L202.5 219ZM214.5 317.5L214.325 317.968L215.096 318.256L214.996 317.44L214.5 317.5ZM156.5 193L156.285 192.549L154.931 193.193L156.401 193.49L156.5 193ZM261.5 143L261.553 142.503L261.413 142.488L261.285 142.549L261.5 143ZM213.5 204.5L213.401 204.99L213.591 205.028L213.757 204.929L213.5 204.5ZM308 148L308.257 148.429L309.539 147.663L308.053 147.503L308 148ZM327 152.5L327.442 152.266L327.198 151.806L326.748 152.068L327 152.5ZM218 216L217.748 215.568L217.461 215.736L217.504 216.066L218 216ZM357.5 210L357.818 210.386L358.133 210.127L357.942 209.766L357.5 210ZM231 314L230.504 314.066L230.623 314.958L231.318 314.386L231 314ZM124.038 198.809L90.0377 281.309L90.9623 281.691L124.962 199.191L124.038 198.809ZM258.282 133.55L124.282 198.55L124.718 199.45L258.718 134.45L258.282 133.55ZM335.558 142.503L258.558 133.503L258.442 134.497L335.442 143.497L335.558 142.503ZM371.942 210.766L335.942 142.766L335.058 143.234L371.058 211.234L371.942 210.766ZM226.317 330.387L371.817 211.387L371.183 210.613L225.683 329.613L226.317 330.387ZM90.3315 281.971L225.832 330.471L226.168 329.529L90.6685 281.029L90.3315 281.971ZM136.041 205.803L105.541 276.803L106.459 277.197L136.959 206.197L136.041 205.803ZM202.597 218.509L136.597 205.509L136.403 206.491L202.403 219.491L202.597 218.509ZM214.996 317.44L202.996 218.94L202.004 219.06L214.004 317.56L214.996 317.44ZM105.825 277.468L214.325 317.968L214.675 317.032L106.175 276.532L105.825 277.468ZM156.715 193.451L261.715 143.451L261.285 142.549L156.285 192.549L156.715 193.451ZM213.599 204.01L156.599 192.51L156.401 193.49L213.401 204.99L213.599 204.01ZM307.743 147.571L213.243 204.071L213.757 204.929L308.257 148.429L307.743 147.571ZM261.447 143.497L307.947 148.497L308.053 147.503L261.553 142.503L261.447 143.497ZM326.748 152.068L217.748 215.568L218.252 216.432L327.252 152.932L326.748 152.068ZM357.942 209.766L327.442 152.266L326.558 152.734L357.058 210.234L357.942 209.766ZM231.318 314.386L357.818 210.386L357.182 209.614L230.682 313.614L231.318 314.386ZM217.504 216.066L230.504 314.066L231.496 313.934L218.496 215.934L217.504 216.066Z" fill="#7B7638"/>
<path d="M124.5 199L88 288.5L85 287L125.5 191L259.5 126L337 135.5L378.5 214.5L375 216.5L335 143L258.5 134L124.5 199Z" fill="#514F1F"/>
<path d="M226 330.5L91 281L88 288.5L225.5 338.5L375 216.5L372 211L226 330.5Z" fill="#C8C246"/>
<defs>
<linearGradient id="paint0_linear_6049_38844" x1="7" y1="232" x2="457" y2="232" gradientUnits="userSpaceOnUse">
<stop stop-color="#FFF618"/>
<stop offset="0.305" stop-color="#FDFFB0"/>
<stop offset="0.675" stop-color="#FFFA71"/>
<stop offset="1" stop-color="#FDFCA2"/>
</linearGradient>
</defs>
</svg>
