<svg width="1030" height="1015" viewBox="0 0 1030 1015" fill="none" xmlns="http://www.w3.org/2000/svg">
<g clip-path="url(#clip0_6841_44297)">
<path d="M556.47 593.4C557.004 593.934 557.67 601.134 558.07 609.267C558.737 623.267 558.604 624.334 556.337 624.334C554.47 624.334 553.67 623 553.004 619C551.137 608.334 542.204 599.934 535.27 602.467C533.404 603.134 530.737 605.4 529.137 607.4C526.604 610.867 526.337 613.267 525.937 635.934L525.404 660.6L536.737 660.2C546.604 659.667 548.604 659.267 551.537 656.467C554.07 654.067 555.404 653.534 556.47 654.6C558.337 656.467 557.004 660.734 552.737 665.667C549.537 669.534 549.137 669.667 537.537 669.667H525.67V704.334C525.67 730.734 526.07 740.2 527.537 743.4C529.404 748.2 536.737 755 539.804 755C540.87 755 541.67 755.933 541.67 757.133C541.67 759 540.737 759.134 536.737 758.467C533.937 758.067 527.937 757.667 523.404 757.667H515.004V687.667C515.004 641 515.537 615.4 516.47 610.734C518.337 602.334 525.27 594.734 533.27 592.6C538.47 591.134 555.004 591.667 556.47 593.4ZM510.604 603.134C507.67 609 507.67 609.534 507.27 683.267L506.87 757.667H498.47C493.804 757.667 488.07 758.067 485.804 758.467C482.604 759.134 481.67 758.867 481.67 757.267C481.67 756.067 482.737 754.867 484.07 754.467C485.404 753.934 488.204 751.934 490.337 749.8C495.137 744.734 496.204 735.134 496.204 697.134L496.337 669.267L490.204 670.067C486.87 670.334 482.204 672.067 480.07 673.667C475.004 677.4 472.204 675.534 475.137 670.2C477.804 665 485.404 660.334 491.137 660.334H496.07L496.604 637.267C497.004 611 498.337 606.734 507.404 600.2C510.337 598.067 513.004 596.467 513.137 596.734C513.404 597 512.204 599.8 510.604 603.134Z" fill="white"/>
<path d="M98.5 893.5H0.5L515 0.5L1030 894H307L356 808H882L515 173L98.5 893.5Z" fill="#54F5EF"/>
<path d="M944.5 1015H87L515 272.5L803 768H704L515 444L235 931H895L944.5 1015Z" fill="#54F5EF"/>
</g>
<defs>
<clipPath id="clip0_6841_44297">
<rect width="1029.5" height="1014.5" fill="white" transform="translate(0.5 0.5)"/>
</clipPath>
</defs>
</svg>
