<svg width="1588" height="1588" viewBox="0 0 1588 1588" fill="none" xmlns="http://www.w3.org/2000/svg">
<g filter="url(#filter0_b_2553_1563)">
<circle cx="490.869" cy="1140" r="40" fill="url(#paint0_linear_2553_1563)" fill-opacity="0.4"/>
<circle cx="490.869" cy="1140" r="39.3631" stroke="url(#paint1_linear_2553_1563)" stroke-width="1.27371"/>
</g>
<g filter="url(#filter1_b_2553_1563)">
<circle cx="490.869" cy="1140" r="30" fill="url(#paint2_linear_2553_1563)"/>
<circle cx="490.869" cy="1140" r="29.5335" stroke="url(#paint3_linear_2553_1563)" stroke-width="0.932974"/>
</g>
<g clip-path="url(#clip0_2553_1563)">
<path d="M489.162 1141.64C489.051 1141.47 489.085 1141.33 489.127 1141.19C489.254 1140.77 489.385 1140.35 489.517 1139.93C489.659 1139.48 489.8 1139.02 489.947 1138.57C490.061 1138.22 490.114 1138.18 490.464 1138.18C493.945 1138.19 497.426 1138.19 500.906 1138.19C501.098 1138.19 501.219 1138.15 501.281 1137.93C501.384 1137.56 501.531 1137.2 501.648 1136.83C501.823 1136.29 501.994 1135.74 502.159 1135.2C502.265 1134.85 502.355 1134.5 502.458 1134.15C502.502 1134 502.565 1133.86 502.607 1133.71C502.693 1133.4 502.6 1133.28 502.293 1133.28C493.459 1133.28 484.627 1133.28 475.794 1133.28C475.568 1133.28 475.342 1133.31 475.107 1133.33C475.088 1133.16 475.197 1133.09 475.289 1133.02C476.221 1132.29 477.157 1131.57 478.091 1130.84C478.78 1130.31 479.467 1129.78 480.157 1129.25C480.297 1129.14 480.45 1129.09 480.632 1129.09C488.238 1129.1 495.844 1129.1 503.45 1129.09C503.828 1129.09 504.117 1129.2 504.408 1129.43C505.17 1130.04 505.945 1130.62 506.715 1131.22C506.9 1131.36 507.088 1131.5 507.271 1131.64C507.474 1131.8 507.503 1131.97 507.415 1132.21C507.28 1132.59 507.161 1132.98 507.035 1133.36C506.87 1133.86 506.7 1134.37 506.542 1134.87C506.423 1135.25 506.321 1135.63 506.21 1136.01C506.101 1136.38 505.994 1136.74 505.877 1137.11C505.791 1137.38 505.629 1137.57 505.377 1137.7C504.749 1138.02 504.127 1138.34 503.505 1138.67C502.828 1139.02 502.153 1139.38 501.476 1139.73C501.263 1139.84 501.041 1139.93 500.828 1140.04C500.745 1140.09 500.677 1140.16 500.585 1140.24C500.649 1140.33 500.684 1140.41 500.743 1140.45C501.497 1141.04 502.253 1141.61 503.008 1142.19C503.264 1142.39 503.513 1142.6 503.78 1142.78C503.99 1142.92 504.017 1143.09 503.947 1143.31C503.763 1143.9 503.582 1144.49 503.402 1145.08C503.227 1145.64 503.055 1146.21 502.878 1146.78C502.726 1147.26 502.568 1147.75 502.413 1148.23C502.346 1148.44 502.297 1148.66 502.207 1148.85C502.154 1148.96 502.053 1149.08 501.946 1149.14C501.309 1149.48 500.664 1149.81 500.021 1150.14C499.146 1150.6 498.263 1151.03 497.395 1151.5C497.072 1151.67 496.75 1151.74 496.393 1151.74C490.195 1151.74 483.998 1151.74 477.802 1151.74C477.702 1151.74 477.6 1151.74 477.5 1151.74C477.116 1151.73 477.061 1151.63 477.184 1151.26C477.315 1150.87 477.414 1150.47 477.532 1150.07C477.615 1149.79 477.709 1149.51 477.795 1149.23C477.926 1148.81 478.051 1148.38 478.184 1147.95C478.265 1147.69 478.362 1147.44 478.44 1147.18C478.544 1146.83 478.634 1146.48 478.733 1146.13C478.801 1145.89 478.869 1145.65 478.942 1145.42C479.066 1145.01 479.194 1144.6 479.32 1144.19C479.409 1143.9 479.496 1143.61 479.587 1143.33C479.722 1142.89 479.859 1142.46 479.995 1142.02C480.127 1141.6 480.263 1141.17 480.39 1140.75C480.493 1140.4 480.583 1140.04 480.68 1139.69C480.745 1139.46 480.813 1139.23 480.884 1139C481.09 1138.33 481.294 1137.65 481.504 1136.98C481.671 1136.44 481.854 1135.91 482.018 1135.38C482.106 1135.09 482.172 1134.8 482.244 1134.5C482.313 1134.22 482.434 1134.18 482.666 1134.36C483.496 1135.01 484.328 1135.66 485.159 1136.3C485.343 1136.45 485.525 1136.59 485.707 1136.74C485.903 1136.9 485.903 1136.96 485.818 1137.21C485.7 1137.55 485.607 1137.9 485.501 1138.25C485.398 1138.59 485.289 1138.92 485.187 1139.26C485.099 1139.56 485.021 1139.86 484.929 1140.16C484.845 1140.44 484.747 1140.71 484.66 1140.99C484.537 1141.38 484.42 1141.77 484.3 1142.15C484.138 1142.68 483.971 1143.21 483.812 1143.73C483.718 1144.04 483.639 1144.35 483.548 1144.66C483.467 1144.93 483.378 1145.2 483.295 1145.46C483.158 1145.9 483.023 1146.34 482.887 1146.78C482.844 1146.92 482.784 1147.05 482.765 1147.2C482.742 1147.36 482.81 1147.42 482.968 1147.44C483.017 1147.45 483.068 1147.44 483.119 1147.44C488.089 1147.44 493.059 1147.44 498.028 1147.44C498.288 1147.44 498.4 1147.37 498.462 1147.15C498.553 1146.83 498.642 1146.5 498.74 1146.18C498.864 1145.78 498.994 1145.37 499.122 1144.97C499.36 1144.21 499.602 1143.46 499.839 1142.71C499.914 1142.47 499.977 1142.23 500.051 1141.99C500.137 1141.71 500.09 1141.64 499.792 1141.64C498.655 1141.64 497.519 1141.64 496.382 1141.64C494.087 1141.64 491.794 1141.64 489.5 1141.64C489.381 1141.64 489.261 1141.64 489.161 1141.64L489.162 1141.64Z" fill="black"/>
</g>
<g filter="url(#filter2_b_2553_1563)">
<circle cx="1199.87" cy="972.001" r="40" fill="url(#paint4_linear_2553_1563)" fill-opacity="0.4"/>
<circle cx="1199.87" cy="972.001" r="39.3631" stroke="url(#paint5_linear_2553_1563)" stroke-width="1.27371"/>
</g>
<g filter="url(#filter3_b_2553_1563)">
<circle cx="1199.87" cy="972.001" r="30" fill="url(#paint6_linear_2553_1563)"/>
<circle cx="1199.87" cy="972.001" r="29.5335" stroke="url(#paint7_linear_2553_1563)" stroke-width="0.932974"/>
</g>
<g clip-path="url(#clip1_2553_1563)">
<path d="M1199.72 956.243C1206.73 956.243 1212.66 960.892 1214.58 967.276L1190.91 971.888V972.099L1214.24 977.25C1212.02 983.107 1206.36 987.273 1199.72 987.273C1191.15 987.273 1184.21 980.327 1184.21 971.758C1184.21 963.189 1191.15 956.243 1199.72 956.243Z" fill="#EBEB02"/>
</g>
<g filter="url(#filter4_b_2553_1563)">
<circle cx="1215.87" cy="614" r="40" fill="url(#paint8_linear_2553_1563)" fill-opacity="0.4"/>
<circle cx="1215.87" cy="614" r="39.3631" stroke="url(#paint9_linear_2553_1563)" stroke-width="1.27371"/>
</g>
<g filter="url(#filter5_b_2553_1563)">
<circle cx="1215.87" cy="614" r="30" fill="url(#paint10_linear_2553_1563)"/>
<circle cx="1215.87" cy="614" r="29.5335" stroke="url(#paint11_linear_2553_1563)" stroke-width="0.932974"/>
</g>
<g clip-path="url(#clip2_2553_1563)">
<path d="M1202.52 630.889C1202.38 630.113 1202.22 629.337 1202.1 628.544C1201.99 627.652 1201.87 626.744 1201.82 625.836C1201.77 624.696 1202.37 623.887 1203.44 623.507C1203.67 623.424 1203.9 623.358 1204.15 623.276C1206.79 622.417 1209.44 621.558 1212.08 620.699C1213.75 620.154 1215.4 619.609 1217.07 619.081C1218.06 618.767 1218.27 618.916 1218.44 619.94C1218.6 621.013 1218.75 622.087 1218.91 623.16C1219.03 623.936 1218.93 624.696 1218.5 625.357C1218.19 625.852 1217.69 626.116 1217.16 626.298C1215.83 626.727 1214.47 627.157 1213.13 627.603C1210.67 628.395 1208.21 629.188 1205.77 629.997C1204.88 630.295 1203.99 630.592 1203.09 630.906C1202.9 630.889 1202.7 630.889 1202.52 630.889Z" fill="white"/>
<path d="M1224.91 598.024C1225.11 599.494 1225.32 600.964 1225.49 602.45C1225.54 602.962 1225.5 603.507 1225.39 604.002C1225.21 604.762 1224.63 605.225 1223.92 605.472C1223.21 605.736 1222.5 605.951 1221.79 606.199C1219.46 606.992 1217.13 607.784 1214.82 608.594C1213.35 609.106 1211.9 609.634 1210.43 610.146C1210.23 610.212 1210.03 610.278 1209.83 610.311C1209.37 610.377 1209.12 610.212 1209.04 609.75C1208.91 609.056 1208.82 608.362 1208.72 607.669C1208.64 607.074 1208.53 606.463 1208.46 605.869C1208.33 604.514 1208.97 603.391 1210.34 602.929C1211.55 602.516 1212.74 602.103 1213.94 601.69C1216.19 600.898 1218.47 600.154 1220.7 599.312C1222 598.817 1223.32 598.371 1224.7 598.09C1224.73 598.09 1224.74 598.057 1224.78 598.04C1224.83 598.024 1224.86 598.024 1224.91 598.024Z" fill="white"/>
<path d="M1209.65 619.378C1209.65 618.437 1209.65 617.528 1209.65 616.62C1209.67 615.58 1209.67 614.556 1209.7 613.515C1209.72 612.739 1210.13 612.21 1210.81 611.897C1211.09 611.765 1211.38 611.682 1211.68 611.583C1213.65 610.939 1215.61 610.311 1217.58 609.684C1217.68 609.651 1217.77 609.634 1217.87 609.601C1217.89 609.634 1217.91 609.651 1217.91 609.667C1217.89 611.632 1217.87 613.598 1217.87 615.547C1217.87 616.389 1217.38 616.818 1216.68 617.066C1215.73 617.413 1214.75 617.71 1213.78 618.024C1212.52 618.437 1211.27 618.85 1210 619.262C1209.9 619.295 1209.78 619.328 1209.65 619.378Z" fill="white"/>
</g>
<g filter="url(#filter6_b_2553_1563)">
<circle cx="410.869" cy="560" r="40" fill="url(#paint12_linear_2553_1563)" fill-opacity="0.4"/>
<circle cx="410.869" cy="560" r="39.3631" stroke="url(#paint13_linear_2553_1563)" stroke-width="1.27371"/>
</g>
<g filter="url(#filter7_b_2553_1563)">
<circle cx="410.869" cy="560" r="30" fill="url(#paint14_linear_2553_1563)"/>
<circle cx="410.869" cy="560" r="29.5335" stroke="url(#paint15_linear_2553_1563)" stroke-width="0.932974"/>
</g>
<g clip-path="url(#clip3_2553_1563)">
<path d="M419.172 568.826C419.15 568.805 419.129 568.784 419.107 568.764C419.101 568.758 419.087 568.753 419.088 568.749C419.105 568.661 419.029 568.581 418.992 568.564C418.899 568.52 418.953 568.39 418.851 568.372C418.847 568.295 418.744 568.272 418.752 568.18C418.755 568.145 418.708 568.082 418.671 568.07C418.603 568.048 418.62 567.995 418.599 567.955C418.576 567.909 418.54 567.87 418.509 567.828C418.489 567.8 418.47 567.773 418.45 567.746C418.41 567.693 418.37 567.639 418.329 567.586C418.323 567.578 418.304 567.571 418.305 567.567C418.328 567.476 418.247 567.424 418.207 567.378C418.138 567.301 418.126 567.185 418.046 567.133C417.986 567.094 417.996 567.046 417.974 567.002C417.952 566.957 417.908 566.923 417.875 566.884C417.859 566.865 417.832 566.845 417.831 566.824C417.825 566.742 417.747 566.71 417.715 566.648C417.705 566.629 417.684 566.615 417.678 566.596C417.657 566.515 417.6 566.461 417.541 566.407C417.537 566.403 417.529 566.4 417.529 566.396C417.514 566.292 417.449 566.223 417.37 566.162C417.36 566.154 417.364 566.129 417.359 566.111C417.35 566.076 417.36 566.041 417.301 566.021C417.257 566.006 417.219 565.933 417.206 565.879C417.188 565.801 417.115 565.769 417.088 565.703C417.083 565.691 417.062 565.685 417.06 565.674C417.037 565.581 416.974 565.517 416.907 565.455C416.898 565.446 416.897 565.428 416.894 565.414C416.876 565.335 416.816 565.285 416.764 565.231C416.755 565.221 416.747 565.208 416.743 565.195C416.72 565.109 416.643 565.058 416.605 564.986C416.559 564.898 416.498 564.825 416.445 564.745C416.397 564.672 416.405 564.667 416.356 564.612C416.331 564.584 416.33 564.536 416.311 564.5C416.291 564.461 416.27 564.402 416.24 564.395C416.18 564.382 416.195 564.339 416.176 564.309C416.14 564.252 416.093 564.201 416.05 564.148C416.045 564.142 416.036 564.138 416.032 564.132C416.001 564.066 415.987 563.965 415.938 563.943C415.848 563.904 415.874 563.811 415.812 563.757C415.772 563.722 415.698 563.669 415.697 563.579C415.696 563.533 415.632 563.49 415.597 563.445C415.584 563.429 415.565 563.414 415.56 563.396C415.539 563.314 415.49 563.254 415.422 563.207C415.412 563.2 415.409 563.183 415.403 563.17C415.371 563.108 415.342 563.044 415.307 562.984C415.3 562.972 415.27 562.972 415.252 562.966C415.245 562.862 415.187 562.791 415.107 562.734C415.1 562.729 415.091 562.719 415.092 562.714C415.119 562.623 415.034 562.574 414.995 562.528C414.93 562.452 414.915 562.341 414.84 562.289C414.777 562.246 414.783 562.195 414.759 562.145C414.737 562.099 414.685 562.068 414.646 562.03C414.637 562.021 414.626 562.009 414.624 561.997C414.608 561.906 414.552 561.845 414.482 561.792C414.474 561.786 414.469 561.773 414.468 561.762C414.458 561.667 414.389 561.615 414.324 561.559C414.318 561.554 414.31 561.546 414.31 561.539C414.307 561.433 414.239 561.373 414.16 561.318C414.153 561.313 414.153 561.297 414.152 561.285C414.143 561.195 414.081 561.143 414.017 561.092C414.011 561.087 414.002 561.079 414.002 561.073C413.994 560.969 413.924 560.907 413.852 560.845C413.848 560.842 413.846 560.835 413.845 560.83C413.833 560.732 413.766 560.672 413.698 560.612C413.688 560.604 413.687 560.586 413.684 560.572C413.666 560.49 413.6 560.443 413.551 560.383C413.524 560.35 413.521 560.299 413.511 560.268C413.461 560.219 413.385 560.178 413.384 560.135C413.381 560.047 413.321 559.984 413.279 559.953C413.209 559.9 413.237 559.795 413.143 559.761C413.104 559.747 413.085 559.675 413.06 559.628C413.04 559.592 413.037 559.557 412.991 559.525C412.932 559.483 412.91 559.39 412.861 559.321C412.843 559.288 412.832 559.235 412.804 559.224C412.734 559.196 412.743 559.14 412.735 559.087C412.725 559.014 412.702 558.936 412.8 558.899C412.808 558.896 412.81 558.873 412.811 558.859C412.82 558.771 412.888 558.723 412.944 558.668C412.95 558.662 412.962 558.654 412.961 558.65C412.94 558.561 413.042 558.53 413.052 558.456C413.158 558.444 413.096 558.305 413.194 558.27C413.239 558.255 413.256 558.165 413.289 558.11C413.333 558.038 413.394 557.972 413.424 557.894C413.45 557.825 413.533 557.796 413.533 557.706C413.534 557.664 413.589 557.622 413.619 557.58C413.638 557.552 413.658 557.525 413.677 557.497C413.711 557.444 413.744 557.392 413.779 557.34C413.794 557.317 413.816 557.298 413.828 557.273C413.845 557.239 413.828 557.195 413.894 557.179C413.93 557.17 413.954 557.099 413.979 557.053C414 557.015 413.976 556.946 414.054 556.948C414.057 556.948 414.063 556.933 414.064 556.925C414.066 556.825 414.134 556.768 414.206 556.713C414.212 556.709 414.215 556.699 414.219 556.692C414.248 556.626 414.26 556.536 414.31 556.502C414.373 556.46 414.362 556.401 414.393 556.36C414.42 556.323 414.451 556.27 414.481 556.254C414.533 556.226 414.521 556.184 414.54 556.15C414.57 556.098 414.609 556.053 414.645 556.005C414.649 555.999 414.663 555.998 414.666 555.992C414.705 555.918 414.737 555.84 414.78 555.769C414.812 555.716 414.857 555.671 414.897 555.622C414.903 555.614 414.923 555.607 414.922 555.603C414.899 555.514 414.975 555.458 415.015 555.415C415.064 555.362 415.087 555.316 415.092 555.245H415.225C415.236 555.353 415.293 555.427 415.375 555.485C415.381 555.489 415.384 555.5 415.385 555.509C415.402 555.601 415.461 555.664 415.533 555.718C415.539 555.723 415.543 555.733 415.544 555.741C415.555 555.838 415.617 555.899 415.692 555.951C415.7 555.956 415.701 555.971 415.704 555.982C415.715 556.029 415.708 556.072 415.774 556.104C415.822 556.126 415.838 556.214 415.872 556.269C415.903 556.319 415.94 556.365 415.974 556.413C415.989 556.433 416.014 556.449 416.019 556.471C416.042 556.549 416.092 556.603 416.154 556.65C416.163 556.656 416.173 556.666 416.174 556.675C416.184 556.774 416.243 556.839 416.321 556.893C416.333 556.902 416.326 556.935 416.337 556.95C416.378 557.007 416.421 557.062 416.464 557.117C416.471 557.125 416.485 557.132 416.486 557.141C416.499 557.241 416.555 557.309 416.639 557.36C416.646 557.364 416.645 557.382 416.646 557.393C416.654 557.484 416.725 557.531 416.781 557.589C416.805 557.613 416.805 557.658 416.82 557.691C416.825 557.703 416.843 557.709 416.857 557.72C416.909 557.796 416.968 557.879 417.024 557.965C417.061 558.022 417.089 558.085 417.13 558.138C417.17 558.189 417.189 558.253 417.25 558.291C417.288 558.315 417.327 558.362 417.334 558.404C417.355 558.539 417.504 558.594 417.523 558.732C417.528 558.773 417.591 558.807 417.627 558.844C417.635 558.852 417.65 558.859 417.651 558.868C417.665 558.97 417.732 559.034 417.807 559.095C417.819 559.105 417.819 559.133 417.822 559.153C417.827 559.187 417.825 559.213 417.874 559.228C417.914 559.24 417.96 559.293 417.967 559.335C417.984 559.437 418.045 559.5 418.119 559.558C418.126 559.564 418.126 559.58 418.128 559.592C418.14 559.678 418.205 559.726 418.262 559.78C418.27 559.788 418.279 559.798 418.28 559.808C418.294 559.905 418.355 559.967 418.429 560.021C418.435 560.025 418.438 560.036 418.439 560.044C418.453 560.138 418.51 560.202 418.585 560.254C418.591 560.258 418.596 560.268 418.597 560.276C418.605 560.376 418.67 560.436 418.746 560.489C418.752 560.493 418.755 560.504 418.755 560.513C418.761 560.612 418.826 560.669 418.9 560.721C418.906 560.726 418.91 560.736 418.911 560.744C418.918 560.842 418.982 560.901 419.055 560.955C419.064 560.962 419.067 560.98 419.07 560.994C419.085 561.081 419.134 561.142 419.209 561.186C419.216 561.189 419.225 561.2 419.224 561.205C419.204 561.294 419.28 561.349 419.321 561.395C419.388 561.469 419.403 561.574 419.475 561.632C419.555 561.697 419.561 561.805 419.631 561.863C419.711 561.929 419.719 562.036 419.787 562.098C419.862 562.167 419.878 562.277 419.947 562.332C420.006 562.379 420.011 562.431 420.034 562.494C420.045 562.479 420.053 562.469 420.065 562.453C420.079 562.498 420.091 562.538 420.104 562.579C420.109 562.576 420.114 562.573 420.119 562.569C420.135 562.596 420.147 562.628 420.17 562.647C420.231 562.696 420.23 562.788 420.305 562.83C420.342 562.851 420.377 562.899 420.384 562.94C420.407 563.073 420.555 563.13 420.572 563.268C420.577 563.308 420.634 563.341 420.665 563.378C420.684 563.4 420.698 563.425 420.714 563.449C420.75 563.503 420.786 563.557 420.822 563.611C420.838 563.634 420.857 563.655 420.872 563.679C420.906 563.734 420.938 563.79 420.973 563.844C420.988 563.868 421.011 563.886 421.027 563.91C421.062 563.965 421.093 564.022 421.128 564.077C421.145 564.104 421.168 564.126 421.185 564.151C421.221 564.205 421.254 564.26 421.29 564.314C421.304 564.335 421.329 564.352 421.336 564.374C421.358 564.452 421.416 564.499 421.47 564.552C421.477 564.56 421.489 564.568 421.49 564.577C421.501 564.677 421.567 564.738 421.643 564.794C421.648 564.798 421.65 564.809 421.65 564.818C421.654 564.915 421.724 564.966 421.789 565.022C421.799 565.03 421.807 565.045 421.808 565.058C421.817 565.152 421.882 565.206 421.95 565.257C421.958 565.263 421.964 565.276 421.965 565.286C421.973 565.383 422.033 565.443 422.11 565.492C422.117 565.497 422.12 565.513 422.121 565.523C422.131 565.618 422.196 565.672 422.263 565.725C422.271 565.732 422.276 565.745 422.277 565.756C422.289 565.849 422.351 565.907 422.421 565.96C422.428 565.966 422.432 565.98 422.434 565.991C422.445 566.086 422.508 566.142 422.579 566.194C422.587 566.199 422.591 566.213 422.593 566.223C422.606 566.317 422.658 566.383 422.737 566.431C422.743 566.435 422.748 566.445 422.749 566.453C422.757 566.551 422.816 566.613 422.892 566.664C422.9 566.669 422.9 566.685 422.905 566.695C422.941 566.77 422.964 566.854 423.049 566.894C423.053 566.896 423.057 566.902 423.059 566.907C423.089 566.971 423.103 567.071 423.151 567.091C423.223 567.121 423.192 567.223 423.275 567.225C423.278 567.225 423.285 567.234 423.284 567.238C423.269 567.325 423.348 567.399 423.384 567.417C423.472 567.461 423.427 567.576 423.525 567.614C423.572 567.632 423.581 567.738 423.619 567.797C423.645 567.837 423.695 567.857 423.712 567.912C423.726 567.958 423.765 567.996 423.789 568.031C423.837 568.097 423.883 568.157 423.925 568.219C423.961 568.273 423.992 568.329 424.027 568.384C424.043 568.408 424.065 568.427 424.08 568.451C424.115 568.505 424.148 568.561 424.183 568.616C424.201 568.644 424.227 568.668 424.239 568.697C424.252 568.727 424.238 568.771 424.295 568.77C424.301 568.77 424.315 568.802 424.314 568.818C424.313 568.829 424.292 568.844 424.279 568.847C424.253 568.852 424.226 568.85 424.199 568.85C422.563 568.85 420.927 568.85 419.291 568.85H419.167C419.168 568.842 419.169 568.834 419.17 568.826L419.172 568.826Z" fill="white"/>
<path d="M402.957 568.325C402.984 568.336 402.992 568.339 403 568.343C402.97 568.38 402.939 568.417 402.908 568.454C402.903 568.459 402.856 568.561 402.85 568.573C402.831 568.61 402.814 568.671 402.787 568.677C402.699 568.697 402.732 568.775 402.696 568.824C402.689 568.813 402.682 568.802 402.685 568.806C402.643 568.822 402.606 568.849 402.569 568.849C400.921 568.851 399.273 568.851 397.625 568.849C397.582 568.849 397.538 568.828 397.48 568.814C397.533 568.765 397.585 568.729 397.62 568.681C397.661 568.625 397.682 568.556 397.718 568.497C397.748 568.449 397.787 568.408 397.821 568.363C397.832 568.35 397.835 568.331 397.845 568.318C397.895 568.254 397.947 568.19 397.998 568.126C398.003 568.119 398.012 568.113 398.013 568.105C398.022 568.004 398.094 567.947 398.163 567.887C398.168 567.884 398.172 567.878 398.172 567.872C398.181 567.772 398.248 567.712 398.318 567.651C398.335 567.636 398.333 567.601 398.345 567.577C398.356 567.556 398.374 567.538 398.389 567.519C398.392 567.516 398.404 567.519 398.406 567.516C398.436 567.464 398.461 567.409 398.494 567.36C398.532 567.302 398.576 567.248 398.618 567.193C398.624 567.185 398.643 567.177 398.642 567.173C398.62 567.083 398.73 567.057 398.735 566.98C398.838 566.967 398.78 566.831 398.88 566.796C398.925 566.781 398.938 566.679 398.972 566.62C398.998 566.575 399.035 566.538 399.066 566.497C399.086 566.47 399.105 566.443 399.125 566.417C399.164 566.364 399.204 566.312 399.244 566.259C399.253 566.249 399.272 566.242 399.272 566.232C399.282 566.133 399.345 566.07 399.42 566.015C399.427 566.01 399.428 565.994 399.43 565.983C399.445 565.895 399.504 565.839 399.57 565.787C399.579 565.779 399.585 565.763 399.586 565.749C399.597 565.658 399.666 565.609 399.727 565.555C399.734 565.55 399.742 565.543 399.743 565.536C399.751 565.434 399.815 565.371 399.891 565.316C399.897 565.312 399.901 565.301 399.901 565.293C399.903 565.192 399.975 565.14 400.043 565.086C400.051 565.079 400.058 565.067 400.058 565.056C400.062 564.957 400.135 564.906 400.2 564.849C400.209 564.84 400.21 564.822 400.214 564.809C400.235 564.727 400.282 564.663 400.353 564.618C400.356 564.617 400.398 564.504 400.403 564.498C400.428 564.461 400.453 564.425 400.48 564.39C400.495 564.37 400.509 564.345 400.529 564.336C400.613 564.299 400.586 564.191 400.667 564.143C400.717 564.113 400.735 564.031 400.769 563.974C400.782 563.953 400.801 563.937 400.817 563.919C400.845 563.885 400.891 563.853 400.898 563.815C400.911 563.736 400.955 563.658 401.005 563.633C401.095 563.589 401.047 563.478 401.14 563.436C401.19 563.413 401.205 563.318 401.241 563.26C401.269 563.213 401.305 563.172 401.337 563.128C401.355 563.105 401.372 563.082 401.389 563.059C401.431 563.003 401.472 562.948 401.514 562.892C401.521 562.882 401.536 562.872 401.537 562.861C401.549 562.765 401.613 562.707 401.685 562.654C401.691 562.649 401.696 562.639 401.697 562.632C401.704 562.531 401.765 562.469 401.845 562.418C401.85 562.415 401.853 562.403 401.854 562.395C401.858 562.295 401.929 562.242 401.997 562.186C402.007 562.178 402.011 562.161 402.012 562.148C402.022 562.057 402.084 562.003 402.152 561.954C402.16 561.948 402.169 561.936 402.169 561.926C402.18 561.829 402.24 561.769 402.314 561.715C402.321 561.709 402.323 561.694 402.325 561.683C402.338 561.594 402.403 561.541 402.465 561.487C402.471 561.482 402.476 561.474 402.48 561.467C402.511 561.402 402.526 561.323 402.574 561.276C402.646 561.205 402.666 561.101 402.733 561.039C402.808 560.971 402.819 560.868 402.887 560.809C402.966 560.74 402.977 560.629 403.048 560.568C403.124 560.503 403.141 560.408 403.2 560.343C403.232 560.308 403.265 560.274 403.29 560.233C403.304 560.208 403.332 560.189 403.34 560.163C403.375 560.051 403.503 559.998 403.519 559.869C403.524 559.828 403.593 559.795 403.632 559.758C403.638 559.753 403.647 559.746 403.647 559.74C403.657 559.636 403.728 559.574 403.799 559.511C403.815 559.496 403.81 559.46 403.821 559.436C403.83 559.417 403.847 559.4 403.862 559.384C403.894 559.35 403.95 559.32 403.953 559.285C403.96 559.203 404.001 559.133 404.056 559.102C404.138 559.055 404.102 558.946 404.188 558.908C404.224 558.891 404.26 558.844 404.269 558.805C404.294 558.707 404.347 558.636 404.426 558.58C404.433 558.575 404.431 558.558 404.434 558.546C404.453 558.461 404.508 558.403 404.576 558.353C404.583 558.349 404.592 558.339 404.591 558.335C404.565 558.243 404.65 558.189 404.69 558.147C404.759 558.075 404.764 557.968 404.84 557.912C404.925 557.849 404.927 557.73 405.002 557.676C405.059 557.635 405.059 557.59 405.08 557.541C405.101 557.495 405.151 557.462 405.189 557.423C405.2 557.412 405.216 557.404 405.222 557.391C405.253 557.329 405.264 557.247 405.312 557.208C405.392 557.143 405.397 557.033 405.47 556.974C405.55 556.909 405.557 556.8 405.627 556.739C405.704 556.671 405.733 556.58 405.782 556.499C405.791 556.484 405.823 556.483 405.845 556.475C405.849 556.37 405.909 556.302 405.991 556.247C405.999 556.242 406.006 556.228 406.007 556.219C406.011 556.118 406.087 556.071 406.147 556.006C406.197 555.953 406.216 555.871 406.249 555.802C406.25 555.799 406.251 555.796 406.269 555.806C406.313 555.742 406.357 555.679 406.401 555.615C406.437 555.562 406.473 555.508 406.51 555.456C406.517 555.446 406.535 555.441 406.541 555.43C406.574 555.37 406.603 555.308 406.64 555.25C406.646 555.241 406.694 555.248 406.713 555.261C406.737 555.278 406.751 555.31 406.767 555.337C406.817 555.415 406.867 555.494 406.941 555.61C406.941 555.663 407.003 555.73 407.08 555.789C407.086 555.794 407.095 555.802 407.095 555.809C407.102 555.913 407.178 555.971 407.242 556.04C407.266 556.066 407.262 556.118 407.287 556.149C407.305 556.178 407.318 556.226 407.341 556.232C407.441 556.257 407.378 556.399 407.482 556.419C407.488 556.42 407.487 556.451 407.493 556.467C407.519 556.542 407.564 556.603 407.628 556.649C407.638 556.656 407.647 556.671 407.648 556.683C407.653 556.781 407.723 556.832 407.789 556.888C407.798 556.897 407.799 556.914 407.803 556.927C407.816 556.97 407.799 557.025 407.873 557.041C407.889 557.044 407.95 557.129 407.949 557.145C407.938 557.24 408.018 557.308 408.057 557.335C408.13 557.384 408.096 557.485 408.186 557.521C408.232 557.538 408.239 557.637 408.283 557.679C408.35 557.743 408.341 557.844 408.423 557.904C408.474 557.942 408.486 558.032 408.522 558.095C408.548 558.139 408.586 558.175 408.618 558.215C408.634 558.235 408.651 558.255 408.662 558.278C408.68 558.312 408.662 558.364 408.731 558.371C408.756 558.374 408.778 558.432 408.797 558.467C408.836 558.536 408.867 558.609 408.908 558.675C408.944 558.732 408.99 558.783 409.03 558.837C409.041 558.852 409.049 558.87 409.056 558.887C409.073 558.924 409.052 558.984 409.124 558.994C409.132 558.995 409.144 559.078 409.13 559.114C409.113 559.158 409.071 559.191 409.04 559.229C409.021 559.252 408.993 559.274 408.986 559.3C408.968 559.375 408.904 559.412 408.863 559.467C408.857 559.476 408.837 559.482 408.838 559.487C408.856 559.575 408.755 559.606 408.745 559.68C408.639 559.69 408.7 559.826 408.604 559.862C408.557 559.88 408.54 559.978 408.509 560.04C408.503 560.052 408.499 560.067 408.49 560.075C408.43 560.131 408.37 560.182 408.349 560.271C408.337 560.32 408.289 560.36 408.257 560.404C408.239 560.43 408.218 560.454 408.2 560.479C408.163 560.534 408.127 560.59 408.089 560.644C408.082 560.655 408.062 560.66 408.06 560.671C408.041 560.766 407.976 560.828 407.908 560.889C407.895 560.9 407.895 560.927 407.889 560.946C407.88 560.98 407.89 561.016 407.832 561.028C407.798 561.034 407.751 561.091 407.752 561.125C407.753 561.214 407.689 561.284 407.646 561.314C407.571 561.364 407.611 561.477 407.511 561.502C407.478 561.51 407.445 561.569 407.435 561.61C407.413 561.709 407.334 561.766 407.284 561.844C407.233 561.923 407.194 562.01 407.15 562.094C407.145 562.087 407.137 562.077 407.134 562.073C407.087 562.157 407.04 562.242 406.991 562.33C406.985 562.322 406.977 562.31 406.969 562.298C406.936 562.343 406.98 562.437 406.88 562.441C406.877 562.441 406.873 562.462 406.872 562.473C406.862 562.565 406.799 562.618 406.734 562.67C406.724 562.679 406.717 562.694 406.716 562.707C406.709 562.802 406.639 562.851 406.577 562.907C406.571 562.913 406.564 562.921 406.563 562.928C406.55 563.026 406.493 563.093 406.414 563.145C406.407 563.15 406.406 563.166 406.404 563.177C406.389 563.266 406.336 563.327 406.263 563.375C406.257 563.379 406.247 563.389 406.249 563.394C406.279 563.487 406.191 563.537 406.151 563.583C406.086 563.658 406.074 563.767 406 563.821C405.915 563.884 405.92 564 405.845 564.054C405.757 564.117 405.765 564.235 405.689 564.293C405.606 564.355 405.604 564.464 405.533 564.524C405.454 564.591 405.447 564.708 405.372 564.76C405.31 564.804 405.317 564.855 405.293 564.904C405.271 564.95 405.218 564.98 405.178 565.017C405.172 565.022 405.158 565.029 405.159 565.032C405.176 565.119 405.078 565.153 405.068 565.226C404.962 565.24 405.029 565.393 404.923 565.407C404.92 565.485 404.82 565.508 404.823 565.598C404.824 565.637 404.765 565.679 404.734 565.72C404.715 565.744 404.697 565.768 404.68 565.792C404.639 565.847 404.598 565.903 404.557 565.957C404.55 565.966 404.531 565.974 404.533 565.978C404.556 566.069 404.476 566.124 404.435 566.166C404.352 566.249 404.348 566.387 404.23 566.44C404.221 566.444 404.22 566.466 404.217 566.48C404.194 566.559 404.145 566.618 404.08 566.666C404.075 566.67 404.068 566.674 404.068 566.678C404.058 566.784 403.994 566.852 403.912 566.909C403.907 566.913 403.906 566.926 403.906 566.934C403.9 567.03 403.827 567.081 403.766 567.139C403.76 567.145 403.751 567.152 403.75 567.159C403.74 567.261 403.674 567.324 403.599 567.381C403.592 567.387 403.594 567.404 403.592 567.415C403.579 567.5 403.522 567.555 403.46 567.606C403.454 567.611 403.446 567.618 403.444 567.625C403.427 567.723 403.362 567.788 403.293 567.852C403.286 567.859 403.286 567.874 403.283 567.885C403.267 567.97 403.201 568.021 403.149 568.081C403.137 568.096 403.131 568.116 403.121 568.132C403.086 568.191 403.052 568.25 403.015 568.307C403.009 568.316 402.988 568.316 402.958 568.325L402.957 568.325Z" fill="white"/>
<path d="M415.347 568.51C415.365 568.542 415.38 568.575 415.4 568.605C415.44 568.663 415.487 568.716 415.523 568.776C415.543 568.81 415.552 568.854 415.556 568.895C415.557 568.903 415.512 568.917 415.487 568.925C415.473 568.929 415.457 568.926 415.442 568.926C412.436 568.926 409.43 568.926 406.424 568.926C406.377 568.926 406.329 568.924 406.283 568.919C406.27 568.917 406.254 568.901 406.249 568.889C406.246 568.879 406.258 568.853 406.264 568.853C406.321 568.853 406.308 568.806 406.325 568.776C406.361 568.714 406.41 568.661 406.452 568.603C406.462 568.59 406.467 568.574 406.472 568.559C406.486 568.517 406.461 568.452 406.54 568.449C406.545 568.449 406.552 568.424 406.554 568.411C406.569 568.323 406.628 568.267 406.69 568.211C406.703 568.2 406.702 568.175 406.709 568.156C406.722 568.119 406.699 568.059 406.772 568.062C406.776 568.062 406.783 568.056 406.785 568.052C406.814 567.989 406.842 567.926 406.871 567.864C406.878 567.85 406.889 567.838 406.901 567.829C406.912 567.821 406.937 567.816 406.937 567.813C406.925 567.728 406.983 567.668 407.03 567.623C407.088 567.566 407.066 567.458 407.162 567.434C407.169 567.432 407.178 567.422 407.178 567.415C407.176 567.305 407.286 567.252 407.312 567.17C407.34 567.082 407.433 567.033 407.43 566.928C407.428 566.888 407.489 566.846 407.521 566.805C407.539 566.781 407.557 566.757 407.572 566.731C407.591 566.7 407.607 566.667 407.635 566.64C407.644 566.539 407.707 566.472 407.781 566.41C407.791 566.402 407.796 566.387 407.801 566.375C407.816 566.33 407.794 566.263 407.873 566.257C407.877 566.257 407.883 566.243 407.883 566.235C407.892 566.137 407.952 566.072 408.023 566.013C408.037 566.001 408.033 565.968 408.044 565.948C408.058 565.922 408.078 565.9 408.096 565.875C408.104 565.865 408.115 565.855 408.12 565.843C408.149 565.78 408.16 565.696 408.208 565.657C408.263 565.612 408.261 565.553 408.292 565.512C408.32 565.475 408.353 565.442 408.372 565.397C408.389 565.357 408.413 565.32 408.434 565.282C408.441 565.27 408.449 565.248 408.455 565.248C408.516 565.251 408.502 565.202 408.515 565.17C408.527 565.143 408.55 565.119 408.568 565.095C408.573 565.088 408.583 565.084 408.585 565.077C408.597 565.038 408.6 565.009 408.647 564.975C408.705 564.934 408.716 564.829 408.755 564.756C408.783 564.704 408.823 564.659 408.858 564.611C408.869 564.597 408.882 564.584 408.891 564.569C408.915 564.53 408.887 564.455 408.969 564.453C408.973 564.453 408.977 564.427 408.979 564.413C408.991 564.327 409.05 564.274 409.112 564.222C409.116 564.219 409.124 564.214 409.124 564.211C409.105 564.112 409.203 564.067 409.229 563.987C409.248 563.929 409.303 563.882 409.342 563.83C409.345 563.826 409.356 563.823 409.356 563.821C409.345 563.733 409.421 563.686 409.453 563.619C409.484 563.554 409.537 563.5 409.578 563.44C409.587 563.427 409.594 563.412 409.6 563.397C409.615 563.354 409.597 563.291 409.672 563.286C409.676 563.286 409.682 563.266 409.683 563.256C409.689 563.16 409.756 563.105 409.821 563.049C409.825 563.045 409.829 563.04 409.831 563.035C409.864 562.962 409.89 562.885 409.93 562.816C409.963 562.76 410.012 562.712 410.054 562.661C410.059 562.654 410.07 562.649 410.07 562.642C410.072 562.537 410.182 562.482 410.2 562.405C410.224 562.305 410.339 562.262 410.325 562.148C410.322 562.121 410.389 562.058 410.398 562.056C410.491 562.026 410.431 561.888 410.533 561.872C410.538 561.872 410.541 561.847 410.543 561.832C410.555 561.745 410.619 561.692 410.675 561.634C410.679 561.63 410.689 561.626 410.688 561.624C410.676 561.531 410.776 561.489 410.788 561.406C410.791 561.384 410.816 561.365 410.83 561.344C410.846 561.319 410.859 561.293 410.883 561.25C410.909 561.264 410.94 561.281 410.973 561.3C410.971 561.303 410.978 561.291 410.989 561.274C411 561.305 411.005 561.333 411.018 561.358C411.029 561.38 411.045 561.399 411.061 561.418C411.068 561.426 411.086 561.431 411.086 561.438C411.087 561.547 411.171 561.607 411.23 561.682C411.243 561.7 411.242 561.728 411.252 561.749C411.263 561.771 411.28 561.791 411.295 561.811C411.302 561.819 411.317 561.822 411.321 561.83C411.352 561.896 411.378 561.963 411.413 562.026C411.441 562.077 411.478 562.122 411.509 562.175C411.528 562.207 411.546 562.241 411.567 562.272C411.606 562.33 411.649 562.384 411.687 562.443C411.703 562.467 411.708 562.499 411.721 562.526C411.734 562.553 411.751 562.578 411.779 562.599C411.791 562.705 411.857 562.773 411.933 562.838C411.947 562.85 411.947 562.88 411.954 562.903C411.964 562.935 411.947 562.986 412.011 562.981C412.017 562.981 412.03 562.997 412.03 563.006C412.035 563.11 412.1 563.173 412.175 563.232C412.184 563.238 412.18 563.26 412.186 563.273C412.2 563.311 412.173 563.375 412.251 563.373C412.256 563.373 412.264 563.397 412.266 563.41C412.279 563.501 412.34 563.557 412.403 563.613C412.409 563.619 412.417 563.627 412.417 563.633C412.411 563.747 412.513 563.8 412.558 563.885C412.571 563.91 412.57 563.943 412.585 563.967C412.599 563.988 412.626 564 412.652 564.02C412.664 564.069 412.655 564.126 412.728 564.169C412.777 564.198 412.788 564.291 412.818 564.355C412.825 564.368 412.838 564.379 412.85 564.389C412.861 564.397 412.886 564.404 412.885 564.406C412.864 564.494 412.935 564.564 412.977 564.593C413.055 564.644 413.013 564.765 413.115 564.786C413.12 564.787 413.126 564.8 413.126 564.808C413.127 564.911 413.198 564.97 413.263 565.034C413.278 565.049 413.276 565.08 413.287 565.1C413.301 565.126 413.321 565.148 413.339 565.173C413.345 565.181 413.359 565.189 413.359 565.197C413.365 565.3 413.424 565.367 413.502 565.424C413.517 565.435 413.512 565.469 413.522 565.49C413.536 565.516 413.556 565.539 413.573 565.563C413.579 565.572 413.593 565.579 413.594 565.587C413.599 565.69 413.669 565.749 413.738 565.811C413.749 565.821 413.746 565.844 413.752 565.86C413.765 565.896 413.74 565.957 413.814 565.955C413.819 565.955 413.828 565.972 413.83 565.983C413.843 566.079 413.902 566.144 413.974 566.203C413.988 566.214 413.982 566.249 413.992 566.269C414.005 566.295 414.025 566.318 414.043 566.342C414.049 566.35 414.062 566.355 414.066 566.365C414.095 566.43 414.107 566.534 414.154 566.553C414.251 566.593 414.197 566.71 414.292 566.75C414.34 566.77 414.353 566.87 414.383 566.932C414.391 566.948 414.407 566.959 414.421 566.971C414.431 566.98 414.454 566.989 414.453 566.994C414.431 567.083 414.534 567.115 414.539 567.19C414.646 567.204 414.572 567.363 414.685 567.373C414.688 567.373 414.692 567.388 414.692 567.396C414.693 567.496 414.763 567.552 414.828 567.611C414.837 567.619 414.835 567.639 414.842 567.651C414.862 567.69 414.836 567.76 414.915 567.761C414.919 567.761 414.925 567.78 414.926 567.791C414.933 567.886 415 567.941 415.062 568.001C415.074 568.011 415.074 568.032 415.081 568.048C415.096 568.086 415.072 568.151 415.149 568.147C415.151 568.147 415.154 568.15 415.155 568.153C415.164 568.266 415.243 568.336 415.31 568.416C415.33 568.439 415.323 568.484 415.328 568.519C415.335 568.516 415.341 568.513 415.348 568.51H415.347Z" fill="white"/>
<path d="M409.754 551.288C409.736 551.28 409.726 551.275 409.712 551.269C409.729 551.261 409.752 551.258 409.755 551.247C409.784 551.17 409.841 551.118 409.904 551.07C409.911 551.064 409.912 551.049 409.913 551.037C409.928 550.95 409.986 550.895 410.055 550.847C410.063 550.841 410.073 550.83 410.074 550.821C410.083 550.721 410.153 550.669 410.221 550.607C410.267 550.565 410.282 550.49 410.319 550.435C410.349 550.388 410.39 550.348 410.426 550.305C410.44 550.287 410.461 550.27 410.465 550.25C410.482 550.168 410.543 550.122 410.599 550.069C410.634 550.035 410.691 549.992 410.689 549.956C410.682 549.868 410.754 549.801 410.788 549.782C410.867 549.74 410.845 549.652 410.896 549.607C410.957 549.668 411.012 549.723 411.066 549.777C411.072 549.783 411.079 549.79 411.08 549.798C411.092 549.896 411.162 549.952 411.232 550.008C411.238 550.013 411.243 550.023 411.243 550.031C411.25 550.13 411.316 550.186 411.39 550.236C411.398 550.242 411.4 550.256 411.405 550.265C411.442 550.341 411.481 550.412 411.543 550.476C411.582 550.518 411.65 550.565 411.654 550.651C411.655 550.695 411.72 550.736 411.755 550.78C411.77 550.797 411.788 550.814 411.795 550.834C411.811 550.886 411.884 550.973 411.932 551.014C411.969 551.045 412.019 551.091 412.018 551.129C412.016 551.216 412.083 551.266 412.123 551.306C412.192 551.375 412.205 551.473 412.273 551.534C412.347 551.602 412.405 551.674 412.437 551.774C412.452 551.819 412.515 551.848 412.556 551.884C412.564 551.892 412.572 551.903 412.573 551.913C412.588 552.007 412.647 552.066 412.722 552.118C412.748 552.136 412.755 552.18 412.773 552.219C412.778 552.215 412.768 552.223 412.764 552.226C412.808 552.282 412.839 552.357 412.895 552.386C412.979 552.43 412.945 552.535 413.03 552.579C413.079 552.604 413.097 552.687 413.135 552.74C413.172 552.792 413.215 552.84 413.257 552.889C413.287 552.925 413.343 552.958 413.345 552.995C413.35 553.075 413.399 553.152 413.444 553.17C413.541 553.209 413.49 553.328 413.576 553.361C413.584 553.365 413.579 553.405 413.58 553.428C413.529 553.428 413.528 553.495 413.517 553.498C413.422 553.523 413.473 553.649 413.38 553.681C413.34 553.695 413.323 553.771 413.295 553.819C413.275 553.852 413.296 553.916 413.225 553.91C413.22 553.91 413.215 553.94 413.208 553.954C413.178 554.014 413.149 554.075 413.115 554.133C413.107 554.145 413.078 554.144 413.058 554.149C413.053 554.254 412.996 554.324 412.915 554.379C412.908 554.383 412.901 554.392 412.901 554.4C412.893 554.5 412.835 554.567 412.755 554.619C412.751 554.622 412.747 554.628 412.747 554.633C412.74 554.737 412.68 554.805 412.596 554.857C412.591 554.861 412.588 554.873 412.588 554.881C412.583 554.981 412.515 555.038 412.445 555.093C412.439 555.097 412.433 555.107 412.433 555.114C412.427 555.212 412.359 555.269 412.293 555.328C412.287 555.333 412.284 555.343 412.282 555.351C412.267 555.447 412.207 555.511 412.132 555.565C412.126 555.569 412.125 555.581 412.124 555.59C412.111 555.685 412.042 555.743 411.981 555.807C411.967 555.823 411.962 555.849 411.957 555.871C411.949 555.904 411.958 555.946 411.901 555.94C411.895 555.94 411.884 555.955 411.88 555.964C411.851 556.028 411.84 556.114 411.791 556.152C411.706 556.217 411.704 556.327 411.636 556.391C411.561 556.461 411.542 556.57 411.472 556.628C411.421 556.671 411.423 556.716 411.398 556.758C411.369 556.806 411.321 556.842 411.281 556.884C411.272 556.893 411.262 556.903 411.256 556.914C411.227 556.977 411.211 557.081 411.167 557.094C411.063 557.125 411.133 557.263 411.024 557.283C410.991 557.288 410.973 557.364 410.942 557.402C410.929 557.418 410.9 557.422 410.88 557.43C410.836 557.35 410.797 557.28 410.758 557.21C410.757 557.21 410.756 557.21 410.755 557.21C410.738 557.185 410.727 557.145 410.703 557.136C410.613 557.102 410.661 556.97 410.561 556.947C410.555 556.945 410.551 556.927 410.55 556.916C410.537 556.825 410.477 556.768 410.411 556.714C410.4 556.705 410.399 556.684 410.394 556.668C410.369 556.59 410.328 556.526 410.258 556.482C410.251 556.478 410.245 556.471 410.241 556.464C410.211 556.398 410.197 556.313 410.147 556.271C410.066 556.203 410.067 556.089 409.991 556.032C409.907 555.969 409.911 555.858 409.838 555.799C409.757 555.733 409.753 555.617 409.679 555.562C409.62 555.518 409.622 555.466 409.597 555.415C409.574 555.369 409.523 555.337 409.485 555.298C409.476 555.288 409.467 555.276 409.464 555.263C409.442 555.176 409.386 555.114 409.319 555.059C409.313 555.054 409.309 555.044 409.307 555.036C409.296 554.939 409.221 554.883 409.168 554.813C409.153 554.792 409.149 554.763 409.136 554.74C409.125 554.721 409.11 554.704 409.095 554.687C409.087 554.677 409.071 554.673 409.066 554.662C409.035 554.599 409.022 554.499 408.975 554.48C408.882 554.442 408.935 554.314 408.836 554.298C408.832 554.221 408.74 554.194 408.735 554.109C408.732 554.065 408.674 554.023 408.641 553.98C408.625 553.959 408.597 553.939 408.594 553.916C408.584 553.836 408.508 553.804 408.476 553.741C408.47 553.729 408.448 553.724 408.446 553.714C408.43 553.617 408.365 553.556 408.298 553.493C408.248 553.445 408.28 553.321 408.329 553.273C408.373 553.23 408.407 553.171 408.431 553.113C408.46 553.044 408.516 553.003 408.565 552.955C408.573 552.947 408.581 552.937 408.582 552.927C408.593 552.829 408.656 552.772 408.732 552.722C408.743 552.715 408.741 552.689 408.746 552.673C408.771 552.599 408.817 552.543 408.879 552.495C408.918 552.465 408.947 552.421 408.972 552.378C409.007 552.32 409.022 552.244 409.069 552.2C409.144 552.131 409.165 552.029 409.231 551.963C409.297 551.896 409.364 551.839 409.382 551.74C409.388 551.71 409.424 551.67 409.453 551.663C409.552 551.636 409.503 551.509 409.596 551.472C409.639 551.455 409.656 551.378 409.69 551.331C409.702 551.314 409.727 551.306 409.754 551.288H409.754Z" fill="white"/>
</g>
<defs>
<filter id="filter0_b_2553_1563" x="374.446" y="1023.58" width="232.846" height="232.846" filterUnits="userSpaceOnUse" color-interpolation-filters="sRGB">
<feFlood flood-opacity="0" result="BackgroundImageFix"/>
<feGaussianBlur in="BackgroundImageFix" stdDeviation="38.2114"/>
<feComposite in2="SourceAlpha" operator="in" result="effect1_backgroundBlur_2553_1563"/>
<feBlend mode="normal" in="SourceGraphic" in2="effect1_backgroundBlur_2553_1563" result="shape"/>
</filter>
<filter id="filter1_b_2553_1563" x="404.89" y="1054.02" width="171.957" height="171.957" filterUnits="userSpaceOnUse" color-interpolation-filters="sRGB">
<feFlood flood-opacity="0" result="BackgroundImageFix"/>
<feGaussianBlur in="BackgroundImageFix" stdDeviation="27.9892"/>
<feComposite in2="SourceAlpha" operator="in" result="effect1_backgroundBlur_2553_1563"/>
<feBlend mode="normal" in="SourceGraphic" in2="effect1_backgroundBlur_2553_1563" result="shape"/>
</filter>
<filter id="filter2_b_2553_1563" x="1083.45" y="855.578" width="232.846" height="232.846" filterUnits="userSpaceOnUse" color-interpolation-filters="sRGB">
<feFlood flood-opacity="0" result="BackgroundImageFix"/>
<feGaussianBlur in="BackgroundImageFix" stdDeviation="38.2114"/>
<feComposite in2="SourceAlpha" operator="in" result="effect1_backgroundBlur_2553_1563"/>
<feBlend mode="normal" in="SourceGraphic" in2="effect1_backgroundBlur_2553_1563" result="shape"/>
</filter>
<filter id="filter3_b_2553_1563" x="1113.89" y="886.023" width="171.957" height="171.957" filterUnits="userSpaceOnUse" color-interpolation-filters="sRGB">
<feFlood flood-opacity="0" result="BackgroundImageFix"/>
<feGaussianBlur in="BackgroundImageFix" stdDeviation="27.9892"/>
<feComposite in2="SourceAlpha" operator="in" result="effect1_backgroundBlur_2553_1563"/>
<feBlend mode="normal" in="SourceGraphic" in2="effect1_backgroundBlur_2553_1563" result="shape"/>
</filter>
<filter id="filter4_b_2553_1563" x="1099.45" y="497.578" width="232.846" height="232.846" filterUnits="userSpaceOnUse" color-interpolation-filters="sRGB">
<feFlood flood-opacity="0" result="BackgroundImageFix"/>
<feGaussianBlur in="BackgroundImageFix" stdDeviation="38.2114"/>
<feComposite in2="SourceAlpha" operator="in" result="effect1_backgroundBlur_2553_1563"/>
<feBlend mode="normal" in="SourceGraphic" in2="effect1_backgroundBlur_2553_1563" result="shape"/>
</filter>
<filter id="filter5_b_2553_1563" x="1129.89" y="528.022" width="171.957" height="171.957" filterUnits="userSpaceOnUse" color-interpolation-filters="sRGB">
<feFlood flood-opacity="0" result="BackgroundImageFix"/>
<feGaussianBlur in="BackgroundImageFix" stdDeviation="27.9892"/>
<feComposite in2="SourceAlpha" operator="in" result="effect1_backgroundBlur_2553_1563"/>
<feBlend mode="normal" in="SourceGraphic" in2="effect1_backgroundBlur_2553_1563" result="shape"/>
</filter>
<filter id="filter6_b_2553_1563" x="294.446" y="443.578" width="232.846" height="232.846" filterUnits="userSpaceOnUse" color-interpolation-filters="sRGB">
<feFlood flood-opacity="0" result="BackgroundImageFix"/>
<feGaussianBlur in="BackgroundImageFix" stdDeviation="38.2114"/>
<feComposite in2="SourceAlpha" operator="in" result="effect1_backgroundBlur_2553_1563"/>
<feBlend mode="normal" in="SourceGraphic" in2="effect1_backgroundBlur_2553_1563" result="shape"/>
</filter>
<filter id="filter7_b_2553_1563" x="324.89" y="474.022" width="171.957" height="171.957" filterUnits="userSpaceOnUse" color-interpolation-filters="sRGB">
<feFlood flood-opacity="0" result="BackgroundImageFix"/>
<feGaussianBlur in="BackgroundImageFix" stdDeviation="27.9892"/>
<feComposite in2="SourceAlpha" operator="in" result="effect1_backgroundBlur_2553_1563"/>
<feBlend mode="normal" in="SourceGraphic" in2="effect1_backgroundBlur_2553_1563" result="shape"/>
</filter>
<linearGradient id="paint0_linear_2553_1563" x1="483.124" y1="1100" x2="540.942" y2="1118.09" gradientUnits="userSpaceOnUse">
<stop stop-color="#292D32"/>
<stop offset="1" stop-color="#7B8A98"/>
</linearGradient>
<linearGradient id="paint1_linear_2553_1563" x1="440.7" y1="1146.02" x2="541.098" y2="1146.02" gradientUnits="userSpaceOnUse">
<stop stop-color="#262C33"/>
<stop offset="1" stop-color="#718599" stop-opacity="0"/>
</linearGradient>
<linearGradient id="paint2_linear_2553_1563" x1="491.168" y1="1104.5" x2="511.598" y2="1128.3" gradientUnits="userSpaceOnUse">
<stop stop-color="#FFFF71"/>
<stop offset="0.41" stop-color="#FCFC00"/>
<stop offset="1" stop-color="#DADA03"/>
</linearGradient>
<linearGradient id="paint3_linear_2553_1563" x1="453.242" y1="1144.51" x2="528.541" y2="1144.51" gradientUnits="userSpaceOnUse">
<stop stop-color="#262C33"/>
<stop offset="1" stop-color="#718599" stop-opacity="0"/>
</linearGradient>
<linearGradient id="paint4_linear_2553_1563" x1="1192.12" y1="932.001" x2="1249.94" y2="950.09" gradientUnits="userSpaceOnUse">
<stop stop-color="#292D32"/>
<stop offset="1" stop-color="#7B8A98"/>
</linearGradient>
<linearGradient id="paint5_linear_2553_1563" x1="1149.7" y1="978.016" x2="1250.1" y2="978.016" gradientUnits="userSpaceOnUse">
<stop stop-color="#262C33"/>
<stop offset="1" stop-color="#718599" stop-opacity="0"/>
</linearGradient>
<linearGradient id="paint6_linear_2553_1563" x1="1200.17" y1="936.496" x2="1220.6" y2="960.302" gradientUnits="userSpaceOnUse">
<stop stop-color="#979493"/>
<stop offset="0.41" stop-color="#242628"/>
<stop offset="0.98" stop-color="#1C1D1F"/>
</linearGradient>
<linearGradient id="paint7_linear_2553_1563" x1="1162.24" y1="976.512" x2="1237.54" y2="976.512" gradientUnits="userSpaceOnUse">
<stop stop-color="#262C33"/>
<stop offset="1" stop-color="#718599" stop-opacity="0"/>
</linearGradient>
<linearGradient id="paint8_linear_2553_1563" x1="1208.12" y1="574.001" x2="1265.94" y2="592.089" gradientUnits="userSpaceOnUse">
<stop stop-color="#292D32"/>
<stop offset="1" stop-color="#7B8A98"/>
</linearGradient>
<linearGradient id="paint9_linear_2553_1563" x1="1165.7" y1="620.016" x2="1266.1" y2="620.016" gradientUnits="userSpaceOnUse">
<stop stop-color="#262C33"/>
<stop offset="1" stop-color="#718599" stop-opacity="0"/>
</linearGradient>
<linearGradient id="paint10_linear_2553_1563" x1="1216.17" y1="578.496" x2="1236.6" y2="602.302" gradientUnits="userSpaceOnUse">
<stop stop-color="#AAA5FF"/>
<stop offset="0.41" stop-color="#4B42CE"/>
<stop offset="0.98" stop-color="#4B42CE"/>
</linearGradient>
<linearGradient id="paint11_linear_2553_1563" x1="1178.24" y1="618.512" x2="1253.54" y2="618.512" gradientUnits="userSpaceOnUse">
<stop stop-color="#262C33"/>
<stop offset="1" stop-color="#718599" stop-opacity="0"/>
</linearGradient>
<linearGradient id="paint12_linear_2553_1563" x1="403.124" y1="520.001" x2="460.942" y2="538.089" gradientUnits="userSpaceOnUse">
<stop stop-color="#292D32"/>
<stop offset="1" stop-color="#7B8A98"/>
</linearGradient>
<linearGradient id="paint13_linear_2553_1563" x1="360.7" y1="566.016" x2="461.098" y2="566.016" gradientUnits="userSpaceOnUse">
<stop stop-color="#262C33"/>
<stop offset="1" stop-color="#718599" stop-opacity="0"/>
</linearGradient>
<linearGradient id="paint14_linear_2553_1563" x1="411.168" y1="524.496" x2="431.598" y2="548.302" gradientUnits="userSpaceOnUse">
<stop stop-color="#DAA099"/>
<stop offset="0.41" stop-color="#DC756B"/>
<stop offset="1" stop-color="#C96C64"/>
</linearGradient>
<linearGradient id="paint15_linear_2553_1563" x1="373.242" y1="564.512" x2="448.541" y2="564.512" gradientUnits="userSpaceOnUse">
<stop stop-color="#262C33"/>
<stop offset="1" stop-color="#718599" stop-opacity="0"/>
</linearGradient>
<clipPath id="clip0_2553_1563">
<rect width="31" height="28" fill="white" transform="translate(476.869 1126)"/>
</clipPath>
<clipPath id="clip1_2553_1563">
<rect width="32" height="32" fill="white" transform="translate(1183.87 956.001)"/>
</clipPath>
<clipPath id="clip2_2553_1563">
<rect width="28" height="32.9123" fill="white" transform="translate(1201.87 598)"/>
</clipPath>
<clipPath id="clip3_2553_1563">
<rect width="28" height="28" fill="white" transform="translate(396.869 546)"/>
</clipPath>
</defs>
</svg>
