<svg width="1588" height="1588" viewBox="0 0 1588 1588" fill="none" xmlns="http://www.w3.org/2000/svg">
<g filter="url(#filter0_b_2553_1563)">
<circle cx="1209.87" cy="1164" r="50" fill="url(#paint0_linear_2553_1563)" fill-opacity="0.4"/>
<circle cx="1209.87" cy="1164" r="49.3631" stroke="url(#paint1_linear_2553_1563)" stroke-width="1.27371"/>
</g>
<g filter="url(#filter1_b_2553_1563)">
<circle cx="1209.87" cy="1164" r="37.5" fill="url(#paint2_linear_2553_1563)"/>
<circle cx="1209.87" cy="1164" r="37.0335" stroke="url(#paint3_linear_2553_1563)" stroke-width="0.932974"/>
</g>
<g clip-path="url(#clip0_2553_1563)">
<path fill-rule="evenodd" clip-rule="evenodd" d="M1225.87 1164C1225.87 1172.84 1218.71 1180 1209.87 1180C1201.03 1180 1193.87 1172.84 1193.87 1164C1193.87 1164 1193.87 1164 1193.87 1164C1193.87 1165.17 1193.99 1166.31 1194.23 1167.4C1194.22 1166.86 1194.25 1166.31 1194.33 1165.79L1195.76 1171.32C1195.79 1171.47 1195.82 1171.61 1195.86 1171.74L1195.76 1171.32C1195.62 1170.73 1195.54 1170.07 1195.49 1169.26C1195.4 1167.62 1196 1165.07 1197.02 1163.68C1197.96 1162.39 1200.07 1161.17 1202.09 1162.24C1203.15 1162.81 1204.29 1164.98 1203.02 1169.53C1202.33 1171.99 1202 1174.76 1203.69 1177.11C1205.12 1179.08 1207.73 1179.59 1209.99 1178.97C1212.81 1178.2 1214.37 1175.98 1215.01 1173.22C1215.47 1171.26 1215.16 1169.27 1214.38 1167.39C1213.86 1166.12 1213.26 1165.2 1212.73 1164.37C1211.92 1163.1 1211.25 1162.07 1211.22 1160.37C1211.21 1160.32 1211.21 1160.25 1211.21 1160.19C1211.2 1159.23 1211.18 1157.63 1209.87 1157.76C1208.55 1157.88 1208.71 1159.39 1209 1160.32C1209.28 1161.22 1209.84 1162.03 1210.49 1162.98C1210.88 1163.54 1211.3 1164.16 1211.71 1164.86C1212.53 1166.27 1213.07 1167.3 1213.19 1168.87C1213.31 1170.5 1212.86 1172.29 1211.91 1173.71C1211.03 1175.04 1209.13 1176.29 1207.19 1175.38C1206.49 1175.05 1206.05 1174.44 1205.85 1173.77C1205.42 1172.38 1205.66 1171 1205.92 1169.47C1206.05 1168.73 1206.18 1167.96 1206.25 1167.13C1206.59 1162.89 1203.74 1157.08 1198.24 1159.77C1196.47 1160.64 1195.09 1162.9 1194.5 1165C1194.43 1165.25 1194.37 1165.52 1194.33 1165.79L1193.87 1164C1193.87 1155.16 1201.03 1148 1209.87 1148C1216.25 1148 1221.76 1151.74 1224.33 1157.14C1224.41 1157.62 1224.47 1158.16 1224.5 1158.78C1224.6 1160.41 1223.99 1162.96 1222.98 1164.36C1222.04 1165.65 1219.92 1166.87 1217.91 1165.79C1216.84 1165.22 1215.7 1163.05 1216.98 1158.5C1217.67 1156.04 1218 1153.27 1216.3 1150.92C1214.88 1148.95 1212.26 1148.44 1210.01 1149.06C1207.19 1149.83 1205.63 1152.05 1204.98 1154.82C1204.53 1156.78 1204.83 1158.76 1205.61 1160.64C1206.14 1161.91 1206.73 1162.83 1207.26 1163.66C1208.08 1164.93 1208.75 1165.97 1208.78 1167.66C1208.78 1167.72 1208.78 1167.78 1208.78 1167.85L1208.78 1167.85C1208.8 1168.81 1208.82 1170.4 1210.13 1170.28C1211.45 1170.15 1211.29 1168.65 1211 1167.72C1210.72 1166.82 1210.16 1166 1209.51 1165.06C1209.12 1164.49 1208.7 1163.88 1208.29 1163.17C1207.47 1161.76 1206.92 1160.73 1206.81 1159.16C1206.69 1157.53 1207.13 1155.75 1208.09 1154.32C1208.97 1153 1210.86 1151.75 1212.8 1152.66C1213.51 1152.99 1213.94 1153.6 1214.14 1154.26C1214.57 1155.66 1214.34 1157.03 1214.07 1158.56C1213.95 1159.3 1213.81 1160.07 1213.75 1160.9C1213.4 1165.14 1216.26 1170.95 1221.76 1168.26C1223.52 1167.4 1224.91 1165.14 1225.49 1163.04L1224.33 1157.14C1225.32 1159.22 1225.87 1161.55 1225.87 1164Z" fill="black"/>
<path d="M1215.01 1173.22C1215.47 1171.26 1215.16 1169.27 1214.38 1167.39C1213.05 1164.17 1211.27 1163.17 1211.22 1160.38C1211.2 1159.46 1211.27 1157.62 1209.87 1157.76C1208.55 1157.89 1208.71 1159.39 1209 1160.32C1209.44 1161.76 1210.61 1162.98 1211.71 1164.86C1212.53 1166.27 1213.07 1167.3 1213.19 1168.87C1213.31 1170.5 1212.86 1172.29 1211.91 1173.72C1211.03 1175.04 1209.13 1176.29 1207.19 1175.38C1206.49 1175.05 1206.05 1174.44 1205.85 1173.78C1205.22 1171.71 1206.04 1169.68 1206.25 1167.14C1206.59 1162.9 1203.74 1157.08 1198.24 1159.77C1196.47 1160.64 1195.09 1162.9 1194.5 1165C1194.29 1165.76 1194.21 1166.58 1194.23 1167.4C1194.57 1168.94 1195.12 1170.4 1195.86 1171.74C1195.66 1171.05 1195.55 1170.27 1195.49 1169.26C1195.4 1167.63 1196.01 1165.08 1197.02 1163.68C1197.96 1162.39 1200.07 1161.17 1202.09 1162.24C1203.15 1162.81 1204.29 1164.98 1203.02 1169.54C1202.33 1172 1202 1174.77 1203.69 1177.11C1205.12 1179.09 1207.73 1179.59 1209.99 1178.98C1212.81 1178.21 1214.37 1175.98 1215.01 1173.22Z" fill="#C8D433"/>
<path d="M1225.49 1163.04C1225.6 1162.65 1225.68 1162.24 1225.72 1161.82C1225.72 1161.83 1225.72 1161.83 1225.72 1161.83C1225.5 1160.17 1225.02 1158.59 1224.32 1157.14C1224.41 1157.62 1224.46 1158.15 1224.5 1158.78C1224.6 1160.41 1223.99 1162.96 1222.97 1164.36C1222.04 1165.65 1219.92 1166.86 1217.91 1165.79C1216.84 1165.22 1215.7 1163.05 1216.98 1158.5C1217.67 1156.04 1218 1153.27 1216.3 1150.92C1214.87 1148.95 1212.26 1148.44 1210.01 1149.06C1207.19 1149.83 1205.62 1152.05 1204.98 1154.81C1204.53 1156.78 1204.83 1158.76 1205.61 1160.64C1206.95 1163.86 1208.72 1164.87 1208.78 1167.66C1208.8 1168.58 1208.73 1170.41 1210.13 1170.28C1211.45 1170.15 1211.29 1168.65 1211 1167.72C1210.55 1166.27 1209.38 1165.05 1208.29 1163.17C1207.47 1161.76 1206.92 1160.73 1206.81 1159.16C1206.69 1157.53 1207.13 1155.75 1208.08 1154.32C1208.97 1153 1210.86 1151.75 1212.8 1152.66C1213.51 1152.99 1213.94 1153.6 1214.14 1154.26C1214.78 1156.33 1213.95 1158.35 1213.75 1160.9C1213.4 1165.14 1216.26 1170.95 1221.76 1168.26C1223.52 1167.4 1224.91 1165.14 1225.49 1163.04Z" fill="#C6D535"/>
</g>
<g filter="url(#filter2_b_2553_1563)">
<circle cx="299.869" cy="1063" r="50" fill="url(#paint4_linear_2553_1563)" fill-opacity="0.4"/>
<circle cx="299.869" cy="1063" r="49.3631" stroke="url(#paint5_linear_2553_1563)" stroke-width="1.27371"/>
</g>
<g filter="url(#filter3_b_2553_1563)">
<circle cx="299.869" cy="1063" r="36.6242" fill="url(#paint6_linear_2553_1563)"/>
<circle cx="299.869" cy="1063" r="36.1577" stroke="url(#paint7_linear_2553_1563)" stroke-width="0.932974"/>
</g>
<path d="M285.245 1052.47C285.327 1052.35 285.398 1052.22 285.493 1052.11C285.79 1051.76 286.417 1051.57 286.852 1051.81C287.244 1052.03 287.624 1052.27 288.016 1052.49C288.338 1052.67 288.667 1052.84 289 1053C289.38 1053.18 289.762 1053.36 290.151 1053.51C290.492 1053.65 290.844 1053.76 291.192 1053.88C291.476 1053.98 291.76 1054.08 292.048 1054.16C292.301 1054.23 292.559 1054.29 292.816 1054.35C293.139 1054.43 293.463 1054.5 293.788 1054.57C293.929 1054.6 294.073 1054.62 294.215 1054.64C294.527 1054.7 294.839 1054.75 295.151 1054.8C295.172 1054.81 295.193 1054.81 295.214 1054.81C295.461 1054.84 295.708 1054.86 295.956 1054.88C296.435 1054.93 296.913 1054.98 297.393 1055.01C297.933 1055.04 298.474 1055.06 299.015 1055.06C299.642 1055.07 300.269 1055.07 300.894 1055.05C301.413 1055.03 301.93 1054.97 302.448 1054.92C302.758 1054.89 303.069 1054.86 303.378 1054.81C303.703 1054.77 304.027 1054.71 304.351 1054.65C304.687 1054.59 305.023 1054.53 305.357 1054.46C305.642 1054.4 305.925 1054.32 306.207 1054.24C306.506 1054.16 306.805 1054.08 307.101 1053.99C307.303 1053.93 307.501 1053.85 307.699 1053.78C307.969 1053.68 308.241 1053.59 308.506 1053.48C308.88 1053.32 309.254 1053.17 309.618 1052.99C310.023 1052.79 310.42 1052.58 310.814 1052.36C311.085 1052.2 311.343 1052.03 311.611 1051.87C311.948 1051.67 312.293 1051.66 312.659 1051.81C312.988 1051.95 313.208 1052.18 313.319 1052.5C313.401 1052.74 313.406 1052.99 313.351 1053.25C313.274 1053.61 313.11 1053.91 312.852 1054.15C312.642 1054.34 312.385 1054.49 312.137 1054.63C311.799 1054.83 311.453 1055.02 311.104 1055.19C310.797 1055.35 310.485 1055.5 310.169 1055.64C309.794 1055.8 309.416 1055.95 309.034 1056.1C308.778 1056.2 308.512 1056.27 308.251 1056.35C308.009 1056.43 307.766 1056.5 307.525 1056.58C307.5 1056.59 307.475 1056.63 307.467 1056.65C307.457 1056.69 307.462 1056.73 307.462 1056.77C307.462 1058.52 307.462 1060.27 307.462 1062.01V1062.17C307.617 1062.17 307.758 1062.16 307.899 1062.17C308.316 1062.18 308.703 1062.28 309.026 1062.57C309.264 1062.77 309.447 1063.01 309.517 1063.33C309.546 1063.46 309.574 1063.6 309.587 1063.73C309.632 1064.2 309.3 1064.59 308.875 1064.69C308.751 1064.72 308.623 1064.73 308.497 1064.74C308.158 1064.74 307.818 1064.74 307.462 1064.74C307.462 1064.8 307.462 1064.86 307.462 1064.91C307.462 1066.63 307.462 1068.35 307.462 1070.07C307.462 1070.31 307.463 1070.31 307.693 1070.37C307.936 1070.44 308.177 1070.52 308.417 1070.6C308.718 1070.7 309.021 1070.8 309.316 1070.92C309.666 1071.05 310.015 1071.19 310.353 1071.35C310.847 1071.58 311.34 1071.82 311.816 1072.09C312.234 1072.32 312.684 1072.52 312.998 1072.9C313.17 1073.12 313.299 1073.35 313.338 1073.63C313.357 1073.76 313.387 1073.9 313.387 1074.03C313.387 1074.54 313.04 1074.97 312.588 1075.12C312.173 1075.26 311.792 1075.17 311.425 1074.93C310.995 1074.65 310.557 1074.38 310.103 1074.15C309.591 1073.89 309.061 1073.65 308.53 1073.43C308.127 1073.26 307.714 1073.11 307.296 1072.97C306.824 1072.82 306.344 1072.69 305.865 1072.56C305.528 1072.47 305.188 1072.39 304.847 1072.32C304.575 1072.27 304.298 1072.24 304.024 1072.2C303.666 1072.15 303.307 1072.09 302.948 1072.04C302.783 1072.01 302.616 1071.99 302.45 1071.98C302.133 1071.95 301.816 1071.92 301.498 1071.9C300.82 1071.87 300.141 1071.85 299.462 1071.84C298.84 1071.83 298.218 1071.84 297.597 1071.86C297.133 1071.88 296.671 1071.93 296.21 1071.97C295.869 1072 295.528 1072.04 295.189 1072.09C294.829 1072.14 294.471 1072.2 294.113 1072.27C293.82 1072.32 293.526 1072.37 293.236 1072.44C292.969 1072.5 292.706 1072.59 292.44 1072.66C292.116 1072.74 291.79 1072.82 291.468 1072.91C291.27 1072.97 291.079 1073.05 290.885 1073.12C290.662 1073.2 290.439 1073.28 290.219 1073.37C289.908 1073.49 289.593 1073.6 289.292 1073.75C288.882 1073.94 288.478 1074.15 288.081 1074.37C287.743 1074.56 287.409 1074.76 287.09 1074.97C286.554 1075.34 285.868 1075.21 285.466 1074.76C285.401 1074.69 285.361 1074.59 285.307 1074.51C285.29 1074.48 285.266 1074.46 285.246 1074.43C285.246 1074.12 285.246 1073.81 285.246 1073.5C285.265 1073.47 285.293 1073.45 285.303 1073.42C285.388 1073.18 285.517 1072.96 285.703 1072.79C286.015 1072.49 286.403 1072.3 286.77 1072.09C287.213 1071.84 287.674 1071.62 288.134 1071.4C288.457 1071.25 288.789 1071.11 289.121 1070.98C289.378 1070.87 289.639 1070.78 289.902 1070.69C290.227 1070.58 290.553 1070.47 290.883 1070.38C291.127 1070.31 291.13 1070.32 291.13 1070.07C291.13 1068.35 291.13 1066.63 291.13 1064.91C291.13 1064.86 291.13 1064.8 291.13 1064.76C290.844 1064.74 290.574 1064.72 290.309 1064.68C290.048 1064.64 289.807 1064.54 289.598 1064.37C289.319 1064.14 289.106 1063.86 289.036 1063.5C288.993 1063.29 288.976 1063.04 289.034 1062.83C289.149 1062.42 289.558 1062.16 289.981 1062.17C290.162 1062.17 290.343 1062.17 290.523 1062.17C290.72 1062.17 290.917 1062.17 291.13 1062.17C291.13 1062.1 291.13 1062.05 291.13 1062C291.13 1060.55 291.13 1059.11 291.13 1057.66C291.13 1057.35 291.133 1057.03 291.127 1056.72C291.126 1056.67 291.095 1056.6 291.062 1056.59C290.758 1056.48 290.449 1056.39 290.145 1056.29C289.793 1056.17 289.441 1056.05 289.095 1055.92C288.786 1055.79 288.482 1055.66 288.181 1055.52C287.836 1055.35 287.492 1055.19 287.154 1055.01C286.823 1054.83 286.501 1054.64 286.174 1054.46C285.85 1054.28 285.567 1054.06 285.4 1053.71C285.349 1053.61 285.297 1053.51 285.245 1053.4C285.245 1053.09 285.245 1052.78 285.245 1052.47L285.245 1052.47ZM293.838 1062.16H304.749V1057.24C304.558 1057.28 304.383 1057.31 304.206 1057.34C303.8 1057.4 303.394 1057.46 302.987 1057.51C302.561 1057.55 302.133 1057.6 301.706 1057.63C301.299 1057.66 300.89 1057.68 300.483 1057.68C299.395 1057.68 298.307 1057.66 297.22 1057.64C296.86 1057.63 296.501 1057.59 296.142 1057.56C295.949 1057.54 295.756 1057.53 295.565 1057.5C295.183 1057.45 294.803 1057.4 294.423 1057.34C294.233 1057.32 294.045 1057.28 293.838 1057.24V1062.16L293.838 1062.16ZM304.752 1064.75H293.833C293.782 1065.09 293.811 1069.58 293.863 1069.66C294.045 1069.62 294.226 1069.59 294.407 1069.56C294.525 1069.54 294.642 1069.52 294.76 1069.5C294.972 1069.47 295.185 1069.45 295.397 1069.43C295.853 1069.38 296.308 1069.32 296.765 1069.28C297.085 1069.24 297.406 1069.22 297.727 1069.22C298.849 1069.21 299.972 1069.16 301.093 1069.26C301.649 1069.3 302.206 1069.33 302.761 1069.38C303.059 1069.4 303.356 1069.45 303.652 1069.49C304.015 1069.54 304.378 1069.6 304.752 1069.65V1064.75L304.752 1064.75Z" fill="white"/>
<g filter="url(#filter4_b_2553_1563)">
<circle cx="430.869" cy="348.003" r="50" fill="url(#paint8_linear_2553_1563)" fill-opacity="0.4"/>
<circle cx="430.869" cy="348.003" r="49.3631" stroke="url(#paint9_linear_2553_1563)" stroke-width="1.27371"/>
</g>
<g filter="url(#filter5_b_2553_1563)">
<circle cx="430.869" cy="348.003" r="36.6242" fill="url(#paint10_linear_2553_1563)"/>
<circle cx="430.869" cy="348.003" r="36.1577" stroke="url(#paint11_linear_2553_1563)" stroke-width="0.932974"/>
</g>
<g clip-path="url(#clip1_2553_1563)">
<path d="M435.769 345.216L437.661 346.977L444.137 341.278V332.003L442.149 333.517L441.138 334.292L440.063 335.116L439.82 335.301C438.021 336.676 435.983 338.234 434.101 339.947L433.823 340.197C433.134 340.81 432.354 341.51 431.91 342.637C431.444 343.809 431.416 345.122 431.831 346.315C432.42 347.938 433.665 348.921 434.764 349.788C435 349.974 435.223 350.15 435.434 350.328C436.84 351.51 438.276 352.704 439.665 353.856L441.298 355.213V358.34L431.529 350.261L431.536 353.545L443.802 363.806V353.939L443.328 353.545L441.218 351.792C439.831 350.642 438.399 349.453 436.999 348.273C436.758 348.071 436.509 347.879 436.266 347.684C435.36 346.968 434.503 346.291 434.171 345.378C433.981 344.812 434 344.191 434.225 343.639C434.438 343.098 434.88 342.704 435.441 342.204C435.541 342.116 435.641 342.029 435.741 341.941C437.541 340.302 439.534 338.778 441.293 337.434L441.535 337.249L441.633 337.174V340.05L435.769 345.216Z" fill="white"/>
<path d="M430.164 345.734L430.155 342.451L417.886 332.193V342.053L418.36 342.447C419.062 343.032 419.766 343.617 420.47 344.2C421.855 345.351 423.289 346.54 424.688 347.718C424.93 347.921 425.179 348.118 425.42 348.309C426.328 349.025 427.185 349.701 427.516 350.614C427.706 351.18 427.687 351.801 427.463 352.353C427.25 352.894 426.806 353.288 426.246 353.788L425.946 354.057C424.146 355.696 422.154 357.22 420.395 358.563L420.152 358.749L420.055 358.822V355.946L425.924 350.786L424.031 349.019L417.556 354.724V363.996L419.544 362.48L420.555 361.705L421.63 360.883L421.873 360.698C423.671 359.323 425.71 357.765 427.591 356.052C427.684 355.968 427.776 355.884 427.87 355.802C428.558 355.189 429.339 354.489 429.783 353.361C430.249 352.189 430.277 350.875 429.861 349.683C429.271 348.059 428.028 347.078 426.929 346.211C426.693 346.025 426.47 345.849 426.259 345.671C424.853 344.489 423.416 343.295 422.026 342.142L420.401 340.786V337.651L430.164 345.734Z" fill="white"/>
</g>
<g filter="url(#filter6_b_2553_1563)">
<circle cx="233.869" cy="700.001" r="50" fill="url(#paint12_linear_2553_1563)" fill-opacity="0.4"/>
<circle cx="233.869" cy="700.001" r="49.3631" stroke="url(#paint13_linear_2553_1563)" stroke-width="1.27371"/>
</g>
<g filter="url(#filter7_b_2553_1563)">
<circle cx="233.869" cy="700.001" r="36.6242" fill="url(#paint14_linear_2553_1563)"/>
<circle cx="233.869" cy="700.001" r="36.1577" stroke="url(#paint15_linear_2553_1563)" stroke-width="0.932974"/>
</g>
<g clip-path="url(#clip2_2553_1563)">
<path d="M237.031 693.186L238.04 689.929C238.277 689.165 238.942 688.609 239.737 688.522C239.927 688.502 240.112 688.488 240.293 688.48C239.538 688.31 238.684 688.246 237.733 688.349C236.939 688.436 236.273 688.992 236.036 689.756L235.027 693.012L243.582 695.595L243.694 695.197L237.031 693.184V693.186Z" fill="white"/>
<path d="M226.222 688.231L226.415 686.18L228.996 686.423C230.086 686.527 231.161 686.29 232.108 685.741C232.486 685.522 232.835 685.253 233.143 684.942L234.46 683.618C235.468 682.605 236.912 682.137 238.321 682.366C239.656 682.582 240.835 683.296 241.638 684.378C241.764 684.546 241.879 684.723 241.984 684.906C242.514 685.837 242.641 686.959 242.328 687.984C242.181 688.47 242.042 688.93 242.04 688.934L241.97 689.165L239.998 688.571L240.068 688.339C240.068 688.339 240.208 687.873 240.357 687.384C240.504 686.898 240.445 686.368 240.195 685.926C240.131 685.816 240.062 685.71 239.987 685.608C239.504 684.959 238.796 684.529 237.992 684.399C237.235 684.276 236.462 684.528 235.921 685.07L234.603 686.394C234.168 686.832 233.676 687.211 233.142 687.522C231.822 688.287 230.321 688.617 228.802 688.474L226.221 688.231H226.222ZM226.85 686.704L226.747 687.796L228.847 687.994C230.266 688.127 231.667 687.82 232.899 687.105C233.398 686.816 233.855 686.463 234.261 686.054L235.578 684.73C236.228 684.076 237.159 683.775 238.069 683.922C238.997 684.072 239.815 684.569 240.373 685.321C240.46 685.438 240.54 685.56 240.613 685.687C240.93 686.243 241.004 686.912 240.818 687.523C240.734 687.798 240.654 688.064 240.599 688.246L241.648 688.562C241.703 688.382 241.783 688.116 241.867 687.842C242.141 686.944 242.031 685.961 241.566 685.145C241.471 684.979 241.366 684.817 241.253 684.666C240.525 683.686 239.457 683.037 238.245 682.842C236.989 682.638 235.702 683.056 234.803 683.959L233.486 685.284C233.147 685.624 232.766 685.918 232.351 686.159C231.318 686.759 230.142 687.017 228.952 686.905L226.851 686.707L226.85 686.704Z" fill="white"/>
<mask id="mask0_2553_1563" style="mask-type:luminance" maskUnits="userSpaceOnUse" x="226" y="682" width="17" height="7">
<path d="M240.614 685.688C240.93 686.243 241.005 686.913 240.819 687.524C240.735 687.801 240.654 688.067 240.6 688.247L241.649 688.564C241.704 688.383 241.784 688.119 241.868 687.844C242.142 686.945 242.031 685.962 241.566 685.146C240.861 683.91 239.65 683.069 238.246 682.842C236.989 682.638 235.702 683.056 234.804 683.959L233.486 685.284C233.148 685.623 232.766 685.918 232.352 686.159C231.318 686.759 230.143 687.016 228.952 686.905L226.852 686.707L226.749 687.798L228.849 687.997C230.268 688.13 231.669 687.823 232.901 687.107C233.4 686.818 233.857 686.466 234.263 686.057L235.58 684.733C236.23 684.079 237.161 683.778 238.071 683.925C239.148 684.098 240.075 684.743 240.615 685.69L240.614 685.688Z" fill="white"/>
</mask>
<g mask="url(#mask0_2553_1563)">
<path d="M240.009 686.476L240.049 686.204C240.418 686.257 240.792 686.432 241.161 686.724C241.45 686.952 241.736 687.252 242.014 687.616C242.482 688.231 242.759 688.811 242.77 688.835L242.521 688.954C242.508 688.929 241.429 686.684 240.009 686.476Z" fill="white"/>
<path d="M239.562 685.715L239.402 685.491C239.766 685.233 240.194 685.146 240.676 685.235C241.049 685.303 241.453 685.477 241.879 685.751C242.593 686.21 243.117 686.789 243.138 686.813L242.933 686.998C242.933 686.998 242.409 686.42 241.724 685.981C240.841 685.413 240.113 685.324 239.561 685.716L239.562 685.715Z" fill="white"/>
<path d="M238.826 684.804C239.228 684.172 239.907 683.824 240.789 683.797C241.441 683.778 241.971 683.941 241.993 683.948L241.912 684.21C241.912 684.21 241.397 684.054 240.79 684.073C239.996 684.098 239.414 684.393 239.06 684.951L238.828 684.804H238.826Z" fill="white"/>
<path d="M237.887 684.383C238.047 683.683 238.519 683.148 239.254 682.833C239.799 682.599 240.293 682.568 240.314 682.568L240.329 682.844C240.329 682.844 239.857 682.873 239.356 683.09C238.701 683.374 238.297 683.829 238.157 684.444L237.889 684.383H237.887Z" fill="white"/>
<path d="M236.769 684.948C236.757 684.403 236.85 683.891 237.047 683.428C237.205 683.058 237.428 682.718 237.712 682.418C238.194 681.907 238.679 681.693 238.7 681.683L238.81 681.935C238.81 681.935 238.348 682.141 237.903 682.615C237.313 683.244 237.022 684.027 237.043 684.943L236.768 684.948H236.769Z" fill="white"/>
<path d="M236.096 685.839C235.762 685.36 235.588 684.839 235.581 684.294C235.576 683.861 235.673 683.411 235.874 682.958C236.213 682.195 236.721 681.69 236.742 681.669L236.934 681.866C236.926 681.875 236.437 682.363 236.122 683.078C235.707 684.02 235.774 684.896 236.32 685.682L236.095 685.84L236.096 685.839Z" fill="white"/>
<path d="M234.892 686.578C234.681 686.295 234.523 685.975 234.421 685.627C234.296 685.198 234.254 684.723 234.3 684.215C234.374 683.356 234.664 682.705 234.677 682.677L234.929 682.79C234.929 682.79 234.644 683.432 234.574 684.246C234.481 685.32 234.784 686.183 235.472 686.811L235.287 687.014C235.139 686.88 235.007 686.734 234.892 686.578Z" fill="white"/>
<path d="M233.588 687.218C233.2 686.696 233.12 686.12 233.141 685.665C233.172 684.952 233.449 684.395 233.46 684.372L233.706 684.495C233.706 684.495 233.442 685.031 233.416 685.686C233.38 686.545 233.745 687.21 234.501 687.663L234.359 687.899C234.02 687.696 233.77 687.463 233.588 687.218Z" fill="white"/>
<path d="M230.381 688.284C230.343 687.664 230.545 687.193 230.721 686.908C230.913 686.597 231.116 686.432 231.125 686.425L231.298 686.64C231.298 686.64 231.118 686.789 230.951 687.063C230.729 687.426 230.63 687.832 230.657 688.267L230.381 688.284Z" fill="white"/>
<path d="M229.116 688.326C228.991 687.653 229.236 687.213 229.463 686.962C229.708 686.692 229.982 686.582 229.994 686.578L230.096 686.834C230.096 686.834 229.862 686.929 229.661 687.155C229.398 687.451 229.306 687.828 229.389 688.275L229.117 688.325L229.116 688.326Z" fill="white"/>
<path d="M227.592 688.27C227.89 686.75 228.777 686.641 228.815 686.637L228.843 686.911H228.845C228.845 686.911 228.663 686.936 228.457 687.116C228.176 687.36 227.971 687.778 227.863 688.323L227.592 688.271V688.27Z" fill="white"/>
<path d="M232.098 687.846C231.835 687.491 231.766 687.041 231.901 686.533C232.01 686.124 232.212 685.822 232.221 685.81L232.449 685.964C232.449 685.964 232.262 686.245 232.166 686.611C232.043 687.079 232.119 687.469 232.39 687.767L232.186 687.953C232.155 687.919 232.126 687.883 232.098 687.846Z" fill="white"/>
</g>
<path d="M243.582 695.596L244.464 692.481C244.663 691.775 244.464 691.017 243.944 690.501C242.899 689.467 240.837 688.011 237.733 688.351C236.939 688.437 236.273 688.993 236.036 689.757L235.027 693.014L243.582 695.596Z" fill="white"/>
<path d="M234.437 693.328L235.586 689.617C235.88 688.67 236.703 687.989 237.683 687.882C240.626 687.559 242.688 688.756 243.9 689.815C244.028 689.928 244.155 690.045 244.276 690.165C244.919 690.801 245.165 691.737 244.919 692.61L243.906 696.187L234.437 693.328ZM243.278 690.526C242.207 689.59 240.386 688.534 237.783 688.819C237.178 688.885 236.668 689.308 236.485 689.897L235.618 692.699L243.259 695.006L244.01 692.352C244.163 691.811 244.01 691.23 243.613 690.835C243.505 690.729 243.394 690.625 243.279 690.526H243.278Z" fill="white"/>
<path d="M234.827 704.258H234.834H240.806L241.452 701.05H231.245L230.601 704.258H234.827Z" fill="white"/>
<path d="M230.175 706.397L228.733 713.606H232.966L233.774 709.588H239.738L240.382 706.397H230.175Z" fill="white"/>
<path d="M235.094 692.552C233.826 692.552 232.595 692.713 231.42 693.014V696.908C232.569 696.502 233.805 696.278 235.094 696.278C241.186 696.278 246.142 701.234 246.142 707.327C246.142 713.419 241.186 718.375 235.094 718.375C229.001 718.375 224.043 713.419 224.043 707.327C224.043 702.56 227.077 698.49 231.315 696.943L230.587 693.254C224.635 695.163 220.316 700.75 220.316 707.327C220.316 715.474 226.945 722.103 235.092 722.103C243.24 722.103 249.869 715.474 249.869 707.327C249.869 699.179 243.241 692.55 235.092 692.55L235.094 692.552Z" fill="white"/>
<path d="M230.064 687.357L230.553 686.633L229.863 686.067L236.273 678.001L228.595 683.752L228.846 680.168L226.767 683.492L225.105 680.728L224.637 684.322L218.957 682.485L222.941 685.954L221.706 686.265L223.123 687.405L217.869 691.062L223.489 690.046L222.729 691.829L224.24 691.069L222.561 697.165L226.25 691.47L227.603 694.191L227.876 691.8L231.315 696.944L229.896 689.752L235.163 690.28L230.064 687.354V687.357Z" fill="white"/>
<path d="M227.487 690.202L227.256 692.224L226.314 690.329L224.082 693.774L225.124 689.991L223.856 690.629L224.42 689.302L220.325 690.042L224.068 687.438L222.947 686.536L224.131 686.239L221.415 683.874L225.111 685.069L225.457 682.411L226.759 684.575L228.121 682.393L227.944 684.948L233.095 681.088L229.073 686.151L229.794 686.743L229.254 687.544L232.58 689.453L229.192 689.113L230.211 694.275L227.487 690.202Z" fill="white"/>
</g>
<g filter="url(#filter8_b_2553_1563)">
<circle cx="1122.87" cy="323.003" r="50" fill="url(#paint16_linear_2553_1563)" fill-opacity="0.4"/>
<circle cx="1122.87" cy="323.003" r="49.3631" stroke="url(#paint17_linear_2553_1563)" stroke-width="1.27371"/>
</g>
<g filter="url(#filter9_b_2553_1563)">
<circle cx="1122.87" cy="323.003" r="36.6242" fill="url(#paint18_linear_2553_1563)"/>
<circle cx="1122.87" cy="323.003" r="36.1577" stroke="url(#paint19_linear_2553_1563)" stroke-width="0.932974"/>
</g>
<g clip-path="url(#clip3_2553_1563)">
<path d="M1123.35 317.919C1123.35 314.809 1123.35 311.699 1123.35 308.589C1123.35 308.181 1123.59 307.939 1123.94 308.02C1124.05 308.046 1124.18 308.121 1124.23 308.212C1124.39 308.455 1124.52 308.718 1124.66 308.975C1124.76 309.153 1124.84 309.336 1124.93 309.514C1125.18 309.985 1125.43 310.456 1125.68 310.925C1125.97 311.474 1126.27 312.02 1126.57 312.568C1126.78 312.95 1126.99 313.33 1127.2 313.713C1127.39 314.06 1127.57 314.408 1127.75 314.758C1127.97 315.18 1128.18 315.609 1128.4 316.029C1128.7 316.59 1129.01 317.144 1129.31 317.705C1129.52 318.103 1129.72 318.513 1129.93 318.91C1130.23 319.475 1130.55 320.031 1130.86 320.596C1131.08 321.015 1131.29 321.443 1131.51 321.863C1131.66 322.147 1131.82 322.424 1131.97 322.706C1132.15 323.035 1132.32 323.367 1132.49 323.697C1132.64 323.976 1132.79 324.254 1132.94 324.533C1133.1 324.831 1133.25 325.13 1133.42 325.428C1133.66 325.872 1133.9 326.312 1134.14 326.757C1134.36 327.183 1134.57 327.615 1134.8 328.041C1134.95 328.325 1135.11 328.6 1135.26 328.883C1135.44 329.21 1135.6 329.544 1135.78 329.871C1135.93 330.154 1136.09 330.43 1136.24 330.713C1136.42 331.04 1136.58 331.374 1136.75 331.703C1136.9 331.987 1137.06 332.266 1137.21 332.55C1137.39 332.877 1137.56 333.209 1137.73 333.537C1137.88 333.819 1138.04 334.097 1138.19 334.38C1138.41 334.796 1138.64 335.212 1138.85 335.633C1138.94 335.812 1138.69 336.157 1138.46 336.196C1138.27 336.227 1138.12 336.167 1137.97 336.077C1136.68 335.331 1135.38 334.589 1134.09 333.845C1133.21 333.34 1132.34 332.831 1131.46 332.327C1130.58 331.82 1129.7 331.316 1128.82 330.808C1127.9 330.28 1126.98 329.749 1126.07 329.219C1125.27 328.758 1124.48 328.288 1123.68 327.84C1123.43 327.701 1123.35 327.515 1123.35 327.249C1123.35 324.139 1123.35 321.029 1123.35 317.918L1123.35 317.919Z" fill="white"/>
<path d="M1122.36 317.925C1122.36 320.995 1122.35 324.064 1122.37 327.134C1122.37 327.542 1122.21 327.758 1121.88 327.939C1121.32 328.253 1120.76 328.589 1120.2 328.912C1119.52 329.302 1118.84 329.686 1118.16 330.076C1116.75 330.884 1115.35 331.695 1113.94 332.503C1112.44 333.368 1110.94 334.232 1109.43 335.096C1108.83 335.446 1108.22 335.795 1107.61 336.145C1107.43 336.244 1107.16 336.215 1107.03 336.083C1106.85 335.916 1106.82 335.69 1106.93 335.48C1107.34 334.738 1107.74 333.996 1108.13 333.252C1108.39 332.767 1108.64 332.278 1108.9 331.791C1109.25 331.127 1109.59 330.462 1109.94 329.801C1110.24 329.25 1110.54 328.705 1110.84 328.155C1111.13 327.615 1111.41 327.071 1111.69 326.531C1111.99 325.981 1112.29 325.436 1112.58 324.886C1112.87 324.335 1113.16 323.779 1113.45 323.226C1113.59 322.958 1113.74 322.692 1113.88 322.425C1114.13 321.96 1114.37 321.495 1114.62 321.031C1114.77 320.759 1114.92 320.488 1115.06 320.216C1115.3 319.76 1115.54 319.302 1115.78 318.847C1116 318.443 1116.22 318.044 1116.44 317.639C1116.61 317.32 1116.77 316.995 1116.94 316.676C1117.16 316.251 1117.39 315.83 1117.62 315.406C1117.84 314.993 1118.06 314.578 1118.28 314.165C1118.46 313.843 1118.64 313.523 1118.81 313.2C1118.97 312.897 1119.13 312.592 1119.29 312.289C1119.45 311.991 1119.61 311.694 1119.76 311.396C1119.99 310.977 1120.21 310.558 1120.43 310.139C1120.58 309.845 1120.74 309.552 1120.9 309.259C1121.07 308.946 1121.23 308.632 1121.4 308.318C1121.49 308.145 1121.62 308.021 1121.82 308.005C1122.04 307.988 1122.19 308.093 1122.31 308.257C1122.35 308.312 1122.35 308.399 1122.35 308.471C1122.36 308.745 1122.35 309.018 1122.35 309.291C1122.35 312.169 1122.35 315.047 1122.35 317.925H1122.36Z" fill="white"/>
<path d="M1122.82 337.892C1118.13 337.892 1113.44 337.893 1108.74 337.888C1108.6 337.888 1108.45 337.838 1108.32 337.781C1108.05 337.665 1108.03 337.153 1108.29 336.994C1108.73 336.733 1109.17 336.466 1109.61 336.208C1110.16 335.889 1110.71 335.576 1111.26 335.261C1112.14 334.755 1113.02 334.25 1113.9 333.741C1114.58 333.349 1115.25 332.948 1115.93 332.556C1116.94 331.974 1117.95 331.396 1118.95 330.814C1119.91 330.265 1120.86 329.712 1121.81 329.164C1122.1 328.998 1122.39 328.842 1122.68 328.682C1122.84 328.598 1122.98 328.661 1123.11 328.735C1124.27 329.4 1125.42 330.069 1126.58 330.739C1127.45 331.244 1128.32 331.754 1129.19 332.26C1130.03 332.751 1130.87 333.242 1131.72 333.73C1132.56 334.216 1133.4 334.699 1134.25 335.184C1134.98 335.606 1135.71 336.026 1136.44 336.448C1136.73 336.614 1137.02 336.775 1137.31 336.946C1137.5 337.061 1137.59 337.306 1137.52 337.541C1137.47 337.731 1137.26 337.879 1137.03 337.891C1136.97 337.894 1136.9 337.892 1136.84 337.892C1132.17 337.892 1127.49 337.892 1122.82 337.892L1122.82 337.892Z" fill="white"/>
</g>
<g filter="url(#filter10_b_2553_1563)">
<circle cx="1362.87" cy="759.001" r="50" fill="url(#paint20_linear_2553_1563)" fill-opacity="0.4"/>
<circle cx="1362.87" cy="759.001" r="49.3631" stroke="url(#paint21_linear_2553_1563)" stroke-width="1.27371"/>
</g>
<g filter="url(#filter11_b_2553_1563)">
<circle cx="1362.87" cy="759.001" r="36.6242" fill="url(#paint22_linear_2553_1563)"/>
<circle cx="1362.87" cy="759.001" r="36.1577" stroke="url(#paint23_linear_2553_1563)" stroke-width="0.932974"/>
</g>
<path d="M1359.1 758.842C1358.94 758.842 1358.79 758.842 1358.63 758.842C1358.12 758.842 1357.61 758.848 1357.11 758.838C1356.92 758.835 1356.79 758.887 1356.67 759.027C1356.12 759.64 1355.55 760.243 1354.99 760.85C1354.54 761.339 1354.09 761.828 1353.63 762.317C1353.62 762.329 1353.6 762.333 1353.57 762.349C1353.56 762.312 1353.53 762.277 1353.52 762.238C1353.52 762.168 1353.52 762.097 1353.52 762.025C1353.52 760.346 1353.52 758.667 1353.51 756.987C1353.51 756.833 1353.56 756.717 1353.66 756.605C1354.06 756.155 1354.46 755.702 1354.86 755.249C1354.93 755.174 1355 755.099 1355.07 754.967C1354.92 755.03 1354.84 755.116 1354.75 755.186C1354.28 755.568 1353.82 755.957 1353.36 756.339C1353.23 756.438 1353.16 756.563 1353.1 756.704C1352.94 757.081 1352.79 757.458 1352.63 757.835C1352.61 757.876 1352.6 757.918 1352.58 757.958C1352.55 758.02 1352.5 758.049 1352.43 758.044C1352.26 758.031 1352.09 758.023 1351.93 758.013C1351.7 757.999 1351.48 757.982 1351.26 757.971C1351.11 757.964 1350.96 757.968 1350.81 757.96C1350.54 757.947 1350.26 757.928 1349.97 757.909C1349.99 757.843 1350 757.791 1350.01 757.745C1350.32 757.034 1350.55 756.301 1350.72 755.545C1350.83 755.025 1350.93 754.503 1350.97 753.972C1350.99 753.69 1351.03 753.409 1351.06 753.127C1351.06 753.057 1351.06 752.985 1351.06 752.914C1351.07 752.755 1351.09 752.597 1351.1 752.438C1351.1 752.376 1351.11 752.314 1351.11 752.252C1351.11 752.03 1351.1 751.807 1351.15 751.589C1351.16 751.573 1351.16 751.554 1351.16 751.536C1351.17 751.155 1351.19 750.774 1351.2 750.393C1351.22 749.8 1351.36 749.232 1351.6 748.694C1351.98 747.84 1352.47 747.042 1353.05 746.312C1353.49 745.763 1354.01 745.291 1354.56 744.852C1355.15 744.38 1355.78 743.961 1356.44 743.597C1357.62 742.948 1358.86 742.455 1360.18 742.168C1360.63 742.07 1361.09 741.998 1361.54 741.934C1361.74 741.906 1361.95 741.898 1362.15 741.893C1362.51 741.885 1362.86 741.885 1363.22 741.887C1363.8 741.889 1364.37 741.965 1364.93 742.079C1365.64 742.223 1366.32 742.427 1366.99 742.705C1367.59 742.956 1368.17 743.248 1368.72 743.587C1369.4 744 1370.03 744.47 1370.62 745.002C1371 745.348 1371.36 745.714 1371.68 746.12C1371.75 746.218 1371.82 746.324 1371.88 746.43C1371.9 746.453 1371.89 746.493 1371.89 746.543C1371.77 746.493 1371.69 746.428 1371.6 746.363C1371.09 745.96 1370.56 745.564 1370.01 745.206C1368.8 744.422 1367.5 743.835 1366.09 743.519C1365.61 743.412 1365.12 743.328 1364.63 743.3C1364.41 743.288 1364.2 743.262 1363.99 743.275C1363.7 743.293 1363.41 743.329 1363.12 743.35C1362.57 743.39 1362.03 743.498 1361.49 743.614C1360.76 743.772 1360.06 744 1359.37 744.283C1358.07 744.811 1356.89 745.525 1355.83 746.432C1355.3 746.885 1354.85 747.405 1354.54 748.043C1354.32 748.51 1354.16 748.996 1354.09 749.511C1354.06 749.792 1354.01 750.072 1354.01 750.357C1354.02 750.418 1354.02 750.479 1354.03 750.555C1354.09 750.551 1354.14 750.555 1354.19 750.543C1354.97 750.325 1355.76 750.106 1356.54 749.885C1356.72 749.835 1356.9 749.781 1357.07 749.73C1357.13 749.796 1357.09 749.844 1357.06 749.884C1356.88 750.222 1356.67 750.537 1356.42 750.826C1356.02 751.285 1355.57 751.68 1355.03 751.979C1354.96 752.018 1354.9 752.063 1354.82 752.112C1354.98 752.14 1354.99 752.139 1355.35 751.997C1355.52 751.928 1355.69 751.856 1355.86 751.771C1356.01 751.69 1356.17 751.598 1356.31 751.494C1356.46 751.386 1356.59 751.257 1356.75 751.125C1356.89 751.282 1357.03 751.432 1357.16 751.584C1357.54 752.02 1357.91 752.457 1358.29 752.893C1358.73 753.397 1359.16 753.899 1359.6 754.402C1359.97 754.825 1360.33 755.248 1360.7 755.67C1361.14 756.179 1361.59 756.689 1362.03 757.199C1362.16 757.353 1362.3 757.507 1362.43 757.665C1362.5 757.763 1362.6 757.809 1362.73 757.795C1362.76 757.792 1362.8 757.795 1362.83 757.795C1365.37 757.795 1367.9 757.794 1370.43 757.798C1370.63 757.798 1370.79 757.756 1370.96 757.667C1371.58 757.348 1372.13 756.955 1372.62 756.472C1373.38 755.725 1373.94 754.854 1374.29 753.845C1374.46 753.373 1374.57 752.888 1374.62 752.396C1374.67 752.019 1374.7 751.637 1374.68 751.254C1374.67 751.193 1374.66 751.132 1374.66 751.069C1374.65 750.929 1374.64 750.789 1374.62 750.615C1374.68 750.645 1374.71 750.654 1374.73 750.675C1375.13 751.112 1375.45 751.6 1375.67 752.152C1375.85 752.617 1375.95 753.101 1375.97 753.603C1375.99 754.401 1375.81 755.153 1375.48 755.872C1375.21 756.464 1374.89 757.027 1374.47 757.525C1373.91 758.184 1373.26 758.724 1372.49 759.116C1372.34 759.192 1372.18 759.26 1372.03 759.333C1372 759.348 1371.97 759.37 1371.93 759.398C1372.1 759.609 1372.31 759.752 1372.5 759.923C1372.68 760.092 1372.87 760.249 1373.06 760.413C1373.25 760.582 1373.44 760.753 1373.64 760.926C1373.63 761.154 1373.56 761.364 1373.52 761.579C1373.41 762.135 1373.3 762.69 1373.18 763.245C1373.08 763.722 1372.98 764.198 1372.88 764.674C1372.85 764.818 1372.88 764.953 1372.94 765.087C1373.18 765.643 1373.41 766.2 1373.64 766.757C1374.11 767.887 1374.58 769.018 1375.05 770.147C1375.1 770.273 1375.12 770.394 1375.1 770.534C1375.07 770.788 1375.07 771.047 1375.04 771.303C1375.02 771.567 1374.99 771.831 1374.96 772.095C1374.96 772.13 1374.96 772.166 1374.95 772.201C1374.92 772.535 1374.89 772.87 1374.86 773.205C1374.84 773.425 1374.83 773.647 1374.81 773.868C1374.78 774.221 1374.75 774.574 1374.72 774.928C1374.72 774.944 1374.7 774.959 1374.69 774.992C1374.48 775.042 1374.26 775.009 1374.04 775.014C1373.82 775.018 1373.6 775.023 1373.36 775.007C1373.35 774.944 1373.34 774.894 1373.34 774.845C1373.35 774.632 1373.35 774.421 1373.38 774.208C1373.42 773.928 1373.42 773.642 1373.43 773.358C1373.45 773.048 1373.47 772.738 1373.49 772.428C1373.52 772.004 1373.52 771.577 1373.57 771.155C1373.61 770.82 1373.6 770.483 1373.65 770.143C1373.63 770.12 1373.61 770.09 1373.58 770.069C1371.17 768.22 1368.75 766.368 1366.31 764.522C1366.37 764.693 1366.39 764.718 1367.11 765.439C1367.39 765.722 1367.67 766.011 1367.97 766.327C1367.93 766.358 1367.89 766.381 1367.85 766.405C1367.48 766.647 1367.11 766.888 1366.74 767.133C1366.62 767.208 1366.51 767.245 1366.37 767.257C1366.02 767.288 1365.68 767.325 1365.34 767.352C1364.76 767.397 1364.19 767.467 1363.62 767.522C1363.38 767.545 1363.14 767.554 1362.9 767.573C1362.74 767.585 1362.58 767.608 1362.42 767.62C1362.33 767.628 1362.23 767.611 1362.14 767.577C1361.62 767.393 1361.1 767.217 1360.58 767.036C1360.01 766.838 1359.44 766.637 1358.87 766.439C1358.72 766.387 1358.57 766.337 1358.42 766.259C1358.6 765.197 1358.83 764.15 1358.99 763.089C1358.81 763.402 1358.71 763.739 1358.57 764.066C1358.44 764.395 1358.32 764.728 1358.19 765.059C1358.06 765.389 1357.93 765.719 1357.8 766.05C1357.67 766.38 1357.55 766.712 1357.42 767.043C1357.29 767.374 1357.16 767.705 1357.04 768.037C1356.9 768.376 1356.77 768.715 1356.64 769.054C1356.51 769.385 1356.38 769.714 1356.25 770.044C1356.12 770.374 1355.99 770.705 1355.87 771.036C1355.74 771.367 1355.61 771.698 1355.48 772.029C1355.35 772.36 1355.23 772.691 1355.1 773.022C1354.97 773.352 1354.84 773.682 1354.71 774.013C1354.58 774.343 1354.46 774.675 1354.32 774.989C1354.08 775.023 1352.97 775.024 1352.73 774.994C1352.69 774.927 1352.72 774.859 1352.74 774.794C1352.89 774.284 1353.04 773.774 1353.19 773.264C1353.56 771.979 1353.93 770.694 1354.31 769.409C1354.35 769.264 1354.38 769.116 1354.43 768.975C1354.51 768.775 1354.5 768.571 1354.47 768.37C1354.4 767.905 1354.33 767.442 1354.26 766.977C1354.16 766.268 1354.07 765.558 1353.97 764.848C1353.9 764.358 1353.82 763.87 1353.75 763.381C1353.73 763.258 1353.72 763.134 1353.7 763.012C1353.68 762.905 1353.71 762.827 1353.78 762.748C1354.18 762.314 1354.57 761.878 1354.96 761.44C1355.38 760.962 1355.8 760.482 1356.23 760.004C1356.47 759.739 1356.71 759.48 1356.94 759.212C1357.01 759.128 1357.11 759.106 1357.2 759.094C1357.41 759.065 1357.62 759.053 1357.83 759.033C1358 759.017 1358.17 758.999 1358.33 758.98C1358.59 758.952 1358.84 758.92 1359.1 758.89C1359.1 758.875 1359.1 758.859 1359.1 758.843L1359.1 758.842ZM1351.82 753.912C1352.53 753.923 1353.19 753.804 1353.76 753.372C1353.93 753.243 1354.07 753.087 1354.19 752.907C1354.21 752.87 1354.24 752.832 1354.26 752.792C1354.29 752.715 1354.25 752.624 1354.17 752.595C1354.11 752.574 1354.05 752.559 1353.99 752.56C1353.89 752.561 1353.79 752.565 1353.7 752.588C1353.16 752.72 1352.66 752.928 1352.21 753.262C1352.09 753.351 1351.99 753.466 1351.89 753.58C1351.83 753.66 1351.78 753.759 1351.82 753.912H1351.82Z" fill="white"/>
<path d="M1371.1 774.978C1370.89 775.026 1369.86 775.028 1369.63 774.983C1369.58 774.853 1369.64 774.723 1369.65 774.597C1369.72 774.07 1369.8 773.547 1369.87 773.022C1369.94 772.513 1369.99 772.003 1370.06 771.494C1370.1 771.197 1370.14 770.901 1370.19 770.605C1370.21 770.492 1370.19 770.404 1370.09 770.324C1369.28 769.635 1368.47 768.941 1367.67 768.248C1367.43 768.046 1367.2 767.843 1366.96 767.639C1366.93 767.605 1366.9 767.563 1366.86 767.525C1367.03 767.362 1368.02 766.729 1368.25 766.642C1368.4 766.761 1368.56 766.886 1368.71 767.013C1369.44 767.599 1370.16 768.187 1370.88 768.773C1371.14 768.985 1371.41 769.199 1371.67 769.412C1371.71 769.446 1371.75 769.483 1371.79 769.518C1371.85 769.57 1371.86 769.635 1371.85 769.71C1371.76 770.358 1371.66 771.006 1371.57 771.654C1371.48 772.293 1371.4 772.932 1371.31 773.57C1371.24 774.042 1371.17 774.513 1371.1 774.979L1371.1 774.978Z" fill="white"/>
<path d="M1358.73 774.983C1358.52 775.021 1357.38 775.029 1357.04 774.995C1357.02 774.94 1357 774.876 1356.98 774.81C1356.74 773.67 1356.5 772.529 1356.25 771.388C1356.23 771.274 1356.22 771.165 1356.27 771.049C1356.57 770.236 1356.87 769.421 1357.17 768.607C1357.18 768.592 1357.2 768.581 1357.22 768.554C1357.25 768.601 1357.28 768.64 1357.29 768.684C1357.53 769.709 1357.76 770.735 1358 771.76C1358.23 772.777 1358.47 773.792 1358.71 774.808C1358.72 774.865 1358.72 774.925 1358.73 774.983H1358.73Z" fill="white"/>
<defs>
<filter id="filter0_b_2553_1563" x="1083.45" y="1037.58" width="252.846" height="252.846" filterUnits="userSpaceOnUse" color-interpolation-filters="sRGB">
<feFlood flood-opacity="0" result="BackgroundImageFix"/>
<feGaussianBlur in="BackgroundImageFix" stdDeviation="38.2114"/>
<feComposite in2="SourceAlpha" operator="in" result="effect1_backgroundBlur_2553_1563"/>
<feBlend mode="normal" in="SourceGraphic" in2="effect1_backgroundBlur_2553_1563" result="shape"/>
</filter>
<filter id="filter1_b_2553_1563" x="1116.39" y="1070.52" width="186.957" height="186.957" filterUnits="userSpaceOnUse" color-interpolation-filters="sRGB">
<feFlood flood-opacity="0" result="BackgroundImageFix"/>
<feGaussianBlur in="BackgroundImageFix" stdDeviation="27.9892"/>
<feComposite in2="SourceAlpha" operator="in" result="effect1_backgroundBlur_2553_1563"/>
<feBlend mode="normal" in="SourceGraphic" in2="effect1_backgroundBlur_2553_1563" result="shape"/>
</filter>
<filter id="filter2_b_2553_1563" x="173.446" y="936.578" width="252.846" height="252.846" filterUnits="userSpaceOnUse" color-interpolation-filters="sRGB">
<feFlood flood-opacity="0" result="BackgroundImageFix"/>
<feGaussianBlur in="BackgroundImageFix" stdDeviation="38.2114"/>
<feComposite in2="SourceAlpha" operator="in" result="effect1_backgroundBlur_2553_1563"/>
<feBlend mode="normal" in="SourceGraphic" in2="effect1_backgroundBlur_2553_1563" result="shape"/>
</filter>
<filter id="filter3_b_2553_1563" x="207.266" y="970.398" width="185.205" height="185.205" filterUnits="userSpaceOnUse" color-interpolation-filters="sRGB">
<feFlood flood-opacity="0" result="BackgroundImageFix"/>
<feGaussianBlur in="BackgroundImageFix" stdDeviation="27.9892"/>
<feComposite in2="SourceAlpha" operator="in" result="effect1_backgroundBlur_2553_1563"/>
<feBlend mode="normal" in="SourceGraphic" in2="effect1_backgroundBlur_2553_1563" result="shape"/>
</filter>
<filter id="filter4_b_2553_1563" x="304.446" y="221.58" width="252.846" height="252.846" filterUnits="userSpaceOnUse" color-interpolation-filters="sRGB">
<feFlood flood-opacity="0" result="BackgroundImageFix"/>
<feGaussianBlur in="BackgroundImageFix" stdDeviation="38.2114"/>
<feComposite in2="SourceAlpha" operator="in" result="effect1_backgroundBlur_2553_1563"/>
<feBlend mode="normal" in="SourceGraphic" in2="effect1_backgroundBlur_2553_1563" result="shape"/>
</filter>
<filter id="filter5_b_2553_1563" x="338.266" y="255.4" width="185.205" height="185.205" filterUnits="userSpaceOnUse" color-interpolation-filters="sRGB">
<feFlood flood-opacity="0" result="BackgroundImageFix"/>
<feGaussianBlur in="BackgroundImageFix" stdDeviation="27.9892"/>
<feComposite in2="SourceAlpha" operator="in" result="effect1_backgroundBlur_2553_1563"/>
<feBlend mode="normal" in="SourceGraphic" in2="effect1_backgroundBlur_2553_1563" result="shape"/>
</filter>
<filter id="filter6_b_2553_1563" x="107.446" y="573.578" width="252.846" height="252.846" filterUnits="userSpaceOnUse" color-interpolation-filters="sRGB">
<feFlood flood-opacity="0" result="BackgroundImageFix"/>
<feGaussianBlur in="BackgroundImageFix" stdDeviation="38.2114"/>
<feComposite in2="SourceAlpha" operator="in" result="effect1_backgroundBlur_2553_1563"/>
<feBlend mode="normal" in="SourceGraphic" in2="effect1_backgroundBlur_2553_1563" result="shape"/>
</filter>
<filter id="filter7_b_2553_1563" x="141.266" y="607.398" width="185.205" height="185.205" filterUnits="userSpaceOnUse" color-interpolation-filters="sRGB">
<feFlood flood-opacity="0" result="BackgroundImageFix"/>
<feGaussianBlur in="BackgroundImageFix" stdDeviation="27.9892"/>
<feComposite in2="SourceAlpha" operator="in" result="effect1_backgroundBlur_2553_1563"/>
<feBlend mode="normal" in="SourceGraphic" in2="effect1_backgroundBlur_2553_1563" result="shape"/>
</filter>
<filter id="filter8_b_2553_1563" x="996.446" y="196.58" width="252.846" height="252.846" filterUnits="userSpaceOnUse" color-interpolation-filters="sRGB">
<feFlood flood-opacity="0" result="BackgroundImageFix"/>
<feGaussianBlur in="BackgroundImageFix" stdDeviation="38.2114"/>
<feComposite in2="SourceAlpha" operator="in" result="effect1_backgroundBlur_2553_1563"/>
<feBlend mode="normal" in="SourceGraphic" in2="effect1_backgroundBlur_2553_1563" result="shape"/>
</filter>
<filter id="filter9_b_2553_1563" x="1030.27" y="230.4" width="185.205" height="185.205" filterUnits="userSpaceOnUse" color-interpolation-filters="sRGB">
<feFlood flood-opacity="0" result="BackgroundImageFix"/>
<feGaussianBlur in="BackgroundImageFix" stdDeviation="27.9892"/>
<feComposite in2="SourceAlpha" operator="in" result="effect1_backgroundBlur_2553_1563"/>
<feBlend mode="normal" in="SourceGraphic" in2="effect1_backgroundBlur_2553_1563" result="shape"/>
</filter>
<filter id="filter10_b_2553_1563" x="1236.45" y="632.578" width="252.846" height="252.846" filterUnits="userSpaceOnUse" color-interpolation-filters="sRGB">
<feFlood flood-opacity="0" result="BackgroundImageFix"/>
<feGaussianBlur in="BackgroundImageFix" stdDeviation="38.2114"/>
<feComposite in2="SourceAlpha" operator="in" result="effect1_backgroundBlur_2553_1563"/>
<feBlend mode="normal" in="SourceGraphic" in2="effect1_backgroundBlur_2553_1563" result="shape"/>
</filter>
<filter id="filter11_b_2553_1563" x="1270.27" y="666.398" width="185.205" height="185.205" filterUnits="userSpaceOnUse" color-interpolation-filters="sRGB">
<feFlood flood-opacity="0" result="BackgroundImageFix"/>
<feGaussianBlur in="BackgroundImageFix" stdDeviation="27.9892"/>
<feComposite in2="SourceAlpha" operator="in" result="effect1_backgroundBlur_2553_1563"/>
<feBlend mode="normal" in="SourceGraphic" in2="effect1_backgroundBlur_2553_1563" result="shape"/>
</filter>
<linearGradient id="paint0_linear_2553_1563" x1="1200.19" y1="1114" x2="1272.46" y2="1136.61" gradientUnits="userSpaceOnUse">
<stop stop-color="#292D32"/>
<stop offset="1" stop-color="#7B8A98"/>
</linearGradient>
<linearGradient id="paint1_linear_2553_1563" x1="1147.16" y1="1171.52" x2="1272.66" y2="1171.52" gradientUnits="userSpaceOnUse">
<stop stop-color="#262C33"/>
<stop offset="1" stop-color="#718599" stop-opacity="0"/>
</linearGradient>
<linearGradient id="paint2_linear_2553_1563" x1="1210.24" y1="1119.62" x2="1235.78" y2="1149.38" gradientUnits="userSpaceOnUse">
<stop stop-color="#F5FF9C"/>
<stop offset="0.41" stop-color="#E6FA36"/>
<stop offset="1" stop-color="#E6FA36" stop-opacity="0.83"/>
</linearGradient>
<linearGradient id="paint3_linear_2553_1563" x1="1162.84" y1="1169.64" x2="1256.96" y2="1169.64" gradientUnits="userSpaceOnUse">
<stop stop-color="#262C33"/>
<stop offset="1" stop-color="#718599" stop-opacity="0"/>
</linearGradient>
<linearGradient id="paint4_linear_2553_1563" x1="290.188" y1="1013" x2="362.461" y2="1035.61" gradientUnits="userSpaceOnUse">
<stop stop-color="#292D32"/>
<stop offset="1" stop-color="#7B8A98"/>
</linearGradient>
<linearGradient id="paint5_linear_2553_1563" x1="237.158" y1="1070.52" x2="362.656" y2="1070.52" gradientUnits="userSpaceOnUse">
<stop stop-color="#262C33"/>
<stop offset="1" stop-color="#718599" stop-opacity="0"/>
</linearGradient>
<linearGradient id="paint6_linear_2553_1563" x1="300.234" y1="1019.66" x2="325.175" y2="1048.72" gradientUnits="userSpaceOnUse">
<stop stop-color="#A6B8FB"/>
<stop offset="0.41" stop-color="#5877E7"/>
<stop offset="1" stop-color="#345CE3"/>
</linearGradient>
<linearGradient id="paint7_linear_2553_1563" x1="253.934" y1="1068.51" x2="345.859" y2="1068.51" gradientUnits="userSpaceOnUse">
<stop stop-color="#262C33"/>
<stop offset="1" stop-color="#718599" stop-opacity="0"/>
</linearGradient>
<linearGradient id="paint8_linear_2553_1563" x1="421.188" y1="298.003" x2="493.461" y2="320.614" gradientUnits="userSpaceOnUse">
<stop stop-color="#292D32"/>
<stop offset="1" stop-color="#7B8A98"/>
</linearGradient>
<linearGradient id="paint9_linear_2553_1563" x1="368.158" y1="355.522" x2="493.656" y2="355.522" gradientUnits="userSpaceOnUse">
<stop stop-color="#262C33"/>
<stop offset="1" stop-color="#718599" stop-opacity="0"/>
</linearGradient>
<linearGradient id="paint10_linear_2553_1563" x1="431.234" y1="304.659" x2="456.175" y2="333.721" gradientUnits="userSpaceOnUse">
<stop stop-color="#FF6262"/>
<stop offset="0.41" stop-color="#F80823"/>
<stop offset="1" stop-color="#C42436"/>
</linearGradient>
<linearGradient id="paint11_linear_2553_1563" x1="384.934" y1="353.51" x2="476.859" y2="353.51" gradientUnits="userSpaceOnUse">
<stop stop-color="#262C33"/>
<stop offset="1" stop-color="#718599" stop-opacity="0"/>
</linearGradient>
<linearGradient id="paint12_linear_2553_1563" x1="224.188" y1="650.001" x2="296.461" y2="672.612" gradientUnits="userSpaceOnUse">
<stop stop-color="#292D32"/>
<stop offset="1" stop-color="#7B8A98"/>
</linearGradient>
<linearGradient id="paint13_linear_2553_1563" x1="171.158" y1="707.52" x2="296.656" y2="707.52" gradientUnits="userSpaceOnUse">
<stop stop-color="#262C33"/>
<stop offset="1" stop-color="#718599" stop-opacity="0"/>
</linearGradient>
<linearGradient id="paint14_linear_2553_1563" x1="234.234" y1="656.657" x2="259.175" y2="685.72" gradientUnits="userSpaceOnUse">
<stop stop-color="#81B3FF"/>
<stop offset="0.41" stop-color="#0064FA"/>
<stop offset="1" stop-color="#064FBD"/>
</linearGradient>
<linearGradient id="paint15_linear_2553_1563" x1="187.934" y1="705.509" x2="279.859" y2="705.509" gradientUnits="userSpaceOnUse">
<stop stop-color="#262C33"/>
<stop offset="1" stop-color="#718599" stop-opacity="0"/>
</linearGradient>
<linearGradient id="paint16_linear_2553_1563" x1="1113.19" y1="273.003" x2="1185.46" y2="295.614" gradientUnits="userSpaceOnUse">
<stop stop-color="#292D32"/>
<stop offset="1" stop-color="#7B8A98"/>
</linearGradient>
<linearGradient id="paint17_linear_2553_1563" x1="1060.16" y1="330.522" x2="1185.66" y2="330.522" gradientUnits="userSpaceOnUse">
<stop stop-color="#262C33"/>
<stop offset="1" stop-color="#718599" stop-opacity="0"/>
</linearGradient>
<linearGradient id="paint18_linear_2553_1563" x1="1123.23" y1="279.659" x2="1148.17" y2="308.721" gradientUnits="userSpaceOnUse">
<stop stop-color="#F2F2F2"/>
<stop offset="0.41" stop-color="#B6B8CE"/>
<stop offset="1" stop-color="#5072AF"/>
</linearGradient>
<linearGradient id="paint19_linear_2553_1563" x1="1076.93" y1="328.51" x2="1168.86" y2="328.51" gradientUnits="userSpaceOnUse">
<stop stop-color="#262C33"/>
<stop offset="1" stop-color="#718599" stop-opacity="0"/>
</linearGradient>
<linearGradient id="paint20_linear_2553_1563" x1="1353.19" y1="709.001" x2="1425.46" y2="731.612" gradientUnits="userSpaceOnUse">
<stop stop-color="#292D32"/>
<stop offset="1" stop-color="#7B8A98"/>
</linearGradient>
<linearGradient id="paint21_linear_2553_1563" x1="1300.16" y1="766.52" x2="1425.66" y2="766.52" gradientUnits="userSpaceOnUse">
<stop stop-color="#262C33"/>
<stop offset="1" stop-color="#718599" stop-opacity="0"/>
</linearGradient>
<linearGradient id="paint22_linear_2553_1563" x1="1363.23" y1="715.657" x2="1388.17" y2="744.72" gradientUnits="userSpaceOnUse">
<stop stop-color="#F2F2F2"/>
<stop offset="0.41" stop-color="#19A29B"/>
<stop offset="1" stop-color="#12817B"/>
</linearGradient>
<linearGradient id="paint23_linear_2553_1563" x1="1316.93" y1="764.509" x2="1408.86" y2="764.509" gradientUnits="userSpaceOnUse">
<stop stop-color="#262C33"/>
<stop offset="1" stop-color="#718599" stop-opacity="0"/>
</linearGradient>
<clipPath id="clip0_2553_1563">
<rect width="32" height="32" fill="white" transform="translate(1193.87 1148)"/>
</clipPath>
<clipPath id="clip1_2553_1563">
<rect width="32" height="32" fill="white" transform="translate(414.869 332.003)"/>
</clipPath>
<clipPath id="clip2_2553_1563">
<rect width="32" height="44.1032" fill="white" transform="translate(217.869 678.001)"/>
</clipPath>
<clipPath id="clip3_2553_1563">
<rect width="32" height="29.8903" fill="white" transform="translate(1106.87 308.003)"/>
</clipPath>
</defs>
</svg>
