<svg width="1588" height="1588" viewBox="0 0 1588 1588" fill="none" xmlns="http://www.w3.org/2000/svg">
<g filter="url(#filter0_b_2553_1563)">
<circle cx="1014.87" cy="540.003" r="40" fill="url(#paint0_linear_2553_1563)" fill-opacity="0.4"/>
<circle cx="1014.87" cy="540.003" r="39.3631" stroke="url(#paint1_linear_2553_1563)" stroke-width="1.27371"/>
</g>
<g filter="url(#filter1_b_2553_1563)">
<circle cx="1014.87" cy="540.003" r="30" fill="url(#paint2_linear_2553_1563)"/>
<circle cx="1014.87" cy="540.003" r="29.5335" stroke="url(#paint3_linear_2553_1563)" stroke-width="0.932974"/>
</g>
<path d="M1014.84 527.14C1014.34 527.14 1013.94 527.544 1013.94 528.042V552.1C1013.94 552.599 1014.34 553.003 1014.84 553.003C1015.34 553.003 1015.74 552.599 1015.74 552.1V528.042C1015.74 527.544 1015.34 527.14 1014.84 527.14Z" fill="white"/>
<path d="M1014.84 527.14C1015.34 527.14 1015.74 527.544 1015.74 528.042V552.1C1015.74 552.599 1015.34 553.003 1014.84 553.003C1014.34 553.003 1013.94 552.599 1013.94 552.1V528.042C1013.94 527.544 1014.34 527.14 1014.84 527.14Z" stroke="white" stroke-width="0.136894"/>
<path d="M1027.98 540.03C1027.98 539.532 1027.57 539.128 1027.07 539.128H1003.01C1002.52 539.128 1002.11 539.532 1002.11 540.03C1002.11 540.528 1002.52 540.932 1003.01 540.932H1027.07C1027.57 540.932 1027.98 540.528 1027.98 540.03Z" fill="white"/>
<path d="M1027.98 540.03C1027.98 540.528 1027.57 540.932 1027.07 540.932H1003.01C1002.52 540.932 1002.11 540.528 1002.11 540.03C1002.11 539.532 1002.52 539.128 1003.01 539.128H1027.07C1027.57 539.128 1027.98 539.532 1027.98 540.03Z" stroke="white" stroke-width="0.136894"/>
<path d="M1024.2 549.262C1024.55 548.909 1024.55 548.338 1024.2 547.985L1007.19 530.974C1006.84 530.621 1006.26 530.621 1005.91 530.974C1005.56 531.326 1005.56 531.898 1005.91 532.25L1022.92 549.262C1023.28 549.614 1023.85 549.614 1024.2 549.262Z" fill="white"/>
<path d="M1024.2 549.262C1023.85 549.614 1023.28 549.614 1022.92 549.262L1005.91 532.25C1005.56 531.898 1005.56 531.326 1005.91 530.974C1006.26 530.621 1006.84 530.621 1007.19 530.974L1024.2 547.985C1024.55 548.338 1024.55 548.909 1024.2 549.262Z" stroke="white" stroke-width="0.136894"/>
<path d="M1002.13 552.672C1002.49 553.024 1003.06 553.024 1003.41 552.672L1027.54 528.543C1027.89 528.191 1027.89 527.62 1027.54 527.267C1027.18 526.915 1026.61 526.915 1026.26 527.267L1002.13 551.396C1001.78 551.748 1001.78 552.319 1002.13 552.672Z" fill="white"/>
<path d="M1002.13 552.672C1001.78 552.319 1001.78 551.748 1002.13 551.396L1026.26 527.267C1026.61 526.915 1027.18 526.915 1027.54 527.267C1027.89 527.62 1027.89 528.191 1027.54 528.543L1003.41 552.672C1003.06 553.024 1002.49 553.024 1002.13 552.672Z" stroke="white" stroke-width="0.136894"/>
<g filter="url(#filter2_b_2553_1563)">
<circle cx="1115.87" cy="804.001" r="40" fill="url(#paint4_linear_2553_1563)" fill-opacity="0.4"/>
<circle cx="1115.87" cy="804.001" r="39.3631" stroke="url(#paint5_linear_2553_1563)" stroke-width="1.27371"/>
</g>
<g filter="url(#filter3_b_2553_1563)">
<circle cx="1115.87" cy="804.001" r="30" fill="url(#paint6_linear_2553_1563)"/>
<circle cx="1115.87" cy="804.001" r="29.5335" stroke="url(#paint7_linear_2553_1563)" stroke-width="0.932974"/>
</g>
<g clip-path="url(#clip0_2553_1563)">
<path d="M1112.85 795.338C1112.5 795.288 1112.48 795.271 1112.65 795.255C1112.97 795.205 1113.7 795.271 1114.21 795.388C1115.41 795.67 1116.49 796.403 1117.64 797.684L1117.94 798.033L1118.37 797.966C1120.22 797.667 1122.12 797.9 1123.7 798.632C1124.13 798.832 1124.81 799.231 1124.89 799.331C1124.93 799.364 1124.98 799.58 1125.01 799.796C1125.13 800.578 1125.08 801.161 1124.83 801.61C1124.69 801.859 1124.69 801.926 1124.78 802.142C1124.84 802.309 1125.04 802.425 1125.23 802.425C1125.63 802.425 1126.04 801.793 1126.24 800.911L1126.33 800.562L1126.47 800.728C1127.32 801.676 1127.99 802.991 1128.09 803.922L1128.12 804.172L1127.97 803.956C1127.72 803.573 1127.49 803.323 1127.17 803.107C1126.61 802.725 1126.01 802.608 1124.43 802.525C1123 802.442 1122.18 802.325 1121.38 802.059C1120.02 801.61 1119.32 801.028 1117.71 798.881C1116.99 797.933 1116.54 797.417 1116.09 796.985C1115.11 796.036 1114.13 795.537 1112.85 795.338Z" fill="white"/>
<path d="M1125.24 797.451C1125.28 796.819 1125.36 796.403 1125.54 796.02C1125.61 795.87 1125.68 795.737 1125.69 795.737C1125.71 795.737 1125.68 795.854 1125.63 795.987C1125.49 796.353 1125.48 796.869 1125.56 797.451C1125.68 798.2 1125.73 798.299 1126.52 799.115C1126.89 799.497 1127.32 799.98 1127.49 800.179L1127.77 800.545L1127.49 800.279C1127.14 799.946 1126.34 799.314 1126.16 799.231C1126.04 799.165 1126.03 799.165 1125.94 799.248C1125.88 799.314 1125.86 799.414 1125.86 799.897C1125.84 800.645 1125.74 801.111 1125.49 801.594C1125.36 801.843 1125.34 801.793 1125.46 801.51C1125.54 801.294 1125.56 801.194 1125.56 800.479C1125.56 799.031 1125.39 798.682 1124.38 798.1C1124.13 797.95 1123.7 797.734 1123.45 797.617C1123.18 797.501 1122.98 797.401 1123 797.401C1123.03 797.368 1124.01 797.651 1124.4 797.817C1124.98 798.05 1125.08 798.066 1125.14 798.05C1125.19 798 1125.23 797.867 1125.24 797.451Z" fill="white"/>
<path d="M1113.53 799.93C1112.83 798.965 1112.38 797.467 1112.48 796.353L1112.52 796.003L1112.68 796.037C1112.98 796.087 1113.5 796.286 1113.75 796.436C1114.41 796.835 1114.71 797.384 1115 798.749C1115.08 799.148 1115.19 799.614 1115.24 799.763C1115.33 800.013 1115.64 800.595 1115.91 800.961C1116.09 801.227 1115.98 801.361 1115.56 801.327C1114.93 801.261 1114.08 800.678 1113.53 799.93Z" fill="white"/>
<path d="M1124.4 807.167C1121.1 805.836 1119.94 804.688 1119.94 802.741C1119.94 802.459 1119.95 802.226 1119.95 802.226C1119.97 802.226 1120.09 802.325 1120.24 802.442C1120.9 802.974 1121.65 803.207 1123.73 803.507C1124.94 803.69 1125.64 803.823 1126.28 804.039C1128.29 804.704 1129.54 806.069 1129.84 807.915C1129.92 808.448 1129.87 809.463 1129.74 809.995C1129.62 810.411 1129.29 811.176 1129.2 811.193C1129.19 811.193 1129.15 811.11 1129.15 810.977C1129.12 810.278 1128.77 809.612 1128.19 809.097C1127.49 808.498 1126.59 808.049 1124.4 807.167Z" fill="white"/>
<path d="M1122.07 807.716C1122.03 807.466 1121.95 807.15 1121.9 807.017L1121.82 806.768L1121.97 806.951C1122.18 807.2 1122.35 807.5 1122.5 807.916C1122.61 808.232 1122.61 808.331 1122.61 808.847C1122.61 809.346 1122.6 809.463 1122.5 809.746C1122.33 810.195 1122.13 810.511 1121.8 810.86C1121.2 811.476 1120.42 811.809 1119.3 811.958C1119.1 811.975 1118.54 812.025 1118.04 812.058C1116.79 812.125 1115.96 812.258 1115.21 812.524C1115.11 812.557 1115.01 812.591 1115 812.574C1114.96 812.541 1115.48 812.241 1115.89 812.041C1116.48 811.759 1117.07 811.609 1118.39 811.376C1119.04 811.276 1119.7 811.143 1119.87 811.077C1121.52 810.561 1122.33 809.28 1122.07 807.716Z" fill="white"/>
<path d="M1123.58 810.394C1123.15 809.446 1123.05 808.548 1123.28 807.699C1123.31 807.616 1123.35 807.533 1123.38 807.533C1123.41 807.533 1123.51 807.583 1123.61 807.649C1123.81 807.782 1124.23 808.015 1125.29 808.597C1126.64 809.33 1127.41 809.895 1127.94 810.544C1128.4 811.11 1128.69 811.759 1128.82 812.557C1128.9 813.006 1128.85 814.088 1128.74 814.537C1128.37 815.951 1127.54 817.082 1126.33 817.731C1126.14 817.831 1125.99 817.898 1125.98 817.898C1125.96 817.898 1126.03 817.731 1126.13 817.532C1126.52 816.683 1126.57 815.868 1126.28 814.953C1126.09 814.387 1125.71 813.705 1124.94 812.557C1124.03 811.226 1123.81 810.877 1123.58 810.394Z" fill="white"/>
<path d="M1111.19 815.485C1112.42 814.454 1113.93 813.722 1115.33 813.489C1115.93 813.389 1116.93 813.422 1117.47 813.572C1118.36 813.805 1119.15 814.304 1119.57 814.919C1119.97 815.518 1120.15 816.034 1120.34 817.182C1120.4 817.631 1120.49 818.097 1120.5 818.197C1120.64 818.796 1120.9 819.262 1121.23 819.511C1121.75 819.894 1122.65 819.911 1123.53 819.578C1123.68 819.528 1123.81 819.478 1123.81 819.495C1123.85 819.528 1123.4 819.827 1123.1 819.977C1122.68 820.193 1122.35 820.26 1121.9 820.26C1121.1 820.26 1120.42 819.844 1119.87 819.012C1119.75 818.846 1119.52 818.363 1119.32 817.914C1118.74 816.567 1118.44 816.167 1117.76 815.718C1117.16 815.335 1116.39 815.252 1115.81 815.535C1115.05 815.901 1114.85 816.883 1115.38 817.482C1115.59 817.731 1115.99 817.931 1116.33 817.981C1116.94 818.064 1117.47 817.581 1117.47 816.966C1117.47 816.567 1117.32 816.334 1116.93 816.151C1116.39 815.918 1115.81 816.184 1115.83 816.7C1115.83 816.916 1115.93 817.049 1116.14 817.149C1116.28 817.215 1116.28 817.215 1116.18 817.199C1115.69 817.099 1115.58 816.5 1115.96 816.117C1116.43 815.652 1117.41 815.851 1117.74 816.5C1117.87 816.766 1117.89 817.299 1117.77 817.631C1117.49 818.363 1116.69 818.746 1115.88 818.53C1115.33 818.38 1115.09 818.23 1114.43 817.548C1113.26 816.35 1112.82 816.117 1111.15 815.868L1110.84 815.818L1111.19 815.485Z" fill="white"/>
<path fill-rule="evenodd" clip-rule="evenodd" d="M1102.43 788.716C1106.31 793.425 1112.28 800.745 1112.58 801.144C1112.83 801.477 1112.73 801.793 1112.32 802.026C1112.08 802.159 1111.6 802.292 1111.37 802.292C1111.1 802.292 1110.79 802.159 1110.57 801.943C1110.42 801.793 1109.77 800.845 1108.31 798.565C1107.19 796.819 1106.24 795.371 1106.23 795.355C1106.16 795.321 1106.16 795.321 1108.19 798.948C1109.47 801.227 1109.89 802.043 1109.89 802.142C1109.89 802.359 1109.82 802.475 1109.55 802.775C1109.11 803.274 1108.91 803.839 1108.76 805.021C1108.59 806.335 1108.14 807.267 1106.86 808.847C1106.11 809.779 1105.99 809.945 1105.81 810.328C1105.58 810.794 1105.51 811.06 1105.48 811.659C1105.45 812.291 1105.51 812.69 1105.69 813.289C1105.86 813.822 1106.04 814.171 1106.49 814.853C1106.88 815.452 1107.11 815.901 1107.11 816.068C1107.11 816.201 1107.14 816.201 1107.74 816.068C1109.17 815.735 1110.35 815.169 1111 814.47C1111.4 814.038 1111.5 813.805 1111.5 813.206C1111.5 812.823 1111.48 812.74 1111.38 812.507C1111.22 812.141 1110.9 811.842 1110.22 811.376C1109.32 810.76 1108.94 810.261 1108.84 809.596C1108.76 809.03 1108.86 808.647 1109.36 807.599C1109.87 806.518 1110 806.069 1110.09 804.971C1110.14 804.272 1110.22 803.989 1110.42 803.773C1110.64 803.54 1110.82 803.457 1111.33 803.39C1112.18 803.274 1112.73 803.057 1113.16 802.642C1113.55 802.292 1113.71 801.943 1113.73 801.427L1113.75 801.044L1113.53 800.811C1112.75 799.913 1101.92 788.001 1101.87 788.001C1101.85 788.001 1102.12 788.317 1102.43 788.716ZM1107.54 812.374C1107.72 812.058 1107.62 811.659 1107.33 811.459C1107.04 811.276 1106.61 811.359 1106.61 811.609C1106.61 811.675 1106.64 811.742 1106.74 811.775C1106.89 811.858 1106.91 811.942 1106.79 812.125C1106.68 812.308 1106.68 812.474 1106.83 812.59C1107.06 812.773 1107.38 812.674 1107.54 812.374Z" fill="white"/>
<path fill-rule="evenodd" clip-rule="evenodd" d="M1114.28 803.623C1113.88 803.74 1113.5 804.172 1113.38 804.605C1113.32 804.871 1113.35 805.353 1113.46 805.503C1113.65 805.736 1113.81 805.803 1114.28 805.803C1115.2 805.803 1115.98 805.403 1116.06 804.921C1116.14 804.522 1115.79 803.973 1115.31 803.723C1115.06 803.59 1114.55 803.54 1114.28 803.623ZM1115.34 804.455C1115.48 804.255 1115.43 804.039 1115.18 803.889C1114.73 803.607 1114.05 803.839 1114.05 804.272C1114.05 804.488 1114.4 804.721 1114.73 804.721C1114.95 804.721 1115.24 804.588 1115.34 804.455Z" fill="white"/>
</g>
<g filter="url(#filter4_b_2553_1563)">
<circle cx="623.869" cy="490.003" r="40" fill="url(#paint8_linear_2553_1563)" fill-opacity="0.4"/>
<circle cx="623.869" cy="490.003" r="39.3631" stroke="url(#paint9_linear_2553_1563)" stroke-width="1.27371"/>
</g>
<g filter="url(#filter5_b_2553_1563)">
<circle cx="623.869" cy="490.003" r="30" fill="url(#paint10_linear_2553_1563)"/>
<circle cx="623.869" cy="490.003" r="29.5335" stroke="url(#paint11_linear_2553_1563)" stroke-width="0.932974"/>
</g>
<path d="M618.455 490.259C618.149 489.952 617.86 489.661 617.57 489.37C616.947 488.746 616.324 488.122 615.7 487.498C615.01 486.808 614.32 486.12 613.63 485.431C613.466 485.267 613.306 485.099 613.137 484.941C613.06 484.87 613.066 484.825 613.136 484.756C613.652 484.245 614.166 483.732 614.68 483.219C615.021 482.88 615.361 482.54 615.701 482.2C615.727 482.173 615.756 482.149 615.796 482.113C615.978 482.298 616.152 482.478 616.329 482.655C617.026 483.352 617.724 484.049 618.422 484.746C618.976 485.3 619.531 485.854 620.086 486.408C620.837 487.159 621.588 487.91 622.339 488.661C622.533 488.855 622.735 489.041 622.87 489.286C623.088 489.678 623.169 490.09 623.105 490.538C623.034 491.038 622.775 491.423 622.426 491.766C621.916 492.27 621.411 492.779 620.904 493.286C620.363 493.827 619.822 494.369 619.281 494.91C618.742 495.448 618.202 495.986 617.663 496.524C617.064 497.123 616.466 497.723 615.868 498.321C615.848 498.341 615.825 498.358 615.789 498.388C615.674 498.274 615.557 498.16 615.442 498.045C614.677 497.281 613.913 496.516 613.149 495.752C613.051 495.654 613.05 495.653 613.151 495.552C613.804 494.898 614.457 494.245 615.11 493.592C616.103 492.6 617.095 491.607 618.088 490.615C618.207 490.497 618.329 490.382 618.456 490.26L618.455 490.259Z" fill="#F1F1F1"/>
<path d="M624.228 489.157C623.643 489.14 623.168 488.903 622.767 488.486C622.341 488.043 621.902 487.612 621.467 487.177C620.907 486.617 620.347 486.058 619.787 485.499C619.033 484.747 618.279 483.996 617.526 483.244C617.068 482.787 616.615 482.327 616.157 481.872C616.099 481.814 616.118 481.778 616.164 481.732C616.843 481.055 617.521 480.378 618.2 479.701C618.381 479.52 618.564 479.34 618.742 479.155C618.804 479.091 618.843 479.083 618.912 479.152C619.685 479.928 620.461 480.701 621.235 481.476C622.156 482.396 623.076 483.317 623.997 484.237C624.073 484.313 624.155 484.433 624.238 484.437C624.312 484.44 624.394 484.312 624.468 484.238C625.348 483.356 626.226 482.473 627.107 481.592C627.927 480.772 628.75 479.955 629.569 479.135C629.636 479.067 629.672 479.106 629.716 479.149C630.193 479.625 630.67 480.102 631.147 480.579C631.53 480.961 631.911 481.345 632.296 481.725C632.361 481.79 632.361 481.83 632.295 481.896C631.358 482.828 630.423 483.763 629.489 484.698C628.638 485.549 627.791 486.402 626.94 487.253C626.472 487.72 626.002 488.185 625.527 488.646C625.268 488.898 624.952 489.048 624.595 489.107C624.473 489.128 624.35 489.14 624.228 489.157L624.228 489.157Z" fill="#F1F1F1"/>
<path d="M632.688 482.094C632.872 482.286 633.051 482.479 633.236 482.665C633.929 483.362 634.623 484.057 635.32 484.75C635.385 484.814 635.398 484.851 635.326 484.923C634.392 485.851 633.462 486.783 632.531 487.714C631.717 488.528 630.902 489.342 630.088 490.156C630.063 490.18 630.04 490.206 630.004 490.245C630.17 490.409 630.333 490.566 630.493 490.726C631.245 491.478 631.994 492.232 632.746 492.985C633.405 493.645 634.067 494.303 634.728 494.962C634.929 495.163 635.131 495.364 635.334 495.564C635.388 495.618 635.407 495.661 635.34 495.727C634.469 496.592 633.6 497.46 632.731 498.327C632.716 498.341 632.698 498.354 632.671 498.376C632.528 498.235 632.384 498.096 632.243 497.955C631.538 497.251 630.834 496.547 630.13 495.843C629.334 495.047 628.539 494.25 627.742 493.455C627.139 492.852 626.536 492.25 625.931 491.649C625.665 491.385 625.464 491.078 625.384 490.714C625.232 490.023 625.381 489.397 625.885 488.886C626.758 488.002 627.641 487.129 628.52 486.251C629.373 485.398 630.226 484.545 631.079 483.692C631.582 483.189 632.083 482.684 632.586 482.18C632.608 482.158 632.634 482.139 632.688 482.093L632.688 482.094Z" fill="#F1F1F1"/>
<path d="M616.073 498.666C616.394 498.352 616.716 498.043 617.033 497.729C617.565 497.202 618.095 496.673 618.625 496.143C619.33 495.437 620.034 494.73 620.74 494.024C621.445 493.318 622.144 492.606 622.86 491.911C623.424 491.364 624.097 491.223 624.848 491.452C625.192 491.557 625.459 491.776 625.708 492.026C626.374 492.696 627.043 493.363 627.711 494.031C628.444 494.765 629.178 495.499 629.912 496.232C630.616 496.936 631.321 497.639 632.026 498.342C632.123 498.438 632.217 498.538 632.315 498.633C632.375 498.69 632.334 498.727 632.296 498.765C632.073 498.988 631.85 499.21 631.627 499.432C630.991 500.068 630.355 500.703 629.721 501.341C629.654 501.409 629.615 501.413 629.544 501.342C628.757 500.549 627.968 499.76 627.178 498.97C626.307 498.098 625.435 497.227 624.562 496.356C624.476 496.27 624.38 496.19 624.301 496.097C624.239 496.024 624.2 496.036 624.141 496.096C623.586 496.654 623.03 497.21 622.474 497.766C621.328 498.912 620.182 500.057 619.036 501.203C618.988 501.25 618.938 501.294 618.895 501.345C618.842 501.408 618.804 501.411 618.743 501.348C618.401 501 618.054 500.657 617.708 500.312C617.192 499.796 616.675 499.28 616.159 498.764C616.136 498.741 616.117 498.716 616.073 498.665L616.073 498.666Z" fill="#F1F1F1"/>
<g filter="url(#filter6_b_2553_1563)">
<circle cx="477.869" cy="874.001" r="40" fill="url(#paint12_linear_2553_1563)" fill-opacity="0.4"/>
<circle cx="477.869" cy="874.001" r="39.3631" stroke="url(#paint13_linear_2553_1563)" stroke-width="1.27371"/>
</g>
<g filter="url(#filter7_b_2553_1563)">
<circle cx="477.869" cy="874.001" r="30" fill="url(#paint14_linear_2553_1563)"/>
<circle cx="477.869" cy="874.001" r="29.5335" stroke="url(#paint15_linear_2553_1563)" stroke-width="0.932974"/>
</g>
<g clip-path="url(#clip1_2553_1563)">
<path d="M471.174 865.832V862.043H486.274C488.302 862.043 489.947 863.74 489.947 865.832H471.174Z" fill="white"/>
<path d="M486.273 867.096L486.274 886.885C488.302 886.885 489.946 885.189 489.946 883.096V867.517H486.274L486.273 867.096Z" fill="white"/>
<path d="M485.049 883.096H484.641V886.885H469.542C467.513 886.885 465.869 885.189 465.869 883.096H485.049Z" fill="white"/>
<path d="M469.542 862.043V881.411H465.869V865.832C465.869 863.74 467.513 862.043 469.542 862.043Z" fill="white"/>
<path d="M477.561 869.622C477.189 869.622 476.887 869.926 476.887 870.3V872.99H474.296C473.924 872.99 473.622 873.294 473.622 873.669V874.839C473.622 875.213 473.924 875.517 474.296 875.517H476.887V878.207C476.887 878.582 477.189 878.885 477.561 878.885H478.662C479.034 878.885 479.336 878.582 479.336 878.207V875.517H481.926C482.298 875.517 482.6 875.213 482.6 874.839V873.669C482.6 873.294 482.298 872.99 481.926 872.99H479.336V870.3C479.336 869.926 479.034 869.622 478.662 869.622H477.561Z" fill="white"/>
</g>
<g filter="url(#filter8_b_2553_1563)">
<ellipse cx="983.869" cy="1074.51" rx="40" ry="39.5062" fill="url(#paint16_linear_2553_1563)" fill-opacity="0.4"/>
<path d="M1023.23 1074.51C1023.23 1095.97 1005.62 1113.38 983.869 1113.38C962.122 1113.38 944.506 1095.97 944.506 1074.51C944.506 1053.05 962.122 1035.64 983.869 1035.64C1005.62 1035.64 1023.23 1053.05 1023.23 1074.51Z" stroke="url(#paint17_linear_2553_1563)" stroke-width="1.27371"/>
</g>
<g filter="url(#filter9_b_2553_1563)">
<circle cx="983.868" cy="1074.01" r="31.1111" fill="url(#paint18_linear_2553_1563)"/>
<circle cx="983.868" cy="1074.01" r="30.6446" stroke="url(#paint19_linear_2553_1563)" stroke-width="0.932974"/>
</g>
<g filter="url(#filter10_b_2553_1563)">
<path fill-rule="evenodd" clip-rule="evenodd" d="M985.459 1058.89C985.091 1059.05 984.67 1059.05 984.302 1058.89L982.198 1057.82C981.882 1057.66 981.882 1057.56 982.251 1057.56L986.827 1057.77C987.195 1057.77 987.247 1057.93 986.879 1058.14L985.459 1058.89ZM975.781 1060.91C975.518 1061.12 975.571 1061.23 975.939 1061.18L983.092 1059.68C983.46 1059.63 983.46 1059.42 983.145 1059.26L980.462 1057.87C980.094 1057.71 979.673 1057.77 979.358 1057.98L975.781 1060.91ZM986.511 1059.79C986.143 1059.69 986.143 1059.42 986.458 1059.26L988.299 1058.25C988.668 1058.09 989.088 1058.14 989.351 1058.35L993.191 1061.81C993.454 1062.08 993.401 1062.13 993.086 1062.03L986.511 1059.79ZM979.095 1067.62C979.199 1067.72 979.322 1067.83 979.47 1067.82C979.619 1067.8 979.761 1067.71 979.831 1067.57L983.776 1060.8C983.934 1060.48 983.829 1060.32 983.46 1060.38L975.248 1062.01C975.183 1062.02 975.12 1062.04 975.057 1062.07V1062.07C974.987 1062.09 974.924 1062.11 974.887 1062.19V1062.19C974.673 1062.51 975.067 1062.87 975.319 1063.17L979.095 1067.62V1067.62ZM990.088 1066.66C990.351 1066.93 990.719 1066.93 990.929 1066.71L993.942 1064.16C994.107 1064.02 994.348 1063.89 994.348 1063.68V1063.68V1063.68C994.348 1063.32 993.86 1063.25 993.521 1063.13L986.511 1060.7C986.143 1060.54 986.038 1060.7 986.248 1061.02L989.993 1066.54C990.021 1066.59 990.053 1066.62 990.088 1066.66V1066.66ZM988.965 1066.32C989.187 1066.65 989.578 1067.07 989.299 1067.35V1067.35C989.246 1067.41 989.141 1067.46 989.036 1067.46L980.988 1068.31C980.62 1068.36 980.462 1068.1 980.673 1067.78L984.618 1060.96C984.723 1060.75 984.933 1060.64 985.144 1060.75C985.249 1060.8 985.301 1060.86 985.354 1060.96L988.965 1066.32ZM972.993 1061.76C973.099 1061.92 972.993 1062.24 972.73 1062.45L971.205 1063.84C970.942 1064.1 970.889 1064.05 971.1 1063.73L971.926 1062.58C972.216 1062.18 972.719 1061.35 972.993 1061.76V1061.76ZM978.516 1068.2C978.674 1068.36 978.674 1068.68 978.516 1068.84V1068.84C978.403 1068.96 978.229 1068.98 978.08 1069.04L971.1 1071.88C970.784 1072.04 970.574 1071.82 970.732 1071.51L973.677 1063.41C973.73 1063.2 973.888 1063.09 974.098 1063.09C974.203 1063.09 974.308 1063.2 974.361 1063.25L978.516 1068.2ZM976.319 1078.34C976.41 1078.39 976.521 1078.4 976.617 1078.37C976.665 1078.35 976.71 1078.32 976.747 1078.28C976.854 1078.16 976.853 1077.98 976.893 1077.82L978.884 1070.07C978.937 1069.75 978.727 1069.54 978.411 1069.69L971.317 1072.56C971.208 1072.6 971.095 1072.64 971.009 1072.72V1072.72C970.965 1072.76 970.922 1072.81 970.904 1072.86C970.882 1072.94 970.882 1073.02 970.901 1073.09C970.946 1073.27 971.113 1073.38 971.244 1073.5L976.08 1078.1C976.16 1078.17 976.221 1078.28 976.319 1078.34V1078.34ZM971.941 1082.47C971.994 1082.85 972.31 1082.95 972.573 1082.69L975.781 1079.86L975.834 1079.81C976.044 1079.55 976.044 1079.17 975.781 1078.96L970.889 1074.33C970.626 1074.11 970.469 1074.17 970.521 1074.54L971.941 1082.47ZM970.679 1081.46C970.889 1081.78 970.995 1081.73 970.942 1081.36L969.732 1074.38C969.68 1074.06 969.417 1073.95 969.206 1074.27L967.944 1075.98C967.734 1076.35 967.681 1076.78 967.891 1077.1L970.679 1081.46ZM970.048 1070.97C969.943 1071.29 969.732 1071.29 969.627 1070.97L968.68 1068.1C968.575 1067.72 968.68 1067.3 968.943 1067.03L972.362 1063.89C972.625 1063.63 972.73 1063.73 972.625 1064.05L970.048 1070.97ZM968.943 1073.26C969.206 1072.94 969.259 1072.52 969.154 1072.09L968.365 1069.85C968.26 1069.54 968.154 1069.54 968.102 1069.91L967.628 1074.49C967.576 1074.81 967.734 1074.91 967.944 1074.59L968.943 1073.26ZM982.145 1086.41C982.356 1086.52 982.566 1086.41 982.671 1086.2L986.564 1079.33C986.774 1079.01 986.616 1078.75 986.248 1078.8L978.201 1079.65C978.095 1079.65 977.99 1079.71 977.938 1079.76V1079.76C977.658 1080.04 978.05 1080.46 978.273 1080.79L981.935 1086.2C981.988 1086.31 982.04 1086.36 982.145 1086.41ZM980.988 1086.2C981.199 1086.52 981.093 1086.68 980.725 1086.52L973.716 1084.09C973.377 1083.97 972.888 1083.9 972.888 1083.54V1083.54V1083.54C972.888 1083.32 973.128 1083.2 973.291 1083.06L976.254 1080.45C976.465 1080.24 976.833 1080.24 977.096 1080.5V1080.5C977.131 1080.54 977.163 1080.58 977.191 1080.62L980.988 1086.2ZM986.248 1078.11C986.616 1078.05 986.721 1077.79 986.458 1077.52L980.199 1070.17C979.989 1069.91 979.726 1069.96 979.621 1070.33L977.603 1078.24C977.581 1078.33 977.569 1078.42 977.569 1078.51V1078.51C977.569 1078.6 977.574 1078.69 977.623 1078.76C977.677 1078.84 977.759 1078.9 977.85 1078.94C978.005 1079 978.179 1078.95 978.345 1078.93L986.248 1078.11ZM991.91 1083.95C992.167 1084.24 992.563 1084.6 992.349 1084.92V1084.92C992.313 1085 992.25 1085.02 992.179 1085.04L992.179 1085.04C992.179 1085.04 992.179 1085.04 992.179 1085.04V1085.04L992.179 1085.04L992.179 1085.04V1085.04C992.116 1085.07 992.054 1085.09 991.989 1085.1L983.776 1086.84C983.408 1086.89 983.303 1086.73 983.46 1086.41L987.353 1079.65C987.445 1079.46 987.66 1079.36 987.853 1079.41C987.907 1079.42 987.951 1079.46 987.995 1079.49V1079.49V1079.49C988.07 1079.55 988.123 1079.64 988.185 1079.71L991.91 1083.95ZM977.885 1088.81C978.148 1089.02 978.569 1089.08 978.937 1088.92L980.778 1087.96C981.093 1087.8 981.093 1087.53 980.725 1087.43L974.151 1085.14C973.835 1085.03 973.782 1085.08 974.045 1085.35L977.885 1088.81ZM987.879 1089.24C987.563 1089.45 987.142 1089.5 986.774 1089.34L984.092 1087.96C983.776 1087.8 983.776 1087.59 984.144 1087.53L991.297 1085.99C991.666 1085.93 991.718 1086.04 991.455 1086.25L987.879 1089.24ZM980.357 1089.02C979.989 1089.24 980.041 1089.4 980.41 1089.4L984.986 1089.56C985.354 1089.56 985.354 1089.45 985.038 1089.29L982.934 1088.22C982.566 1088.06 982.145 1088.06 981.777 1088.22L980.357 1089.02ZM993.612 1085.99C993.717 1086.15 993.559 1086.41 993.244 1086.57L991.35 1087.59C991.034 1087.74 990.982 1087.69 991.297 1087.48L992.875 1086.15C993.191 1085.88 993.507 1085.83 993.612 1085.99ZM988.352 1076.99C988.299 1077.36 988.51 1077.58 988.825 1077.42L995.866 1074.55C995.975 1074.51 996.089 1074.47 996.175 1074.39V1074.39C996.219 1074.35 996.262 1074.3 996.28 1074.25C996.302 1074.17 996.302 1074.09 996.282 1074.02C996.238 1073.84 996.071 1073.73 995.94 1073.61L991.104 1069.01C991.023 1068.94 990.962 1068.83 990.865 1068.77V1068.77C990.774 1068.72 990.663 1068.71 990.566 1068.74C990.518 1068.76 990.472 1068.79 990.435 1068.84C990.33 1068.96 990.331 1069.13 990.292 1069.29L988.352 1076.99ZM996.715 1072.62C996.768 1073 996.61 1073.05 996.347 1072.84L991.455 1068.2C991.192 1067.99 991.192 1067.62 991.403 1067.35L991.455 1067.3L994.664 1064.48C994.927 1064.21 995.242 1064.32 995.295 1064.69L996.715 1072.62ZM993.138 1084.07C993.349 1084.07 993.507 1083.96 993.559 1083.75L996.505 1075.71C996.662 1075.39 996.452 1075.18 996.136 1075.34L989.156 1078.18C989.007 1078.24 988.833 1078.26 988.72 1078.37V1078.37C988.562 1078.53 988.562 1078.85 988.72 1079.01L992.875 1083.91C992.928 1083.96 993.033 1084.07 993.138 1084.07ZM999.345 1070.12C999.555 1070.44 999.503 1070.87 999.292 1071.24L998.03 1072.94C997.82 1073.26 997.557 1073.16 997.504 1072.84L996.242 1065.91C996.189 1065.54 996.294 1065.49 996.505 1065.81L999.345 1070.12ZM998.293 1080.18C998.556 1079.92 998.661 1079.49 998.556 1079.12L997.557 1076.24C997.451 1075.92 997.241 1075.92 997.136 1076.24L994.611 1083.17C994.506 1083.49 994.611 1083.59 994.874 1083.33L998.293 1080.18ZM999.082 1077.31C999.029 1077.68 998.924 1077.68 998.819 1077.36L998.083 1075.07C997.977 1074.65 998.03 1074.22 998.293 1073.9L999.292 1072.57C999.503 1072.25 999.661 1072.36 999.608 1072.68L999.082 1077.31ZM994.19 1085.46C994.348 1085.62 994.611 1085.51 994.822 1085.19L996.084 1083.49C996.294 1083.17 996.242 1083.11 995.979 1083.38L994.453 1084.76C994.19 1084.98 994.033 1085.3 994.19 1085.46ZM987.616 1076.83C987.51 1077.2 987.247 1077.26 987.037 1076.99L980.778 1069.64C980.515 1069.38 980.62 1069.11 980.988 1069.06L988.892 1068.23C989.058 1068.21 989.232 1068.16 989.387 1068.23C989.477 1068.26 989.56 1068.33 989.613 1068.4C989.662 1068.48 989.667 1068.57 989.667 1068.65V1068.65C989.667 1068.74 989.656 1068.83 989.634 1068.92L987.616 1076.83ZM973.624 1061.23C973.73 1061.39 974.098 1061.28 974.361 1061.07L975.939 1059.74C976.254 1059.53 976.202 1059.47 975.886 1059.63L973.993 1060.64C973.677 1060.8 973.519 1061.07 973.624 1061.23ZM971.861 1084.55C971.811 1084.35 971.99 1084.26 972.182 1084.32C972.315 1084.36 972.459 1084.46 972.573 1084.6L973.94 1086.15C974.203 1086.41 974.151 1086.47 973.835 1086.25L972.431 1085.22C972.211 1085.06 971.928 1084.81 971.861 1084.55V1084.55ZM996.399 1063.84V1063.84C996.174 1063.38 995.688 1063.75 995.958 1064.18C995.965 1064.19 995.972 1064.2 995.979 1064.21L997.294 1065.81C997.504 1066.13 997.557 1066.07 997.399 1065.76L996.399 1063.84ZM995.032 1062.24V1062.24C995.466 1062.53 994.936 1063.02 994.611 1062.61V1062.61L993.244 1061.07C992.981 1060.8 993.033 1060.75 993.349 1060.96L995.032 1062.24ZM971.363 1083.75C971.521 1083.64 971.415 1083.27 971.205 1083.01L969.89 1081.41C969.68 1081.09 969.627 1081.14 969.785 1081.46L970.784 1083.38C970.942 1083.7 971.205 1083.86 971.363 1083.75Z" fill="white"/>
</g>
<defs>
<filter id="filter0_b_2553_1563" x="898.446" y="423.58" width="232.846" height="232.846" filterUnits="userSpaceOnUse" color-interpolation-filters="sRGB">
<feFlood flood-opacity="0" result="BackgroundImageFix"/>
<feGaussianBlur in="BackgroundImageFix" stdDeviation="38.2114"/>
<feComposite in2="SourceAlpha" operator="in" result="effect1_backgroundBlur_2553_1563"/>
<feBlend mode="normal" in="SourceGraphic" in2="effect1_backgroundBlur_2553_1563" result="shape"/>
</filter>
<filter id="filter1_b_2553_1563" x="928.89" y="454.024" width="171.957" height="171.957" filterUnits="userSpaceOnUse" color-interpolation-filters="sRGB">
<feFlood flood-opacity="0" result="BackgroundImageFix"/>
<feGaussianBlur in="BackgroundImageFix" stdDeviation="27.9892"/>
<feComposite in2="SourceAlpha" operator="in" result="effect1_backgroundBlur_2553_1563"/>
<feBlend mode="normal" in="SourceGraphic" in2="effect1_backgroundBlur_2553_1563" result="shape"/>
</filter>
<filter id="filter2_b_2553_1563" x="999.446" y="687.578" width="232.846" height="232.846" filterUnits="userSpaceOnUse" color-interpolation-filters="sRGB">
<feFlood flood-opacity="0" result="BackgroundImageFix"/>
<feGaussianBlur in="BackgroundImageFix" stdDeviation="38.2114"/>
<feComposite in2="SourceAlpha" operator="in" result="effect1_backgroundBlur_2553_1563"/>
<feBlend mode="normal" in="SourceGraphic" in2="effect1_backgroundBlur_2553_1563" result="shape"/>
</filter>
<filter id="filter3_b_2553_1563" x="1029.89" y="718.023" width="171.957" height="171.957" filterUnits="userSpaceOnUse" color-interpolation-filters="sRGB">
<feFlood flood-opacity="0" result="BackgroundImageFix"/>
<feGaussianBlur in="BackgroundImageFix" stdDeviation="27.9892"/>
<feComposite in2="SourceAlpha" operator="in" result="effect1_backgroundBlur_2553_1563"/>
<feBlend mode="normal" in="SourceGraphic" in2="effect1_backgroundBlur_2553_1563" result="shape"/>
</filter>
<filter id="filter4_b_2553_1563" x="507.446" y="373.58" width="232.846" height="232.846" filterUnits="userSpaceOnUse" color-interpolation-filters="sRGB">
<feFlood flood-opacity="0" result="BackgroundImageFix"/>
<feGaussianBlur in="BackgroundImageFix" stdDeviation="38.2114"/>
<feComposite in2="SourceAlpha" operator="in" result="effect1_backgroundBlur_2553_1563"/>
<feBlend mode="normal" in="SourceGraphic" in2="effect1_backgroundBlur_2553_1563" result="shape"/>
</filter>
<filter id="filter5_b_2553_1563" x="537.89" y="404.024" width="171.957" height="171.957" filterUnits="userSpaceOnUse" color-interpolation-filters="sRGB">
<feFlood flood-opacity="0" result="BackgroundImageFix"/>
<feGaussianBlur in="BackgroundImageFix" stdDeviation="27.9892"/>
<feComposite in2="SourceAlpha" operator="in" result="effect1_backgroundBlur_2553_1563"/>
<feBlend mode="normal" in="SourceGraphic" in2="effect1_backgroundBlur_2553_1563" result="shape"/>
</filter>
<filter id="filter6_b_2553_1563" x="361.446" y="757.578" width="232.846" height="232.846" filterUnits="userSpaceOnUse" color-interpolation-filters="sRGB">
<feFlood flood-opacity="0" result="BackgroundImageFix"/>
<feGaussianBlur in="BackgroundImageFix" stdDeviation="38.2114"/>
<feComposite in2="SourceAlpha" operator="in" result="effect1_backgroundBlur_2553_1563"/>
<feBlend mode="normal" in="SourceGraphic" in2="effect1_backgroundBlur_2553_1563" result="shape"/>
</filter>
<filter id="filter7_b_2553_1563" x="391.89" y="788.023" width="171.957" height="171.957" filterUnits="userSpaceOnUse" color-interpolation-filters="sRGB">
<feFlood flood-opacity="0" result="BackgroundImageFix"/>
<feGaussianBlur in="BackgroundImageFix" stdDeviation="27.9892"/>
<feComposite in2="SourceAlpha" operator="in" result="effect1_backgroundBlur_2553_1563"/>
<feBlend mode="normal" in="SourceGraphic" in2="effect1_backgroundBlur_2553_1563" result="shape"/>
</filter>
<filter id="filter8_b_2553_1563" x="867.446" y="958.578" width="232.846" height="231.858" filterUnits="userSpaceOnUse" color-interpolation-filters="sRGB">
<feFlood flood-opacity="0" result="BackgroundImageFix"/>
<feGaussianBlur in="BackgroundImageFix" stdDeviation="38.2114"/>
<feComposite in2="SourceAlpha" operator="in" result="effect1_backgroundBlur_2553_1563"/>
<feBlend mode="normal" in="SourceGraphic" in2="effect1_backgroundBlur_2553_1563" result="shape"/>
</filter>
<filter id="filter9_b_2553_1563" x="896.779" y="986.924" width="174.179" height="174.179" filterUnits="userSpaceOnUse" color-interpolation-filters="sRGB">
<feFlood flood-opacity="0" result="BackgroundImageFix"/>
<feGaussianBlur in="BackgroundImageFix" stdDeviation="27.9892"/>
<feComposite in2="SourceAlpha" operator="in" result="effect1_backgroundBlur_2553_1563"/>
<feBlend mode="normal" in="SourceGraphic" in2="effect1_backgroundBlur_2553_1563" result="shape"/>
</filter>
<filter id="filter10_b_2553_1563" x="907.618" y="997.555" width="152" height="152" filterUnits="userSpaceOnUse" color-interpolation-filters="sRGB">
<feFlood flood-opacity="0" result="BackgroundImageFix"/>
<feGaussianBlur in="BackgroundImageFix" stdDeviation="30"/>
<feComposite in2="SourceAlpha" operator="in" result="effect1_backgroundBlur_2553_1563"/>
<feBlend mode="normal" in="SourceGraphic" in2="effect1_backgroundBlur_2553_1563" result="shape"/>
</filter>
<linearGradient id="paint0_linear_2553_1563" x1="1007.12" y1="500.003" x2="1064.94" y2="518.092" gradientUnits="userSpaceOnUse">
<stop stop-color="#292D32"/>
<stop offset="1" stop-color="#7B8A98"/>
</linearGradient>
<linearGradient id="paint1_linear_2553_1563" x1="964.7" y1="546.018" x2="1065.1" y2="546.018" gradientUnits="userSpaceOnUse">
<stop stop-color="#262C33"/>
<stop offset="1" stop-color="#718599" stop-opacity="0"/>
</linearGradient>
<linearGradient id="paint2_linear_2553_1563" x1="1015.17" y1="504.498" x2="1035.6" y2="528.304" gradientUnits="userSpaceOnUse">
<stop stop-color="#FFBDC7"/>
<stop offset="0.41" stop-color="#FF0025"/>
<stop offset="0.98" stop-color="#DE0827"/>
</linearGradient>
<linearGradient id="paint3_linear_2553_1563" x1="977.242" y1="544.514" x2="1052.54" y2="544.514" gradientUnits="userSpaceOnUse">
<stop stop-color="#262C33"/>
<stop offset="1" stop-color="#718599" stop-opacity="0"/>
</linearGradient>
<linearGradient id="paint4_linear_2553_1563" x1="1108.12" y1="764.001" x2="1165.94" y2="782.09" gradientUnits="userSpaceOnUse">
<stop stop-color="#292D32"/>
<stop offset="1" stop-color="#7B8A98"/>
</linearGradient>
<linearGradient id="paint5_linear_2553_1563" x1="1065.7" y1="810.016" x2="1166.1" y2="810.016" gradientUnits="userSpaceOnUse">
<stop stop-color="#262C33"/>
<stop offset="1" stop-color="#718599" stop-opacity="0"/>
</linearGradient>
<linearGradient id="paint6_linear_2553_1563" x1="1116.17" y1="768.496" x2="1136.6" y2="792.302" gradientUnits="userSpaceOnUse">
<stop stop-color="#FF83BF"/>
<stop offset="0.41" stop-color="#FF0969"/>
<stop offset="1" stop-color="#DE0665"/>
</linearGradient>
<linearGradient id="paint7_linear_2553_1563" x1="1078.24" y1="808.512" x2="1153.54" y2="808.512" gradientUnits="userSpaceOnUse">
<stop stop-color="#262C33"/>
<stop offset="1" stop-color="#718599" stop-opacity="0"/>
</linearGradient>
<linearGradient id="paint8_linear_2553_1563" x1="616.124" y1="450.003" x2="673.942" y2="468.092" gradientUnits="userSpaceOnUse">
<stop stop-color="#292D32"/>
<stop offset="1" stop-color="#7B8A98"/>
</linearGradient>
<linearGradient id="paint9_linear_2553_1563" x1="573.7" y1="496.018" x2="674.098" y2="496.018" gradientUnits="userSpaceOnUse">
<stop stop-color="#262C33"/>
<stop offset="1" stop-color="#718599" stop-opacity="0"/>
</linearGradient>
<linearGradient id="paint10_linear_2553_1563" x1="624.168" y1="454.498" x2="644.598" y2="478.304" gradientUnits="userSpaceOnUse">
<stop stop-color="#979493"/>
<stop offset="0.41" stop-color="#242628"/>
<stop offset="0.98" stop-color="#1C1D1F"/>
</linearGradient>
<linearGradient id="paint11_linear_2553_1563" x1="586.242" y1="494.514" x2="661.541" y2="494.514" gradientUnits="userSpaceOnUse">
<stop stop-color="#262C33"/>
<stop offset="1" stop-color="#718599" stop-opacity="0"/>
</linearGradient>
<linearGradient id="paint12_linear_2553_1563" x1="470.124" y1="834.001" x2="527.942" y2="852.09" gradientUnits="userSpaceOnUse">
<stop stop-color="#292D32"/>
<stop offset="1" stop-color="#7B8A98"/>
</linearGradient>
<linearGradient id="paint13_linear_2553_1563" x1="427.7" y1="880.016" x2="528.098" y2="880.016" gradientUnits="userSpaceOnUse">
<stop stop-color="#262C33"/>
<stop offset="1" stop-color="#718599" stop-opacity="0"/>
</linearGradient>
<linearGradient id="paint14_linear_2553_1563" x1="478.168" y1="838.496" x2="498.598" y2="862.302" gradientUnits="userSpaceOnUse">
<stop stop-color="#7CCFFF"/>
<stop offset="0.41" stop-color="#0497EC"/>
<stop offset="0.98" stop-color="#04669E"/>
</linearGradient>
<linearGradient id="paint15_linear_2553_1563" x1="440.242" y1="878.512" x2="515.541" y2="878.512" gradientUnits="userSpaceOnUse">
<stop stop-color="#262C33"/>
<stop offset="1" stop-color="#718599" stop-opacity="0"/>
</linearGradient>
<linearGradient id="paint16_linear_2553_1563" x1="976.124" y1="1035" x2="1033.81" y2="1053.28" gradientUnits="userSpaceOnUse">
<stop stop-color="#292D32"/>
<stop offset="1" stop-color="#7B8A98"/>
</linearGradient>
<linearGradient id="paint17_linear_2553_1563" x1="933.7" y1="1080.45" x2="1034.1" y2="1080.45" gradientUnits="userSpaceOnUse">
<stop stop-color="#262C33"/>
<stop offset="1" stop-color="#718599" stop-opacity="0"/>
</linearGradient>
<linearGradient id="paint18_linear_2553_1563" x1="984.179" y1="1037.19" x2="1005.37" y2="1061.88" gradientUnits="userSpaceOnUse">
<stop stop-color="#B4B4D8"/>
<stop offset="0.41" stop-color="#838FBD"/>
<stop offset="0.98" stop-color="#596284"/>
</linearGradient>
<linearGradient id="paint19_linear_2553_1563" x1="944.848" y1="1078.69" x2="1022.94" y2="1078.69" gradientUnits="userSpaceOnUse">
<stop stop-color="#262C33"/>
<stop offset="1" stop-color="#718599" stop-opacity="0"/>
</linearGradient>
<clipPath id="clip0_2553_1563">
<rect width="28" height="32.2424" fill="white" transform="translate(1101.87 788.001)"/>
</clipPath>
<clipPath id="clip1_2553_1563">
<rect width="24" height="25" fill="white" transform="translate(465.869 862.001)"/>
</clipPath>
</defs>
</svg>
