<svg width="162" height="90" viewBox="0 0 162 90" fill="none" xmlns="http://www.w3.org/2000/svg">
<path d="M158.496 14.4016L146.402 3.06808C144.641 1.41815 142.319 0.5 139.906 0.5H10.3586C5.11192 0.5 0.858643 4.75329 0.858643 10V67.6665C0.858643 70.293 1.94608 72.8024 3.86261 74.5984L16.4902 86.4319C18.2508 88.0818 20.5733 89 22.9862 89H152C157.247 89 161.5 84.7467 161.5 79.5V21.3335C161.5 18.707 160.413 16.1976 158.496 14.4016Z" fill="#292D32" fill-opacity="0.2" stroke="#262C33"/>
<path d="M158.137 14.4016L146.043 3.06808C144.283 1.41815 141.96 0.5 139.547 0.5H9.99998C4.75328 0.5 0.5 4.75329 0.5 10V67.6665C0.5 70.293 1.58743 72.8024 3.50397 74.5984L16.1315 86.4319C17.8922 88.0818 20.2147 89 22.6276 89H151.641C156.888 89 161.141 84.7467 161.141 79.5V21.3335C161.141 18.707 160.054 16.1976 158.137 14.4016Z" fill="#292D32" fill-opacity="0.2" stroke="#262C33"/>
</svg>
