<svg width="1123" height="314" viewBox="0 0 1123 314" fill="none" xmlns="http://www.w3.org/2000/svg">
<path d="M0.5 266.988V41.5C0.5 30.7304 9.23045 22 20 22H21.2157C26.6527 22 31.8669 19.8402 35.7114 15.9957L45.4957 6.21142C49.1526 2.55446 54.1125 0.5 59.2843 0.5H172.716C177.887 0.5 182.847 2.55446 186.504 6.21142L196.289 15.9957C200.133 19.8402 205.347 22 210.784 22H1062.44C1067.48 22 1072.33 23.9509 1075.96 27.4438L1116.02 65.9587C1119.84 69.6351 1122 74.7106 1122 80.0149V282.713C1122 288.173 1119.71 293.382 1115.69 297.075L1103.4 308.362C1099.8 311.667 1095.09 313.5 1090.21 313.5H441.284C436.113 313.5 431.153 311.446 427.496 307.789L416.711 297.004C412.867 293.16 407.653 291 402.216 291H252.784C247.347 291 242.133 293.16 238.289 297.004L227.504 307.789C223.847 311.446 218.887 313.5 213.716 313.5H39.6753C33.4415 313.5 27.5835 310.52 23.9133 305.481L4.23807 278.469C1.80878 275.134 0.5 271.114 0.5 266.988Z" fill="#292D32" fill-opacity="0.4" stroke="#262C33"/>
</svg>
