<svg width="20" height="21" viewBox="0 0 20 21" fill="none" xmlns="http://www.w3.org/2000/svg">
<g clip-path="url(#clip0_3499_108127)">
<path d="M3.27719 17.5439C2.36984 16.6675 1.64611 15.6193 1.14823 14.4602C0.650342 13.3012 0.388273 12.0546 0.377312 10.7932C0.366351 9.53178 0.606717 8.28082 1.08439 7.11331C1.56205 5.94579 2.26746 4.8851 3.15944 3.99312C4.05142 3.10114 5.11211 2.39573 6.27963 1.91806C7.44714 1.4404 8.6981 1.20003 9.9595 1.21099C11.2209 1.22195 12.4675 1.48402 13.6265 1.98191C14.7856 2.47979 15.8338 3.20352 16.7102 4.11087C18.4407 5.90259 19.3982 8.30231 19.3766 10.7932C19.3549 13.2841 18.3558 15.6668 16.5945 17.4281C14.8331 19.1895 12.4504 20.1886 9.9595 20.2103C7.46863 20.2319 5.06891 19.2744 3.27719 17.5439ZM16.0134 16.8471C17.6083 15.2522 18.5043 13.089 18.5043 10.8335C18.5043 8.57799 17.6083 6.41485 16.0134 4.81996C14.4185 3.22507 12.2554 2.32907 9.99984 2.32907C7.74432 2.32907 5.58118 3.22507 3.98628 4.81996C2.39139 6.41485 1.49539 8.57799 1.49539 10.8335C1.49539 13.089 2.39139 15.2522 3.98628 16.8471C5.58118 18.442 7.74432 19.338 9.99984 19.338C12.2554 19.338 14.4185 18.442 16.0134 16.8471ZM10.4998 6.33351V11.3335H9.49984V6.33351H10.4998ZM10.4998 14.3335V15.3335H9.49984V14.3335H10.4998Z" fill="white" stroke="url(#paint0_linear_3499_108127)"/>
</g>
<defs>
<linearGradient id="paint0_linear_3499_108127" x1="1.96292" y1="12.2731" x2="31.6551" y2="12.3126" gradientUnits="userSpaceOnUse">
<stop stop-color="#FE5E35"/>
<stop offset="0.55" stop-color="#F67702"/>
<stop offset="1" stop-color="#FFEF76"/>
</linearGradient>
<clipPath id="clip0_3499_108127">
<rect width="20" height="20" fill="white" transform="translate(0 0.833496)"/>
</clipPath>
</defs>
</svg>
