<?xml version="1.0" encoding="utf-8"?>
<!-- Generator: Adobe Illustrator 26.0.0, SVG Export Plug-In . SVG Version: 6.00 Build 0)  -->
<svg version="1.1" id="Capa_1" xmlns="http://www.w3.org/2000/svg" xmlns:xlink="http://www.w3.org/1999/xlink" x="0px" y="0px"
	 viewBox="0 0 478 464" style="enable-background:new 0 0 478 464;" xml:space="preserve">
<style type="text/css">
	.st0{fill:#292D32;fill-opacity:0.4;}
</style>
<path class="st0" d="M478,69.3v358c0,11-9,20-20,20H258.2c-5.3,0-10.4,2.1-14.1,5.9l-5,5c-3.8,3.7-8.8,5.9-14.1,5.9h-84.5
	c-5.3,0-10.4-2.1-14.1-5.9l-5-5c-3.8-3.7-8.8-5.9-14.1-5.9H48.5c-5.2,0-10.1-2-13.9-5.6L6.1,414.4c-3.9-3.8-6.1-9-6.1-14.4V26.3
	c0-5.6,2.4-10.9,6.5-14.7l6.8-6.3C17,1.9,21.8,0,26.8,0h106.4c5.3,0,10.4,2.1,14.1,5.9l5.8,5.8c3.8,3.7,8.8,5.9,14.1,5.9h112.5
	c5.3,0,10.4-2.1,14.1-5.9l5.8-5.8c3.8-3.7,8.8-5.9,14.1-5.9h91.9c5.1,0,10,1.9,13.7,5.4l52.3,49.3C475.7,58.5,478,63.8,478,69.3z"/>
</svg>
