<?xml version="1.0" encoding="utf-8"?>
<!-- Generator: Adobe Illustrator 26.0.0, SVG Export Plug-In . SVG Version: 6.00 Build 0)  -->
<svg version="1.1" id="Capa_1" xmlns="http://www.w3.org/2000/svg" xmlns:xlink="http://www.w3.org/1999/xlink" x="0px" y="0px"
	 viewBox="0 0 478 606" style="enable-background:new 0 0 478 606;" xml:space="preserve">
<style type="text/css">
	.st0{fill:#292D32;fill-opacity:0.4;}
</style>
<path class="st0" d="M478,86.4v477.8c0,11-9,20-20,20H259.8c-6.2,0-12.1,2.9-15.9,7.8l-4.7,6.1c-3.8,4.9-9.7,7.8-15.9,7.8H142
	c-6.2,0-12.1-2.9-15.9-7.8l-4.7-6.1c-3.8-4.9-9.7-7.8-15.9-7.8H50.1c-6.1,0-11.8-2.8-15.6-7.5L4.4,539C1.5,535.4,0,531,0,526.5V30.1
	c0-4.7,1.6-9.2,4.6-12.8L13,7.2C16.8,2.6,22.5,0,28.4,0h103.2c6.2,0,12.1,2.9,15.9,7.8l5.5,7.2c3.8,4.9,9.7,7.8,15.9,7.8h109.3
	c6.2,0,12.1-2.9,15.9-7.8l5.5-7.2c3.8-4.9,9.7-7.8,15.9-7.8h88.8c6,0,11.7,2.7,15.5,7.4l53.9,66.4C476.4,77.3,478,81.8,478,86.4z"/>
</svg>
