<svg width="191" height="107" viewBox="0 0 191 107" fill="none" xmlns="http://www.w3.org/2000/svg">
<path d="M62.876 73.4682V33.5517L94.9412 17.4238V57.3403L62.876 73.4682Z" stroke="url(#paint0_linear_3499_108203)" stroke-width="0.393613"/>
<path d="M62.876 73.4682V33.5517L30.9501 17.4238V57.3403L62.876 73.4682Z" stroke="url(#paint1_linear_3499_108203)" stroke-width="0.393613"/>
<path d="M94.9409 17.2121L62.8783 33.4564L31.0195 17.2844L62.61 0.833496L94.9409 17.2121Z" stroke="url(#paint2_linear_3499_108203)" stroke-width="0.393613"/>
<path d="M94.8716 57.2239L62.8089 73.4682L30.9502 57.2962L62.5406 40.8453L94.8716 57.2239Z" stroke="url(#paint3_linear_3499_108203)" stroke-width="0.393613"/>
<path d="M94.8716 57.2239L62.8089 73.4682L30.9502 57.2962L62.5406 40.8453L94.8716 57.2239Z" fill="url(#paint4_linear_3499_108203)"/>
<path d="M62.9452 57.1568C72.4542 57.1568 80.1628 49.4482 80.1628 39.9391C80.1628 30.4301 72.4542 22.7215 62.9452 22.7215C53.4361 22.7215 45.7275 30.4301 45.7275 39.9391C45.7275 49.4482 53.4361 57.1568 62.9452 57.1568Z" fill="white"/>
<path d="M54.4706 37.1144C57.403 38.863 61.7074 41.2843 61.7074 41.2843L60.9272 38.9707C60.9272 38.9707 52.9103 35.0967 51.8072 33.4556C51.8072 33.4825 51.5382 35.3657 54.4706 37.1144Z" fill="url(#paint5_linear_3499_108203)"/>
<path d="M69.428 38.8631L64.182 42.0376L62.9445 45.1045L61.7339 42.0914L56.4879 38.9169C56.4879 38.9169 50.1927 35.1505 49.7354 33.6709C49.7354 33.6709 49.843 36.5495 52.2104 38.1636C54.5778 39.7778 60.7385 43.2482 60.7385 43.2482L62.9445 48.9784V49.0591L62.9714 49.0053L62.9983 49.113V48.9246L65.2043 43.1944C65.2043 43.1944 71.3919 39.724 73.7324 38.1098C76.0999 36.4956 76.2075 33.6171 76.2075 33.6171C75.6963 35.0967 69.428 38.8631 69.428 38.8631Z" fill="url(#paint6_linear_3499_108203)"/>
<path d="M71.4184 37.0606C74.3508 35.312 74.0818 33.4288 74.0818 33.4288C72.9788 35.0429 64.9618 38.9438 64.9618 38.9438L64.1816 41.2574C64.1816 41.2305 68.486 38.8362 71.4184 37.0606Z" fill="url(#paint7_linear_3499_108203)"/>
<path d="M64.505 38.9707L62.9178 36.0922L61.3574 38.9707L62.9178 44.2706L64.505 38.9707Z" fill="url(#paint8_linear_3499_108203)"/>
<path d="M60.6312 44.0553L54.3898 40.3427C54.3898 40.3427 54.2822 44.1091 60.6312 44.0553Z" fill="url(#paint9_linear_3499_108203)"/>
<path d="M65.2314 44.0553C71.5805 44.1091 71.4728 40.3427 71.4728 40.3427L65.2314 44.0553Z" fill="url(#paint10_linear_3499_108203)"/>
<g filter="url(#filter0_b_3499_108203)">
<path d="M94.9409 17.3515L62.8783 33.5958L31.0195 17.4238L62.61 0.9729L94.9409 17.3515Z" fill="url(#paint11_linear_3499_108203)" fill-opacity="0.2"/>
</g>
<g filter="url(#filter1_b_3499_108203)">
<path d="M126.936 73.6748L94.8734 89.9191L63.0146 73.7471L94.6051 57.2962L126.936 73.6748Z" fill="url(#paint12_linear_3499_108203)" fill-opacity="0.2"/>
</g>
<g opacity="0.2" filter="url(#filter2_b_3499_108203)">
<path d="M94.8716 89.8468L62.8089 106.091L30.9502 89.9191L62.5406 73.4683L94.8716 89.8468Z" fill="url(#paint13_linear_3499_108203)" fill-opacity="0.2"/>
</g>
<g opacity="0.2" filter="url(#filter3_b_3499_108203)">
<path d="M63.9214 73.5354L31.8587 89.7797L0 73.6077L31.5904 57.1568L63.9214 73.5354Z" fill="url(#paint14_linear_3499_108203)" fill-opacity="0.2"/>
</g>
<g filter="url(#filter4_b_3499_108203)">
<path d="M62.876 73.4682V33.5517L30.9501 17.4238V57.3403L62.876 73.4682Z" fill="url(#paint15_linear_3499_108203)"/>
</g>
<g opacity="0.5">
<path d="M126.876 73.4682V33.5517L158.941 17.4238V57.3403L126.876 73.4682Z" stroke="url(#paint16_linear_3499_108203)" stroke-width="0.393613"/>
<path d="M126.876 73.4682V33.5517L94.9501 17.4238V57.3403L126.876 73.4682Z" stroke="url(#paint17_linear_3499_108203)" stroke-width="0.393613"/>
<path d="M158.941 17.2121L126.878 33.4564L95.0195 17.2844L126.61 0.833496L158.941 17.2121Z" stroke="url(#paint18_linear_3499_108203)" stroke-width="0.393613"/>
<path d="M158.872 57.2239L126.809 73.4682L94.9502 57.2962L126.541 40.8453L158.872 57.2239Z" stroke="url(#paint19_linear_3499_108203)" stroke-width="0.393613"/>
<path d="M158.872 57.2239L126.809 73.4682L94.9502 57.2962L126.541 40.8453L158.872 57.2239Z" fill="url(#paint20_linear_3499_108203)"/>
<path d="M126.945 57.1568C136.454 57.1568 144.163 49.4482 144.163 39.9391C144.163 30.4301 136.454 22.7215 126.945 22.7215C117.436 22.7215 109.728 30.4301 109.728 39.9391C109.728 49.4482 117.436 57.1568 126.945 57.1568Z" fill="white"/>
<path d="M118.471 37.1144C121.403 38.863 125.707 41.2843 125.707 41.2843L124.927 38.9707C124.927 38.9707 116.91 35.0967 115.807 33.4556C115.807 33.4825 115.538 35.3657 118.471 37.1144Z" fill="url(#paint21_linear_3499_108203)"/>
<path d="M133.428 38.8631L128.182 42.0376L126.945 45.1045L125.734 42.0914L120.488 38.9169C120.488 38.9169 114.193 35.1505 113.735 33.6709C113.735 33.6709 113.843 36.5495 116.21 38.1636C118.578 39.7778 124.739 43.2482 124.739 43.2482L126.945 48.9784V49.0591L126.971 49.0053L126.998 49.113V48.9246L129.204 43.1944C129.204 43.1944 135.392 39.724 137.732 38.1098C140.1 36.4956 140.207 33.6171 140.207 33.6171C139.696 35.0967 133.428 38.8631 133.428 38.8631Z" fill="url(#paint22_linear_3499_108203)"/>
<path d="M135.418 37.0606C138.351 35.312 138.082 33.4288 138.082 33.4288C136.979 35.0429 128.962 38.9438 128.962 38.9438L128.182 41.2574C128.182 41.2305 132.486 38.8362 135.418 37.0606Z" fill="url(#paint23_linear_3499_108203)"/>
<path d="M128.505 38.9707L126.918 36.0922L125.357 38.9707L126.918 44.2706L128.505 38.9707Z" fill="url(#paint24_linear_3499_108203)"/>
<path d="M124.631 44.0553L118.39 40.3427C118.39 40.3427 118.282 44.1091 124.631 44.0553Z" fill="url(#paint25_linear_3499_108203)"/>
<path d="M129.231 44.0553C135.58 44.1091 135.473 40.3427 135.473 40.3427L129.231 44.0553Z" fill="url(#paint26_linear_3499_108203)"/>
<g filter="url(#filter5_b_3499_108203)">
<path d="M158.941 17.3515L126.878 33.5958L95.0195 17.4238L126.61 0.9729L158.941 17.3515Z" fill="url(#paint27_linear_3499_108203)" fill-opacity="0.2"/>
</g>
<g filter="url(#filter6_b_3499_108203)">
<path d="M190.936 73.6748L158.873 89.9191L127.015 73.7471L158.605 57.2962L190.936 73.6748Z" fill="url(#paint28_linear_3499_108203)" fill-opacity="0.2"/>
</g>
<g opacity="0.2" filter="url(#filter7_b_3499_108203)">
<path d="M158.872 89.8468L126.809 106.091L94.9502 89.9191L126.541 73.4683L158.872 89.8468Z" fill="url(#paint29_linear_3499_108203)" fill-opacity="0.2"/>
</g>
<g opacity="0.2" filter="url(#filter8_b_3499_108203)">
<path d="M127.921 73.5354L95.8587 89.7797L64 73.6077L95.5904 57.1568L127.921 73.5354Z" fill="url(#paint30_linear_3499_108203)" fill-opacity="0.2"/>
</g>
<g filter="url(#filter9_b_3499_108203)">
<path d="M126.876 73.4682V33.5517L94.9501 17.4238V57.3403L126.876 73.4682Z" fill="url(#paint31_linear_3499_108203)"/>
</g>
</g>
<defs>
<filter id="filter0_b_3499_108203" x="19.2111" y="-10.8355" width="87.5377" height="56.2397" filterUnits="userSpaceOnUse" color-interpolation-filters="sRGB">
<feFlood flood-opacity="0" result="BackgroundImageFix"/>
<feGaussianBlur in="BackgroundImageFix" stdDeviation="5.9042"/>
<feComposite in2="SourceAlpha" operator="in" result="effect1_backgroundBlur_3499_108203"/>
<feBlend mode="normal" in="SourceGraphic" in2="effect1_backgroundBlur_3499_108203" result="shape"/>
</filter>
<filter id="filter1_b_3499_108203" x="51.2062" y="45.4878" width="87.5377" height="56.2397" filterUnits="userSpaceOnUse" color-interpolation-filters="sRGB">
<feFlood flood-opacity="0" result="BackgroundImageFix"/>
<feGaussianBlur in="BackgroundImageFix" stdDeviation="5.9042"/>
<feComposite in2="SourceAlpha" operator="in" result="effect1_backgroundBlur_3499_108203"/>
<feBlend mode="normal" in="SourceGraphic" in2="effect1_backgroundBlur_3499_108203" result="shape"/>
</filter>
<filter id="filter2_b_3499_108203" x="19.1418" y="61.6599" width="87.5377" height="56.2397" filterUnits="userSpaceOnUse" color-interpolation-filters="sRGB">
<feFlood flood-opacity="0" result="BackgroundImageFix"/>
<feGaussianBlur in="BackgroundImageFix" stdDeviation="5.9042"/>
<feComposite in2="SourceAlpha" operator="in" result="effect1_backgroundBlur_3499_108203"/>
<feBlend mode="normal" in="SourceGraphic" in2="effect1_backgroundBlur_3499_108203" result="shape"/>
</filter>
<filter id="filter3_b_3499_108203" x="-11.8084" y="45.3484" width="87.5377" height="56.2397" filterUnits="userSpaceOnUse" color-interpolation-filters="sRGB">
<feFlood flood-opacity="0" result="BackgroundImageFix"/>
<feGaussianBlur in="BackgroundImageFix" stdDeviation="5.9042"/>
<feComposite in2="SourceAlpha" operator="in" result="effect1_backgroundBlur_3499_108203"/>
<feBlend mode="normal" in="SourceGraphic" in2="effect1_backgroundBlur_3499_108203" result="shape"/>
</filter>
<filter id="filter4_b_3499_108203" x="19.1418" y="5.61536" width="55.5426" height="79.6613" filterUnits="userSpaceOnUse" color-interpolation-filters="sRGB">
<feFlood flood-opacity="0" result="BackgroundImageFix"/>
<feGaussianBlur in="BackgroundImageFix" stdDeviation="5.9042"/>
<feComposite in2="SourceAlpha" operator="in" result="effect1_backgroundBlur_3499_108203"/>
<feBlend mode="normal" in="SourceGraphic" in2="effect1_backgroundBlur_3499_108203" result="shape"/>
</filter>
<filter id="filter5_b_3499_108203" x="83.2111" y="-10.8355" width="87.5377" height="56.2397" filterUnits="userSpaceOnUse" color-interpolation-filters="sRGB">
<feFlood flood-opacity="0" result="BackgroundImageFix"/>
<feGaussianBlur in="BackgroundImageFix" stdDeviation="5.9042"/>
<feComposite in2="SourceAlpha" operator="in" result="effect1_backgroundBlur_3499_108203"/>
<feBlend mode="normal" in="SourceGraphic" in2="effect1_backgroundBlur_3499_108203" result="shape"/>
</filter>
<filter id="filter6_b_3499_108203" x="115.206" y="45.4878" width="87.5377" height="56.2397" filterUnits="userSpaceOnUse" color-interpolation-filters="sRGB">
<feFlood flood-opacity="0" result="BackgroundImageFix"/>
<feGaussianBlur in="BackgroundImageFix" stdDeviation="5.9042"/>
<feComposite in2="SourceAlpha" operator="in" result="effect1_backgroundBlur_3499_108203"/>
<feBlend mode="normal" in="SourceGraphic" in2="effect1_backgroundBlur_3499_108203" result="shape"/>
</filter>
<filter id="filter7_b_3499_108203" x="83.1418" y="61.6599" width="87.5377" height="56.2397" filterUnits="userSpaceOnUse" color-interpolation-filters="sRGB">
<feFlood flood-opacity="0" result="BackgroundImageFix"/>
<feGaussianBlur in="BackgroundImageFix" stdDeviation="5.9042"/>
<feComposite in2="SourceAlpha" operator="in" result="effect1_backgroundBlur_3499_108203"/>
<feBlend mode="normal" in="SourceGraphic" in2="effect1_backgroundBlur_3499_108203" result="shape"/>
</filter>
<filter id="filter8_b_3499_108203" x="52.1916" y="45.3484" width="87.5377" height="56.2397" filterUnits="userSpaceOnUse" color-interpolation-filters="sRGB">
<feFlood flood-opacity="0" result="BackgroundImageFix"/>
<feGaussianBlur in="BackgroundImageFix" stdDeviation="5.9042"/>
<feComposite in2="SourceAlpha" operator="in" result="effect1_backgroundBlur_3499_108203"/>
<feBlend mode="normal" in="SourceGraphic" in2="effect1_backgroundBlur_3499_108203" result="shape"/>
</filter>
<filter id="filter9_b_3499_108203" x="83.1418" y="5.61536" width="55.5426" height="79.6613" filterUnits="userSpaceOnUse" color-interpolation-filters="sRGB">
<feFlood flood-opacity="0" result="BackgroundImageFix"/>
<feGaussianBlur in="BackgroundImageFix" stdDeviation="5.9042"/>
<feComposite in2="SourceAlpha" operator="in" result="effect1_backgroundBlur_3499_108203"/>
<feBlend mode="normal" in="SourceGraphic" in2="effect1_backgroundBlur_3499_108203" result="shape"/>
</filter>
<linearGradient id="paint0_linear_3499_108203" x1="78.9086" y1="17.4238" x2="78.9086" y2="73.4682" gradientUnits="userSpaceOnUse">
<stop stop-color="white"/>
<stop offset="1" stop-color="white" stop-opacity="0"/>
</linearGradient>
<linearGradient id="paint1_linear_3499_108203" x1="46.9131" y1="17.4238" x2="46.9131" y2="73.4682" gradientUnits="userSpaceOnUse">
<stop stop-color="white"/>
<stop offset="1" stop-color="white" stop-opacity="0"/>
</linearGradient>
<linearGradient id="paint2_linear_3499_108203" x1="62.9802" y1="0.833496" x2="62.9802" y2="33.4564" gradientUnits="userSpaceOnUse">
<stop stop-color="white"/>
<stop offset="1" stop-color="white" stop-opacity="0"/>
</linearGradient>
<linearGradient id="paint3_linear_3499_108203" x1="62.9109" y1="40.8453" x2="62.9109" y2="73.4682" gradientUnits="userSpaceOnUse">
<stop stop-color="white"/>
<stop offset="1" stop-color="white" stop-opacity="0"/>
</linearGradient>
<linearGradient id="paint4_linear_3499_108203" x1="62.9109" y1="40.8453" x2="62.9109" y2="73.4682" gradientUnits="userSpaceOnUse">
<stop stop-color="#B5C9DB"/>
<stop offset="0.695" stop-color="#B5C9DB" stop-opacity="0"/>
</linearGradient>
<linearGradient id="paint5_linear_3499_108203" x1="52.0504" y1="39.9" x2="71.3855" y2="29.58" gradientUnits="userSpaceOnUse">
<stop stop-color="#E71505"/>
<stop offset="0.7318" stop-color="#FFB400"/>
<stop offset="1" stop-color="#FFF888"/>
</linearGradient>
<linearGradient id="paint6_linear_3499_108203" x1="53.633" y1="42.8659" x2="72.9681" y2="32.5459" gradientUnits="userSpaceOnUse">
<stop stop-color="#E71505"/>
<stop offset="0.7318" stop-color="#FFB400"/>
<stop offset="1" stop-color="#FFF888"/>
</linearGradient>
<linearGradient id="paint7_linear_3499_108203" x1="54.7695" y1="44.9959" x2="74.1046" y2="34.6759" gradientUnits="userSpaceOnUse">
<stop stop-color="#E71505"/>
<stop offset="0.065186" stop-color="#E92305"/>
<stop offset="0.7318" stop-color="#FFB400"/>
<stop offset="1" stop-color="#FFF888"/>
</linearGradient>
<linearGradient id="paint8_linear_3499_108203" x1="54.5742" y1="44.6291" x2="73.9093" y2="34.3091" gradientUnits="userSpaceOnUse">
<stop stop-color="#E71505"/>
<stop offset="0.7318" stop-color="#FFB400"/>
<stop offset="1" stop-color="#FFF888"/>
</linearGradient>
<linearGradient id="paint9_linear_3499_108203" x1="54.1498" y1="43.9885" x2="73.4849" y2="33.6686" gradientUnits="userSpaceOnUse">
<stop stop-color="#E71505"/>
<stop offset="0.7318" stop-color="#FFB400"/>
<stop offset="1" stop-color="#FFF888"/>
</linearGradient>
<linearGradient id="paint10_linear_3499_108203" x1="56.8519" y1="49.0512" x2="76.1871" y2="38.7313" gradientUnits="userSpaceOnUse">
<stop stop-color="#E71505"/>
<stop offset="0.7318" stop-color="#FFB400"/>
<stop offset="1" stop-color="#FFF888"/>
</linearGradient>
<linearGradient id="paint11_linear_3499_108203" x1="62.9802" y1="0.9729" x2="62.9802" y2="33.5958" gradientUnits="userSpaceOnUse">
<stop stop-color="white" stop-opacity="0"/>
<stop offset="0.53" stop-color="white" stop-opacity="0.53"/>
<stop offset="1" stop-color="white"/>
</linearGradient>
<linearGradient id="paint12_linear_3499_108203" x1="94.9753" y1="57.2962" x2="94.9753" y2="89.9191" gradientUnits="userSpaceOnUse">
<stop stop-color="white" stop-opacity="0"/>
<stop offset="0.53" stop-color="white" stop-opacity="0.53"/>
<stop offset="1" stop-color="white"/>
</linearGradient>
<linearGradient id="paint13_linear_3499_108203" x1="62.9109" y1="73.4683" x2="62.9109" y2="106.091" gradientUnits="userSpaceOnUse">
<stop stop-color="white" stop-opacity="0"/>
<stop offset="0.53" stop-color="white" stop-opacity="0.53"/>
<stop offset="1" stop-color="white"/>
</linearGradient>
<linearGradient id="paint14_linear_3499_108203" x1="31.9607" y1="57.1568" x2="31.9607" y2="89.7797" gradientUnits="userSpaceOnUse">
<stop stop-color="white" stop-opacity="0"/>
<stop offset="0.53" stop-color="white" stop-opacity="0.53"/>
<stop offset="1" stop-color="white"/>
</linearGradient>
<linearGradient id="paint15_linear_3499_108203" x1="46.9131" y1="17.4238" x2="46.9131" y2="73.4682" gradientUnits="userSpaceOnUse">
<stop stop-color="white" stop-opacity="0"/>
<stop offset="0.53" stop-color="white" stop-opacity="0.53"/>
<stop offset="1" stop-color="white"/>
</linearGradient>
<linearGradient id="paint16_linear_3499_108203" x1="142.909" y1="17.4238" x2="142.909" y2="73.4682" gradientUnits="userSpaceOnUse">
<stop stop-color="white"/>
<stop offset="1" stop-color="white" stop-opacity="0"/>
</linearGradient>
<linearGradient id="paint17_linear_3499_108203" x1="110.913" y1="17.4238" x2="110.913" y2="73.4682" gradientUnits="userSpaceOnUse">
<stop stop-color="white"/>
<stop offset="1" stop-color="white" stop-opacity="0"/>
</linearGradient>
<linearGradient id="paint18_linear_3499_108203" x1="126.98" y1="0.833496" x2="126.98" y2="33.4564" gradientUnits="userSpaceOnUse">
<stop stop-color="white"/>
<stop offset="1" stop-color="white" stop-opacity="0"/>
</linearGradient>
<linearGradient id="paint19_linear_3499_108203" x1="126.911" y1="40.8453" x2="126.911" y2="73.4682" gradientUnits="userSpaceOnUse">
<stop stop-color="white"/>
<stop offset="1" stop-color="white" stop-opacity="0"/>
</linearGradient>
<linearGradient id="paint20_linear_3499_108203" x1="126.911" y1="40.8453" x2="126.911" y2="73.4682" gradientUnits="userSpaceOnUse">
<stop stop-color="#B5C9DB"/>
<stop offset="0.695" stop-color="#B5C9DB" stop-opacity="0"/>
</linearGradient>
<linearGradient id="paint21_linear_3499_108203" x1="116.05" y1="39.9" x2="135.386" y2="29.58" gradientUnits="userSpaceOnUse">
<stop stop-color="#E71505"/>
<stop offset="0.7318" stop-color="#FFB400"/>
<stop offset="1" stop-color="#FFF888"/>
</linearGradient>
<linearGradient id="paint22_linear_3499_108203" x1="117.633" y1="42.8659" x2="136.968" y2="32.5459" gradientUnits="userSpaceOnUse">
<stop stop-color="#E71505"/>
<stop offset="0.7318" stop-color="#FFB400"/>
<stop offset="1" stop-color="#FFF888"/>
</linearGradient>
<linearGradient id="paint23_linear_3499_108203" x1="118.77" y1="44.9959" x2="138.105" y2="34.6759" gradientUnits="userSpaceOnUse">
<stop stop-color="#E71505"/>
<stop offset="0.065186" stop-color="#E92305"/>
<stop offset="0.7318" stop-color="#FFB400"/>
<stop offset="1" stop-color="#FFF888"/>
</linearGradient>
<linearGradient id="paint24_linear_3499_108203" x1="118.574" y1="44.6291" x2="137.909" y2="34.3091" gradientUnits="userSpaceOnUse">
<stop stop-color="#E71505"/>
<stop offset="0.7318" stop-color="#FFB400"/>
<stop offset="1" stop-color="#FFF888"/>
</linearGradient>
<linearGradient id="paint25_linear_3499_108203" x1="118.15" y1="43.9885" x2="137.485" y2="33.6686" gradientUnits="userSpaceOnUse">
<stop stop-color="#E71505"/>
<stop offset="0.7318" stop-color="#FFB400"/>
<stop offset="1" stop-color="#FFF888"/>
</linearGradient>
<linearGradient id="paint26_linear_3499_108203" x1="120.852" y1="49.0512" x2="140.187" y2="38.7313" gradientUnits="userSpaceOnUse">
<stop stop-color="#E71505"/>
<stop offset="0.7318" stop-color="#FFB400"/>
<stop offset="1" stop-color="#FFF888"/>
</linearGradient>
<linearGradient id="paint27_linear_3499_108203" x1="126.98" y1="0.9729" x2="126.98" y2="33.5958" gradientUnits="userSpaceOnUse">
<stop stop-color="white" stop-opacity="0"/>
<stop offset="0.53" stop-color="white" stop-opacity="0.53"/>
<stop offset="1" stop-color="white"/>
</linearGradient>
<linearGradient id="paint28_linear_3499_108203" x1="158.975" y1="57.2962" x2="158.975" y2="89.9191" gradientUnits="userSpaceOnUse">
<stop stop-color="white" stop-opacity="0"/>
<stop offset="0.53" stop-color="white" stop-opacity="0.53"/>
<stop offset="1" stop-color="white"/>
</linearGradient>
<linearGradient id="paint29_linear_3499_108203" x1="126.911" y1="73.4683" x2="126.911" y2="106.091" gradientUnits="userSpaceOnUse">
<stop stop-color="white" stop-opacity="0"/>
<stop offset="0.53" stop-color="white" stop-opacity="0.53"/>
<stop offset="1" stop-color="white"/>
</linearGradient>
<linearGradient id="paint30_linear_3499_108203" x1="95.9607" y1="57.1568" x2="95.9607" y2="89.7797" gradientUnits="userSpaceOnUse">
<stop stop-color="white" stop-opacity="0"/>
<stop offset="0.53" stop-color="white" stop-opacity="0.53"/>
<stop offset="1" stop-color="white"/>
</linearGradient>
<linearGradient id="paint31_linear_3499_108203" x1="110.913" y1="17.4238" x2="110.913" y2="73.4682" gradientUnits="userSpaceOnUse">
<stop stop-color="white" stop-opacity="0"/>
<stop offset="0.53" stop-color="white" stop-opacity="0.53"/>
<stop offset="1" stop-color="white"/>
</linearGradient>
</defs>
</svg>
