<?xml version="1.0" encoding="utf-8"?>
<!-- Generator: Adobe Illustrator 26.0.0, SVG Export Plug-In . SVG Version: 6.00 Build 0)  -->
<svg version="1.1" id="Capa_1" xmlns="http://www.w3.org/2000/svg" xmlns:xlink="http://www.w3.org/1999/xlink" x="0px" y="0px"
	 viewBox="0 0 1058 607" style="enable-background:new 0 0 1058 607;" xml:space="preserve">
<style type="text/css">
	.st0{fill-rule:evenodd;clip-rule:evenodd;fill:#292D32;fill-opacity:0.4;}
</style>
<path class="st0" d="M6.1,110.1l69.1-66.5C78.9,40,83.9,38,89.1,38h476.7c2.8,0,5.6-0.6,8.1-1.7l36.3-16.1c2.6-1.1,5.3-1.7,8.1-1.7
	h198.1c5,0,9.7-1.8,13.4-5.2l9.1-8.2c3.7-3.3,8.4-5.2,13.4-5.2h90.3c4.8,0,9.5,1.7,13.1,4.9l95,82.6c4.4,3.8,6.9,9.3,6.9,15.1v430.6
	c0,5.6-2.4,11-6.5,14.8l-58.3,53.3c-3.7,3.4-8.5,5.2-13.5,5.2H529.2c-4.6,0-9.1-1.6-12.7-4.5L469,563c-3.6-2.9-8.1-4.5-12.7-4.5
	H217.6c-4.4,0-8.6,1.4-12,4c-0.8,0.6-1.5,1.4-2.2,2.2l-25.7,31.1c-0.7,0.8-1.4,1.6-2.2,2.2c-3.5,2.6-7.7,4-12,4h-84
	c-5.1,0-10-2-13.7-5.5L6.3,540.4c-4-3.8-6.3-9-6.3-14.5V124.5C0,119.1,2.2,113.9,6.1,110.1z"/>
</svg>
