<svg width="24" height="25" viewBox="0 0 24 25" fill="none" xmlns="http://www.w3.org/2000/svg">
<g clip-path="url(#clip0_2605_3169)">
<path fill-rule="evenodd" clip-rule="evenodd" d="M21.546 5.33323C21.8272 5.61453 21.9852 5.99599 21.9852 6.39373C21.9852 6.79148 21.8272 7.17294 21.546 7.45423L10.303 18.6972C10.1544 18.8458 9.97805 18.9637 9.7839 19.0442C9.58976 19.1246 9.38167 19.166 9.17153 19.166C8.96138 19.166 8.75329 19.1246 8.55915 19.0442C8.365 18.9637 8.1886 18.8458 8.04003 18.6972L2.45403 13.1122C2.31076 12.9739 2.19649 12.8083 2.11787 12.6253C2.03926 12.4423 1.99788 12.2455 1.99615 12.0463C1.99442 11.8472 2.03237 11.6496 2.10779 11.4653C2.18322 11.281 2.29459 11.1135 2.43543 10.9726C2.57627 10.8318 2.74375 10.7204 2.92809 10.645C3.11244 10.5696 3.30996 10.5316 3.50913 10.5334C3.7083 10.5351 3.90513 10.5765 4.08813 10.6551C4.27114 10.7337 4.43666 10.848 4.57503 10.9912L9.17103 15.5872L19.424 5.33323C19.5633 5.19384 19.7287 5.08327 19.9108 5.00783C20.0928 4.93239 20.288 4.89355 20.485 4.89355C20.6821 4.89355 20.8772 4.93239 21.0593 5.00783C21.2413 5.08327 21.4067 5.19384 21.546 5.33323Z" fill="#2AC870"/>
</g>
<defs>
<clipPath id="clip0_2605_3169">
<rect width="24" height="24" fill="white" transform="translate(0 0.222168)"/>
</clipPath>
</defs>
</svg>
