<svg width="94" height="21" viewBox="0 0 94 21" fill="none" xmlns="http://www.w3.org/2000/svg">
<g clip-path="url(#clip0_3499_108124)">
<path fill-rule="evenodd" clip-rule="evenodd" d="M7.26649 3.26818C7.21048 3.25935 7.15353 3.25801 7.09716 3.26418C5.97583 3.38551 4.26916 3.99085 3.26116 4.53751C3.19459 4.57383 3.13499 4.62168 3.08516 4.67885C2.6665 5.15751 2.2865 5.93751 1.98916 6.67618C1.68249 7.43351 1.42916 8.23351 1.28649 8.81218C0.814495 10.6922 0.557162 12.9495 0.522495 15.0908C0.521392 15.1977 0.547062 15.3031 0.597162 15.3975C0.997162 16.1615 1.85983 16.8695 2.72383 17.3868C3.59716 17.9108 4.61716 18.3242 5.4385 18.4042C5.5369 18.4136 5.63615 18.4 5.72845 18.3646C5.82075 18.3293 5.9036 18.273 5.9705 18.2002C6.17583 17.9775 6.52516 17.4575 6.78916 17.0535C6.90916 16.8695 7.0225 16.6935 7.1105 16.5535C7.99316 16.7135 9.09983 16.8068 10.4998 16.8068C11.8972 16.8068 13.0038 16.7135 13.8865 16.5535C13.9745 16.6948 14.0865 16.8695 14.2065 17.0522C14.4705 17.4575 14.8198 17.9775 15.0265 18.2002C15.0934 18.273 15.1762 18.3293 15.2685 18.3646C15.3608 18.4 15.4601 18.4136 15.5585 18.4042C16.3798 18.3242 17.3985 17.9108 18.2718 17.3868C19.1358 16.8695 19.9985 16.1615 20.3998 15.3975C20.4495 15.303 20.4747 15.1976 20.4732 15.0908C20.4398 12.9495 20.1812 10.6908 19.7118 8.81085C19.5232 8.08476 19.2876 7.3717 19.0065 6.67618C18.7092 5.93751 18.3292 5.15618 17.9118 4.67885C17.8616 4.62156 17.8015 4.57369 17.7345 4.53751C16.7278 3.99085 15.0212 3.38551 13.8998 3.26418C13.8435 3.25801 13.7865 3.25935 13.7305 3.26818C13.4792 3.31654 13.2435 3.42547 13.0438 3.58551C12.5966 3.94556 12.235 4.40054 11.9852 4.91751C11.491 4.87875 10.9955 4.85963 10.4998 4.86018C9.96383 4.86018 9.46783 4.88018 9.0105 4.91618C8.76053 4.39968 8.39893 3.94518 7.95183 3.58551C7.75254 3.42566 7.51732 3.31675 7.26649 3.26818ZM15.1905 16.2175C15.3781 16.5065 15.5706 16.7923 15.7678 17.0748C16.2958 16.9548 16.9692 16.6748 17.6145 16.2882C18.3385 15.8548 18.9132 15.3548 19.1905 14.9322C19.1465 12.9242 18.8985 10.8388 18.4705 9.12151C18.2962 8.45264 18.0788 7.79572 17.8198 7.15485C17.5532 6.49085 17.2665 5.92818 17.0172 5.60551C16.1505 5.15618 14.7838 4.68151 13.8932 4.55218C13.8664 4.56844 13.8405 4.58624 13.8158 4.60551C13.7054 4.69243 13.6044 4.79075 13.5145 4.89885C13.4619 4.96144 13.4117 5.02593 13.3638 5.09218C13.7705 5.16685 14.1332 5.25618 14.4545 5.35485C15.3665 5.63485 16.0238 6.02151 16.3452 6.44951C16.447 6.58531 16.4907 6.75599 16.4667 6.92402C16.4427 7.09206 16.353 7.24367 16.2172 7.34551C16.1499 7.39594 16.0734 7.43263 15.992 7.45349C15.9106 7.47435 15.8259 7.47897 15.7427 7.46708C15.5746 7.44308 15.423 7.35331 15.3212 7.21751C15.2425 7.11351 14.8998 6.83085 14.0785 6.57751C13.2852 6.33485 12.1185 6.14018 10.4998 6.14018C8.88116 6.14018 7.71316 6.33485 6.92116 6.57885C6.09983 6.83218 5.75716 7.11218 5.6785 7.21751C5.62807 7.28475 5.56489 7.3414 5.49257 7.38422C5.42025 7.42704 5.34021 7.4552 5.257 7.46708C5.08897 7.49109 4.91829 7.44736 4.7825 7.34551C4.71526 7.29509 4.65861 7.23191 4.61579 7.15959C4.57297 7.08727 4.54481 7.00723 4.53293 6.92402C4.50892 6.75599 4.55265 6.58531 4.6545 6.44951C4.97583 6.02018 5.63316 5.63618 6.54516 5.35618C6.86516 5.25618 7.22783 5.16818 7.63316 5.09351C7.58523 5.02653 7.53452 4.96159 7.48116 4.89885C7.39172 4.79082 7.29117 4.6925 7.18116 4.60551C7.15601 4.5862 7.12974 4.56839 7.1025 4.55218C6.21316 4.68151 4.8465 5.15618 3.97983 5.60551C3.72916 5.92951 3.44383 6.49085 3.17583 7.15485C2.89183 7.86152 2.65583 8.60418 2.52649 9.12151C2.09716 10.8388 1.84916 12.9242 1.8065 14.9322C2.08383 15.3562 2.65716 15.8548 3.38116 16.2895C4.02783 16.6762 4.69983 16.9562 5.22916 17.0748C5.42837 16.7937 5.62087 16.5078 5.8065 16.2175C4.75983 15.8455 4.1985 15.3348 3.83316 14.7882C3.78659 14.7181 3.75426 14.6396 3.73803 14.5571C3.72181 14.4746 3.72199 14.3896 3.73858 14.3072C3.75518 14.2247 3.78784 14.1463 3.83473 14.0765C3.88161 14.0067 3.94179 13.9468 4.01183 13.9002C4.08187 13.8536 4.16039 13.8213 4.24292 13.8051C4.32545 13.7888 4.41037 13.789 4.49283 13.8056C4.57529 13.8222 4.65367 13.8549 4.72351 13.9017C4.79334 13.9486 4.85325 14.0088 4.89983 14.0788C5.2465 14.6015 6.15849 15.5268 10.4998 15.5268C14.8425 15.5268 15.7532 14.6015 16.0998 14.0788C16.1939 13.9374 16.3403 13.8391 16.5068 13.8056C16.6734 13.7721 16.8464 13.8061 16.9878 13.9002C17.1293 13.9942 17.2276 14.1406 17.2611 14.3072C17.2946 14.4737 17.2606 14.6467 17.1665 14.7882C16.8012 15.3348 16.2385 15.8468 15.1905 16.2175ZM5.93983 10.1828C6.26516 9.83351 6.7065 9.63618 7.1665 9.63351C7.6265 9.63618 8.06783 9.83351 8.39316 10.1828C8.71716 10.5335 8.89983 11.0068 8.89983 11.5002C8.89983 11.9935 8.71716 12.4668 8.39316 12.8175C8.06783 13.1668 7.6265 13.3642 7.1665 13.3668C6.93527 13.3644 6.70702 13.3144 6.49598 13.2199C6.28494 13.1254 6.09562 12.9884 5.93983 12.8175C5.6113 12.4577 5.4304 11.9874 5.43316 11.5002C5.43316 11.0068 5.61583 10.5335 5.93983 10.1828ZM13.8332 9.63351C13.3732 9.63618 12.9318 9.83351 12.6065 10.1828C12.2825 10.5335 12.0998 11.0068 12.0998 11.5002C12.0998 11.9935 12.2825 12.4668 12.6065 12.8175C12.9318 13.1668 13.3732 13.3642 13.8332 13.3668C14.2932 13.3642 14.7345 13.1668 15.0598 12.8175C15.3838 12.4668 15.5665 11.9935 15.5665 11.5002C15.5665 11.0068 15.3838 10.5335 15.0598 10.1828C14.904 10.012 14.7147 9.87501 14.5037 9.7805C14.2926 9.68599 14.0644 9.63595 13.8332 9.63351Z" fill="#53606A"/>
</g>
<path d="M33 14.8335H31.908L27.516 8.1735V14.8335H26.424V6.4575H27.516L31.908 13.1055V6.4575H33V14.8335ZM40.8615 11.2935C40.8615 11.5015 40.8495 11.7215 40.8255 11.9535H35.5695C35.6095 12.6015 35.8295 13.1095 36.2295 13.4775C36.6375 13.8375 37.1295 14.0175 37.7055 14.0175C38.1775 14.0175 38.5695 13.9095 38.8815 13.6935C39.2015 13.4695 39.4255 13.1735 39.5535 12.8055H40.7295C40.5535 13.4375 40.2015 13.9535 39.6735 14.3535C39.1455 14.7455 38.4895 14.9415 37.7055 14.9415C37.0815 14.9415 36.5215 14.8015 36.0255 14.5215C35.5375 14.2415 35.1535 13.8455 34.8735 13.3335C34.5935 12.8135 34.4535 12.2135 34.4535 11.5335C34.4535 10.8535 34.5895 10.2575 34.8615 9.7455C35.1335 9.2335 35.5135 8.8415 36.0015 8.5695C36.4975 8.2895 37.0655 8.1495 37.7055 8.1495C38.3295 8.1495 38.8815 8.2855 39.3615 8.5575C39.8415 8.8295 40.2095 9.2055 40.4655 9.6855C40.7295 10.1575 40.8615 10.6935 40.8615 11.2935ZM39.7335 11.0655C39.7335 10.6495 39.6415 10.2935 39.4575 9.9975C39.2735 9.6935 39.0215 9.4655 38.7015 9.3135C38.3895 9.1535 38.0415 9.0735 37.6575 9.0735C37.1055 9.0735 36.6335 9.2495 36.2415 9.6015C35.8575 9.9535 35.6375 10.4415 35.5815 11.0655H39.7335ZM48.3029 11.2935C48.3029 11.5015 48.2909 11.7215 48.2669 11.9535H43.0109C43.0509 12.6015 43.2709 13.1095 43.6709 13.4775C44.0789 13.8375 44.5709 14.0175 45.1469 14.0175C45.6189 14.0175 46.0109 13.9095 46.3229 13.6935C46.6429 13.4695 46.8669 13.1735 46.9949 12.8055H48.1709C47.9949 13.4375 47.6429 13.9535 47.1149 14.3535C46.5869 14.7455 45.9309 14.9415 45.1469 14.9415C44.5229 14.9415 43.9629 14.8015 43.4669 14.5215C42.9789 14.2415 42.5949 13.8455 42.3149 13.3335C42.0349 12.8135 41.8949 12.2135 41.8949 11.5335C41.8949 10.8535 42.0309 10.2575 42.3029 9.7455C42.5749 9.2335 42.9549 8.8415 43.4429 8.5695C43.9389 8.2895 44.5069 8.1495 45.1469 8.1495C45.7709 8.1495 46.3229 8.2855 46.8029 8.5575C47.2829 8.8295 47.6509 9.2055 47.9069 9.6855C48.1709 10.1575 48.3029 10.6935 48.3029 11.2935ZM47.1749 11.0655C47.1749 10.6495 47.0829 10.2935 46.8989 9.9975C46.7149 9.6935 46.4629 9.4655 46.1429 9.3135C45.8309 9.1535 45.4829 9.0735 45.0989 9.0735C44.5469 9.0735 44.0749 9.2495 43.6829 9.6015C43.2989 9.9535 43.0789 10.4415 43.0229 11.0655H47.1749ZM49.3363 11.5215C49.3363 10.8495 49.4723 10.2615 49.7443 9.7575C50.0163 9.2455 50.3883 8.8495 50.8603 8.5695C51.3403 8.2895 51.8763 8.1495 52.4683 8.1495C52.9803 8.1495 53.4563 8.2695 53.8963 8.5095C54.3363 8.7415 54.6723 9.0495 54.9043 9.4335V5.9535H56.0083V14.8335H54.9043V13.5975C54.6883 13.9895 54.3683 14.3135 53.9443 14.5695C53.5203 14.8175 53.0243 14.9415 52.4563 14.9415C51.8723 14.9415 51.3403 14.7975 50.8603 14.5095C50.3883 14.2215 50.0163 13.8175 49.7443 13.2975C49.4723 12.7775 49.3363 12.1855 49.3363 11.5215ZM54.9043 11.5335C54.9043 11.0375 54.8043 10.6055 54.6043 10.2375C54.4043 9.8695 54.1323 9.5895 53.7883 9.3975C53.4523 9.1975 53.0803 9.0975 52.6723 9.0975C52.2643 9.0975 51.8923 9.1935 51.5563 9.3855C51.2203 9.5775 50.9523 9.8575 50.7523 10.2255C50.5523 10.5935 50.4523 11.0255 50.4523 11.5215C50.4523 12.0255 50.5523 12.4655 50.7523 12.8415C50.9523 13.2095 51.2203 13.4935 51.5563 13.6935C51.8923 13.8855 52.2643 13.9815 52.6723 13.9815C53.0803 13.9815 53.4523 13.8855 53.7883 13.6935C54.1323 13.4935 54.4043 13.2095 54.6043 12.8415C54.8043 12.4655 54.9043 12.0295 54.9043 11.5335ZM64.3169 8.1375C64.8129 8.1375 65.2609 8.2455 65.6609 8.4615C66.0609 8.6695 66.3729 8.9855 66.5969 9.4095C66.8289 9.8335 66.9449 10.3495 66.9449 10.9575V14.8335H65.8649V11.1135C65.8649 10.4575 65.7009 9.9575 65.3729 9.6135C65.0449 9.2615 64.5969 9.0855 64.0289 9.0855C63.4529 9.0855 62.9929 9.2655 62.6489 9.6255C62.3129 9.9855 62.1449 10.5095 62.1449 11.1975V14.8335H61.0529V5.9535H62.1449V9.1935C62.3609 8.8575 62.6569 8.5975 63.0329 8.4135C63.4169 8.2295 63.8449 8.1375 64.3169 8.1375ZM74.7287 11.2935C74.7287 11.5015 74.7167 11.7215 74.6927 11.9535H69.4367C69.4767 12.6015 69.6967 13.1095 70.0967 13.4775C70.5047 13.8375 70.9967 14.0175 71.5727 14.0175C72.0447 14.0175 72.4367 13.9095 72.7487 13.6935C73.0687 13.4695 73.2927 13.1735 73.4207 12.8055H74.5967C74.4207 13.4375 74.0687 13.9535 73.5407 14.3535C73.0127 14.7455 72.3567 14.9415 71.5727 14.9415C70.9487 14.9415 70.3887 14.8015 69.8927 14.5215C69.4047 14.2415 69.0207 13.8455 68.7407 13.3335C68.4607 12.8135 68.3207 12.2135 68.3207 11.5335C68.3207 10.8535 68.4567 10.2575 68.7287 9.7455C69.0007 9.2335 69.3807 8.8415 69.8687 8.5695C70.3647 8.2895 70.9327 8.1495 71.5727 8.1495C72.1967 8.1495 72.7487 8.2855 73.2287 8.5575C73.7087 8.8295 74.0767 9.2055 74.3327 9.6855C74.5967 10.1575 74.7287 10.6935 74.7287 11.2935ZM73.6007 11.0655C73.6007 10.6495 73.5087 10.2935 73.3247 9.9975C73.1407 9.6935 72.8887 9.4655 72.5687 9.3135C72.2567 9.1535 71.9087 9.0735 71.5247 9.0735C70.9727 9.0735 70.5007 9.2495 70.1087 9.6015C69.7247 9.9535 69.5047 10.4415 69.4487 11.0655H73.6007ZM77.2621 5.9535V14.8335H76.1701V5.9535H77.2621ZM80.2152 9.4695C80.4312 9.0935 80.7512 8.7815 81.1752 8.5335C81.6072 8.2775 82.1072 8.1495 82.6752 8.1495C83.2592 8.1495 83.7872 8.2895 84.2592 8.5695C84.7392 8.8495 85.1152 9.2455 85.3872 9.7575C85.6592 10.2615 85.7952 10.8495 85.7952 11.5215C85.7952 12.1855 85.6592 12.7775 85.3872 13.2975C85.1152 13.8175 84.7392 14.2215 84.2592 14.5095C83.7872 14.7975 83.2592 14.9415 82.6752 14.9415C82.1152 14.9415 81.6192 14.8175 81.1872 14.5695C80.7632 14.3135 80.4392 13.9975 80.2152 13.6215V17.9535H79.1232V8.2575H80.2152V9.4695ZM84.6792 11.5215C84.6792 11.0255 84.5792 10.5935 84.3792 10.2255C84.1792 9.8575 83.9072 9.5775 83.5632 9.3855C83.2272 9.1935 82.8552 9.0975 82.4472 9.0975C82.0472 9.0975 81.6752 9.1975 81.3312 9.3975C80.9952 9.5895 80.7232 9.8735 80.5152 10.2495C80.3152 10.6175 80.2152 11.0455 80.2152 11.5335C80.2152 12.0295 80.3152 12.4655 80.5152 12.8415C80.7232 13.2095 80.9952 13.4935 81.3312 13.6935C81.6752 13.8855 82.0472 13.9815 82.4472 13.9815C82.8552 13.9815 83.2272 13.8855 83.5632 13.6935C83.9072 13.4935 84.1792 13.2095 84.3792 12.8415C84.5792 12.4655 84.6792 12.0255 84.6792 11.5215ZM89.3686 6.3615C90.1606 6.3615 90.8006 6.5855 91.2886 7.0335C91.7766 7.4815 92.0206 8.0815 92.0206 8.8335C92.0206 9.6735 91.7606 10.2975 91.2406 10.7055C90.7206 11.1055 90.0166 11.3055 89.1286 11.3055L89.0926 12.4455H88.1446L88.0966 10.5495H88.4446C89.2366 10.5495 89.8566 10.4295 90.3046 10.1895C90.7526 9.9495 90.9766 9.4975 90.9766 8.8335C90.9766 8.3535 90.8326 7.9735 90.5446 7.6935C90.2566 7.4135 89.8686 7.2735 89.3806 7.2735C88.8846 7.2735 88.4926 7.4095 88.2046 7.6815C87.9246 7.9455 87.7846 8.3095 87.7846 8.7735H86.7526C86.7526 8.2935 86.8606 7.8735 87.0766 7.5135C87.2926 7.1455 87.5966 6.8615 87.9886 6.6615C88.3886 6.4615 88.8486 6.3615 89.3686 6.3615ZM88.6126 14.9055C88.4046 14.9055 88.2286 14.8335 88.0846 14.6895C87.9406 14.5455 87.8686 14.3695 87.8686 14.1615C87.8686 13.9535 87.9406 13.7775 88.0846 13.6335C88.2286 13.4895 88.4046 13.4175 88.6126 13.4175C88.8126 13.4175 88.9806 13.4895 89.1166 13.6335C89.2606 13.7775 89.3326 13.9535 89.3326 14.1615C89.3326 14.3695 89.2606 14.5455 89.1166 14.6895C88.9806 14.8335 88.8126 14.9055 88.6126 14.9055Z" fill="#53606A"/>
<defs>
<clipPath id="clip0_3499_108124">
<rect width="20" height="20" fill="white" transform="translate(0.5 0.833496)"/>
</clipPath>
</defs>
</svg>
