<svg width="1428" height="1322" viewBox="0 0 1428 1322" fill="none" xmlns="http://www.w3.org/2000/svg">
<g filter="url(#filter0_b_3002_1502)">
<circle cx="505" cy="1164" r="50" fill="url(#paint0_linear_3002_1502)" fill-opacity="0.4"/>
<circle cx="505" cy="1164" r="49.3631" stroke="url(#paint1_linear_3002_1502)" stroke-width="1.27371"/>
</g>
<g filter="url(#filter1_b_3002_1502)">
<circle cx="505" cy="1164" r="36.6242" fill="url(#paint2_linear_3002_1502)"/>
<circle cx="505" cy="1164" r="36.1577" stroke="url(#paint3_linear_3002_1502)" stroke-width="0.932974"/>
</g>
<path d="M490.377 1153.47C490.459 1153.35 490.53 1153.22 490.625 1153.11C490.922 1152.76 491.549 1152.57 491.984 1152.81C492.376 1153.03 492.756 1153.27 493.148 1153.49C493.47 1153.67 493.799 1153.84 494.132 1154C494.511 1154.18 494.894 1154.35 495.283 1154.51C495.624 1154.65 495.975 1154.76 496.324 1154.88C496.608 1154.98 496.892 1155.08 497.18 1155.16C497.433 1155.23 497.691 1155.29 497.948 1155.35C498.271 1155.43 498.595 1155.5 498.919 1155.57C499.061 1155.6 499.205 1155.62 499.347 1155.64C499.659 1155.7 499.971 1155.75 500.283 1155.8C500.304 1155.8 500.325 1155.81 500.346 1155.81C500.593 1155.84 500.84 1155.86 501.087 1155.88C501.567 1155.92 502.045 1155.98 502.525 1156.01C503.065 1156.04 503.606 1156.06 504.147 1156.06C504.773 1156.07 505.4 1156.07 506.026 1156.05C506.545 1156.03 507.062 1155.97 507.58 1155.92C507.89 1155.89 508.201 1155.86 508.509 1155.81C508.835 1155.77 509.159 1155.71 509.483 1155.65C509.819 1155.59 510.155 1155.53 510.488 1155.46C510.774 1155.39 511.056 1155.32 511.339 1155.24C511.638 1155.16 511.937 1155.08 512.233 1154.99C512.435 1154.93 512.632 1154.85 512.831 1154.78C513.101 1154.68 513.373 1154.59 513.638 1154.48C514.012 1154.32 514.386 1154.17 514.749 1153.99C515.155 1153.79 515.552 1153.57 515.946 1153.36C516.217 1153.2 516.475 1153.03 516.743 1152.87C517.08 1152.67 517.425 1152.66 517.791 1152.81C518.12 1152.95 518.34 1153.18 518.451 1153.5C518.533 1153.74 518.538 1153.99 518.483 1154.25C518.406 1154.61 518.242 1154.91 517.984 1155.15C517.774 1155.34 517.517 1155.49 517.269 1155.63C516.931 1155.83 516.584 1156.02 516.236 1156.19C515.929 1156.35 515.616 1156.5 515.301 1156.64C514.926 1156.8 514.548 1156.95 514.166 1157.1C513.91 1157.2 513.644 1157.27 513.383 1157.35C513.141 1157.43 512.898 1157.5 512.657 1157.58C512.632 1157.59 512.607 1157.63 512.599 1157.65C512.589 1157.69 512.594 1157.73 512.594 1157.77C512.594 1159.52 512.594 1161.26 512.594 1163.01V1163.16C512.749 1163.16 512.89 1163.16 513.031 1163.17C513.447 1163.18 513.835 1163.28 514.158 1163.57C514.396 1163.77 514.579 1164.01 514.649 1164.33C514.678 1164.46 514.706 1164.6 514.719 1164.73C514.764 1165.2 514.432 1165.59 514.007 1165.69C513.883 1165.71 513.755 1165.73 513.629 1165.73C513.29 1165.74 512.95 1165.74 512.594 1165.74C512.594 1165.8 512.594 1165.86 512.594 1165.91C512.594 1167.63 512.594 1169.35 512.594 1171.07C512.594 1171.31 512.595 1171.31 512.824 1171.37C513.068 1171.44 513.309 1171.52 513.549 1171.6C513.85 1171.7 514.152 1171.8 514.448 1171.92C514.797 1172.05 515.147 1172.19 515.485 1172.35C515.979 1172.58 516.472 1172.82 516.948 1173.09C517.365 1173.32 517.816 1173.52 518.13 1173.9C518.302 1174.11 518.431 1174.35 518.469 1174.62C518.488 1174.76 518.519 1174.9 518.519 1175.03C518.519 1175.54 518.172 1175.96 517.719 1176.12C517.304 1176.26 516.924 1176.17 516.557 1175.93C516.127 1175.65 515.689 1175.38 515.234 1175.15C514.723 1174.88 514.193 1174.65 513.662 1174.43C513.259 1174.26 512.845 1174.11 512.428 1173.97C511.956 1173.82 511.476 1173.69 510.997 1173.56C510.66 1173.47 510.32 1173.39 509.978 1173.32C509.707 1173.27 509.43 1173.24 509.156 1173.2C508.797 1173.14 508.439 1173.09 508.08 1173.04C507.914 1173.01 507.748 1172.99 507.581 1172.98C507.265 1172.95 506.948 1172.92 506.63 1172.9C505.952 1172.87 505.273 1172.85 504.594 1172.84C503.972 1172.83 503.35 1172.84 502.728 1172.86C502.265 1172.88 501.803 1172.93 501.341 1172.97C501 1173 500.66 1173.04 500.321 1173.09C499.961 1173.14 499.603 1173.2 499.245 1173.27C498.952 1173.32 498.658 1173.37 498.368 1173.44C498.101 1173.5 497.838 1173.59 497.572 1173.66C497.248 1173.74 496.922 1173.82 496.6 1173.91C496.402 1173.97 496.21 1174.05 496.016 1174.12C495.794 1174.2 495.571 1174.28 495.351 1174.37C495.04 1174.49 494.725 1174.6 494.424 1174.75C494.014 1174.94 493.61 1175.15 493.213 1175.37C492.875 1175.56 492.541 1175.75 492.222 1175.97C491.686 1176.34 491 1176.21 490.598 1175.76C490.533 1175.69 490.493 1175.59 490.439 1175.51C490.422 1175.48 490.398 1175.46 490.378 1175.43C490.378 1175.12 490.378 1174.81 490.378 1174.5C490.397 1174.47 490.425 1174.45 490.435 1174.42C490.52 1174.18 490.649 1173.96 490.835 1173.79C491.147 1173.49 491.535 1173.3 491.902 1173.09C492.344 1172.84 492.806 1172.62 493.266 1172.4C493.589 1172.25 493.921 1172.11 494.253 1171.98C494.51 1171.87 494.771 1171.78 495.034 1171.69C495.359 1171.58 495.685 1171.47 496.015 1171.38C496.258 1171.31 496.262 1171.32 496.262 1171.07C496.262 1169.35 496.262 1167.63 496.262 1165.91C496.262 1165.86 496.262 1165.8 496.262 1165.76C495.975 1165.74 495.706 1165.72 495.441 1165.68C495.18 1165.64 494.939 1165.54 494.73 1165.37C494.451 1165.13 494.237 1164.86 494.168 1164.5C494.125 1164.29 494.108 1164.04 494.166 1163.83C494.281 1163.42 494.69 1163.16 495.113 1163.16C495.293 1163.17 495.474 1163.16 495.655 1163.16C495.852 1163.16 496.049 1163.16 496.262 1163.16C496.262 1163.1 496.262 1163.05 496.262 1163C496.262 1161.55 496.262 1160.11 496.262 1158.66C496.262 1158.34 496.264 1158.03 496.259 1157.72C496.258 1157.67 496.227 1157.6 496.194 1157.59C495.89 1157.48 495.581 1157.39 495.277 1157.29C494.925 1157.17 494.573 1157.05 494.227 1156.92C493.918 1156.79 493.614 1156.66 493.313 1156.52C492.967 1156.35 492.624 1156.19 492.286 1156.01C491.955 1155.83 491.633 1155.64 491.306 1155.46C490.982 1155.28 490.698 1155.06 490.532 1154.71C490.481 1154.61 490.429 1154.51 490.377 1154.4C490.377 1154.09 490.377 1153.78 490.377 1153.47L490.377 1153.47ZM498.97 1163.16H509.881V1158.24C509.69 1158.27 509.515 1158.31 509.338 1158.34C508.932 1158.4 508.526 1158.46 508.119 1158.5C507.693 1158.55 507.265 1158.6 506.837 1158.63C506.431 1158.66 506.022 1158.68 505.615 1158.68C504.527 1158.68 503.439 1158.66 502.351 1158.64C501.992 1158.63 501.633 1158.59 501.274 1158.56C501.081 1158.54 500.888 1158.53 500.696 1158.5C500.315 1158.45 499.935 1158.4 499.555 1158.34C499.365 1158.32 499.177 1158.28 498.97 1158.24V1163.16L498.97 1163.16ZM509.884 1165.75H498.965C498.914 1166.09 498.943 1170.58 498.994 1170.66C499.176 1170.62 499.358 1170.59 499.539 1170.56C499.657 1170.54 499.774 1170.51 499.892 1170.5C500.104 1170.47 500.317 1170.45 500.529 1170.43C500.984 1170.38 501.44 1170.32 501.896 1170.27C502.216 1170.24 502.538 1170.22 502.859 1170.22C503.981 1170.21 505.104 1170.16 506.225 1170.25C506.781 1170.3 507.338 1170.33 507.893 1170.38C508.191 1170.4 508.487 1170.45 508.784 1170.49C509.147 1170.54 509.51 1170.6 509.884 1170.65V1165.75L509.884 1165.75Z" fill="white"/>
<g filter="url(#filter2_b_3002_1502)">
<circle cx="504" cy="116" r="50" fill="url(#paint4_linear_3002_1502)" fill-opacity="0.4"/>
<circle cx="504" cy="116" r="49.3631" stroke="url(#paint5_linear_3002_1502)" stroke-width="1.27371"/>
</g>
<g filter="url(#filter3_b_3002_1502)">
<circle cx="504" cy="116" r="36.6242" fill="url(#paint6_linear_3002_1502)"/>
<circle cx="504" cy="116" r="36.1577" stroke="url(#paint7_linear_3002_1502)" stroke-width="0.932974"/>
</g>
<path d="M508.9 113.213L510.793 114.974L517.268 109.275V100L515.28 101.514L514.269 102.289L513.194 103.113L512.952 103.298C511.153 104.673 509.114 106.231 507.233 107.944L506.954 108.194C506.265 108.807 505.485 109.507 505.041 110.634C504.575 111.806 504.547 113.119 504.963 114.312C505.551 115.936 506.796 116.918 507.895 117.785C508.131 117.971 508.354 118.147 508.565 118.325C509.972 119.507 511.408 120.701 512.797 121.853L514.429 123.21V126.337L504.66 118.258L504.668 121.542L516.933 131.803V121.936L516.459 121.542L514.349 119.789C512.963 118.639 511.53 117.45 510.13 116.27C509.889 116.068 509.64 115.876 509.398 115.681C508.491 114.965 507.634 114.288 507.303 113.376C507.112 112.809 507.131 112.188 507.356 111.636C507.569 111.095 508.011 110.701 508.573 110.201C508.673 110.113 508.773 110.026 508.873 109.938C510.673 108.299 512.665 106.775 514.424 105.431L514.667 105.246L514.764 105.171V108.047L508.9 113.213Z" fill="white"/>
<path d="M503.295 113.731L503.287 110.448L491.018 100.19V110.05L491.491 110.444C492.194 111.03 492.897 111.614 493.601 112.197C494.986 113.348 496.42 114.537 497.819 115.715C498.061 115.918 498.31 116.115 498.551 116.306C499.459 117.022 500.316 117.698 500.648 118.611C500.838 119.177 500.819 119.798 500.594 120.35C500.381 120.891 499.938 121.285 499.378 121.785L499.078 122.054C497.278 123.693 495.285 125.217 493.526 126.561L493.284 126.746L493.186 126.819V123.943L499.055 118.783L497.163 117.017L490.688 122.721V131.993L492.675 130.477L493.686 129.702L494.761 128.88L495.004 128.695C496.803 127.32 498.841 125.762 500.723 124.049C500.815 123.965 500.908 123.881 501.001 123.8C501.689 123.186 502.47 122.486 502.914 121.358C503.38 120.186 503.408 118.873 502.993 117.68C502.403 116.056 501.159 115.075 500.06 114.208C499.824 114.022 499.601 113.846 499.39 113.668C497.984 112.486 496.548 111.292 495.158 110.139L493.533 108.783V105.648L503.295 113.731Z" fill="white"/>
<g filter="url(#filter4_b_3002_1502)">
<circle cx="184" cy="841" r="50" fill="url(#paint8_linear_3002_1502)" fill-opacity="0.4"/>
<circle cx="184" cy="841" r="49.3631" stroke="url(#paint9_linear_3002_1502)" stroke-width="1.27371"/>
</g>
<g filter="url(#filter5_b_3002_1502)">
<circle cx="184" cy="841" r="36.6242" fill="url(#paint10_linear_3002_1502)"/>
<circle cx="184" cy="841" r="36.1577" stroke="url(#paint11_linear_3002_1502)" stroke-width="0.932974"/>
</g>
<g clip-path="url(#clip0_3002_1502)">
<path d="M187.162 834.185L188.171 830.928C188.408 830.164 189.073 829.608 189.868 829.522C190.058 829.501 190.243 829.487 190.425 829.479C189.669 829.31 188.815 829.245 187.864 829.348C187.07 829.435 186.404 829.991 186.167 830.755L185.158 834.012L193.713 836.594L193.826 836.196L187.162 834.184V834.185Z" fill="white"/>
<path d="M176.354 829.23L176.547 827.179L179.127 827.422C180.218 827.526 181.293 827.289 182.24 826.74C182.618 826.521 182.966 826.252 183.275 825.941L184.592 824.617C185.6 823.604 187.044 823.136 188.453 823.365C189.788 823.581 190.966 824.295 191.77 825.377C191.896 825.545 192.011 825.723 192.116 825.906C192.646 826.836 192.772 827.958 192.46 828.983C192.313 829.469 192.174 829.929 192.172 829.933L192.102 830.164L190.13 829.57L190.2 829.338C190.2 829.338 190.34 828.872 190.489 828.383C190.636 827.897 190.577 827.367 190.326 826.926C190.263 826.815 190.194 826.709 190.119 826.608C189.635 825.958 188.928 825.528 188.124 825.398C187.367 825.275 186.593 825.527 186.052 826.069L184.735 827.394C184.3 827.831 183.807 828.21 183.273 828.521C181.953 829.286 180.453 829.617 178.933 829.473L176.353 829.23H176.354ZM176.982 827.703L176.878 828.795L178.979 828.993C180.398 829.127 181.799 828.82 183.031 828.104C183.529 827.815 183.986 827.462 184.392 827.054L185.71 825.729C186.359 825.076 187.291 824.774 188.201 824.921C189.129 825.071 189.946 825.568 190.505 826.32C190.592 826.437 190.672 826.559 190.745 826.686C191.061 827.242 191.136 827.911 190.95 828.522C190.866 828.798 190.786 829.063 190.731 829.245L191.78 829.561C191.835 829.381 191.915 829.116 191.999 828.842C192.273 827.943 192.163 826.96 191.697 826.144C191.602 825.979 191.498 825.816 191.385 825.665C190.657 824.685 189.589 824.036 188.377 823.841C187.121 823.637 185.834 824.056 184.935 824.959L183.618 826.283C183.279 826.623 182.898 826.917 182.483 827.158C181.45 827.758 180.274 828.016 179.083 827.904L176.983 827.706L176.982 827.703Z" fill="white"/>
<mask id="mask0_3002_1502" style="mask-type:luminance" maskUnits="userSpaceOnUse" x="176" y="823" width="17" height="7">
<path d="M190.745 826.687C191.062 827.242 191.136 827.912 190.95 828.523C190.866 828.8 190.785 829.066 190.731 829.246L191.78 829.563C191.835 829.382 191.915 829.118 191.999 828.843C192.273 827.944 192.163 826.961 191.698 826.145C190.993 824.909 189.781 824.068 188.377 823.841C187.121 823.637 185.834 824.055 184.935 824.958L183.618 826.283C183.279 826.623 182.898 826.917 182.483 827.158C181.45 827.758 180.274 828.015 179.084 827.904L176.983 827.706L176.88 828.797L178.98 828.996C180.399 829.129 181.801 828.822 183.033 828.106C183.531 827.817 183.988 827.465 184.394 827.056L185.711 825.732C186.361 825.078 187.293 824.777 188.203 824.924C189.279 825.097 190.207 825.742 190.746 826.689L190.745 826.687Z" fill="white"/>
</mask>
<g mask="url(#mask0_3002_1502)">
<path d="M190.141 827.475L190.181 827.202C190.549 827.256 190.924 827.431 191.293 827.723C191.582 827.951 191.868 828.251 192.146 828.615C192.614 829.23 192.891 829.809 192.902 829.834L192.653 829.953C192.64 829.928 191.561 827.683 190.141 827.475Z" fill="white"/>
<path d="M189.693 826.714L189.533 826.489C189.897 826.232 190.325 826.145 190.806 826.233C191.179 826.302 191.584 826.476 192.009 826.75C192.724 827.209 193.248 827.787 193.269 827.812L193.064 827.997C193.064 827.997 192.539 827.419 191.855 826.979C190.972 826.412 190.243 826.323 189.691 826.715L189.693 826.714Z" fill="white"/>
<path d="M188.958 825.803C189.36 825.171 190.039 824.823 190.921 824.796C191.573 824.777 192.103 824.94 192.125 824.946L192.044 825.209C192.044 825.209 191.529 825.052 190.922 825.072C190.128 825.096 189.546 825.392 189.192 825.95L188.959 825.803H188.958Z" fill="white"/>
<path d="M188.019 825.382C188.178 824.682 188.65 824.147 189.385 823.832C189.93 823.598 190.425 823.567 190.445 823.567L190.46 823.843C190.46 823.843 189.988 823.872 189.487 824.089C188.832 824.373 188.429 824.828 188.288 825.444L188.02 825.382H188.019Z" fill="white"/>
<path d="M186.901 825.947C186.888 825.402 186.982 824.89 187.179 824.427C187.337 824.057 187.56 823.717 187.844 823.417C188.325 822.906 188.811 822.692 188.832 822.682L188.942 822.934C188.942 822.934 188.48 823.14 188.035 823.614C187.444 824.243 187.154 825.026 187.175 825.942L186.899 825.947H186.901Z" fill="white"/>
<path d="M186.228 826.838C185.893 826.359 185.72 825.838 185.713 825.293C185.708 824.86 185.805 824.41 186.006 823.957C186.345 823.194 186.853 822.689 186.873 822.668L187.066 822.865C187.058 822.873 186.569 823.362 186.254 824.076C185.838 825.019 185.906 825.895 186.452 826.681L186.227 826.839L186.228 826.838Z" fill="white"/>
<path d="M185.023 827.577C184.812 827.293 184.654 826.974 184.552 826.626C184.427 826.196 184.386 825.721 184.431 825.213C184.505 824.354 184.796 823.703 184.808 823.676L185.06 823.789C185.06 823.789 184.775 824.43 184.705 825.245C184.613 826.319 184.915 827.182 185.604 827.809L185.418 828.013C185.271 827.878 185.138 827.732 185.023 827.577Z" fill="white"/>
<path d="M183.72 828.217C183.332 827.695 183.252 827.118 183.273 826.664C183.304 825.951 183.581 825.394 183.592 825.37L183.838 825.494C183.838 825.494 183.574 826.03 183.548 826.685C183.512 827.544 183.877 828.209 184.632 828.661L184.491 828.898C184.152 828.695 183.902 828.462 183.72 828.217Z" fill="white"/>
<path d="M180.513 829.282C180.474 828.663 180.676 828.192 180.853 827.907C181.044 827.596 181.248 827.431 181.256 827.424L181.429 827.639C181.429 827.639 181.249 827.787 181.082 828.061C180.861 828.425 180.762 828.831 180.788 829.266L180.513 829.282Z" fill="white"/>
<path d="M179.248 829.325C179.123 828.652 179.368 828.211 179.595 827.961C179.84 827.691 180.114 827.581 180.126 827.577L180.228 827.833C180.228 827.833 179.994 827.928 179.793 828.154C179.53 828.449 179.438 828.827 179.52 829.274L179.249 829.324L179.248 829.325Z" fill="white"/>
<path d="M177.724 829.268C178.021 827.749 178.909 827.64 178.946 827.636L178.975 827.91H178.976C178.976 827.91 178.795 827.935 178.588 828.115C178.307 828.359 178.102 828.777 177.995 829.322L177.724 829.27V829.268Z" fill="white"/>
<path d="M182.23 828.845C181.967 828.49 181.898 828.04 182.033 827.532C182.142 827.123 182.344 826.821 182.353 826.809L182.581 826.963C182.581 826.963 182.394 827.244 182.297 827.61C182.175 828.078 182.251 828.468 182.522 828.766L182.318 828.952C182.286 828.918 182.258 828.882 182.23 828.845Z" fill="white"/>
</g>
<path d="M193.713 836.595L194.595 833.48C194.795 832.774 194.595 832.016 194.075 831.5C193.03 830.466 190.968 829.01 187.864 829.35C187.07 829.436 186.404 829.992 186.167 830.756L185.158 834.013L193.713 836.595Z" fill="white"/>
<path d="M184.568 834.327L185.718 830.616C186.011 829.669 186.834 828.988 187.814 828.88C190.757 828.558 192.819 829.754 194.032 830.814C194.16 830.927 194.286 831.044 194.407 831.164C195.05 831.8 195.297 832.736 195.05 833.608L194.037 837.186L184.568 834.327ZM193.409 831.525C192.338 830.589 190.517 829.533 187.915 829.818C187.309 829.884 186.8 830.306 186.617 830.895L185.749 833.698L193.39 836.005L194.142 833.351C194.294 832.81 194.142 832.229 193.744 831.834C193.636 831.728 193.525 831.624 193.411 831.525H193.409Z" fill="white"/>
<path d="M184.958 845.257H184.965H190.938L191.583 842.049H181.377L180.732 845.257H184.958Z" fill="white"/>
<path d="M180.306 847.396L178.865 854.605H183.098L183.906 850.587H189.87L190.514 847.396H180.306Z" fill="white"/>
<path d="M185.225 833.551C183.957 833.551 182.727 833.712 181.551 834.013V837.907C182.701 837.501 183.937 837.277 185.225 837.277C191.317 837.277 196.274 842.234 196.274 848.326C196.274 854.418 191.317 859.375 185.225 859.375C179.133 859.375 174.175 854.418 174.175 848.326C174.175 843.559 177.208 839.489 181.447 837.942L180.718 834.253C174.767 836.162 170.447 841.749 170.447 848.326C170.447 856.473 177.076 863.102 185.224 863.102C193.371 863.102 200 856.473 200 848.326C200 840.178 193.372 833.549 185.224 833.549L185.225 833.551Z" fill="white"/>
<path d="M180.195 828.356L180.684 827.632L179.994 827.066L186.405 819L178.727 824.751L178.977 821.167L176.899 824.491L175.236 821.727L174.768 825.321L169.089 823.485L173.072 826.953L171.838 827.264L173.254 828.404L168 832.061L173.62 831.045L172.86 832.828L174.372 832.068L172.692 838.164L176.381 832.469L177.734 835.19L178.007 832.799L181.447 837.943L180.028 830.751L185.294 831.279L180.195 828.353V828.356Z" fill="white"/>
<path d="M177.619 831.201L177.388 833.223L176.446 831.328L174.213 834.773L175.255 830.99L173.988 831.628L174.552 830.301L170.457 831.041L174.2 828.437L173.079 827.535L174.263 827.238L171.547 824.873L175.243 826.068L175.588 823.41L176.891 825.574L178.253 823.392L178.076 825.947L183.226 822.087L179.204 827.15L179.926 827.742L179.386 828.543L182.712 830.452L179.324 830.112L180.343 835.274L177.619 831.201Z" fill="white"/>
</g>
<g filter="url(#filter6_b_3002_1502)">
<circle cx="182" cy="435" r="50" fill="url(#paint12_linear_3002_1502)" fill-opacity="0.4"/>
<circle cx="182" cy="435" r="49.3631" stroke="url(#paint13_linear_3002_1502)" stroke-width="1.27371"/>
</g>
<g filter="url(#filter7_b_3002_1502)">
<circle cx="182" cy="435" r="36.6242" fill="url(#paint14_linear_3002_1502)"/>
<circle cx="182" cy="435" r="36.1577" stroke="url(#paint15_linear_3002_1502)" stroke-width="0.932974"/>
</g>
<g clip-path="url(#clip1_3002_1502)">
<path fill-rule="evenodd" clip-rule="evenodd" d="M186.511 442.889L182.99 431.774L183.759 429.673L197.768 420.017L192.073 433.327L186.511 442.889Z" fill="#E6E7E8"/>
<path fill-rule="evenodd" clip-rule="evenodd" d="M178.489 442.937L182.01 431.822L181.24 429.721L167.232 420.065L172.928 433.375L178.489 442.937Z" fill="#E6E7E8"/>
<path fill-rule="evenodd" clip-rule="evenodd" d="M186.534 443.174L190.858 448.839L197.26 440.243L196.613 434.323L192.321 433.168L186.534 443.174Z" fill="#E6E7E8"/>
<path fill-rule="evenodd" clip-rule="evenodd" d="M178.433 443.174L174.109 448.84L167.709 440.243L168.354 434.323L172.724 433.245L178.433 443.174Z" fill="#E6E7E8"/>
<path fill-rule="evenodd" clip-rule="evenodd" d="M192.293 433.092L196.177 434.11L201.843 429.468L203 420.006L197.951 420L192.293 433.092Z" fill="#E6E7E8"/>
<path fill-rule="evenodd" clip-rule="evenodd" d="M172.707 433.14L168.822 434.158L163.157 429.516L162 420.054L167.049 420.048L172.707 433.14Z" fill="#E6E7E8"/>
<path fill-rule="evenodd" clip-rule="evenodd" d="M186.081 442.143L182.856 431.914L182.502 433.12L182.114 431.826L179.014 442.148L181.155 446.538L182.462 445.138L183.788 446.521L186.081 442.143Z" fill="#E6E7E8"/>
<path fill-rule="evenodd" clip-rule="evenodd" d="M183.938 446.537L186.57 443.426L186.147 442.404L183.938 446.537Z" fill="#E6E7E8"/>
<path fill-rule="evenodd" clip-rule="evenodd" d="M181.063 446.585L178.431 443.474L178.911 442.351L181.063 446.585Z" fill="#E6E7E8"/>
</g>
<g filter="url(#filter8_b_3002_1502)">
<circle cx="988" cy="142" r="50" fill="url(#paint16_linear_3002_1502)" fill-opacity="0.4"/>
<circle cx="988" cy="142" r="49.3631" stroke="url(#paint17_linear_3002_1502)" stroke-width="1.27371"/>
</g>
<g filter="url(#filter9_b_3002_1502)">
<circle cx="988" cy="142" r="36.6242" fill="url(#paint18_linear_3002_1502)"/>
<circle cx="988" cy="142" r="36.1577" stroke="url(#paint19_linear_3002_1502)" stroke-width="0.932974"/>
</g>
<g clip-path="url(#clip2_3002_1502)">
<path d="M988.481 136.916C988.481 133.806 988.481 130.696 988.481 127.586C988.481 127.178 988.724 126.936 989.073 127.017C989.182 127.043 989.307 127.118 989.366 127.209C989.525 127.452 989.655 127.715 989.792 127.972C989.886 128.15 989.97 128.333 990.063 128.511C990.31 128.982 990.557 129.454 990.809 129.922C991.105 130.471 991.404 131.017 991.703 131.565C991.912 131.947 992.125 132.327 992.332 132.71C992.519 133.057 992.704 133.405 992.885 133.755C993.103 134.177 993.31 134.606 993.533 135.026C993.831 135.587 994.145 136.141 994.444 136.702C994.656 137.1 994.848 137.51 995.062 137.907C995.366 138.472 995.686 139.028 995.99 139.594C996.215 140.012 996.424 140.44 996.645 140.86C996.794 141.144 996.954 141.421 997.104 141.703C997.28 142.032 997.451 142.364 997.624 142.694C997.772 142.973 997.92 143.251 998.069 143.53C998.228 143.829 998.386 144.127 998.547 144.425C998.787 144.869 999.033 145.309 999.269 145.754C999.494 146.18 999.705 146.612 999.929 147.038C1000.08 147.322 1000.24 147.597 1000.39 147.88C1000.57 148.207 1000.73 148.541 1000.91 148.868C1001.06 149.151 1001.22 149.427 1001.37 149.71C1001.55 150.038 1001.71 150.371 1001.88 150.7C1002.03 150.984 1002.19 151.263 1002.35 151.547C1002.52 151.875 1002.69 152.206 1002.86 152.534C1003.02 152.816 1003.17 153.094 1003.32 153.377C1003.55 153.793 1003.77 154.209 1003.98 154.63C1004.07 154.81 1003.82 155.154 1003.59 155.194C1003.41 155.224 1003.25 155.164 1003.1 155.074C1001.81 154.328 1000.51 153.586 999.222 152.842C998.345 152.337 997.47 151.829 996.593 151.324C995.712 150.817 994.828 150.313 993.947 149.805C993.029 149.277 992.113 148.746 991.197 148.216C990.401 147.755 989.609 147.285 988.807 146.837C988.56 146.698 988.478 146.512 988.478 146.246C988.481 143.136 988.48 140.026 988.48 136.916L988.481 136.916Z" fill="white"/>
<path d="M987.487 136.922C987.487 139.992 987.479 143.062 987.498 146.131C987.501 146.539 987.341 146.755 987.015 146.936C986.447 147.25 985.891 147.586 985.327 147.909C984.65 148.299 983.969 148.683 983.291 149.073C981.886 149.881 980.481 150.692 979.076 151.5C977.573 152.365 976.07 153.229 974.566 154.093C973.957 154.443 973.349 154.792 972.739 155.142C972.565 155.241 972.296 155.212 972.16 155.08C971.986 154.913 971.953 154.687 972.066 154.477C972.467 153.735 972.868 152.993 973.265 152.249C973.524 151.764 973.776 151.275 974.031 150.788C974.378 150.124 974.722 149.459 975.073 148.798C975.367 148.247 975.673 147.703 975.969 147.152C976.258 146.612 976.537 146.068 976.825 145.528C977.119 144.978 977.421 144.433 977.714 143.883C978.006 143.332 978.29 142.776 978.58 142.223C978.721 141.955 978.868 141.689 979.011 141.422C979.259 140.957 979.506 140.493 979.754 140.028C979.9 139.756 980.048 139.486 980.193 139.213C980.434 138.757 980.671 138.299 980.915 137.844C981.131 137.44 981.356 137.041 981.572 136.636C981.742 136.317 981.901 135.992 982.071 135.673C982.295 135.248 982.525 134.827 982.752 134.403C982.973 133.99 983.192 133.575 983.414 133.162C983.588 132.84 983.768 132.52 983.941 132.197C984.103 131.894 984.26 131.589 984.421 131.286C984.578 130.988 984.738 130.691 984.896 130.393C985.118 129.974 985.337 129.555 985.559 129.136C985.715 128.842 985.873 128.549 986.03 128.256C986.197 127.943 986.365 127.629 986.531 127.315C986.623 127.142 986.749 127.018 986.956 127.002C987.17 126.985 987.325 127.091 987.439 127.254C987.478 127.309 987.483 127.396 987.484 127.469C987.489 127.742 987.486 128.015 987.486 128.288C987.486 131.166 987.486 134.044 987.486 136.922H987.487Z" fill="white"/>
<path d="M987.951 156.889C983.259 156.889 978.568 156.89 973.876 156.885C973.733 156.885 973.582 156.835 973.448 156.778C973.177 156.662 973.158 156.15 973.425 155.991C973.865 155.73 974.303 155.463 974.745 155.205C975.292 154.886 975.842 154.573 976.39 154.258C977.272 153.752 978.155 153.247 979.035 152.738C979.713 152.346 980.387 151.945 981.064 151.553C982.07 150.971 983.079 150.393 984.086 149.811C985.038 149.262 985.988 148.709 986.94 148.161C987.228 147.995 987.522 147.839 987.814 147.679C987.968 147.596 988.111 147.658 988.241 147.732C989.399 148.397 990.555 149.066 991.71 149.736C992.58 150.241 993.448 150.751 994.318 151.257C995.162 151.748 996.007 152.239 996.852 152.727C997.693 153.213 998.536 153.696 999.378 154.181C1000.11 154.603 1000.84 155.024 1001.58 155.445C1001.87 155.611 1002.16 155.773 1002.44 155.943C1002.64 156.059 1002.72 156.303 1002.65 156.538C1002.6 156.728 1002.4 156.876 1002.16 156.888C1002.1 156.891 1002.04 156.889 1001.97 156.889C997.298 156.889 992.624 156.889 987.95 156.889L987.951 156.889Z" fill="white"/>
</g>
<g filter="url(#filter10_b_3002_1502)">
<circle cx="989" cy="1136" r="50" fill="url(#paint20_linear_3002_1502)" fill-opacity="0.4"/>
<circle cx="989" cy="1136" r="49.3631" stroke="url(#paint21_linear_3002_1502)" stroke-width="1.27371"/>
</g>
<g filter="url(#filter11_b_3002_1502)">
<circle cx="989" cy="1136" r="37.5" fill="url(#paint22_linear_3002_1502)"/>
<circle cx="989" cy="1136" r="37.0335" stroke="url(#paint23_linear_3002_1502)" stroke-width="0.932974"/>
</g>
<g clip-path="url(#clip3_3002_1502)">
<path fill-rule="evenodd" clip-rule="evenodd" d="M1005 1136C1005 1144.84 997.837 1152 989 1152C980.163 1152 973 1144.84 973 1136C973 1136 973 1136 973 1136C973 1137.17 973.126 1138.31 973.364 1139.4C973.347 1138.86 973.377 1138.31 973.461 1137.79L974.887 1143.32C974.92 1143.46 974.956 1143.6 974.996 1143.74L974.887 1143.32C974.754 1142.73 974.674 1142.07 974.626 1141.25C974.53 1139.62 975.136 1137.07 976.153 1135.67C977.091 1134.38 979.205 1133.17 981.221 1134.24C982.285 1134.81 983.426 1136.98 982.149 1141.53C981.459 1143.99 981.128 1146.76 982.825 1149.11C984.252 1151.08 986.863 1151.59 989.118 1150.97C991.938 1150.2 993.502 1147.98 994.144 1145.22C994.6 1143.26 994.296 1141.27 993.516 1139.39C992.99 1138.12 992.396 1137.2 991.866 1136.37C991.049 1135.1 990.383 1134.07 990.347 1132.37C990.345 1132.31 990.344 1132.25 990.343 1132.18C990.33 1131.23 990.307 1129.63 989 1129.76C987.677 1129.88 987.841 1131.38 988.129 1132.32C988.408 1133.22 988.969 1134.03 989.618 1134.98C990.007 1135.54 990.428 1136.16 990.839 1136.86C991.659 1138.27 992.203 1139.3 992.319 1140.87C992.44 1142.5 991.993 1144.29 991.042 1145.71C990.16 1147.04 988.263 1148.28 986.324 1147.38C985.618 1147.05 985.186 1146.43 984.983 1145.77C984.554 1144.38 984.791 1143 985.053 1141.47C985.18 1140.73 985.313 1139.96 985.38 1139.13C985.726 1134.89 982.868 1129.08 977.369 1131.77C975.603 1132.63 974.222 1134.9 973.634 1136.99C973.562 1137.25 973.504 1137.52 973.461 1137.79L973 1136C973 1127.16 980.163 1120 989 1120C995.381 1120 1000.89 1123.73 1003.46 1129.14C1003.54 1129.62 1003.6 1130.15 1003.63 1130.78C1003.73 1132.41 1003.12 1134.96 1002.11 1136.36C1001.17 1137.65 999.054 1138.86 997.038 1137.79C995.974 1137.22 994.834 1135.05 996.11 1130.5C996.8 1128.04 997.131 1125.27 995.435 1122.92C994.007 1120.95 991.396 1120.44 989.141 1121.06C986.322 1121.83 984.757 1124.05 984.116 1126.81C983.659 1128.78 983.963 1130.76 984.743 1132.64C985.269 1133.91 985.863 1134.83 986.394 1135.66C987.21 1136.93 987.877 1137.97 987.913 1139.66C987.914 1139.72 987.915 1139.78 987.916 1139.85L987.916 1139.85C987.93 1140.81 987.952 1142.4 989.259 1142.28C990.582 1142.15 990.418 1140.65 990.13 1139.72C989.851 1138.81 989.29 1138 988.641 1137.06C988.252 1136.49 987.831 1135.88 987.42 1135.17C986.599 1133.76 986.055 1132.73 985.94 1131.16C985.819 1129.53 986.265 1127.75 987.217 1126.32C988.099 1125 989.996 1123.75 991.934 1124.66C992.641 1124.99 993.072 1125.6 993.275 1126.26C993.705 1127.66 993.468 1129.03 993.205 1130.56C993.079 1131.3 992.946 1132.07 992.878 1132.9C992.533 1137.14 995.391 1142.95 1000.89 1140.26C1002.66 1139.4 1004.04 1137.14 1004.62 1135.04L1003.46 1129.14C1004.45 1131.22 1005 1133.54 1005 1136Z" fill="black"/>
<path d="M994.144 1145.22C994.6 1143.26 994.296 1141.27 993.516 1139.39C992.18 1136.17 990.405 1135.17 990.347 1132.37C990.327 1131.46 990.397 1129.62 989 1129.76C987.677 1129.88 987.841 1131.39 988.129 1132.32C988.576 1133.76 989.744 1134.98 990.839 1136.86C991.66 1138.27 992.203 1139.3 992.319 1140.87C992.439 1142.5 991.993 1144.29 991.042 1145.71C990.159 1147.04 988.263 1148.29 986.324 1147.38C985.618 1147.05 985.186 1146.44 984.983 1145.78C984.348 1143.7 985.173 1141.68 985.38 1139.13C985.726 1134.9 982.867 1129.08 977.369 1131.77C975.603 1132.64 974.222 1134.9 973.634 1137C973.42 1137.76 973.339 1138.58 973.364 1139.4C973.698 1140.94 974.253 1142.4 974.996 1143.74C974.795 1143.05 974.686 1142.27 974.626 1141.26C974.53 1139.62 975.137 1137.07 976.153 1135.68C977.09 1134.39 979.205 1133.17 981.221 1134.24C982.285 1134.81 983.426 1136.98 982.149 1141.53C981.458 1144 981.127 1146.76 982.825 1149.11C984.252 1151.09 986.863 1151.59 989.118 1150.98C991.938 1150.2 993.502 1147.98 994.144 1145.22Z" fill="#C8D433"/>
<path d="M1004.62 1135.04C1004.73 1134.65 1004.81 1134.24 1004.85 1133.82C1004.85 1133.83 1004.85 1133.83 1004.85 1133.83C1004.63 1132.17 1004.15 1130.59 1003.46 1129.14C1003.54 1129.62 1003.6 1130.15 1003.63 1130.78C1003.73 1132.41 1003.12 1134.96 1002.11 1136.36C1001.17 1137.65 999.052 1138.86 997.037 1137.79C995.973 1137.22 994.832 1135.05 996.109 1130.5C996.8 1128.04 997.131 1125.27 995.433 1122.92C994.006 1120.95 991.395 1120.44 989.14 1121.06C986.32 1121.83 984.755 1124.05 984.114 1126.81C983.658 1128.77 983.962 1130.76 984.742 1132.64C986.078 1135.86 987.852 1136.86 987.911 1139.66C987.931 1140.58 987.861 1142.41 989.258 1142.27C990.581 1142.15 990.417 1140.65 990.129 1139.72C989.682 1138.27 988.514 1137.05 987.419 1135.17C986.598 1133.76 986.055 1132.73 985.938 1131.16C985.818 1129.53 986.264 1127.74 987.216 1126.32C988.098 1124.99 989.995 1123.75 991.933 1124.65C992.64 1124.98 993.071 1125.6 993.274 1126.26C993.909 1128.33 993.084 1130.35 992.877 1132.9C992.531 1137.14 995.39 1142.95 1000.89 1140.26C1002.66 1139.4 1004.04 1137.14 1004.62 1135.04Z" fill="#C6D535"/>
</g>
<g filter="url(#filter12_b_3002_1502)">
<circle cx="1243" cy="841" r="50" fill="url(#paint24_linear_3002_1502)" fill-opacity="0.4"/>
<circle cx="1243" cy="841" r="49.3631" stroke="url(#paint25_linear_3002_1502)" stroke-width="1.27371"/>
</g>
<g filter="url(#filter13_b_3002_1502)">
<circle cx="1243" cy="841" r="36.6242" fill="url(#paint26_linear_3002_1502)"/>
<circle cx="1243" cy="841" r="36.1577" stroke="url(#paint27_linear_3002_1502)" stroke-width="0.932974"/>
</g>
<path d="M1239.23 840.841C1239.08 840.841 1238.92 840.841 1238.76 840.841C1238.25 840.841 1237.74 840.847 1237.24 840.837C1237.06 840.834 1236.92 840.886 1236.8 841.026C1236.25 841.639 1235.68 842.242 1235.12 842.849C1234.67 843.338 1234.22 843.827 1233.77 844.316C1233.75 844.328 1233.74 844.332 1233.71 844.348C1233.69 844.311 1233.66 844.276 1233.66 844.237C1233.65 844.167 1233.65 844.096 1233.65 844.024C1233.65 842.345 1233.65 840.666 1233.64 838.986C1233.64 838.832 1233.69 838.716 1233.79 838.604C1234.19 838.154 1234.59 837.701 1234.99 837.248C1235.06 837.173 1235.13 837.098 1235.2 836.966C1235.05 837.029 1234.97 837.115 1234.88 837.185C1234.42 837.567 1233.95 837.956 1233.49 838.338C1233.36 838.437 1233.29 838.562 1233.23 838.703C1233.07 839.08 1232.92 839.457 1232.76 839.834C1232.74 839.875 1232.73 839.917 1232.71 839.957C1232.68 840.019 1232.63 840.048 1232.56 840.043C1232.39 840.03 1232.22 840.022 1232.06 840.012C1231.84 839.998 1231.61 839.981 1231.39 839.97C1231.24 839.963 1231.09 839.967 1230.94 839.959C1230.67 839.946 1230.4 839.927 1230.11 839.908C1230.12 839.842 1230.13 839.79 1230.15 839.744C1230.45 839.033 1230.68 838.3 1230.85 837.544C1230.96 837.024 1231.06 836.502 1231.1 835.971C1231.12 835.689 1231.16 835.408 1231.19 835.126C1231.19 835.056 1231.19 834.984 1231.19 834.913C1231.2 834.754 1231.22 834.596 1231.23 834.437C1231.24 834.375 1231.24 834.313 1231.24 834.251C1231.24 834.029 1231.23 833.806 1231.28 833.588C1231.29 833.572 1231.29 833.553 1231.29 833.535C1231.3 833.154 1231.32 832.773 1231.33 832.392C1231.35 831.799 1231.49 831.231 1231.73 830.693C1232.12 829.839 1232.6 829.041 1233.18 828.311C1233.62 827.762 1234.14 827.29 1234.69 826.851C1235.28 826.379 1235.91 825.96 1236.57 825.596C1237.75 824.947 1239 824.454 1240.31 824.167C1240.76 824.069 1241.22 823.997 1241.67 823.933C1241.87 823.905 1242.08 823.897 1242.28 823.892C1242.64 823.884 1242.99 823.884 1243.35 823.886C1243.93 823.888 1244.5 823.964 1245.06 824.078C1245.77 824.222 1246.46 824.426 1247.12 824.704C1247.72 824.955 1248.3 825.247 1248.85 825.586C1249.53 825.999 1250.16 826.469 1250.75 827.001C1251.13 827.347 1251.49 827.713 1251.81 828.119C1251.89 828.217 1251.95 828.323 1252.02 828.429C1252.03 828.452 1252.02 828.492 1252.02 828.542C1251.9 828.492 1251.82 828.427 1251.74 828.362C1251.22 827.959 1250.69 827.563 1250.14 827.205C1248.93 826.421 1247.64 825.834 1246.23 825.518C1245.74 825.411 1245.25 825.327 1244.76 825.299C1244.54 825.287 1244.33 825.261 1244.12 825.274C1243.83 825.292 1243.54 825.328 1243.25 825.349C1242.7 825.389 1242.16 825.497 1241.62 825.613C1240.89 825.771 1240.19 825.999 1239.5 826.282C1238.2 826.81 1237.02 827.524 1235.96 828.431C1235.43 828.884 1234.98 829.404 1234.67 830.042C1234.45 830.509 1234.29 830.995 1234.22 831.51C1234.19 831.791 1234.14 832.071 1234.15 832.356C1234.15 832.417 1234.16 832.478 1234.16 832.554C1234.22 832.55 1234.27 832.554 1234.32 832.542C1235.11 832.324 1235.89 832.105 1236.68 831.884C1236.85 831.834 1237.03 831.78 1237.2 831.729C1237.26 831.795 1237.22 831.843 1237.2 831.883C1237.01 832.221 1236.8 832.536 1236.55 832.825C1236.15 833.284 1235.7 833.679 1235.16 833.978C1235.1 834.017 1235.03 834.062 1234.95 834.111C1235.11 834.139 1235.12 834.138 1235.48 833.996C1235.65 833.927 1235.82 833.855 1235.99 833.77C1236.14 833.689 1236.3 833.597 1236.44 833.493C1236.59 833.385 1236.72 833.256 1236.88 833.124C1237.02 833.281 1237.16 833.431 1237.29 833.583C1237.67 834.019 1238.05 834.456 1238.42 834.892C1238.86 835.396 1239.3 835.898 1239.73 836.401C1240.1 836.824 1240.47 837.247 1240.83 837.669C1241.27 838.178 1241.72 838.688 1242.16 839.198C1242.29 839.352 1242.43 839.506 1242.56 839.664C1242.64 839.762 1242.73 839.808 1242.86 839.794C1242.89 839.791 1242.93 839.794 1242.96 839.794C1245.5 839.794 1248.03 839.793 1250.56 839.797C1250.76 839.797 1250.93 839.755 1251.1 839.666C1251.71 839.347 1252.26 838.954 1252.75 838.471C1253.51 837.724 1254.08 836.853 1254.43 835.844C1254.59 835.372 1254.7 834.887 1254.75 834.395C1254.8 834.018 1254.83 833.636 1254.81 833.253C1254.8 833.192 1254.79 833.131 1254.79 833.068C1254.78 832.928 1254.77 832.788 1254.75 832.614C1254.81 832.644 1254.85 832.653 1254.87 832.674C1255.27 833.111 1255.59 833.599 1255.8 834.151C1255.99 834.616 1256.08 835.1 1256.1 835.602C1256.12 836.4 1255.94 837.152 1255.61 837.871C1255.34 838.463 1255.02 839.026 1254.6 839.524C1254.04 840.183 1253.39 840.723 1252.62 841.115C1252.47 841.191 1252.31 841.259 1252.16 841.332C1252.13 841.347 1252.11 841.369 1252.06 841.397C1252.23 841.608 1252.44 841.751 1252.63 841.922C1252.81 842.091 1253 842.248 1253.19 842.412C1253.38 842.581 1253.58 842.752 1253.77 842.925C1253.76 843.153 1253.69 843.363 1253.65 843.578C1253.54 844.134 1253.43 844.689 1253.31 845.244C1253.21 845.721 1253.11 846.197 1253.01 846.673C1252.98 846.817 1253.01 846.952 1253.07 847.086C1253.31 847.642 1253.54 848.199 1253.77 848.756C1254.24 849.886 1254.71 851.017 1255.18 852.146C1255.23 852.272 1255.25 852.393 1255.24 852.533C1255.2 852.787 1255.2 853.046 1255.18 853.302C1255.15 853.566 1255.12 853.83 1255.09 854.094C1255.09 854.129 1255.09 854.165 1255.08 854.2C1255.05 854.534 1255.02 854.869 1254.99 855.204C1254.97 855.424 1254.96 855.646 1254.94 855.867C1254.91 856.22 1254.88 856.573 1254.85 856.927C1254.85 856.943 1254.83 856.958 1254.82 856.991C1254.61 857.041 1254.39 857.008 1254.17 857.013C1253.95 857.017 1253.73 857.022 1253.49 857.006C1253.49 856.943 1253.47 856.893 1253.47 856.844C1253.48 856.631 1253.48 856.42 1253.51 856.207C1253.55 855.927 1253.55 855.641 1253.57 855.357C1253.58 855.047 1253.6 854.737 1253.62 854.427C1253.65 854.003 1253.65 853.576 1253.7 853.154C1253.74 852.819 1253.73 852.482 1253.78 852.142C1253.76 852.119 1253.74 852.089 1253.72 852.068C1251.3 850.219 1248.88 848.367 1246.44 846.521C1246.5 846.692 1246.52 846.717 1247.24 847.438C1247.52 847.721 1247.8 848.01 1248.11 848.326C1248.06 848.357 1248.02 848.38 1247.98 848.404C1247.61 848.646 1247.24 848.887 1246.87 849.132C1246.75 849.207 1246.64 849.244 1246.5 849.256C1246.15 849.287 1245.81 849.324 1245.47 849.351C1244.89 849.396 1244.32 849.466 1243.75 849.521C1243.51 849.544 1243.27 849.553 1243.03 849.572C1242.87 849.584 1242.71 849.607 1242.56 849.619C1242.46 849.627 1242.36 849.61 1242.27 849.576C1241.75 849.392 1241.23 849.216 1240.71 849.035C1240.14 848.837 1239.57 848.636 1239 848.438C1238.85 848.386 1238.7 848.336 1238.55 848.258C1238.73 847.196 1238.96 846.149 1239.12 845.088C1238.94 845.401 1238.84 845.738 1238.7 846.065C1238.57 846.394 1238.45 846.727 1238.32 847.058C1238.19 847.388 1238.06 847.718 1237.93 848.049C1237.8 848.379 1237.68 848.711 1237.55 849.042C1237.42 849.373 1237.29 849.704 1237.17 850.036C1237.04 850.375 1236.91 850.714 1236.77 851.053C1236.64 851.384 1236.51 851.713 1236.38 852.043C1236.25 852.373 1236.12 852.704 1236 853.035C1235.87 853.366 1235.74 853.697 1235.61 854.028C1235.48 854.359 1235.36 854.69 1235.23 855.021C1235.1 855.351 1234.97 855.681 1234.84 856.012C1234.71 856.342 1234.59 856.674 1234.45 856.988C1234.21 857.022 1233.1 857.023 1232.87 856.993C1232.82 856.926 1232.85 856.858 1232.87 856.793C1233.02 856.283 1233.17 855.773 1233.32 855.263C1233.69 853.978 1234.06 852.693 1234.44 851.408C1234.48 851.263 1234.51 851.115 1234.57 850.974C1234.64 850.774 1234.63 850.57 1234.6 850.369C1234.54 849.904 1234.46 849.441 1234.39 848.976C1234.29 848.267 1234.2 847.557 1234.1 846.847C1234.03 846.357 1233.95 845.869 1233.88 845.38C1233.86 845.257 1233.85 845.133 1233.83 845.011C1233.81 844.904 1233.84 844.826 1233.92 844.747C1234.31 844.313 1234.7 843.877 1235.09 843.439C1235.51 842.961 1235.94 842.481 1236.36 842.003C1236.6 841.738 1236.84 841.479 1237.07 841.211C1237.14 841.127 1237.24 841.105 1237.33 841.093C1237.54 841.064 1237.75 841.052 1237.96 841.032C1238.13 841.016 1238.3 840.998 1238.46 840.979C1238.72 840.951 1238.97 840.919 1239.23 840.889C1239.23 840.874 1239.23 840.858 1239.23 840.842L1239.23 840.841ZM1231.95 835.911C1232.66 835.922 1233.32 835.803 1233.89 835.371C1234.06 835.242 1234.2 835.086 1234.32 834.906C1234.35 834.869 1234.37 834.831 1234.39 834.791C1234.42 834.714 1234.38 834.623 1234.3 834.594C1234.25 834.573 1234.18 834.558 1234.12 834.559C1234.03 834.56 1233.93 834.564 1233.83 834.587C1233.29 834.719 1232.79 834.927 1232.34 835.261C1232.22 835.35 1232.12 835.465 1232.03 835.579C1231.96 835.659 1231.91 835.758 1231.95 835.911H1231.95Z" fill="white"/>
<path d="M1251.23 856.977C1251.02 857.025 1249.99 857.027 1249.76 856.982C1249.71 856.852 1249.77 856.722 1249.78 856.595C1249.85 856.069 1249.93 855.546 1250 855.021C1250.07 854.512 1250.12 854.002 1250.19 853.493C1250.23 853.196 1250.28 852.9 1250.32 852.604C1250.34 852.491 1250.32 852.403 1250.22 852.323C1249.41 851.634 1248.61 850.94 1247.8 850.247C1247.56 850.045 1247.33 849.842 1247.1 849.638C1247.06 849.604 1247.03 849.562 1246.99 849.524C1247.16 849.361 1248.15 848.728 1248.38 848.641C1248.53 848.76 1248.69 848.885 1248.85 849.012C1249.57 849.598 1250.29 850.186 1251.01 850.772C1251.28 850.984 1251.54 851.198 1251.8 851.411C1251.84 851.445 1251.88 851.482 1251.92 851.517C1251.98 851.569 1251.99 851.634 1251.98 851.709C1251.89 852.357 1251.8 853.005 1251.71 853.653C1251.62 854.292 1251.53 854.931 1251.44 855.569C1251.37 856.041 1251.3 856.512 1251.23 856.978L1251.23 856.977Z" fill="white"/>
<path d="M1238.86 856.982C1238.65 857.02 1237.51 857.028 1237.18 856.994C1237.16 856.939 1237.13 856.876 1237.11 856.809C1236.87 855.669 1236.63 854.528 1236.39 853.387C1236.36 853.273 1236.36 853.164 1236.4 853.048C1236.7 852.236 1237 851.42 1237.31 850.606C1237.31 850.591 1237.33 850.58 1237.35 850.553C1237.38 850.6 1237.41 850.639 1237.42 850.683C1237.66 851.708 1237.89 852.734 1238.13 853.759C1238.36 854.776 1238.6 855.791 1238.84 856.807C1238.85 856.864 1238.85 856.924 1238.86 856.982H1238.86Z" fill="white"/>
<g filter="url(#filter14_b_3002_1502)">
<circle cx="1241" cy="440" r="50" fill="url(#paint28_linear_3002_1502)" fill-opacity="0.4"/>
<circle cx="1241" cy="440" r="49.3631" stroke="url(#paint29_linear_3002_1502)" stroke-width="1.27371"/>
</g>
<g filter="url(#filter15_b_3002_1502)">
<circle cx="1241" cy="440" r="36.6242" fill="url(#paint30_linear_3002_1502)"/>
<circle cx="1241" cy="440" r="36.1577" stroke="url(#paint31_linear_3002_1502)" stroke-width="0.932974"/>
</g>
<g clip-path="url(#clip4_3002_1502)">
<path fill-rule="evenodd" clip-rule="evenodd" d="M1240.61 420.085C1236.87 420.362 1233.28 421.744 1230.32 424.057C1227.36 426.37 1225.15 429.509 1223.98 433.078C1222.8 436.647 1222.71 440.484 1223.72 444.105C1224.72 447.725 1226.78 450.966 1229.63 453.417C1232.48 455.868 1235.99 457.418 1239.72 457.873C1243.45 458.327 1247.23 457.664 1250.58 455.969C1253.93 454.273 1256.71 451.621 1258.55 448.348C1260.4 445.074 1261.23 441.327 1260.95 437.581C1260.76 435.096 1260.09 432.671 1258.97 430.447C1257.85 428.222 1256.3 426.24 1254.41 424.615C1252.52 422.99 1250.33 421.753 1247.96 420.976C1245.6 420.198 1243.1 419.896 1240.61 420.085ZM1240.52 424.864C1243.32 424.57 1246.14 425.113 1248.63 426.423C1251.12 427.733 1253.17 429.753 1254.52 432.226C1255.86 434.699 1256.44 437.515 1256.19 440.318C1255.93 443.122 1254.85 445.787 1253.08 447.977C1251.31 450.167 1248.94 451.783 1246.25 452.623C1243.56 453.462 1240.69 453.486 1237.99 452.692C1235.29 451.898 1232.88 450.322 1231.08 448.162C1229.27 446.002 1228.15 443.356 1227.84 440.557C1227.64 438.692 1227.8 436.803 1228.32 435.001C1228.85 433.199 1229.73 431.519 1230.9 430.058C1232.08 428.597 1233.54 427.384 1235.19 426.489C1236.84 425.594 1238.65 425.034 1240.52 424.843V424.864Z" fill="white"/>
</g>
<defs>
<filter id="filter0_b_3002_1502" x="378.577" y="1037.58" width="252.846" height="252.846" filterUnits="userSpaceOnUse" color-interpolation-filters="sRGB">
<feFlood flood-opacity="0" result="BackgroundImageFix"/>
<feGaussianBlur in="BackgroundImageFix" stdDeviation="38.2114"/>
<feComposite in2="SourceAlpha" operator="in" result="effect1_backgroundBlur_3002_1502"/>
<feBlend mode="normal" in="SourceGraphic" in2="effect1_backgroundBlur_3002_1502" result="shape"/>
</filter>
<filter id="filter1_b_3002_1502" x="412.398" y="1071.4" width="185.205" height="185.205" filterUnits="userSpaceOnUse" color-interpolation-filters="sRGB">
<feFlood flood-opacity="0" result="BackgroundImageFix"/>
<feGaussianBlur in="BackgroundImageFix" stdDeviation="27.9892"/>
<feComposite in2="SourceAlpha" operator="in" result="effect1_backgroundBlur_3002_1502"/>
<feBlend mode="normal" in="SourceGraphic" in2="effect1_backgroundBlur_3002_1502" result="shape"/>
</filter>
<filter id="filter2_b_3002_1502" x="377.577" y="-10.4228" width="252.846" height="252.846" filterUnits="userSpaceOnUse" color-interpolation-filters="sRGB">
<feFlood flood-opacity="0" result="BackgroundImageFix"/>
<feGaussianBlur in="BackgroundImageFix" stdDeviation="38.2114"/>
<feComposite in2="SourceAlpha" operator="in" result="effect1_backgroundBlur_3002_1502"/>
<feBlend mode="normal" in="SourceGraphic" in2="effect1_backgroundBlur_3002_1502" result="shape"/>
</filter>
<filter id="filter3_b_3002_1502" x="411.398" y="23.3973" width="185.205" height="185.205" filterUnits="userSpaceOnUse" color-interpolation-filters="sRGB">
<feFlood flood-opacity="0" result="BackgroundImageFix"/>
<feGaussianBlur in="BackgroundImageFix" stdDeviation="27.9892"/>
<feComposite in2="SourceAlpha" operator="in" result="effect1_backgroundBlur_3002_1502"/>
<feBlend mode="normal" in="SourceGraphic" in2="effect1_backgroundBlur_3002_1502" result="shape"/>
</filter>
<filter id="filter4_b_3002_1502" x="57.5772" y="714.577" width="252.846" height="252.846" filterUnits="userSpaceOnUse" color-interpolation-filters="sRGB">
<feFlood flood-opacity="0" result="BackgroundImageFix"/>
<feGaussianBlur in="BackgroundImageFix" stdDeviation="38.2114"/>
<feComposite in2="SourceAlpha" operator="in" result="effect1_backgroundBlur_3002_1502"/>
<feBlend mode="normal" in="SourceGraphic" in2="effect1_backgroundBlur_3002_1502" result="shape"/>
</filter>
<filter id="filter5_b_3002_1502" x="91.3975" y="748.398" width="185.205" height="185.205" filterUnits="userSpaceOnUse" color-interpolation-filters="sRGB">
<feFlood flood-opacity="0" result="BackgroundImageFix"/>
<feGaussianBlur in="BackgroundImageFix" stdDeviation="27.9892"/>
<feComposite in2="SourceAlpha" operator="in" result="effect1_backgroundBlur_3002_1502"/>
<feBlend mode="normal" in="SourceGraphic" in2="effect1_backgroundBlur_3002_1502" result="shape"/>
</filter>
<filter id="filter6_b_3002_1502" x="55.5772" y="308.577" width="252.846" height="252.846" filterUnits="userSpaceOnUse" color-interpolation-filters="sRGB">
<feFlood flood-opacity="0" result="BackgroundImageFix"/>
<feGaussianBlur in="BackgroundImageFix" stdDeviation="38.2114"/>
<feComposite in2="SourceAlpha" operator="in" result="effect1_backgroundBlur_3002_1502"/>
<feBlend mode="normal" in="SourceGraphic" in2="effect1_backgroundBlur_3002_1502" result="shape"/>
</filter>
<filter id="filter7_b_3002_1502" x="89.3975" y="342.398" width="185.205" height="185.205" filterUnits="userSpaceOnUse" color-interpolation-filters="sRGB">
<feFlood flood-opacity="0" result="BackgroundImageFix"/>
<feGaussianBlur in="BackgroundImageFix" stdDeviation="27.9892"/>
<feComposite in2="SourceAlpha" operator="in" result="effect1_backgroundBlur_3002_1502"/>
<feBlend mode="normal" in="SourceGraphic" in2="effect1_backgroundBlur_3002_1502" result="shape"/>
</filter>
<filter id="filter8_b_3002_1502" x="861.577" y="15.5772" width="252.846" height="252.846" filterUnits="userSpaceOnUse" color-interpolation-filters="sRGB">
<feFlood flood-opacity="0" result="BackgroundImageFix"/>
<feGaussianBlur in="BackgroundImageFix" stdDeviation="38.2114"/>
<feComposite in2="SourceAlpha" operator="in" result="effect1_backgroundBlur_3002_1502"/>
<feBlend mode="normal" in="SourceGraphic" in2="effect1_backgroundBlur_3002_1502" result="shape"/>
</filter>
<filter id="filter9_b_3002_1502" x="895.398" y="49.3975" width="185.205" height="185.205" filterUnits="userSpaceOnUse" color-interpolation-filters="sRGB">
<feFlood flood-opacity="0" result="BackgroundImageFix"/>
<feGaussianBlur in="BackgroundImageFix" stdDeviation="27.9892"/>
<feComposite in2="SourceAlpha" operator="in" result="effect1_backgroundBlur_3002_1502"/>
<feBlend mode="normal" in="SourceGraphic" in2="effect1_backgroundBlur_3002_1502" result="shape"/>
</filter>
<filter id="filter10_b_3002_1502" x="862.577" y="1009.58" width="252.846" height="252.846" filterUnits="userSpaceOnUse" color-interpolation-filters="sRGB">
<feFlood flood-opacity="0" result="BackgroundImageFix"/>
<feGaussianBlur in="BackgroundImageFix" stdDeviation="38.2114"/>
<feComposite in2="SourceAlpha" operator="in" result="effect1_backgroundBlur_3002_1502"/>
<feBlend mode="normal" in="SourceGraphic" in2="effect1_backgroundBlur_3002_1502" result="shape"/>
</filter>
<filter id="filter11_b_3002_1502" x="895.522" y="1042.52" width="186.957" height="186.957" filterUnits="userSpaceOnUse" color-interpolation-filters="sRGB">
<feFlood flood-opacity="0" result="BackgroundImageFix"/>
<feGaussianBlur in="BackgroundImageFix" stdDeviation="27.9892"/>
<feComposite in2="SourceAlpha" operator="in" result="effect1_backgroundBlur_3002_1502"/>
<feBlend mode="normal" in="SourceGraphic" in2="effect1_backgroundBlur_3002_1502" result="shape"/>
</filter>
<filter id="filter12_b_3002_1502" x="1116.58" y="714.577" width="252.846" height="252.846" filterUnits="userSpaceOnUse" color-interpolation-filters="sRGB">
<feFlood flood-opacity="0" result="BackgroundImageFix"/>
<feGaussianBlur in="BackgroundImageFix" stdDeviation="38.2114"/>
<feComposite in2="SourceAlpha" operator="in" result="effect1_backgroundBlur_3002_1502"/>
<feBlend mode="normal" in="SourceGraphic" in2="effect1_backgroundBlur_3002_1502" result="shape"/>
</filter>
<filter id="filter13_b_3002_1502" x="1150.4" y="748.398" width="185.205" height="185.205" filterUnits="userSpaceOnUse" color-interpolation-filters="sRGB">
<feFlood flood-opacity="0" result="BackgroundImageFix"/>
<feGaussianBlur in="BackgroundImageFix" stdDeviation="27.9892"/>
<feComposite in2="SourceAlpha" operator="in" result="effect1_backgroundBlur_3002_1502"/>
<feBlend mode="normal" in="SourceGraphic" in2="effect1_backgroundBlur_3002_1502" result="shape"/>
</filter>
<filter id="filter14_b_3002_1502" x="1114.58" y="313.577" width="252.846" height="252.846" filterUnits="userSpaceOnUse" color-interpolation-filters="sRGB">
<feFlood flood-opacity="0" result="BackgroundImageFix"/>
<feGaussianBlur in="BackgroundImageFix" stdDeviation="38.2114"/>
<feComposite in2="SourceAlpha" operator="in" result="effect1_backgroundBlur_3002_1502"/>
<feBlend mode="normal" in="SourceGraphic" in2="effect1_backgroundBlur_3002_1502" result="shape"/>
</filter>
<filter id="filter15_b_3002_1502" x="1148.4" y="347.397" width="185.205" height="185.205" filterUnits="userSpaceOnUse" color-interpolation-filters="sRGB">
<feFlood flood-opacity="0" result="BackgroundImageFix"/>
<feGaussianBlur in="BackgroundImageFix" stdDeviation="27.9892"/>
<feComposite in2="SourceAlpha" operator="in" result="effect1_backgroundBlur_3002_1502"/>
<feBlend mode="normal" in="SourceGraphic" in2="effect1_backgroundBlur_3002_1502" result="shape"/>
</filter>
<linearGradient id="paint0_linear_3002_1502" x1="495.319" y1="1114" x2="567.592" y2="1136.61" gradientUnits="userSpaceOnUse">
<stop stop-color="#292D32"/>
<stop offset="1" stop-color="#7B8A98"/>
</linearGradient>
<linearGradient id="paint1_linear_3002_1502" x1="442.289" y1="1171.52" x2="567.787" y2="1171.52" gradientUnits="userSpaceOnUse">
<stop stop-color="#262C33"/>
<stop offset="1" stop-color="#718599" stop-opacity="0"/>
</linearGradient>
<linearGradient id="paint2_linear_3002_1502" x1="505.365" y1="1120.66" x2="530.306" y2="1149.72" gradientUnits="userSpaceOnUse">
<stop stop-color="#A6B8FB"/>
<stop offset="0.41" stop-color="#5877E7"/>
<stop offset="1" stop-color="#345CE3"/>
</linearGradient>
<linearGradient id="paint3_linear_3002_1502" x1="459.066" y1="1169.51" x2="550.991" y2="1169.51" gradientUnits="userSpaceOnUse">
<stop stop-color="#262C33"/>
<stop offset="1" stop-color="#718599" stop-opacity="0"/>
</linearGradient>
<linearGradient id="paint4_linear_3002_1502" x1="494.319" y1="66.0001" x2="566.592" y2="88.6111" gradientUnits="userSpaceOnUse">
<stop stop-color="#292D32"/>
<stop offset="1" stop-color="#7B8A98"/>
</linearGradient>
<linearGradient id="paint5_linear_3002_1502" x1="441.289" y1="123.519" x2="566.787" y2="123.519" gradientUnits="userSpaceOnUse">
<stop stop-color="#262C33"/>
<stop offset="1" stop-color="#718599" stop-opacity="0"/>
</linearGradient>
<linearGradient id="paint6_linear_3002_1502" x1="504.365" y1="72.6558" x2="529.306" y2="101.718" gradientUnits="userSpaceOnUse">
<stop stop-color="#FF6262"/>
<stop offset="0.41" stop-color="#F80823"/>
<stop offset="1" stop-color="#C42436"/>
</linearGradient>
<linearGradient id="paint7_linear_3002_1502" x1="458.066" y1="121.507" x2="549.991" y2="121.507" gradientUnits="userSpaceOnUse">
<stop stop-color="#262C33"/>
<stop offset="1" stop-color="#718599" stop-opacity="0"/>
</linearGradient>
<linearGradient id="paint8_linear_3002_1502" x1="174.319" y1="791" x2="246.592" y2="813.611" gradientUnits="userSpaceOnUse">
<stop stop-color="#292D32"/>
<stop offset="1" stop-color="#7B8A98"/>
</linearGradient>
<linearGradient id="paint9_linear_3002_1502" x1="121.289" y1="848.519" x2="246.787" y2="848.519" gradientUnits="userSpaceOnUse">
<stop stop-color="#262C33"/>
<stop offset="1" stop-color="#718599" stop-opacity="0"/>
</linearGradient>
<linearGradient id="paint10_linear_3002_1502" x1="184.365" y1="797.656" x2="209.306" y2="826.718" gradientUnits="userSpaceOnUse">
<stop stop-color="#81B3FF"/>
<stop offset="0.41" stop-color="#0064FA"/>
<stop offset="1" stop-color="#064FBD"/>
</linearGradient>
<linearGradient id="paint11_linear_3002_1502" x1="138.066" y1="846.507" x2="229.991" y2="846.507" gradientUnits="userSpaceOnUse">
<stop stop-color="#262C33"/>
<stop offset="1" stop-color="#718599" stop-opacity="0"/>
</linearGradient>
<linearGradient id="paint12_linear_3002_1502" x1="172.319" y1="385" x2="244.592" y2="407.611" gradientUnits="userSpaceOnUse">
<stop stop-color="#292D32"/>
<stop offset="1" stop-color="#7B8A98"/>
</linearGradient>
<linearGradient id="paint13_linear_3002_1502" x1="119.289" y1="442.519" x2="244.787" y2="442.519" gradientUnits="userSpaceOnUse">
<stop stop-color="#262C33"/>
<stop offset="1" stop-color="#718599" stop-opacity="0"/>
</linearGradient>
<linearGradient id="paint14_linear_3002_1502" x1="182.365" y1="391.656" x2="207.306" y2="420.718" gradientUnits="userSpaceOnUse">
<stop stop-color="#444444"/>
<stop offset="0.41" stop-color="#1F1F1F"/>
<stop offset="1"/>
</linearGradient>
<linearGradient id="paint15_linear_3002_1502" x1="136.066" y1="440.507" x2="227.991" y2="440.507" gradientUnits="userSpaceOnUse">
<stop stop-color="#262C33"/>
<stop offset="1" stop-color="#718599" stop-opacity="0"/>
</linearGradient>
<linearGradient id="paint16_linear_3002_1502" x1="978.319" y1="92.0001" x2="1050.59" y2="114.611" gradientUnits="userSpaceOnUse">
<stop stop-color="#292D32"/>
<stop offset="1" stop-color="#7B8A98"/>
</linearGradient>
<linearGradient id="paint17_linear_3002_1502" x1="925.289" y1="149.519" x2="1050.79" y2="149.519" gradientUnits="userSpaceOnUse">
<stop stop-color="#262C33"/>
<stop offset="1" stop-color="#718599" stop-opacity="0"/>
</linearGradient>
<linearGradient id="paint18_linear_3002_1502" x1="988.365" y1="98.656" x2="1013.31" y2="127.719" gradientUnits="userSpaceOnUse">
<stop stop-color="#F2F2F2"/>
<stop offset="0.41" stop-color="#B6B8CE"/>
<stop offset="1" stop-color="#5072AF"/>
</linearGradient>
<linearGradient id="paint19_linear_3002_1502" x1="942.066" y1="147.508" x2="1033.99" y2="147.508" gradientUnits="userSpaceOnUse">
<stop stop-color="#262C33"/>
<stop offset="1" stop-color="#718599" stop-opacity="0"/>
</linearGradient>
<linearGradient id="paint20_linear_3002_1502" x1="979.319" y1="1086" x2="1051.59" y2="1108.61" gradientUnits="userSpaceOnUse">
<stop stop-color="#292D32"/>
<stop offset="1" stop-color="#7B8A98"/>
</linearGradient>
<linearGradient id="paint21_linear_3002_1502" x1="926.289" y1="1143.52" x2="1051.79" y2="1143.52" gradientUnits="userSpaceOnUse">
<stop stop-color="#262C33"/>
<stop offset="1" stop-color="#718599" stop-opacity="0"/>
</linearGradient>
<linearGradient id="paint22_linear_3002_1502" x1="989.374" y1="1091.62" x2="1014.91" y2="1121.38" gradientUnits="userSpaceOnUse">
<stop stop-color="#F5FF9C"/>
<stop offset="0.41" stop-color="#E6FA36"/>
<stop offset="1" stop-color="#E6FA36" stop-opacity="0.83"/>
</linearGradient>
<linearGradient id="paint23_linear_3002_1502" x1="941.967" y1="1141.64" x2="1036.09" y2="1141.64" gradientUnits="userSpaceOnUse">
<stop stop-color="#262C33"/>
<stop offset="1" stop-color="#718599" stop-opacity="0"/>
</linearGradient>
<linearGradient id="paint24_linear_3002_1502" x1="1233.32" y1="791" x2="1305.59" y2="813.611" gradientUnits="userSpaceOnUse">
<stop stop-color="#292D32"/>
<stop offset="1" stop-color="#7B8A98"/>
</linearGradient>
<linearGradient id="paint25_linear_3002_1502" x1="1180.29" y1="848.519" x2="1305.79" y2="848.519" gradientUnits="userSpaceOnUse">
<stop stop-color="#262C33"/>
<stop offset="1" stop-color="#718599" stop-opacity="0"/>
</linearGradient>
<linearGradient id="paint26_linear_3002_1502" x1="1243.37" y1="797.656" x2="1268.31" y2="826.718" gradientUnits="userSpaceOnUse">
<stop stop-color="#F2F2F2"/>
<stop offset="0.41" stop-color="#19A29B"/>
<stop offset="1" stop-color="#12817B"/>
</linearGradient>
<linearGradient id="paint27_linear_3002_1502" x1="1197.07" y1="846.507" x2="1288.99" y2="846.507" gradientUnits="userSpaceOnUse">
<stop stop-color="#262C33"/>
<stop offset="1" stop-color="#718599" stop-opacity="0"/>
</linearGradient>
<linearGradient id="paint28_linear_3002_1502" x1="1231.32" y1="390" x2="1303.59" y2="412.611" gradientUnits="userSpaceOnUse">
<stop stop-color="#292D32"/>
<stop offset="1" stop-color="#7B8A98"/>
</linearGradient>
<linearGradient id="paint29_linear_3002_1502" x1="1178.29" y1="447.518" x2="1303.79" y2="447.518" gradientUnits="userSpaceOnUse">
<stop stop-color="#262C33"/>
<stop offset="1" stop-color="#718599" stop-opacity="0"/>
</linearGradient>
<linearGradient id="paint30_linear_3002_1502" x1="1241.37" y1="396.655" x2="1266.31" y2="425.718" gradientUnits="userSpaceOnUse">
<stop stop-color="#4D4D4D"/>
<stop offset="0.41" stop-color="#242424"/>
<stop offset="1"/>
</linearGradient>
<linearGradient id="paint31_linear_3002_1502" x1="1195.07" y1="445.507" x2="1286.99" y2="445.507" gradientUnits="userSpaceOnUse">
<stop stop-color="#262C33"/>
<stop offset="1" stop-color="#718599" stop-opacity="0"/>
</linearGradient>
<clipPath id="clip0_3002_1502">
<rect width="32" height="44.1032" fill="white" transform="translate(168 819)"/>
</clipPath>
<clipPath id="clip1_3002_1502">
<rect width="41" height="29" fill="white" transform="translate(162 420)"/>
</clipPath>
<clipPath id="clip2_3002_1502">
<rect width="32" height="29.8903" fill="white" transform="translate(972 127)"/>
</clipPath>
<clipPath id="clip3_3002_1502">
<rect width="32" height="32" fill="white" transform="translate(973 1120)"/>
</clipPath>
<clipPath id="clip4_3002_1502">
<rect width="38" height="38" fill="white" transform="translate(1223 420)"/>
</clipPath>
</defs>
</svg>
