<svg width="1428" height="1322" viewBox="0 0 1428 1322" fill="none" xmlns="http://www.w3.org/2000/svg">
<g filter="url(#filter0_b_3002_1502)">
<circle cx="721.844" cy="968.843" r="40" transform="rotate(71 721.844 968.843)" fill="url(#paint0_linear_3002_1502)" fill-opacity="0.4"/>
<circle cx="721.844" cy="968.843" r="39.3631" transform="rotate(71 721.844 968.843)" stroke="url(#paint1_linear_3002_1502)" stroke-width="1.27371"/>
</g>
<g filter="url(#filter1_b_3002_1502)">
<circle cx="721.844" cy="968.843" r="30" transform="rotate(71 721.844 968.843)" fill="url(#paint2_linear_3002_1502)"/>
<circle cx="721.844" cy="968.843" r="29.5335" transform="rotate(71 721.844 968.843)" stroke="url(#paint3_linear_3002_1502)" stroke-width="0.932974"/>
</g>
<g clip-path="url(#clip0_3002_1502)">
<path d="M729.052 963.168C728.985 962.821 728.995 962.8 729.065 962.952C729.215 963.235 729.391 963.948 729.449 964.474C729.571 965.699 729.231 966.96 728.394 968.462L728.161 968.859L728.364 969.246C729.249 970.895 729.646 972.764 729.469 974.497C729.421 974.971 729.265 975.746 729.198 975.857C729.177 975.899 728.989 976.017 728.795 976.119C728.094 976.483 727.527 976.626 727.021 976.536C726.742 976.491 726.679 976.513 726.501 976.662C726.366 976.779 726.321 977.006 726.38 977.179C726.51 977.556 727.243 977.744 728.142 977.645L728.5 977.61L728.391 977.806C727.771 978.917 726.745 979.974 725.896 980.372L725.671 980.485L725.827 980.273C726.107 979.912 726.267 979.611 726.369 979.241C726.547 978.582 726.462 977.978 726.026 976.456C725.639 975.076 725.483 974.268 725.475 973.426C725.456 971.99 725.779 971.139 727.283 968.915C727.946 967.93 728.288 967.337 728.551 966.772C729.128 965.535 729.28 964.444 729.052 963.168Z" fill="white"/>
<path d="M731.089 975.575C731.698 975.401 732.118 975.344 732.54 975.392C732.703 975.407 732.85 975.426 732.856 975.442C732.861 975.458 732.74 975.464 732.598 975.46C732.209 975.453 731.716 975.606 731.192 975.874C730.522 976.228 730.444 976.307 729.933 977.328C729.691 977.799 729.375 978.365 729.241 978.587L728.987 978.974L729.146 978.619C729.347 978.181 729.685 977.22 729.704 977.02C729.729 976.888 729.724 976.872 729.618 976.821C729.533 976.779 729.434 976.796 728.977 976.953C728.264 977.181 727.791 977.239 727.254 977.16C726.974 977.115 727.016 977.083 727.321 977.101C727.553 977.109 727.653 977.093 728.329 976.86C729.698 976.388 729.974 976.117 730.194 974.968C730.254 974.684 730.318 974.204 730.347 973.93C730.37 973.641 730.4 973.419 730.405 973.435C730.448 973.456 730.5 974.476 730.467 974.892C730.436 975.518 730.453 975.618 730.491 975.676C730.554 975.707 730.691 975.695 731.089 975.575Z" fill="white"/>
<path d="M724.932 965.308C725.617 964.333 726.887 963.421 727.973 963.152L728.314 963.07L728.337 963.238C728.387 963.537 728.366 964.09 728.306 964.375C728.145 965.134 727.724 965.596 726.526 966.308C726.175 966.516 725.773 966.778 725.647 966.874C725.438 967.034 724.991 967.522 724.731 967.893C724.539 968.153 724.376 968.086 724.272 967.682C724.129 967.062 724.403 966.071 724.932 965.308Z" fill="white"/>
<path d="M721.626 977.936C721.812 974.388 722.519 972.913 724.359 972.279C724.626 972.187 724.852 972.127 724.852 972.127C724.858 972.143 724.801 972.286 724.74 972.465C724.453 973.268 724.476 974.051 724.87 976.115C725.093 977.323 725.194 978.027 725.196 978.695C725.222 980.815 724.338 982.439 722.69 983.324C722.213 983.576 721.238 983.859 720.691 983.906C720.26 983.932 719.428 983.866 719.385 983.793C719.379 983.777 719.447 983.719 719.573 983.675C720.223 983.416 720.738 982.869 721.037 982.151C721.375 981.295 721.508 980.3 721.626 977.936Z" fill="white"/>
<path d="M720.349 975.913C720.574 975.8 720.846 975.618 720.955 975.528L721.164 975.368L721.04 975.569C720.874 975.855 720.645 976.11 720.301 976.387C720.04 976.6 719.945 976.632 719.458 976.8C718.986 976.962 718.87 976.985 718.57 976.982C718.092 976.971 717.728 976.885 717.289 976.685C716.512 976.319 715.943 975.688 715.438 974.682C715.358 974.499 715.126 973.981 714.932 973.519C714.463 972.361 714.066 971.618 713.571 970.997C713.507 970.913 713.443 970.83 713.453 970.809C713.474 970.766 713.925 971.157 714.249 971.485C714.706 971.943 715.043 972.461 715.691 973.628C715.997 974.209 716.339 974.795 716.456 974.93C717.48 976.32 718.957 976.673 720.349 975.913Z" fill="white"/>
<path d="M718.309 978.216C719.065 977.498 719.882 977.111 720.76 977.055C720.849 977.06 720.939 977.064 720.95 977.096C720.961 977.127 720.946 977.238 720.915 977.354C720.855 977.586 720.77 978.055 720.566 979.251C720.312 980.764 720.027 981.672 719.587 982.386C719.203 983.011 718.682 983.489 717.97 983.875C717.573 984.1 716.534 984.405 716.071 984.441C714.615 984.556 713.275 984.137 712.266 983.2C712.112 983.06 712 982.94 711.995 982.924C711.989 982.908 712.168 982.917 712.389 982.946C713.322 983.048 714.109 982.83 714.876 982.248C715.352 981.891 715.872 981.307 716.708 980.21C717.669 978.912 717.929 978.593 718.309 978.216Z" fill="white"/>
<path d="M709.46 968.154C710.836 968.982 712.021 970.176 712.697 971.421C712.986 971.955 713.279 972.91 713.317 973.477C713.383 974.387 713.172 975.305 712.725 975.898C712.289 976.471 711.861 976.812 710.835 977.358C710.432 977.568 710.018 977.798 709.929 977.846C709.406 978.167 709.053 978.57 708.925 978.966C708.731 979.578 709.008 980.433 709.61 981.159C709.705 981.284 709.796 981.394 709.78 981.399C709.76 981.441 709.33 981.114 709.091 980.88C708.751 980.557 708.58 980.264 708.434 979.839C708.174 979.084 708.345 978.304 708.953 977.514C709.072 977.35 709.452 976.972 709.812 976.637C710.897 975.648 711.177 975.235 711.379 974.444C711.546 973.753 711.376 973.002 710.919 972.544C710.324 971.939 709.33 972.07 708.937 972.768C708.772 973.054 708.713 973.497 708.774 973.827C708.896 974.436 709.526 974.783 710.108 974.582C710.485 974.452 710.657 974.235 710.7 973.798C710.747 973.219 710.305 972.755 709.823 972.938C709.619 973.009 709.525 973.147 709.501 973.384C709.482 973.531 709.482 973.531 709.465 973.431C709.402 972.943 709.931 972.637 710.417 972.875C711.009 973.163 711.14 974.157 710.635 974.682C710.426 974.895 709.928 975.084 709.576 975.082C708.792 975.053 708.17 974.423 708.109 973.581C708.072 973.014 708.138 972.745 708.566 971.893C709.319 970.402 709.393 969.902 709.088 968.247L709.032 967.932L709.46 968.154Z" fill="white"/>
<path fill-rule="evenodd" clip-rule="evenodd" d="M731.922 951.165C728.732 956.363 723.755 964.393 723.475 964.807C723.242 965.151 722.911 965.159 722.555 964.842C722.353 964.665 722.07 964.252 721.995 964.032C721.908 963.78 721.931 963.438 722.065 963.163C722.158 962.973 722.843 962.051 724.522 959.924C725.81 958.302 726.87 956.934 726.881 956.913C726.89 956.839 726.89 956.839 724.122 959.939C722.384 961.892 721.748 962.551 721.654 962.583C721.45 962.654 721.318 962.629 720.948 962.474C720.33 962.212 719.73 962.208 718.564 962.451C717.267 962.721 716.24 962.6 714.329 961.903C713.204 961.499 713.009 961.443 712.588 961.394C712.071 961.326 711.798 961.349 711.221 961.513C710.612 961.687 710.256 961.88 709.75 962.248C709.3 962.579 709.03 962.866 708.531 963.512C708.089 964.069 707.74 964.436 707.583 964.49C707.457 964.533 707.468 964.565 707.789 965.088C708.569 966.332 709.489 967.265 710.361 967.651C710.9 967.887 711.152 967.906 711.719 967.711C712.08 967.586 712.154 967.544 712.341 967.373C712.633 967.097 712.814 966.701 713.032 965.904C713.321 964.854 713.669 964.33 714.266 964.019C714.773 963.756 715.168 963.726 716.321 963.856C717.512 963.992 717.98 963.972 719.045 963.693C719.722 963.512 720.016 963.499 720.286 963.617C720.576 963.746 720.715 963.892 720.946 964.358C721.332 965.122 721.715 965.571 722.249 965.845C722.704 966.093 723.089 966.136 723.582 965.984L723.949 965.875L724.099 965.595C724.694 964.563 732.431 950.444 732.414 950.397C732.409 950.381 732.197 950.736 731.922 951.165ZM711.216 963.696C711.575 963.766 711.92 963.542 712.011 963.194C712.092 962.867 711.872 962.485 711.636 962.566C711.573 962.588 711.521 962.641 711.522 962.746C711.492 962.915 711.419 962.958 711.208 962.907C710.997 962.857 710.84 962.911 710.779 963.09C710.681 963.37 710.879 963.636 711.216 963.696Z" fill="white"/>
<path fill-rule="evenodd" clip-rule="evenodd" d="M721.684 967.218C721.443 966.879 720.91 966.658 720.463 966.688C720.19 966.712 719.744 966.901 719.641 967.059C719.48 967.308 719.471 967.487 719.623 967.928C719.921 968.793 720.553 969.402 721.036 969.324C721.441 969.272 721.846 968.763 721.925 968.226C721.97 967.947 721.849 967.443 721.684 967.218ZM721.244 968.496C721.476 968.557 721.664 968.439 721.724 968.154C721.846 967.637 721.403 967.068 720.994 967.209C720.79 967.28 720.683 967.686 720.792 968C720.862 968.205 721.085 968.445 721.244 968.496Z" fill="white"/>
</g>
<g filter="url(#filter2_b_3002_1502)">
<circle cx="937.844" cy="392.843" r="40" transform="rotate(71 937.844 392.843)" fill="url(#paint4_linear_3002_1502)" fill-opacity="0.4"/>
<circle cx="937.844" cy="392.843" r="39.3631" transform="rotate(71 937.844 392.843)" stroke="url(#paint5_linear_3002_1502)" stroke-width="1.27371"/>
</g>
<g filter="url(#filter3_b_3002_1502)">
<circle cx="937.843" cy="392.843" r="30" transform="rotate(71 937.843 392.843)" fill="url(#paint6_linear_3002_1502)"/>
<circle cx="937.843" cy="392.843" r="29.5335" transform="rotate(71 937.843 392.843)" stroke="url(#paint7_linear_3002_1502)" stroke-width="0.932974"/>
</g>
<g clip-path="url(#clip1_3002_1502)">
<path d="M935.838 387.808C936.029 387.418 936.211 387.051 936.391 386.682C936.778 385.89 937.166 385.097 937.552 384.304C937.98 383.427 938.406 382.55 938.833 381.674C938.934 381.465 939.042 381.26 939.135 381.048C939.178 380.953 939.222 380.943 939.31 380.987C939.961 381.309 940.614 381.628 941.266 381.947C941.698 382.158 942.13 382.369 942.562 382.58C942.596 382.596 942.628 382.616 942.675 382.641C942.56 382.873 942.446 383.097 942.336 383.322C941.904 384.208 941.472 385.095 941.041 385.981C940.697 386.686 940.354 387.392 940.011 388.096C939.545 389.051 939.08 390.006 938.614 390.96C938.494 391.207 938.384 391.458 938.196 391.666C937.896 391.999 937.533 392.21 937.089 392.296C936.593 392.391 936.145 392.271 935.707 392.053C935.064 391.735 934.418 391.423 933.774 391.109C933.086 390.774 932.398 390.439 931.71 390.103C931.026 389.769 930.341 389.433 929.657 389.099C928.896 388.728 928.134 388.358 927.373 387.986C927.348 387.974 927.325 387.958 927.285 387.934C927.355 387.787 927.425 387.64 927.496 387.494C927.969 386.522 928.444 385.551 928.917 384.579C928.978 384.454 928.978 384.454 929.108 384.516C929.938 384.921 930.768 385.325 931.598 385.73C932.86 386.346 934.121 386.961 935.382 387.577C935.533 387.651 935.682 387.729 935.838 387.809L935.838 387.808Z" fill="#F1F1F1"/>
<path d="M938.761 392.907C938.586 392.349 938.655 391.823 938.919 391.308C939.199 390.76 939.464 390.205 939.734 389.652C940.081 388.941 940.427 388.229 940.773 387.517C941.239 386.56 941.703 385.602 942.17 384.645C942.453 384.064 942.739 383.485 943.021 382.904C943.057 382.831 943.097 382.837 943.155 382.866C944.016 383.287 944.877 383.708 945.739 384.129C945.969 384.242 946.198 384.356 946.431 384.464C946.513 384.502 946.533 384.536 946.49 384.624C946.007 385.607 945.529 386.593 945.049 387.577C944.478 388.747 943.907 389.917 943.337 391.088C943.29 391.184 943.203 391.301 943.227 391.381C943.247 391.451 943.396 391.487 943.49 391.533C944.61 392.078 945.731 392.621 946.851 393.167C947.893 393.675 948.933 394.187 949.976 394.695C950.061 394.736 950.037 394.783 950.01 394.838C949.715 395.445 949.419 396.051 949.124 396.657C948.887 397.143 948.648 397.629 948.414 398.116C948.374 398.199 948.336 398.212 948.252 398.171C947.066 397.588 945.878 397.009 944.689 396.43C943.608 395.903 942.525 395.38 941.444 394.852C940.85 394.562 940.257 394.268 939.667 393.97C939.344 393.806 939.099 393.557 938.927 393.238C938.868 393.13 938.816 393.018 938.76 392.907L938.761 392.907Z" fill="#F1F1F1"/>
<path d="M948.193 398.608C948.071 398.844 947.947 399.076 947.832 399.311C947.399 400.193 946.968 401.076 946.539 401.961C946.499 402.043 946.469 402.067 946.377 402.022C945.196 401.442 944.012 400.866 942.828 400.289C941.794 399.784 940.759 399.278 939.724 398.773C939.693 398.758 939.661 398.745 939.612 398.723C939.512 398.934 939.416 399.139 939.317 399.343C938.85 400.298 938.381 401.252 937.915 402.208C937.505 403.046 937.098 403.886 936.69 404.725C936.566 404.981 936.442 405.238 936.319 405.494C936.285 405.564 936.251 405.595 936.166 405.553C935.064 405.011 933.961 404.472 932.859 403.932C932.84 403.923 932.823 403.911 932.793 403.892C932.879 403.711 932.964 403.53 933.051 403.35C933.487 402.455 933.924 401.56 934.36 400.665C934.854 399.653 935.348 398.642 935.841 397.63C936.215 396.864 936.588 396.097 936.959 395.329C937.122 394.992 937.347 394.702 937.664 394.508C938.269 394.139 938.909 394.076 939.556 394.387C940.676 394.924 941.79 395.475 942.906 396.02C943.99 396.549 945.074 397.078 946.158 397.606C946.798 397.918 947.438 398.228 948.079 398.539C948.107 398.553 948.133 398.571 948.194 398.607L948.193 398.608Z" fill="#F1F1F1"/>
<path d="M927.115 388.293C927.516 388.495 927.913 388.699 928.313 388.896C928.984 389.228 929.658 389.556 930.33 389.884C931.228 390.322 932.126 390.757 933.023 391.194C933.92 391.631 934.821 392.06 935.711 392.511C936.412 392.866 936.764 393.456 936.792 394.241C936.805 394.601 936.685 394.925 936.529 395.242C936.113 396.089 935.7 396.939 935.286 397.788C934.831 398.72 934.376 399.653 933.921 400.586C933.485 401.481 933.05 402.376 932.615 403.271C932.555 403.394 932.491 403.516 932.433 403.64C932.399 403.715 932.351 403.688 932.303 403.665C932.02 403.527 931.737 403.387 931.454 403.249C930.646 402.855 929.838 402.46 929.029 402.069C928.943 402.027 928.926 401.991 928.97 401.901C929.463 400.9 929.953 399.896 930.443 398.892C930.983 397.785 931.523 396.676 932.062 395.568C932.116 395.458 932.16 395.342 932.222 395.237C932.271 395.154 932.247 395.122 932.171 395.085C931.463 394.742 930.757 394.397 930.05 394.052C928.593 393.342 927.137 392.631 925.68 391.92C925.62 391.891 925.562 391.857 925.5 391.833C925.424 391.804 925.408 391.769 925.447 391.691C925.665 391.254 925.877 390.814 926.091 390.375C926.41 389.719 926.73 389.062 927.05 388.406C927.064 388.377 927.082 388.351 927.115 388.293L927.115 388.293Z" fill="#F1F1F1"/>
</g>
<g filter="url(#filter4_b_3002_1502)">
<circle cx="464.844" cy="419.843" r="40" transform="rotate(71 464.844 419.843)" fill="url(#paint8_linear_3002_1502)" fill-opacity="0.4"/>
<circle cx="464.844" cy="419.843" r="39.3631" transform="rotate(71 464.844 419.843)" stroke="url(#paint9_linear_3002_1502)" stroke-width="1.27371"/>
</g>
<g filter="url(#filter5_b_3002_1502)">
<circle cx="464.844" cy="419.843" r="30" transform="rotate(71 464.844 419.843)" fill="url(#paint10_linear_3002_1502)"/>
<circle cx="464.844" cy="419.843" r="29.5335" transform="rotate(71 464.844 419.843)" stroke="url(#paint11_linear_3002_1502)" stroke-width="0.932974"/>
</g>
<g clip-path="url(#clip2_3002_1502)">
<path d="M470.388 410.854L473.971 409.62L478.887 423.898C479.547 425.816 478.478 427.923 476.499 428.604L470.388 410.854Z" fill="white"/>
<path d="M474.109 425.542L455.398 431.985C456.059 433.903 458.198 434.906 460.177 434.224L474.907 429.152L473.711 425.68L474.109 425.542Z" fill="white"/>
<path d="M458.583 429.594L458.45 429.208L454.867 430.442L449.951 416.165C449.29 414.247 450.359 412.14 452.338 411.458L458.583 429.594Z" fill="white"/>
<path d="M473.439 408.077L455.126 414.383L453.93 410.91L468.66 405.838C470.639 405.156 472.779 406.159 473.439 408.077Z" fill="white"/>
<path d="M468.884 418.127C468.763 417.775 468.377 417.589 468.023 417.711L465.48 418.586L464.636 416.137C464.515 415.785 464.13 415.598 463.775 415.72L462.669 416.101C462.315 416.223 462.126 416.607 462.247 416.959L463.091 419.409L460.547 420.285C460.193 420.407 460.004 420.791 460.126 421.143L460.484 422.183C460.605 422.535 460.99 422.722 461.344 422.6L463.888 421.724L464.732 424.173C464.853 424.525 465.238 424.712 465.592 424.59L466.698 424.209C467.053 424.087 467.241 423.703 467.12 423.351L466.277 420.902L468.821 420.026C469.175 419.904 469.363 419.52 469.242 419.167L468.884 418.127Z" fill="white"/>
</g>
<g filter="url(#filter6_b_3002_1502)">
<ellipse cx="410.944" cy="765.189" rx="40" ry="39.5062" transform="rotate(71 410.944 765.189)" fill="url(#paint12_linear_3002_1502)" fill-opacity="0.4"/>
<path d="M423.76 802.408C403.469 809.394 381.273 798.406 374.193 777.844C367.112 757.281 377.839 734.957 398.129 727.97C418.419 720.984 440.616 731.972 447.696 752.534C454.776 773.097 444.05 795.421 423.76 802.408Z" stroke="url(#paint13_linear_3002_1502)" stroke-width="1.27371"/>
</g>
<g filter="url(#filter7_b_3002_1502)">
<circle cx="411.411" cy="765.028" r="31.1111" transform="rotate(71 411.411 765.028)" fill="url(#paint14_linear_3002_1502)"/>
<circle cx="411.411" cy="765.028" r="30.6446" transform="rotate(71 411.411 765.028)" stroke="url(#paint15_linear_3002_1502)" stroke-width="0.932974"/>
</g>
<g filter="url(#filter8_b_3002_1502)">
<path fill-rule="evenodd" clip-rule="evenodd" d="M426.231 761.607C425.961 761.311 425.824 760.913 425.855 760.513L426.177 758.177C426.225 757.827 426.326 757.792 426.445 758.14L427.734 762.536C427.854 762.884 427.72 762.986 427.399 762.707L426.231 761.607ZM421.168 753.115C420.881 752.936 420.797 753.02 420.967 753.351L424.706 759.629C424.876 759.96 425.078 759.891 425.126 759.54L425.561 756.553C425.593 756.153 425.405 755.773 425.101 755.544L421.168 753.115ZM425.718 762.897C425.699 762.514 425.951 762.427 426.204 762.674L427.76 764.085C428.031 764.381 428.118 764.796 428.002 765.114L425.98 769.871C425.814 770.207 425.746 770.174 425.744 769.841L425.718 762.897ZM415.903 758.432C415.837 758.566 415.775 758.718 415.837 758.853C415.9 758.988 416.035 759.091 416.193 759.111L423.871 760.64C424.225 760.685 424.341 760.533 424.171 760.203L419.955 752.969C419.922 752.911 419.881 752.859 419.839 752.807V752.807C419.792 752.748 419.751 752.696 419.668 752.686V752.686C419.292 752.589 419.081 753.078 418.883 753.413L415.903 758.432V758.432ZM420.388 768.515C420.222 768.85 420.342 769.198 420.612 769.328L424.011 771.343C424.198 771.454 424.39 771.643 424.595 771.572V771.572V771.572C424.934 771.455 424.845 770.969 424.846 770.611L424.862 763.191C424.894 762.791 424.708 762.744 424.475 763.047L420.467 768.388C420.437 768.427 420.41 768.47 420.388 768.515V768.515ZM420.34 767.344C420.101 767.661 419.835 768.166 419.477 767.994V767.994C419.409 767.962 419.325 767.88 419.29 767.78L415.865 760.448C415.695 760.118 415.895 759.882 416.266 759.977L423.994 761.488C424.23 761.518 424.399 761.682 424.367 761.916C424.351 762.033 424.317 762.1 424.234 762.184L420.34 767.344ZM419.455 750.757C419.338 750.908 419.002 750.913 418.715 750.733L416.909 749.742C416.572 749.58 416.605 749.513 416.975 749.608L418.331 750.014C418.808 750.157 419.759 750.362 419.455 750.757V750.757ZM415.161 758.076C415.061 758.277 414.759 758.381 414.557 758.284V758.284C414.412 758.214 414.333 758.057 414.227 757.936L409.273 752.26C409.019 752.014 409.152 751.745 409.505 751.79L418.117 751.941C418.335 751.921 418.487 752.036 418.556 752.234C418.59 752.334 418.523 752.468 418.49 752.535L415.161 758.076ZM404.865 759.298C404.848 759.399 404.868 759.51 404.933 759.589C404.966 759.629 405.011 759.661 405.062 759.682C405.211 759.744 405.381 759.685 405.542 759.672L413.519 759.031C413.838 758.977 413.971 758.708 413.717 758.462L408.702 752.686C408.625 752.598 408.553 752.502 408.45 752.447V752.447C408.397 752.419 408.336 752.394 408.276 752.396C408.201 752.399 408.124 752.425 408.059 752.468C407.908 752.567 407.859 752.761 407.784 752.925L405.013 758.993C404.967 759.095 404.884 759.188 404.865 759.298V759.298ZM399.528 756.505C399.193 756.676 399.195 757.009 399.532 757.171L403.245 759.286L403.313 759.319C403.633 759.431 403.985 759.31 404.101 758.992L406.888 752.858C407.004 752.54 406.902 752.409 406.567 752.58L399.528 756.505ZM400.074 754.982C399.84 755.285 399.925 755.367 400.26 755.196L406.461 751.782C406.746 751.628 406.761 751.344 406.391 751.25L404.369 750.611C403.948 750.533 403.528 750.622 403.294 750.925L400.074 754.982ZM409.786 750.971C409.45 750.975 409.381 750.776 409.649 750.573L412.059 748.742C412.378 748.521 412.815 748.482 413.152 748.644L417.235 750.853C417.573 751.015 417.506 751.15 417.17 751.154L409.786 750.971ZM407.262 750.672C407.649 750.816 408.069 750.727 408.438 750.489L410.295 749.015C410.563 748.812 410.529 748.712 410.159 748.784L405.676 749.827C405.356 749.881 405.307 750.065 405.678 750.16L407.262 750.672ZM399.125 767.436C399.093 767.67 399.262 767.834 399.498 767.864L407.259 769.308C407.63 769.403 407.83 769.167 407.66 768.837L404.234 761.505C404.2 761.405 404.115 761.323 404.048 761.291V761.291C403.689 761.119 403.424 761.624 403.185 761.942L399.258 767.168C399.174 767.252 399.141 767.319 399.125 767.436ZM398.95 766.273C398.716 766.576 398.531 766.528 398.562 766.128L398.579 758.709C398.58 758.35 398.491 757.864 398.83 757.747V757.747V757.747C399.034 757.677 399.228 757.864 399.416 757.971L402.846 759.925C403.115 760.054 403.235 760.402 403.069 760.738V760.738C403.047 760.782 403.021 760.825 402.991 760.865L398.95 766.273ZM408.314 768.611C408.485 768.942 408.771 768.955 408.937 768.619L413.846 760.309C414.03 760.023 413.894 759.792 413.507 759.814L405.372 760.481C405.282 760.488 405.194 760.507 405.109 760.536V760.536C405.027 760.564 404.943 760.598 404.891 760.668C404.833 760.744 404.8 760.843 404.795 760.94C404.788 761.107 404.89 761.256 404.961 761.407L408.314 768.611ZM404.634 775.867C404.441 776.205 404.234 776.695 403.857 776.599V776.599C403.774 776.588 403.733 776.536 403.686 776.478L403.686 776.478C403.686 776.478 403.686 776.478 403.686 776.478V776.478L403.686 776.477L403.686 776.477V776.477C403.645 776.426 403.603 776.373 403.569 776.316L399.253 769.117C399.083 768.786 399.2 768.634 399.553 768.679L407.214 770.158C407.421 770.185 407.59 770.353 407.606 770.552C407.611 770.608 407.592 770.661 407.574 770.714V770.714V770.714C407.545 770.803 407.478 770.882 407.432 770.964L404.634 775.867ZM395.472 764.188C395.357 764.506 395.443 764.921 395.714 765.217L397.22 766.646C397.474 766.892 397.725 766.806 397.706 766.423L397.73 759.461C397.728 759.128 397.661 759.095 397.495 759.431L395.472 764.188ZM398.323 773.776C398.019 773.547 397.832 773.166 397.863 772.766L398.299 769.779C398.347 769.429 398.548 769.359 398.719 769.69L402.507 775.951C402.678 776.282 402.594 776.366 402.307 776.187L398.323 773.776ZM396.076 766.595C395.755 766.316 395.621 766.418 395.741 766.766L397.08 771.144C397.2 771.493 397.3 771.458 397.348 771.108L397.67 768.772C397.702 768.371 397.565 767.974 397.294 767.677L396.076 766.595ZM403.261 778.139C403.144 778.291 402.841 778.228 402.587 777.982L401.014 776.521C400.76 776.274 400.794 776.207 401.098 776.436L402.87 777.495C403.224 777.707 403.378 777.988 403.261 778.139ZM410.056 770.236C409.687 770.308 409.554 770.576 409.808 770.823L414.806 776.549C414.883 776.637 414.955 776.733 415.058 776.788V776.788C415.111 776.816 415.172 776.841 415.231 776.839C415.306 776.836 415.383 776.81 415.449 776.767C415.6 776.668 415.649 776.474 415.724 776.31L418.495 770.242C418.541 770.14 418.624 770.047 418.643 769.937V769.937C418.66 769.836 418.64 769.725 418.574 769.645C418.541 769.606 418.496 769.573 418.444 769.551C418.296 769.491 418.128 769.55 417.969 769.564L410.056 770.236ZM416.907 776.722C416.572 776.893 416.47 776.762 416.586 776.444L419.374 770.31C419.489 769.992 419.842 769.871 420.162 769.983L420.229 770.016L423.942 772.131C424.279 772.293 424.282 772.626 423.946 772.797L416.907 776.722ZM404.919 777.067C404.988 777.266 405.14 777.381 405.358 777.361L413.919 777.529C414.273 777.574 414.405 777.306 414.152 777.059L409.197 771.383C409.091 771.262 409.013 771.105 408.867 771.035V771.035C408.665 770.938 408.363 771.042 408.263 771.243L404.985 776.767C404.951 776.834 404.885 776.968 404.919 777.067ZM420.13 778.394C419.896 778.697 419.476 778.786 419.055 778.709L417.033 778.07C416.663 777.975 416.678 777.691 416.963 777.538L423.097 774.091C423.432 773.919 423.516 774.002 423.283 774.305L420.13 778.394ZM410.272 780.676C410.61 780.838 411.047 780.799 411.365 780.578L413.758 778.697C414.026 778.493 413.957 778.294 413.621 778.299L406.254 778.165C405.918 778.17 405.852 778.304 406.189 778.466L410.272 780.676ZM413.248 780.486C412.878 780.557 412.844 780.458 413.112 780.254L415.037 778.813C415.405 778.575 415.825 778.486 416.213 778.63L417.797 779.142C418.167 779.237 418.118 779.421 417.799 779.475L413.248 780.486ZM403.952 778.513C403.853 778.714 404.039 778.928 404.41 779.023L406.432 779.662C406.802 779.757 406.835 779.69 406.498 779.528L404.693 778.536C404.406 778.357 404.052 778.312 403.952 778.513ZM409.968 769.488C409.581 769.51 409.445 769.279 409.628 768.993L414.538 760.683C414.704 760.347 414.99 760.36 415.16 760.691L418.514 767.895C418.585 768.046 418.687 768.195 418.679 768.362C418.675 768.459 418.641 768.558 418.584 768.634C418.532 768.704 418.448 768.738 418.365 768.766V768.766C418.28 768.795 418.192 768.814 418.103 768.821L409.968 769.488ZM420.163 751.18C420.047 751.332 420.267 751.645 420.554 751.824L422.327 752.883C422.631 753.112 422.664 753.045 422.41 752.799L420.837 751.338C420.583 751.091 420.28 751.029 420.163 751.18ZM397.542 757.104C397.71 756.993 397.856 757.132 397.86 757.334C397.864 757.474 397.819 757.642 397.72 757.796L396.705 759.591C396.539 759.927 396.472 759.894 396.57 759.527L397.091 757.862C397.172 757.601 397.313 757.254 397.542 757.104V757.104ZM425.111 773.564V773.564C425.469 773.203 424.965 772.862 424.646 773.257C424.638 773.267 424.63 773.277 424.622 773.287L423.54 775.051C423.306 775.354 423.374 775.386 423.624 775.133L425.111 773.564ZM426.177 771.751V771.751C426.041 772.257 425.404 771.915 425.687 771.474V771.474L426.702 769.678C426.868 769.343 426.935 769.375 426.837 769.743L426.177 771.751ZM398.132 756.374C398.284 756.489 398.602 756.268 398.785 755.982L399.867 754.219C400.101 753.916 400.033 753.884 399.783 754.137L398.296 755.706C398.045 755.959 397.98 756.26 398.132 756.374Z" fill="white"/>
</g>
<g filter="url(#filter9_b_3002_1502)">
<circle cx="1033.84" cy="723.844" r="40" transform="rotate(71 1033.84 723.844)" fill="url(#paint16_linear_3002_1502)" fill-opacity="0.4"/>
<circle cx="1033.84" cy="723.844" r="39.3631" transform="rotate(71 1033.84 723.844)" stroke="url(#paint17_linear_3002_1502)" stroke-width="1.27371"/>
</g>
<g filter="url(#filter10_b_3002_1502)">
<circle cx="1033.84" cy="723.844" r="30" transform="rotate(71 1033.84 723.844)" fill="url(#paint18_linear_3002_1502)"/>
<circle cx="1033.84" cy="723.844" r="29.5335" transform="rotate(71 1033.84 723.844)" stroke="url(#paint19_linear_3002_1502)" stroke-width="0.932974"/>
</g>
<g clip-path="url(#clip3_3002_1502)">
<path d="M1046 719.627C1045.83 719.156 1045.32 718.905 1044.85 719.067L1022.1 726.9C1021.63 727.062 1021.38 727.576 1021.54 728.047C1021.7 728.518 1022.22 728.769 1022.69 728.606L1045.44 720.774C1045.91 720.612 1046.16 720.098 1046 719.627Z" fill="white"/>
<path d="M1046 719.627C1046.16 720.098 1045.91 720.612 1045.44 720.774L1022.69 728.606C1022.22 728.769 1021.7 728.518 1021.54 728.047C1021.38 727.576 1021.63 727.062 1022.1 726.9L1044.85 719.067C1045.32 718.905 1045.83 719.156 1046 719.627Z" stroke="white" stroke-width="0.136894"/>
<path d="M1038.08 736.245C1038.56 736.083 1038.81 735.569 1038.64 735.098L1030.81 712.351C1030.65 711.879 1030.14 711.629 1029.66 711.791C1029.19 711.953 1028.94 712.467 1029.11 712.938L1036.94 735.686C1037.1 736.157 1037.61 736.407 1038.08 736.245Z" fill="white"/>
<path d="M1038.08 736.245C1037.61 736.407 1037.1 736.157 1036.94 735.686L1029.11 712.938C1028.94 712.467 1029.19 711.953 1029.66 711.791C1030.14 711.629 1030.65 711.879 1030.81 712.351L1038.64 735.098C1038.81 735.569 1038.56 736.083 1038.08 736.245Z" stroke="white" stroke-width="0.136894"/>
<path d="M1028.13 735.681C1028.57 735.899 1029.12 735.713 1029.33 735.265L1039.88 713.642C1040.1 713.194 1039.91 712.654 1039.46 712.435C1039.02 712.217 1038.48 712.403 1038.26 712.851L1027.71 734.474C1027.49 734.922 1027.68 735.462 1028.13 735.681Z" fill="white"/>
<path d="M1028.13 735.681C1027.68 735.462 1027.49 734.922 1027.71 734.474L1038.26 712.851C1038.48 712.403 1039.02 712.217 1039.46 712.435C1039.91 712.654 1040.1 713.194 1039.88 713.642L1029.33 735.265C1029.12 735.713 1028.57 735.899 1028.13 735.681Z" stroke="white" stroke-width="0.136894"/>
<path d="M1017.72 715.926C1017.5 716.374 1017.69 716.914 1018.13 717.133L1048.8 732.091C1049.25 732.31 1049.79 732.124 1050.01 731.676C1050.23 731.228 1050.04 730.688 1049.59 730.469L1018.93 715.511C1018.48 715.292 1017.94 715.478 1017.72 715.926Z" fill="white"/>
<path d="M1017.72 715.926C1017.94 715.478 1018.48 715.292 1018.93 715.511L1049.59 730.469C1050.04 730.688 1050.23 731.228 1050.01 731.676C1049.79 732.124 1049.25 732.31 1048.8 732.091L1018.13 717.133C1017.69 716.914 1017.5 716.374 1017.72 715.926Z" stroke="white" stroke-width="0.136894"/>
</g>
<defs>
<filter id="filter0_b_3002_1502" x="605.41" y="852.41" width="232.867" height="232.867" filterUnits="userSpaceOnUse" color-interpolation-filters="sRGB">
<feFlood flood-opacity="0" result="BackgroundImageFix"/>
<feGaussianBlur in="BackgroundImageFix" stdDeviation="38.2114"/>
<feComposite in2="SourceAlpha" operator="in" result="effect1_backgroundBlur_3002_1502"/>
<feBlend mode="normal" in="SourceGraphic" in2="effect1_backgroundBlur_3002_1502" result="shape"/>
</filter>
<filter id="filter1_b_3002_1502" x="635.857" y="882.857" width="171.973" height="171.973" filterUnits="userSpaceOnUse" color-interpolation-filters="sRGB">
<feFlood flood-opacity="0" result="BackgroundImageFix"/>
<feGaussianBlur in="BackgroundImageFix" stdDeviation="27.9892"/>
<feComposite in2="SourceAlpha" operator="in" result="effect1_backgroundBlur_3002_1502"/>
<feBlend mode="normal" in="SourceGraphic" in2="effect1_backgroundBlur_3002_1502" result="shape"/>
</filter>
<filter id="filter2_b_3002_1502" x="821.41" y="276.41" width="232.867" height="232.867" filterUnits="userSpaceOnUse" color-interpolation-filters="sRGB">
<feFlood flood-opacity="0" result="BackgroundImageFix"/>
<feGaussianBlur in="BackgroundImageFix" stdDeviation="38.2114"/>
<feComposite in2="SourceAlpha" operator="in" result="effect1_backgroundBlur_3002_1502"/>
<feBlend mode="normal" in="SourceGraphic" in2="effect1_backgroundBlur_3002_1502" result="shape"/>
</filter>
<filter id="filter3_b_3002_1502" x="851.857" y="306.857" width="171.973" height="171.973" filterUnits="userSpaceOnUse" color-interpolation-filters="sRGB">
<feFlood flood-opacity="0" result="BackgroundImageFix"/>
<feGaussianBlur in="BackgroundImageFix" stdDeviation="27.9892"/>
<feComposite in2="SourceAlpha" operator="in" result="effect1_backgroundBlur_3002_1502"/>
<feBlend mode="normal" in="SourceGraphic" in2="effect1_backgroundBlur_3002_1502" result="shape"/>
</filter>
<filter id="filter4_b_3002_1502" x="348.41" y="303.41" width="232.867" height="232.867" filterUnits="userSpaceOnUse" color-interpolation-filters="sRGB">
<feFlood flood-opacity="0" result="BackgroundImageFix"/>
<feGaussianBlur in="BackgroundImageFix" stdDeviation="38.2114"/>
<feComposite in2="SourceAlpha" operator="in" result="effect1_backgroundBlur_3002_1502"/>
<feBlend mode="normal" in="SourceGraphic" in2="effect1_backgroundBlur_3002_1502" result="shape"/>
</filter>
<filter id="filter5_b_3002_1502" x="378.857" y="333.857" width="171.974" height="171.973" filterUnits="userSpaceOnUse" color-interpolation-filters="sRGB">
<feFlood flood-opacity="0" result="BackgroundImageFix"/>
<feGaussianBlur in="BackgroundImageFix" stdDeviation="27.9892"/>
<feComposite in2="SourceAlpha" operator="in" result="effect1_backgroundBlur_3002_1502"/>
<feBlend mode="normal" in="SourceGraphic" in2="effect1_backgroundBlur_3002_1502" result="shape"/>
</filter>
<filter id="filter6_b_3002_1502" x="294.952" y="648.808" width="231.984" height="232.763" filterUnits="userSpaceOnUse" color-interpolation-filters="sRGB">
<feFlood flood-opacity="0" result="BackgroundImageFix"/>
<feGaussianBlur in="BackgroundImageFix" stdDeviation="38.2114"/>
<feComposite in2="SourceAlpha" operator="in" result="effect1_backgroundBlur_3002_1502"/>
<feBlend mode="normal" in="SourceGraphic" in2="effect1_backgroundBlur_3002_1502" result="shape"/>
</filter>
<filter id="filter7_b_3002_1502" x="324.313" y="677.93" width="174.196" height="174.196" filterUnits="userSpaceOnUse" color-interpolation-filters="sRGB">
<feFlood flood-opacity="0" result="BackgroundImageFix"/>
<feGaussianBlur in="BackgroundImageFix" stdDeviation="27.9892"/>
<feComposite in2="SourceAlpha" operator="in" result="effect1_backgroundBlur_3002_1502"/>
<feBlend mode="normal" in="SourceGraphic" in2="effect1_backgroundBlur_3002_1502" result="shape"/>
</filter>
<filter id="filter8_b_3002_1502" x="335.422" y="688.545" width="152.63" height="152.23" filterUnits="userSpaceOnUse" color-interpolation-filters="sRGB">
<feFlood flood-opacity="0" result="BackgroundImageFix"/>
<feGaussianBlur in="BackgroundImageFix" stdDeviation="30"/>
<feComposite in2="SourceAlpha" operator="in" result="effect1_backgroundBlur_3002_1502"/>
<feBlend mode="normal" in="SourceGraphic" in2="effect1_backgroundBlur_3002_1502" result="shape"/>
</filter>
<filter id="filter9_b_3002_1502" x="917.41" y="607.41" width="232.868" height="232.867" filterUnits="userSpaceOnUse" color-interpolation-filters="sRGB">
<feFlood flood-opacity="0" result="BackgroundImageFix"/>
<feGaussianBlur in="BackgroundImageFix" stdDeviation="38.2114"/>
<feComposite in2="SourceAlpha" operator="in" result="effect1_backgroundBlur_3002_1502"/>
<feBlend mode="normal" in="SourceGraphic" in2="effect1_backgroundBlur_3002_1502" result="shape"/>
</filter>
<filter id="filter10_b_3002_1502" x="947.857" y="637.857" width="171.973" height="171.973" filterUnits="userSpaceOnUse" color-interpolation-filters="sRGB">
<feFlood flood-opacity="0" result="BackgroundImageFix"/>
<feGaussianBlur in="BackgroundImageFix" stdDeviation="27.9892"/>
<feComposite in2="SourceAlpha" operator="in" result="effect1_backgroundBlur_3002_1502"/>
<feBlend mode="normal" in="SourceGraphic" in2="effect1_backgroundBlur_3002_1502" result="shape"/>
</filter>
<linearGradient id="paint0_linear_3002_1502" x1="714.099" y1="928.843" x2="771.917" y2="946.932" gradientUnits="userSpaceOnUse">
<stop stop-color="#292D32"/>
<stop offset="1" stop-color="#7B8A98"/>
</linearGradient>
<linearGradient id="paint1_linear_3002_1502" x1="671.675" y1="974.858" x2="772.073" y2="974.858" gradientUnits="userSpaceOnUse">
<stop stop-color="#262C33"/>
<stop offset="1" stop-color="#718599" stop-opacity="0"/>
</linearGradient>
<linearGradient id="paint2_linear_3002_1502" x1="722.143" y1="933.339" x2="742.573" y2="957.145" gradientUnits="userSpaceOnUse">
<stop stop-color="#FF83BF"/>
<stop offset="0.41" stop-color="#FF0969"/>
<stop offset="1" stop-color="#DE0665"/>
</linearGradient>
<linearGradient id="paint3_linear_3002_1502" x1="684.217" y1="973.354" x2="759.516" y2="973.354" gradientUnits="userSpaceOnUse">
<stop stop-color="#262C33"/>
<stop offset="1" stop-color="#718599" stop-opacity="0"/>
</linearGradient>
<linearGradient id="paint4_linear_3002_1502" x1="930.099" y1="352.843" x2="987.917" y2="370.932" gradientUnits="userSpaceOnUse">
<stop stop-color="#292D32"/>
<stop offset="1" stop-color="#7B8A98"/>
</linearGradient>
<linearGradient id="paint5_linear_3002_1502" x1="887.675" y1="398.858" x2="988.073" y2="398.858" gradientUnits="userSpaceOnUse">
<stop stop-color="#262C33"/>
<stop offset="1" stop-color="#718599" stop-opacity="0"/>
</linearGradient>
<linearGradient id="paint6_linear_3002_1502" x1="938.142" y1="357.339" x2="958.572" y2="381.145" gradientUnits="userSpaceOnUse">
<stop stop-color="#979493"/>
<stop offset="0.41" stop-color="#242628"/>
<stop offset="0.98" stop-color="#1C1D1F"/>
</linearGradient>
<linearGradient id="paint7_linear_3002_1502" x1="900.217" y1="397.355" x2="975.515" y2="397.355" gradientUnits="userSpaceOnUse">
<stop stop-color="#262C33"/>
<stop offset="1" stop-color="#718599" stop-opacity="0"/>
</linearGradient>
<linearGradient id="paint8_linear_3002_1502" x1="457.099" y1="379.843" x2="514.917" y2="397.932" gradientUnits="userSpaceOnUse">
<stop stop-color="#292D32"/>
<stop offset="1" stop-color="#7B8A98"/>
</linearGradient>
<linearGradient id="paint9_linear_3002_1502" x1="414.675" y1="425.858" x2="515.073" y2="425.858" gradientUnits="userSpaceOnUse">
<stop stop-color="#262C33"/>
<stop offset="1" stop-color="#718599" stop-opacity="0"/>
</linearGradient>
<linearGradient id="paint10_linear_3002_1502" x1="465.143" y1="384.339" x2="485.573" y2="408.145" gradientUnits="userSpaceOnUse">
<stop stop-color="#7CCFFF"/>
<stop offset="0.41" stop-color="#0497EC"/>
<stop offset="0.98" stop-color="#04669E"/>
</linearGradient>
<linearGradient id="paint11_linear_3002_1502" x1="427.217" y1="424.355" x2="502.516" y2="424.355" gradientUnits="userSpaceOnUse">
<stop stop-color="#262C33"/>
<stop offset="1" stop-color="#718599" stop-opacity="0"/>
</linearGradient>
<linearGradient id="paint12_linear_3002_1502" x1="403.2" y1="725.683" x2="460.889" y2="743.957" gradientUnits="userSpaceOnUse">
<stop stop-color="#292D32"/>
<stop offset="1" stop-color="#7B8A98"/>
</linearGradient>
<linearGradient id="paint13_linear_3002_1502" x1="388.994" y1="719.688" x2="421.68" y2="814.616" gradientUnits="userSpaceOnUse">
<stop stop-color="#262C33"/>
<stop offset="1" stop-color="#718599" stop-opacity="0"/>
</linearGradient>
<linearGradient id="paint14_linear_3002_1502" x1="411.721" y1="728.208" x2="432.908" y2="752.896" gradientUnits="userSpaceOnUse">
<stop stop-color="#B4B4D8"/>
<stop offset="0.41" stop-color="#838FBD"/>
<stop offset="0.98" stop-color="#596284"/>
</linearGradient>
<linearGradient id="paint15_linear_3002_1502" x1="372.391" y1="769.706" x2="450.478" y2="769.706" gradientUnits="userSpaceOnUse">
<stop stop-color="#262C33"/>
<stop offset="1" stop-color="#718599" stop-opacity="0"/>
</linearGradient>
<linearGradient id="paint16_linear_3002_1502" x1="1026.1" y1="683.844" x2="1083.92" y2="701.932" gradientUnits="userSpaceOnUse">
<stop stop-color="#292D32"/>
<stop offset="1" stop-color="#7B8A98"/>
</linearGradient>
<linearGradient id="paint17_linear_3002_1502" x1="983.675" y1="729.858" x2="1084.07" y2="729.858" gradientUnits="userSpaceOnUse">
<stop stop-color="#262C33"/>
<stop offset="1" stop-color="#718599" stop-opacity="0"/>
</linearGradient>
<linearGradient id="paint18_linear_3002_1502" x1="1034.14" y1="688.339" x2="1054.57" y2="712.145" gradientUnits="userSpaceOnUse">
<stop stop-color="#FFBDC7"/>
<stop offset="0.41" stop-color="#FF0025"/>
<stop offset="0.98" stop-color="#DE0827"/>
</linearGradient>
<linearGradient id="paint19_linear_3002_1502" x1="996.217" y1="728.355" x2="1071.52" y2="728.355" gradientUnits="userSpaceOnUse">
<stop stop-color="#262C33"/>
<stop offset="1" stop-color="#718599" stop-opacity="0"/>
</linearGradient>
<clipPath id="clip0_3002_1502">
<rect width="28" height="32.2424" fill="white" transform="translate(732.414 950.397) rotate(71)"/>
</clipPath>
<clipPath id="clip1_3002_1502">
<rect width="28" height="28" fill="white" transform="translate(946.523 375.048) rotate(71)"/>
</clipPath>
<clipPath id="clip2_3002_1502">
<rect width="24" height="25" fill="white" transform="translate(472.283 404.59) rotate(71)"/>
</clipPath>
<clipPath id="clip3_3002_1502">
<rect width="32" height="32" fill="white" transform="translate(1043.76 703.506) rotate(71)"/>
</clipPath>
</defs>
</svg>
