<svg width="25" height="25" viewBox="0 0 25 25" fill="none" xmlns="http://www.w3.org/2000/svg">
<g clip-path="url(#clip0_6024_14004)">
<path d="M10.8615 13.6016C10.7754 13.4737 10.8016 13.3607 10.8343 13.2522C10.9324 12.9291 11.0338 12.6071 11.1352 12.284C11.2453 11.9324 11.3543 11.5808 11.4677 11.2314C11.556 10.9585 11.5963 10.9311 11.8667 10.9323C14.5564 10.9334 17.246 10.9334 19.9345 10.938C20.0828 10.938 20.1766 10.9083 20.2245 10.7359C20.3041 10.4493 20.4175 10.173 20.508 9.8899C20.6432 9.46975 20.7751 9.04733 20.9027 8.6249C20.9844 8.3566 21.0542 8.08487 21.1338 7.81543C21.1676 7.69898 21.2167 7.58823 21.2494 7.47178C21.3159 7.23431 21.2439 7.13954 21.0062 7.13954C14.1813 7.13954 7.35747 7.13955 0.53253 7.14183C0.358091 7.14183 0.183651 7.16695 0.00158012 7.18065C-0.0125931 7.05163 0.0713559 6.99683 0.142222 6.94089C0.862874 6.38031 1.58571 5.82088 2.30745 5.26145C2.83949 4.85044 3.37044 4.43828 3.90357 4.02955C4.0115 3.94735 4.13034 3.90739 4.27098 3.90739C10.1474 3.91196 16.0238 3.91424 21.9002 3.90625C22.1924 3.90625 22.4159 3.99302 22.6405 4.17112C23.2293 4.63922 23.8278 5.09133 24.4231 5.5503C24.5659 5.6599 24.7109 5.76608 24.8526 5.87682C25.0096 6.00013 25.0314 6.13028 24.9638 6.3198C24.8592 6.61208 24.7676 6.91006 24.6706 7.20576C24.543 7.59508 24.4111 7.98212 24.289 8.37258C24.1974 8.66372 24.1189 8.95942 24.0328 9.25283C23.9488 9.53597 23.866 9.82026 23.7755 10.1011C23.709 10.3078 23.5836 10.4608 23.3895 10.5589C22.9044 10.8021 22.4236 11.0544 21.9428 11.3056C21.4194 11.5785 20.8983 11.8536 20.375 12.1254C20.2104 12.211 20.0392 12.2818 19.8746 12.3685C19.8102 12.4028 19.7579 12.4622 19.6871 12.5192C19.7361 12.5877 19.7634 12.6494 19.8092 12.6848C20.3913 13.1358 20.9757 13.5822 21.559 14.0297C21.7563 14.1816 21.9493 14.3414 22.1554 14.4795C22.3178 14.588 22.3385 14.7239 22.284 14.8963C22.1423 15.3495 22.0027 15.8039 21.8632 16.2583C21.728 16.6956 21.595 17.134 21.4587 17.5713C21.341 17.9469 21.2188 18.3214 21.0989 18.6958C21.0477 18.8557 21.0095 19.0224 20.9397 19.1731C20.8994 19.261 20.8209 19.35 20.738 19.3946C20.2463 19.6617 19.7481 19.9175 19.251 20.1732C18.575 20.5214 17.8925 20.8571 17.222 21.2179C16.9723 21.3514 16.7238 21.4074 16.4479 21.4062C11.6596 21.4028 6.87122 21.404 2.08395 21.404C2.00654 21.404 1.92804 21.404 1.85064 21.404C1.55409 21.4005 1.51157 21.324 1.60642 21.0386C1.70781 20.7338 1.78413 20.421 1.87571 20.1127C1.94004 19.8969 2.01199 19.6846 2.0785 19.4699C2.17989 19.14 2.27692 18.8077 2.37941 18.4778C2.44155 18.2791 2.51678 18.0839 2.57674 17.8841C2.65742 17.6158 2.72719 17.3441 2.80351 17.0735C2.85584 16.8885 2.90817 16.7036 2.96487 16.5198C3.06081 16.2046 3.16002 15.8895 3.25705 15.5744C3.32574 15.3518 3.39333 15.128 3.46311 14.9054C3.56777 14.5697 3.67353 14.2341 3.77819 13.8984C3.88067 13.5696 3.98534 13.2419 4.08346 12.912C4.16305 12.6425 4.23282 12.3697 4.30805 12.098C4.3582 11.9198 4.41053 11.7417 4.46504 11.5648C4.62422 11.0419 4.78231 10.519 4.94475 9.99836C5.0734 9.58621 5.21513 9.17748 5.3416 8.76533C5.4092 8.54384 5.46044 8.3155 5.51604 8.08944C5.56946 7.87023 5.66322 7.84055 5.84202 7.98098C6.48309 8.48104 7.12633 8.97883 7.76849 9.47889C7.91022 9.58964 8.05086 9.70266 8.1915 9.81569C8.34305 9.93671 8.34305 9.98352 8.27763 10.1765C8.18605 10.4425 8.1141 10.7154 8.03233 10.9848C7.95274 11.2451 7.86879 11.5043 7.79029 11.7657C7.72161 11.9963 7.66164 12.2304 7.59078 12.4599C7.52536 12.6757 7.45014 12.8869 7.38254 13.1015C7.28769 13.4006 7.1972 13.7009 7.10453 14C6.97915 14.4065 6.8505 14.8129 6.7273 15.2205C6.65535 15.458 6.59429 15.6989 6.52343 15.9363C6.46128 16.1441 6.3926 16.3496 6.32827 16.5563C6.22252 16.8942 6.11786 17.2322 6.01319 17.5713C5.9794 17.6786 5.9336 17.7836 5.91834 17.8944C5.9009 18.0199 5.95323 18.0702 6.07534 18.085C6.1135 18.0896 6.15274 18.085 6.19199 18.085C10.0318 18.085 13.8717 18.085 17.7115 18.0862C17.9121 18.0862 17.9983 18.0279 18.0462 17.8578C18.1171 17.6101 18.1858 17.36 18.261 17.1134C18.357 16.7995 18.4573 16.4855 18.5565 16.1727C18.7407 15.5916 18.9272 15.0116 19.1103 14.4293C19.1681 14.2455 19.2172 14.0594 19.2738 13.8744C19.3404 13.6541 19.3044 13.6004 19.0743 13.6004C18.1956 13.6004 17.3179 13.6004 16.4392 13.6004C14.6665 13.6004 12.8948 13.6004 11.1221 13.6004C11.0305 13.6004 10.9378 13.6004 10.8604 13.6004L10.8615 13.6016Z" fill="#FCFC00"/>
</g>
<defs>
<clipPath id="clip0_6024_14004">
<rect width="25" height="25" fill="white"/>
</clipPath>
</defs>
</svg>
