<svg width="173" height="173" viewBox="0 0 173 173" fill="none" xmlns="http://www.w3.org/2000/svg">
<path d="M172.756 86.3779C172.756 134.083 134.083 172.756 86.3779 172.756C38.6727 172.756 0 134.083 0 86.3779C0 38.6727 38.6727 0 86.3779 0C134.083 0 172.756 38.6727 172.756 86.3779Z" fill="#262D88"/>
<path fill-rule="evenodd" clip-rule="evenodd" d="M25.1668 79.2731L29.5283 94.8651C29.736 95.5927 30.6499 97.1727 32.6437 97.6716C34.6376 98.1706 43.0284 100.582 46.9746 101.726C47.1187 101.808 47.3062 101.89 47.5257 101.954L51.958 117.63C52.2695 118.565 53.4534 120.561 55.6965 121.06C57.8512 121.539 66.1199 123.783 70.45 124.973C70.4665 125.045 70.485 125.118 70.5056 125.191L74.8672 140.783C75.0749 141.511 75.9887 143.091 77.9826 143.59C79.9764 144.089 88.3673 146.5 92.3134 147.644C93.0404 148.06 94.8681 148.455 96.3635 146.708C97.8589 144.962 130.218 112.094 146.21 95.8785C146.729 95.5667 147.518 94.0699 146.521 90.5773C145.525 87.0847 143.821 79.7669 143.095 76.5445C142.991 75.713 142.222 73.9251 139.979 73.4262C137.736 72.9272 128.868 70.9314 124.714 69.9959C123.987 69.788 122.097 69.8712 120.352 71.867C119.229 73.1522 105.641 86.9217 91.9215 100.783L88.4082 86.4457C88.3044 85.6141 87.5359 83.8262 85.2928 83.3273C83.235 82.8696 75.7762 80.9772 71.4309 79.8651C81.5009 69.6143 93.1122 57.8275 100.871 49.9603C101.39 49.6485 102.18 48.1516 101.183 44.659C100.186 41.1664 98.4826 33.8486 97.7557 30.6263C97.6518 29.7947 96.8834 28.0069 94.6403 27.5079C92.3972 27.009 83.5287 25.0132 79.3748 24.0777C78.6479 23.8698 76.7578 23.9529 75.0132 25.9487C73.2686 27.9445 41.4707 60.0433 25.7898 75.8432C25.3786 76.2588 24.6782 77.5266 25.1668 79.2731ZM87.9466 104.797L74.0773 100.478L68.5853 106.545L72.193 120.689C76.6392 116.208 82.1986 110.601 87.9466 104.797ZM80.3082 27.5082L84.0466 41.2291L98.3775 45.9067L94.639 31.2502L80.3082 27.5082ZM73.1427 50.8961L81.2428 42.4764L77.1928 28.1319L58.8119 46.8422L73.1427 50.8961ZM70.6504 53.3908L61.6157 62.4341L58.1888 50.2724L70.6504 53.3908ZM43.5464 80.5208L58.8119 65.2407L55.0734 51.5198L29.2155 76.7787L43.5464 80.5208ZM41.0541 83.3273L32.0194 92.3706L28.2809 80.2089L41.0541 83.3273ZM43.2348 85.5102L34.2002 94.5535L46.6618 98.6074L43.2348 85.5102ZM49.7772 97.36L46.0387 83.3273L60.9927 68.0472L75.012 71.7893L49.7772 97.36ZM64.1081 64.617L72.5196 55.8855L75.9466 68.0472L64.1081 64.617ZM83.4236 44.6593L75.3235 53.079L79.062 68.0472L97.4429 49.0251L83.4236 44.6593ZM125.647 73.4264L129.386 87.1473L143.716 91.8249L139.978 77.1685L125.647 73.4264ZM118.482 96.8143L126.582 88.3947L122.532 74.0501L104.151 92.7604L118.482 96.8143ZM115.989 99.309L106.955 108.352L103.528 96.1907L115.989 99.309ZM88.8853 126.439L104.151 111.159L100.412 97.438L74.5544 122.697L88.8853 126.439ZM86.3929 129.246L77.3583 138.289L73.6198 126.127L86.3929 129.246ZM88.5737 131.428L79.539 140.472L92.0007 144.526L88.5737 131.428ZM95.1161 143.278L91.3776 129.246L106.332 113.965L120.351 117.708L95.1161 143.278ZM109.447 110.535L117.859 101.804L121.285 113.965L109.447 110.535ZM128.762 90.5776L120.662 98.9972L124.401 113.965L142.782 94.9433L128.762 90.5776ZM74.3889 95.1772L83.112 86.4457L70.9619 83.3273L74.3889 95.1772ZM51.958 100.167L67.8465 84.5747L71.8966 98.2956L66.2888 103.597L51.958 100.167ZM85.2928 88.6286L76.8812 97.9837L89.0313 101.102L85.2928 88.6286ZM65.3542 106.545L69.0927 121.372C66.185 120.644 59.8088 119.002 57.5657 118.253C55.3226 117.505 54.5541 115.862 54.4503 115.135L51.0234 102.973L65.3542 106.545Z" fill="url(#paint0_linear_3336_881)"/>
<defs>
<linearGradient id="paint0_linear_3336_881" x1="139.757" y1="54.5055" x2="28.6303" y2="104.108" gradientUnits="userSpaceOnUse">
<stop stop-color="#AC55F3"/>
<stop offset="0.495" stop-color="#6963E5"/>
<stop offset="1" stop-color="#2EB5F9"/>
</linearGradient>
</defs>
</svg>
