<svg width="27" height="27" viewBox="0 0 27 27" fill="none" xmlns="http://www.w3.org/2000/svg">
<path d="M16.8805 4.20971C20.9145 1.48818 24.273 0.233575 25.5083 1.48818C27.4385 3.41835 23.5009 10.2897 16.9384 16.9295C10.3758 23.5693 3.42722 27.4296 1.49705 25.4994C0.228934 24.2313 1.45845 20.7609 4.37493 16.6361" stroke="url(#paint0_linear_6024_13993)" stroke-width="1.56231" stroke-linecap="round" stroke-linejoin="round"/>
<path d="M10.5299 22.6314C11.5026 22.9463 12.5186 23.1065 13.541 23.1062C15.0762 23.1072 16.5895 22.742 17.9552 22.0408C19.321 21.3396 20.4997 20.3227 21.3936 19.0746C22.2875 17.8264 22.8707 16.383 23.0948 14.8643C23.3189 13.3455 23.1775 11.7952 22.6822 10.342M5.82031 19.2459C4.42645 17.3874 3.74975 15.0885 3.91443 12.7713C4.07911 10.454 5.07413 8.27392 6.71681 6.63124C8.35949 4.98856 10.5396 3.99354 12.8568 3.82886C15.1741 3.66418 17.473 4.34088 19.3315 5.73474" stroke="url(#paint1_linear_6024_13993)" stroke-width="1.56231" stroke-linecap="round" stroke-linejoin="round"/>
<path fill-rule="evenodd" clip-rule="evenodd" d="M16.6616 11.4731C17.9727 10.6899 17.8519 9.85156 17.8519 9.85156C17.362 10.5761 13.7877 12.3046 13.7877 12.3046L13.4393 13.3327C13.4399 13.3315 13.5345 13.278 13.6955 13.1867L13.6955 13.1867C14.2607 12.8664 15.6448 12.0821 16.6616 11.4731ZM12.3387 13.3522C12.3387 13.3522 10.4273 12.2792 9.11631 11.4961C7.87332 10.7483 7.92104 9.9569 7.92583 9.87758V9.87758V9.87758V9.87758V9.87758C7.92608 9.87346 7.92621 9.87126 7.92604 9.87109C8.41595 10.5956 11.9868 12.3241 11.9868 12.3241L12.3387 13.3522ZM13.4354 13.694L15.7711 12.2795C15.7711 12.2795 18.5726 10.5993 18.7796 9.94727C18.7796 9.94727 18.7347 11.2341 17.6825 11.9552C16.6302 12.6763 13.877 14.2184 13.877 14.2184L12.8972 16.7715V16.8543L12.88 16.8129L12.8731 16.8301V16.7922L11.8933 14.2391C11.8933 14.2391 9.13666 12.7004 8.08784 11.9759C7.03902 11.2514 6.99072 9.96797 6.99072 9.96797C7.20118 10.6235 10.0026 12.3037 10.0026 12.3037L12.3383 13.7182L12.8834 15.0603L13.4354 13.694ZM12.8764 11.0352L13.5768 12.3255L12.8764 14.6819L12.176 12.3255L12.8764 11.0352ZM11.8505 14.5877L9.06974 12.9316C9.06974 12.9316 9.02489 14.6118 11.8505 14.5877ZM13.9052 14.5877C16.7307 14.6118 16.6859 12.9316 16.6859 12.9316L13.9052 14.5877Z" fill="url(#paint2_linear_6024_13993)"/>
<defs>
<linearGradient id="paint0_linear_6024_13993" x1="3.60746" y1="15.4513" x2="40.7227" y2="15.5007" gradientUnits="userSpaceOnUse">
<stop stop-color="#FE5E35"/>
<stop offset="0.55" stop-color="#F67702"/>
<stop offset="1" stop-color="#FFEF76"/>
</linearGradient>
<linearGradient id="paint1_linear_6024_13993" x1="5.90394" y1="14.9633" x2="34.5689" y2="15.0015" gradientUnits="userSpaceOnUse">
<stop stop-color="#FE5E35"/>
<stop offset="0.55" stop-color="#F67702"/>
<stop offset="1" stop-color="#FFEF76"/>
</linearGradient>
<linearGradient id="paint2_linear_6024_13993" x1="8.22028" y1="13.9" x2="25.7221" y2="13.9392" gradientUnits="userSpaceOnUse">
<stop stop-color="#FE5E35"/>
<stop offset="0.55" stop-color="#F67702"/>
<stop offset="1" stop-color="#FFEF76"/>
</linearGradient>
</defs>
</svg>
