<svg width="361" height="229" viewBox="0 0 361 229" fill="none" xmlns="http://www.w3.org/2000/svg">
<path d="M174.286 124.096C173.168 122.512 173.508 121.112 173.932 119.768C175.205 115.765 176.52 111.776 177.836 107.774C179.264 103.417 180.679 99.0606 182.15 94.7324C183.296 91.3519 183.819 91.0125 187.327 91.0266C222.221 91.0408 257.115 91.0408 291.995 91.0974C293.919 91.0974 295.135 90.7296 295.757 88.5938C296.79 85.0435 298.261 81.6206 299.435 78.1128C301.189 72.9077 302.9 67.6743 304.555 62.4409C305.616 59.1169 306.521 55.7506 307.554 52.4125C307.992 50.9698 308.629 49.5978 309.053 48.155C309.916 45.213 308.982 44.039 305.899 44.039C217.355 44.039 128.826 44.039 40.2818 44.0673C38.0187 44.0673 35.7556 44.3785 33.3935 44.5482C33.2096 42.9499 34.2987 42.271 35.2181 41.5779C44.5675 34.633 53.9452 27.7023 63.3088 20.7715C70.2113 15.6796 77.0996 10.5734 84.0162 5.50975C85.4165 4.49136 86.9582 3.99629 88.7828 3.99629C165.021 4.05287 241.259 4.08119 317.497 3.98218C321.288 3.98218 324.188 5.05712 327.101 7.26364C334.739 13.0628 342.505 18.664 350.227 24.3501C352.08 25.7079 353.961 27.0233 355.8 28.3953C357.837 29.9229 358.12 31.5354 357.243 33.8834C355.885 37.5043 354.697 41.196 353.438 44.8594C351.783 49.6826 350.072 54.4776 348.488 59.315C347.3 62.9218 346.281 66.5852 345.164 70.2203C344.075 73.7281 343 77.25 341.826 80.7295C340.963 83.2896 339.336 85.185 336.819 86.4014C330.524 89.4142 324.287 92.5401 318.049 95.6519C311.26 99.0324 304.499 102.441 297.709 105.808C295.574 106.868 293.353 107.745 291.217 108.82C290.383 109.245 289.704 109.98 288.784 110.687C289.421 111.536 289.774 112.3 290.368 112.738C297.922 118.325 305.503 123.856 313.07 129.4C315.63 131.282 318.134 133.262 320.807 134.973C322.915 136.317 323.183 138 322.476 140.136C320.637 145.751 318.827 151.381 317.016 157.01C315.263 162.427 313.537 167.859 311.769 173.276C310.241 177.93 308.657 182.569 307.101 187.208C306.436 189.189 305.941 191.254 305.036 193.121C304.513 194.21 303.494 195.313 302.419 195.865C296.04 199.174 289.576 202.343 283.126 205.511C274.357 209.825 265.503 213.984 256.804 218.453C253.565 220.108 250.34 220.801 246.761 220.787C184.639 220.745 122.517 220.759 60.4092 220.759C59.405 220.759 58.3866 220.759 57.3823 220.759C53.5351 220.716 52.9834 219.769 54.214 216.233C55.5294 212.456 56.5195 208.581 57.7076 204.762C58.5422 202.088 59.4757 199.457 60.3385 196.798C61.6539 192.711 62.9128 188.595 64.2423 184.507C65.0486 182.046 66.0245 179.627 66.8025 177.152C67.8492 173.828 68.7544 170.461 69.7445 167.109C70.4234 164.818 71.1024 162.526 71.8379 160.249C73.0826 156.345 74.3697 152.442 75.6286 148.538C76.5197 145.78 77.3966 143.007 78.3019 140.249C79.6597 136.091 81.0317 131.932 82.3896 127.774C83.7191 123.7 85.077 119.641 86.35 115.553C87.3825 112.215 88.2878 108.834 89.2637 105.468C89.9144 103.262 90.5933 101.055 91.3005 98.8626C93.3656 92.3845 95.4165 85.9064 97.524 79.4565C99.1931 74.3504 101.032 69.2867 102.673 64.1806C103.55 61.4366 104.214 58.6077 104.936 55.8071C105.629 53.0914 106.845 52.7237 109.165 54.4634C117.482 60.6587 125.827 66.8256 134.158 73.0209C135.997 74.3929 137.821 75.7931 139.646 77.1934C141.612 78.6927 141.612 79.2727 140.763 81.663C139.575 84.9587 138.642 88.3392 137.581 91.6773C136.548 94.9022 135.459 98.113 134.441 101.352C133.55 104.209 132.772 107.109 131.852 109.952C131.004 112.625 130.028 115.242 129.151 117.901C127.92 121.607 126.746 125.327 125.544 129.033C123.917 134.068 122.248 139.103 120.65 144.153C119.717 147.095 118.924 150.079 118.005 153.021C117.199 155.596 116.308 158.142 115.473 160.702C114.101 164.889 112.743 169.075 111.386 173.276C110.947 174.606 110.353 175.907 110.155 177.279C109.929 178.835 110.608 179.457 112.192 179.641C112.687 179.698 113.196 179.641 113.705 179.641C163.522 179.641 213.338 179.641 263.155 179.655C265.757 179.655 266.875 178.934 267.497 176.826C268.416 173.757 269.307 170.659 270.283 167.604C271.528 163.715 272.829 159.825 274.117 155.949C276.507 148.75 278.926 141.564 281.302 134.351C282.052 132.074 282.688 129.768 283.424 127.477C284.286 124.747 283.82 124.082 280.835 124.082C269.435 124.082 258.049 124.082 246.648 124.082C223.649 124.082 200.665 124.082 177.666 124.082C176.478 124.082 175.276 124.082 174.271 124.082L174.286 124.096Z" fill="url(#paint0_linear_2249_775)"/>
<defs>
<linearGradient id="paint0_linear_2249_775" x1="204.989" y1="-5.8726" x2="206.178" y2="356.287" gradientUnits="userSpaceOnUse">
<stop stop-color="#E91D05"/>
<stop offset="0.55" stop-color="#F67702"/>
<stop offset="1" stop-color="#FFEF76"/>
</linearGradient>
</defs>
</svg>
