<svg width="693" height="544" viewBox="0 0 693 544" fill="none" xmlns="http://www.w3.org/2000/svg">
<g filter="url(#filter0_b_1911_6782)">
<path d="M54.0898 477.577C74.4164 484.837 134.622 479.417 212.831 399.659C310.592 299.962 375.219 340.129 387.421 350.298" stroke="url(#paint0_linear_1911_6782)" stroke-width="1.01685"/>
</g>
<g filter="url(#filter1_b_1911_6782)">
<path d="M329.467 477.578C349.793 484.837 409.999 479.417 488.208 399.659C585.969 299.962 631.403 337.255 650.278 350.806" stroke="url(#paint1_linear_1911_6782)" stroke-width="1.01685"/>
</g>
<g filter="url(#filter2_b_1911_6782)">
<path d="M362.508 474.354C342.182 481.613 281.361 479.417 203.152 399.659C105.39 299.962 46.3296 336.747 27.4549 350.298" stroke="url(#paint2_linear_1911_6782)" stroke-width="1.01685"/>
</g>
<g filter="url(#filter3_b_1911_6782)">
<path d="M625.17 477.578C604.844 484.837 544.638 479.417 466.429 399.659C368.668 299.962 313.254 339.289 294.379 352.84" stroke="url(#paint3_linear_1911_6782)" stroke-width="1.01685"/>
</g>
<path d="M129.319 221.35L130.229 222.108L127.125 225.832L130.014 228.24L132.534 225.216L133.443 225.974L130.923 228.998L134.783 232.214L133.851 233.332L125.284 226.193L129.319 221.35ZM140.508 217.971C140.721 218.149 140.936 218.349 141.153 218.571L136.667 223.955C137.365 224.467 138.073 224.675 138.791 224.58C139.508 224.469 140.112 224.119 140.604 223.529C141.007 223.045 141.231 222.552 141.276 222.048C141.32 221.529 141.208 221.047 140.94 220.601L141.944 219.397C142.441 220.117 142.669 220.918 142.628 221.8C142.579 222.675 142.22 223.514 141.551 224.318C141.018 224.957 140.397 225.411 139.686 225.68C138.983 225.941 138.25 225.996 137.486 225.846C136.715 225.689 135.98 225.32 135.284 224.74C134.587 224.159 134.093 223.511 133.801 222.796C133.508 222.08 133.431 221.356 133.569 220.624C133.706 219.877 134.047 219.176 134.593 218.52C135.126 217.881 135.737 217.432 136.425 217.172C137.113 216.913 137.812 216.857 138.523 217.004C139.231 217.137 139.893 217.459 140.508 217.971ZM139.311 218.932C138.885 218.577 138.442 218.367 137.982 218.303C137.513 218.232 137.065 218.295 136.636 218.493C136.206 218.676 135.827 218.965 135.499 219.358C135.028 219.923 134.805 220.557 134.831 221.259C134.864 221.953 135.176 222.595 135.767 223.185L139.311 218.932ZM146.859 210.349C147.073 210.526 147.288 210.726 147.505 210.949L143.018 216.333C143.716 216.845 144.424 217.053 145.143 216.957C145.86 216.847 146.464 216.497 146.956 215.907C147.359 215.423 147.583 214.929 147.628 214.425C147.671 213.906 147.559 213.424 147.292 212.979L148.296 211.775C148.793 212.494 149.021 213.295 148.98 214.177C148.931 215.053 148.571 215.892 147.902 216.695C147.37 217.334 146.748 217.789 146.038 218.058C145.335 218.318 144.601 218.374 143.838 218.224C143.066 218.066 142.332 217.698 141.636 217.117C140.939 216.537 140.445 215.889 140.152 215.173C139.86 214.458 139.783 213.734 139.921 213.002C140.057 212.255 140.399 211.553 140.945 210.898C141.478 210.259 142.088 209.809 142.777 209.55C143.465 209.29 144.164 209.234 144.874 209.382C145.583 209.514 146.245 209.837 146.859 210.349ZM145.663 211.31C145.237 210.954 144.794 210.745 144.334 210.681C143.865 210.61 143.416 210.673 142.988 210.871C142.557 211.054 142.178 211.342 141.851 211.736C141.379 212.301 141.157 212.935 141.183 213.637C141.216 214.331 141.528 214.972 142.119 215.562L145.663 211.31ZM153.814 209.601C153.383 210.118 152.912 210.509 152.398 210.775C151.876 211.035 151.361 211.154 150.851 211.132C150.334 211.103 149.86 210.93 149.43 210.614L150.392 209.458C150.756 209.705 151.16 209.778 151.605 209.677C152.057 209.568 152.474 209.284 152.857 208.825C153.212 208.399 153.398 207.984 153.414 207.582C153.43 207.179 153.295 206.858 153.008 206.619C152.713 206.373 152.387 206.323 152.029 206.469C151.663 206.609 151.182 206.895 150.585 207.328C150.037 207.718 149.565 208.019 149.167 208.229C148.769 208.424 148.342 208.527 147.889 208.538C147.434 208.534 146.99 208.351 146.555 207.989C146.211 207.703 145.981 207.337 145.865 206.893C145.749 206.449 145.766 205.971 145.916 205.457C146.058 204.937 146.331 204.435 146.734 203.952C147.355 203.206 148.045 202.761 148.805 202.616C149.564 202.471 150.285 202.655 150.968 203.169L150.036 204.287C149.663 204.018 149.261 203.926 148.829 204.011C148.405 204.087 148.011 204.343 147.649 204.777C147.315 205.179 147.134 205.57 147.108 205.951C147.083 206.332 147.209 206.639 147.487 206.871C147.709 207.055 147.951 207.139 148.215 207.123C148.477 207.091 148.742 207.007 149.01 206.869C149.276 206.716 149.623 206.491 150.05 206.195C150.584 205.821 151.043 205.536 151.427 205.342C151.802 205.142 152.206 205.041 152.638 205.039C153.076 205.03 153.503 205.192 153.92 205.525C154.289 205.832 154.535 206.211 154.66 206.662C154.784 207.112 154.775 207.598 154.633 208.118C154.49 208.624 154.216 209.118 153.814 209.601Z" fill="white"/>
<path d="M536.652 198.557C536.853 198.915 536.951 199.306 536.947 199.731C536.949 200.164 536.854 200.578 536.663 200.973C536.479 201.377 536.211 201.717 535.859 201.995C535.415 202.345 534.924 202.549 534.385 202.607C533.855 202.658 533.314 202.548 532.761 202.278C532.223 202.009 531.723 201.582 531.261 200.996L528.684 197.729L537.441 190.823L539.918 193.964C540.387 194.559 540.686 195.145 540.815 195.722C540.953 196.293 540.937 196.815 540.767 197.288C540.597 197.762 540.303 198.164 539.884 198.494C539.365 198.904 538.821 199.101 538.253 199.088C537.7 199.075 537.167 198.898 536.652 198.557ZM534.561 194.949L536.077 196.871C536.5 197.407 536.952 197.722 537.435 197.817C537.917 197.912 538.38 197.785 538.824 197.435C539.268 197.085 539.5 196.664 539.52 196.173C539.54 195.681 539.332 195.159 538.896 194.607L537.4 192.71L534.561 194.949ZM532.124 200.152C532.573 200.722 533.057 201.06 533.576 201.167C534.095 201.273 534.593 201.139 535.07 200.762C535.556 200.379 535.805 199.911 535.817 199.358C535.838 198.798 535.627 198.238 535.184 197.677L533.619 195.692L530.528 198.129L532.124 200.152ZM541.429 202.029C541.981 201.92 542.511 201.963 543.02 202.16C543.535 202.365 544.004 202.736 544.426 203.272L543.246 204.203L543.008 203.902C541.997 202.62 540.797 202.528 539.406 203.624L535.663 206.577L534.761 205.434L541.645 200.004L542.547 201.147L541.429 202.029ZM546.925 204.399C546.754 204.182 546.684 203.938 546.716 203.668C546.747 203.398 546.872 203.178 547.09 203.006C547.308 202.834 547.552 202.764 547.821 202.796C548.091 202.828 548.312 202.953 548.483 203.171C548.648 203.38 548.712 203.615 548.673 203.877C548.641 204.146 548.517 204.367 548.299 204.539C548.081 204.71 547.837 204.78 547.568 204.749C547.305 204.725 547.091 204.609 546.925 204.399ZM546.243 205.834L539.359 211.264L538.457 210.12L545.342 204.691L546.243 205.834ZM547.4 209.936C547.996 209.847 548.601 209.926 549.218 210.174C549.834 210.421 550.37 210.834 550.826 211.412C551.315 212.031 551.607 212.704 551.704 213.429C551.801 214.155 551.693 214.871 551.382 215.579C551.079 216.28 550.575 216.907 549.872 217.462C549.177 218.011 548.445 218.357 547.676 218.502C546.907 218.646 546.173 218.586 545.476 218.321C544.784 218.065 544.198 217.631 543.715 217.02C543.246 216.425 542.963 215.799 542.866 215.142C542.776 214.494 542.842 213.898 543.066 213.355L541.797 214.355L540.896 213.212L550.192 205.88L551.094 207.023L547.4 209.936ZM548.951 216.294C549.47 215.884 549.839 215.423 550.06 214.91C550.28 214.397 550.348 213.881 550.265 213.362C550.189 212.852 549.982 212.383 549.645 211.956C549.315 211.537 548.903 211.23 548.41 211.035C547.931 210.842 547.409 210.792 546.844 210.884C546.294 210.979 545.763 211.228 545.252 211.63C544.733 212.04 544.359 212.505 544.13 213.025C543.917 213.546 543.844 214.065 543.912 214.582C543.995 215.101 544.202 215.57 544.532 215.988C544.869 216.416 545.277 216.726 545.755 216.919C546.249 217.114 546.77 217.164 547.321 217.07C547.88 216.969 548.423 216.71 548.951 216.294ZM556.252 225.06C556.034 225.232 555.794 225.401 555.531 225.568L551.191 220.065C550.546 220.642 550.196 221.292 550.141 222.014C550.101 222.739 550.318 223.402 550.794 224.005C551.184 224.5 551.62 224.821 552.104 224.969C552.603 225.119 553.098 225.109 553.589 224.939L554.56 226.171C553.753 226.508 552.922 226.566 552.067 226.343C551.221 226.114 550.474 225.589 549.827 224.768C549.311 224.115 548.996 223.413 548.879 222.663C548.769 221.921 548.867 221.192 549.172 220.476C549.485 219.753 549.997 219.111 550.709 218.55C551.421 217.988 552.158 217.639 552.918 217.501C553.679 217.363 554.403 217.437 555.091 217.723C555.793 218.011 556.409 218.49 556.937 219.16C557.452 219.814 557.766 220.504 557.877 221.231C557.989 221.958 557.899 222.654 557.608 223.318C557.332 223.984 556.88 224.565 556.252 225.06ZM555.559 223.691C555.994 223.348 556.291 222.957 556.449 222.52C556.615 222.077 556.646 221.625 556.541 221.164C556.451 220.705 556.247 220.275 555.93 219.873C555.474 219.295 554.9 218.946 554.208 218.826C553.523 218.715 552.83 218.888 552.131 219.344L555.559 223.691ZM555.545 232.019C555.129 231.491 554.843 230.948 554.689 230.391C554.543 229.827 554.533 229.298 554.66 228.804C554.795 228.303 555.062 227.876 555.461 227.52L556.393 228.701C556.076 229.005 555.92 229.386 555.927 229.842C555.941 230.307 556.132 230.774 556.502 231.243C556.846 231.679 557.213 231.946 557.604 232.045C557.995 232.145 558.337 232.079 558.63 231.848C558.931 231.61 559.047 231.301 558.978 230.92C558.918 230.534 558.737 230.003 558.437 229.33C558.168 228.713 557.972 228.189 557.848 227.757C557.74 227.326 557.727 226.888 557.81 226.442C557.908 225.998 558.179 225.601 558.623 225.251C558.975 224.973 559.38 224.824 559.838 224.802C560.296 224.78 560.761 224.896 561.232 225.149C561.712 225.395 562.147 225.766 562.537 226.26C563.138 227.022 563.431 227.789 563.415 228.562C563.4 229.335 563.07 230.003 562.427 230.564L561.525 229.421C561.865 229.112 562.039 228.738 562.045 228.298C562.058 227.867 561.89 227.429 561.54 226.985C561.216 226.575 560.87 226.317 560.503 226.213C560.135 226.109 559.809 226.169 559.525 226.394C559.298 226.572 559.166 226.792 559.128 227.053C559.104 227.316 559.132 227.593 559.212 227.883C559.306 228.176 559.455 228.561 559.656 229.041C559.912 229.641 560.095 230.149 560.205 230.564C560.324 230.973 560.34 231.389 560.252 231.811C560.17 232.242 559.924 232.627 559.511 232.966C559.135 233.263 558.713 233.426 558.246 233.454C557.78 233.483 557.306 233.374 556.827 233.127C556.362 232.882 555.935 232.513 555.545 232.019Z" fill="white"/>
<path d="M39.816 514.256C40.2213 514.32 40.5893 514.485 40.92 514.752C41.2613 515.019 41.528 515.349 41.72 515.744C41.9227 516.139 42.024 516.56 42.024 517.008C42.024 517.573 41.88 518.085 41.592 518.544C41.304 518.992 40.8827 519.349 40.328 519.616C39.784 519.872 39.1387 520 38.392 520H34.232V508.848H38.232C38.9893 508.848 39.6347 508.976 40.168 509.232C40.7013 509.477 41.1013 509.813 41.368 510.24C41.6347 510.667 41.768 511.147 41.768 511.68C41.768 512.341 41.5867 512.891 41.224 513.328C40.872 513.755 40.4027 514.064 39.816 514.256ZM35.688 513.664H38.136C38.8187 513.664 39.3467 513.504 39.72 513.184C40.0933 512.864 40.28 512.421 40.28 511.856C40.28 511.291 40.0933 510.848 39.72 510.528C39.3467 510.208 38.808 510.048 38.104 510.048H35.688V513.664ZM38.264 518.8C38.9893 518.8 39.5547 518.629 39.96 518.288C40.3653 517.947 40.568 517.472 40.568 516.864C40.568 516.245 40.3547 515.76 39.928 515.408C39.5013 515.045 38.9307 514.864 38.216 514.864H35.688V518.8H38.264ZM52.0445 515.28C52.0445 515.557 52.0285 515.851 51.9965 516.16H44.9885C45.0418 517.024 45.3352 517.701 45.8685 518.192C46.4125 518.672 47.0685 518.912 47.8365 518.912C48.4658 518.912 48.9885 518.768 49.4045 518.48C49.8312 518.181 50.1298 517.787 50.3005 517.296H51.8685C51.6338 518.139 51.1645 518.827 50.4605 519.36C49.7565 519.883 48.8818 520.144 47.8365 520.144C47.0045 520.144 46.2578 519.957 45.5965 519.584C44.9458 519.211 44.4338 518.683 44.0605 518C43.6872 517.307 43.5005 516.507 43.5005 515.6C43.5005 514.693 43.6818 513.899 44.0445 513.216C44.4072 512.533 44.9138 512.011 45.5645 511.648C46.2258 511.275 46.9832 511.088 47.8365 511.088C48.6685 511.088 49.4045 511.269 50.0445 511.632C50.6845 511.995 51.1752 512.496 51.5165 513.136C51.8685 513.765 52.0445 514.48 52.0445 515.28ZM50.5405 514.976C50.5405 514.421 50.4178 513.947 50.1725 513.552C49.9272 513.147 49.5912 512.843 49.1645 512.64C48.7485 512.427 48.2845 512.32 47.7725 512.32C47.0365 512.32 46.4072 512.555 45.8845 513.024C45.3725 513.493 45.0792 514.144 45.0045 514.976H50.5405ZM57.0704 520.144C56.3984 520.144 55.7957 520.032 55.2624 519.808C54.729 519.573 54.3077 519.253 53.9984 518.848C53.689 518.432 53.5184 517.957 53.4864 517.424H54.9904C55.033 517.861 55.2357 518.219 55.5984 518.496C55.9717 518.773 56.457 518.912 57.0544 518.912C57.609 518.912 58.0464 518.789 58.3664 518.544C58.6864 518.299 58.8464 517.989 58.8464 517.616C58.8464 517.232 58.6757 516.949 58.3344 516.768C57.993 516.576 57.465 516.389 56.7504 516.208C56.0997 516.037 55.5664 515.867 55.1504 515.696C54.745 515.515 54.393 515.253 54.0944 514.912C53.8064 514.56 53.6624 514.101 53.6624 513.536C53.6624 513.088 53.7957 512.677 54.0624 512.304C54.329 511.931 54.7077 511.637 55.1984 511.424C55.689 511.2 56.249 511.088 56.8784 511.088C57.849 511.088 58.633 511.333 59.2304 511.824C59.8277 512.315 60.1477 512.987 60.1904 513.84H58.7344C58.7024 513.381 58.5157 513.013 58.1744 512.736C57.8437 512.459 57.3957 512.32 56.8304 512.32C56.3077 512.32 55.8917 512.432 55.5824 512.656C55.273 512.88 55.1184 513.173 55.1184 513.536C55.1184 513.824 55.209 514.064 55.3904 514.256C55.5824 514.437 55.817 514.587 56.0944 514.704C56.3824 514.811 56.777 514.933 57.2784 515.072C57.9077 515.243 58.4197 515.413 58.8144 515.584C59.209 515.744 59.545 515.989 59.8224 516.32C60.1104 516.651 60.2597 517.083 60.2704 517.616C60.2704 518.096 60.137 518.528 59.8704 518.912C59.6037 519.296 59.225 519.6 58.7344 519.824C58.2544 520.037 57.6997 520.144 57.0704 520.144ZM64.1018 512.432V517.6C64.1018 518.027 64.1924 518.331 64.3738 518.512C64.5551 518.683 64.8698 518.768 65.3177 518.768H66.3898V520H65.0778C64.2671 520 63.6591 519.813 63.2538 519.44C62.8484 519.067 62.6458 518.453 62.6458 517.6V512.432H61.5098V511.232H62.6458V509.024H64.1018V511.232H66.3898V512.432H64.1018ZM79.8755 512.112C79.8755 513.04 79.5555 513.813 78.9155 514.432C78.2862 515.04 77.3208 515.344 76.0195 515.344H73.8755V520H72.4195V508.848H76.0195C77.2782 508.848 78.2328 509.152 78.8835 509.76C79.5448 510.368 79.8755 511.152 79.8755 512.112ZM76.0195 514.144C76.8302 514.144 77.4275 513.968 77.8115 513.616C78.1955 513.264 78.3875 512.763 78.3875 512.112C78.3875 510.736 77.5982 510.048 76.0195 510.048H73.8755V514.144H76.0195ZM83.1411 512.656C83.3971 512.155 83.7598 511.765 84.2291 511.488C84.7091 511.211 85.2905 511.072 85.9731 511.072V512.576H85.5891C83.9571 512.576 83.1411 513.461 83.1411 515.232V520H81.6851V511.232H83.1411V512.656ZM88.4059 509.808C88.1285 509.808 87.8939 509.712 87.7019 509.52C87.5099 509.328 87.4139 509.093 87.4139 508.816C87.4139 508.539 87.5099 508.304 87.7019 508.112C87.8939 507.92 88.1285 507.824 88.4059 507.824C88.6725 507.824 88.8965 507.92 89.0779 508.112C89.2699 508.304 89.3659 508.539 89.3659 508.816C89.3659 509.093 89.2699 509.328 89.0779 509.52C88.8965 509.712 88.6725 509.808 88.4059 509.808ZM89.1099 511.232V520H87.6539V511.232H89.1099ZM91.0474 515.6C91.0474 514.693 91.2287 513.904 91.5914 513.232C91.954 512.549 92.4554 512.021 93.0954 511.648C93.746 511.275 94.4874 511.088 95.3194 511.088C96.3967 511.088 97.282 511.349 97.9754 511.872C98.6794 512.395 99.1434 513.12 99.3674 514.048H97.7994C97.65 513.515 97.3567 513.093 96.9194 512.784C96.4927 512.475 95.9594 512.32 95.3194 512.32C94.4874 512.32 93.8154 512.608 93.3034 513.184C92.7914 513.749 92.5354 514.555 92.5354 515.6C92.5354 516.656 92.7914 517.472 93.3034 518.048C93.8154 518.624 94.4874 518.912 95.3194 518.912C95.9594 518.912 96.4927 518.763 96.9194 518.464C97.346 518.165 97.6394 517.739 97.7994 517.184H99.3674C99.1327 518.08 98.6634 518.8 97.9594 519.344C97.2554 519.877 96.3754 520.144 95.3194 520.144C94.4874 520.144 93.746 519.957 93.0954 519.584C92.4554 519.211 91.954 518.683 91.5914 518C91.2287 517.317 91.0474 516.517 91.0474 515.6ZM109.31 515.28C109.31 515.557 109.294 515.851 109.262 516.16H102.254C102.307 517.024 102.601 517.701 103.134 518.192C103.678 518.672 104.334 518.912 105.102 518.912C105.731 518.912 106.254 518.768 106.67 518.48C107.097 518.181 107.395 517.787 107.566 517.296H109.134C108.899 518.139 108.43 518.827 107.726 519.36C107.022 519.883 106.147 520.144 105.102 520.144C104.27 520.144 103.523 519.957 102.862 519.584C102.211 519.211 101.699 518.683 101.326 518C100.953 517.307 100.766 516.507 100.766 515.6C100.766 514.693 100.947 513.899 101.31 513.216C101.673 512.533 102.179 512.011 102.83 511.648C103.491 511.275 104.249 511.088 105.102 511.088C105.934 511.088 106.67 511.269 107.31 511.632C107.95 511.995 108.441 512.496 108.782 513.136C109.134 513.765 109.31 514.48 109.31 515.28ZM107.806 514.976C107.806 514.421 107.683 513.947 107.438 513.552C107.193 513.147 106.857 512.843 106.43 512.64C106.014 512.427 105.55 512.32 105.038 512.32C104.302 512.32 103.673 512.555 103.15 513.024C102.638 513.493 102.345 514.144 102.27 514.976H107.806ZM114.336 520.144C113.664 520.144 113.061 520.032 112.528 519.808C111.995 519.573 111.573 519.253 111.264 518.848C110.955 518.432 110.784 517.957 110.752 517.424H112.256C112.299 517.861 112.501 518.219 112.864 518.496C113.237 518.773 113.723 518.912 114.32 518.912C114.875 518.912 115.312 518.789 115.632 518.544C115.952 518.299 116.112 517.989 116.112 517.616C116.112 517.232 115.941 516.949 115.6 516.768C115.259 516.576 114.731 516.389 114.016 516.208C113.365 516.037 112.832 515.867 112.416 515.696C112.011 515.515 111.659 515.253 111.36 514.912C111.072 514.56 110.928 514.101 110.928 513.536C110.928 513.088 111.061 512.677 111.328 512.304C111.595 511.931 111.973 511.637 112.464 511.424C112.955 511.2 113.515 511.088 114.144 511.088C115.115 511.088 115.899 511.333 116.496 511.824C117.093 512.315 117.413 512.987 117.456 513.84H116C115.968 513.381 115.781 513.013 115.44 512.736C115.109 512.459 114.661 512.32 114.096 512.32C113.573 512.32 113.157 512.432 112.848 512.656C112.539 512.88 112.384 513.173 112.384 513.536C112.384 513.824 112.475 514.064 112.656 514.256C112.848 514.437 113.083 514.587 113.36 514.704C113.648 514.811 114.043 514.933 114.544 515.072C115.173 515.243 115.685 515.413 116.08 515.584C116.475 515.744 116.811 515.989 117.088 516.32C117.376 516.651 117.525 517.083 117.536 517.616C117.536 518.096 117.403 518.528 117.136 518.912C116.869 519.296 116.491 519.6 116 519.824C115.52 520.037 114.965 520.144 114.336 520.144Z" fill="white"/>
<path d="M286.688 510.355V514.083H290.752V515.283H286.688V519.123H291.232V520.323H285.232V509.155H291.232V510.355H286.688ZM292.891 515.907C292.891 515.011 293.072 514.227 293.435 513.555C293.798 512.872 294.294 512.344 294.923 511.971C295.563 511.597 296.272 511.411 297.051 511.411C297.819 511.411 298.486 511.576 299.051 511.907C299.616 512.237 300.038 512.653 300.315 513.155V511.555H301.787V520.323H300.315V518.691C300.027 519.203 299.595 519.629 299.019 519.971C298.454 520.301 297.792 520.467 297.035 520.467C296.256 520.467 295.552 520.275 294.923 519.891C294.294 519.507 293.798 518.968 293.435 518.275C293.072 517.581 292.891 516.792 292.891 515.907ZM300.315 515.923C300.315 515.261 300.182 514.685 299.915 514.195C299.648 513.704 299.286 513.331 298.827 513.075C298.379 512.808 297.883 512.675 297.339 512.675C296.795 512.675 296.299 512.803 295.851 513.059C295.403 513.315 295.046 513.688 294.779 514.179C294.512 514.669 294.379 515.245 294.379 515.907C294.379 516.579 294.512 517.165 294.779 517.667C295.046 518.157 295.403 518.536 295.851 518.803C296.299 519.059 296.795 519.187 297.339 519.187C297.883 519.187 298.379 519.059 298.827 518.803C299.286 518.536 299.648 518.157 299.915 517.667C300.182 517.165 300.315 516.584 300.315 515.923ZM305.704 512.979C305.96 512.477 306.322 512.088 306.792 511.811C307.272 511.533 307.853 511.395 308.536 511.395V512.899H308.152C306.52 512.899 305.704 513.784 305.704 515.555V520.323H304.248V511.555H305.704V512.979ZM314.488 511.395C315.555 511.395 316.419 511.72 317.08 512.371C317.742 513.011 318.072 513.939 318.072 515.155V520.323H316.632V515.363C316.632 514.488 316.414 513.821 315.976 513.363C315.539 512.893 314.942 512.659 314.184 512.659C313.416 512.659 312.803 512.899 312.344 513.379C311.896 513.859 311.672 514.557 311.672 515.475V520.323H310.216V511.555H311.672V512.803C311.96 512.355 312.35 512.008 312.84 511.763C313.342 511.517 313.891 511.395 314.488 511.395ZM326.172 510.355V514.083H330.236V515.283H326.172V519.123H330.716V520.323H324.716V509.155H330.716V510.355H326.172ZM343.464 511.395C344.146 511.395 344.754 511.539 345.288 511.827C345.821 512.104 346.242 512.525 346.552 513.091C346.861 513.656 347.016 514.344 347.016 515.155V520.323H345.576V515.363C345.576 514.488 345.357 513.821 344.92 513.363C344.493 512.893 343.912 512.659 343.176 512.659C342.418 512.659 341.816 512.904 341.368 513.395C340.92 513.875 340.696 514.573 340.696 515.491V520.323H339.256V515.363C339.256 514.488 339.037 513.821 338.6 513.363C338.173 512.893 337.592 512.659 336.856 512.659C336.098 512.659 335.496 512.904 335.048 513.395C334.6 513.875 334.376 514.573 334.376 515.491V520.323H332.92V511.555H334.376V512.819C334.664 512.36 335.048 512.008 335.528 511.763C336.018 511.517 336.557 511.395 337.144 511.395C337.88 511.395 338.53 511.56 339.096 511.891C339.661 512.221 340.082 512.707 340.36 513.347C340.605 512.728 341.01 512.248 341.576 511.907C342.141 511.565 342.77 511.395 343.464 511.395ZM350.156 510.131C349.879 510.131 349.644 510.035 349.452 509.843C349.26 509.651 349.164 509.416 349.164 509.139C349.164 508.861 349.26 508.627 349.452 508.435C349.644 508.243 349.879 508.147 350.156 508.147C350.423 508.147 350.647 508.243 350.828 508.435C351.02 508.627 351.116 508.861 351.116 509.139C351.116 509.416 351.02 509.651 350.828 509.843C350.647 510.035 350.423 510.131 350.156 510.131ZM350.86 511.555V520.323H349.404V511.555H350.86ZM356.445 520.467C355.773 520.467 355.171 520.355 354.637 520.131C354.104 519.896 353.683 519.576 353.373 519.171C353.064 518.755 352.893 518.28 352.861 517.747H354.365C354.408 518.184 354.611 518.541 354.973 518.819C355.347 519.096 355.832 519.235 356.429 519.235C356.984 519.235 357.421 519.112 357.741 518.867C358.061 518.621 358.221 518.312 358.221 517.939C358.221 517.555 358.051 517.272 357.709 517.091C357.368 516.899 356.84 516.712 356.125 516.531C355.475 516.36 354.941 516.189 354.525 516.019C354.12 515.837 353.768 515.576 353.469 515.235C353.181 514.883 353.037 514.424 353.037 513.859C353.037 513.411 353.171 513 353.437 512.627C353.704 512.253 354.083 511.96 354.573 511.747C355.064 511.523 355.624 511.411 356.253 511.411C357.224 511.411 358.008 511.656 358.605 512.147C359.203 512.637 359.523 513.309 359.565 514.163H358.109C358.077 513.704 357.891 513.336 357.549 513.059C357.219 512.781 356.771 512.643 356.205 512.643C355.683 512.643 355.267 512.755 354.957 512.979C354.648 513.203 354.493 513.496 354.493 513.859C354.493 514.147 354.584 514.387 354.765 514.579C354.957 514.76 355.192 514.909 355.469 515.027C355.757 515.133 356.152 515.256 356.653 515.395C357.283 515.565 357.795 515.736 358.189 515.907C358.584 516.067 358.92 516.312 359.197 516.643C359.485 516.973 359.635 517.405 359.645 517.939C359.645 518.419 359.512 518.851 359.245 519.235C358.979 519.619 358.6 519.923 358.109 520.147C357.629 520.36 357.075 520.467 356.445 520.467ZM364.805 520.467C364.133 520.467 363.53 520.355 362.997 520.131C362.463 519.896 362.042 519.576 361.733 519.171C361.423 518.755 361.253 518.28 361.221 517.747H362.725C362.767 518.184 362.97 518.541 363.333 518.819C363.706 519.096 364.191 519.235 364.789 519.235C365.343 519.235 365.781 519.112 366.101 518.867C366.421 518.621 366.581 518.312 366.581 517.939C366.581 517.555 366.41 517.272 366.069 517.091C365.727 516.899 365.199 516.712 364.485 516.531C363.834 516.36 363.301 516.189 362.885 516.019C362.479 515.837 362.127 515.576 361.829 515.235C361.541 514.883 361.397 514.424 361.397 513.859C361.397 513.411 361.53 513 361.797 512.627C362.063 512.253 362.442 511.96 362.933 511.747C363.423 511.523 363.983 511.411 364.613 511.411C365.583 511.411 366.367 511.656 366.965 512.147C367.562 512.637 367.882 513.309 367.925 514.163H366.469C366.437 513.704 366.25 513.336 365.909 513.059C365.578 512.781 365.13 512.643 364.565 512.643C364.042 512.643 363.626 512.755 363.317 512.979C363.007 513.203 362.853 513.496 362.853 513.859C362.853 514.147 362.943 514.387 363.125 514.579C363.317 514.76 363.551 514.909 363.829 515.027C364.117 515.133 364.511 515.256 365.013 515.395C365.642 515.565 366.154 515.736 366.549 515.907C366.943 516.067 367.279 516.312 367.557 516.643C367.845 516.973 367.994 517.405 368.005 517.939C368.005 518.419 367.871 518.851 367.605 519.235C367.338 519.619 366.959 519.923 366.469 520.147C365.989 520.36 365.434 520.467 364.805 520.467ZM370.812 510.131C370.535 510.131 370.3 510.035 370.108 509.843C369.916 509.651 369.82 509.416 369.82 509.139C369.82 508.861 369.916 508.627 370.108 508.435C370.3 508.243 370.535 508.147 370.812 508.147C371.079 508.147 371.303 508.243 371.484 508.435C371.676 508.627 371.772 508.861 371.772 509.139C371.772 509.416 371.676 509.651 371.484 509.843C371.303 510.035 371.079 510.131 370.812 510.131ZM371.516 511.555V520.323H370.06V511.555H371.516ZM377.822 520.467C377 520.467 376.254 520.28 375.582 519.907C374.92 519.533 374.398 519.005 374.014 518.323C373.64 517.629 373.454 516.829 373.454 515.923C373.454 515.027 373.646 514.237 374.03 513.555C374.424 512.861 374.958 512.333 375.63 511.971C376.302 511.597 377.054 511.411 377.886 511.411C378.718 511.411 379.47 511.597 380.142 511.971C380.814 512.333 381.342 512.856 381.726 513.539C382.12 514.221 382.318 515.016 382.318 515.923C382.318 516.829 382.115 517.629 381.71 518.323C381.315 519.005 380.776 519.533 380.094 519.907C379.411 520.28 378.654 520.467 377.822 520.467ZM377.822 519.187C378.344 519.187 378.835 519.064 379.294 518.819C379.752 518.573 380.12 518.205 380.398 517.715C380.686 517.224 380.83 516.627 380.83 515.923C380.83 515.219 380.691 514.621 380.414 514.131C380.136 513.64 379.774 513.277 379.326 513.043C378.878 512.797 378.392 512.675 377.87 512.675C377.336 512.675 376.846 512.797 376.398 513.043C375.96 513.277 375.608 513.64 375.342 514.131C375.075 514.621 374.942 515.219 374.942 515.923C374.942 516.637 375.07 517.24 375.326 517.731C375.592 518.221 375.944 518.589 376.382 518.835C376.819 519.069 377.299 519.187 377.822 519.187ZM388.504 511.395C389.571 511.395 390.435 511.72 391.096 512.371C391.757 513.011 392.088 513.939 392.088 515.155V520.323H390.648V515.363C390.648 514.488 390.429 513.821 389.992 513.363C389.555 512.893 388.957 512.659 388.2 512.659C387.432 512.659 386.819 512.899 386.36 513.379C385.912 513.859 385.688 514.557 385.688 515.475V520.323H384.232V511.555H385.688V512.803C385.976 512.355 386.365 512.008 386.856 511.763C387.357 511.517 387.907 511.395 388.504 511.395ZM397.57 520.467C396.898 520.467 396.296 520.355 395.762 520.131C395.229 519.896 394.808 519.576 394.498 519.171C394.189 518.755 394.018 518.28 393.986 517.747H395.49C395.533 518.184 395.736 518.541 396.098 518.819C396.472 519.096 396.957 519.235 397.554 519.235C398.109 519.235 398.546 519.112 398.866 518.867C399.186 518.621 399.346 518.312 399.346 517.939C399.346 517.555 399.176 517.272 398.834 517.091C398.493 516.899 397.965 516.712 397.25 516.531C396.6 516.36 396.066 516.189 395.65 516.019C395.245 515.837 394.893 515.576 394.594 515.235C394.306 514.883 394.162 514.424 394.162 513.859C394.162 513.411 394.296 513 394.562 512.627C394.829 512.253 395.208 511.96 395.698 511.747C396.189 511.523 396.749 511.411 397.378 511.411C398.349 511.411 399.133 511.656 399.73 512.147C400.328 512.637 400.648 513.309 400.69 514.163H399.234C399.202 513.704 399.016 513.336 398.674 513.059C398.344 512.781 397.896 512.643 397.33 512.643C396.808 512.643 396.392 512.755 396.082 512.979C395.773 513.203 395.618 513.496 395.618 513.859C395.618 514.147 395.709 514.387 395.89 514.579C396.082 514.76 396.317 514.909 396.594 515.027C396.882 515.133 397.277 515.256 397.778 515.395C398.408 515.565 398.92 515.736 399.314 515.907C399.709 516.067 400.045 516.312 400.322 516.643C400.61 516.973 400.76 517.405 400.77 517.939C400.77 518.419 400.637 518.851 400.37 519.235C400.104 519.619 399.725 519.923 399.234 520.147C398.754 520.36 398.2 520.467 397.57 520.467Z" fill="white"/>
<path d="M552.704 509.171C553.92 509.171 554.971 509.4 555.856 509.859C556.752 510.307 557.435 510.952 557.904 511.795C558.384 512.637 558.624 513.629 558.624 514.771C558.624 515.912 558.384 516.904 557.904 517.747C557.435 518.579 556.752 519.219 555.856 519.667C554.971 520.104 553.92 520.323 552.704 520.323H549.232V509.171H552.704ZM552.704 519.123C554.144 519.123 555.243 518.744 556 517.987C556.757 517.219 557.136 516.147 557.136 514.771C557.136 513.384 556.752 512.301 555.984 511.523C555.227 510.744 554.133 510.355 552.704 510.355H550.688V519.123H552.704ZM568.545 515.603C568.545 515.88 568.529 516.173 568.497 516.483H561.489C561.542 517.347 561.835 518.024 562.369 518.515C562.913 518.995 563.569 519.235 564.337 519.235C564.966 519.235 565.489 519.091 565.905 518.803C566.331 518.504 566.63 518.109 566.801 517.619H568.369C568.134 518.461 567.665 519.149 566.961 519.683C566.257 520.205 565.382 520.467 564.337 520.467C563.505 520.467 562.758 520.28 562.097 519.907C561.446 519.533 560.934 519.005 560.561 518.323C560.187 517.629 560.001 516.829 560.001 515.923C560.001 515.016 560.182 514.221 560.545 513.539C560.907 512.856 561.414 512.333 562.065 511.971C562.726 511.597 563.483 511.411 564.337 511.411C565.169 511.411 565.905 511.592 566.545 511.955C567.185 512.317 567.675 512.819 568.017 513.459C568.369 514.088 568.545 514.803 568.545 515.603ZM567.041 515.299C567.041 514.744 566.918 514.269 566.673 513.875C566.427 513.469 566.091 513.165 565.665 512.963C565.249 512.749 564.785 512.643 564.273 512.643C563.537 512.643 562.907 512.877 562.385 513.347C561.873 513.816 561.579 514.467 561.505 515.299H567.041ZM578.466 515.603C578.466 515.88 578.45 516.173 578.418 516.483H571.41C571.464 517.347 571.757 518.024 572.29 518.515C572.834 518.995 573.49 519.235 574.258 519.235C574.888 519.235 575.41 519.091 575.826 518.803C576.253 518.504 576.552 518.109 576.722 517.619H578.29C578.056 518.461 577.586 519.149 576.882 519.683C576.178 520.205 575.304 520.467 574.258 520.467C573.426 520.467 572.68 520.28 572.018 519.907C571.368 519.533 570.856 519.005 570.482 518.323C570.109 517.629 569.922 516.829 569.922 515.923C569.922 515.016 570.104 514.221 570.466 513.539C570.829 512.856 571.336 512.333 571.986 511.971C572.648 511.597 573.405 511.411 574.258 511.411C575.09 511.411 575.826 511.592 576.466 511.955C577.106 512.317 577.597 512.819 577.938 513.459C578.29 514.088 578.466 514.803 578.466 515.603ZM576.962 515.299C576.962 514.744 576.84 514.269 576.594 513.875C576.349 513.469 576.013 513.165 575.586 512.963C575.17 512.749 574.706 512.643 574.194 512.643C573.458 512.643 572.829 512.877 572.306 513.347C571.794 513.816 571.501 514.467 571.426 515.299H576.962ZM581.844 513.171C582.132 512.669 582.559 512.253 583.124 511.923C583.7 511.581 584.367 511.411 585.124 511.411C585.903 511.411 586.607 511.597 587.236 511.971C587.876 512.344 588.378 512.872 588.74 513.555C589.103 514.227 589.284 515.011 589.284 515.907C589.284 516.792 589.103 517.581 588.74 518.275C588.378 518.968 587.876 519.507 587.236 519.891C586.607 520.275 585.903 520.467 585.124 520.467C584.378 520.467 583.716 520.301 583.14 519.971C582.575 519.629 582.143 519.208 581.844 518.707V524.483H580.388V511.555H581.844V513.171ZM587.796 515.907C587.796 515.245 587.663 514.669 587.396 514.179C587.13 513.688 586.767 513.315 586.308 513.059C585.86 512.803 585.364 512.675 584.82 512.675C584.287 512.675 583.791 512.808 583.332 513.075C582.884 513.331 582.522 513.709 582.244 514.211C581.978 514.701 581.844 515.272 581.844 515.923C581.844 516.584 581.978 517.165 582.244 517.667C582.522 518.157 582.884 518.536 583.332 518.803C583.791 519.059 584.287 519.187 584.82 519.187C585.364 519.187 585.86 519.059 586.308 518.803C586.767 518.536 587.13 518.157 587.396 517.667C587.663 517.165 587.796 516.579 587.796 515.907ZM596.922 519.139H600.826V520.323H595.466V509.171H596.922V519.139ZM603.125 510.131C602.847 510.131 602.613 510.035 602.421 509.843C602.229 509.651 602.133 509.416 602.133 509.139C602.133 508.861 602.229 508.627 602.421 508.435C602.613 508.243 602.847 508.147 603.125 508.147C603.391 508.147 603.615 508.243 603.797 508.435C603.989 508.627 604.085 508.861 604.085 509.139C604.085 509.416 603.989 509.651 603.797 509.843C603.615 510.035 603.391 510.131 603.125 510.131ZM603.829 511.555V520.323H602.373V511.555H603.829ZM605.766 515.907C605.766 515.011 605.947 514.227 606.31 513.555C606.673 512.872 607.169 512.344 607.798 511.971C608.438 511.597 609.153 511.411 609.942 511.411C610.699 511.411 611.361 511.581 611.926 511.923C612.502 512.253 612.923 512.664 613.19 513.155V511.555H614.662V524.483H613.19V518.707C612.913 519.197 612.486 519.613 611.91 519.955C611.334 520.296 610.662 520.467 609.894 520.467C609.126 520.467 608.427 520.275 607.798 519.891C607.169 519.507 606.673 518.968 606.31 518.275C605.947 517.581 605.766 516.792 605.766 515.907ZM613.19 515.923C613.19 515.261 613.057 514.685 612.79 514.195C612.523 513.704 612.161 513.331 611.702 513.075C611.254 512.808 610.758 512.675 610.214 512.675C609.67 512.675 609.174 512.803 608.726 513.059C608.278 513.315 607.921 513.688 607.654 514.179C607.387 514.669 607.254 515.245 607.254 515.907C607.254 516.579 607.387 517.165 607.654 517.667C607.921 518.157 608.278 518.536 608.726 518.803C609.174 519.059 609.67 519.187 610.214 519.187C610.758 519.187 611.254 519.059 611.702 518.803C612.161 518.536 612.523 518.157 612.79 517.667C613.057 517.165 613.19 516.584 613.19 515.923ZM624.899 511.555V520.323H623.443V519.027C623.165 519.475 622.776 519.827 622.275 520.083C621.784 520.328 621.24 520.451 620.643 520.451C619.96 520.451 619.347 520.312 618.803 520.035C618.259 519.747 617.827 519.32 617.507 518.755C617.197 518.189 617.043 517.501 617.043 516.691V511.555H618.483V516.499C618.483 517.363 618.701 518.029 619.139 518.499C619.576 518.957 620.173 519.187 620.931 519.187C621.709 519.187 622.323 518.947 622.771 518.467C623.219 517.987 623.443 517.288 623.443 516.371V511.555H624.899ZM628.109 510.131C627.832 510.131 627.597 510.035 627.405 509.843C627.213 509.651 627.117 509.416 627.117 509.139C627.117 508.861 627.213 508.627 627.405 508.435C627.597 508.243 627.832 508.147 628.109 508.147C628.376 508.147 628.6 508.243 628.781 508.435C628.973 508.627 629.069 508.861 629.069 509.139C629.069 509.416 628.973 509.651 628.781 509.843C628.6 510.035 628.376 510.131 628.109 510.131ZM628.813 511.555V520.323H627.357V511.555H628.813ZM630.751 515.907C630.751 515.011 630.932 514.227 631.295 513.555C631.657 512.872 632.153 512.344 632.783 511.971C633.423 511.597 634.137 511.411 634.927 511.411C635.609 511.411 636.244 511.571 636.831 511.891C637.417 512.2 637.865 512.611 638.175 513.123V508.483H639.647V520.323H638.175V518.675C637.887 519.197 637.46 519.629 636.895 519.971C636.329 520.301 635.668 520.467 634.911 520.467C634.132 520.467 633.423 520.275 632.783 519.891C632.153 519.507 631.657 518.968 631.295 518.275C630.932 517.581 630.751 516.792 630.751 515.907ZM638.175 515.923C638.175 515.261 638.041 514.685 637.775 514.195C637.508 513.704 637.145 513.331 636.687 513.075C636.239 512.808 635.743 512.675 635.199 512.675C634.655 512.675 634.159 512.803 633.711 513.059C633.263 513.315 632.905 513.688 632.639 514.179C632.372 514.669 632.239 515.245 632.239 515.907C632.239 516.579 632.372 517.165 632.639 517.667C632.905 518.157 633.263 518.536 633.711 518.803C634.159 519.059 634.655 519.187 635.199 519.187C635.743 519.187 636.239 519.059 636.687 518.803C637.145 518.536 637.508 518.157 637.775 517.667C638.041 517.165 638.175 516.584 638.175 515.923ZM642.859 510.131C642.582 510.131 642.347 510.035 642.155 509.843C641.963 509.651 641.867 509.416 641.867 509.139C641.867 508.861 641.963 508.627 642.155 508.435C642.347 508.243 642.582 508.147 642.859 508.147C643.126 508.147 643.35 508.243 643.531 508.435C643.723 508.627 643.819 508.861 643.819 509.139C643.819 509.416 643.723 509.651 643.531 509.843C643.35 510.035 643.126 510.131 642.859 510.131ZM643.563 511.555V520.323H642.107V511.555H643.563ZM647.821 512.755V517.923C647.821 518.349 647.911 518.653 648.093 518.835C648.274 519.005 648.589 519.091 649.036 519.091H650.109V520.323H648.797C647.986 520.323 647.378 520.136 646.973 519.763C646.567 519.389 646.365 518.776 646.365 517.923V512.755H645.229V511.555H646.365V509.347H647.821V511.555H650.109V512.755H647.821ZM659.425 511.555L654.145 524.451H652.641L654.369 520.227L650.833 511.555H652.449L655.201 518.659L657.921 511.555H659.425Z" fill="white"/>
<path fill-rule="evenodd" clip-rule="evenodd" d="M135.687 305.526L150.232 304.253L151.505 318.799L147.869 319.117L146.914 308.208L136.005 309.162L135.687 305.526Z" fill="white"/>
<path fill-rule="evenodd" clip-rule="evenodd" d="M171.5 261.001L186.046 259.729L187.319 274.274L183.682 274.593L182.728 263.683L171.819 264.638L171.5 261.001Z" fill="white" fill-opacity="0.2"/>
<path fill-rule="evenodd" clip-rule="evenodd" d="M205.378 217.444L219.924 216.172L221.196 230.717L217.56 231.035L216.605 220.126L205.696 221.081L205.378 217.444Z" fill="white" fill-opacity="0.2"/>
<path fill-rule="evenodd" clip-rule="evenodd" d="M239.256 173.887L253.801 172.614L255.074 187.16L251.438 187.478L250.483 176.569L239.574 177.523L239.256 173.887Z" fill="white" fill-opacity="0.2"/>
<path d="M141.205 364.814L304.301 159.612" stroke="url(#paint4_linear_1911_6782)" stroke-width="1.01685" stroke-dasharray="10.17 10.17"/>
<path d="M91.356 333.356L263.648 118.958" stroke="url(#paint5_linear_1911_6782)" stroke-width="1.01685" stroke-dasharray="10.17 10.17"/>
<path fill-rule="evenodd" clip-rule="evenodd" d="M560.997 305.526L546.452 304.253L545.179 318.799L548.816 319.117L549.77 308.208L560.679 309.162L560.997 305.526Z" fill="white"/>
<path fill-rule="evenodd" clip-rule="evenodd" d="M525.184 261.001L510.638 259.729L509.366 274.274L513.002 274.593L513.957 263.683L524.866 264.638L525.184 261.001Z" fill="white" fill-opacity="0.2"/>
<path fill-rule="evenodd" clip-rule="evenodd" d="M491.306 217.444L476.761 216.172L475.488 230.717L479.124 231.035L480.079 220.126L490.988 221.081L491.306 217.444Z" fill="white" fill-opacity="0.2"/>
<path fill-rule="evenodd" clip-rule="evenodd" d="M457.429 173.887L442.883 172.614L441.61 187.16L445.247 187.478L446.201 176.569L457.11 177.523L457.429 173.887Z" fill="white" fill-opacity="0.2"/>
<path d="M555.479 364.814L392.383 159.612" stroke="url(#paint6_linear_1911_6782)" stroke-width="1.01685" stroke-dasharray="10.17 10.17"/>
<path d="M605.328 333.356L433.036 118.958" stroke="url(#paint7_linear_1911_6782)" stroke-width="1.01685" stroke-dasharray="10.17 10.17"/>
<g filter="url(#filter4_b_1911_6782)">
<circle cx="342.535" cy="118.474" r="72.111" fill="url(#paint8_linear_1911_6782)" fill-opacity="0.5"/>
<circle cx="342.535" cy="118.474" r="71.6026" stroke="url(#paint9_linear_1911_6782)" stroke-width="1.01685"/>
</g>
<path d="M324.696 98.518C330.774 102.149 339.636 107.124 339.636 107.124L338.004 102.357C338.004 102.357 321.449 94.3432 319.177 90.9841C319.193 91.0001 318.633 94.8711 324.696 98.518Z" fill="url(#paint10_linear_1911_6782)"/>
<path d="M355.552 102.149L344.723 108.707L342.163 115.041L339.636 108.819L328.807 102.261C328.807 102.261 315.819 94.4709 314.843 91.4318C314.843 91.4318 315.067 97.3821 319.93 100.741C324.792 104.1 337.573 111.234 337.573 111.234L342.115 123.071V123.247L342.147 123.167L342.227 123.359V122.975L346.77 111.138C346.77 111.138 359.535 103.988 364.413 100.645C369.292 97.3022 369.5 91.3358 369.5 91.3358C368.54 94.359 355.552 102.149 355.552 102.149Z" fill="url(#paint11_linear_1911_6782)"/>
<path d="M359.679 98.4061C365.757 94.7751 365.197 90.8882 365.197 90.8882C362.926 94.2473 346.354 102.261 346.354 102.261L344.739 107.028C344.739 107.012 353.616 102.037 359.679 98.4061Z" fill="url(#paint12_linear_1911_6782)"/>
<path d="M345.379 102.357L342.132 96.3746L338.885 102.357L342.132 113.282L345.379 102.357Z" fill="url(#paint13_linear_1911_6782)"/>
<path d="M337.381 112.85L324.488 105.172C324.488 105.172 324.28 112.962 337.381 112.85Z" fill="url(#paint14_linear_1911_6782)"/>
<path d="M346.898 112.85C359.998 112.962 359.79 105.172 359.79 105.172L346.898 112.85Z" fill="url(#paint15_linear_1911_6782)"/>
<path d="M294.667 142.613L297.387 135.189H298.939L295.499 143.957H293.803L290.363 135.189H291.931L294.667 142.613ZM308.372 139.237C308.372 139.514 308.356 139.807 308.324 140.117H301.316C301.369 140.981 301.663 141.658 302.196 142.149C302.74 142.629 303.396 142.869 304.164 142.869C304.793 142.869 305.316 142.725 305.732 142.437C306.159 142.138 306.457 141.743 306.628 141.253H308.196C307.961 142.095 307.492 142.783 306.788 143.317C306.084 143.839 305.209 144.101 304.164 144.101C303.332 144.101 302.585 143.914 301.924 143.541C301.273 143.167 300.761 142.639 300.388 141.957C300.015 141.263 299.828 140.463 299.828 139.557C299.828 138.65 300.009 137.855 300.372 137.173C300.735 136.49 301.241 135.967 301.892 135.605C302.553 135.231 303.311 135.045 304.164 135.045C304.996 135.045 305.732 135.226 306.372 135.589C307.012 135.951 307.503 136.453 307.844 137.093C308.196 137.722 308.372 138.437 308.372 139.237ZM306.868 138.933C306.868 138.378 306.745 137.903 306.5 137.509C306.255 137.103 305.919 136.799 305.492 136.597C305.076 136.383 304.612 136.277 304.1 136.277C303.364 136.277 302.735 136.511 302.212 136.981C301.7 137.45 301.407 138.101 301.332 138.933H306.868ZM316.598 132.805V133.989H311.75V137.749H315.686V138.933H311.75V143.957H310.294V132.805H316.598ZM327.125 143.957H325.669L319.813 135.077V143.957H318.357V132.789H319.813L325.669 141.653V132.789H327.125V143.957ZM334.167 138.389L337.591 143.957H335.943L333.271 139.605L330.727 143.957H329.111L332.519 138.389L329.095 132.805H330.727L333.415 137.173L335.975 132.805H337.607L334.167 138.389ZM353.026 132.805L348.818 143.957H347.138L342.93 132.805H344.482L347.986 142.421L351.49 132.805H353.026ZM358.446 144.101C357.625 144.101 356.878 143.914 356.206 143.541C355.545 143.167 355.022 142.639 354.638 141.957C354.265 141.263 354.078 140.463 354.078 139.557C354.078 138.661 354.27 137.871 354.654 137.189C355.049 136.495 355.582 135.967 356.254 135.605C356.926 135.231 357.678 135.045 358.51 135.045C359.342 135.045 360.094 135.231 360.766 135.605C361.438 135.967 361.966 136.49 362.35 137.173C362.745 137.855 362.942 138.65 362.942 139.557C362.942 140.463 362.739 141.263 362.334 141.957C361.939 142.639 361.401 143.167 360.718 143.541C360.035 143.914 359.278 144.101 358.446 144.101ZM358.446 142.821C358.969 142.821 359.459 142.698 359.918 142.453C360.377 142.207 360.745 141.839 361.022 141.349C361.31 140.858 361.454 140.261 361.454 139.557C361.454 138.853 361.315 138.255 361.038 137.765C360.761 137.274 360.398 136.911 359.95 136.677C359.502 136.431 359.017 136.309 358.494 136.309C357.961 136.309 357.47 136.431 357.022 136.677C356.585 136.911 356.233 137.274 355.966 137.765C355.699 138.255 355.566 138.853 355.566 139.557C355.566 140.271 355.694 140.874 355.95 141.365C356.217 141.855 356.569 142.223 357.006 142.469C357.443 142.703 357.923 142.821 358.446 142.821ZM366.633 136.389V141.557C366.633 141.983 366.723 142.287 366.905 142.469C367.086 142.639 367.401 142.725 367.849 142.725H368.921V143.957H367.609C366.798 143.957 366.19 143.77 365.785 143.397C365.379 143.023 365.177 142.41 365.177 141.557V136.389H364.041V135.189H365.177V132.981H366.633V135.189H368.921V136.389H366.633ZM378.685 139.237C378.685 139.514 378.669 139.807 378.637 140.117H371.629C371.682 140.981 371.975 141.658 372.509 142.149C373.053 142.629 373.709 142.869 374.477 142.869C375.106 142.869 375.629 142.725 376.045 142.437C376.471 142.138 376.77 141.743 376.941 141.253H378.509C378.274 142.095 377.805 142.783 377.101 143.317C376.397 143.839 375.522 144.101 374.477 144.101C373.645 144.101 372.898 143.914 372.237 143.541C371.586 143.167 371.074 142.639 370.701 141.957C370.327 141.263 370.141 140.463 370.141 139.557C370.141 138.65 370.322 137.855 370.685 137.173C371.047 136.49 371.554 135.967 372.205 135.605C372.866 135.231 373.623 135.045 374.477 135.045C375.309 135.045 376.045 135.226 376.685 135.589C377.325 135.951 377.815 136.453 378.157 137.093C378.509 137.722 378.685 138.437 378.685 139.237ZM377.181 138.933C377.181 138.378 377.058 137.903 376.813 137.509C376.567 137.103 376.231 136.799 375.805 136.597C375.389 136.383 374.925 136.277 374.413 136.277C373.677 136.277 373.047 136.511 372.525 136.981C372.013 137.45 371.719 138.101 371.645 138.933H377.181ZM382.063 136.613C382.319 136.111 382.681 135.722 383.151 135.445C383.631 135.167 384.212 135.029 384.895 135.029V136.533H384.511C382.879 136.533 382.063 137.418 382.063 139.189V143.957H380.607V135.189H382.063V136.613ZM389.679 144.101C389.007 144.101 388.405 143.989 387.871 143.765C387.338 143.53 386.917 143.21 386.607 142.805C386.298 142.389 386.127 141.914 386.095 141.381H387.599C387.642 141.818 387.845 142.175 388.207 142.453C388.581 142.73 389.066 142.869 389.663 142.869C390.218 142.869 390.655 142.746 390.975 142.501C391.295 142.255 391.455 141.946 391.455 141.573C391.455 141.189 391.285 140.906 390.943 140.725C390.602 140.533 390.074 140.346 389.359 140.165C388.709 139.994 388.175 139.823 387.759 139.653C387.354 139.471 387.002 139.21 386.703 138.869C386.415 138.517 386.271 138.058 386.271 137.493C386.271 137.045 386.405 136.634 386.671 136.261C386.938 135.887 387.317 135.594 387.807 135.381C388.298 135.157 388.858 135.045 389.487 135.045C390.458 135.045 391.242 135.29 391.839 135.781C392.437 136.271 392.757 136.943 392.799 137.797H391.343C391.311 137.338 391.125 136.97 390.783 136.693C390.453 136.415 390.005 136.277 389.439 136.277C388.917 136.277 388.501 136.389 388.191 136.613C387.882 136.837 387.727 137.13 387.727 137.493C387.727 137.781 387.818 138.021 387.999 138.213C388.191 138.394 388.426 138.543 388.703 138.661C388.991 138.767 389.386 138.89 389.887 139.029C390.517 139.199 391.029 139.37 391.423 139.541C391.818 139.701 392.154 139.946 392.431 140.277C392.719 140.607 392.869 141.039 392.879 141.573C392.879 142.053 392.746 142.485 392.479 142.869C392.213 143.253 391.834 143.557 391.343 143.781C390.863 143.994 390.309 144.101 389.679 144.101Z" fill="white"/>
<g filter="url(#filter5_b_1911_6782)">
<circle cx="72.111" cy="405.95" r="72.111" fill="url(#paint16_linear_1911_6782)" fill-opacity="0.5"/>
<circle cx="72.111" cy="405.95" r="71.6026" stroke="url(#paint17_linear_1911_6782)" stroke-width="1.01685"/>
</g>
<path d="M71.6287 402.736V411.07M81.6287 411.07L75.043 405.582C73.8284 404.57 73.2211 404.063 72.5431 403.87C71.9454 403.7 71.312 403.7 70.7143 403.87C70.0363 404.063 69.429 404.57 68.2144 405.582L61.6287 411.07M64.962 394.403V396.07M71.6287 391.07V396.07M78.2954 387.736V396.07M88.2954 381.07H54.962M56.6287 381.07H86.6287V394.736C86.6287 397.537 86.6287 398.937 86.0837 400.006C85.6044 400.947 84.8395 401.712 83.8987 402.192C82.8291 402.736 81.429 402.736 78.6287 402.736H64.6287C61.8284 402.736 60.4283 402.736 59.3588 402.192C58.4179 401.712 57.653 400.947 57.1737 400.006C56.6287 398.937 56.6287 397.537 56.6287 394.736V381.07Z" stroke="url(#paint18_linear_1911_6782)" stroke-width="2.28081" stroke-linecap="round" stroke-linejoin="round"/>
<path d="M52.2247 427.479V428.663H49.1847V438.631H47.7287V428.663H44.6727V427.479H52.2247ZM55.4729 431.287C55.7289 430.786 56.0916 430.397 56.5609 430.119C57.0409 429.842 57.6222 429.703 58.3049 429.703V431.207H57.9209C56.2889 431.207 55.4729 432.093 55.4729 433.863V438.631H54.0169V429.863H55.4729V431.287ZM59.4417 434.215C59.4417 433.319 59.623 432.535 59.9857 431.863C60.3483 431.181 60.8443 430.653 61.4737 430.279C62.1137 429.906 62.823 429.719 63.6017 429.719C64.3697 429.719 65.0363 429.885 65.6017 430.215C66.167 430.546 66.5883 430.962 66.8657 431.463V429.863H68.3377V438.631H66.8657V436.999C66.5777 437.511 66.1457 437.938 65.5697 438.279C65.0043 438.61 64.343 438.775 63.5857 438.775C62.807 438.775 62.103 438.583 61.4737 438.199C60.8443 437.815 60.3483 437.277 59.9857 436.583C59.623 435.89 59.4417 435.101 59.4417 434.215ZM66.8657 434.231C66.8657 433.57 66.7323 432.994 66.4657 432.503C66.199 432.013 65.8363 431.639 65.3777 431.383C64.9297 431.117 64.4337 430.983 63.8897 430.983C63.3457 430.983 62.8497 431.111 62.4017 431.367C61.9537 431.623 61.5963 431.997 61.3297 432.487C61.063 432.978 60.9297 433.554 60.9297 434.215C60.9297 434.887 61.063 435.474 61.3297 435.975C61.5963 436.466 61.9537 436.845 62.4017 437.111C62.8497 437.367 63.3457 437.495 63.8897 437.495C64.4337 437.495 64.9297 437.367 65.3777 437.111C65.8363 436.845 66.199 436.466 66.4657 435.975C66.7323 435.474 66.8657 434.893 66.8657 434.231ZM70.2542 434.215C70.2542 433.319 70.4355 432.535 70.7982 431.863C71.1608 431.181 71.6568 430.653 72.2862 430.279C72.9262 429.906 73.6408 429.719 74.4302 429.719C75.1128 429.719 75.7475 429.879 76.3342 430.199C76.9208 430.509 77.3688 430.919 77.6782 431.431V426.791H79.1502V438.631H77.6782V436.983C77.3902 437.506 76.9635 437.938 76.3982 438.279C75.8328 438.61 75.1715 438.775 74.4142 438.775C73.6355 438.775 72.9262 438.583 72.2862 438.199C71.6568 437.815 71.1608 437.277 70.7982 436.583C70.4355 435.89 70.2542 435.101 70.2542 434.215ZM77.6782 434.231C77.6782 433.57 77.5448 432.994 77.2782 432.503C77.0115 432.013 76.6488 431.639 76.1902 431.383C75.7422 431.117 75.2462 430.983 74.7022 430.983C74.1582 430.983 73.6622 431.111 73.2142 431.367C72.7662 431.623 72.4088 431.997 72.1422 432.487C71.8755 432.978 71.7422 433.554 71.7422 434.215C71.7422 434.887 71.8755 435.474 72.1422 435.975C72.4088 436.466 72.7662 436.845 73.2142 437.111C73.6622 437.367 74.1582 437.495 74.7022 437.495C75.2462 437.495 75.7422 437.367 76.1902 437.111C76.6488 436.845 77.0115 436.466 77.2782 435.975C77.5448 435.474 77.6782 434.893 77.6782 434.231ZM89.6107 433.911C89.6107 434.189 89.5947 434.482 89.5627 434.791H82.5547C82.608 435.655 82.9013 436.333 83.4347 436.823C83.9787 437.303 84.6347 437.543 85.4027 437.543C86.032 437.543 86.5547 437.399 86.9707 437.111C87.3973 436.813 87.696 436.418 87.8667 435.927H89.4347C89.2 436.77 88.7307 437.458 88.0267 437.991C87.3227 438.514 86.448 438.775 85.4027 438.775C84.5707 438.775 83.824 438.589 83.1627 438.215C82.512 437.842 82 437.314 81.6267 436.631C81.2533 435.938 81.0667 435.138 81.0667 434.231C81.0667 433.325 81.248 432.53 81.6107 431.847C81.9733 431.165 82.48 430.642 83.1307 430.279C83.792 429.906 84.5493 429.719 85.4027 429.719C86.2347 429.719 86.9707 429.901 87.6107 430.263C88.2507 430.626 88.7413 431.127 89.0827 431.767C89.4347 432.397 89.6107 433.111 89.6107 433.911ZM88.1067 433.607C88.1067 433.053 87.984 432.578 87.7387 432.183C87.4933 431.778 87.1573 431.474 86.7307 431.271C86.3147 431.058 85.8507 430.951 85.3387 430.951C84.6027 430.951 83.9733 431.186 83.4507 431.655C82.9387 432.125 82.6453 432.775 82.5707 433.607H88.1067ZM94.6365 438.775C93.9645 438.775 93.3619 438.663 92.8285 438.439C92.2952 438.205 91.8739 437.885 91.5645 437.479C91.2552 437.063 91.0845 436.589 91.0525 436.055H92.5565C92.5992 436.493 92.8019 436.85 93.1645 437.127C93.5379 437.405 94.0232 437.543 94.6205 437.543C95.1752 437.543 95.6125 437.421 95.9325 437.175C96.2525 436.93 96.4125 436.621 96.4125 436.247C96.4125 435.863 96.2419 435.581 95.9005 435.399C95.5592 435.207 95.0312 435.021 94.3165 434.839C93.6659 434.669 93.1325 434.498 92.7165 434.327C92.3112 434.146 91.9592 433.885 91.6605 433.543C91.3725 433.191 91.2285 432.733 91.2285 432.167C91.2285 431.719 91.3619 431.309 91.6285 430.935C91.8952 430.562 92.2739 430.269 92.7645 430.055C93.2552 429.831 93.8152 429.719 94.4445 429.719C95.4152 429.719 96.1992 429.965 96.7965 430.455C97.3939 430.946 97.7139 431.618 97.7565 432.471H96.3005C96.2685 432.013 96.0819 431.645 95.7405 431.367C95.4099 431.09 94.9619 430.951 94.3965 430.951C93.8739 430.951 93.4579 431.063 93.1485 431.287C92.8392 431.511 92.6845 431.805 92.6845 432.167C92.6845 432.455 92.7752 432.695 92.9565 432.887C93.1485 433.069 93.3832 433.218 93.6605 433.335C93.9485 433.442 94.3432 433.565 94.8445 433.703C95.4739 433.874 95.9859 434.045 96.3805 434.215C96.7752 434.375 97.1112 434.621 97.3885 434.951C97.6765 435.282 97.8259 435.714 97.8365 436.247C97.8365 436.727 97.7032 437.159 97.4365 437.543C97.1699 437.927 96.7912 438.231 96.3005 438.455C95.8205 438.669 95.2659 438.775 94.6365 438.775Z" fill="white"/>
<g filter="url(#filter6_b_1911_6782)">
<circle cx="342.535" cy="405.95" r="72.111" fill="url(#paint19_linear_1911_6782)" fill-opacity="0.5"/>
<circle cx="342.535" cy="405.95" r="71.6026" stroke="url(#paint20_linear_1911_6782)" stroke-width="1.01685"/>
</g>
<path d="M356.328 405.396V393.729M342.994 405.396V388.729M329.661 405.396L329.661 398.729M345.339 380.442L353.953 383.672M340.992 381.064L331.661 388.062M358.095 382.795C359.072 383.771 359.072 385.354 358.095 386.33C357.119 387.306 355.536 387.306 354.56 386.33C353.583 385.354 353.583 383.771 354.56 382.795C355.536 381.818 357.119 381.818 358.095 382.795ZM331.429 387.795C332.405 388.771 332.405 390.354 331.429 391.33C330.452 392.306 328.869 392.306 327.893 391.33C326.917 390.354 326.917 388.771 327.893 387.795C328.869 386.818 330.452 386.818 331.429 387.795ZM344.762 377.795C345.738 378.771 345.738 380.354 344.762 381.33C343.786 382.306 342.203 382.306 341.226 381.33C340.25 380.354 340.25 378.771 341.226 377.795C342.203 376.818 343.786 376.818 344.762 377.795Z" stroke="url(#paint21_linear_1911_6782)" stroke-width="2.49646" stroke-linecap="round" stroke-linejoin="round"/>
<path d="M333.182 433.871H337.086V435.055H331.726V423.903H333.182V433.871ZM346.088 427.167C346.088 428.095 345.768 428.869 345.128 429.487C344.499 430.095 343.534 430.399 342.232 430.399H340.088V435.055H338.632V423.903H342.232C343.491 423.903 344.446 424.207 345.096 424.815C345.758 425.423 346.088 426.207 346.088 427.167ZM342.232 429.199C343.043 429.199 343.64 429.023 344.024 428.671C344.408 428.319 344.6 427.818 344.6 427.167C344.6 425.791 343.811 425.103 342.232 425.103H340.088V429.199H342.232ZM351.002 435.199C350.33 435.199 349.727 435.087 349.194 434.863C348.661 434.629 348.239 434.309 347.93 433.903C347.621 433.487 347.45 433.013 347.418 432.479H348.922C348.965 432.917 349.167 433.274 349.53 433.551C349.903 433.829 350.389 433.967 350.986 433.967C351.541 433.967 351.978 433.845 352.298 433.599C352.618 433.354 352.778 433.045 352.778 432.671C352.778 432.287 352.607 432.005 352.266 431.823C351.925 431.631 351.397 431.445 350.682 431.263C350.031 431.093 349.498 430.922 349.082 430.751C348.677 430.57 348.325 430.309 348.026 429.967C347.738 429.615 347.594 429.157 347.594 428.591C347.594 428.143 347.727 427.733 347.994 427.359C348.261 426.986 348.639 426.693 349.13 426.479C349.621 426.255 350.181 426.143 350.81 426.143C351.781 426.143 352.565 426.389 353.162 426.879C353.759 427.37 354.079 428.042 354.122 428.895H352.666C352.634 428.437 352.447 428.069 352.106 427.791C351.775 427.514 351.327 427.375 350.762 427.375C350.239 427.375 349.823 427.487 349.514 427.711C349.205 427.935 349.05 428.229 349.05 428.591C349.05 428.879 349.141 429.119 349.322 429.311C349.514 429.493 349.749 429.642 350.026 429.759C350.314 429.866 350.709 429.989 351.21 430.127C351.839 430.298 352.351 430.469 352.746 430.639C353.141 430.799 353.477 431.045 353.754 431.375C354.042 431.706 354.191 432.138 354.202 432.671C354.202 433.151 354.069 433.583 353.802 433.967C353.535 434.351 353.157 434.655 352.666 434.879C352.186 435.093 351.631 435.199 351.002 435.199Z" fill="white"/>
<g filter="url(#filter7_b_1911_6782)">
<circle cx="603.876" cy="404.983" r="72.111" fill="url(#paint22_linear_1911_6782)" fill-opacity="0.5"/>
<circle cx="603.876" cy="404.983" r="71.6026" stroke="url(#paint23_linear_1911_6782)" stroke-width="1.01685"/>
</g>
<path d="M606.725 401.247L604.803 399.325L606.791 397.338L608.714 399.258C609.066 399.609 609.543 399.807 610.04 399.807C610.537 399.807 611.014 399.609 611.366 399.258L618.798 391.825C618.972 391.651 619.111 391.445 619.205 391.217C619.299 390.989 619.348 390.745 619.348 390.499C619.348 390.253 619.299 390.009 619.205 389.781C619.111 389.553 618.972 389.347 618.798 389.172L611.366 381.74C611.192 381.566 610.985 381.427 610.757 381.333C610.529 381.239 610.285 381.19 610.039 381.19C609.793 381.19 609.549 381.239 609.321 381.333C609.093 381.427 608.887 381.566 608.713 381.74L606.791 383.662L604.803 381.674L606.725 379.75C607.604 378.872 608.796 378.378 610.039 378.378C611.282 378.378 612.474 378.872 613.353 379.75L620.788 387.185C621.666 388.064 622.16 389.256 622.16 390.499C622.16 391.742 621.666 392.934 620.788 393.813L613.353 401.247C612.474 402.126 611.282 402.62 610.039 402.62C608.796 402.62 607.604 402.126 606.725 401.247ZM593.6 379.75L586.166 387.185C585.287 388.064 584.793 389.256 584.793 390.499C584.793 391.742 585.287 392.934 586.166 393.813L593.6 401.247C594.479 402.126 595.671 402.62 596.914 402.62C598.157 402.62 599.349 402.126 600.228 401.247L607.663 393.813C608.541 392.934 609.035 391.742 609.035 390.499C609.035 389.256 608.541 388.064 607.663 387.185L600.228 379.75C599.349 378.872 598.157 378.378 596.914 378.378C595.671 378.378 594.479 378.872 593.6 379.75ZM588.155 389.174L595.589 381.74C595.941 381.388 596.418 381.191 596.915 381.191C597.412 381.191 597.889 381.388 598.241 381.74L605.673 389.174C606.025 389.526 606.222 390.003 606.222 390.5C606.222 390.997 606.025 391.474 605.673 391.825L598.241 399.256C597.889 399.608 597.412 399.805 596.915 399.805C596.418 399.805 595.941 399.608 595.589 399.256L588.155 391.824C587.981 391.649 587.842 391.443 587.748 391.215C587.654 390.987 587.605 390.743 587.605 390.497C587.605 390.251 587.654 390.007 587.748 389.779C587.842 389.551 587.981 389.345 588.155 389.17" fill="url(#paint24_linear_1911_6782)"/>
<path d="M575.166 427.626C575.166 428.554 574.846 429.327 574.206 429.946C573.576 430.554 572.611 430.858 571.31 430.858H569.166V435.514H567.71V424.362H571.31C572.568 424.362 573.523 424.666 574.174 425.274C574.835 425.882 575.166 426.666 575.166 427.626ZM571.31 429.658C572.12 429.658 572.718 429.482 573.102 429.13C573.486 428.778 573.678 428.277 573.678 427.626C573.678 426.25 572.888 425.562 571.31 425.562H569.166V429.658H571.31ZM578.431 428.17C578.687 427.669 579.05 427.279 579.519 427.002C579.999 426.725 580.58 426.586 581.263 426.586V428.09H580.879C579.247 428.09 578.431 428.975 578.431 430.746V435.514H576.975V426.746H578.431V428.17ZM586.768 435.658C585.947 435.658 585.2 435.471 584.528 435.098C583.867 434.725 583.344 434.197 582.96 433.514C582.587 432.821 582.4 432.021 582.4 431.114C582.4 430.218 582.592 429.429 582.976 428.746C583.371 428.053 583.904 427.525 584.576 427.162C585.248 426.789 586 426.602 586.832 426.602C587.664 426.602 588.416 426.789 589.088 427.162C589.76 427.525 590.288 428.047 590.672 428.73C591.067 429.413 591.264 430.207 591.264 431.114C591.264 432.021 591.061 432.821 590.656 433.514C590.261 434.197 589.723 434.725 589.04 435.098C588.357 435.471 587.6 435.658 586.768 435.658ZM586.768 434.378C587.291 434.378 587.781 434.255 588.24 434.01C588.699 433.765 589.067 433.397 589.344 432.906C589.632 432.415 589.776 431.818 589.776 431.114C589.776 430.41 589.637 429.813 589.36 429.322C589.083 428.831 588.72 428.469 588.272 428.234C587.824 427.989 587.339 427.866 586.816 427.866C586.283 427.866 585.792 427.989 585.344 428.234C584.907 428.469 584.555 428.831 584.288 429.322C584.021 429.813 583.888 430.41 583.888 431.114C583.888 431.829 584.016 432.431 584.272 432.922C584.539 433.413 584.891 433.781 585.328 434.026C585.765 434.261 586.245 434.378 586.768 434.378ZM594.954 427.946V433.114C594.954 433.541 595.045 433.845 595.226 434.026C595.408 434.197 595.722 434.282 596.17 434.282H597.242V435.514H595.93C595.12 435.514 594.512 435.327 594.106 434.954C593.701 434.581 593.498 433.967 593.498 433.114V427.946H592.362V426.746H593.498V424.538H594.954V426.746H597.242V427.946H594.954ZM602.83 435.658C602.009 435.658 601.262 435.471 600.59 435.098C599.929 434.725 599.406 434.197 599.022 433.514C598.649 432.821 598.462 432.021 598.462 431.114C598.462 430.218 598.654 429.429 599.038 428.746C599.433 428.053 599.966 427.525 600.638 427.162C601.31 426.789 602.062 426.602 602.894 426.602C603.726 426.602 604.478 426.789 605.15 427.162C605.822 427.525 606.35 428.047 606.734 428.73C607.129 429.413 607.326 430.207 607.326 431.114C607.326 432.021 607.124 432.821 606.718 433.514C606.324 434.197 605.785 434.725 605.102 435.098C604.42 435.471 603.662 435.658 602.83 435.658ZM602.83 434.378C603.353 434.378 603.844 434.255 604.302 434.01C604.761 433.765 605.129 433.397 605.406 432.906C605.694 432.415 605.838 431.818 605.838 431.114C605.838 430.41 605.7 429.813 605.422 429.322C605.145 428.831 604.782 428.469 604.334 428.234C603.886 427.989 603.401 427.866 602.878 427.866C602.345 427.866 601.854 427.989 601.406 428.234C600.969 428.469 600.617 428.831 600.35 429.322C600.084 429.813 599.95 430.41 599.95 431.114C599.95 431.829 600.078 432.431 600.334 432.922C600.601 433.413 600.953 433.781 601.39 434.026C601.828 434.261 602.308 434.378 602.83 434.378ZM608.697 431.114C608.697 430.207 608.878 429.418 609.241 428.746C609.603 428.063 610.105 427.535 610.745 427.162C611.395 426.789 612.137 426.602 612.969 426.602C614.046 426.602 614.931 426.863 615.625 427.386C616.329 427.909 616.793 428.634 617.017 429.562H615.449C615.299 429.029 615.006 428.607 614.569 428.298C614.142 427.989 613.609 427.834 612.969 427.834C612.137 427.834 611.465 428.122 610.953 428.698C610.441 429.263 610.185 430.069 610.185 431.114C610.185 432.17 610.441 432.986 610.953 433.562C611.465 434.138 612.137 434.426 612.969 434.426C613.609 434.426 614.142 434.277 614.569 433.978C614.995 433.679 615.289 433.253 615.449 432.698H617.017C616.782 433.594 616.313 434.314 615.609 434.858C614.905 435.391 614.025 435.658 612.969 435.658C612.137 435.658 611.395 435.471 610.745 435.098C610.105 434.725 609.603 434.197 609.241 433.514C608.878 432.831 608.697 432.031 608.697 431.114ZM622.784 435.658C621.962 435.658 621.216 435.471 620.544 435.098C619.882 434.725 619.36 434.197 618.976 433.514C618.602 432.821 618.416 432.021 618.416 431.114C618.416 430.218 618.608 429.429 618.992 428.746C619.386 428.053 619.92 427.525 620.592 427.162C621.264 426.789 622.016 426.602 622.848 426.602C623.68 426.602 624.432 426.789 625.104 427.162C625.776 427.525 626.304 428.047 626.688 428.73C627.082 429.413 627.28 430.207 627.28 431.114C627.28 432.021 627.077 432.821 626.672 433.514C626.277 434.197 625.738 434.725 625.056 435.098C624.373 435.471 623.616 435.658 622.784 435.658ZM622.784 434.378C623.306 434.378 623.797 434.255 624.256 434.01C624.714 433.765 625.082 433.397 625.36 432.906C625.648 432.415 625.792 431.818 625.792 431.114C625.792 430.41 625.653 429.813 625.376 429.322C625.098 428.831 624.736 428.469 624.288 428.234C623.84 427.989 623.354 427.866 622.832 427.866C622.298 427.866 621.808 427.989 621.36 428.234C620.922 428.469 620.57 428.831 620.304 429.322C620.037 429.813 619.904 430.41 619.904 431.114C619.904 431.829 620.032 432.431 620.288 432.922C620.554 433.413 620.906 433.781 621.344 434.026C621.781 434.261 622.261 434.378 622.784 434.378ZM630.65 423.674V435.514H629.194V423.674H630.65ZM636.235 435.658C635.563 435.658 634.961 435.546 634.427 435.322C633.894 435.087 633.473 434.767 633.163 434.362C632.854 433.946 632.683 433.471 632.651 432.938H634.155C634.198 433.375 634.401 433.733 634.763 434.01C635.137 434.287 635.622 434.426 636.219 434.426C636.774 434.426 637.211 434.303 637.531 434.058C637.851 433.813 638.011 433.503 638.011 433.13C638.011 432.746 637.841 432.463 637.499 432.282C637.158 432.09 636.63 431.903 635.915 431.722C635.265 431.551 634.731 431.381 634.315 431.21C633.91 431.029 633.558 430.767 633.259 430.426C632.971 430.074 632.827 429.615 632.827 429.05C632.827 428.602 632.961 428.191 633.227 427.818C633.494 427.445 633.873 427.151 634.363 426.938C634.854 426.714 635.414 426.602 636.043 426.602C637.014 426.602 637.798 426.847 638.395 427.338C638.993 427.829 639.313 428.501 639.355 429.354H637.899C637.867 428.895 637.681 428.527 637.339 428.25C637.009 427.973 636.561 427.834 635.995 427.834C635.473 427.834 635.057 427.946 634.747 428.17C634.438 428.394 634.283 428.687 634.283 429.05C634.283 429.338 634.374 429.578 634.555 429.77C634.747 429.951 634.982 430.101 635.259 430.218C635.547 430.325 635.942 430.447 636.443 430.586C637.073 430.757 637.585 430.927 637.979 431.098C638.374 431.258 638.71 431.503 638.987 431.834C639.275 432.165 639.425 432.597 639.435 433.13C639.435 433.61 639.302 434.042 639.035 434.426C638.769 434.81 638.39 435.114 637.899 435.338C637.419 435.551 636.865 435.658 636.235 435.658Z" fill="white"/>
<path fill-rule="evenodd" clip-rule="evenodd" d="M355.521 214.629L345.209 224.941L334.897 214.629L337.475 212.051L345.209 219.785L352.943 212.051L355.521 214.629Z" fill="white"/>
<path fill-rule="evenodd" clip-rule="evenodd" d="M355.521 257.167L345.209 267.479L334.897 257.167L337.475 254.589L345.209 262.323L352.943 254.589L355.521 257.167Z" fill="white" fill-opacity="0.2"/>
<path fill-rule="evenodd" clip-rule="evenodd" d="M355.521 299.704L345.209 310.017L334.897 299.704L337.475 297.126L345.209 304.861L352.943 297.126L355.521 299.704Z" fill="white" fill-opacity="0.2"/>
<path d="M312.339 190.943V329.19" stroke="url(#paint25_linear_1911_6782)" stroke-width="1.01685" stroke-dasharray="10.17 10.17"/>
<path d="M377.595 190.943V329.19" stroke="url(#paint26_linear_1911_6782)" stroke-width="1.01685" stroke-dasharray="10.17 10.17"/>
<path d="M274.608 8.26V6.932H277.616V18.5H276.144V8.26H274.608ZM280.117 12.596C280.117 10.7613 280.416 9.332 281.013 8.308C281.61 7.27333 282.656 6.756 284.149 6.756C285.632 6.756 286.672 7.27333 287.269 8.308C287.866 9.332 288.165 10.7613 288.165 12.596C288.165 14.4627 287.866 15.9133 287.269 16.948C286.672 17.9827 285.632 18.5 284.149 18.5C282.656 18.5 281.61 17.9827 281.013 16.948C280.416 15.9133 280.117 14.4627 280.117 12.596ZM286.725 12.596C286.725 11.668 286.661 10.884 286.533 10.244C286.416 9.59333 286.165 9.07067 285.781 8.676C285.408 8.28133 284.864 8.084 284.149 8.084C283.424 8.084 282.869 8.28133 282.485 8.676C282.112 9.07067 281.861 9.59333 281.733 10.244C281.616 10.884 281.557 11.668 281.557 12.596C281.557 13.556 281.616 14.3613 281.733 15.012C281.861 15.6627 282.112 16.1853 282.485 16.58C282.869 16.9747 283.424 17.172 284.149 17.172C284.864 17.172 285.408 16.9747 285.781 16.58C286.165 16.1853 286.416 15.6627 286.533 15.012C286.661 14.3613 286.725 13.556 286.725 12.596ZM290.164 12.596C290.164 10.7613 290.463 9.332 291.06 8.308C291.657 7.27333 292.703 6.756 294.196 6.756C295.679 6.756 296.719 7.27333 297.316 8.308C297.913 9.332 298.212 10.7613 298.212 12.596C298.212 14.4627 297.913 15.9133 297.316 16.948C296.719 17.9827 295.679 18.5 294.196 18.5C292.703 18.5 291.657 17.9827 291.06 16.948C290.463 15.9133 290.164 14.4627 290.164 12.596ZM296.772 12.596C296.772 11.668 296.708 10.884 296.58 10.244C296.463 9.59333 296.212 9.07067 295.828 8.676C295.455 8.28133 294.911 8.084 294.196 8.084C293.471 8.084 292.916 8.28133 292.532 8.676C292.159 9.07067 291.908 9.59333 291.78 10.244C291.663 10.884 291.604 11.668 291.604 12.596C291.604 13.556 291.663 14.3613 291.78 15.012C291.908 15.6627 292.159 16.1853 292.532 16.58C292.916 16.9747 293.471 17.172 294.196 17.172C294.911 17.172 295.455 16.9747 295.828 16.58C296.212 16.1853 296.463 15.6627 296.58 15.012C296.708 14.3613 296.772 13.556 296.772 12.596ZM299.891 9.54C299.891 8.81467 300.109 8.23867 300.547 7.812C300.984 7.37467 301.544 7.156 302.227 7.156C302.909 7.156 303.469 7.37467 303.907 7.812C304.344 8.23867 304.563 8.81467 304.563 9.54C304.563 10.276 304.344 10.8627 303.907 11.3C303.469 11.7267 302.909 11.94 302.227 11.94C301.544 11.94 300.984 11.7267 300.547 11.3C300.109 10.8627 299.891 10.276 299.891 9.54ZM309.235 7.332L302.755 18.5H301.315L307.795 7.332H309.235ZM302.227 8.052C301.864 8.052 301.576 8.18 301.363 8.436C301.16 8.68133 301.059 9.04933 301.059 9.54C301.059 10.0307 301.16 10.404 301.363 10.66C301.576 10.916 301.864 11.044 302.227 11.044C302.589 11.044 302.877 10.916 303.091 10.66C303.304 10.3933 303.411 10.02 303.411 9.54C303.411 9.04933 303.304 8.68133 303.091 8.436C302.877 8.18 302.589 8.052 302.227 8.052ZM306.019 16.292C306.019 15.556 306.237 14.9747 306.675 14.548C307.112 14.1107 307.672 13.892 308.355 13.892C309.037 13.892 309.592 14.1107 310.019 14.548C310.456 14.9747 310.675 15.556 310.675 16.292C310.675 17.0173 310.456 17.5987 310.019 18.036C309.592 18.4733 309.037 18.692 308.355 18.692C307.672 18.692 307.112 18.4787 306.675 18.052C306.237 17.6147 306.019 17.028 306.019 16.292ZM308.339 14.804C307.976 14.804 307.688 14.932 307.475 15.188C307.261 15.4333 307.155 15.8013 307.155 16.292C307.155 16.772 307.261 17.14 307.475 17.396C307.688 17.6413 307.976 17.764 308.339 17.764C308.701 17.764 308.989 17.6413 309.203 17.396C309.416 17.14 309.523 16.772 309.523 16.292C309.523 15.8013 309.416 15.4333 309.203 15.188C308.989 14.932 308.701 14.804 308.339 14.804ZM320.681 18.644C319.86 18.644 319.113 18.4573 318.441 18.084C317.78 17.7107 317.257 17.1827 316.873 16.5C316.5 15.8067 316.313 15.0067 316.313 14.1C316.313 13.204 316.505 12.4147 316.889 11.732C317.284 11.0387 317.817 10.5107 318.489 10.148C319.161 9.77467 319.913 9.588 320.745 9.588C321.577 9.588 322.329 9.77467 323.001 10.148C323.673 10.5107 324.201 11.0333 324.585 11.716C324.98 12.3987 325.177 13.1933 325.177 14.1C325.177 15.0067 324.974 15.8067 324.569 16.5C324.174 17.1827 323.636 17.7107 322.953 18.084C322.27 18.4573 321.513 18.644 320.681 18.644ZM320.681 17.364C321.204 17.364 321.694 17.2413 322.153 16.996C322.612 16.7507 322.98 16.3827 323.257 15.892C323.545 15.4013 323.689 14.804 323.689 14.1C323.689 13.396 323.55 12.7987 323.273 12.308C322.996 11.8173 322.633 11.4547 322.185 11.22C321.737 10.9747 321.252 10.852 320.729 10.852C320.196 10.852 319.705 10.9747 319.257 11.22C318.82 11.4547 318.468 11.8173 318.201 12.308C317.934 12.7987 317.801 13.396 317.801 14.1C317.801 14.8147 317.929 15.4173 318.185 15.908C318.452 16.3987 318.804 16.7667 319.241 17.012C319.678 17.2467 320.158 17.364 320.681 17.364ZM330.659 10.932H328.819V18.5H327.363V10.932H326.227V9.732H327.363V9.108C327.363 8.12667 327.614 7.412 328.115 6.964C328.627 6.50533 329.443 6.276 330.563 6.276V7.492C329.923 7.492 329.47 7.62 329.203 7.876C328.947 8.12133 328.819 8.532 328.819 9.108V9.732H330.659V10.932ZM342.495 18.5L339.839 13.94H338.079V18.5H336.623V7.348H340.223C341.065 7.348 341.775 7.492 342.351 7.78C342.937 8.068 343.375 8.45733 343.663 8.948C343.951 9.43867 344.095 9.99867 344.095 10.628C344.095 11.396 343.871 12.0733 343.423 12.66C342.985 13.2467 342.324 13.636 341.439 13.828L344.239 18.5H342.495ZM338.079 12.772H340.223C341.012 12.772 341.604 12.58 341.999 12.196C342.393 11.8013 342.591 11.2787 342.591 10.628C342.591 9.96667 342.393 9.45467 341.999 9.092C341.615 8.72933 341.023 8.548 340.223 8.548H338.079V12.772ZM354.357 13.78C354.357 14.0573 354.341 14.3507 354.309 14.66H347.301C347.354 15.524 347.648 16.2013 348.181 16.692C348.725 17.172 349.381 17.412 350.149 17.412C350.778 17.412 351.301 17.268 351.717 16.98C352.144 16.6813 352.442 16.2867 352.613 15.796H354.181C353.946 16.6387 353.477 17.3267 352.773 17.86C352.069 18.3827 351.194 18.644 350.149 18.644C349.317 18.644 348.57 18.4573 347.909 18.084C347.258 17.7107 346.746 17.1827 346.373 16.5C346 15.8067 345.813 15.0067 345.813 14.1C345.813 13.1933 345.994 12.3987 346.357 11.716C346.72 11.0333 347.226 10.5107 347.877 10.148C348.538 9.77467 349.296 9.588 350.149 9.588C350.981 9.588 351.717 9.76933 352.357 10.132C352.997 10.4947 353.488 10.996 353.829 11.636C354.181 12.2653 354.357 12.98 354.357 13.78ZM352.853 13.476C352.853 12.9213 352.73 12.4467 352.485 12.052C352.24 11.6467 351.904 11.3427 351.477 11.14C351.061 10.9267 350.597 10.82 350.085 10.82C349.349 10.82 348.72 11.0547 348.197 11.524C347.685 11.9933 347.392 12.644 347.317 13.476H352.853ZM359.543 17.156L362.263 9.732H363.815L360.375 18.5H358.679L355.239 9.732H356.807L359.543 17.156ZM373.248 13.78C373.248 14.0573 373.232 14.3507 373.2 14.66H366.192C366.245 15.524 366.538 16.2013 367.072 16.692C367.616 17.172 368.272 17.412 369.04 17.412C369.669 17.412 370.192 17.268 370.608 16.98C371.034 16.6813 371.333 16.2867 371.504 15.796H373.072C372.837 16.6387 372.368 17.3267 371.664 17.86C370.96 18.3827 370.085 18.644 369.04 18.644C368.208 18.644 367.461 18.4573 366.8 18.084C366.149 17.7107 365.637 17.1827 365.264 16.5C364.89 15.8067 364.704 15.0067 364.704 14.1C364.704 13.1933 364.885 12.3987 365.248 11.716C365.61 11.0333 366.117 10.5107 366.768 10.148C367.429 9.77467 368.186 9.588 369.04 9.588C369.872 9.588 370.608 9.76933 371.248 10.132C371.888 10.4947 372.378 10.996 372.72 11.636C373.072 12.2653 373.248 12.98 373.248 13.78ZM371.744 13.476C371.744 12.9213 371.621 12.4467 371.376 12.052C371.13 11.6467 370.794 11.3427 370.368 11.14C369.952 10.9267 369.488 10.82 368.976 10.82C368.24 10.82 367.61 11.0547 367.088 11.524C366.576 11.9933 366.282 12.644 366.208 13.476H371.744ZM379.442 9.572C380.508 9.572 381.372 9.89733 382.034 10.548C382.695 11.188 383.026 12.116 383.026 13.332V18.5H381.586V13.54C381.586 12.6653 381.367 11.9987 380.93 11.54C380.492 11.0707 379.895 10.836 379.138 10.836C378.37 10.836 377.756 11.076 377.298 11.556C376.85 12.036 376.626 12.7347 376.626 13.652V18.5H375.17V9.732H376.626V10.98C376.914 10.532 377.303 10.1853 377.794 9.94C378.295 9.69467 378.844 9.572 379.442 9.572ZM393.18 9.732V18.5H391.724V17.204C391.447 17.652 391.057 18.004 390.556 18.26C390.065 18.5053 389.521 18.628 388.924 18.628C388.241 18.628 387.628 18.4893 387.084 18.212C386.54 17.924 386.108 17.4973 385.788 16.932C385.479 16.3667 385.324 15.6787 385.324 14.868V9.732H386.764V14.676C386.764 15.54 386.983 16.2067 387.42 16.676C387.857 17.1347 388.455 17.364 389.212 17.364C389.991 17.364 390.604 17.124 391.052 16.644C391.5 16.164 391.724 15.4653 391.724 14.548V9.732H393.18ZM403.638 13.78C403.638 14.0573 403.622 14.3507 403.59 14.66H396.582C396.636 15.524 396.929 16.2013 397.462 16.692C398.006 17.172 398.662 17.412 399.43 17.412C400.06 17.412 400.582 17.268 400.998 16.98C401.425 16.6813 401.724 16.2867 401.894 15.796H403.462C403.228 16.6387 402.758 17.3267 402.054 17.86C401.35 18.3827 400.476 18.644 399.43 18.644C398.598 18.644 397.852 18.4573 397.19 18.084C396.54 17.7107 396.028 17.1827 395.654 16.5C395.281 15.8067 395.094 15.0067 395.094 14.1C395.094 13.1933 395.276 12.3987 395.638 11.716C396.001 11.0333 396.508 10.5107 397.158 10.148C397.82 9.77467 398.577 9.588 399.43 9.588C400.262 9.588 400.998 9.76933 401.638 10.132C402.278 10.4947 402.769 10.996 403.11 11.636C403.462 12.2653 403.638 12.98 403.638 13.78ZM402.134 13.476C402.134 12.9213 402.012 12.4467 401.766 12.052C401.521 11.6467 401.185 11.3427 400.758 11.14C400.342 10.9267 399.878 10.82 399.366 10.82C398.63 10.82 398.001 11.0547 397.478 11.524C396.966 11.9933 396.673 12.644 396.598 13.476H402.134Z" fill="white"/>
<defs>
<filter id="filter0_b_1911_6782" x="-44.8177" y="234.46" width="531.301" height="344.706" filterUnits="userSpaceOnUse" color-interpolation-filters="sRGB">
<feFlood flood-opacity="0" result="BackgroundImageFix"/>
<feGaussianBlur in="BackgroundImageFix" stdDeviation="49.3683"/>
<feComposite in2="SourceAlpha" operator="in" result="effect1_backgroundBlur_1911_6782"/>
<feBlend mode="normal" in="SourceGraphic" in2="effect1_backgroundBlur_1911_6782" result="shape"/>
</filter>
<filter id="filter1_b_1911_6782" x="230.559" y="233.406" width="518.752" height="345.76" filterUnits="userSpaceOnUse" color-interpolation-filters="sRGB">
<feFlood flood-opacity="0" result="BackgroundImageFix"/>
<feGaussianBlur in="BackgroundImageFix" stdDeviation="49.3683"/>
<feComposite in2="SourceAlpha" operator="in" result="effect1_backgroundBlur_1911_6782"/>
<feBlend mode="normal" in="SourceGraphic" in2="effect1_backgroundBlur_1911_6782" result="shape"/>
</filter>
<filter id="filter2_b_1911_6782" x="-71.5781" y="233.131" width="532.994" height="343.163" filterUnits="userSpaceOnUse" color-interpolation-filters="sRGB">
<feFlood flood-opacity="0" result="BackgroundImageFix"/>
<feGaussianBlur in="BackgroundImageFix" stdDeviation="49.3683"/>
<feComposite in2="SourceAlpha" operator="in" result="effect1_backgroundBlur_1911_6782"/>
<feBlend mode="normal" in="SourceGraphic" in2="effect1_backgroundBlur_1911_6782" result="shape"/>
</filter>
<filter id="filter3_b_1911_6782" x="195.346" y="234.489" width="528.732" height="344.677" filterUnits="userSpaceOnUse" color-interpolation-filters="sRGB">
<feFlood flood-opacity="0" result="BackgroundImageFix"/>
<feGaussianBlur in="BackgroundImageFix" stdDeviation="49.3683"/>
<feComposite in2="SourceAlpha" operator="in" result="effect1_backgroundBlur_1911_6782"/>
<feBlend mode="normal" in="SourceGraphic" in2="effect1_backgroundBlur_1911_6782" result="shape"/>
</filter>
<filter id="filter4_b_1911_6782" x="171.687" y="-52.3734" width="341.695" height="341.695" filterUnits="userSpaceOnUse" color-interpolation-filters="sRGB">
<feFlood flood-opacity="0" result="BackgroundImageFix"/>
<feGaussianBlur in="BackgroundImageFix" stdDeviation="49.3683"/>
<feComposite in2="SourceAlpha" operator="in" result="effect1_backgroundBlur_1911_6782"/>
<feBlend mode="normal" in="SourceGraphic" in2="effect1_backgroundBlur_1911_6782" result="shape"/>
</filter>
<filter id="filter5_b_1911_6782" x="-98.7365" y="235.103" width="341.695" height="341.695" filterUnits="userSpaceOnUse" color-interpolation-filters="sRGB">
<feFlood flood-opacity="0" result="BackgroundImageFix"/>
<feGaussianBlur in="BackgroundImageFix" stdDeviation="49.3683"/>
<feComposite in2="SourceAlpha" operator="in" result="effect1_backgroundBlur_1911_6782"/>
<feBlend mode="normal" in="SourceGraphic" in2="effect1_backgroundBlur_1911_6782" result="shape"/>
</filter>
<filter id="filter6_b_1911_6782" x="171.687" y="235.103" width="341.695" height="341.695" filterUnits="userSpaceOnUse" color-interpolation-filters="sRGB">
<feFlood flood-opacity="0" result="BackgroundImageFix"/>
<feGaussianBlur in="BackgroundImageFix" stdDeviation="49.3683"/>
<feComposite in2="SourceAlpha" operator="in" result="effect1_backgroundBlur_1911_6782"/>
<feBlend mode="normal" in="SourceGraphic" in2="effect1_backgroundBlur_1911_6782" result="shape"/>
</filter>
<filter id="filter7_b_1911_6782" x="433.028" y="234.135" width="341.695" height="341.695" filterUnits="userSpaceOnUse" color-interpolation-filters="sRGB">
<feFlood flood-opacity="0" result="BackgroundImageFix"/>
<feGaussianBlur in="BackgroundImageFix" stdDeviation="49.3683"/>
<feComposite in2="SourceAlpha" operator="in" result="effect1_backgroundBlur_1911_6782"/>
<feBlend mode="normal" in="SourceGraphic" in2="effect1_backgroundBlur_1911_6782" result="shape"/>
</filter>
<linearGradient id="paint0_linear_1911_6782" x1="455.223" y1="359.547" x2="83.3196" y2="449.473" gradientUnits="userSpaceOnUse">
<stop stop-color="white"/>
<stop offset="1" stop-color="#718599" stop-opacity="0"/>
</linearGradient>
<linearGradient id="paint1_linear_1911_6782" x1="714.138" y1="360.31" x2="355.762" y2="441.819" gradientUnits="userSpaceOnUse">
<stop stop-color="white"/>
<stop offset="1" stop-color="#718599" stop-opacity="0"/>
</linearGradient>
<linearGradient id="paint2_linear_1911_6782" x1="-39.2402" y1="359.547" x2="332.663" y2="449.473" gradientUnits="userSpaceOnUse">
<stop stop-color="white"/>
<stop offset="1" stop-color="#718599" stop-opacity="0"/>
</linearGradient>
<linearGradient id="paint3_linear_1911_6782" x1="228.532" y1="361.189" x2="596.627" y2="448.152" gradientUnits="userSpaceOnUse">
<stop stop-color="white"/>
<stop offset="1" stop-color="#718599" stop-opacity="0"/>
</linearGradient>
<linearGradient id="paint4_linear_1911_6782" x1="262.348" y1="189.635" x2="68.8104" y2="206.617" gradientUnits="userSpaceOnUse">
<stop stop-color="white"/>
<stop offset="0.618644" stop-color="#999999" stop-opacity="0"/>
</linearGradient>
<linearGradient id="paint5_linear_1911_6782" x1="177.32" y1="333.226" x2="424.145" y2="258.887" gradientUnits="userSpaceOnUse">
<stop stop-color="white"/>
<stop offset="0.618644" stop-color="#999999" stop-opacity="0"/>
</linearGradient>
<linearGradient id="paint6_linear_1911_6782" x1="434.335" y1="189.635" x2="627.873" y2="206.617" gradientUnits="userSpaceOnUse">
<stop stop-color="white"/>
<stop offset="0.618644" stop-color="#999999" stop-opacity="0"/>
</linearGradient>
<linearGradient id="paint7_linear_1911_6782" x1="519.364" y1="333.226" x2="272.539" y2="258.887" gradientUnits="userSpaceOnUse">
<stop stop-color="white"/>
<stop offset="0.618644" stop-color="#999999" stop-opacity="0"/>
</linearGradient>
<linearGradient id="paint8_linear_1911_6782" x1="328.573" y1="46.3634" x2="432.806" y2="78.9734" gradientUnits="userSpaceOnUse">
<stop stop-color="#212528"/>
<stop offset="1" stop-color="#575F67"/>
</linearGradient>
<linearGradient id="paint9_linear_1911_6782" x1="442.916" y1="73.7668" x2="275.564" y2="91.6975" gradientUnits="userSpaceOnUse">
<stop stop-color="#262C33"/>
<stop offset="1" stop-color="#718599" stop-opacity="0"/>
</linearGradient>
<linearGradient id="paint10_linear_1911_6782" x1="329.999" y1="90.2505" x2="330.103" y2="117.21" gradientUnits="userSpaceOnUse">
<stop stop-color="#E91D05"/>
<stop offset="0.55" stop-color="#F67702"/>
<stop offset="1" stop-color="#FFEF76"/>
</linearGradient>
<linearGradient id="paint11_linear_1911_6782" x1="343.763" y1="89.8802" x2="343.917" y2="143.373" gradientUnits="userSpaceOnUse">
<stop stop-color="#E91D05"/>
<stop offset="0.55" stop-color="#F67702"/>
<stop offset="1" stop-color="#FFEF76"/>
</linearGradient>
<linearGradient id="paint12_linear_1911_6782" x1="355.571" y1="90.1546" x2="355.675" y2="117.115" gradientUnits="userSpaceOnUse">
<stop stop-color="#E91D05"/>
<stop offset="0.55" stop-color="#F67702"/>
<stop offset="1" stop-color="#FFEF76"/>
</linearGradient>
<linearGradient id="paint13_linear_1911_6782" x1="342.321" y1="95.6061" x2="342.682" y2="123.844" gradientUnits="userSpaceOnUse">
<stop stop-color="#E91D05"/>
<stop offset="0.55" stop-color="#F67702"/>
<stop offset="1" stop-color="#FFEF76"/>
</linearGradient>
<linearGradient id="paint14_linear_1911_6782" x1="331.31" y1="104.823" x2="331.347" y2="117.651" gradientUnits="userSpaceOnUse">
<stop stop-color="#E91D05"/>
<stop offset="0.55" stop-color="#F67702"/>
<stop offset="1" stop-color="#FFEF76"/>
</linearGradient>
<linearGradient id="paint15_linear_1911_6782" x1="353.72" y1="104.823" x2="353.757" y2="117.651" gradientUnits="userSpaceOnUse">
<stop stop-color="#E91D05"/>
<stop offset="0.55" stop-color="#F67702"/>
<stop offset="1" stop-color="#FFEF76"/>
</linearGradient>
<linearGradient id="paint16_linear_1911_6782" x1="58.1493" y1="333.84" x2="162.383" y2="366.45" gradientUnits="userSpaceOnUse">
<stop stop-color="#212528"/>
<stop offset="1" stop-color="#575F67"/>
</linearGradient>
<linearGradient id="paint17_linear_1911_6782" x1="172.493" y1="361.243" x2="5.14004" y2="379.174" gradientUnits="userSpaceOnUse">
<stop stop-color="#262C33"/>
<stop offset="1" stop-color="#718599" stop-opacity="0"/>
</linearGradient>
<linearGradient id="paint18_linear_1911_6782" x1="72.5996" y1="379.706" x2="72.821" y2="429.819" gradientUnits="userSpaceOnUse">
<stop stop-color="#E91D05"/>
<stop offset="0.55" stop-color="#F67702"/>
<stop offset="1" stop-color="#FFEF76"/>
</linearGradient>
<linearGradient id="paint19_linear_1911_6782" x1="328.573" y1="333.84" x2="432.806" y2="366.45" gradientUnits="userSpaceOnUse">
<stop stop-color="#212528"/>
<stop offset="1" stop-color="#575F67"/>
</linearGradient>
<linearGradient id="paint20_linear_1911_6782" x1="442.916" y1="361.243" x2="275.564" y2="379.174" gradientUnits="userSpaceOnUse">
<stop stop-color="#262C33"/>
<stop offset="1" stop-color="#718599" stop-opacity="0"/>
</linearGradient>
<linearGradient id="paint21_linear_1911_6782" x1="343.917" y1="375.774" x2="344.124" y2="423.103" gradientUnits="userSpaceOnUse">
<stop stop-color="#E91D05"/>
<stop offset="0.55" stop-color="#F67702"/>
<stop offset="1" stop-color="#FFEF76"/>
</linearGradient>
<linearGradient id="paint22_linear_1911_6782" x1="589.914" y1="332.872" x2="694.148" y2="365.482" gradientUnits="userSpaceOnUse">
<stop stop-color="#212528"/>
<stop offset="1" stop-color="#575F67"/>
</linearGradient>
<linearGradient id="paint23_linear_1911_6782" x1="704.258" y1="360.275" x2="536.905" y2="378.206" gradientUnits="userSpaceOnUse">
<stop stop-color="#262C33"/>
<stop offset="1" stop-color="#718599" stop-opacity="0"/>
</linearGradient>
<linearGradient id="paint24_linear_1911_6782" x1="604.565" y1="377.276" x2="604.694" y2="417.77" gradientUnits="userSpaceOnUse">
<stop stop-color="#E91D05"/>
<stop offset="0.55" stop-color="#F67702"/>
<stop offset="1" stop-color="#FFEF76"/>
</linearGradient>
<linearGradient id="paint25_linear_1911_6782" x1="312.838" y1="329.106" x2="313.912" y2="329.094" gradientUnits="userSpaceOnUse">
<stop stop-color="white"/>
<stop offset="0.740519" stop-color="#999999" stop-opacity="0"/>
</linearGradient>
<linearGradient id="paint26_linear_1911_6782" x1="378.094" y1="329.106" x2="379.169" y2="329.094" gradientUnits="userSpaceOnUse">
<stop stop-color="white"/>
<stop offset="0.740519" stop-color="#999999" stop-opacity="0"/>
</linearGradient>
</defs>
</svg>
