<svg width="193" height="150" viewBox="0 0 193 150" fill="none" xmlns="http://www.w3.org/2000/svg">
<g id="Icon Color" filter="url(#filter0_b_1834_386)">
<path id="Vector" d="M45.5652 34.9014L45.5647 34.9011C31.5692 26.554 25.2526 17.9386 22.4445 11.4175C21.0398 8.15547 20.5108 5.41261 20.3399 3.48233C20.2545 2.51699 20.2586 1.7551 20.2874 1.23345C20.2913 1.1637 20.2956 1.09832 20.3001 1.03739C21.674 2.88401 23.8874 4.99177 26.7121 7.272C29.8098 9.77258 33.6586 12.493 37.9781 15.3186C46.6175 20.9699 57.1532 27.0503 67.3584 32.6447C77.5643 38.2395 87.4432 43.3501 94.7704 47.0619C98.4341 48.9178 101.46 50.4241 103.57 51.4665C104.625 51.9877 105.451 52.3929 106.014 52.6678C106.295 52.8053 106.51 52.9102 106.655 52.9808L106.781 53.0417L113.965 74.352C113.662 74.1818 113.243 73.9456 112.715 73.6485C111.539 72.9861 109.827 72.021 107.685 70.8106C103.402 68.3899 97.4003 64.9878 90.5254 61.0626C76.7752 53.2121 59.5337 43.2699 45.5652 34.9014Z" fill="url(#paint0_linear_1834_386)" stroke="#262C33" stroke-width="0.5"/>
<path id="Vector_2" d="M125.758 111.483L125.989 112.057L126.221 111.484L138.021 82.3603L187.918 52.196L187.918 52.1958C187.918 52.196 187.918 52.1959 187.918 52.1959L187.92 52.1947L187.928 52.1897L187.961 52.1701L188.09 52.0924C188.203 52.0237 188.372 51.9217 188.592 51.7881C189.032 51.5208 189.679 51.1271 190.503 50.621C192.15 49.609 194.509 48.1477 197.354 46.3506C203.043 42.7564 210.677 37.8182 218.453 32.4428C226.227 27.0681 234.149 21.2532 240.412 15.9057C243.544 13.2322 246.265 10.6718 248.347 8.33885C249.907 6.5913 251.119 4.95935 251.873 3.49369C251.802 4.24959 251.685 5.27092 251.494 6.50514C251.061 9.30775 250.25 13.2064 248.738 17.5869C245.712 26.3491 239.886 37.0266 228.679 44.7277C217.423 52.462 197.073 64.5717 179.529 74.7517C170.759 79.8408 162.693 84.4462 156.819 87.7794C153.882 89.4459 151.493 90.7944 149.839 91.7262C149.011 92.1921 148.368 92.5539 147.931 92.7991L147.434 93.0781L147.307 93.1492L147.275 93.1671L147.267 93.1716L147.265 93.1727C147.264 93.173 147.264 93.1731 147.386 93.3912L147.264 93.1731L147.185 93.2172L147.153 93.3014L126.134 147.926L126.117 147.97V148.016V148.56L126.114 148.552V148.519V148.473L126.097 148.43L105.078 93.8048L105.045 93.7205L104.966 93.6764L104.844 93.8946C104.966 93.6764 104.966 93.6763 104.966 93.676L104.964 93.6749L104.956 93.6704L104.924 93.6525L104.796 93.5814L104.298 93.3024C103.86 93.0572 103.216 92.6954 102.387 92.2295C100.729 91.2977 98.3359 89.9492 95.3941 88.2827C89.5105 84.9495 81.4324 80.3441 72.6543 75.2551C55.0949 65.075 34.7451 52.9655 23.5528 45.2314C12.4081 37.5304 6.58116 26.8526 3.5401 18.09C2.01979 13.7093 1.19697 9.8105 0.754327 7.00777C0.560791 5.78232 0.439987 4.76675 0.365338 4.01244C1.11991 5.47416 2.3291 7.10085 3.8834 8.84234C5.96563 11.1753 8.68687 13.7357 11.8183 16.4092C18.0816 21.7566 26.0032 27.5716 33.7781 32.9463C41.5539 38.3217 49.1875 43.2599 54.8767 46.8541C57.7215 48.6512 60.0804 50.1125 61.7282 51.1245C62.5521 51.6306 63.1983 52.0243 63.6385 52.2916C63.8586 52.4252 64.0273 52.5272 64.1409 52.5959L64.2697 52.6735L64.3024 52.6932L64.3106 52.6982L64.3127 52.6994C64.3128 52.6994 64.3128 52.6995 64.313 52.6993L64.3128 52.6995L114.209 82.8636L125.758 111.483Z" fill="url(#paint1_linear_1834_386)" stroke="#262C33" stroke-width="0.5"/>
<path id="Vector_3" d="M206.665 34.398L206.665 34.3982C192.634 42.8296 175.392 52.7717 161.673 60.6224C156.83 63.3941 152.426 65.9048 148.757 67.9964C147.23 68.8669 145.831 69.6648 144.58 70.3786C142.452 71.593 140.754 72.5643 139.592 73.2361C139.098 73.5217 138.7 73.7535 138.407 73.927L145.576 52.6643L145.701 52.6033C145.846 52.5328 146.062 52.4279 146.343 52.2904C146.905 52.0155 147.731 51.6102 148.786 51.0891C150.896 50.0467 153.922 48.5404 157.586 46.6844C164.913 42.9726 174.792 37.862 184.998 32.2673C195.203 26.6729 205.739 20.5925 214.378 14.9412C218.698 12.1156 222.547 9.39514 225.644 6.89456C228.444 4.63487 230.642 2.54454 232.019 0.709895C232.02 0.74138 232.021 0.773916 232.022 0.807494C232.036 1.31878 232.025 2.07141 231.926 3.02841C231.728 4.94217 231.176 7.67406 229.755 10.9288C226.915 17.4354 220.598 26.051 206.665 34.398Z" fill="url(#paint2_linear_1834_386)" stroke="#262C33" stroke-width="0.5"/>
<path id="Vector_4" d="M125.864 102.334L111.155 53.0167L125.864 25.8243L140.572 53.0167L125.864 102.334Z" fill="url(#paint3_linear_1834_386)" stroke="#262C33" stroke-width="0.5"/>
<path id="Vector_5" d="M44.7536 67.3495C44.7114 66.8917 44.6927 66.527 44.6846 66.2701L102.94 101.075C73.3855 101.145 58.838 92.3764 51.6719 83.6041C48.0492 79.1695 46.3013 74.7206 45.4589 71.3822C45.0377 69.7129 44.843 68.3216 44.7536 67.3495Z" fill="url(#paint4_linear_1834_386)" stroke="#262C33" stroke-width="0.5"/>
<path id="Vector_6" d="M148.662 101.075L206.917 66.2701C206.909 66.527 206.89 66.8917 206.848 67.3495C206.758 68.3216 206.564 69.7129 206.143 71.3822C205.3 74.7206 203.552 79.1695 199.93 83.6041C192.763 92.3764 178.216 101.145 148.662 101.075Z" fill="url(#paint5_linear_1834_386)" stroke="#262C33" stroke-width="0.5"/>
</g>
<defs>
<filter id="filter0_b_1834_386" x="-46.4383" y="-46.4383" width="345.107" height="242.655" filterUnits="userSpaceOnUse" color-interpolation-filters="sRGB">
<feFlood flood-opacity="0" result="BackgroundImageFix"/>
<feGaussianBlur in="BackgroundImageFix" stdDeviation="23.2191"/>
<feComposite in2="SourceAlpha" operator="in" result="effect1_backgroundBlur_1834_386"/>
<feBlend mode="normal" in="SourceGraphic" in2="effect1_backgroundBlur_1834_386" result="shape"/>
</filter>
<linearGradient id="paint0_linear_1834_386" x1="105.346" y1="65.9307" x2="38.0412" y2="121.388" gradientUnits="userSpaceOnUse">
<stop stop-color="#292D32"/>
<stop offset="1" stop-color="#7B8A98"/>
</linearGradient>
<linearGradient id="paint1_linear_1834_386" x1="101.698" y1="2.01437" x2="257.422" y2="85.1776" gradientUnits="userSpaceOnUse">
<stop stop-color="#292D32"/>
<stop offset="1" stop-color="#7B8A98"/>
</linearGradient>
<linearGradient id="paint2_linear_1834_386" x1="175.98" y1="0.000104161" x2="240.679" y2="25.6257" gradientUnits="userSpaceOnUse">
<stop stop-color="#292D32"/>
<stop offset="1" stop-color="#7B8A98"/>
</linearGradient>
<linearGradient id="paint3_linear_1834_386" x1="122.964" y1="25.2989" x2="146.393" y2="28.1173" gradientUnits="userSpaceOnUse">
<stop stop-color="#292D32"/>
<stop offset="1" stop-color="#7B8A98"/>
</linearGradient>
<linearGradient id="paint4_linear_1834_386" x1="98.1328" y1="97.0577" x2="65.5815" y2="132.49" gradientUnits="userSpaceOnUse">
<stop stop-color="#292D32"/>
<stop offset="1" stop-color="#7B8A98"/>
</linearGradient>
<linearGradient id="paint5_linear_1834_386" x1="171.717" y1="65.8267" x2="208.714" y2="85.1974" gradientUnits="userSpaceOnUse">
<stop stop-color="#292D32"/>
<stop offset="1" stop-color="#7B8A98"/>
</linearGradient>
</defs>
</svg>
