<svg width="402" height="269" viewBox="0 0 402 269" fill="none" xmlns="http://www.w3.org/2000/svg">
<path d="M174.868 149.014C173.487 147.056 173.907 145.325 174.431 143.665C176.004 138.718 177.63 133.789 179.256 128.842C181.021 123.458 182.769 118.074 184.587 112.726C186.003 108.548 186.649 108.129 190.984 108.146C234.107 108.163 277.229 108.164 320.334 108.233C322.712 108.233 324.215 107.779 324.984 105.139C326.26 100.752 328.078 96.522 329.529 92.187C331.696 85.7545 333.811 79.287 335.856 72.8195C337.167 68.7118 338.286 64.5516 339.562 60.4264C340.104 58.6434 340.891 56.9479 341.415 55.165C342.481 51.5292 341.328 50.0784 337.517 50.0784C228.094 50.0784 118.688 50.0784 9.26519 50.1133C6.46849 50.1133 3.67169 50.4979 0.752591 50.7076C0.525391 48.7324 1.87129 47.8934 3.00749 47.0369C14.5616 38.4543 26.1506 29.8893 37.7222 21.3242C46.2523 15.0315 54.765 8.7213 63.3125 2.4636C65.043 1.20505 66.9483 0.593246 69.2032 0.593246C163.419 0.663166 257.635 0.698156 351.85 0.575806C356.535 0.575806 360.118 1.90421 363.719 4.63109C373.158 11.7977 382.755 18.7198 392.298 25.7466C394.588 27.4247 396.913 29.0502 399.185 30.7458C401.703 32.6336 402.052 34.6263 400.968 37.5279C399.29 42.0027 397.822 46.565 396.266 51.0922C394.221 57.0528 392.106 62.9784 390.148 68.9565C388.68 73.4138 387.422 77.9411 386.041 82.4333C384.695 86.7683 383.366 91.1208 381.916 95.421C380.849 98.585 378.839 100.927 375.728 102.43C367.949 106.153 360.241 110.016 352.532 113.862C344.142 118.04 335.787 122.252 327.396 126.412C324.757 127.723 322.012 128.807 319.373 130.136C318.342 130.66 317.503 131.569 316.367 132.443C317.153 133.492 317.59 134.436 318.324 134.977C327.658 141.882 337.028 148.716 346.379 155.569C349.543 157.893 352.637 160.34 355.941 162.456C358.545 164.116 358.877 166.196 358.003 168.836C355.731 175.775 353.493 182.732 351.256 189.689C349.089 196.384 346.956 203.096 344.771 209.791C342.883 215.541 340.926 221.275 339.003 227.008C338.181 229.455 337.569 232.007 336.451 234.315C335.804 235.661 334.545 237.024 333.217 237.706C325.334 241.796 317.345 245.711 309.375 249.627C298.537 254.958 287.595 260.097 276.845 265.621C272.842 267.666 268.857 268.522 264.434 268.505C187.663 268.453 110.892 268.47 34.1389 268.47C32.8978 268.47 31.6393 268.47 30.3982 268.47C25.6437 268.418 24.962 267.247 26.4828 262.877C28.1084 258.209 29.332 253.42 30.8003 248.701C31.8316 245.397 32.9852 242.146 34.0515 238.859C35.6771 233.808 37.2328 228.721 38.8759 223.67C39.8722 220.628 41.0783 217.639 42.0397 214.58C43.3332 210.472 44.4519 206.312 45.6755 202.17C46.5145 199.338 47.3536 196.506 48.2625 193.692C49.8007 188.867 51.3914 184.043 52.9471 179.219C54.0483 175.81 55.132 172.384 56.2507 168.975C57.9288 163.836 59.6243 158.697 61.3024 153.558C62.9455 148.524 64.6235 143.508 66.1967 138.456C67.4727 134.331 68.5914 130.153 69.7975 125.993C70.6016 123.266 71.4406 120.539 72.3146 117.83C74.8666 109.824 77.401 101.818 80.006 93.848C82.068 87.5374 84.341 81.2797 86.368 74.9695C87.452 71.5785 88.274 68.0825 89.165 64.6215C90.022 61.2654 91.525 60.811 94.391 62.961C104.67 70.6171 114.983 78.2382 125.278 85.8943C127.551 87.5899 129.805 89.3203 132.06 91.0508C134.49 92.904 134.49 93.62 133.441 96.574C131.973 100.647 130.819 104.825 129.508 108.95C128.232 112.935 126.886 116.903 125.628 120.906C124.527 124.437 123.565 128.02 122.429 131.534C121.38 134.838 120.174 138.071 119.09 141.357C117.57 145.937 116.119 150.534 114.633 155.114C112.623 161.337 110.56 167.56 108.585 173.8C107.431 177.436 106.452 181.124 105.316 184.76C104.32 187.941 103.219 191.087 102.187 194.251C100.492 199.425 98.814 204.599 97.136 209.791C96.594 211.434 95.86 213.042 95.615 214.737C95.335 216.66 96.174 217.429 98.132 217.657C98.744 217.726 99.373 217.657 100.002 217.657C161.566 217.657 223.13 217.657 284.693 217.674C287.91 217.674 289.29 216.783 290.06 214.178C291.196 210.385 292.297 206.557 293.503 202.781C295.041 197.974 296.649 193.167 298.24 188.378C301.194 179.481 304.183 170.601 307.12 161.686C308.046 158.872 308.833 156.023 309.742 153.191C310.808 149.818 310.231 148.996 306.543 148.996C292.454 148.996 278.383 148.996 264.294 148.996C235.872 148.996 207.468 148.996 179.046 148.996C177.578 148.996 176.092 148.996 174.851 148.996L174.868 149.014Z" fill="url(#paint0_linear_2083_2144)"/>
<defs>
<linearGradient id="paint0_linear_2083_2144" x1="212.812" y1="-11.6028" x2="214.281" y2="435.956" gradientUnits="userSpaceOnUse">
<stop stop-color="#E91D05"/>
<stop offset="0.55" stop-color="#F67702"/>
<stop offset="1" stop-color="#FFEF76"/>
</linearGradient>
</defs>
</svg>
