<svg width="125" height="81" viewBox="0 0 125 81" fill="none" xmlns="http://www.w3.org/2000/svg">
<g id="fluent:protocol-handler-24-regular" opacity="0.6">
<g id="Vector" filter="url(#filter0_b_2216_87)">
<mask id="path-1-inside-1_2216_87" fill="white">
<path d="M73.2817 76.4142L66.8601 69.9926L73.501 63.3517L79.9289 69.767C81.1037 70.9415 82.697 71.6013 84.3582 71.6013C86.0195 71.6013 87.6128 70.9415 88.7876 69.767L113.622 44.9325C114.205 44.3506 114.667 43.6597 114.982 42.8991C115.297 42.1386 115.46 41.3233 115.46 40.5C115.46 39.6767 115.297 38.8614 114.982 38.1009C114.667 37.3403 114.205 36.6493 113.622 36.0675L88.7876 11.233C88.2058 10.6505 87.5148 10.1884 86.7542 9.87309C85.9937 9.5578 85.1784 9.39552 84.3551 9.39552C83.5318 9.39552 82.7166 9.5578 81.956 9.87309C81.1954 10.1884 80.5045 10.6505 79.9226 11.233L73.501 17.6546L66.8601 11.0137L73.2817 4.58578C76.2189 1.64951 80.202 0 84.3551 0C88.5083 0 92.4914 1.64951 95.4285 4.58578L120.269 29.4266C123.206 32.3637 124.855 36.3469 124.855 40.5C124.855 44.6531 123.206 48.6363 120.269 51.5734L95.4285 76.4142C92.4914 79.3505 88.5083 81 84.3551 81C80.202 81 76.2189 79.3505 73.2817 76.4142ZM29.4266 4.58578L4.58578 29.4266C1.64951 32.3637 0 36.3469 0 40.5C0 44.6531 1.64951 48.6363 4.58578 51.5734L29.4266 76.4142C32.3637 79.3505 36.3468 81 40.5 81C44.6531 81 48.6362 79.3505 51.5734 76.4142L76.4142 51.5734C79.3505 48.6363 81 44.6531 81 40.5C81 36.3469 79.3505 32.3637 76.4142 29.4266L51.5734 4.58578C48.6362 1.64951 44.6531 0 40.5 0C36.3468 0 32.3637 1.64951 29.4266 4.58578ZM11.233 36.0738L36.0738 11.233C37.2486 10.0585 38.8419 9.39865 40.5031 9.39865C42.1644 9.39865 43.7576 10.0585 44.9325 11.233L69.767 36.0738C70.9415 37.2486 71.6013 38.8419 71.6013 40.5031C71.6013 42.1644 70.9415 43.7576 69.767 44.9325L44.9325 69.7608C43.7576 70.9353 42.1644 71.5951 40.5031 71.5951C38.8419 71.5951 37.2486 70.9353 36.0738 69.7608L11.233 44.9262C10.6505 44.3444 10.1884 43.6534 9.87308 42.8929C9.5578 42.1323 9.39552 41.3171 9.39552 40.4937C9.39552 39.6704 9.5578 38.8552 9.87308 38.0946C10.1884 37.334 10.6505 36.6431 11.233 36.0612"/>
</mask>
<path d="M73.2817 76.4142L66.8601 69.9926L73.501 63.3517L79.9289 69.767C81.1037 70.9415 82.697 71.6013 84.3582 71.6013C86.0195 71.6013 87.6128 70.9415 88.7876 69.767L113.622 44.9325C114.205 44.3506 114.667 43.6597 114.982 42.8991C115.297 42.1386 115.46 41.3233 115.46 40.5C115.46 39.6767 115.297 38.8614 114.982 38.1009C114.667 37.3403 114.205 36.6493 113.622 36.0675L88.7876 11.233C88.2058 10.6505 87.5148 10.1884 86.7542 9.87309C85.9937 9.5578 85.1784 9.39552 84.3551 9.39552C83.5318 9.39552 82.7166 9.5578 81.956 9.87309C81.1954 10.1884 80.5045 10.6505 79.9226 11.233L73.501 17.6546L66.8601 11.0137L73.2817 4.58578C76.2189 1.64951 80.202 0 84.3551 0C88.5083 0 92.4914 1.64951 95.4285 4.58578L120.269 29.4266C123.206 32.3637 124.855 36.3469 124.855 40.5C124.855 44.6531 123.206 48.6363 120.269 51.5734L95.4285 76.4142C92.4914 79.3505 88.5083 81 84.3551 81C80.202 81 76.2189 79.3505 73.2817 76.4142ZM29.4266 4.58578L4.58578 29.4266C1.64951 32.3637 0 36.3469 0 40.5C0 44.6531 1.64951 48.6363 4.58578 51.5734L29.4266 76.4142C32.3637 79.3505 36.3468 81 40.5 81C44.6531 81 48.6362 79.3505 51.5734 76.4142L76.4142 51.5734C79.3505 48.6363 81 44.6531 81 40.5C81 36.3469 79.3505 32.3637 76.4142 29.4266L51.5734 4.58578C48.6362 1.64951 44.6531 0 40.5 0C36.3468 0 32.3637 1.64951 29.4266 4.58578ZM11.233 36.0738L36.0738 11.233C37.2486 10.0585 38.8419 9.39865 40.5031 9.39865C42.1644 9.39865 43.7576 10.0585 44.9325 11.233L69.767 36.0738C70.9415 37.2486 71.6013 38.8419 71.6013 40.5031C71.6013 42.1644 70.9415 43.7576 69.767 44.9325L44.9325 69.7608C43.7576 70.9353 42.1644 71.5951 40.5031 71.5951C38.8419 71.5951 37.2486 70.9353 36.0738 69.7608L11.233 44.9262C10.6505 44.3444 10.1884 43.6534 9.87308 42.8929C9.5578 42.1323 9.39552 41.3171 9.39552 40.4937C9.39552 39.6704 9.5578 38.8552 9.87308 38.0946C10.1884 37.334 10.6505 36.6431 11.233 36.0612" fill="url(#paint0_linear_2216_87)"/>
<path d="M73.2817 76.4142L72.913 76.7829L72.9131 76.7829L73.2817 76.4142ZM66.8601 69.9926L66.4914 69.6239L66.1227 69.9926L66.4914 70.3612L66.8601 69.9926ZM73.501 63.3517L73.8693 62.9826L73.5006 62.6147L73.1323 62.983L73.501 63.3517ZM79.9289 69.767L80.2975 69.3983L80.2972 69.398L79.9289 69.767ZM84.3582 71.6013V72.1227V71.6013ZM88.7876 69.767L89.1562 70.1358L89.1563 70.1357L88.7876 69.767ZM113.622 44.9325L113.254 44.5636L113.253 44.5638L113.622 44.9325ZM113.622 36.0675L113.253 36.4362L113.254 36.4364L113.622 36.0675ZM88.7876 11.233L88.4187 11.6014L88.4189 11.6016L88.7876 11.233ZM84.3551 9.39552V9.9169V9.39552ZM79.9226 11.233L80.2913 11.6016L80.2915 11.6014L79.9226 11.233ZM73.501 17.6546L73.1323 18.0233L73.501 18.392L73.8696 18.0233L73.501 17.6546ZM66.8601 11.0137L66.4912 10.6452L66.1229 11.0139L66.4914 11.3824L66.8601 11.0137ZM73.2817 4.58578L72.9131 4.21706L72.9128 4.21729L73.2817 4.58578ZM95.4285 4.58578L95.7972 4.21711L95.7971 4.21706L95.4285 4.58578ZM120.269 29.4266L120.638 29.058L120.638 29.0579L120.269 29.4266ZM124.855 40.5H124.334H124.855ZM120.269 51.5734L120.638 51.9421L120.638 51.942L120.269 51.5734ZM95.4285 76.4142L95.7971 76.7829L95.7972 76.7829L95.4285 76.4142ZM84.3551 81V80.4786V81ZM29.4266 4.58578L29.058 4.21706L29.0579 4.21711L29.4266 4.58578ZM4.58578 29.4266L4.21711 29.0579L4.21705 29.058L4.58578 29.4266ZM0 40.5H0.521379H0ZM4.58578 51.5734L4.21705 51.942L4.21711 51.9421L4.58578 51.5734ZM29.4266 76.4142L29.0579 76.7829L29.058 76.7829L29.4266 76.4142ZM40.5 81V80.4786V81ZM51.5734 76.4142L51.942 76.7829L51.9421 76.7829L51.5734 76.4142ZM76.4142 51.5734L76.7829 51.9421L76.7829 51.942L76.4142 51.5734ZM76.4142 29.4266L76.7829 29.058L76.7829 29.0579L76.4142 29.4266ZM51.5734 4.58578L51.9421 4.21711L51.942 4.21706L51.5734 4.58578ZM40.5 0V0.521379V0ZM36.0738 11.233L35.7051 10.8642L35.7051 10.8643L36.0738 11.233ZM44.9325 11.233L45.3012 10.8643L45.3011 10.8642L44.9325 11.233ZM69.767 36.0738L70.1357 35.7052L70.1357 35.7051L69.767 36.0738ZM69.767 44.9325L70.1356 45.3012L70.1357 45.3011L69.767 44.9325ZM44.9325 69.7608L45.3011 70.1295L45.3011 70.1295L44.9325 69.7608ZM40.5031 71.5951V72.1165V71.5951ZM36.0738 69.7608L35.7051 70.1295L35.7051 70.1295L36.0738 69.7608ZM11.233 44.9262L11.6016 44.5575L11.6014 44.5574L11.233 44.9262ZM9.39552 40.4937H9.9169H9.39552ZM73.6504 76.0455L67.2287 69.6239L66.4914 70.3612L72.913 76.7829L73.6504 76.0455ZM67.2287 70.3612L73.8696 63.7203L73.1323 62.983L66.4914 69.6239L67.2287 70.3612ZM73.1327 63.7207L79.5606 70.1361L80.2972 69.398L73.8693 62.9826L73.1327 63.7207ZM79.5603 70.1358C80.8329 71.408 82.5587 72.1227 84.3582 72.1227V71.08C82.8352 71.08 81.3746 70.4751 80.2975 69.3983L79.5603 70.1358ZM84.3582 72.1227C86.1578 72.1227 87.8836 71.408 89.1562 70.1358L88.419 69.3983C87.3419 70.4751 85.8813 71.08 84.3582 71.08V72.1227ZM89.1563 70.1357L113.991 45.3012L113.253 44.5638L88.4189 69.3984L89.1563 70.1357ZM113.991 45.3014C114.622 44.6711 115.122 43.9226 115.464 43.0988L114.5 42.6995C114.211 43.3967 113.788 44.0302 113.254 44.5636L113.991 45.3014ZM115.464 43.0988C115.805 42.2749 115.981 41.3918 115.981 40.5H114.938C114.938 41.2548 114.789 42.0022 114.5 42.6995L115.464 43.0988ZM115.981 40.5C115.981 39.6082 115.805 38.7251 115.464 37.9012L114.5 38.3005C114.789 38.9978 114.938 39.7452 114.938 40.5H115.981ZM115.464 37.9012C115.122 37.0774 114.622 36.3289 113.991 35.6986L113.254 36.4364C113.788 36.9698 114.211 37.6033 114.5 38.3005L115.464 37.9012ZM113.991 35.6988L89.1563 10.8643L88.4189 11.6016L113.253 36.4362L113.991 35.6988ZM89.1565 10.8645C88.5262 10.2335 87.7778 9.73297 86.9539 9.39145L86.5546 10.3547C87.2519 10.6438 87.8853 11.0674 88.4187 11.6014L89.1565 10.8645ZM86.9539 9.39145C86.13 9.04993 85.247 8.87414 84.3551 8.87414V9.9169C85.1099 9.9169 85.8573 10.0657 86.5546 10.3547L86.9539 9.39145ZM84.3551 8.87414C83.4633 8.87414 82.5802 9.04993 81.7563 9.39145L82.1556 10.3547C82.8529 10.0657 83.6003 9.9169 84.3551 9.9169V8.87414ZM81.7563 9.39145C80.9325 9.73297 80.184 10.2335 79.5537 10.8645L80.2915 11.6014C80.8249 11.0674 81.4584 10.6438 82.1556 10.3547L81.7563 9.39145ZM79.5539 10.8643L73.1323 17.2859L73.8696 18.0233L80.2913 11.6016L79.5539 10.8643ZM73.8696 17.2859L67.2287 10.645L66.4914 11.3824L73.1323 18.0233L73.8696 17.2859ZM67.2289 11.3822L73.6506 4.95427L72.9128 4.21729L66.4912 10.6452L67.2289 11.3822ZM73.6503 4.95451C76.4897 2.11598 80.3402 0.521379 84.3551 0.521379V-0.521379C80.0637 -0.521379 75.948 1.18304 72.9131 4.21706L73.6503 4.95451ZM84.3551 0.521379C88.37 0.521379 92.2205 2.11598 95.0599 4.95451L95.7971 4.21706C92.7622 1.18304 88.6465 -0.521379 84.3551 -0.521379V0.521379ZM95.0599 4.95445L119.901 29.7953L120.638 29.0579L95.7972 4.21711L95.0599 4.95445ZM119.901 29.7952C122.739 32.6346 124.334 36.4851 124.334 40.5H125.376C125.376 36.2086 123.672 32.0929 120.638 29.058L119.901 29.7952ZM124.334 40.5C124.334 44.5149 122.739 48.3654 119.901 51.2048L120.638 51.942C123.672 48.9071 125.376 44.7914 125.376 40.5H124.334ZM119.901 51.2048L95.0599 76.0455L95.7972 76.7829L120.638 51.9421L119.901 51.2048ZM95.0599 76.0455C92.2205 78.884 88.37 80.4786 84.3551 80.4786V81.5214C88.6465 81.5214 92.7622 79.817 95.7971 76.7829L95.0599 76.0455ZM84.3551 80.4786C80.3402 80.4786 76.4897 78.884 73.6503 76.0455L72.9131 76.7829C75.948 79.817 80.0637 81.5214 84.3551 81.5214V80.4786ZM29.0579 4.21711L4.21711 29.0579L4.95445 29.7953L29.7952 4.95445L29.0579 4.21711ZM4.21705 29.058C1.18304 32.0929 -0.521379 36.2086 -0.521379 40.5H0.521379C0.521379 36.4851 2.11598 32.6346 4.95451 29.7952L4.21705 29.058ZM-0.521379 40.5C-0.521379 44.7914 1.18304 48.9071 4.21705 51.942L4.95451 51.2048C2.11598 48.3654 0.521379 44.5149 0.521379 40.5H-0.521379ZM4.21711 51.9421L29.0579 76.7829L29.7952 76.0455L4.95445 51.2048L4.21711 51.9421ZM29.058 76.7829C32.0929 79.817 36.2086 81.5214 40.5 81.5214V80.4786C36.4851 80.4786 32.6346 78.884 29.7952 76.0455L29.058 76.7829ZM40.5 81.5214C44.7914 81.5214 48.9071 79.817 51.942 76.7829L51.2048 76.0455C48.3654 78.884 44.5149 80.4786 40.5 80.4786V81.5214ZM51.9421 76.7829L76.7829 51.9421L76.0455 51.2048L51.2047 76.0455L51.9421 76.7829ZM76.7829 51.942C79.8169 48.9071 81.5214 44.7914 81.5214 40.5H80.4786C80.4786 44.5149 78.884 48.3654 76.0455 51.2048L76.7829 51.942ZM81.5214 40.5C81.5214 36.2086 79.8169 32.0929 76.7829 29.058L76.0455 29.7952C78.884 32.6346 80.4786 36.4851 80.4786 40.5H81.5214ZM76.7829 29.0579L51.9421 4.21711L51.2047 4.95445L76.0455 29.7953L76.7829 29.0579ZM51.942 4.21706C48.9071 1.18304 44.7914 -0.521379 40.5 -0.521379V0.521379C44.5149 0.521379 48.3654 2.11598 51.2048 4.95451L51.942 4.21706ZM40.5 -0.521379C36.2086 -0.521379 32.0929 1.18304 29.058 4.21706L29.7952 4.95451C32.6346 2.11598 36.4851 0.521379 40.5 0.521379V-0.521379ZM11.6016 36.4424L36.4424 11.6016L35.7051 10.8643L10.8643 35.7051L11.6016 36.4424ZM36.4424 11.6017C37.5195 10.5249 38.9801 9.92003 40.5031 9.92003V8.87727C38.7036 8.87727 36.9778 9.59199 35.7051 10.8642L36.4424 11.6017ZM40.5031 9.92003C42.0261 9.92003 43.4868 10.5249 44.5639 11.6017L45.3011 10.8642C44.0285 9.59199 42.3026 8.87727 40.5031 8.87727V9.92003ZM44.5638 11.6016L69.3983 36.4424L70.1357 35.7051L45.3012 10.8643L44.5638 11.6016ZM69.3983 36.4424C70.4751 37.5195 71.0799 38.9801 71.0799 40.5031H72.1227C72.1227 38.7036 71.408 36.9778 70.1357 35.7052L69.3983 36.4424ZM71.0799 40.5031C71.0799 42.0261 70.4751 43.4868 69.3983 44.5639L70.1357 45.3011C71.408 44.0285 72.1227 42.3026 72.1227 40.5031H71.0799ZM69.3984 44.5638L44.5639 69.3921L45.3011 70.1295L70.1356 45.3012L69.3984 44.5638ZM44.5639 69.392C43.4868 70.4688 42.0261 71.0737 40.5031 71.0737V72.1165C42.3026 72.1165 44.0285 71.4017 45.3011 70.1295L44.5639 69.392ZM40.5031 71.0737C38.9801 71.0737 37.5195 70.4688 36.4424 69.392L35.7051 70.1295C36.9778 71.4017 38.7036 72.1165 40.5031 72.1165V71.0737ZM36.4424 69.3921L11.6016 44.5575L10.8643 45.295L35.7051 70.1295L36.4424 69.3921ZM11.6014 44.5574C11.0674 44.0239 10.6438 43.3905 10.3547 42.6932L9.39144 43.0925C9.73296 43.9164 10.2335 44.6648 10.8645 45.2951L11.6014 44.5574ZM10.3547 42.6932C10.0657 41.9959 9.9169 41.2485 9.9169 40.4937H8.87414C8.87414 41.3856 9.04992 42.2687 9.39144 43.0925L10.3547 42.6932ZM9.9169 40.4937C9.9169 39.7389 10.0657 38.9915 10.3547 38.2943L9.39144 37.895C9.04992 38.7188 8.87414 39.6019 8.87414 40.4937H9.9169ZM10.3547 38.2943C10.6438 37.597 11.0674 36.9635 11.6014 36.4301L10.8645 35.6924C10.2335 36.3226 9.73297 37.0711 9.39144 37.895L10.3547 38.2943Z" fill="url(#paint1_linear_2216_87)" mask="url(#path-1-inside-1_2216_87)"/>
</g>
<g id="Rectangle 2809" filter="url(#filter1_b_2216_87)">
<rect x="16.8699" y="40.1899" width="34.0155" height="34.0155" transform="rotate(-45 16.8699 40.1899)" fill="url(#paint2_linear_2216_87)"/>
<rect x="17.2385" y="40.1899" width="33.4942" height="33.4942" transform="rotate(-45 17.2385 40.1899)" stroke="url(#paint3_linear_2216_87)" stroke-width="0.521379"/>
</g>
</g>
<defs>
<filter id="filter0_b_2216_87" x="-7.04188" y="-7.04188" width="138.939" height="95.0838" filterUnits="userSpaceOnUse" color-interpolation-filters="sRGB">
<feFlood flood-opacity="0" result="BackgroundImageFix"/>
<feGaussianBlur in="BackgroundImageFix" stdDeviation="3.52094"/>
<feComposite in2="SourceAlpha" operator="in" result="effect1_backgroundBlur_2216_87"/>
<feBlend mode="normal" in="SourceGraphic" in2="effect1_backgroundBlur_2216_87" result="shape"/>
</filter>
<filter id="filter1_b_2216_87" x="9.828" y="9.09545" width="62.189" height="62.189" filterUnits="userSpaceOnUse" color-interpolation-filters="sRGB">
<feFlood flood-opacity="0" result="BackgroundImageFix"/>
<feGaussianBlur in="BackgroundImageFix" stdDeviation="3.52094"/>
<feComposite in2="SourceAlpha" operator="in" result="effect1_backgroundBlur_2216_87"/>
<feBlend mode="normal" in="SourceGraphic" in2="effect1_backgroundBlur_2216_87" result="shape"/>
</filter>
<linearGradient id="paint0_linear_2216_87" x1="50.3407" y1="0.000113232" x2="130.717" y2="38.7611" gradientUnits="userSpaceOnUse">
<stop stop-color="#4C525B"/>
<stop offset="1" stop-color="#41464D"/>
</linearGradient>
<linearGradient id="paint1_linear_2216_87" x1="-15.8701" y1="46.5902" x2="140.82" y2="46.5902" gradientUnits="userSpaceOnUse">
<stop stop-color="#262C33"/>
<stop offset="1" stop-color="#8A97A4" stop-opacity="0"/>
</linearGradient>
<linearGradient id="paint2_linear_2216_87" x1="30.5847" y1="40.19" x2="55.1687" y2="47.8812" gradientUnits="userSpaceOnUse">
<stop stop-color="#4C525B"/>
<stop offset="1" stop-color="#41464D"/>
</linearGradient>
<linearGradient id="paint3_linear_2216_87" x1="12.5462" y1="59.7553" x2="55.235" y2="59.7553" gradientUnits="userSpaceOnUse">
<stop stop-color="#262C33"/>
<stop offset="1" stop-color="#8A97A4" stop-opacity="0"/>
</linearGradient>
</defs>
</svg>
