<svg xmlns="http://www.w3.org/2000/svg" width="64" height="22" viewBox="0 0 64 22" fill="none">
    <path fill-rule="evenodd" clip-rule="evenodd"
        d="M7.54753 10.1999V5.78776C8.94443 6.04469 10.5092 6.20241 12.2681 6.20241C14.027 6.20241 15.5913 6.04469 16.9887 5.78776V10.1999H7.54753ZM12.2681 16.4768C10.5092 16.4768 8.94443 16.6345 7.54753 16.8919V12.4793H16.9887V16.8919C15.5913 16.6345 14.027 16.4768 12.2681 16.4768ZM20.1828 4.93809C20.2021 4.93097 20.221 4.92334 20.2404 4.91621C21.6497 4.40845 22.8023 3.80554 23.7195 3.20925C24.155 2.92636 24.4107 2.42827 24.4107 1.90015C24.4107 1.0454 23.4806 0.54628 22.7913 1.02759C21.7475 1.75667 20.2726 2.53715 18.2744 3.09274C18.2138 3.10953 18.1562 3.12784 18.0951 3.14412C17.8185 3.2179 17.53 3.28607 17.2335 3.35018C17.1436 3.37002 17.0513 3.38783 16.9599 3.40615C16.7141 3.45652 16.4613 3.50231 16.2021 3.54504C16.1231 3.55776 16.0462 3.57201 15.9657 3.58422C15.6285 3.6351 15.2809 3.68038 14.9209 3.71803C14.8588 3.72413 14.7943 3.72871 14.7312 3.73482C14.4198 3.76484 14.099 3.78875 13.7703 3.80758C13.6774 3.81266 13.5846 3.81826 13.4902 3.82233C13.0939 3.84014 12.6892 3.85235 12.2681 3.85235C11.848 3.85235 11.4448 3.84014 11.05 3.82233C10.9512 3.81826 10.8548 3.81266 10.7585 3.80707C10.4421 3.78875 10.1338 3.76586 9.83382 3.73685C9.75685 3.72973 9.67839 3.72413 9.60291 3.7165C9.2548 3.67987 8.9196 3.63612 8.59285 3.58676C8.48509 3.57048 8.3818 3.55217 8.27602 3.53436C8.05703 3.49773 7.843 3.45855 7.63393 3.41683C7.50829 3.3919 7.38216 3.36697 7.26 3.34C7.04796 3.2932 6.84237 3.24334 6.64075 3.19195C6.45404 3.14412 6.27328 3.09426 6.095 3.04288C4.18512 2.49186 2.76487 1.73632 1.74984 1.02962C1.05809 0.547298 0.125 1.04387 0.125 1.90117C0.125 2.42878 0.380247 2.92586 0.814763 3.20874C1.73097 3.80401 2.88107 4.4059 4.28741 4.91316C4.31075 4.92181 4.3331 4.93097 4.35743 4.93962C4.639 5.03985 4.93348 5.13448 5.23441 5.22708V10.1999H4.21243C3.75755 10.1999 3.38859 10.5779 3.38859 11.044C3.38859 11.8367 4.01628 12.4793 4.78947 12.4793H5.23441V17.4521C4.93348 17.5447 4.639 17.6398 4.35743 17.7396C4.3331 17.7482 4.31075 17.7574 4.28741 17.7665C2.88107 18.2738 1.73097 18.8752 0.814763 19.4709C0.380247 19.7533 0.125 20.2504 0.125 20.7785C0.125 21.6353 1.05809 22.1319 1.74984 21.6501C2.76487 20.9429 4.18512 20.1878 6.095 19.6363C6.27328 19.5849 6.45404 19.5351 6.64075 19.4872C6.84237 19.4358 7.04796 19.386 7.26 19.3392C7.38216 19.3122 7.50829 19.2873 7.63393 19.2623C7.843 19.2206 8.05703 19.1815 8.27602 19.1453C8.3818 19.1275 8.48509 19.1087 8.59285 19.0924C8.9196 19.0431 9.2548 18.9993 9.60291 18.9632C9.67839 18.955 9.75685 18.9494 9.83382 18.9423C10.1338 18.9138 10.4421 18.8904 10.7585 18.8721C10.8548 18.867 10.9512 18.8614 11.05 18.8568C11.4448 18.839 11.848 18.8268 12.2681 18.8268C12.6892 18.8268 13.0939 18.839 13.4902 18.8568C13.5846 18.8609 13.6774 18.8665 13.7703 18.8716C14.099 18.8904 14.4198 18.9143 14.7312 18.9444C14.7943 18.9505 14.8588 18.955 14.9209 18.9611C15.2809 18.9988 15.6285 19.0441 15.9657 19.0955C16.0462 19.1077 16.1231 19.1214 16.2021 19.1346C16.4613 19.1769 16.7141 19.2232 16.9599 19.273C17.0513 19.2913 17.1436 19.3097 17.2335 19.329C17.53 19.3931 17.8185 19.4613 18.0951 19.5351C18.1562 19.5513 18.2138 19.5702 18.2744 19.5864C20.2726 20.1425 21.7475 20.923 22.7913 21.6521C23.4806 22.1334 24.4107 21.6343 24.4107 20.7795C24.4107 20.2509 24.155 19.7528 23.7195 19.4699C22.8023 18.8736 21.6497 18.2707 20.2404 17.763C20.221 17.7558 20.2021 17.7482 20.1828 17.7416C19.9002 17.6409 19.6042 17.5452 19.3013 17.4521V12.4793H20.3233C20.7782 12.4793 21.1471 12.1012 21.1471 11.6352C21.1471 10.8425 20.5199 10.1999 19.7458 10.1999H19.3013V5.22708C19.6042 5.13448 19.9002 5.03883 20.1828 4.93809Z"
        fill="url(#paint0_linear_2587_157255)" />
    <path fill-rule="evenodd" clip-rule="evenodd"
        d="M36.3205 5.54297H32.3711C32.1148 5.54297 31.8984 5.76798 31.8984 6.03441V6.94532C31.8984 7.21175 32.1147 7.43676 32.3639 7.43663L33.3362 7.4641V16.0998L32.3711 16.1134C32.1148 16.1134 31.8984 16.3384 31.8984 16.6049V17.5329C31.8984 17.7786 32.0818 17.9842 32.3345 18.0218L32.3526 18.0245H36.3389L36.357 18.0218C36.6097 17.9842 36.793 17.7786 36.793 17.5329V16.6049C36.793 16.3384 36.5765 16.1134 36.324 16.1134L35.3554 16.0998V7.46397L36.3205 7.43676C36.5765 7.43676 36.793 7.21175 36.793 6.94532V6.03441C36.793 5.76798 36.5765 5.54297 36.3205 5.54297Z"
        fill="white" />
    <mask id="mask0_2587_157255" style="mask-type:luminance" maskUnits="userSpaceOnUse" x="37" y="5" width="11"
        height="14">
        <path d="M37.1016 5.46094H47.7392V18.0609H37.1016V5.46094Z" fill="white" />
    </mask>
    <g mask="url(#mask0_2587_157255)">
        <path fill-rule="evenodd" clip-rule="evenodd"
            d="M46.8792 14.7489C46.7784 14.6439 46.6398 14.5839 46.4987 14.5839C46.3714 14.5839 46.2523 14.6324 46.1619 14.7208C45.3761 15.39 44.4252 15.7435 43.4112 15.7435C41.4425 15.7435 39.3801 14.2961 39.3366 11.8731C39.3121 10.6876 39.6747 9.66184 40.3852 8.90705C41.082 8.16647 42.0483 7.75853 43.1058 7.75853C44.1539 7.75853 45.1796 8.15589 46.0665 8.90276C46.1623 8.988 46.2831 9.03504 46.407 9.03504C46.5606 9.03504 46.7074 8.96374 46.8024 8.84808L47.5239 8.04639C47.737 7.82433 47.7298 7.46918 47.4992 7.22983C46.3041 6.08908 44.7766 5.46094 43.198 5.46094C41.533 5.46094 39.924 6.1518 38.7839 7.35634C37.6575 8.54628 37.0761 10.1057 37.1024 11.8644C37.1386 15.7431 40.2946 18.061 43.3249 18.061C44.9082 18.061 46.4151 17.4363 47.5735 16.2965C47.7876 16.0735 47.7947 15.7185 47.5918 15.5073L46.8792 14.7489Z"
            fill="white" />
    </g>
    <path fill-rule="evenodd" clip-rule="evenodd"
        d="M56.9375 5.49219H55.9295C55.6555 5.49219 55.4247 5.72028 55.3924 6.02289L55.391 6.0363L55.3438 11.0258L51.194 11.0103L51.1468 6.0363L51.1454 6.02289C51.1131 5.72028 50.8822 5.49219 50.6082 5.49219H49.6004C49.3124 5.49219 49.0781 5.74347 49.0781 6.05238V17.4994C49.0781 17.8136 49.3075 18.0596 49.6004 18.0596H50.6082C50.8899 18.0596 51.1159 17.8353 51.1457 17.526L51.1468 17.5143L51.1936 13.1267H55.3442L55.391 17.5143L55.3921 17.526C55.4218 17.8353 55.6478 18.0596 55.9295 18.0596H56.9375C57.2302 18.0596 57.4596 17.8136 57.4596 17.4994V6.05238C57.4596 5.74347 57.2253 5.49219 56.9375 5.49219Z"
        fill="white" />
    <mask id="mask1_2587_157255" style="mask-type:luminance" maskUnits="userSpaceOnUse" x="58" y="5" width="6"
        height="14">
        <path d="M58.9766 5.54297H63.8711V18.0244H58.9766V5.54297Z" fill="white" />
    </mask>
    <g mask="url(#mask1_2587_157255)">
        <path fill-rule="evenodd" clip-rule="evenodd"
            d="M63.3986 7.43676C63.6547 7.43676 63.8711 7.21175 63.8711 6.94532V6.03441C63.8711 5.76798 63.6547 5.54297 63.3986 5.54297H59.4492C59.1929 5.54297 58.9766 5.76798 58.9766 6.03441V6.94532C58.9766 7.21161 59.1928 7.43676 59.442 7.43663L60.4143 7.4641V16.0998L59.4492 16.1133C59.1929 16.1133 58.9766 16.3384 58.9766 16.6049V17.5329C58.9766 17.7786 59.1599 17.9842 59.4126 18.0217L59.4308 18.0244H63.4171L63.4351 18.0217C63.6878 17.9842 63.8711 17.7786 63.8711 17.5329V16.6049C63.8711 16.3384 63.6547 16.1133 63.4021 16.1133L62.4334 16.0998V7.46397L63.3986 7.43676Z"
            fill="white" />
    </g>
    <defs>
        <linearGradient id="paint0_linear_2587_157255" x1="1214.41" y1="0.839844" x2="1214.41" y2="2100.84"
            gradientUnits="userSpaceOnUse">
            <stop stop-color="#006EF5" />
            <stop offset="1" stop-color="#0062DB" />
        </linearGradient>
    </defs>
</svg>