<svg width="24" height="24" viewBox="0 0 24 24" fill="none" xmlns="http://www.w3.org/2000/svg">
<g opacity="0.5">
<path d="M10.6892 12.7563C10.6203 12.654 10.6412 12.5635 10.6674 12.4768C10.7459 12.2183 10.827 11.9607 10.9081 11.7022C10.9962 11.4209 11.0834 11.1396 11.1742 10.8601C11.2448 10.6418 11.2771 10.6199 11.4934 10.6208C13.6451 10.6217 15.7968 10.6217 17.9476 10.6254C18.0662 10.6254 18.1413 10.6016 18.1796 10.4637C18.2433 10.2345 18.334 10.0134 18.4064 9.78692C18.5146 9.4508 18.6201 9.11286 18.7221 8.77492C18.7876 8.56028 18.8434 8.3429 18.907 8.12735C18.9341 8.03418 18.9733 7.94559 18.9995 7.85242C19.0527 7.66244 18.9951 7.58663 18.805 7.58663C13.345 7.58663 7.88597 7.58664 2.42602 7.58846C2.28647 7.58846 2.14692 7.60856 2.00126 7.61952C1.98993 7.51631 2.05708 7.47247 2.11378 7.42771C2.6903 6.97925 3.26857 6.53171 3.84596 6.08416C4.27159 5.75535 4.69635 5.42562 5.12285 5.09864C5.2092 5.03288 5.30427 5.00091 5.41678 5.00091C10.1179 5.00456 14.8191 5.00639 19.5202 5C19.7539 5 19.9327 5.06941 20.1124 5.2119C20.5834 5.58638 21.0622 5.94807 21.5385 6.31524C21.6527 6.40292 21.7687 6.48786 21.8821 6.57646C22.0077 6.6751 22.0251 6.77922 21.9711 6.93084C21.8873 7.16466 21.8141 7.40305 21.7365 7.63961C21.6344 7.95107 21.5289 8.2607 21.4312 8.57307C21.3579 8.80597 21.2951 9.04253 21.2262 9.27727C21.1591 9.50378 21.0928 9.7312 21.0204 9.95589C20.9672 10.1212 20.8669 10.2436 20.7116 10.3222C20.3235 10.5167 19.9389 10.7185 19.5542 10.9195C19.1356 11.1378 18.7187 11.3579 18.3 11.5753C18.1683 11.6438 18.0314 11.7004 17.8997 11.7698C17.8482 11.7972 17.8063 11.8447 17.7496 11.8904C17.7889 11.9452 17.8107 11.9945 17.8473 12.0228C18.3131 12.3836 18.7806 12.7407 19.2472 13.0988C19.4051 13.2202 19.5594 13.3481 19.7243 13.4586C19.8542 13.5454 19.8708 13.6541 19.8272 13.792C19.7138 14.1546 19.6022 14.5181 19.4905 14.8816C19.3824 15.2315 19.276 15.5822 19.167 15.932C19.0728 16.2325 18.9751 16.5321 18.8791 16.8317C18.8381 16.9595 18.8076 17.0929 18.7518 17.2135C18.7195 17.2838 18.6567 17.355 18.5904 17.3906C18.1971 17.6044 17.7985 17.809 17.4008 18.0136C16.86 18.2921 16.314 18.5607 15.7776 18.8493C15.5779 18.9561 15.379 19.0009 15.1583 19C11.3277 18.9972 7.49697 18.9982 3.66716 18.9982C3.60523 18.9982 3.54244 18.9982 3.48051 18.9982C3.24327 18.9954 3.20926 18.9342 3.28514 18.7059C3.36625 18.462 3.42731 18.2118 3.50057 17.9652C3.55203 17.7925 3.60959 17.6226 3.6628 17.4509C3.74391 17.187 3.82154 16.9212 3.90352 16.6572C3.95324 16.4983 4.01342 16.3421 4.06139 16.1823C4.12593 15.9676 4.18175 15.7503 4.24281 15.5338C4.28467 15.3858 4.32654 15.2379 4.37189 15.0908C4.44865 14.8387 4.52802 14.5866 4.60564 14.3345C4.66059 14.1564 4.71467 13.9774 4.77049 13.7993C4.85422 13.5308 4.93882 13.2623 5.02255 12.9937C5.10454 12.7307 5.18827 12.4685 5.26677 12.2046C5.33044 11.989 5.38626 11.7707 5.44644 11.5534C5.48656 11.4109 5.52843 11.2684 5.57204 11.1268C5.69938 10.7085 5.82584 10.2902 5.9558 9.87369C6.05872 9.54397 6.17211 9.21698 6.27328 8.88726C6.32736 8.71007 6.36835 8.5274 6.41283 8.34655C6.45557 8.17119 6.53058 8.14744 6.67362 8.25978C7.18647 8.65984 7.70107 9.05806 8.21479 9.45811C8.32818 9.54671 8.44069 9.63713 8.5532 9.72755C8.67444 9.82437 8.67444 9.86182 8.62211 10.0162C8.54884 10.229 8.49128 10.4473 8.42586 10.6628C8.36219 10.8711 8.29503 11.0784 8.23223 11.2876C8.17729 11.4721 8.12932 11.6593 8.07262 11.8429C8.02029 12.0155 7.96011 12.1845 7.90603 12.3562C7.83015 12.5955 7.75776 12.8357 7.68362 13.075C7.58332 13.4002 7.4804 13.7253 7.38184 14.0514C7.32428 14.2414 7.27543 14.4341 7.21874 14.6241C7.16903 14.7903 7.11408 14.9547 7.06262 15.12C6.97802 15.3904 6.89429 15.6607 6.81055 15.932C6.78352 16.0179 6.74688 16.1019 6.73467 16.1905C6.72072 16.291 6.76258 16.3311 6.86027 16.343C6.8908 16.3467 6.9222 16.343 6.95359 16.343C10.0255 16.343 13.0973 16.343 16.1692 16.3439C16.3297 16.3439 16.3986 16.2974 16.437 16.1613C16.4937 15.9631 16.5486 15.763 16.6088 15.5658C16.6856 15.3146 16.7658 15.0634 16.8452 14.8131C16.9926 14.3482 17.1417 13.8843 17.2882 13.4184C17.3345 13.2714 17.3737 13.1225 17.4191 12.9745C17.4723 12.7983 17.4435 12.7553 17.2595 12.7553C16.5565 12.7553 15.8544 12.7553 15.1514 12.7553C13.7332 12.7553 12.3159 12.7553 10.8977 12.7553C10.8244 12.7553 10.7503 12.7553 10.6883 12.7553L10.6892 12.7563Z" fill="white"/>
</g>
</svg>
