<svg width="906" height="920" viewBox="0 0 906 920" fill="none" xmlns="http://www.w3.org/2000/svg">
<g filter="url(#filter0_f_1839_1138)">
<ellipse cx="453" cy="460" rx="132" ry="139" fill="url(#paint0_linear_1839_1138)" fill-opacity="0.5"/>
</g>
<g filter="url(#filter1_b_1839_1138)">
<circle cx="445.869" cy="462.868" r="124.454" fill="url(#paint1_linear_1839_1138)" fill-opacity="0.4"/>
<circle cx="445.869" cy="462.868" r="123.691" stroke="url(#paint2_linear_1839_1138)" stroke-width="1.52705"/>
</g>
<g clip-path="url(#clip0_1839_1138)">
<path d="M399.488 439.603C415.624 449.242 439.149 462.448 439.149 462.448L434.818 449.794C434.818 449.794 390.868 428.52 384.839 419.603C384.881 419.645 383.395 429.921 399.488 439.603Z" fill="url(#paint3_linear_1839_1138)"/>
<path d="M481.402 449.242L452.655 466.652L445.861 483.467L439.152 466.949L410.404 449.539C410.404 449.539 375.924 428.86 373.334 420.792C373.334 420.792 373.928 436.588 386.837 445.505C399.746 454.423 433.674 473.361 433.674 473.361L445.733 504.784V505.251L445.818 505.038L446.031 505.548V504.529L458.09 473.106C458.09 473.106 491.976 454.125 504.927 445.251C517.878 436.376 518.43 420.537 518.43 420.537C515.882 428.563 481.402 449.242 481.402 449.242Z" fill="url(#paint4_linear_1839_1138)"/>
<path d="M492.357 439.306C508.493 429.667 507.007 419.348 507.007 419.348C500.977 428.265 456.985 449.539 456.985 449.539L452.696 462.193C452.696 462.151 476.263 448.945 492.357 439.306Z" fill="url(#paint5_linear_1839_1138)"/>
<path d="M454.394 449.794L445.774 433.913L437.154 449.794L445.774 478.796L454.394 449.794Z" fill="url(#paint6_linear_1839_1138)"/>
<path d="M433.162 477.65L398.937 457.268C398.937 457.268 398.385 477.947 433.162 477.65Z" fill="url(#paint7_linear_1839_1138)"/>
<path d="M458.434 477.65C493.211 477.947 492.659 457.268 492.659 457.268L458.434 477.65Z" fill="url(#paint8_linear_1839_1138)"/>
</g>
<circle opacity="0.5" cx="445.5" cy="462.5" r="324.901" stroke="url(#paint9_linear_1839_1138)" stroke-width="1.1989"/>
<circle opacity="0.5" cx="444.901" cy="463.099" r="253.566" stroke="url(#paint10_linear_1839_1138)" stroke-width="1.1989"/>
<circle opacity="0.5" cx="444.901" cy="463.1" r="172.041" stroke="url(#paint11_linear_1839_1138)" stroke-width="1.1989"/>
<defs>
<filter id="filter0_f_1839_1138" x="0.700012" y="0.700012" width="904.6" height="918.6" filterUnits="userSpaceOnUse" color-interpolation-filters="sRGB">
<feFlood flood-opacity="0" result="BackgroundImageFix"/>
<feBlend mode="normal" in="SourceGraphic" in2="BackgroundImageFix" result="shape"/>
<feGaussianBlur stdDeviation="160.15" result="effect1_foregroundBlur_1839_1138"/>
</filter>
<filter id="filter1_b_1839_1138" x="229.791" y="246.791" width="432.155" height="432.154" filterUnits="userSpaceOnUse" color-interpolation-filters="sRGB">
<feFlood flood-opacity="0" result="BackgroundImageFix"/>
<feGaussianBlur in="BackgroundImageFix" stdDeviation="45.8114"/>
<feComposite in2="SourceAlpha" operator="in" result="effect1_backgroundBlur_1839_1138"/>
<feBlend mode="normal" in="SourceGraphic" in2="effect1_backgroundBlur_1839_1138" result="shape"/>
</filter>
<linearGradient id="paint0_linear_1839_1138" x1="453" y1="321.7" x2="730.032" y2="405.978" gradientUnits="userSpaceOnUse">
<stop stop-color="#FE5403"/>
<stop offset="1" stop-color="#E71505"/>
</linearGradient>
<linearGradient id="paint1_linear_1839_1138" x1="421.773" y1="338.414" x2="601.666" y2="394.695" gradientUnits="userSpaceOnUse">
<stop stop-color="#292D32"/>
<stop offset="1" stop-color="#7B8A98"/>
</linearGradient>
<linearGradient id="paint2_linear_1839_1138" x1="289.776" y1="481.583" x2="602.151" y2="481.583" gradientUnits="userSpaceOnUse">
<stop stop-color="#262C33"/>
<stop offset="1" stop-color="#718599" stop-opacity="0"/>
</linearGradient>
<linearGradient id="paint3_linear_1839_1138" x1="386.165" y1="454.846" x2="492.196" y2="398.253" gradientUnits="userSpaceOnUse">
<stop stop-color="#E71505"/>
<stop offset="0.7318" stop-color="#FFB400"/>
<stop offset="1" stop-color="#FFF888"/>
</linearGradient>
<linearGradient id="paint4_linear_1839_1138" x1="394.849" y1="471.111" x2="500.88" y2="414.517" gradientUnits="userSpaceOnUse">
<stop stop-color="#E71505"/>
<stop offset="0.7318" stop-color="#FFB400"/>
<stop offset="1" stop-color="#FFF888"/>
</linearGradient>
<linearGradient id="paint5_linear_1839_1138" x1="401.083" y1="482.791" x2="507.114" y2="426.198" gradientUnits="userSpaceOnUse">
<stop stop-color="#E71505"/>
<stop offset="0.065186" stop-color="#E92305"/>
<stop offset="0.7318" stop-color="#FFB400"/>
<stop offset="1" stop-color="#FFF888"/>
</linearGradient>
<linearGradient id="paint6_linear_1839_1138" x1="400.008" y1="480.779" x2="506.039" y2="424.186" gradientUnits="userSpaceOnUse">
<stop stop-color="#E71505"/>
<stop offset="0.7318" stop-color="#FFB400"/>
<stop offset="1" stop-color="#FFF888"/>
</linearGradient>
<linearGradient id="paint7_linear_1839_1138" x1="397.679" y1="477.267" x2="503.71" y2="420.674" gradientUnits="userSpaceOnUse">
<stop stop-color="#E71505"/>
<stop offset="0.7318" stop-color="#FFB400"/>
<stop offset="1" stop-color="#FFF888"/>
</linearGradient>
<linearGradient id="paint8_linear_1839_1138" x1="412.504" y1="505.03" x2="518.535" y2="448.437" gradientUnits="userSpaceOnUse">
<stop stop-color="#E71505"/>
<stop offset="0.7318" stop-color="#FFB400"/>
<stop offset="1" stop-color="#FFF888"/>
</linearGradient>
<linearGradient id="paint9_linear_1839_1138" x1="685.303" y1="185.181" x2="120" y2="729.888" gradientUnits="userSpaceOnUse">
<stop offset="0.0800561" stop-color="white" stop-opacity="0"/>
<stop offset="0.525" stop-color="white"/>
<stop offset="0.793891" stop-color="white" stop-opacity="0"/>
</linearGradient>
<linearGradient id="paint10_linear_1839_1138" x1="632.15" y1="246.556" x2="190.735" y2="671.889" gradientUnits="userSpaceOnUse">
<stop offset="0.0800561" stop-color="white" stop-opacity="0"/>
<stop offset="0.525" stop-color="white"/>
<stop offset="0.793891" stop-color="white" stop-opacity="0"/>
</linearGradient>
<linearGradient id="paint11_linear_1839_1138" x1="572.089" y1="316.014" x2="272.26" y2="604.919" gradientUnits="userSpaceOnUse">
<stop offset="0.0800561" stop-color="white" stop-opacity="0"/>
<stop offset="0.525" stop-color="white"/>
<stop offset="0.793891" stop-color="white" stop-opacity="0"/>
</linearGradient>
<clipPath id="clip0_1839_1138">
<rect width="145.096" height="86.1999" fill="white" transform="translate(373.334 419.348)"/>
</clipPath>
</defs>
</svg>
