<svg width="350" height="188" viewBox="0 0 350 188" fill="none" xmlns="http://www.w3.org/2000/svg">
<g filter="url(#filter0_b_4712_56562)">
<mask id="path-1-inside-1_4712_56562" fill="white">
<path fill-rule="evenodd" clip-rule="evenodd" d="M0 178C0 183.523 4.47715 188 10 188H340C345.523 188 350 183.523 350 178V28C350 22.4772 345.523 18 340 18H228.999C224.524 18 220.594 15.0272 219.376 10.7214L218.402 7.27864C217.185 2.97275 213.254 0 208.78 0H31.2203C26.7455 0 22.8155 2.97275 21.5977 7.27864L20.6241 10.7214C19.4063 15.0272 15.4763 18 11.0015 18H10C4.47715 18 0 22.4772 0 28V178Z"/>
</mask>
<path fill-rule="evenodd" clip-rule="evenodd" d="M0 178C0 183.523 4.47715 188 10 188H340C345.523 188 350 183.523 350 178V28C350 22.4772 345.523 18 340 18H228.999C224.524 18 220.594 15.0272 219.376 10.7214L218.402 7.27864C217.185 2.97275 213.254 0 208.78 0H31.2203C26.7455 0 22.8155 2.97275 21.5977 7.27864L20.6241 10.7214C19.4063 15.0272 15.4763 18 11.0015 18H10C4.47715 18 0 22.4772 0 28V178Z" fill="#202327" fill-opacity="0.4"/>
<path d="M20.6241 10.7214L21.5863 10.9935L20.6241 10.7214ZM21.5977 7.27864L20.6355 7.0065L21.5977 7.27864ZM218.402 7.27864L217.44 7.55077L218.402 7.27864ZM219.376 10.7214L220.338 10.4492L219.376 10.7214ZM340 187H10V189H340V187ZM349 28V178H351V28H349ZM228.999 19H340V17H228.999V19ZM220.338 10.4492L219.365 7.0065L217.44 7.55077L218.414 10.9935L220.338 10.4492ZM208.78 -1H31.2203V1H208.78V-1ZM20.6355 7.0065L19.6618 10.4492L21.5863 10.9935L22.56 7.55077L20.6355 7.0065ZM10 19H11.0015V17H10V19ZM1 178V28H-1V178H1ZM10 17C3.92487 17 -1 21.9249 -1 28H1C1 23.0294 5.02944 19 10 19V17ZM19.6618 10.4492C18.5659 14.3245 15.0288 17 11.0015 17V19C15.9237 19 20.2468 15.73 21.5863 10.9935L19.6618 10.4492ZM31.2203 -1C26.2981 -1 21.975 2.27003 20.6355 7.0065L22.56 7.55077C23.6559 3.67548 27.193 1 31.2203 1V-1ZM219.365 7.0065C218.025 2.27003 213.702 -1 208.78 -1V1C212.807 1 216.344 3.67548 217.44 7.55077L219.365 7.0065ZM228.999 17C224.971 17 221.434 14.3245 220.338 10.4492L218.414 10.9935C219.753 15.73 224.076 19 228.999 19V17ZM351 28C351 21.9249 346.075 17 340 17V19C344.971 19 349 23.0294 349 28H351ZM10 187C5.02944 187 1 182.971 1 178H-1C-1 184.075 3.92487 189 10 189V187ZM340 189C346.075 189 351 184.075 351 178H349C349 182.971 344.971 187 340 187V189Z" fill="#262C33" mask="url(#path-1-inside-1_4712_56562)"/>
</g>
<defs>
<filter id="filter0_b_4712_56562" x="-10" y="-10" width="370" height="208" filterUnits="userSpaceOnUse" color-interpolation-filters="sRGB">
<feFlood flood-opacity="0" result="BackgroundImageFix"/>
<feGaussianBlur in="BackgroundImageFix" stdDeviation="5"/>
<feComposite in2="SourceAlpha" operator="in" result="effect1_backgroundBlur_4712_56562"/>
<feBlend mode="normal" in="SourceGraphic" in2="effect1_backgroundBlur_4712_56562" result="shape"/>
</filter>
</defs>
</svg>
