<svg width="805" height="188" viewBox="0 0 805 188" fill="none" xmlns="http://www.w3.org/2000/svg">
<g filter="url(#filter0_b_4702_56365)">
<mask id="path-1-inside-1_4702_56365" fill="white">
<path fill-rule="evenodd" clip-rule="evenodd" d="M0 178C0 183.523 4.47717 188 10 188H795C800.523 188 805 183.523 805 178V28C805 22.4772 800.523 18 795 18H514.724C511.34 18 508.186 16.289 506.341 13.4526L500.549 4.54739C498.704 1.71103 495.55 0 492.166 0H59.834C56.4504 0 53.2963 1.71102 51.4513 4.54738L45.6588 13.4526C43.8138 16.289 40.6597 18 37.2761 18H10C4.47715 18 0 22.4772 0 28V178Z"/>
</mask>
<path fill-rule="evenodd" clip-rule="evenodd" d="M0 178C0 183.523 4.47717 188 10 188H795C800.523 188 805 183.523 805 178V28C805 22.4772 800.523 18 795 18H514.724C511.34 18 508.186 16.289 506.341 13.4526L500.549 4.54739C498.704 1.71103 495.55 0 492.166 0H59.834C56.4504 0 53.2963 1.71102 51.4513 4.54738L45.6588 13.4526C43.8138 16.289 40.6597 18 37.2761 18H10C4.47715 18 0 22.4772 0 28V178Z" fill="#202327" fill-opacity="0.4"/>
<path d="M45.6588 13.4526L46.497 13.9979L45.6588 13.4526ZM51.4513 4.54738L50.6131 4.00211L51.4513 4.54738ZM500.549 4.54739L499.71 5.09265L500.549 4.54739ZM506.341 13.4526L507.179 12.9073L506.341 13.4526ZM795 187H10V189H795V187ZM804 28V178H806V28H804ZM514.724 19H795V17H514.724V19ZM507.179 12.9073L501.387 4.00213L499.71 5.09265L505.503 13.9979L507.179 12.9073ZM492.166 -1H59.834V1H492.166V-1ZM50.6131 4.00211L44.8205 12.9074L46.497 13.9979L52.2896 5.09264L50.6131 4.00211ZM10 19H37.2761V17H10V19ZM1 178V28H-1V178H1ZM10 17C3.92487 17 -1 21.9249 -1 28H1C1 23.0294 5.02944 19 10 19V17ZM44.8205 12.9074C43.1601 15.4601 40.3214 17 37.2761 17V19C40.9981 19 44.4676 17.1179 46.497 13.9979L44.8205 12.9074ZM59.834 -1C56.112 -1 52.6425 0.882125 50.6131 4.00211L52.2896 5.09264C53.95 2.53992 56.7888 1 59.834 1V-1ZM501.387 4.00213C499.357 0.882129 495.888 -1 492.166 -1V1C495.211 1 498.05 2.53992 499.71 5.09265L501.387 4.00213ZM514.724 17C511.679 17 508.84 15.4601 507.179 12.9073L505.503 13.9979C507.532 17.1179 511.002 19 514.724 19V17ZM806 28C806 21.9249 801.075 17 795 17V19C799.971 19 804 23.0294 804 28H806ZM10 187C5.02945 187 1 182.971 1 178H-1C-1 184.075 3.92489 189 10 189V187ZM795 189C801.075 189 806 184.075 806 178H804C804 182.971 799.971 187 795 187V189Z" fill="#262C33" mask="url(#path-1-inside-1_4702_56365)"/>
</g>
<defs>
<filter id="filter0_b_4702_56365" x="-10" y="-10" width="825" height="208" filterUnits="userSpaceOnUse" color-interpolation-filters="sRGB">
<feFlood flood-opacity="0" result="BackgroundImageFix"/>
<feGaussianBlur in="BackgroundImageFix" stdDeviation="5"/>
<feComposite in2="SourceAlpha" operator="in" result="effect1_backgroundBlur_4702_56365"/>
<feBlend mode="normal" in="SourceGraphic" in2="effect1_backgroundBlur_4702_56365" result="shape"/>
</filter>
</defs>
</svg>
