<svg width="24" height="24" viewBox="0 0 24 24" fill="none" xmlns="http://www.w3.org/2000/svg">
<g clip-path="url(#clip0_6429_61272)">
<path d="M-0.133789 16.186H3.60521V19.9251H-0.133789V16.186Z" fill="#53606A"/>
<path fill-rule="evenodd" clip-rule="evenodd" d="M3.29367 16.4976H0.177798V19.6135H3.29367V16.4976ZM-0.133789 16.186V19.9251H3.60521V16.186H-0.133789Z" fill="#292929"/>
<path d="M23.9997 16.186H20.2607V19.9251H23.9997V16.186Z" fill="#53606A"/>
<path fill-rule="evenodd" clip-rule="evenodd" d="M20.5724 16.4976H23.6882V19.6135H20.5724V16.4976ZM23.9997 16.186V19.9251H20.2607V16.186H23.9997Z" fill="#292929"/>
<path d="M12.1045 16.186H15.8436V19.9251H12.1045V16.186Z" fill="#53606A"/>
<path fill-rule="evenodd" clip-rule="evenodd" d="M15.532 16.4976H12.4161V19.6135H15.532V16.4976ZM12.1045 16.186V19.9251H15.8436V16.186H12.1045Z" fill="#292929"/>
<path d="M12.1045 12.1353H15.8436V15.8742H12.1045V12.1353Z" fill="#53606A"/>
<path fill-rule="evenodd" clip-rule="evenodd" d="M15.532 12.4469H12.4161V15.5627H15.532V12.4469ZM12.1045 12.1353V15.8742H15.8436V12.1353H12.1045Z" fill="#292929"/>
<path d="M13.8545 12.4351H15.8407V15.8749H13.8545V12.4351Z" fill="#292929"/>
<path fill-rule="evenodd" clip-rule="evenodd" d="M15.5291 12.7467H14.1661V15.5634H15.5291V12.7467ZM13.8545 12.4351V15.8749H15.8407V12.4351H13.8545Z" fill="#292929"/>
<path d="M12.1045 8.08447H15.8436V11.8235H12.1045V8.08447Z" fill="#53606A"/>
<path fill-rule="evenodd" clip-rule="evenodd" d="M15.532 8.39602H12.4161V11.5119H15.532V8.39602ZM12.1045 8.08447V11.8235H15.8436V8.08447H12.1045Z" fill="#292929"/>
<path d="M14.0136 5.9423L15.8436 4.0332V7.77217H12.1045L14.0136 5.9423Z" fill="#53606A"/>
<path fill-rule="evenodd" clip-rule="evenodd" d="M14.234 6.16263L12.8799 7.46068H15.532V4.80856L14.234 6.16263ZM14.0136 5.9423L12.1045 7.77217H15.8436V4.0332L14.0136 5.9423Z" fill="#292929"/>
<path d="M3.94434 16.186H7.6833V19.9251H3.94434V16.186Z" fill="#53606A"/>
<path fill-rule="evenodd" clip-rule="evenodd" d="M7.37181 16.4976H4.25594V19.6135H7.37181V16.4976ZM3.94434 16.186V19.9251H7.6833V16.186H3.94434Z" fill="#292929"/>
<path d="M3.94434 12.1353H7.6833V15.8742H3.94434V12.1353Z" fill="#53606A"/>
<path fill-rule="evenodd" clip-rule="evenodd" d="M7.37181 12.4469H4.25594V15.5627H7.37181V12.4469ZM3.94434 12.1353V15.8742H7.6833V12.1353H3.94434Z" fill="#292929"/>
<path d="M3.94434 8.08447H7.6833V11.8235H3.94434V8.08447Z" fill="#53606A"/>
<path fill-rule="evenodd" clip-rule="evenodd" d="M7.37181 8.39602H4.25594V11.5119H7.37181V8.39602ZM3.94434 8.08447V11.8235H7.6833V8.08447H3.94434Z" fill="#292929"/>
<path d="M3.94434 4.0332H7.6833V7.77217H3.94434V4.0332Z" fill="#53606A"/>
<path fill-rule="evenodd" clip-rule="evenodd" d="M7.37181 4.34481H4.25594V7.46068H7.37181V4.34481ZM3.94434 4.0332V7.77217H7.6833V4.0332H3.94434Z" fill="#292929"/>
<path d="M16.1807 16.186H19.9197V19.9251H16.1807V16.186Z" fill="#53606A"/>
<path fill-rule="evenodd" clip-rule="evenodd" d="M19.6081 16.4976H16.4922V19.6135H19.6081V16.4976ZM16.1807 16.186V19.9251H19.9197V16.186H16.1807Z" fill="#292929"/>
<path d="M16.1807 12.1353H19.9197V15.8742H16.1807V12.1353Z" fill="#53606A"/>
<path fill-rule="evenodd" clip-rule="evenodd" d="M19.6081 12.4469H16.4922V15.5627H19.6081V12.4469ZM16.1807 12.1353V15.8742H19.9197V12.1353H16.1807Z" fill="#292929"/>
<path d="M16.1807 8.08447H19.9197V11.8235H16.1807V8.08447Z" fill="#53606A"/>
<path fill-rule="evenodd" clip-rule="evenodd" d="M19.6081 8.39602H16.4922V11.5119H19.6081V8.39602ZM16.1807 8.08447V11.8235H19.9197V8.08447H16.1807Z" fill="#292929"/>
<path d="M16.1807 4.0332H19.9197V7.77217H16.1807V4.0332Z" fill="#53606A"/>
<path fill-rule="evenodd" clip-rule="evenodd" d="M19.6081 4.34481H16.4922V7.46068H19.6081V4.34481ZM16.1807 4.0332V7.77217H19.9197V4.0332H16.1807Z" fill="#292929"/>
<path d="M8.02441 16.186H11.7635V19.9251H8.02441V16.186Z" fill="#53606A"/>
<path fill-rule="evenodd" clip-rule="evenodd" d="M11.4519 16.4976H8.33603V19.6135H11.4519V16.4976ZM8.02441 16.186V19.9251H11.7635V16.186H8.02441Z" fill="#292929"/>
<path d="M8.02441 12.1353H11.7635V15.8742H8.02441V12.1353Z" fill="#53606A"/>
<path fill-rule="evenodd" clip-rule="evenodd" d="M11.4519 12.4469H8.33603V15.5627H11.4519V12.4469ZM8.02441 12.1353V15.8742H11.7635V12.1353H8.02441Z" fill="#292929"/>
<path d="M8.02441 8.08447H11.7635V11.8235H8.02441V8.08447Z" fill="#53606A"/>
<path fill-rule="evenodd" clip-rule="evenodd" d="M11.4519 8.39602H8.33603V11.5119H11.4519V8.39602ZM8.02441 8.08447V11.8235H11.7635V8.08447H8.02441Z" fill="#292929"/>
<path d="M8.02441 4.0332L9.8564 5.94025L11.7635 7.77217H8.02441V4.0332Z" fill="#53606A"/>
<path fill-rule="evenodd" clip-rule="evenodd" d="M9.8564 5.94025L8.02441 4.0332V7.77217H11.7635L9.8564 5.94025ZM10.9893 7.46068L9.63601 6.16064L8.33603 4.80732V7.46068H10.9893Z" fill="#292929"/>
<path d="M9.77246 12.1353H11.5787V15.8742H9.77246V12.1353Z" fill="#292929"/>
<path fill-rule="evenodd" clip-rule="evenodd" d="M11.2671 12.4469H10.0841V15.5627H11.2671V12.4469ZM9.77246 12.1353V15.8742H11.5787V12.1353H9.77246Z" fill="#292929"/>
</g>
<defs>
<clipPath id="clip0_6429_61272">
<rect width="24" height="24" fill="white"/>
</clipPath>
</defs>
</svg>
