<svg width="128" height="34" viewBox="0 0 128 34" fill="none" xmlns="http://www.w3.org/2000/svg">
<path d="M60.4901 14.1604H71.9322V12.2036H60.4901V14.1604ZM77.8191 17.991H86.9894V16.0674H75.4478V16.9629C75.4478 19.7985 77.2056 21.5729 80.091 21.5729H87.2216V19.3674H80.1241C78.7478 19.384 78.101 18.8865 77.8191 17.991ZM75.4478 14.3262H87.2216V12.3031H75.4478V14.3262ZM108.215 21.5895H110.471V12.3031H108.215V21.5895ZM101.599 17.7423C101.599 17.8749 101.615 18.0739 101.632 18.3558L101.217 17.9247C98.8959 15.4041 96.1431 13.2483 93.1582 12.3031H91.2015V21.5895H93.407V15.3543C93.407 15.2549 93.3904 15.0393 93.3738 14.7076C93.606 14.7905 93.805 14.8734 93.9874 14.9398C96.4085 15.8518 98.8627 18.1237 101.4 21.6061H103.788V12.3197H101.582V17.7423H101.599ZM127.999 12.3031H124.815L121.067 15.6694L117.386 12.3031H114.169L119.558 16.9795L114.202 21.5895H117.336L121.167 18.19L124.831 21.5895H127.999L122.609 16.8966L127.999 12.3031ZM62.8117 15.9679H60.3574V21.5895H62.8448V19.1518C62.9112 18.8202 63.1599 18.19 63.9725 18.19H64.1383H71.9322V15.9679H62.8448H62.8117Z" fill="white"/>
<path fill-rule="evenodd" clip-rule="evenodd" d="M46.4819 7.79392C52.7833 4.02962 52.2029 0 52.2029 0C49.8482 3.48239 32.6684 11.7904 32.6684 11.7904L30.9935 16.732C30.9966 16.7266 31.4511 16.4691 32.2251 16.0305C34.9416 14.4911 41.5943 10.7213 46.4819 7.79392ZM25.7021 16.8321C25.7021 16.8321 16.5153 11.6748 10.2138 7.91051C4.23932 4.31637 4.46872 0.51244 4.49171 0.131197L4.49171 0.131181L4.49171 0.131113C4.4929 0.111358 4.49354 0.100818 4.49272 0.100001C6.84748 3.58239 24.0107 11.8904 24.0107 11.8904L25.7021 16.8321ZM30.9767 18.4723L42.2033 11.6733C42.2033 11.6733 55.6685 3.59749 56.6635 0.463336C56.6635 0.463336 56.4479 6.64873 51.3901 10.1145C46.3324 13.5803 33.0993 20.9929 33.0993 20.9929L28.3898 33.2641V33.6621L28.3069 33.4631L28.2737 33.5461V33.3636L23.5642 21.0924C23.5642 21.0924 10.3145 13.6964 5.27333 10.214C0.232157 6.73164 0 0.562833 0 0.562833C1.01155 3.71357 14.4768 11.7894 14.4768 11.7894L25.7034 18.5884L28.3234 25.0391L30.9767 18.4723ZM28.2898 5.68837L31.6561 11.8903L28.2898 23.2164L24.9235 11.8903L28.2898 5.68837ZM23.3644 22.7682L9.9986 14.8084C9.9986 14.8084 9.78302 22.8843 23.3644 22.7682ZM33.2335 22.7682C46.8149 22.8843 46.5993 14.8084 46.5993 14.8084L33.2335 22.7682Z" fill="url(#paint0_linear_6147_48173)"/>
<defs>
<linearGradient id="paint0_linear_6147_48173" x1="15.2968" y1="33.4599" x2="56.704" y2="11.3586" gradientUnits="userSpaceOnUse">
<stop stop-color="#E71505"/>
<stop offset="0.7318" stop-color="#FFB400"/>
<stop offset="1" stop-color="#FFF888"/>
</linearGradient>
</defs>
</svg>
