<svg width="156" height="156" viewBox="0 0 156 156" fill="none" xmlns="http://www.w3.org/2000/svg">
<path fill-rule="evenodd" clip-rule="evenodd" d="M94.3289 69.8774C99.9679 66.5558 99.4486 63 99.4486 63C97.3413 66.0729 81.9675 73.4039 81.9675 73.4039L80.4687 77.7644C80.4715 77.7596 80.8777 77.5326 81.5696 77.146L81.5696 77.146L81.5701 77.1457L81.5708 77.1453C84.0019 75.787 89.9551 72.4605 94.3289 69.8774ZM75.7381 77.8522C75.7381 77.8522 67.5169 73.3014 61.8779 69.9798C56.5314 66.8083 56.7367 63.4517 56.7573 63.1153C56.7584 63.0978 56.7589 63.0885 56.7582 63.0878C58.8654 66.1606 74.2244 73.4916 74.2244 73.4916L75.7381 77.8522ZM80.4548 79.3008L90.5012 73.3014C90.5012 73.3014 102.551 66.1753 103.441 63.4097C103.441 63.4097 103.248 68.8677 98.7223 71.9259C94.1962 74.9841 82.3542 81.525 82.3542 81.525L78.1398 92.3532V92.7044L78.0656 92.5288L78.0359 92.6019V92.441L73.8215 81.6128C73.8215 81.6128 61.9646 75.0866 57.4534 72.0137C52.9421 68.9408 52.7344 63.4975 52.7344 63.4975C53.6396 66.2777 65.6894 73.4038 65.6894 73.4038L75.7358 79.4032L78.0804 85.0954L80.4548 79.3008ZM78.0499 68.019L81.0624 73.4917L78.0499 83.4858L75.0375 73.4917L78.0499 68.019ZM73.6443 83.0908L61.6835 76.0671C61.6835 76.0671 61.4906 83.1933 73.6443 83.0908ZM82.4732 83.0908C94.6268 83.1933 94.4339 76.0671 94.4339 76.0671L82.4732 83.0908Z" fill="#53606A"/>
</svg>
